<?xml version="1.0" encoding="UTF-8"?>
<!--
Soliguide: Useful information for those who need it

SPDX-FileCopyrightText: © 2025 Solinum

SPDX-License-Identifier: AGPL-3.0-only

This program is free software: you can redistribute it and/or modify
it under the terms of the GNU Affero General Public License as published
by the Free Software Foundation, either version 3 of the License, or
(at your option) any later version.

This program is distributed in the hope that it will be useful,
but WITHOUT ANY WARRANTY; without even the implied warranty of
MERCHANTABILITY or FITNESS FOR A PARTICULAR PURPOSE.  See the
GNU Affero General Public License for more details.

You should have received a copy of the GNU Affero General Public License
along with this program.  If not, see <https://www.gnu.org/licenses/>.
-->
<svg xmlns="http://www.w3.org/2000/svg" height="24px" viewBox="0 -960 960 960" width="24px" fill="#5f6368"><path d="M160-120v-375l-72 55-48-64 440-336 440 336-48 63-72-54v375H160Zm80-80h480v-356L480-739 240-556v356Zm0 0h480-480Zm80-160q-17 0-28.5-11.5T280-400q0-17 11.5-28.5T320-440q17 0 28.5 11.5T360-400q0 17-11.5 28.5T320-360Zm160 0q-17 0-28.5-11.5T440-400q0-17 11.5-28.5T480-440q17 0 28.5 11.5T520-400q0 17-11.5 28.5T480-360Zm160 0q-17 0-28.5-11.5T600-400q0-17 11.5-28.5T640-440q17 0 28.5 11.5T680-400q0 17-11.5 28.5T640-360Z"/></svg>