<?xml version="1.0" encoding="UTF-8"?>
<!--
Soliguide: Useful information for those who need it

SPDX-FileCopyrightText: © 2025 Solinum

SPDX-License-Identifier: AGPL-3.0-only

This program is free software: you can redistribute it and/or modify
it under the terms of the GNU Affero General Public License as published
by the Free Software Foundation, either version 3 of the License, or
(at your option) any later version.

This program is distributed in the hope that it will be useful,
but WITHOUT ANY WARRANTY; without even the implied warranty of
MERCHANTABILITY or FITNESS FOR A PARTICULAR PURPOSE.  See the
GNU Affero General Public License for more details.

You should have received a copy of the GNU Affero General Public License
along with this program.  If not, see <https://www.gnu.org/licenses/>.
-->
<svg xmlns="http://www.w3.org/2000/svg" height="24px" viewBox="0 -960 960 960" width="24px" fill="#5f6368"><path d="m480-840 440 330-48 64-72-54v380H160v-380l-72 54-48-64 440-330ZM294-478q0 53 57 113t129 125q72-65 129-125t57-113q0-44-30-73t-72-29q-26 0-47.5 10.5T480-542q-15-17-37.5-27.5T396-580q-42 0-72 29t-30 73Zm426 278v-360L480-740 240-560v360h480Zm0 0H240h480Z"/></svg>