<?xml version="1.0" encoding="UTF-8"?>
<!--
Soliguide: Useful information for those who need it

SPDX-FileCopyrightText: © 2024 Solinum

SPDX-License-Identifier: AGPL-3.0-only

This program is free software: you can redistribute it and/or modify
it under the terms of the GNU Affero General Public License as published
by the Free Software Foundation, either version 3 of the License, or
(at your option) any later version.

This program is distributed in the hope that it will be useful,
but WITHOUT ANY WARRANTY; without even the implied warranty of
MERCHANTABILITY or FITNESS FOR A PARTICULAR PURPOSE.  See the
GNU Affero General Public License for more details.

You should have received a copy of the GNU Affero General Public License
along with this program.  If not, see <https://www.gnu.org/licenses/>.
-->
<svg xmlns="http://www.w3.org/2000/svg" style="margin:auto;background:#fff" width="254" height="254" viewBox="0 0 100 100" preserveAspectRatio="xMidYMid" display="block"><rect x="48.5" y="15.5" rx="1.5" ry="1.95" width="3" height="13" fill="#e65946"><animate attributeName="opacity" values="1;0" keyTimes="0;1" dur="0.8928571428571428s" begin="-0.8370535714285714s" repeatCount="indefinite"/></rect><rect x="48.5" y="15.5" rx="1.5" ry="1.95" width="3" height="13" fill="#e65946" transform="rotate(22.5 50 50)"><animate attributeName="opacity" values="1;0" keyTimes="0;1" dur="0.8928571428571428s" begin="-0.7812499999999999s" repeatCount="indefinite"/></rect><rect x="48.5" y="15.5" rx="1.5" ry="1.95" width="3" height="13" fill="#e65946" transform="rotate(45 50 50)"><animate attributeName="opacity" values="1;0" keyTimes="0;1" dur="0.8928571428571428s" begin="-0.7254464285714285s" repeatCount="indefinite"/></rect><rect x="48.5" y="15.5" rx="1.5" ry="1.95" width="3" height="13" fill="#e65946" transform="rotate(67.5 50 50)"><animate attributeName="opacity" values="1;0" keyTimes="0;1" dur="0.8928571428571428s" begin="-0.6696428571428571s" repeatCount="indefinite"/></rect><rect x="48.5" y="15.5" rx="1.5" ry="1.95" width="3" height="13" fill="#e65946" transform="rotate(90 50 50)"><animate attributeName="opacity" values="1;0" keyTimes="0;1" dur="0.8928571428571428s" begin="-0.6138392857142857s" repeatCount="indefinite"/></rect><rect x="48.5" y="15.5" rx="1.5" ry="1.95" width="3" height="13" fill="#e65946" transform="rotate(112.5 50 50)"><animate attributeName="opacity" values="1;0" keyTimes="0;1" dur="0.8928571428571428s" begin="-0.5580357142857142s" repeatCount="indefinite"/></rect><rect x="48.5" y="15.5" rx="1.5" ry="1.95" width="3" height="13" fill="#e65946" transform="rotate(135 50 50)"><animate attributeName="opacity" values="1;0" keyTimes="0;1" dur="0.8928571428571428s" begin="-0.5022321428571428s" repeatCount="indefinite"/></rect><rect x="48.5" y="15.5" rx="1.5" ry="1.95" width="3" height="13" fill="#e65946" transform="rotate(157.5 50 50)"><animate attributeName="opacity" values="1;0" keyTimes="0;1" dur="0.8928571428571428s" begin="-0.4464285714285714s" repeatCount="indefinite"/></rect><rect x="48.5" y="15.5" rx="1.5" ry="1.95" width="3" height="13" fill="#e65946" transform="rotate(180 50 50)"><animate attributeName="opacity" values="1;0" keyTimes="0;1" dur="0.8928571428571428s" begin="-0.39062499999999994s" repeatCount="indefinite"/></rect><rect x="48.5" y="15.5" rx="1.5" ry="1.95" width="3" height="13" fill="#e65946" transform="rotate(202.5 50 50)"><animate attributeName="opacity" values="1;0" keyTimes="0;1" dur="0.8928571428571428s" begin="-0.33482142857142855s" repeatCount="indefinite"/></rect><rect x="48.5" y="15.5" rx="1.5" ry="1.95" width="3" height="13" fill="#e65946" transform="rotate(225 50 50)"><animate attributeName="opacity" values="1;0" keyTimes="0;1" dur="0.8928571428571428s" begin="-0.2790178571428571s" repeatCount="indefinite"/></rect><rect x="48.5" y="15.5" rx="1.5" ry="1.95" width="3" height="13" fill="#e65946" transform="rotate(247.5 50 50)"><animate attributeName="opacity" values="1;0" keyTimes="0;1" dur="0.8928571428571428s" begin="-0.2232142857142857s" repeatCount="indefinite"/></rect><rect x="48.5" y="15.5" rx="1.5" ry="1.95" width="3" height="13" fill="#e65946" transform="rotate(270 50 50)"><animate attributeName="opacity" values="1;0" keyTimes="0;1" dur="0.8928571428571428s" begin="-0.16741071428571427s" repeatCount="indefinite"/></rect><rect x="48.5" y="15.5" rx="1.5" ry="1.95" width="3" height="13" fill="#e65946" transform="rotate(292.5 50 50)"><animate attributeName="opacity" values="1;0" keyTimes="0;1" dur="0.8928571428571428s" begin="-0.11160714285714285s" repeatCount="indefinite"/></rect><rect x="48.5" y="15.5" rx="1.5" ry="1.95" width="3" height="13" fill="#e65946" transform="rotate(315 50 50)"><animate attributeName="opacity" values="1;0" keyTimes="0;1" dur="0.8928571428571428s" begin="-0.055803571428571425s" repeatCount="indefinite"/></rect><rect x="48.5" y="15.5" rx="1.5" ry="1.95" width="3" height="13" fill="#e65946" transform="rotate(337.5 50 50)"><animate attributeName="opacity" values="1;0" keyTimes="0;1" dur="0.8928571428571428s" begin="0s" repeatCount="indefinite"/></rect></svg>
