<?xml version="1.0" encoding="UTF-8"?>
<svg version="1.1" xmlns="http://www.w3.org/2000/svg" width="2504" height="1253" viewBox="0 0 2504 1253">
<path d="M0 0 L2504 0 L2504 1253 L0 1253 Z" fill="#FFFFFF"/>
<path d="M0 0 C24.75 0 49.5 0 75 0 C75.33 121.44 75.66 242.88 76 368 C78.64 362.72 81.28 357.44 84 352 C92.40974656 338.57153372 102.03647838 326.41784038 113 315 C113.53641113 314.43635742 114.07282227 313.87271484 114.62548828 313.29199219 C122.84550326 304.69456387 131.42595412 297.05329792 141 290 C141.58281738 289.56703613 142.16563477 289.13407227 142.76611328 288.68798828 C203.67580084 243.61515572 277.89336786 230.79750015 351.9375 241.6875 C398.69665737 249.10981309 444.39920218 266.5227764 481 297 C481.82346924 297.67119873 481.82346924 297.67119873 482.66357422 298.35595703 C497.0663421 310.09884876 510.72443367 323.20081919 522 338 C522.99861869 339.2602104 523.99874011 340.51923081 525 341.77734375 C559.13562093 385.03994508 578.67421168 436.17402408 587.25 490.3125 C587.40122314 491.26398926 587.55244629 492.21547852 587.70825195 493.19580078 C590.73261681 513.60300577 591.37118831 533.89429208 591.3125 554.5 C591.31057685 555.84034209 591.30873632 557.1806843 591.30697632 558.52102661 C591.2707008 577.52072797 590.89864874 596.19016617 588 615 C587.75056641 616.74240967 587.75056641 616.74240967 587.49609375 618.52001953 C579.39402775 674.4467807 558.21187675 726.68549114 523 771 C522.54898926 771.5681543 522.09797852 772.13630859 521.63330078 772.72167969 C509.14016961 788.26003986 494.79910137 803.12655431 478.61816406 814.82617188 C476.99607588 816.00284658 475.39993431 817.20913704 473.8046875 818.421875 C437.52962811 845.60783295 393.66042336 862.37077614 349 869 C347.49880615 869.22647217 347.49880615 869.22647217 345.96728516 869.45751953 C301.3017742 875.90588095 254.64984844 873.18423924 212 858 C211.22156738 857.72349609 210.44313477 857.44699219 209.64111328 857.16210938 C177.22380466 845.41257555 146.82805927 827.13595465 121.71875 803.5078125 C119.79422353 801.73260274 117.87688681 800.05303452 115.85546875 798.3984375 C112.10995329 795.25240947 109.15348414 791.72244289 106 788 C105.17371094 787.07316406 104.34742188 786.14632812 103.49609375 785.19140625 C98.28762615 779.29989178 93.60192967 773.22011147 89.3125 766.625 C88.89774414 765.99086182 88.48298828 765.35672363 88.05566406 764.70336914 C83.59055823 757.6695244 79.94980496 750.4058843 76 743 C75.67 782.27 75.34 821.54 75 862 C50.25 862 25.5 862 0 862 C0 577.54 0 293.08 0 0 Z M156 359 C155.44731445 359.47824219 154.89462891 359.95648437 154.32519531 360.44921875 C131.06238697 380.74200453 113.83958451 406.03972039 101 434 C100.6704834 434.71414063 100.3409668 435.42828125 100.00146484 436.1640625 C85.13138426 468.81992575 76.96632929 505.97243448 76.796875 541.87890625 C76.78981537 542.88080994 76.78275574 543.88271362 76.77548218 544.91497803 C76.50193087 575.5866293 76.50193087 575.5866293 80 606 C80.28206299 607.62397705 80.28206299 607.62397705 80.56982422 609.28076172 C87.74948956 649.45147479 103.03514758 690.09894525 129 722 C130.07121094 723.35544922 130.07121094 723.35544922 131.1640625 724.73828125 C165.87151078 768.09193131 215.84788401 795.93830339 271.1875 802.3125 C326.34566205 807.75197273 383.48623219 793.29272996 427.0625 758.4140625 C431.52249633 754.74879955 435.8167311 750.97861977 440 747 C440.55413574 746.47841309 441.10827148 745.95682617 441.67919922 745.41943359 C488.08846929 701.47967051 513.0760089 635.29126897 515.06329346 571.98370361 C515.17973615 566.69769368 515.19477111 561.41210477 515.1875 556.125 C515.18689575 555.31052399 515.1862915 554.49604797 515.18566895 553.65689087 C515.06862189 495.34104892 500.36704232 434.10952014 463 388 C462.06800781 386.76636719 462.06800781 386.76636719 461.1171875 385.5078125 C445.95343493 365.94359839 426.65070574 349.00995426 405 337 C404.18821289 336.5477002 403.37642578 336.09540039 402.54003906 335.62939453 C323.36021317 291.94544391 225.1188932 298.92293246 156 359 Z " fill="#C6D32C" transform="translate(1175,378)"/>
<path d="M0 0 C12.54241016 2.50848203 24.87429367 5.02677335 37.1875 8.375 C37.95715088 8.58320374 38.72680176 8.79140747 39.51977539 9.00592041 C118.50549597 30.5170361 192.30804836 67.20798494 256.41796875 118.1640625 C259.77994086 120.83506261 263.17349221 123.46396839 266.56982422 126.09106445 C275.22968874 132.79278338 283.77439566 139.62108404 292.24267578 146.56298828 C293.85341883 147.8801366 295.47128566 149.18856073 297.08984375 150.49609375 C302.42372534 154.81257296 307.59329155 159.25993299 312.6640625 163.8828125 C314.76918748 165.79080203 316.90613634 167.65047069 319.0625 169.5 C322.81588446 172.76249917 326.28539364 176.26661107 329.7734375 179.80859375 C331.82399377 181.82677281 333.93102831 183.70313017 336.125 185.5625 C339.49957345 188.45689699 342.35719723 191.5878551 345.2265625 194.9765625 C347.02461917 197.02808972 348.9157426 198.91519541 350.875 200.8125 C354.74676416 204.63234395 358.13625653 208.73520046 361.53515625 212.9765625 C363.24353159 215.07209738 364.96213878 217.12045388 366.74609375 219.1484375 C379.87366836 234.07497603 391.25251473 250.29872142 402 267 C402.51385254 267.79567383 403.02770508 268.59134766 403.55712891 269.41113281 C428.93604153 308.92760642 447.84539863 351.6484032 463 396 C463.38397949 397.11922852 463.76795898 398.23845703 464.16357422 399.39160156 C470.83234819 418.9969439 476.19348614 438.86999223 481 459 C481.17337891 459.72556091 481.34675781 460.45112183 481.52539062 461.19866943 C494.59980522 516.21142734 501.78844854 572.58442351 505 629 C505.05220703 629.90733887 505.10441406 630.81467773 505.15820312 631.74951172 C507.81458181 678.78545164 507.18612384 725.91066861 507 773 C481.92 773 456.84 773 431 773 C430.67 707.66 430.34 642.32 430 575 C425.545 587.87 425.545 587.87 421 601 C418.10446467 607.74302747 415.1869753 614.40078065 412 621 C411.6611377 621.70801758 411.32227539 622.41603516 410.97314453 623.14550781 C403.99608333 637.65806752 396.34048968 651.86029602 387 665 C386.48775879 665.72123047 385.97551758 666.44246094 385.44775391 667.18554688 C378.44581678 676.98545888 371.30099493 686.26290208 363 695 C361.84716152 696.32728115 360.70085933 697.66027994 359.5625 699 C352.58104417 706.99515668 345.03052318 714.23013981 336.72265625 720.83203125 C334.95701076 722.23796131 333.21296177 723.67162233 331.49609375 725.13671875 C284.22249882 765.3373178 220.85103037 784.28639567 159.5 784.1875 C158.80101593 784.18689575 158.10203186 784.1862915 157.38186646 784.18566895 C145.49441707 784.15793602 133.78171915 783.65641265 122 782 C121.10619629 781.87641113 120.21239258 781.75282227 119.29150391 781.62548828 C66.64158579 774.05952722 17.85364251 751.06704315 -22 716 C-22.88812378 715.24106445 -22.88812378 715.24106445 -23.79418945 714.46679688 C-36.54011014 703.51120376 -48.85067482 691.4196633 -59 678 C-59.97202557 676.77710707 -60.94616157 675.55589002 -61.921875 674.3359375 C-103.6364872 621.69153868 -129.91123293 551.80327571 -130.203125 484.28125 C-130.21013931 483.19302444 -130.21715363 482.10479889 -130.22438049 480.9835968 C-130.24179819 477.48902203 -130.24823312 473.99461659 -130.25 470.5 C-130.25067474 469.30748627 -130.25134949 468.11497253 -130.25204468 466.88632202 C-130.23659043 449.72618572 -129.89578522 432.95288432 -127 416 C-126.83371094 414.96166016 -126.66742188 413.92332031 -126.49609375 412.85351562 C-117.67940207 358.61453459 -95.41099059 306.24120039 -60 264 C-59.16726562 262.98292969 -58.33453125 261.96585938 -57.4765625 260.91796875 C-45.99837978 247.06839388 -33.32027006 233.92091537 -19 223 C-17.76308775 222.0132651 -16.52751524 221.02484946 -15.29296875 220.03515625 C38.88618297 177.04848997 111.13383309 154.65778703 180.23046875 161.5390625 C190.39613078 162.77385943 200.19068072 165.10030775 210 168 C211.33212427 168.33813285 212.66523361 168.67245217 214 169 C206.26829731 162.41618473 198.23070009 156.57214277 189.75 151 C188.54497008 150.20317517 187.33997365 149.40629968 186.13500977 148.609375 C177.88906707 143.17168892 169.58783491 137.88439015 161 133 C160.35998047 132.63068359 159.71996094 132.26136719 159.06054688 131.88085938 C153.75682706 128.82628149 148.39778177 125.88484609 143 123 C142.09507812 122.51547363 141.19015625 122.03094727 140.2578125 121.53173828 C96.0096237 98.08109757 48.56414756 83.42685825 0 72 C0 48.24 0 24.48 0 0 Z M27 275 C25.7625 276.07314453 25.7625 276.07314453 24.5 277.16796875 C14.02788679 286.41288119 4.68518037 296.07251522 -3.67675781 307.23681641 C-4.93448034 308.91269686 -6.2123063 310.57149506 -7.4921875 312.23046875 C-48.86867541 366.91243413 -60.52639046 442.26492587 -52.0234375 509.01171875 C-44.71069435 560.81634965 -24.93030568 609.65351487 10 649 C11.30130859 650.485 11.30130859 650.485 12.62890625 652 C17.45942827 657.42788429 22.41340139 662.36474246 28 667 C28.8353125 667.73476562 29.670625 668.46953125 30.53125 669.2265625 C57.9803672 692.98060623 91.31358597 707.91739504 127 714 C127.75732422 714.12987305 128.51464844 714.25974609 129.29492188 714.39355469 C182.62094181 723.00775791 241.26567823 708.29240589 285 677 C290.52698436 672.89334397 295.81222683 668.52509129 301 664 C301.57975586 663.4946875 302.15951172 662.989375 302.75683594 662.46875 C349.50156918 621.32266962 375.1065408 563.06988378 383 502 C383.1045752 501.19208008 383.20915039 500.38416016 383.31689453 499.55175781 C386.03590378 474.71587007 385.54832702 447.55606206 381 423 C380.70198486 421.38714111 380.70198486 421.38714111 380.39794922 419.74169922 C373.84707029 385.55445315 361.50831387 351.42097041 341 323 C339.95585938 321.5459375 339.95585938 321.5459375 338.890625 320.0625 C325.04297603 301.20612693 309.10629579 283.63439779 290 270 C289.34515625 269.52788086 288.6903125 269.05576172 288.015625 268.56933594 C261.45058647 249.60679199 231.98767779 237.26084054 200 231 C199.09588379 230.82210937 198.19176758 230.64421875 197.26025391 230.4609375 C137.77316272 219.39969642 72.71722311 234.924165 27 275 Z " fill="#C6D32C" transform="translate(130,465)"/>
<path d="M0 0 C71.34457665 -1.3230182 142.15302363 15.12999453 195.86181641 64.12451172 C196.38074463 64.5948584 196.89967285 65.06520508 197.43432617 65.54980469 C213.30742358 80.24029961 225.49482962 98.82803814 235.11181641 118.06201172 C235.44181641 82.42201172 235.77181641 46.78201172 236.11181641 10.06201172 C291.55181641 10.06201172 346.99181641 10.06201172 404.11181641 10.06201172 C404.11181641 31.84201172 404.11181641 53.62201172 404.11181641 76.06201172 C371.44181641 76.06201172 338.77181641 76.06201172 305.11181641 76.06201172 C305.17328562 125.22685344 305.24540543 174.39162713 305.34080269 223.55641228 C305.3520699 229.37004613 305.36320851 235.18368021 305.37426758 240.99731445 C305.3775731 242.73328846 305.3775731 242.73328846 305.38094541 244.50433265 C305.41624996 263.20614852 305.44115264 281.90796435 305.46216343 300.60980112 C305.48398012 319.82127953 305.5170859 339.03271496 305.56051797 358.24415678 C305.58693388 370.08413284 305.6047032 381.92405543 305.61116245 393.76405948 C305.61644727 401.89991698 305.63276704 410.03570737 305.65748207 418.17152882 C305.67139185 422.85480203 305.68070778 427.53795542 305.67682457 432.22125053 C305.65188124 470.22306555 306.82280642 510.13867795 334.40869141 539.50732422 C353.50475422 557.91692726 377.38337857 560.82475625 403.11181641 563.06201172 C403.11181641 586.16201172 403.11181641 609.26201172 403.11181641 633.06201172 C353.59074263 633.06201172 313.78106309 625.64130134 277.11181641 591.06201172 C276.10054687 590.13001953 276.10054687 590.13001953 275.06884766 589.17919922 C254.85969374 569.89781085 243.06189013 543.70978183 236.11181641 517.06201172 C232.82532601 520.26261822 229.83691485 523.53208726 226.98681641 527.12451172 C214.86241586 542.06528867 201.34192136 556.27166058 186.11181641 568.06201172 C185.14244141 568.83673828 184.17306641 569.61146484 183.17431641 570.40966797 C153.95179405 593.45893248 120.59080684 610.87589338 85.11181641 622.06201172 C84.26699707 622.32852539 83.42217773 622.59503906 82.55175781 622.86962891 C72.92532049 625.85795189 63.25965933 628.3955019 53.36181641 630.31201172 C52.58394775 630.46307373 51.8060791 630.61413574 51.00463867 630.76977539 C36.62259561 633.38858635 22.45579943 634.41259859 7.86181641 634.31201172 C7.05410797 634.30890991 6.24639954 634.30580811 5.41421509 634.3026123 C-7.11454416 634.24638034 -19.4698015 633.83746182 -31.88818359 632.06201172 C-32.79648926 631.93842285 -33.70479492 631.81483398 -34.640625 631.6875 C-78.2739412 625.60992346 -119.76452182 610.44898999 -155.88818359 585.06201172 C-156.48260254 584.64467773 -157.07702148 584.22734375 -157.68945312 583.79736328 C-172.04286489 573.60169777 -186.88685289 561.5844859 -198.21240234 548.04248047 C-199.36558348 546.67963003 -200.55876045 545.34995588 -201.78271484 544.05029297 C-248.66165619 494.21423844 -271.54162934 424.0385379 -277.88818359 357.06201172 C-277.98244629 356.09980713 -278.07670898 355.13760254 -278.17382812 354.14624023 C-279.19309254 342.16213401 -279.13187285 330.14370007 -279.13818359 318.12451172 C-279.13885834 316.96861542 -279.13953308 315.81271912 -279.14022827 314.62179565 C-279.12322951 296.25185637 -278.52213401 278.26839093 -275.88818359 260.06201172 C-275.71657715 258.85722168 -275.5449707 257.65243164 -275.36816406 256.41113281 C-266.39307336 195.43024398 -243.08367871 135.10911298 -200.93896484 89.29638672 C-199.02432668 87.21034286 -197.16995401 85.08519126 -195.32568359 82.93701172 C-189.3544893 76.09903115 -182.8459559 69.88450939 -175.88818359 64.06201172 C-175.14882568 63.43601074 -175.14882568 63.43601074 -174.39453125 62.79736328 C-125.81108653 21.88042945 -63.09410912 1.35468332 0 0 Z M-128.40966797 125.63476562 C-129.94662769 127.11842918 -131.50320125 128.57973449 -133.06005859 130.04248047 C-141.70748528 138.29412908 -148.91347606 147.37504551 -155.88818359 157.06201172 C-156.32727051 157.66174805 -156.76635742 158.26148438 -157.21875 158.87939453 C-199.77894641 217.43080012 -209.60225914 296.49423821 -199.38427734 366.51513672 C-190.77800456 420.8302805 -165.49271975 478.59210331 -121.88818359 514.06201172 C-121.38367676 514.48417969 -120.87916992 514.90634766 -120.359375 515.34130859 C-106.02039857 527.33914368 -90.87005224 537.2252462 -73.88818359 545.06201172 C-72.75123047 545.59439453 -71.61427734 546.12677734 -70.44287109 546.67529297 C-17.85697946 570.28404014 42.74456248 568.95380034 96.17724609 549.20410156 C102.10178382 546.89836217 107.73496456 544.18621432 113.28027344 541.08447266 C115.22008518 540.00157055 117.17777348 538.95683509 119.13916016 537.91357422 C145.40449116 523.76300596 168.58644038 503.18250086 186.11181641 479.06201172 C186.87751953 478.01787109 187.64322266 476.97373047 188.43212891 475.89794922 C231.38607527 415.58282592 243.75947253 337.79214865 231.86181641 265.56201172 C229.71478886 253.16122839 226.90019673 241.06278698 223.11181641 229.06201172 C222.84643066 228.22025391 222.58104492 227.37849609 222.30761719 226.51123047 C211.61162006 193.21490467 194.74700769 163.13597949 171.13525391 137.30810547 C169.53769712 135.53475576 168.02798148 133.7451719 166.54931641 131.87451172 C163.97520695 128.90438543 161.23993648 126.43203411 158.24853516 123.89404297 C156.87089946 122.71285259 155.51680507 121.50335546 154.19384766 120.26123047 C83.36507287 54.09044087 -34.03188345 53.60771226 -128.40966797 125.63476562 Z " fill="#C6D32C" transform="translate(2099.88818359375,615.93798828125)"/>
<path d="M0 0 C3.67480832 0.62560997 7.34870101 1.2564487 11.02246094 1.88818359 C12.05543304 2.06397446 13.08840515 2.23976532 14.15267944 2.42088318 C21.98455398 3.77148155 29.60267219 5.44450961 37.25 7.625 C38.45325928 7.96345947 39.65651855 8.30191895 40.89624023 8.65063477 C76.07315669 18.80581403 110.85743709 34.0935379 141 55 C141.62438965 55.42909668 142.2487793 55.85819336 142.89208984 56.30029297 C154.37369225 64.21957005 165.00144752 72.94463598 175.2109375 82.43359375 C177.53810845 84.57498215 179.90058615 86.64342629 182.3125 88.6875 C185.5722257 91.51796141 188.38623437 94.56944943 191.171875 97.86328125 C193.1168342 100.13655621 195.14860655 102.31075649 197.1875 104.5 C244.62027441 157.31920811 264.20183706 229.4111795 264.25 299.125 C264.25067474 300.01372803 264.25134949 300.90245605 264.25204468 301.81811523 C264.15641867 382.12965917 242.79980418 459.75816364 161 611 C160.53287598 611.680625 160.06575195 612.36125 159.58447266 613.0625 C149.12439818 628.20004248 137.8622426 642.9353925 126 657 C125.154375 658.00675781 124.30875 659.01351562 123.4375 660.05078125 C121.11217194 662.81310053 118.77404939 665.56431582 116.43261719 668.31298828 C115.01400845 669.98350403 113.60406198 671.66101042 112.1953125 673.33984375 C106.00707399 680.67945621 99.5791223 687.74790195 92.95825195 694.70019531 C91.70294876 696.01844881 90.4606001 697.34917783 89.23248291 698.6927948 C87 701 87 701 84.45457458 703.11708069 C79.09968219 707.96618907 76.49448617 711.56469211 75.90478611 718.72962093 C75.74794903 723.21689182 75.81285565 727.68416321 75.91796875 732.171875 C75.92904094 734.14127808 75.9360684 736.11070758 75.93928528 738.08013916 C75.95607661 742.20297746 76.00522698 746.32362684 76.08081055 750.44580078 C76.17619904 755.66027067 76.21650512 760.8731484 76.23587227 766.08839798 C76.37954194 829.27512185 76.37954194 829.27512185 104.7890625 883.87890625 C124.25560977 902.55441008 148.10279148 906.46255076 174 906.2109375 C190.57115529 905.84894624 206.24859498 901.96248729 222.20605469 897.73022461 C225.79673744 896.79176497 229.39951518 895.9001212 233 895 C233 917.44 233 939.88 233 963 C226.19077845 966.40461077 220.31231512 969.13794309 213.125 971.125 C212.22297852 971.37725342 211.32095703 971.62950684 210.39160156 971.8894043 C165.40886875 983.99622579 114.89013606 979.56034323 74 957 C62.90596479 950.32769784 53.14468482 942.11903353 44 933 C43.27683594 932.30003906 42.55367187 931.60007812 41.80859375 930.87890625 C-0.91020328 886.60669842 -0.52992976 811.95522023 0 755 C-0.83470825 755.46672119 -0.83470825 755.46672119 -1.6862793 755.94287109 C-34.0485944 773.97524174 -70.87254871 793 -109 793 C-109 770.23 -109 747.46 -109 724 C-101.08 721.03 -93.16 718.06 -85 715 C-80.25555446 712.97738069 -75.59096003 710.9514556 -70.9375 708.75 C-69.77831055 708.20625732 -68.61912109 707.66251465 -67.42480469 707.10229492 C-55.9523885 701.63838015 -44.90280446 695.51828154 -34 689 C-33.2373584 688.54496094 -32.4747168 688.08992187 -31.68896484 687.62109375 C-23.11389109 682.46720327 -14.87539394 676.92596925 -6.79296875 671.03125 C-4.89039501 669.64756001 -2.95742106 668.30494737 -1 667 C-0.54605812 664.92287034 -0.54605812 664.92287034 -0.62099248 662.47477949 C-0.61281718 661.51419563 -0.60464189 660.55361177 -0.59621885 659.56391931 C-0.60249555 658.49907492 -0.60877225 657.43423054 -0.61523914 656.33711815 C-0.60751428 654.64443874 -0.60751428 654.64443874 -0.59963337 652.9175638 C-0.58588765 649.0907986 -0.59373443 645.26436993 -0.60127258 641.43759155 C-0.59750646 638.68461439 -0.58921795 635.9316551 -0.58113068 633.17868769 C-0.56589267 627.16983667 -0.56184877 621.16105758 -0.56500816 615.15218925 C-0.56965601 606.21715817 -0.55720905 597.28220898 -0.54117843 588.347194 C-0.51470418 573.31908341 -0.50221425 558.29099126 -0.49761391 543.26285934 C-0.49301166 528.37684293 -0.48224318 513.49085216 -0.46318626 498.60484695 C-0.46200614 497.68029113 -0.46082601 496.75573531 -0.45961012 495.80316264 C-0.45358494 491.10807049 -0.44744909 486.41297848 -0.44127061 481.71788652 C-0.39767445 448.43725665 -0.36798396 415.15662739 -0.34643555 381.87597656 C-0.32546602 349.53840209 -0.29821996 317.20084289 -0.26245117 284.86328125 C-0.26135169 283.86700901 -0.26025222 282.87073677 -0.25911942 281.84427446 C-0.24807137 271.83956582 -0.23689543 261.83485732 -0.2256258 251.83014893 C-0.20266988 231.44825967 -0.18056762 211.06636951 -0.15898132 190.68447876 C-0.15749089 189.27869896 -0.15749089 189.27869896 -0.15597036 187.84451957 C-0.08968307 125.22969222 -0.0432974 62.61484695 0 0 Z M76 99 C76 267.96 76 436.92 76 611 C81.06001355 606.78332204 84.85627329 602.9829625 89 598 C89.45262207 597.45972168 89.90524414 596.91944336 90.37158203 596.36279297 C126.43037289 553.20204394 153.25548224 503.29721074 171 450 C171.32838867 449.01612305 171.65677734 448.03224609 171.99511719 447.01855469 C198.48549413 366.55092067 206.9352592 269.33780679 167.9296875 191.52734375 C161.21232071 178.58793116 153.11996668 166.3682918 144 155 C143.195625 153.99195313 142.39125 152.98390625 141.5625 151.9453125 C130.23300793 138.02573216 117.46978627 125.60845544 103 115 C102.40944824 114.55930176 101.81889648 114.11860352 101.21044922 113.66455078 C89.4987564 103.87293313 89.4987564 103.87293313 76 99 Z " fill="#C6D32C" transform="translate(805,275)"/>
<path d="M0 0 C3.37123293 2.75828149 6.05229707 5.84438921 8.75 9.25 C9.36875 8.38375 9.9875 7.5175 10.625 6.625 C15.98059074 0.22256574 23.62338251 -3.46006072 31.75 -4.75 C42.27970715 -5.61804037 50.47916947 -3.40334956 58.75 3.25 C64.76757371 9.10493658 66.96846563 16.96790819 67.20410156 25.16845703 C67.20347469 27.78394843 67.18215516 30.39325206 67.140625 33.0078125 C67.13314715 34.40598738 67.12746154 35.80417287 67.12347412 37.20236206 C67.10833872 40.8488963 67.06916535 44.49477405 67.0246582 48.14105225 C66.98344093 51.87519454 66.96540717 55.60944488 66.9453125 59.34375 C66.90265572 66.6461646 66.83240926 73.94790598 66.75 81.25 C60.48 81.25 54.21 81.25 47.75 81.25 C47.73541748 79.55472168 47.72083496 77.85944336 47.70581055 76.11279297 C47.6540582 70.49676871 47.58874535 64.88101044 47.51428509 59.26524162 C47.46965423 55.86207343 47.4303827 52.45902293 47.40356445 49.05566406 C47.37245771 45.13841433 47.31767108 41.22166424 47.26171875 37.3046875 C47.25532883 36.08884979 47.2489389 34.87301208 47.24235535 33.62033081 C47.11719624 26.40746015 46.68025284 21.43880457 41.625 15.9375 C37.10025782 13.28167307 32.7319981 12.69520966 27.56640625 13.65625 C22.65803852 15.21505109 19.32106492 17.73160915 16.75 22.25 C13.28915917 29.79895291 12.15082707 36.57738906 12.140625 44.82421875 C12.12408875 45.87406448 12.10755249 46.92391022 12.09051514 48.00556946 C12.0424317 51.31627482 12.02075243 54.62652226 12 57.9375 C11.97180719 60.19989234 11.9418752 62.46226372 11.91015625 64.72460938 C11.83668344 70.23303514 11.78686721 75.74121257 11.75 81.25 C5.48 81.25 -0.79 81.25 -7.25 81.25 C-7.26458252 79.66131104 -7.27916504 78.07262207 -7.29418945 76.43579102 C-7.35237053 70.51466911 -7.42960276 64.5939196 -7.51245117 58.6730957 C-7.54560736 56.11554022 -7.57366795 53.5579132 -7.59643555 51.00024414 C-7.63015215 47.31365614 -7.68247855 43.62771821 -7.73828125 39.94140625 C-7.74467117 38.80667374 -7.7510611 37.67194122 -7.75764465 36.50282288 C-7.89559455 28.97299017 -8.32887928 21.68661261 -13.375 15.75 C-18.59550036 13.02626068 -23.78231339 12.50577578 -29.4375 14.25 C-35.24813793 16.80806969 -38.72524361 21.46304307 -41.0625 27.25 C-43.47078931 34.02240146 -43.43524213 41.24152919 -43.56640625 48.33984375 C-43.58718735 49.28436905 -43.60796844 50.22889435 -43.62937927 51.20204163 C-43.69437354 54.19712573 -43.753525 57.19229193 -43.8125 60.1875 C-43.85573297 62.22722178 -43.89934873 64.26693548 -43.94335938 66.30664062 C-44.05071805 71.28767779 -44.15016326 76.26878376 -44.25 81.25 C-50.52 81.25 -56.79 81.25 -63.25 81.25 C-63.25 53.53 -63.25 25.81 -63.25 -2.75 C-56.98 -2.75 -50.71 -2.75 -44.25 -2.75 C-43.92 0.55 -43.59 3.85 -43.25 7.25 C-42.59 6.528125 -41.93 5.80625 -41.25 5.0625 C-29.65849394 -6.43104967 -14.15725905 -7.62313949 0 0 Z " fill="#C6D32C" transform="translate(2000.25,194.75)"/>
<path d="M0 0 C3.26639939 2.85220107 5.96033134 5.50885638 8.37109375 9.125 C8.85578125 8.59390625 9.34046875 8.0628125 9.83984375 7.515625 C17.45421847 -0.50875451 25.59619583 -4.73680114 36.74609375 -5.1875 C45.1394323 -4.970056 52.87697468 -2.20348814 58.9609375 3.65625 C66.82100141 12.11206447 66.79254995 20.85724016 66.6640625 31.90625 C66.65845784 33.32970734 66.65419186 34.75317052 66.65119934 36.17663574 C66.63981885 39.89868527 66.61041166 43.62037605 66.5770874 47.34228516 C66.54623868 51.15001576 66.53266258 54.95780509 66.51757812 58.765625 C66.48553412 66.21893144 66.4328233 73.67186947 66.37109375 81.125 C60.10109375 81.125 53.83109375 81.125 47.37109375 81.125 C47.35651123 79.42972168 47.34192871 77.73444336 47.3269043 75.98779297 C47.27515195 70.37176871 47.2098391 64.75601044 47.13537884 59.14024162 C47.09074798 55.73707343 47.05147645 52.33402293 47.0246582 48.93066406 C46.99355146 45.01341433 46.93876483 41.09666424 46.8828125 37.1796875 C46.87642258 35.96384979 46.87003265 34.74801208 46.8634491 33.49533081 C46.7610901 27.59642152 46.62740396 23.24693281 43.37109375 18.125 C43.37109375 17.465 43.37109375 16.805 43.37109375 16.125 C37.53992883 13.30346859 31.8292681 12.38754769 25.62109375 14.25 C19.3627181 17.86060134 15.93653416 22.48503658 13.37109375 29.125 C12.6008982 32.45806387 12.23024129 35.59018036 12.16577148 39.00708008 C12.14582626 39.94767776 12.12588104 40.88827545 12.10533142 41.8573761 C12.08861893 42.8596373 12.07190643 43.8618985 12.0546875 44.89453125 C12.02351585 46.44874031 12.02351585 46.44874031 11.99171448 48.03434753 C11.92647245 51.33533265 11.86745196 54.63639549 11.80859375 57.9375 C11.76538443 60.17904441 11.72176937 62.42058103 11.67773438 64.66210938 C11.57081704 70.14966048 11.46947837 75.63728955 11.37109375 81.125 C5.10109375 81.125 -1.16890625 81.125 -7.62890625 81.125 C-7.64348877 79.50078125 -7.65807129 77.8765625 -7.6730957 76.203125 C-7.731219 70.15716927 -7.80845197 64.11158048 -7.89135742 58.06591797 C-7.92454064 55.45302298 -7.95259296 52.84005745 -7.9753418 50.22705078 C-8.00900833 46.46356239 -8.06133274 42.70071661 -8.1171875 38.9375 C-8.12357742 37.77573242 -8.12996735 36.61396484 -8.1365509 35.41699219 C-8.27035586 27.97755901 -8.66182948 21.52841159 -13.75390625 15.6875 C-18.31822226 13.20689347 -22.6485318 12.61020805 -27.77734375 13.49609375 C-33.29559842 15.19808418 -36.53680989 18.34156698 -39.62890625 23.125 C-42.75003263 29.84550223 -43.09507289 36.41310365 -43.140625 43.72265625 C-43.1585762 44.79752792 -43.1765274 45.8723996 -43.19502258 46.97984314 C-43.24881157 50.3823566 -43.28292061 53.78473232 -43.31640625 57.1875 C-43.34960701 59.5071805 -43.38409919 61.82684289 -43.41992188 64.14648438 C-43.50452008 69.80588969 -43.57148074 75.46525639 -43.62890625 81.125 C-49.89890625 81.125 -56.16890625 81.125 -62.62890625 81.125 C-62.62890625 53.405 -62.62890625 25.685 -62.62890625 -2.875 C-56.35890625 -2.875 -50.08890625 -2.875 -43.62890625 -2.875 C-43.29890625 0.095 -42.96890625 3.065 -42.62890625 6.125 C-42.13261719 5.65449219 -41.63632813 5.18398437 -41.125 4.69921875 C-30.0613727 -5.44069014 -13.13249332 -9.36641426 0 0 Z " fill="#C6D32C" transform="translate(1621.62890625,194.875)"/>
<path d="M0 0 C6.27 0 12.54 0 19 0 C19.33 13.86 19.66 27.72 20 42 C22.64 40.02 25.28 38.04 28 36 C39.49008632 30.25495684 51.03833846 31.13393812 63 35 C73.21200365 39.00941083 78.87987508 45.42082958 84 55 C89.6128888 67.96067051 89.02130296 83.11812279 84.3125 96.25 C80.00462639 105.9505767 73.53052208 112.34819756 64 117 C53.00112281 121.088207 40.87225742 121.81637462 30 117 C22.85611511 112.85611511 22.85611511 112.85611511 20 110 C19.67 112.64 19.34 115.28 19 118 C12.73 118 6.46 118 0 118 C0 79.06 0 40.12 0 0 Z M25.125 56.625 C20.39127089 64.14327564 17.65778298 72.08384406 19 81 C20.95608803 88.94523398 24.01403886 95.727963 31 100.3125 C36.82150495 103.30641683 42.54987323 104.04326945 49 103 C56.44885126 100.50998571 61.39847664 96.79951009 65.18359375 89.81640625 C68.98838976 81.58804117 69.46624867 73.24688183 66.375 64.6875 C63.07155733 57.51661225 58.97051302 52.55300838 51.484375 49.6640625 C41.30190123 46.94233209 32.80893079 49.60923711 25.125 56.625 Z " fill="#C6D32C" transform="translate(1707,158)"/>
<path d="M0 0 C8.31077834 7.690571 12.63867651 17.66626194 13.1796875 28.94921875 C13.42330666 42.41520068 12.582631 55.0111318 2.84375 65.25 C2.18375 65.94996094 1.52375 66.64992188 0.84375 67.37109375 C-8.06214652 76.03843947 -18.87627073 78.59902738 -31.02734375 78.46484375 C-39.75530369 77.86554563 -47.93146441 74.47478559 -54.15625 68.25 C-54.48625 81.12 -54.81625 93.99 -55.15625 107.25 C-61.42625 107.25 -67.69625 107.25 -74.15625 107.25 C-74.15625 69.3 -74.15625 31.35 -74.15625 -7.75 C-67.88625 -7.75 -61.61625 -7.75 -55.15625 -7.75 C-54.82625 -5.11 -54.49625 -2.47 -54.15625 0.25 C-53.351875 -0.4925 -52.5475 -1.235 -51.71875 -2 C-36.93092715 -14.30570601 -14.33817507 -11.63677977 0 0 Z M-49.59375 15.5 C-55.22549386 22.9185861 -56.01800428 31.17123658 -55.15625 40.25 C-53.92052951 47.33034444 -50.58644428 52.56989092 -45.15625 57.25 C-38.98987281 61.38030925 -32.44124429 62.40944275 -25.15625 61.25 C-17.80884434 58.95261235 -12.76060125 55.0661494 -9.15625 48.25 C-5.46447407 39.42061955 -5.13447095 31.77059056 -8.1171875 22.7109375 C-11.0797641 15.6943087 -15.30583501 11.42148842 -22.15625 8.25 C-32.42605782 5.18158181 -42.18949204 7.6569712 -49.59375 15.5 Z " fill="#C6D32C" transform="translate(2160.15625,199.75)"/>
<path d="M0 0 C64.87218045 0 64.87218045 0 76.75390625 10.55859375 C83.81870083 17.94210086 85.61993808 27.13944257 85.46826172 37.08007812 C85.02338694 46.85334804 81.98782582 54.02619271 75.20703125 61.05859375 C67.10141086 68.18867045 57.89440793 70.34191355 47.34375 70.1953125 C46.64411133 70.19329834 45.94447266 70.19128418 45.22363281 70.18920898 C42.64902035 70.17886805 40.07450248 70.15094709 37.5 70.125 C31.725 70.08375 25.95 70.0425 20 70 C20 85.51 20 101.02 20 117 C13.4 117 6.8 117 0 117 C0 78.39 0 39.78 0 0 Z M20 18 C20 29.55 20 41.1 20 53 C26.1565625 53.061875 26.1565625 53.061875 32.4375 53.125 C34.35067017 53.15231201 34.35067017 53.15231201 36.30249023 53.18017578 C49.54329632 53.26070475 49.54329632 53.26070475 60.5546875 46.765625 C63.96344188 42.60141695 65.33650181 38.23594742 64.9375 32.875 C63.60319732 27.35988227 61.38960029 23.76357219 56.87890625 20.34375 C50.4486842 16.43036904 42.74848748 17.48099559 35.5 17.6875 C27.8275 17.8421875 27.8275 17.8421875 20 18 Z " fill="#C6D32C" transform="translate(1472,0)"/>
<path d="M0 0 C8.09915334 6.97385964 13.20108585 14.98142463 15 25.625 C15 30.575 15 35.525 15 40.625 C-5.79 40.625 -26.58 40.625 -48 40.625 C-44.52292508 52.53344888 -44.52292508 52.53344888 -36 60.625 C-29.97987055 63.48635625 -23.32084253 63.55480156 -16.83984375 62.16015625 C-12.17588928 60.4278303 -9.78611614 57.55834043 -7 53.625 C-6.67 52.635 -6.34 51.645 -6 50.625 C0.6 50.625 7.2 50.625 14 50.625 C11.69189721 61.01146254 8.11525568 68.73593032 -1 74.625 C-11.98926826 80.75043805 -24.25775745 82.08891278 -36.51171875 79.34765625 C-47.82441956 76.06217799 -56.78079609 69.72726015 -63 59.625 C-69.13168336 46.24678176 -69.68538096 32.56778688 -65 18.625 C-60.85558965 7.79301841 -54.01490852 1.0068306 -43.7109375 -4.1875 C-29.89487993 -10.23949063 -12.20719468 -9.09990876 0 0 Z M-42.875 15.625 C-46.20524982 20.21115418 -46.20524982 20.21115418 -47 25.625 C-33.14 25.625 -19.28 25.625 -5 25.625 C-6.91571697 17.96213213 -7.85370284 14.29049955 -14.4375 10.3125 C-24.15862906 5.860768 -35.79713765 7.56523767 -42.875 15.625 Z " fill="#C6D32C" transform="translate(2055,38.375)"/>
<path d="M0 0 C7.637381 6.65479397 11.76486087 16.02882471 13 26 C13.08793752 28.10274118 13.13024177 30.20792736 13.125 32.3125 C13.12886719 33.88451172 13.12886719 33.88451172 13.1328125 35.48828125 C13 38 13 38 12 39 C10.06776005 39.12357078 8.13106201 39.17794458 6.19506836 39.20532227 C4.95385727 39.22526749 3.71264618 39.24521271 2.43382263 39.26576233 C1.0691643 39.28274793 -0.29549537 39.29962669 -1.66015625 39.31640625 C-3.04878875 39.33696936 -4.4374149 39.35796566 -5.82603455 39.37937927 C-9.48714059 39.43466647 -13.14830373 39.48404626 -16.80950928 39.53222656 C-20.54297997 39.58239321 -24.27636738 39.63810446 -28.00976562 39.69335938 C-35.3397733 39.80102218 -42.66985005 39.90244894 -50 40 C-49.53584887 41.59861715 -49.06760862 43.19604739 -48.59765625 44.79296875 C-48.33734619 45.68266357 -48.07703613 46.5723584 -47.80883789 47.48901367 C-46.01941527 53.04416357 -43.49561793 56.00551706 -38.5 58.875 C-31.99609398 61.83916956 -25.54193417 62.20868 -18.63671875 60.37109375 C-14.52922485 58.64610102 -12.79048644 56.89351923 -10.921875 52.875 C-9.36315072 50.27505618 -8.67647884 49.19350796 -5.72631836 48.34960938 C-3.00745272 48.21221784 -0.40221537 48.30047322 2.3125 48.5 C3.24384766 48.53609375 4.17519531 48.5721875 5.13476562 48.609375 C7.42741807 48.70343254 9.71157091 48.83460971 12 49 C9.55021071 58.82847488 5.82017723 66.82444674 -2.7265625 72.71875 C-14.87513738 79.56536952 -28.67363535 80.6909239 -42 77 C-54.15728204 72.3276691 -61.40440975 65.67487651 -66.8125 53.859375 C-71.71578259 42.05278665 -71.49235067 28.91140068 -67.26171875 16.90234375 C-62.30457954 5.49938886 -54.48102945 -2.32727577 -43 -7 C-28.39623514 -12.1113177 -12.25894549 -9.19944798 0 0 Z M-46.87109375 16.0234375 C-48.44042683 18.50611641 -48.44042683 18.50611641 -49 24 C-35.14 24 -21.28 24 -7 24 C-10.28210601 13.94648035 -10.28210601 13.94648035 -18.0625 8.1875 C-29.2581083 3.93414663 -39.35348385 7.37921032 -46.87109375 16.0234375 Z " fill="#C6D32C" transform="translate(1631,40)"/>
<path d="M0 0 C7.7594242 6.3030023 11.73865007 14.3497211 14.2265625 23.88671875 C14.62887702 28.9156502 14.74304049 33.97214968 14.4765625 39.01171875 C12.6969657 40.79131555 10.08126469 40.18296539 7.67163086 40.21704102 C6.43041977 40.23698624 5.18920868 40.25693146 3.91038513 40.27748108 C2.5457268 40.29446668 1.18106713 40.31134544 -0.18359375 40.328125 C-1.57222625 40.34868811 -2.9608524 40.36968441 -4.34947205 40.39109802 C-8.01057809 40.44638522 -11.67174123 40.49576501 -15.33294678 40.54394531 C-19.06641747 40.59411196 -22.79980488 40.64982321 -26.53320312 40.70507812 C-33.8632108 40.81274093 -41.19328755 40.91416769 -48.5234375 41.01171875 C-48.07503291 42.59936955 -47.6191347 44.18490495 -47.16015625 45.76953125 C-46.90709717 46.6527002 -46.65403809 47.53586914 -46.39331055 48.44580078 C-44.61523855 53.69068899 -41.83125938 57.53916025 -37.0859375 60.44921875 C-31.30247202 63.00495969 -24.69336653 62.80622237 -18.5234375 62.01171875 C-11.95169665 59.1941434 -9.2036189 56.71217224 -6.5234375 50.01171875 C0.0765625 50.01171875 6.6765625 50.01171875 13.4765625 50.01171875 C10.58719002 61.56920867 6.64657272 68.75135 -3.46484375 75.26171875 C-14.74599553 81.46065468 -28.49134945 81.4483094 -40.63671875 78.05078125 C-51.08698297 74.28925177 -58.721637 67.8714932 -63.8359375 58.07421875 C-69.83485698 45.10055556 -70.57817277 31.45953431 -65.77734375 17.91015625 C-61.23229953 7.40416619 -53.89056951 -0.36126257 -43.3359375 -4.92578125 C-28.75714938 -10.68313399 -12.8897022 -8.85934863 0 0 Z M-42.8984375 14.44921875 C-45.60679521 17.83088327 -47.5234375 20.59756739 -47.5234375 25.01171875 C-33.9934375 25.01171875 -20.4634375 25.01171875 -6.5234375 25.01171875 C-7.55676588 17.7784201 -8.34059297 15.55992926 -13.5234375 11.01171875 C-22.69416592 5.43735441 -35.62532285 6.28229965 -42.8984375 14.44921875 Z " fill="#C6D32C" transform="translate(2251.5234375,197.98828125)"/>
<path d="M0 0 C8.19671251 6.92697637 13.49816837 16.45553612 14.546875 27.15234375 C14.88465871 37.47677633 14.88465871 37.47677633 13.546875 40.15234375 C-17.143125 40.64734375 -17.143125 40.64734375 -48.453125 41.15234375 C-45.21881305 52.76419687 -45.21881305 52.76419687 -37.015625 60.58984375 C-31.23215952 63.14558469 -24.62305403 62.94684737 -18.453125 62.15234375 C-12.10918146 59.50024384 -9.50163579 56.24936534 -6.453125 50.15234375 C0.146875 50.15234375 6.746875 50.15234375 13.546875 50.15234375 C11.33561134 60.42821604 7.84244095 67.38855646 -0.890625 73.52734375 C-12.17697278 80.45654706 -24.78714042 81.87042072 -37.640625 78.96484375 C-48.3654642 75.93451809 -56.93696316 70.1518452 -63.05859375 60.6640625 C-69.47068281 48.57323181 -70.52476165 34.35330651 -66.828125 21.21484375 C-63.0745182 10.62104058 -56.54256294 1.8293624 -46.41796875 -3.421875 C-30.87857753 -10.14213217 -14.23907563 -9.73277857 0 0 Z M-42.828125 14.58984375 C-45.53648271 17.97150827 -47.453125 20.73819239 -47.453125 25.15234375 C-33.923125 25.15234375 -20.393125 25.15234375 -6.453125 25.15234375 C-7.48645338 17.9190451 -8.27028047 15.70055426 -13.453125 11.15234375 C-22.62385342 5.57797941 -35.55501035 6.42292465 -42.828125 14.58984375 Z " fill="#C6D32C" transform="translate(1908.453125,197.84765625)"/>
<path d="M0 0 C6.86489998 6.74879173 9.11074597 15.11657366 9.34057617 24.55126953 C9.34010706 26.99516867 9.32350939 29.43910416 9.29296875 31.8828125 C9.28872391 33.17822968 9.28447906 34.47364685 9.28010559 35.80831909 C9.26876378 39.21799755 9.23939184 42.62728 9.20599365 46.0368042 C9.17505967 49.52969001 9.16155093 53.02264109 9.14648438 56.515625 C9.1145091 63.34392704 9.06183147 70.17190362 9 77 C2.73 77 -3.54 77 -10 77 C-10.495 73.04 -10.495 73.04 -11 69 C-11.80050781 69.70576172 -11.80050781 69.70576172 -12.6171875 70.42578125 C-20.50966101 77.02104891 -27.89288398 79.6307497 -38.203125 79.28125 C-46.66077122 78.43076044 -53.93066903 76.15521773 -60 70 C-64.88247518 63.44272229 -65.6191014 56.94318775 -65 49 C-63.75718713 41.97639701 -60.73738766 37.22643658 -55 33 C-41.65825577 24.80340254 -25.19834117 24.51012951 -10 24 C-11.51998951 16.69750779 -11.51998951 16.69750779 -15.9375 10.9375 C-21.07727245 7.68580723 -26.02591781 7.44497547 -32 8 C-37.19813855 9.61909234 -40.09404459 11.37199694 -43 16 C-43.66 17.98 -44.32 19.96 -45 22 C-51.27 22 -57.54 22 -64 22 C-62.80729933 12.45839465 -60.23798278 5.53650427 -53 -1 C-36.78750328 -11.82742714 -15.71589415 -12.35420556 0 0 Z M-22.125 39.3125 C-23.51332031 39.48942383 -23.51332031 39.48942383 -24.9296875 39.66992188 C-31.58901557 40.58699036 -37.86690503 41.75059849 -43.4375 45.75 C-45.61117106 48.88008632 -45.93350497 51.20978355 -46 55 C-44.25876175 59.25636015 -42.03819465 60.95505363 -38 63 C-32.24726528 63.95217678 -26.6686253 63.88431339 -21.5625 60.875 C-16.66656935 57.2717579 -12.66533335 52.96744451 -11 47 C-10.56517221 44.00676686 -10.24952395 41.0139866 -10 38 C-14.06291542 38 -18.10566491 38.76366416 -22.125 39.3125 Z " fill="#C6D32C" transform="translate(2495,199)"/>
<path d="M0 0 C6.76315283 5.91345282 10.51437439 12.12914589 11.2615509 21.16195679 C11.34585701 24.85251002 11.33734877 28.53140759 11.29296875 32.22265625 C11.2873616 33.57742336 11.2830968 34.93219663 11.28010559 36.28697205 C11.26874466 39.82324526 11.23935521 43.35913873 11.20599365 46.89526367 C11.1751019 50.51541001 11.16155978 54.13561874 11.14648438 57.75585938 C11.11447516 64.83740823 11.06178092 71.91863909 11 79 C4.73 79 -1.54 79 -8 79 C-8.495 75.04 -8.495 75.04 -9 71 C-9.42410156 71.39832031 -9.84820313 71.79664063 -10.28515625 72.20703125 C-17.8522932 79.04240111 -25.23320091 81.29902521 -35.3828125 81.1484375 C-43.63632448 80.68032787 -50.50526101 78.33502746 -56.5390625 72.515625 C-62.18475824 66.11056667 -62.53502258 59.90885283 -62.30859375 51.671875 C-61.76951093 45.25747182 -59.58698586 41.2919661 -55.0625 36.8125 C-42.39953443 27.06360601 -23.46512006 25.65552488 -8 26 C-8.89578874 19.86317862 -9.85356026 15.94959329 -15 12 C-19.57716507 9.25370096 -24.82516725 9.370841 -30 10 C-34.60570817 11.36465427 -37.31128103 12.93359644 -39.9375 17 C-41.10076576 20.13316361 -41.10076576 20.13316361 -42 24 C-48.6 24 -55.2 24 -62 24 C-60.51371729 13.44739277 -56.46592539 6.31980622 -48.2109375 -0.49609375 C-34.16552296 -10.04995346 -13.94908651 -9.35248704 0 0 Z M-19.5 41.25 C-20.469375 41.35957031 -21.43875 41.46914062 -22.4375 41.58203125 C-29.5696934 42.49272799 -36.45495933 43.9920867 -42.0625 48.75 C-43.49393206 52.18543695 -43.77951397 55.39564184 -43 59 C-40.46546343 62.21954645 -38.88702695 63.70432435 -35 65 C-27.83789488 65.70579711 -21.91533884 65.33881346 -16 61 C-11.43182584 56.53334082 -8.3799273 51.369164 -7.8203125 44.93359375 C-7.81366358 43.28798555 -7.89734894 41.64241691 -8 40 C-11.81969868 40 -15.71652914 40.77706614 -19.5 41.25 Z " fill="#C6D32C" transform="translate(1529,197)"/>
<path d="M0 0 C9.35128675 8.46172119 12.74449704 20.44450534 13.375 32.62109375 C13.16856466 44.81368088 9.53968134 56.05328032 1.25 65.0625 C-7.90346293 73.63912779 -18.29285512 76.62441435 -30.5 77.625 C-40.19362499 77.30586831 -49.71944761 74.89013667 -57.6875 69.3125 C-58.31140625 68.88195312 -58.9353125 68.45140625 -59.578125 68.0078125 C-68.05937175 61.48094 -72.97809406 50.70388874 -74.6875 40.3125 C-75.66500647 26.72355763 -73.7820967 14.03476501 -64.6875 3.3125 C-47.60421466 -15.40099945 -19.32292725 -14.96786925 0 0 Z M-50.1875 15.25 C-55.00606361 22.51177896 -56.31352093 30.27959309 -55.0625 38.8125 C-53.28460181 47.32521781 -48.86258112 53.43280277 -41.6875 58.3125 C-35.07424721 61.47536003 -28.30517429 61.13436934 -21.5 58.75 C-14.73278874 55.73885328 -11.37211258 51.24353694 -8.3125 44.625 C-5.16192931 35.88812331 -5.86649331 27.31609202 -9.359375 18.79296875 C-12.15871084 13.5647974 -15.86311925 10.42143732 -20.875 7.375 C-31.96759557 4.28362091 -42.76223374 5.90564318 -50.1875 15.25 Z " fill="#C6D32C" transform="translate(1867.6875,41.6875)"/>
<path d="M0 0 C6.59352062 5.39952292 10.27115549 11.64973021 11.625 20.125 C11.70952744 22.14873551 11.74278959 24.17494393 11.73852539 26.20043945 C11.73841209 28.00174065 11.73841209 28.00174065 11.73829651 29.83943176 C11.73313522 31.12605209 11.72797394 32.41267242 11.72265625 33.73828125 C11.72078956 35.07634936 11.71936684 36.41441815 11.71836853 37.75248718 C11.71456314 41.2623587 11.70474988 44.77218839 11.69366455 48.28204346 C11.68340777 51.86836176 11.67886179 55.45468686 11.67382812 59.04101562 C11.66312572 66.06902926 11.64554506 73.09700831 11.625 80.125 C5.025 80.125 -1.575 80.125 -8.375 80.125 C-8.38958252 78.42972168 -8.40416504 76.73444336 -8.41918945 74.98779297 C-8.4709418 69.37176871 -8.53625465 63.75601044 -8.61071491 58.14024162 C-8.65534577 54.73707343 -8.6946173 51.33402293 -8.72143555 47.93066406 C-8.75254229 44.01341433 -8.80732892 40.09666424 -8.86328125 36.1796875 C-8.86967117 34.96384979 -8.8760611 33.74801208 -8.88264465 32.49533081 C-8.96643093 24.37564433 -8.96643093 24.37564433 -12.375 17.125 C-17.00936984 12.72829016 -20.7139762 11.66988741 -27.08984375 11.7890625 C-32.44304893 12.57602942 -37.45628039 14.94687308 -41.05078125 19.02734375 C-46.86788061 27.9674876 -47.49482311 37.61473918 -47.69140625 47.99609375 C-47.71218735 48.918423 -47.73296844 49.84075226 -47.75437927 50.79103088 C-47.81935638 53.71478383 -47.87851684 56.63862061 -47.9375 59.5625 C-47.98073461 61.55404486 -48.02435042 63.54558148 -48.06835938 65.53710938 C-48.17569587 70.39965521 -48.27515368 75.2622716 -48.375 80.125 C-54.645 80.125 -60.915 80.125 -67.375 80.125 C-67.375 52.075 -67.375 24.025 -67.375 -4.875 C-61.105 -4.875 -54.835 -4.875 -48.375 -4.875 C-48.045 -1.575 -47.715 1.725 -47.375 5.125 C-46.405625 4.2175 -45.43625 3.31 -44.4375 2.375 C-32.26731374 -8.06716793 -13.15417659 -9.41664302 0 0 Z " fill="#C6D32C" transform="translate(1962.375,36.875)"/>
<path d="M0 0 C6.20462082 4.4534909 10.93438533 9.95523367 12.82102966 17.54814148 C13.29741789 20.54866034 13.36981616 23.37879298 13.36352539 26.41723633 C13.36341209 28.24856865 13.36341209 28.24856865 13.36329651 30.11689758 C13.35813522 31.42539169 13.35297394 32.7338858 13.34765625 34.08203125 C13.34578961 35.44251961 13.34436687 36.80300865 13.34336853 38.16349792 C13.33956275 41.73255287 13.32974914 45.30156669 13.31866455 48.87060547 C13.30840863 52.51724695 13.30386197 56.16389511 13.29882812 59.81054688 C13.28812503 66.95704962 13.27054404 74.10351778 13.25 81.25 C6.98 81.25 0.71 81.25 -5.75 81.25 C-5.76458252 79.65607422 -5.77916504 78.06214844 -5.79418945 76.41992188 C-5.85232014 70.48577856 -5.92955298 64.55200881 -6.01245117 58.61816406 C-6.04563094 56.05377278 -6.07368432 53.48930969 -6.09643555 50.92480469 C-6.1301085 47.23080958 -6.18243307 43.5374684 -6.23828125 39.84375 C-6.24467117 38.7038562 -6.2510611 37.5639624 -6.25764465 36.38952637 C-6.39216069 29.04661381 -6.66077712 22.33922288 -12.125 16.875 C-18.25275554 13.08162752 -22.71355901 12.73276741 -29.75 14.25 C-34.56313433 16.09138851 -38.04303269 18.86284608 -40.75 23.25 C-45.04159502 32.86010742 -45.84496403 42.04336277 -46.06640625 52.44140625 C-46.08718735 53.27212143 -46.10796844 54.10283661 -46.12937927 54.95872498 C-46.19404482 57.57657715 -46.25336792 60.1945176 -46.3125 62.8125 C-46.35576445 64.60222217 -46.39938106 66.39193586 -46.44335938 68.18164062 C-46.55029298 72.53767191 -46.64997938 76.89378274 -46.75 81.25 C-53.02 81.25 -59.29 81.25 -65.75 81.25 C-65.75 53.53 -65.75 25.81 -65.75 -2.75 C-59.48 -2.75 -53.21 -2.75 -46.75 -2.75 C-46.42 0.22 -46.09 3.19 -45.75 6.25 C-45.25113281 5.79109375 -44.75226562 5.3321875 -44.23828125 4.859375 C-32.0494065 -5.55697039 -14.00295034 -8.84153228 0 0 Z " fill="#C6D32C" transform="translate(2345.75,194.75)"/>
<path d="M0 0 C6.28059627 5.2814105 10.49654323 10.35912316 12.75 18.3125 C12.75 19.6325 12.75 20.9525 12.75 22.3125 C-3.75692239 23.54666242 -3.75692239 23.54666242 -7.27734375 20.63671875 C-8.375 18.5 -8.375 18.5 -9.27734375 16.296875 C-10.48377839 13.83555453 -11.43127394 13.28976502 -13.9375 12.25 C-19.68685917 10.53393652 -25.64580943 11.44443648 -31.25 13.3125 C-32.19271002 16.56889659 -32.19271002 16.56889659 -32.25 20.3125 C-28.11043673 26.36263094 -21.87297334 27.11786907 -15.0625 28.75 C-5.51106211 31.0457462 3.14278877 33.70528877 10.25 40.8125 C14.62686196 48.10726993 15.07809529 56.72273186 13.1328125 64.91015625 C10.48826992 71.73213999 5.69137859 76.31139883 -0.78125 79.59765625 C-12.03194533 84.32498155 -23.40853913 84.57683608 -34.86328125 80.34765625 C-42.47260446 76.91826476 -47.14865752 72.16496121 -51.125 64.875 C-52.25 61.3125 -52.25 61.3125 -53.25 52.3125 C-46.98 52.3125 -40.71 52.3125 -34.25 52.3125 C-33.26 55.2825 -32.27 58.2525 -31.25 61.3125 C-27.11454692 65.55399034 -24.17180326 66.18648011 -18.4375 66.5625 C-14.02083948 66.48820104 -11.08207148 65.53510146 -7.25 63.3125 C-5.50565268 60.55061675 -5.21685471 58.99197835 -5.375 55.75 C-6.48946464 52.64541994 -7.70577596 51.42717972 -10.25 49.3125 C-12.73339391 48.35625062 -15.07454793 47.57716601 -17.625 46.875 C-19.06042345 46.44838584 -20.49531059 46.01996351 -21.9296875 45.58984375 C-22.65124023 45.3769873 -23.37279297 45.16413086 -24.11621094 44.94482422 C-42.84177293 39.39571603 -42.84177293 39.39571603 -48.25 32.3125 C-51.42862918 26.29154712 -52.23824271 19.94210547 -50.81640625 13.28125 C-48.83078259 6.86805558 -44.78326199 2.27873349 -38.93359375 -0.9765625 C-26.42834107 -6.70384462 -12.26643763 -6.36911185 0 0 Z " fill="#C6D32C" transform="translate(2132.25,35.6875)"/>
<path d="M0 0 C4.7114754 3.98520054 7.53772604 8.65492252 8.9765625 14.671875 C8.9765625 16.321875 8.9765625 17.971875 8.9765625 19.671875 C3.0365625 19.671875 -2.9034375 19.671875 -9.0234375 19.671875 C-10.0134375 17.691875 -11.0034375 15.711875 -12.0234375 13.671875 C-17.3686001 9.55164549 -21.28459709 8.21500446 -28.0234375 8.671875 C-31.81191707 10.21818784 -31.81191707 10.21818784 -35.0234375 12.671875 C-35.49722159 16.7655502 -35.49722159 16.7655502 -33.72851562 20.27270508 C-27.80805265 25.13097732 -18.08234957 26.35609332 -10.80078125 28.15820312 C-3.21333975 30.19587846 2.26288219 33.45830621 7.3515625 39.484375 C10.96452393 46.57133781 11.97202885 53.91568735 9.9765625 61.671875 C6.31656334 70.52123011 0.54533407 75.33299094 -8.1484375 78.984375 C-19.58556227 81.71933962 -31.20502134 81.47676813 -41.8359375 75.921875 C-49.08819482 70.80263454 -53.90588123 65.51037073 -56.0234375 56.671875 C-56.0234375 54.361875 -56.0234375 52.051875 -56.0234375 49.671875 C-50.0834375 49.671875 -44.1434375 49.671875 -38.0234375 49.671875 C-37.5284375 51.239375 -37.0334375 52.806875 -36.5234375 54.421875 C-35.0236015 58.1372582 -33.89310802 60.35143643 -30.3359375 62.296875 C-24.57886822 64.55896367 -19.33175922 64.5532342 -13.5859375 62.359375 C-10.80522064 60.76685936 -10.80522064 60.76685936 -9.0234375 57.671875 C-8.4396179 54.7569495 -8.4396179 54.7569495 -9.0234375 51.671875 C-12.60858191 47.24997013 -16.15918594 45.59047741 -21.5234375 44.171875 C-22.95014316 43.75838469 -24.37591652 43.34166517 -25.80078125 42.921875 C-26.50960449 42.715625 -27.21842773 42.509375 -27.94873047 42.296875 C-47.39950926 36.43737939 -47.39950926 36.43737939 -52.4609375 28.234375 C-55.25131644 21.8407676 -55.50279331 13.70705405 -53.10546875 7.16796875 C-49.10533931 0.34574151 -43.42300045 -3.63737483 -36.0234375 -6.328125 C-23.30144008 -9.4437162 -10.64114166 -7.59544387 0 0 Z " fill="#C6D32C" transform="translate(1773.0234375,38.328125)"/>
<path d="M0 0 C6.27 0 12.54 0 19 0 C19 6.93 19 13.86 19 21 C25.6 21 32.2 21 39 21 C39 26.28 39 31.56 39 37 C32.4 37 25.8 37 19 37 C19.07408962 43.15710255 19.15700262 49.31277653 19.26245117 55.46923828 C19.29564549 57.56226124 19.32369445 59.65537253 19.34643555 61.74853516 C19.38008231 64.76242612 19.43240393 67.77551163 19.48828125 70.7890625 C19.49467117 71.72054108 19.5010611 72.65201965 19.50764465 73.61172485 C19.62406901 78.79037277 20.06669351 82.54137413 23 87 C26.81804847 89.32855426 29.95425242 89.10392831 34.3125 88.625 C37.1278125 88.315625 37.1278125 88.315625 40 88 C40 93.61 40 99.22 40 105 C29.53570076 107.98979978 20.87273942 107.90573648 10.9921875 103.00390625 C5.09154731 99.31281315 2.15462337 93.46387012 0 87 C-0.08738898 85.3584155 -0.11766621 83.71348378 -0.11352539 82.06958008 C-0.11344986 81.06876907 -0.11337433 80.06795807 -0.11329651 79.03681946 C-0.10813522 77.95861435 -0.10297394 76.88040924 -0.09765625 75.76953125 C-0.0962413 74.66397385 -0.09482635 73.55841644 -0.09336853 72.4193573 C-0.08776514 68.88371083 -0.07521204 65.34812738 -0.0625 61.8125 C-0.05748544 59.41731862 -0.05292246 57.02213625 -0.04882812 54.62695312 C-0.0377946 48.75127775 -0.02052767 42.87564957 0 37 C-4.62 37 -9.24 37 -14 37 C-14 31.72 -14 26.44 -14 21 C-9.38 21 -4.76 21 0 21 C0 14.07 0 7.14 0 0 Z " fill="#C6D32C" transform="translate(2382,171)"/>
<path d="M0 0 C0 6.27 0 12.54 0 19 C-1.98 18.67 -3.96 18.34 -6 18 C-13.34626785 17.35362787 -18.85196831 18.36443858 -24.6875 23.25 C-31.92387537 31.85541936 -33.27716796 40.4895371 -33.4140625 51.40625 C-33.43342865 52.3715564 -33.4527948 53.33686279 -33.4727478 54.3314209 C-33.53210018 57.38752657 -33.57875038 60.44367082 -33.625 63.5 C-33.66322064 65.58334895 -33.7022747 67.66668278 -33.7421875 69.75 C-33.83931968 74.8332507 -33.9192398 79.91635788 -34 85 C-40.6 85 -47.2 85 -54 85 C-54 56.95 -54 28.9 -54 0 C-47.4 0 -40.8 0 -34 0 C-33.67 2.97 -33.34 5.94 -33 9 C-32.071875 8.0925 -31.14375 7.185 -30.1875 6.25 C-21.55985248 -1.07568864 -10.79719658 -2.69929914 0 0 Z " fill="#C6D32C" transform="translate(1712,32)"/>
</svg>