<?xml version="1.0" encoding="UTF-8"?>
<svg version="1.1" xmlns="http://www.w3.org/2000/svg" width="400" height="142" viewBox="0 0 400 142">
<path d="M0 0 L400 0 L400 142 L0 142 Z" fill="#FFFFFF"/>
<path d="M0 0 C0.92941406 0.51949219 1.85882813 1.03898438 2.81640625 1.57421875 C4.36908203 2.42306641 4.36908203 2.42306641 5.953125 3.2890625 C7.64888672 4.26552734 7.64888672 4.26552734 9.37890625 5.26171875 C10.67652629 5.99317658 11.9747188 6.72361964 13.2734375 7.453125 C16.66041548 9.35954823 20.01576464 11.31109661 23.37890625 13.26171875 C23.37890625 23.16171875 23.37890625 33.06171875 23.37890625 43.26171875 C16.63467548 41.01364183 16.63467548 41.01364183 13.1796875 38.9140625 C12.07850586 38.25374023 12.07850586 38.25374023 10.95507812 37.58007812 C10.20806641 37.12439453 9.46105469 36.66871094 8.69140625 36.19921875 C7.18904017 35.28911933 5.68519249 34.38146002 4.1796875 33.4765625 C3.52137939 33.0755835 2.86307129 32.67460449 2.18481445 32.26147461 C0.24417781 31.11524234 0.24417781 31.11524234 -2.62109375 30.26171875 C-5.1608568 31.34091531 -5.1608568 31.34091531 -7.875 33.0078125 C-8.89400391 33.59755859 -9.91300781 34.18730469 -10.96289062 34.79492188 C-12.02572266 35.42333984 -13.08855469 36.05175781 -14.18359375 36.69921875 C-16.28693601 37.93072247 -18.39230458 39.15877406 -20.5 40.3828125 C-21.43400635 40.93380615 -22.3680127 41.4847998 -23.33032227 42.05249023 C-25.62109375 43.26171875 -25.62109375 43.26171875 -27.62109375 43.26171875 C-27.62109375 33.36171875 -27.62109375 23.46171875 -27.62109375 13.26171875 C-17.93359375 7.94921875 -17.93359375 7.94921875 -14.9074707 6.29174805 C-14.10784912 5.85258057 -13.30822754 5.41341309 -12.484375 4.9609375 C-11.67266846 4.51580811 -10.86096191 4.07067871 -10.0246582 3.61206055 C-8.30945495 2.64844559 -6.63082666 1.61851216 -4.98095703 0.546875 C-2.62109375 -0.73828125 -2.62109375 -0.73828125 0 0 Z " fill="#417ABE" transform="translate(35.62109375,4.73828125)"/>
<path d="M0 0 C-0.09015381 0.78012451 -0.18030762 1.56024902 -0.27319336 2.36401367 C-1.09182746 10.90570628 -1.89797277 19.79106316 1 28 C6.93797606 34.70412594 15.72024996 38.04039693 24 41 C24 41.99 24 42.98 24 44 C20.28438346 46.21115568 16.55059892 48.38960387 12.8125 50.5625 C11.75740234 51.19091797 10.70230469 51.81933594 9.61523438 52.46679688 C8.59365234 53.05654297 7.57207031 53.64628906 6.51953125 54.25390625 C5.58214111 54.80377197 4.64475098 55.3536377 3.67895508 55.92016602 C-0.98250909 57.79911033 -4.80291794 55.86346198 -9.30078125 54.11328125 C-15.64222181 51.32799855 -21.67721055 48.57484475 -26 43 C-28.77082808 33.34123022 -27.34426466 22.80937182 -26 13 C-25.36513672 12.68909424 -24.73027344 12.37818848 -24.07617188 12.05786133 C-18.12797963 9.11885285 -12.36928506 5.98025721 -6.6640625 2.59960938 C-2.20758929 0 -2.20758929 0 0 0 Z " fill="#D0333A" transform="translate(34,52)"/>
<path d="M0 0 C3.29230209 0.82307552 5.30809856 1.57411962 8.1875 3.1796875 C9.35925781 3.83130859 9.35925781 3.83130859 10.5546875 4.49609375 C11.76511719 5.17865234 11.76511719 5.17865234 13 5.875 C13.80695313 6.32230469 14.61390625 6.76960938 15.4453125 7.23046875 C19.89618444 9.72031295 19.89618444 9.72031295 22 11 C22.7209082 11.41419189 23.44181641 11.82838379 24.18457031 12.25512695 C28.23339062 16.14658994 27.55377554 22.97848218 27.75 28.3125 C27.77701996 28.99207764 27.80403992 29.67165527 27.83187866 30.37182617 C27.95023218 36.46291847 27.69643435 41.91766748 23.70751953 46.81396484 C17.55976925 51.81958959 9.82691132 56.35585897 2 58 C-1.65658334 56.97764628 -4.80194182 55.07127281 -8.08203125 53.1796875 C-9.01337891 52.64472656 -9.94472656 52.10976562 -10.90429688 51.55859375 C-11.86400391 51.00300781 -12.82371094 50.44742188 -13.8125 49.875 C-14.79154297 49.31167969 -15.77058594 48.74835938 -16.77929688 48.16796875 C-19.18789555 46.78155585 -21.59471395 45.39214945 -24 44 C-24 43.34 -24 42.68 -24 42 C-20.21225306 39.82642556 -16.41917971 37.6623228 -12.625 35.5 C-11.00464844 34.56994141 -11.00464844 34.56994141 -9.3515625 33.62109375 C-7.8046875 32.74130859 -7.8046875 32.74130859 -6.2265625 31.84375 C-5.27346191 31.29912109 -4.32036133 30.75449219 -3.33837891 30.19335938 C-1 29 -1 29 1 29 C0.67 19.43 0.34 9.86 0 0 Z " fill="#F1CD00" transform="translate(73,28)"/>
<path d="M0 0 C4.29 0 8.58 0 13 0 C16.71137771 7.2106767 19.94268842 14.48774868 23 22 C23.33 14.74 23.66 7.48 24 0 C26.97 0 29.94 0 33 0 C33 12.54 33 25.08 33 38 C28.71 38 24.42 38 20 38 C16.7 30.41 13.4 22.82 10 15 C9.67 22.59 9.34 30.18 9 38 C6.03 38 3.06 38 0 38 C0 25.46 0 12.92 0 0 Z " fill="#1D1D1B" transform="translate(175,18)"/>
<path d="M0 0 C21.81875 0 21.81875 0 26.98828125 4.875 C31.98429172 10.3215525 33.32448399 14.14709384 33.20703125 21.50390625 C32.70143997 27.59961997 29.40237518 30.8958425 25.01171875 34.703125 C16.9875967 39.87595708 9.87003908 38 0 38 C0 25.46 0 12.92 0 0 Z M9 9 C9 15.6 9 22.2 9 29 C17.31762636 29.79499841 17.31762636 29.79499841 21 27.125 C24.08084718 23.85159987 24.33387487 21.53873525 24.29296875 17.0390625 C23.83745033 13.86865433 22.24684343 12.1807598 20 10 C17.03103721 8.32917961 17.03103721 8.32917961 9 9 Z " fill="#1D1D1B" transform="translate(213,18)"/>
<path d="M0 0 C18 0 18 0 25 3 C28.12111436 6.36751813 29.87121763 8.66066333 30.3125 13.25 C29.87792077 18.46495082 27.63177212 21.36822788 24 25 C24.433125 25.68707031 24.86625 26.37414062 25.3125 27.08203125 C25.869375 27.98308594 26.42625 28.88414063 27 29.8125 C27.556875 30.70582031 28.11375 31.59914063 28.6875 32.51953125 C30 35 30 35 30 38 C26.81250449 38.6374991 24.15732488 38.86248875 21 38 C18.09644035 34.76209105 15 30.49032639 15 26 C13.02 26 11.04 26 9 26 C9 29.96 9 33.92 9 38 C6.03 38 3.06 38 0 38 C0 25.46 0 12.92 0 0 Z M9 9 C9 11.97 9 14.94 9 18 C15.39825263 18.47326369 15.39825263 18.47326369 21 16 C21.41666667 13.5 21.41666667 13.5 21 11 C19.18806994 8.75675164 19.18806994 8.75675164 16.6171875 8.8046875 C15.71226562 8.82789063 14.80734375 8.85109375 13.875 8.875 C12.96492188 8.89304687 12.05484375 8.91109375 11.1171875 8.9296875 C10.41851562 8.95289063 9.71984375 8.97609375 9 9 Z " fill="#1D1D1B" transform="translate(325,18)"/>
<path d="M0 0 C21.72413793 0 21.72413793 0 27.9375 5.8125 C29.71118952 9.46421371 30.5423781 12.93061894 29.4921875 16.9375 C28.12330427 20.39573133 27.13544853 21.90970098 24 24 C25.08175679 27.06497756 26.28361962 29.41708767 28.125 32.125 C30 35 30 35 30 38 C26.78177296 38.72245913 24.186061 38.94514728 21 38 C18.79502245 35.31227589 17.27056733 32.60316722 15.703125 29.50390625 C14.01694251 26.3962896 14.01694251 26.3962896 9 26 C9 29.96 9 33.92 9 38 C6.03 38 3.06 38 0 38 C0 25.46 0 12.92 0 0 Z M9 9 C9 11.97 9 14.94 9 18 C10.423125 18.061875 11.84625 18.12375 13.3125 18.1875 C14.11300781 18.22230469 14.91351563 18.25710937 15.73828125 18.29296875 C18.06800729 18.1788224 18.06800729 18.1788224 19.80859375 16.65234375 C21.28922311 14.98150682 21.28922311 14.98150682 20.75 12.375 C20.22254355 10.0687593 20.22254355 10.0687593 19 9 C17.31391034 8.92794489 15.62499341 8.91613932 13.9375 8.9375 C13.01839844 8.94652344 12.09929687 8.95554687 11.15234375 8.96484375 C10.44207031 8.97644531 9.73179687 8.98804688 9 9 Z " fill="#1D1D1B" transform="translate(291,18)"/>
<path d="M0 0 C5.08979651 2.81093298 9.02870881 6.89862643 10.875 12.4375 C11.62836798 19.09942539 11.36288095 24.25259686 7.375 29.78125 C3.9756164 33.53473606 -0.03559532 36.06579648 -5.10546875 36.67578125 C-10.98257886 36.87341858 -15.35293042 35.98647612 -20.125 32.4375 C-24.84417795 27.9850582 -27.09784136 23.46221094 -27.34765625 16.95703125 C-26.87142879 11.56814159 -25.11292235 7.33760249 -21.1796875 3.578125 C-14.62180603 -1.50362817 -7.85750581 -3.5290909 0 0 Z M-15.0625 9.5 C-17.54507096 13.03578288 -18.125 15.12463322 -18.125 19.4375 C-16.60983372 23.45269063 -15.7194747 25.04118353 -12.125 27.4375 C-9.03432622 28.03942898 -6.21587914 28.04376701 -3.125 27.4375 C0.04164776 24.85248142 1.4514456 23.37753044 2.3125 19.43359375 C2.53667019 15.74179097 1.98210782 13.60530225 0 10.5 C-2.92342151 7.66256148 -3.76426349 7.47298228 -7.9375 7.0625 C-11.35541924 7.11842959 -12.09965048 7.4197014 -15.0625 9.5 Z " fill="#1D1D1B" transform="translate(276.125,19.5625)"/>
<path d="M0 0 C1.65322266 0.01740234 1.65322266 0.01740234 3.33984375 0.03515625 C4.44457031 0.04417969 5.54929687 0.05320312 6.6875 0.0625 C7.54214844 0.07410156 8.39679688 0.08570312 9.27734375 0.09765625 C12.32648083 7.46195839 15.00441262 14.91320706 17.52734375 22.47265625 C17.89085937 23.53871094 18.254375 24.60476562 18.62890625 25.703125 C18.97179687 26.72792969 19.3146875 27.75273438 19.66796875 28.80859375 C19.97766602 29.72946777 20.28736328 30.6503418 20.60644531 31.59912109 C21.27734375 34.09765625 21.27734375 34.09765625 21.27734375 38.09765625 C18.63734375 38.09765625 15.99734375 38.09765625 13.27734375 38.09765625 C12.94089844 37.12570313 12.60445313 36.15375 12.2578125 35.15234375 C10.5371023 31.71856901 10.5371023 31.71856901 6.703125 31.29296875 C5.33285389 31.24001141 3.96112824 31.21753474 2.58984375 31.22265625 C1.53700195 31.19171875 1.53700195 31.19171875 0.46289062 31.16015625 C-1.26511093 31.1131358 -2.99402031 31.10190874 -4.72265625 31.09765625 C-4.86703125 32.06703125 -5.01140625 33.03640625 -5.16015625 34.03515625 C-5.72265625 37.09765625 -5.72265625 37.09765625 -6.72265625 38.09765625 C-9.7226907 38.23943482 -12.7202286 38.13994396 -15.72265625 38.09765625 C-13.36592765 30.01461332 -10.75868174 22.02252469 -8.09765625 14.03515625 C-7.48664063 12.18374023 -7.48664063 12.18374023 -6.86328125 10.29492188 C-6.47398437 9.12509766 -6.0846875 7.95527344 -5.68359375 6.75 C-5.33087402 5.68773193 -4.9781543 4.62546387 -4.61474609 3.53100586 C-3.36448622 0.12067741 -3.36448622 0.12067741 0 0 Z M2.27734375 10.09765625 C1.77174467 11.5331965 1.27306885 12.97117645 0.77734375 14.41015625 C0.49890625 15.21066406 0.22046875 16.01117188 -0.06640625 16.8359375 C-0.86198732 19.18535047 -0.86198732 19.18535047 -0.72265625 22.09765625 C1.91734375 22.09765625 4.55734375 22.09765625 7.27734375 22.09765625 C6.28734375 18.13765625 5.29734375 14.17765625 4.27734375 10.09765625 C3.61734375 10.09765625 2.95734375 10.09765625 2.27734375 10.09765625 Z " fill="#1D1D1B" transform="translate(371.72265625,17.90234375)"/>
<path d="M0 0 C1.65322266 0.01740234 1.65322266 0.01740234 3.33984375 0.03515625 C4.44457031 0.04417969 5.54929688 0.05320312 6.6875 0.0625 C7.54214844 0.07410156 8.39679688 0.08570312 9.27734375 0.09765625 C12.32648083 7.46195839 15.00441262 14.91320706 17.52734375 22.47265625 C17.89085937 23.53871094 18.254375 24.60476562 18.62890625 25.703125 C18.97179687 26.72792969 19.3146875 27.75273438 19.66796875 28.80859375 C19.97766602 29.72946777 20.28736328 30.6503418 20.60644531 31.59912109 C21.27734375 34.09765625 21.27734375 34.09765625 21.27734375 38.09765625 C18.30734375 38.09765625 15.33734375 38.09765625 12.27734375 38.09765625 C11.61734375 36.11765625 10.95734375 34.13765625 10.27734375 32.09765625 C5.65734375 32.09765625 1.03734375 32.09765625 -3.72265625 32.09765625 C-4.71265625 34.07765625 -5.70265625 36.05765625 -6.72265625 38.09765625 C-9.69265625 38.09765625 -12.66265625 38.09765625 -15.72265625 38.09765625 C-13.34873149 30.01865425 -10.75907071 22.02369224 -8.09765625 14.03515625 C-7.48664063 12.18374023 -7.48664063 12.18374023 -6.86328125 10.29492188 C-6.47398437 9.12509766 -6.0846875 7.95527344 -5.68359375 6.75 C-5.33087402 5.68773193 -4.9781543 4.62546387 -4.61474609 3.53100586 C-3.36448622 0.12067741 -3.36448622 0.12067741 0 0 Z M2.27734375 10.09765625 C1.28734375 14.05765625 0.29734375 18.01765625 -0.72265625 22.09765625 C1.91734375 22.09765625 4.55734375 22.09765625 7.27734375 22.09765625 C6.96684649 20.65972233 6.65386615 19.22232445 6.33984375 17.78515625 C6.16582031 16.98464844 5.99179688 16.18414062 5.8125 15.359375 C5.27848216 12.95225525 5.27848216 12.95225525 4.27734375 10.09765625 C3.61734375 10.09765625 2.95734375 10.09765625 2.27734375 10.09765625 Z " fill="#1D1D1B" transform="translate(150.72265625,17.90234375)"/>
<path d="M0 0 C2.05078125 0.03255208 4.1015625 0.06510417 6.15234375 0.09765625 C9.48567708 6.76432292 12.81901042 13.43098958 16.15234375 20.09765625 C16.48234375 13.49765625 16.81234375 6.89765625 17.15234375 0.09765625 C19.13234375 0.09765625 21.11234375 0.09765625 23.15234375 0.09765625 C23.15234375 9.99765625 23.15234375 19.89765625 23.15234375 30.09765625 C20.18234375 30.09765625 17.21234375 30.09765625 14.15234375 30.09765625 C10.85234375 23.16765625 7.55234375 16.23765625 4.15234375 9.09765625 C3.82234375 16.02765625 3.49234375 22.95765625 3.15234375 30.09765625 C1.17234375 30.09765625 -0.80765625 30.09765625 -2.84765625 30.09765625 C-2.87231371 25.98593065 -2.89049584 21.87423347 -2.90258789 17.76245117 C-2.90762705 16.36270397 -2.91445841 14.96296205 -2.9230957 13.56323242 C-2.93517945 11.55519848 -2.94035432 9.54712668 -2.9453125 7.5390625 C-2.95054932 6.32935791 -2.95578613 5.11965332 -2.96118164 3.87329102 C-2.8088334 0.14845842 -2.8088334 0.14845842 0 0 Z " fill="#417ABE" transform="translate(148.84765625,104.90234375)"/>
<path d="M0 0 C2.64 0 5.28 0 8 0 C9.64616818 3.12482372 11.29187754 6.24988886 12.9375 9.375 C13.40607422 10.26445313 13.87464844 11.15390625 14.35742188 12.0703125 C14.80537109 12.92109375 15.25332031 13.771875 15.71484375 14.6484375 C16.12855225 15.43395996 16.54226074 16.21948242 16.96850586 17.02880859 C17.65788624 18.34621859 18.33504671 19.67009342 19 21 C19.33 14.07 19.66 7.14 20 0 C21.65 0 23.3 0 25 0 C25 9.9 25 19.8 25 30 C22.03 30 19.06 30 16 30 C12.7 23.07 9.4 16.14 6 9 C5.67 15.93 5.34 22.86 5 30 C3.35 30 1.7 30 0 30 C0 20.1 0 10.2 0 0 Z " fill="#417ABE" transform="translate(177,105)"/>
<path d="M0 0 C2.866875 -0.103125 5.73375 -0.20625 8.6875 -0.3125 C10.02880981 -0.38078003 10.02880981 -0.38078003 11.3972168 -0.45043945 C15.69337585 -0.52511756 17.48993907 -0.38107248 21.04296875 2.2734375 C23.18256799 5.2543562 23.7171871 7.31807986 23.5078125 10.99609375 C22.61450664 14.52121611 20.53938401 16.46061599 18 19 C18.66 19.94875 19.32 20.8975 20 21.875 C22 25 22 25 22 27 C22.66 27 23.32 27 24 27 C24 27.66 24 28.32 24 29 C21.375 29.5625 21.375 29.5625 18 29 C16.29289611 26.79389651 14.94455574 24.46891948 13.5234375 22.0703125 C12.05911901 19.65366411 12.05911901 19.65366411 8.625 18.9375 C7.325625 18.9684375 7.325625 18.9684375 6 19 C6 22.3 6 25.6 6 29 C4.02 29 2.04 29 0 29 C0 19.43 0 9.86 0 0 Z M6 5 C6 7.97 6 10.94 6 14 C7.423125 14.061875 8.84625 14.12375 10.3125 14.1875 C11.11300781 14.22230469 11.91351563 14.25710937 12.73828125 14.29296875 C15.06800729 14.1788224 15.06800729 14.1788224 16.80859375 12.65234375 C18.28922311 10.98150682 18.28922311 10.98150682 17.75 8.375 C17.22254355 6.0687593 17.22254355 6.0687593 16 5 C14.31391034 4.92794489 12.62499341 4.91613932 10.9375 4.9375 C10.01839844 4.94652344 9.09929687 4.95554687 8.15234375 4.96484375 C7.44207031 4.97644531 6.73179687 4.98804687 6 5 Z " fill="#417ABE" transform="translate(135,66)"/>
<path d="M0 0 C3.99700358 2.58844854 5.82127923 6.03734866 7.25 10.5 C8.139157 16.03253244 6.76297743 19.31264901 3.65625 23.765625 C1.06817284 26.95758683 -0.9761143 28.26487085 -5.078125 28.80859375 C-9.36108523 29.02017711 -12.19528604 28.75681202 -16.125 26.9375 C-20.52098438 22.8555145 -22.45926263 19.53516156 -23.3125 13.5625 C-23.03963799 8.72625603 -20.88744349 5.10102353 -17.75 1.5 C-12.24947734 -2.41148278 -6.04163115 -2.91085013 0 0 Z M-14.75 6.5 C-17.42109499 10.50664248 -17.68992648 13.79212262 -16.75 18.5 C-14.99288899 21.13566652 -13.62238717 21.85103699 -10.75 23.5 C-6.74883483 24.23490789 -5.33221026 23.88814018 -1.9375 21.625 C1.06154054 18.71164633 1.21190144 17.96480239 1.5625 13.6875 C1.50598836 10.57935995 1.20516489 9.41570999 -0.3125 6.5625 C-5.17138858 2.45113274 -9.86572439 2.59257951 -14.75 6.5 Z " fill="#417ABE" transform="translate(355.75,106.5)"/>
<path d="M0 0 C3.9920472 2.5852388 5.8323524 6.03734601 7.25 10.5 C7.94900041 15.48037794 7.18574648 18.78134917 4.5 22.921875 C1.8152643 26.31135382 -0.81819427 28.16153486 -5.11328125 28.9140625 C-10.49636812 29.22446812 -14.17880032 28.48136105 -18.34375 24.984375 C-21.50271156 21.64991557 -22.60388856 18.62714538 -23.1875 14.125 C-22.56737183 8.98679513 -21.13396854 4.65462473 -17.20703125 1.10546875 C-11.70505647 -2.45759501 -5.91511317 -2.83116528 0 0 Z M-14.75 6.5 C-17.20665197 10.18497796 -17.45086491 13.21971786 -16.75 17.5 C-14.95636089 20.3100346 -13.73119065 22.00940468 -10.75 23.5 C-6.69038698 24.05358359 -4.97248019 23.62772011 -1.375 21.5625 C1.16719774 19.21431209 1.71445509 17.43451436 1.875 14 C1.64081547 10.87753964 1.1692349 9.34493102 -0.3125 6.5 C-5.21577159 2.4768028 -9.87340316 2.59872253 -14.75 6.5 Z " fill="#417ABE" transform="translate(228.75,106.5)"/>
<path d="M0 0 C2.701875 -0.103125 5.40375 -0.20625 8.1875 -0.3125 C9.02949951 -0.35802002 9.87149902 -0.40354004 10.73901367 -0.45043945 C14.95195413 -0.52805811 16.54273667 -0.35684472 19.98828125 2.33203125 C22.31629061 5.41946891 23 7.13867507 23 11 C21.6875 13.625 21.6875 13.625 20 16 C19.31903578 17.32608822 18.64669414 18.65686601 18 20 C18.3609375 20.48210937 18.721875 20.96421875 19.09375 21.4609375 C19.5578125 22.09257813 20.021875 22.72421875 20.5 23.375 C20.9640625 24.00148438 21.428125 24.62796875 21.90625 25.2734375 C23 27 23 27 23 29 C20.375 29.5625 20.375 29.5625 17 29 C15.29289611 26.79389651 13.94455574 24.46891948 12.5234375 22.0703125 C11.05911901 19.65366411 11.05911901 19.65366411 7.625 18.9375 C6.325625 18.9684375 6.325625 18.9684375 5 19 C5 22.3 5 25.6 5 29 C3.35 29 1.7 29 0 29 C0 19.43 0 9.86 0 0 Z M5 5 C5 7.97 5 10.94 5 14 C11.39825263 14.47326369 11.39825263 14.47326369 17 12 C17.41666667 9.5 17.41666667 9.5 17 7 C15.18806994 4.75675164 15.18806994 4.75675164 12.6171875 4.8046875 C11.71226562 4.82789062 10.80734375 4.85109375 9.875 4.875 C8.96492187 4.89304687 8.05484375 4.91109375 7.1171875 4.9296875 C6.41851562 4.95289062 5.71984375 4.97609375 5 5 Z " fill="#417ABE" transform="translate(244,66)"/>
<path d="M0 0 C7.26 0 14.52 0 22 0 C22 1.65 22 3.3 22 5 C16.72 5 11.44 5 6 5 C6 7.31 6 9.62 6 12 C10.62 12 15.24 12 20 12 C20 13.65 20 15.3 20 17 C15.38 17 10.76 17 6 17 C6 19.31 6 21.62 6 24 C11.28 24 16.56 24 22 24 C22 25.65 22 27.3 22 29 C14.74 29 7.48 29 0 29 C0 19.43 0 9.86 0 0 Z " fill="#417ABE" transform="translate(218,66)"/>
<path d="M0 0 C7.26 0 14.52 0 22 0 C22 1.65 22 3.3 22 5 C16.72 5 11.44 5 6 5 C6 7.31 6 9.62 6 12 C10.62 12 15.24 12 20 12 C20 13.65 20 15.3 20 17 C15.38 17 10.76 17 6 17 C6 19.31 6 21.62 6 24 C11.28 24 16.56 24 22 24 C22 25.65 22 27.3 22 29 C14.74 29 7.48 29 0 29 C0 19.43 0 9.86 0 0 Z " fill="#417ABE" transform="translate(162,66)"/>
<path d="M0 0 C2.64 0 5.28 0 8 0 C12.33942566 9.79250924 15.70788518 19.8182016 19 30 C17.02 30 15.04 30 13 30 C11.5393715 27.35261084 11 26.10551666 11 23 C6.71 23 2.42 23 -2 23 C-2.66 25.31 -3.32 27.62 -4 30 C-5.98 30 -7.96 30 -10 30 C-7.98086853 23.0449018 -5.73400143 16.19969087 -3.3125 9.375 C-2.83200195 8.01181641 -2.83200195 8.01181641 -2.34179688 6.62109375 C-1.56326686 4.41332207 -0.78264756 2.20631463 0 0 Z M4 5 C3.32942113 6.7902061 2.6636531 8.58221489 2 10.375 C1.62875 11.37273437 1.2575 12.37046875 0.875 13.3984375 C-0.10626277 15.85848061 -0.10626277 15.85848061 0 18 C2.97 18 5.94 18 9 18 C7.68 13.71 6.36 9.42 5 5 C4.67 5 4.34 5 4 5 Z " fill="#417ABE" transform="translate(272,105)"/>
<path d="M0 0 C2.64 0 5.28 0 8 0 C18 23.23404255 18 23.23404255 18 29 C16.02 29 14.04 29 12 29 C11.67 27.02 11.34 25.04 11 23 C6.38 23 1.76 23 -3 23 C-3.33 24.98 -3.66 26.96 -4 29 C-5.98 29 -7.96 29 -10 29 C-9.36576482 25.4360307 -8.43264046 22.16669362 -7.1875 18.76953125 C-6.83429688 17.80208984 -6.48109375 16.83464844 -6.1171875 15.83789062 C-5.56417969 14.34032227 -5.56417969 14.34032227 -5 12.8125 C-4.63132812 11.80251953 -4.26265625 10.79253906 -3.8828125 9.75195312 C-1.15472274 2.30944549 -1.15472274 2.30944549 0 0 Z M4 5 C3.16453285 6.97826686 2.33168055 8.95763824 1.5 10.9375 C1.0359375 12.03964844 0.571875 13.14179687 0.09375 14.27734375 C-1.06212791 16.66563169 -1.06212791 16.66563169 -1 18 C2.3 18 5.6 18 9 18 C7.68 13.71 6.36 9.42 5 5 C4.67 5 4.34 5 4 5 Z " fill="#417ABE" transform="translate(309,66)"/>
<path d="M0 0 C3.39349869 1.85682004 6.59426801 3.92600912 9 7 C9 7.99 9 8.98 9 10 C6.75 10.75 6.75 10.75 4 11 C2.64499081 9.68870078 1.31328657 8.35308313 0 7 C-3.59380604 5.85304062 -5.26746252 5.683677 -8.75 7.1875 C-11.16567053 9.13345682 -12.17329884 10.02387583 -13 13 C-12.82332188 16.3568842 -12.62149255 18.96417908 -10.875 21.875 C-7.96417908 23.62149255 -5.3568842 23.82332188 -2 24 C1.39808026 22.89791992 1.94731917 22.07902124 4 19 C5.65 19.33 7.3 19.66 9 20 C8.7416116 23.48824341 7.73533264 24.24214247 5.0625 26.6875 C0.29773507 30.28538372 -3.1177053 30.72290827 -9 30 C-14.11762818 27.34641502 -17.17705942 24.46882174 -19 19 C-19.3684431 13.38124276 -19.19190228 9.84288621 -16 5 C-11.13860334 0.50320809 -6.60449661 -0.92563021 0 0 Z " fill="#417ABE" transform="translate(310,105)"/>
<path d="M0 0 C2.75894085 1.62822739 5.1063337 3.40001444 7 6 C7 7.32 7 8.64 7 10 C4.75 10.25 4.75 10.25 2 10 C1.401875 9.34 0.80375 8.68 0.1875 8 C-2.23089619 5.78889491 -2.85689319 5.63943542 -6 5.5 C-8.84915274 5.67009867 -9.98493399 5.9909604 -12.5 7.5 C-14.59158203 10.98597004 -14.8876276 14.10215706 -14 18 C-12.0405988 21.1264113 -12.0405988 21.1264113 -9 23 C-5.95769177 23.50010524 -5.95769177 23.50010524 -3 23 C-1.88625 22.87625 -1.88625 22.87625 -0.75 22.75 C1.20498431 22.11303734 1.20498431 22.11303734 2.25 19.9375 C2.4975 19.298125 2.745 18.65875 3 18 C4.65 18.66 6.3 19.32 8 20 C5.4855191 24.1908015 3.62484427 27.19027833 -1 29 C-5.96034902 29.67301218 -9.80039865 29.55537099 -14.375 27.4375 C-18.58451795 23.5286619 -20.73187311 20.18331894 -21.4375 14.4375 C-20.76089326 9.1213042 -19.02286886 5.67999063 -15 2.1875 C-9.9832313 -1.47056051 -5.85817807 -1.58800199 0 0 Z " fill="#417ABE" transform="translate(207,66)"/>
<path d="M0 0 C3.05001132 1.99112035 5.71708913 4.15102676 8 7 C8 7.99 8 8.98 8 10 C5.25 10.25 5.25 10.25 2 10 C1.38125 9.34 0.7625 8.68 0.125 8 C-2.30648247 5.71154591 -2.86303386 5.70498342 -6.0625 5.6875 C-9.90086312 5.83352093 -9.90086312 5.83352093 -13 7 C-14.48485454 10.50965619 -14.39295821 14.26689704 -14 18 C-11.43140902 21.65829624 -9.97748801 22.82227491 -5.5625 23.625 C-2.02204927 23.00386829 -1.31360656 22.69228546 1.1875 20.4375 C2.115625 19.633125 3.04375 18.82875 4 18 C6.375 18.1875 6.375 18.1875 8 19 C6.89617316 22.86339392 5.17738864 25.55867983 1.97265625 28.046875 C-2.16507576 30.04609601 -6.55677213 29.71409019 -11 29 C-15.43118719 26.86353475 -18.2290203 24.62422478 -20 20 C-20.6520567 14.73524588 -20.65063461 10.43139615 -18.4375 5.5625 C-13.0533441 -0.09776646 -7.75729448 -2.76668011 0 0 Z " fill="#417ABE" transform="translate(290,66)"/>
<path d="M0 0 C1.98 0 3.96 0 6 0 C8.64 7.59 11.28 15.18 14 23 C16.64 15.41 19.28 7.82 22 0 C23.98 0 25.96 0 28 0 C26.64043269 6.7226846 24.74586508 13.04609679 22.4375 19.5 C22.12103516 20.40492187 21.80457031 21.30984375 21.47851562 22.2421875 C19.13757622 28.86242378 19.13757622 28.86242378 18 30 C15.32941149 30.14115161 12.67567762 30.04247107 10 30 C8.57180601 26.05043587 7.14775072 22.09941203 5.72753906 18.14697266 C5.24365357 16.80216068 4.75863256 15.45775672 4.27246094 14.11376953 C3.57449334 12.18367547 2.88060102 10.25215863 2.1875 8.3203125 C1.76855469 7.15773926 1.34960938 5.99516602 0.91796875 4.79736328 C0 2 0 2 0 0 Z " fill="#417ABE" transform="translate(236,105)"/>
<path d="M0 0 C1.98 0 3.96 0 6 0 C6 9.9 6 19.8 6 30 C4.02 30 2.04 30 0 30 C0 20.1 0 10.2 0 0 Z " fill="#417ABE" transform="translate(323,105)"/>
<path d="M0 0 C1.65 0 3.3 0 5 0 C5 1.98 5 3.96 5 6 C7.31 6 9.62 6 12 6 C12 7.65 12 9.3 12 11 C9.69 11 7.38 11 5 11 C5 13.31 5 15.62 5 18 C3.35 18 1.7 18 0 18 C0 16.02 0 14.04 0 12 C-1.98 12 -3.96 12 -6 12 C-6.38218767 10.34385343 -6.71395102 8.67542976 -7 7 C-6 6 -6 6 -2.9375 5.9375 C-1.4834375 5.9684375 -1.4834375 5.9684375 0 6 C0 4.02 0 2.04 0 0 Z " fill="#417ABE" transform="translate(342,71)"/>
<path d="M0 0 C1.65 0 3.3 0 5 0 C5 9.9 5 19.8 5 30 C3.35 30 1.7 30 0 30 C0 20.1 0 10.2 0 0 Z " fill="#417ABE" transform="translate(136,105)"/>
<path d="M0 0 C0.33 0.99 0.66 1.98 1 3 C-4.5 8 -4.5 8 -9 8 C-7.92598892 5.08482708 -7.22189824 3.22189824 -5 1 C-2.375 0.375 -2.375 0.375 0 0 Z " fill="#417ABE" transform="translate(353,96)"/>
</svg>