<?xml version="1.0" encoding="UTF-8"?>
<svg version="1.1" xmlns="http://www.w3.org/2000/svg" width="776" height="189" viewBox="0 0 776 189">
<path d="M0 0 L776 0 L776 189 L0 189 Z" fill="#FFFFFF"/>
<path d="M0 0 C4.69813173 3.92794671 9.15852511 8.00972508 13.48608398 12.34082031 C14.39469933 13.24439774 14.39469933 13.24439774 15.32167053 14.16622925 C17.2990998 16.1342504 19.27282306 18.10593479 21.24609375 20.078125 C22.62607159 21.45488663 24.00612341 22.83157411 25.38624573 24.20819092 C28.26505083 27.08103272 31.14180636 29.95590911 34.01733398 32.83203125 C37.71016127 36.52496079 41.40985722 40.2109269 45.11129665 43.89522171 C47.95673281 46.72957647 50.79765004 49.56842679 53.63728523 52.40859222 C55.0004978 53.77062182 56.36533885 55.13102349 57.73180962 56.48978424 C59.63251909 58.38075829 61.52686173 60.27788729 63.41967773 62.17675781 C63.98842621 62.73988678 64.55717468 63.30301575 65.14315796 63.88320923 C69 67.771675 69 67.771675 69 70 C67.72625732 71.24755859 67.72625732 71.24755859 65.84667969 72.7734375 C60.00842475 77.74303581 54.71981574 83.23402531 49.34986115 88.69723511 C46.75498606 91.33455981 44.15044241 93.96224956 41.54650497 96.59062195 C36.7128122 101.46991723 31.88328539 106.35317879 27.06982422 111.25244141 C23.70620172 114.67527785 20.330644 118.08592713 16.9467392 121.4887085 C15.66155919 122.78565296 14.3809334 124.08712656 13.10495758 125.39312744 C11.3289808 127.20988802 9.53823703 129.01072819 7.74316406 130.80859375 C7.21841995 131.35288528 6.69367584 131.89717682 6.1530304 132.45796204 C4.66705322 133.92749023 4.66705322 133.92749023 2 136 C-2.67183405 135.50403934 -5.27890996 132.15656589 -8.43676758 128.9831543 C-9.07294006 128.35545135 -9.70911255 127.72774841 -10.36456299 127.08102417 C-12.46577963 125.00321403 -14.55560187 122.91437674 -16.64453125 120.82421875 C-18.09823041 119.37761733 -19.55222921 117.93131696 -21.0065155 116.48530579 C-24.05212556 113.45314784 -27.09172328 110.41510749 -30.12768555 107.37329102 C-34.02628696 103.46878356 -37.94284994 99.58285771 -41.86453724 95.70155621 C-44.87135478 92.72053303 -47.86668344 89.72817207 -50.85880089 86.73240089 C-52.29861888 85.29428093 -53.74244482 83.86016244 -55.19025612 82.43008995 C-57.20898788 80.43339013 -59.21133157 78.42158144 -61.21020508 76.4050293 C-61.81531418 75.81318344 -62.42042328 75.22133759 -63.04386902 74.61155701 C-64.67951965 72.94194031 -64.67951965 72.94194031 -67 70 C-66.54873564 65.27768685 -63.0421281 62.64504778 -59.82788086 59.48730469 C-59.18399918 58.84298492 -58.54011749 58.19866516 -57.87672424 57.53482056 C-55.74646442 55.40665093 -53.60577495 53.2893045 -51.46484375 51.171875 C-49.98588406 49.69851042 -48.50758529 48.22448214 -47.02992249 46.74981689 C-43.13861441 42.86996421 -39.23838132 38.99920469 -35.33624268 35.13024902 C-31.35611852 31.18081054 -27.38447135 27.22286791 -23.41210938 23.265625 C-15.61636182 15.50205388 -7.81116235 7.74805948 0 0 Z M0 18 C-16.5 34.5 -33 51 -50 68 C-46.50916068 72.07264587 -43.16727304 75.96060456 -39.43505859 79.7578125 C-38.58753021 80.62140381 -37.74000183 81.48499512 -36.86679077 82.37475586 C-33.04734445 86.23901073 -29.22603299 90.10131459 -25.39550781 93.95458984 C-23.37119209 95.99234691 -21.35443574 98.03717312 -19.34375 100.08837891 C-16.90340504 102.57786845 -14.45117186 105.05501937 -11.98970413 107.52362061 C-10.60338068 108.91993116 -9.22925252 110.32831552 -7.85531616 111.73681641 C-7.0140921 112.57519043 -6.17286804 113.41356445 -5.30615234 114.27734375 C-4.56924164 115.02234131 -3.83233093 115.76733887 -3.0730896 116.53491211 C-1.14272242 118.2135358 -1.14272242 118.2135358 1.05638123 117.9241333 C3.29134249 116.86147525 4.66405073 115.69714087 6.40405273 113.93652344 C7.04829697 113.29205261 7.6925412 112.64758179 8.35630798 111.98358154 C9.04181229 111.28259338 9.72731659 110.58160522 10.43359375 109.859375 C11.14854507 109.14017883 11.8634964 108.42098267 12.60011292 107.67999268 C14.88637669 105.37693911 17.16201654 103.06370063 19.4375 100.75 C20.9661039 99.20634473 22.49539319 97.66336783 24.02539062 96.12109375 C26.84339233 93.27860371 29.65736707 90.4322572 32.46655273 87.58105469 C39.80979765 80.1321437 39.80979765 80.1321437 43.5625 76.5625 C46.14819264 73.84420774 48.0109174 71.16779821 50 68 C49.2575 67.278125 48.515 66.55625 47.75 65.8125 C45 63 45 63 43 60.4375 C41.1029767 57.94560177 41.1029767 57.94560177 38.6875 56.1875 C35.63564791 53.70343435 33.24961273 50.93704819 30.6953125 47.95703125 C27.85459129 44.67776552 24.88756847 41.71005478 21.5 39 C18.7899935 36.8319948 16.42278499 34.48335462 14 32 C13.154375 31.175 12.30875 30.35 11.4375 29.5 C9 27 9 27 7 24.4375 C4.73341182 21.50326306 4.73341182 21.50326306 0 18 Z " fill="#0083A9" transform="translate(74,46)"/>
<path d="M0 0 C1.20205078 0.01289062 2.40410156 0.02578125 3.64257812 0.0390625 C4.88845703 0.07257813 6.13433594 0.10609375 7.41796875 0.140625 C8.68318359 0.15867187 9.94839844 0.17671875 11.25195312 0.1953125 C14.3705621 0.24238584 17.48762848 0.30813406 20.60546875 0.390625 C20.60546875 3.690625 20.60546875 6.990625 20.60546875 10.390625 C19.61546875 10.390625 18.62546875 10.390625 17.60546875 10.390625 C17.59128906 10.98230469 17.57710937 11.57398437 17.5625 12.18359375 C17.29313711 16.64628165 17.06798272 18.82137704 14.16796875 22.390625 C10.5967455 25.17792119 8.93990209 25.51029722 4.48046875 25.453125 C3.57039062 25.44410156 2.6603125 25.43507813 1.72265625 25.42578125 C0.67464844 25.40837891 0.67464844 25.40837891 -0.39453125 25.390625 C-0.39453125 26.050625 -0.39453125 26.710625 -0.39453125 27.390625 C0.40210938 27.35582031 1.19875 27.32101563 2.01953125 27.28515625 C13.19713247 26.99959709 13.19713247 26.99959709 17.60546875 30.390625 C19.95757402 33.729097 20.59370836 35.74380361 20.66796875 39.828125 C19.11228037 45.04425663 16.48345782 48.61230424 11.81640625 51.49609375 C5.7109519 54.17194103 -1.44431854 54.63907148 -7.8046875 52.62890625 C-11.73900727 50.82240371 -13.76657876 49.52372768 -15.39453125 45.390625 C-15.78251198 41.7436061 -15.79023748 39.99940381 -13.76953125 36.890625 C-13.31578125 36.065625 -12.86203125 35.240625 -12.39453125 34.390625 C-12.88953125 32.905625 -12.88953125 32.905625 -13.39453125 31.390625 C-14.39453125 28.390625 -14.39453125 28.390625 -13.01953125 25.515625 C-12.48328125 24.814375 -11.94703125 24.113125 -11.39453125 23.390625 C-11.88953125 22.75125 -12.38453125 22.111875 -12.89453125 21.453125 C-14.91235892 17.33339351 -14.99448278 13.90258927 -14.39453125 9.390625 C-11.60184871 2.77637688 -7.0829552 -0.13427403 0 0 Z M0.60546875 8.390625 C-1.54021038 10.11918426 -1.54021038 10.11918426 -3.39453125 12.390625 C-3.25811748 14.60920753 -3.25811748 14.60920753 -2.39453125 16.390625 C0.50620056 17.06863534 0.50620056 17.06863534 3.60546875 17.390625 C5.89275609 15.55178619 5.89275609 15.55178619 5.73046875 12.765625 C5.68921875 11.981875 5.64796875 11.198125 5.60546875 10.390625 C3.13046875 9.400625 3.13046875 9.400625 0.60546875 8.390625 Z M-2.39453125 37.390625 C-2.72453125 38.710625 -3.05453125 40.030625 -3.39453125 41.390625 C-1.45851078 43.76261457 -1.45851078 43.76261457 2.04296875 43.640625 C5.70967493 43.67872147 5.70967493 43.67872147 8.60546875 41.390625 C8.27546875 40.070625 7.94546875 38.750625 7.60546875 37.390625 C4.30546875 37.390625 1.00546875 37.390625 -2.39453125 37.390625 Z " fill="#0083A9" transform="translate(638.39453125,96.609375)"/>
<path d="M0 0 C4.125 -0.0825 8.25 -0.165 12.5 -0.25 C13.78455078 -0.28641602 15.06910156 -0.32283203 16.39257812 -0.36035156 C23.10347198 -0.42508016 28.52222889 -0.16226412 34 4 C36.05859375 6.18359375 36.05859375 6.18359375 37.4375 8.4375 C37.91058594 9.17871094 38.38367188 9.91992188 38.87109375 10.68359375 C42.55979322 18.25244768 41.55470083 26.96089751 38.97265625 34.70703125 C36.33240859 40.93122956 31.92893961 44.08942965 26 47 C17.58588177 49.10352956 8.67307455 48 0 48 C0 32.16 0 16.32 0 0 Z M12 10 C12 18.91 12 27.82 12 37 C19.57466256 37.51506628 19.57466256 37.51506628 25 34 C28.15911093 28.37060684 28.39822646 23.34849314 26.77734375 17.171875 C25.65643811 14.04009844 24.92765613 12.68340227 22 11 C18.7 10.67 15.4 10.34 12 10 Z " fill="#0083A9" transform="translate(175,85)"/>
<path d="M0 0 C3.63 0 7.26 0 11 0 C11.33 0.66 11.66 1.32 12 2 C12.66 1.34 13.32 0.68 14 0 C19.79273014 -0.75076311 25.1970447 -1.16661814 30.1875 2.0625 C34.09768684 8.39969936 35.05068566 15.09953643 33.5 22.33203125 C32.02498894 27.38562027 30.34295319 30.78999112 26 34 C21.1416921 36.18182191 17.37521298 37 12 37 C12 41.95 12 46.9 12 52 C8.04 52 4.08 52 0 52 C0 34.84 0 17.68 0 0 Z M15 10 C11.60633122 15.37330889 11.67287658 19.86946489 12 26 C14.87364791 26.41746608 14.87364791 26.41746608 18 26 C20.68274642 23.13840382 21.17996405 20.67094869 21.25 16.875 C21.17072259 13.08801227 21.17072259 13.08801227 20 10 C18.35 10 16.7 10 15 10 Z " fill="#0083A9" transform="translate(239,97)"/>
<path d="M0 0 C4.29 0 8.58 0 13 0 C13 8.58 13 17.16 13 26 C17.88838531 24.61098561 17.88838531 24.61098561 19.2734375 21.98828125 C20.30791531 17.73357414 20.46876079 13.55243298 20.625 9.1875 C20.66367187 8.30384766 20.70234375 7.42019531 20.7421875 6.50976562 C20.83600784 4.34017028 20.91907326 2.17011453 21 0 C24.96 0 28.92 0 33 0 C33 11.88 33 23.76 33 36 C29.37 36 25.74 36 22 36 C21.67 35.01 21.34 34.02 21 33 C20.154375 33.66 19.30875 34.32 18.4375 35 C14.44287215 37.32414711 12.54547679 37.64935383 8 37 C4.0077601 34.89089213 1.57204387 33.24606414 0 29 C-0.22705078 25.88378906 -0.22705078 25.88378906 -0.1953125 22.265625 C-0.18886719 20.97011719 -0.18242187 19.67460938 -0.17578125 18.33984375 C-0.15907193 16.97655981 -0.14214206 15.61327856 -0.125 14.25 C-0.1149634 12.87110015 -0.10583873 11.49219335 -0.09765625 10.11328125 C-0.07408165 6.74211277 -0.03821072 3.37103436 0 0 Z " fill="#0083A9" transform="translate(277,97)"/>
<path d="M0 0 C3.63 0 7.26 0 11 0 C11.33 0.66 11.66 1.32 12 2 C12.99 1.34 13.98 0.68 15 0 C17.99609375 -0.37109375 17.99609375 -0.37109375 21.4375 -0.4375 C22.57058594 -0.47746094 23.70367188 -0.51742187 24.87109375 -0.55859375 C28 0 28 0 30.34765625 2.33984375 C32.9483719 6.52681149 33.11957105 9.57479712 33.09765625 14.41796875 C33.09443359 15.67158203 33.09121094 16.92519531 33.08789062 18.21679688 C33.07532227 20.18229492 33.07532227 20.18229492 33.0625 22.1875 C33.05748317 23.52278481 33.05292059 24.85807141 33.04882812 26.19335938 C33.03702704 29.4622588 33.01909136 32.73113502 33 36 C28.71 36 24.42 36 20 36 C20 27.42 20 18.84 20 10 C15.17093894 11.40448117 15.17093894 11.40448117 13.71337891 13.82714844 C12.92713976 16.22192202 12.68277771 18.24777961 12.5859375 20.765625 C12.52792969 22.09980469 12.52792969 22.09980469 12.46875 23.4609375 C12.42234375 24.84152344 12.42234375 24.84152344 12.375 26.25 C12.31699219 27.65378906 12.31699219 27.65378906 12.2578125 29.0859375 C12.16375656 31.39030796 12.08079814 33.6951266 12 36 C8.04 36 4.08 36 0 36 C0 24.12 0 12.24 0 0 Z " fill="#0083A9" transform="translate(701,97)"/>
<path d="M0 0 C1.30453125 -0.03738281 2.6090625 -0.07476562 3.953125 -0.11328125 C8.31459551 0.37581369 10.37439 1.56887642 13.75 4.3125 C17.60911429 9.63541626 18.43355291 14.79433473 17.75 21.3125 C15.61582873 27.60830525 12.91120458 32.30609224 7.0625 35.625 C1.8462124 37.99603982 -2.97717118 38.34358589 -8.45703125 36.6171875 C-13.86604872 34.22879018 -16.77388863 31.00277843 -19 25.4375 C-19.7698678 18.89362367 -19.68030348 13.08922635 -16.25 7.3125 C-11.12119472 1.83939992 -7.52892914 0.14024476 0 0 Z M-5.0625 11.8125 C-6.74594152 15.35658742 -6.95927305 18.45878312 -6.25 22.3125 C-4.74720824 24.9840404 -4.74720824 24.9840404 -2.25 26.3125 C0.3933774 26.40055146 0.3933774 26.40055146 2.75 25.3125 C4.81520632 22.21469052 5.04477024 21.3584519 5.0625 17.8125 C5.07925781 17.0390625 5.09601562 16.265625 5.11328125 15.46875 C4.66340294 12.79850453 3.88154701 11.93532458 1.75 10.3125 C-1.33810379 9.77208184 -2.62326012 9.79381872 -5.0625 11.8125 Z " fill="#0083A9" transform="translate(679.25,96.6875)"/>
<path d="M0 0 C1.02722168 -0.03480469 1.02722168 -0.03480469 2.07519531 -0.0703125 C7.77551399 0.01776582 10.12268042 1.69647492 13.9375 5.625 C17.41453625 11.1029722 17.8065429 17.47551591 16.50390625 23.6953125 C14.51322841 30.19901772 10.29582008 33.73056303 4.5 37 C-2.1533868 38.62277727 -7.05536806 37.85960951 -13.0625 34.625 C-17.10983153 31.34337984 -18.78531042 27.96177265 -19.3984375 22.79296875 C-19.4996559 15.07000517 -18.5925951 10.09499658 -13.80078125 4.02734375 C-9.82461342 0.28077092 -5.2531054 0.11456114 0 0 Z M-4.75 11.625 C-6.79609212 14.74285465 -7.05507095 17.94019216 -7.0625 21.625 C-6.62840267 24.0836786 -6.62840267 24.0836786 -5.0625 25.625 C-2.71377469 26.79477494 -2.71377469 26.79477494 -0.0625 26.625 C2.45457157 25.36137301 2.45457157 25.36137301 3.9375 22.625 C4.55968241 18.78820848 5.00584225 15.11153126 2.66015625 11.84765625 C0.12533134 10.04856284 -2.07191537 10.03798688 -4.75 11.625 Z " fill="#0083A9" transform="translate(443.0625,96.375)"/>
<path d="M0 0 C5.07783244 6.43192109 4.11490142 14.538977 4 22.3125 C3.99097656 23.47330078 3.98195313 24.63410156 3.97265625 25.83007812 C3.94921265 28.67847495 3.91334572 31.52676481 3.875 34.375 C-0.085 34.375 -4.045 34.375 -8.125 34.375 C-8.455 33.715 -8.785 33.055 -9.125 32.375 C-9.764375 32.890625 -10.40375 33.40625 -11.0625 33.9375 C-15.29102888 35.92231968 -18.6683069 35.62454012 -23.125 34.375 C-25.57743461 32.47436318 -26.75427427 31.11645145 -28.125 28.375 C-28.5018901 23.38120614 -28.31968322 20.31510931 -25.125 16.375 C-19.59428931 12.22696698 -15.98581978 11.24555057 -9.125 11.375 C-9.125 10.385 -9.125 9.395 -9.125 8.375 C-14.90307024 8.1391604 -19.63824804 8.50716954 -25.125 10.375 C-25.455 6.745 -25.785 3.115 -26.125 -0.625 C-19.00587066 -4.18456467 -6.92383058 -3.6003919 0 0 Z M-16.125 21.375 C-16.125 22.695 -16.125 24.015 -16.125 25.375 C-12.19424356 24.80047254 -12.19424356 24.80047254 -9.125 22.375 C-9.125 21.385 -9.125 20.395 -9.125 19.375 C-12.23051666 19.375 -13.47761084 19.9143715 -16.125 21.375 Z " fill="#0083A9" transform="translate(615.125,98.625)"/>
<path d="M0 0 C5.00028373 6.50036885 4.12106615 15.15201505 4 22.9375 C3.99097656 24.04609375 3.98195313 25.1546875 3.97265625 26.296875 C3.94926284 29.01051108 3.91339809 31.72403476 3.875 34.4375 C-0.085 34.4375 -4.045 34.4375 -8.125 34.4375 C-8.455 33.7775 -8.785 33.1175 -9.125 32.4375 C-9.805625 32.9325 -10.48625 33.4275 -11.1875 33.9375 C-14.82747525 35.79621077 -17.07962873 35.87093264 -21.125 35.4375 C-23.94775936 34.18294028 -25.58788541 33.15365278 -27.4375 30.6875 C-28.72905952 26.46057793 -28.70910041 22.83285098 -27 18.75 C-24.01518644 15.06872994 -20.59768501 12.928395 -16.125 11.4375 C-13.79200175 11.39795766 -11.45791811 11.39348268 -9.125 11.4375 C-9.125 10.4475 -9.125 9.4575 -9.125 8.4375 C-14.90307024 8.2016604 -19.63824804 8.56966954 -25.125 10.4375 C-25.455 6.8075 -25.785 3.1775 -26.125 -0.5625 C-18.98924384 -4.13037808 -6.98787493 -3.49393746 0 0 Z M-16.125 21.4375 C-16.125 22.7575 -16.125 24.0775 -16.125 25.4375 C-12.19424356 24.86297254 -12.19424356 24.86297254 -9.125 22.4375 C-9.125 21.4475 -9.125 20.4575 -9.125 19.4375 C-12.23051666 19.4375 -13.47761084 19.9768715 -16.125 21.4375 Z " fill="#0083A9" transform="translate(531.125,98.5625)"/>
<path d="M0 0 C3.58909304 3.96689231 3.49604461 6.87414052 3.47265625 12.04296875 C3.46943359 13.29658203 3.46621094 14.55019531 3.46289062 15.84179688 C3.45032227 17.80729492 3.45032227 17.80729492 3.4375 19.8125 C3.43248317 21.14778481 3.42792059 22.48307141 3.42382812 23.81835938 C3.41202695 27.08728473 3.39556297 30.35611991 3.375 33.625 C-0.255 33.625 -3.885 33.625 -7.625 33.625 C-7.955 32.965 -8.285 32.305 -8.625 31.625 C-9.49125 32.12 -10.3575 32.615 -11.25 33.125 C-14.86972537 34.73376683 -16.72848102 35.19324235 -20.625 34.625 C-23.97268735 32.88677772 -26.06253452 31.52983578 -28.0625 28.3125 C-28.82153674 24.68599111 -28.58506591 22.20924608 -27.625 18.625 C-24.29219672 14.31196046 -20.7731625 12.31146702 -15.625 10.625 C-11.6875 10.4375 -11.6875 10.4375 -8.625 10.625 C-9.285 9.635 -9.945 8.645 -10.625 7.625 C-16.13665965 7.1579102 -20.40849732 7.88616577 -25.625 9.625 C-25.955 6.325 -26.285 3.025 -26.625 -0.375 C-19.81312174 -4.91625217 -6.54924355 -5.21426584 0 0 Z M-16.625 20.625 C-16.295 21.945 -15.965 23.265 -15.625 24.625 C-13.17275306 24.51886164 -13.17275306 24.51886164 -10.625 23.625 C-9.25033375 21.14863988 -9.25033375 21.14863988 -8.625 18.625 C-12.39187864 18.625 -13.53690305 18.86037317 -16.625 20.625 Z " fill="#0083A9" transform="translate(368.625,99.375)"/>
<path d="M0 0 C2.56720809 2.22147065 2.83520166 2.78095619 3.54125977 6.3190918 C3.50983887 7.59163818 3.47841797 8.86418457 3.44604492 10.17529297 C3.43755524 10.85629562 3.42906555 11.53729828 3.4203186 12.23893738 C3.38690044 14.40036657 3.31166728 16.55797361 3.23510742 18.71826172 C3.20499174 20.18891069 3.17761871 21.65961856 3.15307617 23.13037109 C3.08715479 26.7233964 2.98372465 30.31420565 2.86010742 33.90576172 C-0.76989258 33.90576172 -4.39989258 33.90576172 -8.13989258 33.90576172 C-8.13989258 33.24576172 -8.13989258 32.58576172 -8.13989258 31.90576172 C-9.34645508 32.67919922 -9.34645508 32.67919922 -10.57739258 33.46826172 C-15.1130154 35.29842531 -18.48511652 35.4373884 -23.13989258 33.90576172 C-25.75114202 32.09843861 -26.48113606 30.79520855 -28.13989258 27.90576172 C-28.67752882 24.07510348 -28.50521653 21.77848005 -27.01489258 18.21826172 C-24.03007902 14.53699166 -20.61257759 12.39665672 -16.13989258 10.90576172 C-13.80689433 10.86621938 -11.47281069 10.8617444 -9.13989258 10.90576172 C-9.46989258 9.91576172 -9.79989258 8.92576172 -10.13989258 7.90576172 C-15.66666991 7.71183971 -19.89604169 8.15781142 -25.13989258 9.90576172 C-25.46989258 6.27576172 -25.79989258 2.64576172 -26.13989258 -1.09423828 C-7.79343941 -5.19805017 -7.79343941 -5.19805017 0 0 Z M-16.13989258 20.90576172 C-15.80989258 22.22576172 -15.47989258 23.54576172 -15.13989258 24.90576172 C-13.48989258 24.57576172 -11.83989258 24.24576172 -10.13989258 23.90576172 C-9.80989258 22.25576172 -9.47989258 20.60576172 -9.13989258 18.90576172 C-12.24540924 18.90576172 -13.49250341 19.44513321 -16.13989258 20.90576172 Z " fill="#0083A9" transform="translate(766.139892578125,99.09423828125)"/>
<path d="M0 0 C22.77 0 45.54 0 69 0 C69 4.29 69 8.58 69 13 C46.23 13 23.46 13 0 13 C0 8.71 0 4.42 0 0 Z " fill="#0083A9" transform="translate(40,27)"/>
<path d="M0 0 C1.43352212 0.00015908 2.86704998 0.00585132 4.30053711 0.01586914 C5.43041298 0.01799156 5.43041298 0.01799156 6.58311462 0.02015686 C8.99807646 0.02577163 11.41294687 0.03832656 13.82788086 0.05102539 C15.46134307 0.05603849 17.09480672 0.06060173 18.72827148 0.06469727 C22.74067671 0.07574585 26.75301326 0.09302033 30.76538086 0.11352539 C30.76538086 3.74352539 30.76538086 7.37352539 30.76538086 11.11352539 C27.13538086 11.11352539 23.50538086 11.11352539 19.76538086 11.11352539 C19.76538086 23.32352539 19.76538086 35.53352539 19.76538086 48.11352539 C15.80538086 48.11352539 11.84538086 48.11352539 7.76538086 48.11352539 C7.76538086 35.90352539 7.76538086 23.69352539 7.76538086 11.11352539 C4.13538086 11.11352539 0.50538086 11.11352539 -3.23461914 11.11352539 C-4.23461914 10.11352539 -4.23461914 10.11352539 -4.36743164 8.08227539 C-4.36485352 7.26758789 -4.36227539 6.45290039 -4.35961914 5.61352539 C-4.36219727 4.79883789 -4.36477539 3.98415039 -4.36743164 3.14477539 C-4.14436462 -0.26683793 -3.51550649 0.12338369 0 0 Z " fill="#0083A9" transform="translate(474.234619140625,84.886474609375)"/>
<path d="M0 0 C0 4.29 0 8.58 0 13 C2.64 13 5.28 13 8 13 C8 16.3 8 19.6 8 23 C5.36 23 2.72 23 0 23 C0.495 30.92 0.495 30.92 1 39 C3.31 39 5.62 39 8 39 C8 41.97 8 44.94 8 48 C3.32996703 50.33501648 0.11718334 50.60309661 -5 50 C-8.63467079 48.37599816 -9.77408696 47.33886956 -12 44 C-12.22705078 41.73168945 -12.22705078 41.73168945 -12.1953125 39.11328125 C-12.18564453 37.7065918 -12.18564453 37.7065918 -12.17578125 36.27148438 C-12.15902344 35.29501953 -12.14226562 34.31855469 -12.125 33.3125 C-12.11597656 32.32443359 -12.10695313 31.33636719 -12.09765625 30.31835938 C-12.0740843 27.87866235 -12.04118022 25.43945303 -12 23 C-13.65 23 -15.3 23 -17 23 C-17 19.7 -17 16.4 -17 13 C-15.35 13 -13.7 13 -12 13 C-12 9.7 -12 6.4 -12 3 C-10.37604003 2.49663233 -8.75079459 1.99741024 -7.125 1.5 C-6.22007812 1.2215625 -5.31515625 0.943125 -4.3828125 0.65625 C-2 0 -2 0 0 0 Z " fill="#0083A9" transform="translate(330,84)"/>
<path d="M0 0 C0.75410156 0.00451172 1.50820313 0.00902344 2.28515625 0.01367188 C4.14847127 0.02546501 6.01174555 0.04340058 7.875 0.0625 C7.545 3.6925 7.215 7.3225 6.875 11.0625 C5.43125 11.041875 3.9875 11.02125 2.5 11 C-0.94728705 10.91077854 -0.94728705 10.91077854 -4.125 12.0625 C-4.63229069 14.04964388 -4.63229069 14.04964388 -4.8125 16.375 C-4.89886719 17.15488281 -4.98523438 17.93476562 -5.07421875 18.73828125 C-5.23398392 21.37362672 -5.23398392 21.37362672 -4.125 25.0625 C-0.495 24.7325 3.135 24.4025 6.875 24.0625 C7.205 27.6925 7.535 31.3225 7.875 35.0625 C2.45220942 37.23161623 -2.71808809 38.24486299 -8.30859375 36.3046875 C-12.26516082 34.46070945 -14.78442302 32.84395241 -17.125 29.0625 C-19.26676449 22.4282539 -20.06130894 15.53653055 -17.125 9.0625 C-11.97510024 1.78842097 -8.84928433 -0.0993443 0 0 Z " fill="#0083A9" transform="translate(395.125,96.9375)"/>
<path d="M0 0 C3.96 0 7.92 0 12 0 C12.33 0.66 12.66 1.32 13 2 C13.66 1.34 14.32 0.68 15 0 C18.625 -0.125 18.625 -0.125 22 0 C22.125 7.625 22.125 7.625 21 11 C18 12.125 18 12.125 15 13 C13.34920558 14.65079442 13.77450553 16.63736179 13.68359375 18.91015625 C13.64169922 19.89951172 13.59980469 20.88886719 13.55664062 21.90820312 C13.51732422 22.94912109 13.47800781 23.99003906 13.4375 25.0625 C13.39431641 26.10728516 13.35113281 27.15207031 13.30664062 28.22851562 C13.20018895 30.81883972 13.09955692 33.40940175 13 36 C8.71 36 4.42 36 0 36 C0 24.12 0 12.24 0 0 Z " fill="#0083A9" transform="translate(565,97)"/>
<path d="M0 0 C7 0 14 0 21 0 C21 3.96 21 7.92 21 12 C18.69 12.33 16.38 12.66 14 13 C12.85149303 17.73879768 12.67098443 22.46291362 12.4375 27.3125 C12.39431641 28.14845703 12.35113281 28.98441406 12.30664062 29.84570312 C12.20114693 31.89696935 12.10012685 33.9484648 12 36 C8.04 36 4.08 36 0 36 C0 24.12 0 12.24 0 0 Z " fill="#0083A9" transform="translate(541,97)"/>
<path d="M0 0 C3.96 0 7.92 0 12 0 C13.7329298 1.7329298 13.12820046 3.96214336 13.13894653 6.27148438 C13.1369223 7.00689453 13.13489807 7.74230469 13.1328125 8.5 C13.13376923 9.25087891 13.13472595 10.00175781 13.13571167 10.77539062 C13.13639338 12.36588627 13.13453972 13.95638467 13.13037109 15.546875 C13.12502267 17.98964655 13.13031634 20.43223421 13.13671875 22.875 C13.13605797 24.41666707 13.1347768 25.95833403 13.1328125 27.5 C13.13483673 28.23541016 13.13686096 28.97082031 13.13894653 29.72851562 C13.11495161 34.88504839 13.11495161 34.88504839 12 36 C8.04 36 4.08 36 0 36 C0 24.12 0 12.24 0 0 Z " fill="#0083A9" transform="translate(407,97)"/>
<path d="M0 0 C3.96 0 7.92 0 12 0 C12 11.88 12 23.76 12 36 C8.04 36 4.08 36 0 36 C0 24.12 0 12.24 0 0 Z " fill="#0083A9" transform="translate(220,97)"/>
<path d="M0 0 C3.5442914 0.80009747 4.97740702 2.51479019 6.97265625 5.4453125 C7.59765625 8.9453125 7.59765625 8.9453125 6.97265625 12.4453125 C4.54412243 15.7309759 2.84990811 17.15289521 -1.02734375 18.4453125 C-4.6769495 18.4453125 -6.20154302 17.72165198 -9.02734375 15.4453125 C-11.1283597 12.7712922 -11.02581351 11.40246565 -10.90234375 7.9453125 C-9.33561354 1.67839165 -6.62082135 -0.37126101 0 0 Z " fill="#0083A9" transform="translate(91.02734375,90.5546875)"/>
<path d="M0 0 C2.625 1.9375 2.625 1.9375 4 5 C4.27828089 9.18153648 4.01050178 12.71744005 1.375 16.0625 C-1.99322588 17.39206285 -4.40758866 17.44117332 -8 17 C-10.875 15.4375 -10.875 15.4375 -13 13 C-14.1659741 8.99196403 -14.43240501 6.94717289 -12.6875 3.125 C-9.40011775 -1.01466654 -4.9452173 -0.74528984 0 0 Z " fill="#0083A9" transform="translate(94,121)"/>
<path d="M0 0 C4.81826218 0.84530916 6.34029694 1.93125503 9.5625 5.625 C10.25 9.125 10.25 9.125 9.5625 12.625 C7.57466563 15.54463173 6.1310303 17.23602978 2.625 18.10546875 C-1.33765906 18.38315509 -3.10161401 17.85592162 -6.4375 15.5625 C-8.96725133 11.84692774 -9.2253128 10.0367517 -8.4375 5.625 C-5.86890902 1.96670376 -4.41498801 0.80272509 0 0 Z " fill="#0083A9" transform="translate(44.4375,105.375)"/>
<path d="M0 0 C2.93052231 1.99524923 4.64521503 3.42836485 5.4453125 6.97265625 C5.63409202 10.33922437 5.25759307 12.59815481 3.4375 15.4375 C0.11622522 17.5665223 -2.04580795 18.06817573 -6 18 C-9.27523158 16.15396038 -11.48777812 14.81838767 -12.546875 11.05859375 C-12.81667462 7.10902711 -12.21713788 5.31583691 -9.9375 2 C-6.22192774 -0.52975133 -4.4117517 -0.7878128 0 0 Z " fill="#0083A9" transform="translate(63,91)"/>
<path d="M0 0 C2.3515625 0.484375 2.3515625 0.484375 4.9765625 2.609375 C6.59243608 5.98801976 6.96779445 7.78698332 6.3515625 11.484375 C4.55162476 14.18428162 3.2677895 16.0262615 0.3515625 17.484375 C-3.52057932 17.91461298 -5.17340121 17.80106586 -8.4609375 15.609375 C-11.04110566 13.10292593 -11.56561714 12.22975827 -11.9609375 8.671875 C-11.6484375 5.484375 -11.6484375 5.484375 -10.2734375 2.609375 C-6.80289241 -0.20011388 -4.37468192 -0.232284 0 0 Z " fill="#0083A9" transform="translate(97.6484375,6.515625)"/>
<path d="M0 0 C2.875 1.5625 2.875 1.5625 5 4 C6.1659741 8.00803597 6.43240501 10.05282711 4.6875 13.875 C3 16 3 16 1 17 C-6.10601719 17.5730659 -6.10601719 17.5730659 -9.4375 15.4375 C-11.49240979 12.23184073 -11.86470518 9.78825503 -12 6 C-10.05586997 0.00559906 -5.78687563 -0.59864231 0 0 Z " fill="#0083A9" transform="translate(107,106)"/>
<path d="M0 0 C0.88429688 -0.02578125 1.76859375 -0.0515625 2.6796875 -0.078125 C5.125 0.25 5.125 0.25 6.88671875 1.55859375 C8.96466672 4.39692647 9.06623087 6.78262159 9.125 10.25 C6.18829114 15.71835443 6.18829114 15.71835443 3.125 17.25 C-0.54886532 17.65820726 -2.42786137 17.49841035 -5.6875 15.6875 C-8.55300813 12.49450523 -8.875 10.50880812 -8.875 6.25 C-6.46901796 1.21931027 -5.45126668 0.09480464 0 0 Z " fill="#0083A9" transform="translate(115.875,6.75)"/>
<path d="M0 0 C2.4375 1.5625 2.4375 1.5625 4 4 C4.80016627 8.01732963 4.66540643 10.96196597 2.4375 14.4375 C-0.80899889 16.51858903 -3.15247539 16.93249957 -7 17 C-9.94755732 15.65437601 -11.54277272 14.91445456 -13 12 C-13.58394161 4.75912409 -13.58394161 4.75912409 -11.125 1.5625 C-7.08746789 -1.40627361 -4.90824906 -1.10012479 0 0 Z " fill="#0083A9" transform="translate(79,77)"/>
<path d="M0 0 C2.5625 1.5 2.5625 1.5 4 4 C4.78383251 8.02642386 4.67145236 10.95253431 2.4375 14.4375 C-0.76815927 16.49240979 -3.21174497 16.86470518 -7 17 C-9.97612417 16.17329884 -10.86654318 15.16567053 -12.8125 12.75 C-14.316323 9.26746252 -14.14695938 7.59380604 -13 4 C-9.85370286 -0.98163714 -5.38738363 -0.94897033 0 0 Z " fill="#0083A9" transform="translate(58,7)"/>
<path d="M0 0 C2.6875 2.625 2.6875 2.625 4 6 C4 9.61026337 3.4443746 11.36762077 1.375 14.3125 C-1.84354624 16.5993618 -4.06342372 17 -8 17 C-10.80189446 15.23358828 -12.51524911 13.96950178 -14 11 C-14.34503098 7.27366541 -14.48548923 4.86064 -12.625 1.5625 C-8.54508403 -0.86602141 -4.61071181 -1.00931005 0 0 Z " fill="#0083A9" transform="translate(38,7)"/>
<path d="M0 0 C2.12890625 0.48046875 2.12890625 0.48046875 4.69140625 2.54296875 C6.50672302 6.2525291 6.78512862 8.39730732 6.12890625 12.48046875 C3.53674542 16.17233417 2.08741561 17.30930636 -2.37109375 18.10546875 C-6.82960311 17.30930636 -8.27893292 16.17233417 -10.87109375 12.48046875 C-11.52731612 8.39730732 -11.24891052 6.2525291 -9.43359375 2.54296875 C-6.17915045 -0.07646122 -4.09697101 -0.24973299 0 0 Z " fill="#0083A9" transform="translate(61.87109375,120.51953125)"/>
<path d="M0 0 C3.69186542 2.59216083 4.82883761 4.04149064 5.625 8.5 C5 12 5 12 3 14.9375 C-1.15080314 17.79117716 -3.0301078 17.7099846 -8 17 C-10.5 15.5 -10.5 15.5 -12 13 C-12.7099846 8.0301078 -12.79117716 6.15080314 -9.9375 2 C-6.22192774 -0.52975133 -4.4117517 -0.7878128 0 0 Z " fill="#0083A9" transform="translate(78,106)"/>
<path d="M0 0 C6.95258195 0.01045501 6.95258195 0.01045501 10.28515625 2.62890625 C12.03468049 6.36652622 12.3885597 8.48734696 11.66015625 12.56640625 C9.09765625 15.56640625 9.09765625 15.56640625 5.66015625 17.56640625 C1.7059642 17.63458198 -0.45606897 17.13292855 -3.77734375 15.00390625 C-5.94566333 11.62132771 -6.18961706 8.48608132 -5.33984375 4.56640625 C-3.82682145 1.81677919 -3.09056851 0.74813428 0 0 Z " fill="#0083A9" transform="translate(71.33984375,6.43359375)"/>
<path d="M0 0 C6.93 0 13.86 0 21 0 C21 2.31 21 4.62 21 7 C19.35 7.33 17.7 7.66 16 8 C16 9.98 16 11.96 16 14 C12.37 14 8.74 14 5 14 C5 11.69 5 9.38 5 7 C3.35 7 1.7 7 0 7 C0 4.69 0 2.38 0 0 Z " fill="#0083A9" transform="translate(64,140)"/>
<path d="M0 0 C2.33535705 2.10935475 2.88641368 3.4320684 3.5 6.5 C3 9 3 9 0.875 11.3125 C-2.49892681 13.29284835 -4.15452292 13.65454929 -8 13 C-11.08884321 10.88658096 -11.87108765 9.68753254 -12.5625 6 C-12 3 -12 3 -9.9375 0.5625 C-6.08703161 -1.48562148 -4.14064223 -1.22685696 0 0 Z " fill="#0083A9" transform="translate(418,82)"/>
<path d="M0 0 C2 1.6875 2 1.6875 3 4 C2.92936148 7.46128747 2.64776603 9.28025997 0.3125 11.875 C-2.73610685 13.35810604 -4.64742924 13.48891657 -8 13 C-11.08884321 10.88658096 -11.87108765 9.68753254 -12.5625 6 C-12 3 -12 3 -9.9375 0.5625 C-6.08703161 -1.48562148 -4.14064223 -1.22685696 0 0 Z " fill="#0083A9" transform="translate(231,82)"/>
<path d="M0 0 C3.05663151 1.84440665 3.65506111 4.86880088 4.83203125 8.10546875 C2.54274072 9.27701168 0.25084763 10.44284949 -2.04296875 11.60546875 C-2.69394531 11.93933594 -3.34492188 12.27320312 -4.015625 12.6171875 C-8.94140625 15.10546875 -8.94140625 15.10546875 -11.16796875 15.10546875 C-14.20929624 11.05036543 -14.20929624 11.05036543 -14.08203125 8.140625 C-12.72678268 5.12316985 -10.73512 4.33005412 -7.85546875 2.79296875 C-6.88996094 2.26058594 -5.92445313 1.72820312 -4.9296875 1.1796875 C-2.16796875 0.10546875 -2.16796875 0.10546875 0 0 Z " fill="#0083A9" transform="translate(449.16796875,79.89453125)"/>
</svg>