<?xml version="1.0" encoding="UTF-8"?>
<svg version="1.1" xmlns="http://www.w3.org/2000/svg" width="350" height="200" viewBox="0 0 350 200">
<path d="M0 0 L350 0 L350 200 L0 200 Z" fill="#FFFFFF"/>
<path d="M0 0 C0.76376953 -0.02900391 1.52753906 -0.05800781 2.31445312 -0.08789062 C5.91166638 -0.12859017 7.97567502 -0.05529233 11.07421875 1.88671875 C13.10376845 5.19472495 13.02606001 7.58111413 12.9375 11.4375 C12.92460937 12.67757812 12.91171875 13.91765625 12.8984375 15.1953125 C12.5625 18.3125 12.5625 18.3125 10.5625 20.3125 C7.9609375 20.7265625 7.9609375 20.7265625 4.9375 20.9375 C3.43316406 21.04964844 3.43316406 21.04964844 1.8984375 21.1640625 C0.74214844 21.23753906 0.74214844 21.23753906 -0.4375 21.3125 C-1.59937642 34.38360967 7.01777097 45.5430733 13.67578125 56.07324219 C28.00502628 78.7525291 28.00502628 78.7525291 26.5625 90.3125 C23.10883179 102.06928763 15.83420045 108.23475212 5.5625 114.3125 C-14.7840085 124.81620799 -41.92194439 131.95705688 -64.4375 125.3125 C-68.0625 123.625 -68.0625 123.625 -70.4375 121.3125 C-71.3125 117.5625 -71.3125 117.5625 -71.4375 114.3125 C-71.994375 114.56 -72.55125 114.8075 -73.125 115.0625 C-75.4375 115.3125 -75.4375 115.3125 -78.125 113.5625 C-81.36517771 110.40989466 -81.60743039 107.84377661 -81.6875 103.5 C-81.61604131 99.05007258 -81.24452768 95.9344712 -78.4375 92.3125 C-74.75 90.9375 -74.75 90.9375 -71.4375 90.3125 C-74.0775 90.3125 -76.7175 90.3125 -79.4375 90.3125 C-79.625 86.9375 -79.625 86.9375 -79.4375 83.3125 C-75.41047355 80.6278157 -72.1661041 80.7481458 -67.4375 81.3125 C-64.14818486 83.03939045 -63.6234733 83.7545801 -62.4375 87.3125 C-62.35510831 89.15860532 -62.33006641 91.00755164 -62.33984375 92.85546875 C-62.34306641 93.92861328 -62.34628906 95.00175781 -62.34960938 96.10742188 C-62.35798828 97.22697266 -62.36636719 98.34652344 -62.375 99.5 C-62.37951172 100.63115234 -62.38402344 101.76230469 -62.38867188 102.92773438 C-62.40046502 105.72270927 -62.4169235 108.5175782 -62.4375 111.3125 C-60.9525 110.8175 -60.9525 110.8175 -59.4375 110.3125 C-59.6025 109.343125 -59.7675 108.37375 -59.9375 107.375 C-61.11228108 98.93019687 -61.02610526 90.9144649 -56.75 83.3125 C-54.4375 81.3125 -54.4375 81.3125 -50.6875 81 C-49.615 81.103125 -48.5425 81.20625 -47.4375 81.3125 C-47.4375 84.2825 -47.4375 87.2525 -47.4375 90.3125 C-48.4275 90.6425 -49.4175 90.9725 -50.4375 91.3125 C-50.4375 95.6025 -50.4375 99.8925 -50.4375 104.3125 C-49.4475 104.3125 -48.4575 104.3125 -47.4375 104.3125 C-47.4375 105.9625 -47.4375 107.6125 -47.4375 109.3125 C-46.4475 109.3125 -45.4575 109.3125 -44.4375 109.3125 C-44.4375 100.4025 -44.4375 91.4925 -44.4375 82.3125 C-37.4375 81.3125 -37.4375 81.3125 -35.4375 82.3125 C-34.9425 94.1925 -34.9425 94.1925 -34.4375 106.3125 C-33.7775 105.9825 -33.1175 105.6525 -32.4375 105.3125 C-32.48970703 103.81009766 -32.48970703 103.81009766 -32.54296875 102.27734375 C-32.86675004 88.98395199 -32.86675004 88.98395199 -29.4375 83.3125 C-26.95673136 80.83173136 -25.99531791 80.96158443 -22.5625 80.875 C-21.26699219 80.81505859 -21.26699219 80.81505859 -19.9453125 80.75390625 C-17.4375 81.3125 -17.4375 81.3125 -15.1640625 83.3828125 C-13.05473072 86.96199538 -12.8419661 89.4930318 -12.6875 93.625 C-12.63078125 94.87925781 -12.5740625 96.13351563 -12.515625 97.42578125 C-12.48984375 98.37839844 -12.4640625 99.33101563 -12.4375 100.3125 C-10.68278614 99.40488938 -8.93390736 98.48599289 -7.1875 97.5625 C-6.21296875 97.05203125 -5.2384375 96.5415625 -4.234375 96.015625 C-0.28613023 93.61138657 2.09649301 91.65569663 3.625 87.25 C3.44311258 75.79109241 -6.2892954 63.08942878 -11.7199707 53.13989258 C-26.33972953 26.30705294 -26.33972953 26.30705294 -22.8125 14.16015625 C-20.42679447 8.61126079 -16.31667858 4.76900228 -11.4375 1.3125 C-7.61709134 0.03903045 -3.98285774 0.05016194 0 0 Z M-23.4375 90.3125 C-23.7675 94.9325 -24.0975 99.5525 -24.4375 104.3125 C-23.4475 104.3125 -22.4575 104.3125 -21.4375 104.3125 C-21.4375 99.6925 -21.4375 95.0725 -21.4375 90.3125 C-22.0975 90.3125 -22.7575 90.3125 -23.4375 90.3125 Z M-73.4375 98.3125 C-73.4375 101.2825 -73.4375 104.2525 -73.4375 107.3125 C-72.4475 106.9825 -71.4575 106.6525 -70.4375 106.3125 C-70.4375 104.0025 -70.4375 101.6925 -70.4375 99.3125 C-71.4275 98.9825 -72.4175 98.6525 -73.4375 98.3125 Z " fill="#302A6E" transform="translate(183.4375,46.6875)"/>
<path d="M0 0 C1.19493073 -0.00574036 1.19493073 -0.00574036 2.41400146 -0.01159668 C4.09844222 -0.01431505 5.78292524 -0.00695897 7.46728516 0.00976562 C10.02474158 0.03106566 12.57935276 0.01002264 15.13671875 -0.015625 C16.77865196 -0.0129795 18.42058342 -0.00784993 20.0625 0 C21.195737 -0.01214539 21.195737 -0.01214539 22.35186768 -0.02453613 C28.76800627 0.08670276 34.20532821 1.95971515 38.8203125 6.5390625 C39.48933594 7.58707031 39.48933594 7.58707031 40.171875 8.65625 C40.63335937 9.33945312 41.09484375 10.02265625 41.5703125 10.7265625 C44.82573187 18.17048321 45.11754716 26.07834923 45.046875 34.09375 C45.05847656 35.41536133 45.05847656 35.41536133 45.0703125 36.76367188 C45.04527918 45.2437095 44.2633904 52.73951875 38.796875 59.53125 C37.806875 60.19125 36.816875 60.85125 35.796875 61.53125 C37.74711859 68.04634945 40.76276485 74.07052943 43.6953125 80.1875 C47.58655295 88.57640798 47.58655295 88.57640798 46.796875 93.53125 C46.136875 94.19125 45.476875 94.85125 44.796875 95.53125 C44.62177114 98.18416757 44.56532017 100.73111174 44.6015625 103.3828125 C44.60580734 104.54386002 44.60580734 104.54386002 44.61013794 105.72836304 C44.62134746 108.20448157 44.64645297 110.6802405 44.671875 113.15625 C44.68190382 114.83332812 44.69102984 116.51041189 44.69921875 118.1875 C44.72128926 122.30222223 44.75582398 126.41667511 44.796875 130.53125 C45.58449219 130.80710938 46.37210938 131.08296875 47.18359375 131.3671875 C50.43245799 132.81436469 51.23570996 134.40891993 52.796875 137.53125 C50.31588626 140.37709002 48.52415293 142.27828376 44.921875 143.53125 C40.831302 143.53125 38.31349281 142.59984871 34.796875 140.53125 C33.796875 137.96875 33.796875 137.96875 33.796875 135.53125 C34.126875 134.87125 34.456875 134.21125 34.796875 133.53125 C35.456875 133.53125 36.116875 133.53125 36.796875 133.53125 C35.806875 132.54125 35.806875 132.54125 34.796875 131.53125 C32.19406932 131.85166397 32.19406932 131.85166397 29.796875 132.53125 C23.66676957 125.41241789 24.38849668 118.66871492 24.796875 109.53125 C25.28665297 105.84121823 26.03623752 102.69031664 28.109375 99.53125 C30.40518496 98.17077002 32.17973115 98.31904915 34.796875 98.53125 C35.291875 97.04625 35.291875 97.04625 35.796875 95.53125 C34.90935547 95.63566406 34.90935547 95.63566406 34.00390625 95.7421875 C33.21371094 95.79632813 32.42351562 95.85046875 31.609375 95.90625 C30.44341797 96.01066406 30.44341797 96.01066406 29.25390625 96.1171875 C26.24996384 95.40082603 24.92126891 94.08683751 23.07543945 91.65283203 C20.26211213 86.9845459 18.43224202 81.85436143 16.484375 76.78125 C16.02998047 75.63269531 15.57558594 74.48414062 15.10742188 73.30078125 C11.796875 64.84768562 11.796875 64.84768562 11.796875 62.53125 C11.136875 62.53125 10.476875 62.53125 9.796875 62.53125 C9.796875 72.76125 9.796875 82.99125 9.796875 93.53125 C5.5897606 95.6348072 3.41950298 95.85728148 -1.203125 95.90625 C-2.42 95.93460937 -3.636875 95.96296875 -4.890625 95.9921875 C-8.203125 95.53125 -8.203125 95.53125 -10.37780762 94.02600098 C-12.93709216 90.528101 -12.76330113 87.32548355 -12.72070312 83.15429688 C-12.7277124 82.3115773 -12.73472168 81.46885773 -12.74194336 80.6006012 C-12.75953945 77.81673164 -12.74789509 75.03387978 -12.734375 72.25 C-12.73706945 70.31473597 -12.74095149 68.37947326 -12.74597168 66.44421387 C-12.75186891 62.38894762 -12.7432965 58.33403386 -12.72460938 54.27880859 C-12.70181974 49.07982068 -12.71494161 43.88165871 -12.73889923 38.68270111 C-12.7533511 34.68668389 -12.74875402 30.69086259 -12.73838806 26.69483948 C-12.73571909 24.77787681 -12.73899652 22.86089638 -12.74830627 20.94395447 C-12.75846182 18.26489117 -12.74298527 15.58716666 -12.72070312 12.90820312 C-12.72880005 12.11535416 -12.73689697 11.32250519 -12.74523926 10.50563049 C-12.69117167 6.99797152 -12.48356732 4.9194655 -10.40350342 2.04003906 C-7.10929401 -0.21878473 -3.85520185 -0.04087972 0 0 Z M9.796875 23.53125 C9.29416526 26.98853111 9.380216 30.47904098 9.359375 33.96875 C9.32650391 34.93619141 9.29363281 35.90363281 9.25976562 36.90039062 C9.23962797 39.53842311 9.28495729 41.94275587 9.796875 44.53125 C11.95269858 46.89182676 11.95269858 46.89182676 14.796875 47.53125 C18.02244023 47.12277808 18.02244023 47.12277808 20.796875 45.53125 C23.80058032 40.9445108 23.28575185 35.80261774 22.796875 30.53125 C22.02459405 27.42427 21.02290037 24.48684688 19.796875 21.53125 C14.21022654 20.92703469 14.21022654 20.92703469 9.796875 23.53125 Z M32.796875 108.53125 C32.796875 113.15125 32.796875 117.77125 32.796875 122.53125 C33.786875 122.53125 34.776875 122.53125 35.796875 122.53125 C35.796875 117.91125 35.796875 113.29125 35.796875 108.53125 C34.806875 108.53125 33.816875 108.53125 32.796875 108.53125 Z " fill="#E98606" transform="translate(55.203125,29.46875)"/>
<path d="M0 0 C4.69634388 3.29106724 7.57844021 7.88747554 9.0234375 13.41796875 C9.95456707 20.82213158 8.99594395 27.04070088 5.0234375 33.41796875 C4.48332031 33.95421875 3.94320312 34.49046875 3.38671875 35.04296875 C1.7887461 36.33196506 1.7887461 36.33196506 2.0234375 38.41796875 C2.7865625 38.99546875 3.5496875 39.57296875 4.3359375 40.16796875 C8.95188589 44.03248368 10.469112 48.54211842 11.0234375 54.41796875 C11.71521016 65.0982637 10.1435517 73.42637394 3.42578125 81.921875 C2.0234375 83.41796875 2.0234375 83.41796875 0.0234375 84.41796875 C1.3434375 84.74796875 2.6634375 85.07796875 4.0234375 85.41796875 C4.0234375 87.72796875 4.0234375 90.03796875 4.0234375 92.41796875 C1.0534375 92.41796875 -1.9165625 92.41796875 -4.9765625 92.41796875 C-5.3065625 91.09796875 -5.6365625 89.77796875 -5.9765625 88.41796875 C-6.9665625 88.74796875 -7.9565625 89.07796875 -8.9765625 89.41796875 C-19.00738442 92.15546397 -27.23359583 89.08834245 -36.1796875 84.21875 C-37.8515625 83.04296875 -37.8515625 83.04296875 -39.9765625 80.41796875 C-40.65280761 73.52026868 -36.04850972 68.62766593 -31.9765625 63.41796875 C-30.9765625 62.41796875 -30.9765625 62.41796875 -28.6640625 62.16796875 C-25.9765625 62.41796875 -25.9765625 62.41796875 -24.2265625 63.91796875 C-20.7150273 66.25899222 -17.08029258 65.65472241 -12.9765625 65.41796875 C-12.75325051 63.83667846 -12.54851606 62.25275786 -12.3515625 60.66796875 C-12.17753906 59.34539062 -12.17753906 59.34539062 -12 57.99609375 C-11.9741671 55.15447508 -12.41940573 53.76959326 -13.9765625 51.41796875 C-17.04509788 49.88370106 -20.27244171 50.02857002 -23.6640625 49.796875 C-25.9765625 49.41796875 -25.9765625 49.41796875 -27.9765625 47.41796875 C-28.20160599 44.70575625 -28.30091245 42.1292369 -28.2890625 39.41796875 C-28.30517578 38.680625 -28.32128906 37.94328125 -28.33789062 37.18359375 C-28.33984375 35.04296875 -28.33984375 35.04296875 -27.9765625 31.41796875 C-24.42963675 29.05335158 -22.17508841 29.03363548 -18.03515625 28.76171875 C-15.75756251 28.58629395 -15.75756251 28.58629395 -13.9765625 26.41796875 C-13.72652286 22.87618277 -13.72652286 22.87618277 -13.9765625 19.41796875 C-15.06854392 18.1184054 -15.06854392 18.1184054 -17.7265625 18.10546875 C-21.68306057 18.48590126 -22.96280456 19.95937675 -25.9765625 22.41796875 C-28.95585546 22.28170171 -29.97961285 21.41506078 -32.15234375 19.34375 C-32.85746094 18.48136719 -33.56257813 17.61898437 -34.2890625 16.73046875 C-35.36607422 15.45623047 -35.36607422 15.45623047 -36.46484375 14.15625 C-37.9765625 11.41796875 -37.9765625 11.41796875 -37.9296875 8.28515625 C-36.18150477 3.02627869 -31.7626224 0.9873316 -27.125 -1.625 C-18.29683817 -5.62584781 -8.26554845 -4.77475857 0 0 Z " fill="#E98606" transform="translate(143.9765625,34.58203125)"/>
<path d="M0 0 C0.76376953 -0.020625 1.52753906 -0.04125 2.31445312 -0.0625 C5.58469476 -0.08526931 8.03252043 0.02993072 11.07421875 1.29296875 C13.33538655 4.26631539 13.0659575 7.23935332 12.9375 10.8125 C12.93621094 11.49763672 12.93492187 12.18277344 12.93359375 12.88867188 C12.84385927 17.96864073 12.84385927 17.96864073 10.5625 20.25 C8.1796875 20.6640625 8.1796875 20.6640625 5.4375 20.875 C4.52742188 20.94976562 3.61734375 21.02453125 2.6796875 21.1015625 C1.98101562 21.15054688 1.28234375 21.19953125 0.5625 21.25 C-0.21638815 23.05890372 -0.21638815 23.05890372 -0.4375 25.25 C0.73635725 27.142627 0.73635725 27.142627 2.5625 28.875 C11.56233978 38.50735864 15.16023453 45.87181957 14.90234375 58.9921875 C14.57087845 65.28315136 12.4386711 69.60494979 7.8125 73.859375 C2.1851803 78.17688753 -2.5007755 78.43123361 -9.375 78.4375 C-10.07818359 78.44974609 -10.78136719 78.46199219 -11.50585938 78.47460938 C-15.58153561 78.48606863 -18.82479805 78.20373825 -22.4375 76.25 C-23.57695516 73.97108967 -23.56644214 72.68217896 -23.5703125 70.15234375 C-23.57160156 69.35119141 -23.57289063 68.55003906 -23.57421875 67.72460938 C-23.57035156 66.88736328 -23.56648438 66.05011719 -23.5625 65.1875 C-23.56636719 64.34638672 -23.57023437 63.50527344 -23.57421875 62.63867188 C-23.56412682 56.37662682 -23.56412682 56.37662682 -22.4375 55.25 C-19.90700598 55.17686433 -17.40445163 55.15752473 -14.875 55.1875 C-14.16408203 55.19201172 -13.45316406 55.19652344 -12.72070312 55.20117188 C-10.95959987 55.21299136 -9.19853964 55.23092737 -7.4375 55.25 C-7.19062377 50.40502863 -7.19062377 50.40502863 -9.5625 46.1875 C-11.43938262 44.1351581 -13.29752122 42.56549331 -15.5 40.8125 C-20.41237942 36.52723285 -22.99063358 31.49156815 -23.67578125 24.98828125 C-23.90193339 17.59667708 -22.64996131 11.69515468 -17.49609375 6.16796875 C-11.76761471 0.98807333 -7.68740967 0.05163667 0 0 Z " fill="#E98607" transform="translate(332.4375,47.75)"/>
<path d="M0 0 C1.27423828 -0.00193359 1.27423828 -0.00193359 2.57421875 -0.00390625 C3.91419922 0.00189453 3.91419922 0.00189453 5.28125 0.0078125 C6.17457031 0.00394531 7.06789063 0.00007813 7.98828125 -0.00390625 C8.83777344 -0.00261719 9.68726563 -0.00132813 10.5625 0 C11.34689453 0.00112793 12.13128906 0.00225586 12.93945312 0.00341797 C14.78125 0.1328125 14.78125 0.1328125 15.78125 1.1328125 C15.89247004 4.01340418 15.93864988 6.87024202 15.94238281 9.75170898 C15.94734772 10.65572449 15.95231262 11.55973999 15.95742798 12.4911499 C15.97208841 15.49540962 15.97885763 18.49961657 15.984375 21.50390625 C15.99012274 23.58276879 15.99588052 25.66163129 16.00164795 27.74049377 C16.01216865 32.10442351 16.01800448 36.46833475 16.02148438 40.83227539 C16.02697488 46.43604942 16.05101034 52.03958116 16.07945633 57.64327908 C16.09803848 61.93855005 16.10328592 66.23376212 16.10482025 70.5290699 C16.10785675 72.5956257 16.11591854 74.66218023 16.12900543 76.72869682 C16.14597566 79.61416174 16.14420805 82.49902754 16.13769531 85.38452148 C16.1469101 86.24537857 16.15612488 87.10623566 16.1656189 87.99317932 C16.14874268 90.36839294 16.14874268 90.36839294 15.78125 94.1328125 C12.02365815 96.63787373 9.06097423 96.3932588 4.71875 96.3203125 C3.98591797 96.31966797 3.25308594 96.31902344 2.49804688 96.31835938 C-2.9375 96.2734375 -2.9375 96.2734375 -5.21875 95.1328125 C-6.78140087 90.27485923 -6.34353293 84.98647227 -6.30859375 79.94140625 C-6.30480209 78.90165146 -6.30101044 77.86189667 -6.29710388 76.79063416 C-6.2319034 63.39507103 -6.04844748 50.00029265 -5.84643555 36.60620117 C-5.79031825 32.8696205 -5.7405487 29.13298063 -5.69203281 25.39629459 C-5.6532762 22.4924758 -5.61016865 19.58873377 -5.56580925 16.68499565 C-5.54545665 15.30425741 -5.52673214 13.92349416 -5.50967598 12.54271126 C-5.48574897 10.63916914 -5.45509388 8.73571511 -5.42407227 6.83227539 C-5.40852798 5.7521669 -5.3929837 4.67205841 -5.37696838 3.55921936 C-5.11265124 -0.4942978 -3.64951345 0.00524786 0 0 Z " fill="#E98607" transform="translate(251.21875,28.8671875)"/>
<path d="M0 0 C1.22589844 -0.01417969 2.45179688 -0.02835938 3.71484375 -0.04296875 C6.90960673 0.17697409 8.34183041 0.6901117 11.0625 2.1875 C11.13191831 11.54055521 11.18526947 20.89352216 11.21793652 30.24677849 C11.23361269 34.5895788 11.25488625 38.93220326 11.28881836 43.27490234 C11.32134268 47.46349956 11.3393383 51.65192731 11.34713173 55.84064102 C11.35268775 57.44109898 11.36353695 59.04154736 11.37969017 60.64193344 C11.40137306 62.87851982 11.40447087 65.11440017 11.40307617 67.35107422 C11.40973801 68.62570526 11.41639984 69.9003363 11.42326355 71.21359253 C11.30421158 72.19498199 11.18515961 73.17637146 11.0625 74.1875 C7.33328729 76.67364181 4.37878318 76.51920055 0.0625 76.5 C-1.02417969 76.52416992 -1.02417969 76.52416992 -2.1328125 76.54882812 C-7.38985499 76.5536778 -7.38985499 76.5536778 -9.64569092 75.04533386 C-11.50855545 72.36622837 -11.30463995 70.34385813 -11.29394531 67.09887695 C-11.29694641 65.84359695 -11.29994751 64.58831696 -11.30303955 63.29499817 C-11.29102652 61.92192177 -11.27854317 60.54884943 -11.265625 59.17578125 C-11.26256522 57.76434022 -11.26069076 56.35289617 -11.25994873 54.94145203 C-11.25534414 51.97981234 -11.24092068 49.0184443 -11.21875 46.05688477 C-11.19059704 42.2788185 -11.17955105 38.50096716 -11.1750679 34.72280598 C-11.16988189 31.10293726 -11.15535106 27.48312135 -11.140625 23.86328125 C-11.13874428 23.18047907 -11.13686356 22.49767689 -11.13492584 21.79418373 C-11.1102239 14.84579056 -11.02357209 8.05815748 -9.9375 1.1875 C-6.46363568 0.02954523 -3.65980696 0.01920151 0 0 Z " fill="#E98607" transform="translate(288.9375,48.8125)"/>
<path d="M0 0 C1.11246094 -0.00257812 2.22492187 -0.00515625 3.37109375 -0.0078125 C4.53769531 -0.00007813 5.70429688 0.00765625 6.90625 0.015625 C8.07285156 0.00789063 9.23945313 0.00015625 10.44140625 -0.0078125 C11.55386719 -0.00523438 12.66632812 -0.00265625 13.8125 0 C14.83666016 0.00225586 15.86082031 0.00451172 16.91601562 0.00683594 C19.40625 0.265625 19.40625 0.265625 21.40625 2.265625 C21.63671875 5.48828125 21.63671875 5.48828125 21.59375 9.328125 C21.58730469 10.59785156 21.58085938 11.86757812 21.57421875 13.17578125 C21.40625 16.265625 21.40625 16.265625 20.40625 17.265625 C18.39030418 17.49990278 16.367776 17.67898624 14.34375 17.828125 C12.68666016 17.95380859 12.68666016 17.95380859 10.99609375 18.08203125 C10.14144531 18.14261719 9.28679688 18.20320313 8.40625 18.265625 C8.07625 21.235625 7.74625 24.205625 7.40625 27.265625 C8.16550781 27.23082031 8.92476562 27.19601563 9.70703125 27.16015625 C11.19783203 27.11955078 11.19783203 27.11955078 12.71875 27.078125 C13.70488281 27.04332031 14.69101562 27.00851563 15.70703125 26.97265625 C18.40625 27.265625 18.40625 27.265625 20.2421875 28.3984375 C21.9154058 31.08232457 21.76829477 33.19156005 21.71875 36.328125 C21.71488281 37.39160156 21.71101563 38.45507812 21.70703125 39.55078125 C21.40625 42.265625 21.40625 42.265625 19.40625 44.265625 C16.8046875 44.4609375 16.8046875 44.4609375 13.78125 44.390625 C12.77835938 44.37257812 11.77546875 44.35453125 10.7421875 44.3359375 C9.58589844 44.30113281 9.58589844 44.30113281 8.40625 44.265625 C8.42196045 45.12841064 8.4376709 45.99119629 8.45385742 46.88012695 C8.50500955 50.08371767 8.5426116 53.28710015 8.57104492 56.4909668 C8.58612397 57.87710419 8.6065905 59.26319394 8.63256836 60.64916992 C8.66898716 62.64220646 8.68438018 64.63559223 8.69921875 66.62890625 C8.7149292 67.82813721 8.73063965 69.02736816 8.74682617 70.26293945 C8.40625 73.265625 8.40625 73.265625 7.05224609 75.15991211 C4.63645203 76.78274381 2.71910883 76.59219914 -0.15625 76.515625 C-1.12691406 76.50015625 -2.09757813 76.4846875 -3.09765625 76.46875 C-5.59375 76.265625 -5.59375 76.265625 -7.59375 75.265625 C-7.64002819 65.78216485 -7.67559612 56.29874339 -7.69737434 46.81519508 C-7.70782518 42.41191249 -7.72200796 38.00870698 -7.74462891 33.60546875 C-7.76631112 29.35852676 -7.77830883 25.11165904 -7.78350449 20.86466599 C-7.78720858 19.24189458 -7.79444146 17.61912738 -7.80521011 15.99638748 C-7.8196638 13.72878383 -7.82173054 11.46148972 -7.82080078 9.19384766 C-7.825242 7.90145172 -7.82968323 6.60905579 -7.83425903 5.27749634 C-7.39866593 -0.17739392 -4.7919228 0.0105549 0 0 Z " fill="#8B2927" transform="translate(11.59375,85.734375)"/>
<path d="M0 0 C1.1240625 -0.00515625 2.248125 -0.0103125 3.40625 -0.015625 C6.5 0.25 6.5 0.25 10.5 2.25 C10.5 26.34 10.5 50.43 10.5 75.25 C7.35597519 76.8220124 4.01052603 76.43446744 0.5625 76.4375 C-0.16646484 76.44974609 -0.89542969 76.46199219 -1.64648438 76.47460938 C-5.4713391 76.48512685 -7.24356564 76.42095624 -10.5 74.25 C-10.86076355 71.27609253 -10.86076355 71.27609253 -10.84057617 67.41357422 C-10.84101425 66.71102509 -10.84145233 66.00847595 -10.84190369 65.28463745 C-10.83981021 62.95770674 -10.81645395 60.63149264 -10.79296875 58.3046875 C-10.78737476 56.69329217 -10.78310373 55.08189175 -10.78010559 53.4704895 C-10.76864126 49.2255855 -10.73916068 44.98098858 -10.70599365 40.73620605 C-10.67532682 36.40621088 -10.66160752 32.07616618 -10.64648438 27.74609375 C-10.61429227 19.24725479 -10.56307704 10.74866557 -10.5 2.25 C-6.8318147 0.25331752 -4.20266618 -0.01927829 0 0 Z " fill="#E98607" transform="translate(223.5,48.75)"/>
<path d="M0 0 C1.4540625 0.0309375 1.4540625 0.0309375 2.9375 0.0625 C3.99116413 4.43089401 4.15290887 8.73639846 4.25390625 13.20703125 C4.27468735 13.97681808 4.29546844 14.74660492 4.31687927 15.53971863 C4.38196049 17.98472667 4.44106591 20.42983683 4.5 22.875 C4.54322468 24.53842177 4.58684021 26.20183344 4.63085938 27.86523438 C4.73759907 31.93088648 4.83898171 35.99664071 4.9375 40.0625 C5.72511719 40.33835938 6.51273438 40.61421875 7.32421875 40.8984375 C10.57308299 42.34561469 11.37633496 43.94016993 12.9375 47.0625 C10.45651126 49.90834002 8.66477793 51.80953376 5.0625 53.0625 C0.971927 53.0625 -1.54588219 52.13109871 -5.0625 50.0625 C-6.0625 47.5 -6.0625 47.5 -6.0625 45.0625 C-5.7325 44.4025 -5.4025 43.7425 -5.0625 43.0625 C-4.4025 43.0625 -3.7425 43.0625 -3.0625 43.0625 C-3.7225 42.4025 -4.3825 41.7425 -5.0625 41.0625 C-7.66530568 41.38291397 -7.66530568 41.38291397 -10.0625 42.0625 C-16.19260543 34.94366789 -15.47087832 28.19996492 -15.0625 19.0625 C-14.57272203 15.37246823 -13.82313748 12.22156664 -11.75 9.0625 C-9.45419004 7.70202002 -7.67964385 7.85029915 -5.0625 8.0625 C-4.918125 6.928125 -4.77375 5.79375 -4.625 4.625 C-3.90732759 0.07974138 -3.90732759 0.07974138 0 0 Z M-7.0625 18.0625 C-7.0625 22.6825 -7.0625 27.3025 -7.0625 32.0625 C-6.0725 32.0625 -5.0825 32.0625 -4.0625 32.0625 C-4.0625 27.4425 -4.0625 22.8225 -4.0625 18.0625 C-5.0525 18.0625 -6.0425 18.0625 -7.0625 18.0625 Z " fill="#8B2926" transform="translate(95.0625,119.9375)"/>
<path d="M0 0 C3.14112499 1.77191666 3.39247737 2.9667642 4.4375 6.375 C4.68041992 9.40527344 4.68041992 9.40527344 4.66796875 12.734375 C4.66603516 13.93191406 4.66410156 15.12945312 4.66210938 16.36328125 C4.64374023 18.22533203 4.64374023 18.22533203 4.625 20.125 C4.62435547 21.38183594 4.62371094 22.63867188 4.62304688 23.93359375 C4.57779824 33.23470176 4.57779824 33.23470176 3.4375 34.375 C-0.0625 34.5 -0.0625 34.5 -3.5625 34.375 C-4.5625 33.375 -4.5625 33.375 -4.67602539 31.15014648 C-4.67078857 30.19180908 -4.66555176 29.23347168 -4.66015625 28.24609375 C-4.65693359 27.21162109 -4.65371094 26.17714844 -4.65039062 25.11132812 C-4.64201172 24.02271484 -4.63363281 22.93410156 -4.625 21.8125 C-4.62048828 20.72001953 -4.61597656 19.62753906 -4.61132812 18.50195312 C-4.59949826 15.79291505 -4.58301543 13.08398401 -4.5625 10.375 C-5.5525 10.87 -5.5525 10.87 -6.5625 11.375 C-6.8925 18.965 -7.2225 26.555 -7.5625 34.375 C-9.8725 34.375 -12.1825 34.375 -14.5625 34.375 C-16.23923649 32.69826351 -15.69037817 30.64644924 -15.70144653 28.40844727 C-15.6994223 27.71678467 -15.69739807 27.02512207 -15.6953125 26.3125 C-15.69626923 25.60601318 -15.69722595 24.89952637 -15.69821167 24.17163086 C-15.69889333 22.67529207 -15.69704005 21.17895033 -15.69287109 19.68261719 C-15.68752257 17.38469843 -15.69281651 15.08697514 -15.69921875 12.7890625 C-15.69855797 11.33854123 -15.6972768 9.88802009 -15.6953125 8.4375 C-15.69733673 7.7458374 -15.69936096 7.0541748 -15.70144653 6.34155273 C-15.67745224 1.48995224 -15.67745224 1.48995224 -14.5625 0.375 C-12.22955225 0.33258277 -9.89547433 0.33407063 -7.5625 0.375 C-4.61062354 0.375 -2.98311302 -0.72758854 0 0 Z " fill="#8B2927" transform="translate(72.5625,127.625)"/>
<path d="M0 0 C3.5 0.125 3.5 0.125 4.5 1.125 C4.58713831 2.83272358 4.60700007 4.54398649 4.59765625 6.25390625 C4.59443359 7.28837891 4.59121094 8.32285156 4.58789062 9.38867188 C4.57951172 10.47728516 4.57113281 11.56589844 4.5625 12.6875 C4.55798828 13.77998047 4.55347656 14.87246094 4.54882812 15.99804688 C4.53699826 18.70708495 4.52051543 21.41601599 4.5 24.125 C5.16 24.125 5.82 24.125 6.5 24.125 C6.83 16.205 7.16 8.285 7.5 0.125 C9.81 0.125 12.12 0.125 14.5 0.125 C16.17673649 1.80173649 15.62787817 3.85355076 15.63894653 6.09155273 C15.6369223 6.78321533 15.63489807 7.47487793 15.6328125 8.1875 C15.63424759 9.24723022 15.63424759 9.24723022 15.63571167 10.32836914 C15.63639333 11.82470793 15.63454005 13.32104967 15.63037109 14.81738281 C15.62502257 17.11530157 15.63031651 19.41302486 15.63671875 21.7109375 C15.63605797 23.16145877 15.6347768 24.61197991 15.6328125 26.0625 C15.63483673 26.7541626 15.63686096 27.4458252 15.63894653 28.15844727 C15.61495224 33.01004776 15.61495224 33.01004776 14.5 34.125 C12.16706666 34.16820247 9.8329866 34.16522391 7.5 34.125 C4.58636576 34.06141784 4.58636576 34.06141784 2.0625 34.4375 C-0.5 34.125 -0.5 34.125 -2.63354492 32.01660156 C-4.87400582 28.54557228 -4.97819302 26.64599676 -4.92578125 22.546875 C-4.91740234 21.30421875 -4.90902344 20.0615625 -4.90039062 18.78125 C-4.87138672 17.4921875 -4.84238281 16.203125 -4.8125 14.875 C-4.80283203 13.57046875 -4.79316406 12.2659375 -4.78320312 10.921875 C-4.65435943 0.16622712 -4.65435943 0.16622712 0 0 Z " fill="#8B2927" transform="translate(37.5,127.875)"/>
<path d="M0 0 C0.86367187 -0.03996094 1.72734375 -0.07992187 2.6171875 -0.12109375 C5.125 0.4375 5.125 0.4375 7.41796875 2.28125 C9.93946097 6.94341411 9.66879112 11.15987745 9.5625 16.375 C9.56958984 17.35146484 9.57667969 18.32792969 9.58398438 19.33398438 C9.53590945 24.78863932 9.14317662 28.70608784 6.125 33.4375 C4.18872231 33.54557131 2.25072244 33.6231225 0.3125 33.6875 C-0.76644531 33.73390625 -1.84539062 33.7803125 -2.95703125 33.828125 C-5.875 33.4375 -5.875 33.4375 -7.69921875 31.734375 C-11.22842746 24.84010682 -11.09346525 14.4300427 -9.2734375 6.97265625 C-7.17694379 1.96436573 -5.38167357 0.13573954 0 0 Z M-0.875 9.4375 C-1.205 14.0575 -1.535 18.6775 -1.875 23.4375 C-0.885 23.4375 0.105 23.4375 1.125 23.4375 C1.125 18.8175 1.125 14.1975 1.125 9.4375 C0.465 9.4375 -0.195 9.4375 -0.875 9.4375 Z " fill="#892927" transform="translate(160.875,127.5625)"/>
<path d="M0 0 C3.28931514 1.72689045 3.8140267 2.4420801 5 6 C5.09385984 7.81060942 5.13070571 9.62446064 5.1328125 11.4375 C5.13410156 12.49710938 5.13539062 13.55671875 5.13671875 14.6484375 C5.13285156 15.75445312 5.12898438 16.86046875 5.125 18 C5.13080078 19.65902344 5.13080078 19.65902344 5.13671875 21.3515625 C5.13542969 22.41117188 5.13414063 23.47078125 5.1328125 24.5625 C5.13168457 25.53316406 5.13055664 26.50382812 5.12939453 27.50390625 C5 30 5 30 4 33 C2.14375 32.9690625 2.14375 32.9690625 0.25 32.9375 C-2.19364377 32.91602686 -3.86283711 32.95297272 -6.1875 33.75 C-8 34 -8 34 -10.6875 32.25 C-13.92767771 29.09739466 -14.16993039 26.53127661 -14.25 22.1875 C-14.17854131 17.73757258 -13.80702768 14.6219712 -11 11 C-7.3125 9.625 -7.3125 9.625 -4 9 C-6.64 9 -9.28 9 -12 9 C-12.1875 5.625 -12.1875 5.625 -12 2 C-7.97297355 -0.6846843 -4.7286041 -0.5643542 0 0 Z M-6 17 C-6 19.97 -6 22.94 -6 26 C-5.01 25.67 -4.02 25.34 -3 25 C-3 22.69 -3 20.38 -3 18 C-3.99 17.67 -4.98 17.34 -6 17 Z " fill="#8B2926" transform="translate(116,128)"/>
<path d="M0 0 C0.78552246 0.01047363 1.57104492 0.02094727 2.38037109 0.03173828 C3.23115234 0.03818359 4.08193359 0.04462891 4.95849609 0.05126953 C6.29267578 0.07640625 6.29267578 0.07640625 7.65380859 0.10205078 C8.99958984 0.11558594 8.99958984 0.11558594 10.37255859 0.12939453 C12.59157445 0.15300108 14.81005937 0.18592768 17.02880859 0.22705078 C18.45128606 3.07200572 18.23674461 5.55823038 18.27880859 8.72705078 C18.30458984 9.89236328 18.33037109 11.05767578 18.35693359 12.25830078 C18.24865234 13.23798828 18.14037109 14.21767578 18.02880859 15.22705078 C14.27121674 17.73211202 11.30853282 17.48749708 6.96630859 17.41455078 C6.23347656 17.41390625 5.50064453 17.41326172 4.74560547 17.41259766 C-0.68994141 17.36767578 -0.68994141 17.36767578 -2.97119141 16.22705078 C-4.03493057 13.20521851 -4.13492935 10.28616637 -4.15869141 7.10205078 C-4.17287109 6.23322266 -4.18705078 5.36439453 -4.20166016 4.46923828 C-3.89538821 1.48957566 -3.03727712 0.34984738 0 0 Z " fill="#E98607" transform="translate(281.97119140625,28.77294921875)"/>
<path d="M0 0 C1.27423828 -0.00193359 1.27423828 -0.00193359 2.57421875 -0.00390625 C3.91419922 0.00189453 3.91419922 0.00189453 5.28125 0.0078125 C6.17457031 0.00394531 7.06789062 0.00007813 7.98828125 -0.00390625 C8.83777344 -0.00261719 9.68726563 -0.00132813 10.5625 0 C11.34689453 0.00112793 12.13128906 0.00225586 12.93945312 0.00341797 C14.78125 0.1328125 14.78125 0.1328125 15.78125 1.1328125 C15.90682162 3.44274632 15.95700729 5.75699786 15.96875 8.0703125 C15.98292969 9.33746094 15.99710938 10.60460938 16.01171875 11.91015625 C15.78125 15.1328125 15.78125 15.1328125 13.78125 17.1328125 C10.90782939 17.33138222 8.15263012 17.41110196 5.28125 17.3828125 C4.10369141 17.39441406 4.10369141 17.39441406 2.90234375 17.40625 C-2.96544213 17.38612037 -2.96544213 17.38612037 -5.21875 15.1328125 C-5.44921875 11.91015625 -5.44921875 11.91015625 -5.40625 8.0703125 C-5.39980469 6.80058594 -5.39335937 5.53085937 -5.38671875 4.22265625 C-5.13701402 -0.3707494 -4.19485011 0.00603204 0 0 Z " fill="#E98607" transform="translate(218.21875,28.8671875)"/>
<path d="M0 0 C1.0725 0.103125 2.145 0.20625 3.25 0.3125 C3.25 3.2825 3.25 6.2525 3.25 9.3125 C2.26 9.6425 1.27 9.9725 0.25 10.3125 C0.25 14.6025 0.25 18.8925 0.25 23.3125 C1.24 23.3125 2.23 23.3125 3.25 23.3125 C3.25 26.6125 3.25 29.9125 3.25 33.3125 C0.0625 33.6875 0.0625 33.6875 -3.75 33.3125 C-8.16865679 29.18201648 -9.52927785 26.13835062 -9.8671875 20.28125 C-10.06941246 13.72017345 -9.33472665 8.12979182 -6.0625 2.3125 C-3.75 0.3125 -3.75 0.3125 0 0 Z " fill="#8B2926" transform="translate(132.75,127.6875)"/>
<path d="M0 0 C0 10.56 0 21.12 0 32 C-2.64 32 -5.28 32 -8 32 C-8.78579793 27.85076942 -9.11854983 23.94706569 -9.09765625 19.7265625 C-9.09443359 18.57285156 -9.09121094 17.41914063 -9.08789062 16.23046875 C-9.07951172 15.04066406 -9.07113281 13.85085937 -9.0625 12.625 C-9.05798828 11.41199219 -9.05347656 10.19898438 -9.04882812 8.94921875 C-9.03708354 5.96609493 -9.0206584 2.98307321 -9 0 C-6 -1 -6 -1 0 0 Z " fill="#8B2926" transform="translate(148,129)"/>
<path d="M0 0 C1.9375 2.625 1.9375 2.625 3 5 C0.51901126 7.84584002 -1.27272207 9.74703376 -4.875 11 C-8.965573 11 -11.48338219 10.06859871 -15 8 C-16 5.4375 -16 5.4375 -16 3 C-15.67 2.34 -15.34 1.68 -15 1 C-14.34 1 -13.68 1 -13 1 C-13 0.34 -13 -0.32 -13 -1 C-8.07255174 -2.20181665 -4.70219344 -1.95185388 0 0 Z " fill="#31296D" transform="translate(105,162)"/>
<path d="M0 0 C2.64 0 5.28 0 8 0 C8 2.31 8 4.62 8 7 C5.03 7 2.06 7 -1 7 C-0.67 4.69 -0.34 2.38 0 0 Z " fill="#892727" transform="translate(140,120)"/>
<path d="M0 0 C1.9453125 -0.29296875 1.9453125 -0.29296875 4.125 -0.1875 C5.40375 -0.125625 6.6825 -0.06375 8 0 C6.7156759 2.86503068 5.58401213 5.15427705 3 7 C-0.1875 7.1875 -0.1875 7.1875 -3 7 C-2.38722388 4.03824877 -1.74627478 2.61941217 0 0 Z " fill="#8B2927" transform="translate(160,120)"/>
<path d="M0 0 C2.625 0.375 2.625 0.375 5 1 C5.5625 2.9375 5.5625 2.9375 6 5 C5 6 5 6 1.9375 6.0625 C0.968125 6.041875 -0.00125 6.02125 -1 6 C-1.625 4.125 -1.625 4.125 -2 2 C-1.34 1.34 -0.68 0.68 0 0 Z " fill="#312A6E" transform="translate(108,170)"/>
</svg>
