<svg version="1.2" xmlns="http://www.w3.org/2000/svg" viewBox="84 115 680 340" width="680" height="340">
	<style>
		.s0 { fill: #fbb41e }
		.s1 { fill: #9b2876 }
	</style>
	<g id="Capa 1">
		<g id="Isologo">
			<path id="&lt;Compound Path&gt;" class="s0" d="m94.23 244.6v-25.86h40.44v25.86zm0 131.93v-119.56h40.44v119.56z"/>
			<g id="&lt;Group&gt;">
				<path id="&lt;Compound Path&gt;" class="s1" d="m268.15 252.78l-15.91 11.27c-9.28-12.38-23.65-19.01-40.44-19.01-15.47 0-29.62 5.75-29.62 21.44 0 15.69 15.25 19.22 34.04 23.64 28.28 6.63 54.36 14.37 54.36 43.98 0 26.96-21.88 45.08-55.91 45.08-27.85 0-48.84-11.93-59.89-30.27l17.02-10.83c10.16 16.13 26.96 22.98 44.42 22.98 19.89 0 33.37-9.28 33.37-25.19 0-17.46-16.8-20.77-39.56-25.86-24.97-5.3-48.62-13.7-48.62-41.54 0-26.52 21.88-41.77 51.49-41.77 22.32 0 42.43 9.06 55.25 26.08z"/>
				<path id="&lt;Compound Path&gt;" fill-rule="evenodd" class="s1" d="m347.03 379.18c-34.91 0-56.57-25.41-56.57-59.89 0-34.91 21.66-60.33 56.57-60.33 34.7 0 56.58 25.42 56.58 60.33 0 34.48-21.88 59.89-56.58 59.89zm0-102.76c-22.98 0-36.24 18.56-36.24 42.87 0 23.87 13.26 42.65 36.24 42.65 22.99 0 36.02-18.78 36.02-42.65 0-24.31-13.03-42.87-36.02-42.87z"/>
				<path id="&lt;Compound Path&gt;" class="s1" d="m525.14 355.09c-9.73 13.92-25.2 24.09-46.41 24.09-34.03 0-55.69-25.85-55.69-60.11 0-34.25 21.66-60.11 55.69-60.11 20.33 0 35.8 9.51 45.74 23.87l-14.36 11.49c-6.85-11.05-17.02-17.9-30.72-17.9-22.32 0-36.02 18.34-36.02 42.65 0 24.53 13.92 42.65 35.8 42.65 14.59 0 24.53-7.29 31.16-17.23z"/>
				<path id="&lt;Compound Path&gt;" class="s1" d="m549 239.07v-20.33h19.22v20.33zm0 137.46v-114.91h19.23v114.91z"/>
				<path id="&lt;Compound Path&gt;" fill-rule="evenodd" class="s1" d="m694.84 378.3c-10.82 0-20.55-5.31-22.31-18.34-10.17 14.58-25.64 19.22-39.56 19.22-23.65 0-39.12-13.04-39.12-34.92 0-26.73 23.43-32.26 39.78-34.47 17.68-2.43 36.47-2.43 36.47-17.02 0-12.81-13.93-16.79-26.08-16.79-12.38 0-25.2 4.2-35.8 12.15l-8.84-14.58c13.48-9.28 27.84-14.59 45.96-14.59 26.08 0 44.42 11.05 44.42 37.57v54.37c0 8.39 2.65 12.37 9.06 12.37 2.65 0 5.31-0.66 6.85-1.77l2.43 14.59c-3.75 1.54-9.5 2.21-13.26 2.21zm-24.3-65.86c-7.74 9.72-19.01 9.5-33.15 11.93-13.04 2.21-23.87 5.31-23.87 19.45 0 13.71 10.61 19.45 23.87 19.45 16.79 0 33.15-9.06 33.15-30.94z"/>
				<path id="&lt;Compound Path&gt;" class="s1" d="m728.43 376.53v-157.79h19.22v157.79z"/>
			</g>
			<g id="&lt;Group&gt;">
				<g id="&lt;Group&gt;">
					<path id="&lt;Compound Path&gt;" class="s1" d="m99.36 160.93v10.46h17.87v4.42h-17.87v16.72h-5.13v-36.28h26.21v4.68z"/>
					<path id="&lt;Compound Path&gt;" class="s1" d="m150.41 164.2v28.33h-4.74v-4.63c-2.39 3.38-5.55 5.29-9.7 5.29-6.1 0-9.91-3.98-9.91-10.68v-18.31h4.74v17.22c0 3.38 0.98 7.35 6.26 7.35 4.91 0 8.61-3.54 8.61-8.82v-15.75z"/>
					<path id="&lt;Compound Path&gt;" class="s1" d="m158.92 192.53v-28.33h4.74v4.69c2.34-3.44 5.55-5.34 9.7-5.34 6.1 0 9.91 3.97 9.91 10.73v18.25h-4.74v-17.16c0-3.38-1.03-7.35-6.32-7.35-4.85 0-8.55 3.54-8.55 8.82v15.69z"/>
					<path id="&lt;Compound Path&gt;" fill-rule="evenodd" class="s1" d="m212.7 192.53v-4.63c-2.67 3.82-6.27 5.29-10.08 5.29-8.07 0-13.03-6.43-13.03-14.77 0-8.44 4.96-14.87 13.03-14.87 3.87 0 7.41 1.52 10.08 5.34v-15.26h4.74v38.9zm-9.21-24.57c-5.94 0-8.88 4.63-8.88 10.41 0 5.77 2.89 10.46 8.88 10.46 6.05 0 9.21-4.69 9.21-10.46 0-5.83-3.22-10.41-9.21-10.41z"/>
					<path id="&lt;Compound Path&gt;" fill-rule="evenodd" class="s1" d="m248.66 192.97c-2.67 0-5.07-1.31-5.5-4.52-2.51 3.59-6.32 4.74-9.76 4.74-5.83 0-9.64-3.22-9.64-8.61 0-6.59 5.78-7.96 9.81-8.5 4.36-0.6 8.99-0.6 8.99-4.2 0-3.16-3.43-4.14-6.43-4.14-3.05 0-6.21 1.04-8.83 3l-2.18-3.6c3.33-2.29 6.87-3.59 11.34-3.59 6.43 0 10.95 2.72 10.95 9.26v13.4c0 2.08 0.65 3.05 2.23 3.05 0.66 0 1.31-0.16 1.69-0.43l0.6 3.6c-0.93 0.38-2.34 0.54-3.27 0.54zm-5.99-16.24c-1.91 2.4-4.69 2.34-8.18 2.94-3.21 0.55-5.88 1.31-5.88 4.8 0 3.38 2.62 4.79 5.88 4.79 4.15 0 8.18-2.23 8.18-7.62z"/>
					<path id="&lt;Compound Path&gt;" class="s1" d="m280.1 187.25c-2.39 3.43-6.21 5.94-11.44 5.94-8.39 0-13.73-6.38-13.73-14.82 0-8.45 5.34-14.82 13.73-14.82 5.01 0 8.83 2.34 11.28 5.88l-3.54 2.83c-1.69-2.72-4.2-4.41-7.57-4.41-5.51 0-8.89 4.52-8.89 10.52 0 6.05 3.44 10.51 8.83 10.51 3.6 0 6.05-1.79 7.68-4.25z"/>
					<path id="&lt;Compound Path&gt;" class="s1" d="m285.99 158.64v-5.01h4.74v5.01zm0 33.89v-28.33h4.74v28.33z"/>
					<path id="&lt;Compound Path&gt;" fill-rule="evenodd" class="s1" d="m311.33 193.19c-8.61 0-13.95-6.27-13.95-14.77 0-8.61 5.34-14.87 13.95-14.87 8.55 0 13.95 6.26 13.95 14.87 0 8.5-5.4 14.77-13.95 14.77zm0-25.34c-5.67 0-8.94 4.58-8.94 10.57 0 5.89 3.27 10.52 8.94 10.52 5.67 0 8.88-4.63 8.88-10.52 0-5.99-3.21-10.57-8.88-10.57zm-4.14-8.39c1.74-1.85 3.81-4.63 4.85-6.54l4.52 0.71c-1.09 2.51-4.41 5.67-7.46 7.41z"/>
				</g>
			</g>
			<g id="&lt;Group&gt;">
				<path id="&lt;Compound Path&gt;" class="s1" d="m94.24 407.26v-5.01h4.74v5.01zm0 33.89v-28.33h4.74v28.33z"/>
				<path id="&lt;Compound Path&gt;" class="s1" d="m107.48 441.15v-28.33h4.74v4.68c2.34-3.43 5.56-5.34 9.7-5.34 6.1 0 9.91 3.98 9.91 10.74v18.25h-4.74v-17.16c0-3.38-1.03-7.36-6.32-7.36-4.85 0-8.55 3.54-8.55 8.83v15.69z"/>
				<path id="&lt;Compound Path&gt;" class="s1" d="m140.01 441.15v-28.33h4.74v4.68c2.34-3.43 5.56-5.34 9.7-5.34 6.1 0 9.91 3.98 9.91 10.74v18.25h-4.74v-17.16c0-3.38-1.03-7.36-6.32-7.36-4.85 0-8.55 3.54-8.55 8.83v15.69z"/>
				<path id="&lt;Compound Path&gt;" fill-rule="evenodd" class="s1" d="m184.63 441.8c-8.61 0-13.95-6.26-13.95-14.76 0-8.61 5.34-14.88 13.95-14.88 8.56 0 13.95 6.27 13.95 14.88 0 8.5-5.39 14.76-13.95 14.76zm0-25.33c-5.66 0-8.93 4.57-8.93 10.57 0 5.88 3.27 10.51 8.93 10.51 5.67 0 8.88-4.63 8.88-10.51 0-6-3.21-10.57-8.88-10.57z"/>
				<path id="&lt;Compound Path&gt;" class="s1" d="m218.03 441.15h-4.95l-11.34-28.33h5.34l8.56 22.66 8.55-22.66h5.18z"/>
				<path id="&lt;Compound Path&gt;" fill-rule="evenodd" class="s1" d="m257.1 441.58c-2.67 0-5.07-1.3-5.5-4.52-2.51 3.6-6.32 4.74-9.76 4.74-5.82 0-9.64-3.21-9.64-8.61 0-6.59 5.78-7.95 9.81-8.5 4.36-0.6 8.99-0.6 8.99-4.19 0-3.16-3.43-4.14-6.43-4.14-3.05 0-6.21 1.03-8.83 2.99l-2.18-3.59c3.33-2.29 6.87-3.6 11.34-3.6 6.43 0 10.95 2.73 10.95 9.26v13.41c0 2.07 0.65 3.05 2.23 3.05 0.66 0 1.31-0.16 1.69-0.44l0.6 3.6c-0.93 0.38-2.34 0.54-3.27 0.54zm-5.99-16.23c-1.91 2.39-4.69 2.34-8.18 2.94-3.21 0.54-5.88 1.31-5.88 4.79 0 3.38 2.62 4.8 5.88 4.8 4.14 0 8.18-2.24 8.18-7.63z"/>
				<path id="&lt;Compound Path&gt;" class="s1" d="m288.54 435.86c-2.4 3.43-6.21 5.94-11.44 5.94-8.39 0-13.73-6.37-13.73-14.82 0-8.44 5.34-14.82 13.73-14.82 5.01 0 8.83 2.34 11.28 5.89l-3.54 2.83c-1.69-2.72-4.2-4.41-7.58-4.41-5.5 0-8.88 4.52-8.88 10.51 0 6.05 3.43 10.52 8.83 10.52 3.59 0 6.05-1.8 7.68-4.25z"/>
				<path id="&lt;Compound Path&gt;" class="s1" d="m294.43 407.26v-5.01h4.74v5.01zm0 33.89v-28.33h4.74v28.33z"/>
				<path id="&lt;Compound Path&gt;" fill-rule="evenodd" class="s1" d="m319.76 441.8c-8.61 0-13.94-6.26-13.94-14.76 0-8.61 5.33-14.88 13.94-14.88 8.56 0 13.95 6.27 13.95 14.88 0 8.5-5.39 14.76-13.95 14.76zm0-25.33c-5.66 0-8.93 4.57-8.93 10.57 0 5.88 3.27 10.51 8.93 10.51 5.67 0 8.88-4.63 8.88-10.51 0-6-3.21-10.57-8.88-10.57zm-4.14-8.39c1.75-1.86 3.82-4.64 4.85-6.54l4.52 0.71c-1.09 2.5-4.41 5.66-7.46 7.41z"/>
				<path id="&lt;Compound Path&gt;" fill-rule="evenodd" class="s1" d="m380.52 428.13h-22.23c0.27 5.88 3.97 9.31 9.53 9.31 3.38 0 6.16-1.31 8.39-3.7l3.16 3.1c-2.89 3.11-6.65 4.96-11.66 4.96-9.21 0-14.49-6.32-14.49-14.71 0-8.34 5.23-14.93 13.89-14.93 8.34 0 13.52 6.21 13.52 14.11 0 0.87-0.06 1.47-0.11 1.86zm-4.8-3.65c-0.49-5.45-4.19-8.23-8.66-8.23-4.96 0-8.28 3.43-8.66 8.23z"/>
				<path id="&lt;Compound Path&gt;" class="s1" d="m387 441.15v-28.33h4.74v4.68c2.35-3.43 5.56-5.34 9.7-5.34 6.1 0 9.92 3.98 9.92 10.74v18.25h-4.74v-17.16c0-3.38-1.04-7.36-6.32-7.36-4.85 0-8.56 3.54-8.56 8.83v15.69z"/>
				<path id="&lt;Compound Path&gt;" class="s1" d="m434.41 441.15v-38.9h4.74v38.9z"/>
				<path id="&lt;Compound Path&gt;" class="s1" d="m450.04 418.26h-2.17l-1.58-11.6v-1.8h5.44v1.8z"/>
				<path id="&lt;Compound Path&gt;" fill-rule="evenodd" class="s1" d="m481.37 441.58c-2.67 0-5.07-1.3-5.5-4.52-2.51 3.6-6.32 4.74-9.75 4.74-5.83 0-9.65-3.21-9.65-8.61 0-6.59 5.78-7.95 9.81-8.5 4.36-0.6 8.99-0.6 8.99-4.19 0-3.16-3.43-4.14-6.43-4.14-3.05 0-6.21 1.03-8.82 2.99l-2.18-3.59c3.32-2.29 6.86-3.6 11.33-3.6 6.43 0 10.95 2.73 10.95 9.26v13.41c0 2.07 0.65 3.05 2.23 3.05 0.66 0 1.31-0.16 1.69-0.44l0.6 3.6c-0.93 0.38-2.34 0.54-3.27 0.54zm-5.99-16.23c-1.91 2.39-4.69 2.34-8.17 2.94-3.22 0.54-5.89 1.31-5.89 4.79 0 3.38 2.62 4.8 5.89 4.8 4.14 0 8.17-2.24 8.17-7.63z"/>
				<path id="&lt;Compound Path&gt;" class="s1" d="m512.81 435.86c-2.4 3.43-6.21 5.94-11.44 5.94-8.39 0-13.73-6.37-13.73-14.82 0-8.44 5.34-14.82 13.73-14.82 5.01 0 8.83 2.34 11.28 5.89l-3.54 2.83c-1.69-2.72-4.2-4.41-7.57-4.41-5.51 0-8.89 4.52-8.89 10.51 0 6.05 3.44 10.52 8.83 10.52 3.6 0 6.05-1.8 7.68-4.25z"/>
				<path id="&lt;Compound Path&gt;" class="s1" d="m542.02 435.86c-2.4 3.43-6.21 5.94-11.44 5.94-8.39 0-13.73-6.37-13.73-14.82 0-8.44 5.34-14.82 13.73-14.82 5.01 0 8.82 2.34 11.28 5.89l-3.55 2.83c-1.69-2.72-4.19-4.41-7.57-4.41-5.5 0-8.88 4.52-8.88 10.51 0 6.05 3.43 10.52 8.82 10.52 3.6 0 6.05-1.8 7.69-4.25z"/>
				<path id="&lt;Compound Path&gt;" class="s1" d="m547.9 407.26v-5.01h4.74v5.01zm0 33.89v-28.33h4.74v28.33z"/>
				<path id="&lt;Compound Path&gt;" fill-rule="evenodd" class="s1" d="m573.24 441.8c-8.61 0-13.95-6.26-13.95-14.76 0-8.61 5.34-14.88 13.95-14.88 8.55 0 13.95 6.27 13.95 14.88 0 8.5-5.4 14.76-13.95 14.76zm0-25.33c-5.67 0-8.94 4.57-8.94 10.57 0 5.88 3.27 10.51 8.94 10.51 5.67 0 8.88-4.63 8.88-10.51 0-6-3.21-10.57-8.88-10.57zm-4.14-8.39c1.74-1.86 3.81-4.64 4.85-6.54l4.52 0.71c-1.09 2.5-4.41 5.66-7.46 7.41z"/>
				<path id="&lt;Compound Path&gt;" class="s1" d="m618.57 441.8c-5.55 0-9.97-2.18-12.53-6.05l3.49-2.61c2.18 2.99 5.45 4.58 9.32 4.58 3.81 0 6.59-1.53 6.59-4.58 0-2.89-2.56-3.43-7.79-4.42-5.56-1.03-10.14-2.67-10.14-8.22 0-5.78 5.12-8.34 10.63-8.34 5.34 0 9.26 2.4 11.49 4.74l-3.16 3c-2.01-2.34-4.95-3.65-8.39-3.65-2.99 0-5.99 1.09-5.99 3.81 0 2.89 3.21 3.54 7.03 4.25 5.66 1.09 11.06 2.4 11.06 8.45 0 5.39-4.31 9.04-11.61 9.04z"/>
				<path id="&lt;Compound Path&gt;" fill-rule="evenodd" class="s1" d="m648.87 441.8c-8.61 0-13.95-6.26-13.95-14.76 0-8.61 5.34-14.88 13.95-14.88 8.55 0 13.95 6.27 13.95 14.88 0 8.5-5.4 14.76-13.95 14.76zm0-25.33c-5.67 0-8.94 4.57-8.94 10.57 0 5.88 3.27 10.51 8.94 10.51 5.67 0 8.88-4.63 8.88-10.51 0-6-3.21-10.57-8.88-10.57z"/>
				<path id="&lt;Compound Path&gt;" class="s1" d="m692.78 435.86c-2.39 3.43-6.21 5.94-11.44 5.94-8.39 0-13.73-6.37-13.73-14.82 0-8.44 5.34-14.82 13.73-14.82 5.02 0 8.83 2.34 11.28 5.89l-3.54 2.83c-1.69-2.72-4.2-4.41-7.57-4.41-5.5 0-8.88 4.52-8.88 10.51 0 6.05 3.43 10.52 8.82 10.52 3.6 0 6.05-1.8 7.68-4.25z"/>
				<path id="&lt;Compound Path&gt;" class="s1" d="m698.67 407.26v-5.01h4.74v5.01zm0 33.89v-28.33h4.74v28.33z"/>
				<path id="&lt;Compound Path&gt;" fill-rule="evenodd" class="s1" d="m734.63 441.58c-2.67 0-5.07-1.3-5.5-4.52-2.51 3.6-6.32 4.74-9.75 4.74-5.83 0-9.64-3.21-9.64-8.61 0-6.59 5.77-7.95 9.8-8.5 4.36-0.6 8.99-0.6 8.99-4.19 0-3.16-3.43-4.14-6.43-4.14-3.05 0-6.21 1.03-8.82 2.99l-2.18-3.59c3.32-2.29 6.86-3.6 11.33-3.6 6.43 0 10.95 2.73 10.95 9.26v13.41c0 2.07 0.65 3.05 2.23 3.05 0.66 0 1.31-0.16 1.69-0.44l0.6 3.6c-0.93 0.38-2.34 0.54-3.27 0.54zm-5.99-16.23c-1.91 2.39-4.69 2.34-8.17 2.94-3.22 0.54-5.89 1.31-5.89 4.79 0 3.38 2.62 4.8 5.89 4.8 4.14 0 8.17-2.24 8.17-7.63z"/>
				<path id="&lt;Compound Path&gt;" class="s1" d="m742.91 441.15v-38.9h4.75v38.9z"/>
			</g>
		</g>
	</g>
</svg>
