<?xml version="1.0" encoding="UTF-8"?>
<svg version="1.1" xmlns="http://www.w3.org/2000/svg" width="834" height="213" viewBox="0 0 834 213">
<path d="M0 0 C275.22 0 550.44 0 834 0 C834 70.29 834 140.58 834 213 C558.78 213 283.56 213 0 213 C0 142.71 0 72.42 0 0 Z " fill="#FDFEFE" transform="translate(0,0)"/>
<path d="M0 0 C52.8 0 105.6 0 160 0 C160 35.31 160 70.62 160 107 C107.2 107 54.4 107 0 107 C0 71.69 0 36.38 0 0 Z " fill="#003499" transform="translate(347,53)"/>
<path d="M0 0 C1.16402344 0.25716797 1.16402344 0.25716797 2.3515625 0.51953125 C4.375 1.1875 4.375 1.1875 6.375 3.1875 C6.705 2.1975 7.035 1.2075 7.375 0.1875 C10.675 0.1875 13.975 0.1875 17.375 0.1875 C17.46307085 4.47903445 17.51574921 8.77033224 17.5625 13.0625 C17.58763672 14.26648438 17.61277344 15.47046875 17.63867188 16.7109375 C17.77194374 33.05895301 17.77194374 33.05895301 12.99316406 38.86694336 C6.97480226 44.21754279 0.00687116 43.6153624 -7.625 43.1875 C-10.10564368 42.71124954 -12.24417292 42.0532553 -14.625 41.1875 C-15.55565133 38.58167629 -15.77417407 37.54551776 -14.6875 34.9375 C-14.336875 34.36 -13.98625 33.7825 -13.625 33.1875 C-12.57699219 33.42533203 -12.57699219 33.42533203 -11.5078125 33.66796875 C-8.46787324 34.21581688 -5.58746908 34.42648883 -2.5 34.5 C-0.94925781 34.55607422 -0.94925781 34.55607422 0.6328125 34.61328125 C3.47567893 34.44452676 3.47567893 34.44452676 5.2421875 32.35546875 C6.60655584 30.15203158 6.60655584 30.15203158 6.375 27.1875 C5.83746094 27.67347656 5.29992187 28.15945312 4.74609375 28.66015625 C0.39916818 31.46023516 -4.64052391 30.80202445 -9.625 30.1875 C-13.67071561 27.95822813 -15.53207317 25.24545258 -17.625 21.1875 C-18.45385269 15.63941396 -18.3490695 10.71609117 -15.9375 5.625 C-11.25041701 0.68456117 -6.70062475 -1.55750308 0 0 Z " fill="#A3B0E5" transform="translate(275.625,62.8125)"/>
<path d="M0 0 C4.38118201 2.48326106 7.42338864 5.84677729 9.6875 10.375 C10.46450465 16.96843949 10.19513796 22.23920278 6.25390625 27.71875 C2.30671598 31.89233772 -2.78925711 34.1770986 -8.5 34.625 C-14.95381776 34.20179884 -19.54908355 32.54741025 -24.3125 28.0625 C-28.16449826 23.29167646 -28.19064328 18.61661476 -27.859375 12.66015625 C-26.93643885 7.11594693 -25.00120058 4.36022681 -20.55078125 1.07421875 C-14.07977344 -2.74538221 -6.85031097 -3.0703842 0 0 Z " fill="#07379A" transform="translate(114.3125,126.625)"/>
<path d="M0 0 C3.34125 -0.0825 6.6825 -0.165 10.125 -0.25 C11.16672363 -0.28641602 12.20844727 -0.32283203 13.28173828 -0.36035156 C19.03826195 -0.42900024 22.52067768 0.00907731 27 4 C29.15522372 6.23155456 29.92848011 7.3127386 30.25 10.40234375 C29.81413376 14.82229989 29.4695376 17.37394986 26.75 21 C22.24917304 24.2733287 18.73600618 25.25869894 13.1875 25.125 C11.72376953 25.09792969 11.72376953 25.09792969 10.23046875 25.0703125 C9.49441406 25.04710937 8.75835937 25.02390625 8 25 C8 27.97 8 30.94 8 34 C5.36 34 2.72 34 0 34 C0 22.78 0 11.56 0 0 Z " fill="#013399" transform="translate(53,126)"/>
<path d="M0 0 C2.64 0 5.28 0 8 0 C11.70967477 7.22163336 15.08539655 14.55136714 18.3125 22 C18.76689453 23.03511719 19.22128906 24.07023437 19.68945312 25.13671875 C20.11806641 26.12285156 20.54667969 27.10898438 20.98828125 28.125 C21.56896362 29.45917969 21.56896362 29.45917969 22.16137695 30.8203125 C23 33 23 33 23 35 C20.36 35 17.72 35 15 35 C14.01 33.02 13.02 31.04 12 29 C6.72 29 1.44 29 -4 29 C-4.99 30.98 -5.98 32.96 -7 35 C-9.64 35 -12.28 35 -15 35 C-12.60564599 27.14483861 -9.30109532 19.86257862 -5.8125 12.4375 C-5.24760008 11.22611971 -4.68314371 10.01453248 -4.11914062 8.80273438 C-2.75042601 5.86643209 -1.377291 2.93228668 0 0 Z " fill="#0D3B9D" transform="translate(271,125)"/>
<path d="M0 0 C3.46236126 2.39067801 5.74528805 5.0530761 7.625 8.8125 C7.70949628 10.5529417 7.73223024 12.29659722 7.72265625 14.0390625 C7.71943359 15.0703125 7.71621094 16.1015625 7.71289062 17.1640625 C7.70451172 18.24429688 7.69613281 19.32453125 7.6875 20.4375 C7.68298828 21.52546875 7.67847656 22.6134375 7.67382812 23.734375 C7.66201776 26.42713789 7.64554778 29.11979188 7.625 31.8125 C4.655 31.8125 1.685 31.8125 -1.375 31.8125 C-1.38958252 31.15652832 -1.40416504 30.50055664 -1.41918945 29.82470703 C-1.49351414 26.86169969 -1.59022369 23.89983883 -1.6875 20.9375 C-1.71005859 19.90496094 -1.73261719 18.87242188 -1.75585938 17.80859375 C-1.79130859 16.82246094 -1.82675781 15.83632812 -1.86328125 14.8203125 C-1.88946533 13.90910645 -1.91564941 12.99790039 -1.94262695 12.05908203 C-2.08531006 11.31770996 -2.22799316 10.57633789 -2.375 9.8125 C-5.76069507 7.07379589 -5.76069507 7.07379589 -12.375 8.8125 C-12.705 16.4025 -13.035 23.9925 -13.375 31.8125 C-16.675 31.8125 -19.975 31.8125 -23.375 31.8125 C-23.48345173 28.29083127 -23.56253575 24.77253767 -23.625 21.25 C-23.65851563 20.25935547 -23.69203125 19.26871094 -23.7265625 18.24804688 C-23.81194455 11.82304791 -23.19475722 8.03514988 -19.375 2.8125 C-13.66328932 -2.49123135 -7.08595419 -2.4932061 0 0 Z " fill="#A3B1E5" transform="translate(94.375,64.1875)"/>
<path d="M0 0 C8.58 0 17.16 0 26 0 C26 2.31 26 4.62 26 7 C20.06 7 14.12 7 8 7 C8 9.31 8 11.62 8 14 C13.28 14 18.56 14 24 14 C24 16.31 24 18.62 24 21 C18.72 21 13.44 21 8 21 C8 23.31 8 25.62 8 28 C13.94 28 19.88 28 26 28 C26 30.31 26 32.62 26 35 C17.42 35 8.84 35 0 35 C0 23.45 0 11.9 0 0 Z " fill="#0F3E9E" transform="translate(198,125)"/>
<path d="M0 0 C3.0742649 0.070895 6.01061887 0.25132728 9 1 C11 3.5 11 3.5 12 6 C13.2224093 7.44244751 13.2224093 7.44244751 16.875 7.25 C20.06686195 7.3424543 20.06686195 7.3424543 22.5 5.5 C24.44407469 3.55592531 25.36394091 3.7693099 28.0625 3.75 C32 4 32 4 34 5 C34.56886257 19.20049517 34.56886257 19.20049517 31 24 C25.36759613 29.34356265 20.4762684 29.21374705 12.99609375 29.16796875 C9.34566512 28.9633163 6.42259944 28.24458162 3 27 C2.06934867 24.39417629 1.85082593 23.35801776 2.9375 20.75 C3.288125 20.1725 3.63875 19.595 4 19 C5.04800781 19.23783203 5.04800781 19.23783203 6.1171875 19.48046875 C9.15712676 20.02831688 12.03753092 20.23898883 15.125 20.3125 C16.67574219 20.36857422 16.67574219 20.36857422 18.2578125 20.42578125 C21.10067893 20.25702676 21.10067893 20.25702676 22.8671875 18.16796875 C24.23155584 15.96453158 24.23155584 15.96453158 24 13 C23.46246094 13.48597656 22.92492187 13.97195312 22.37109375 14.47265625 C18.02416818 17.27273516 12.98447609 16.61452445 8 16 C4.05044691 13.82371564 1.82057651 11.12025209 0 7 C-0.1875 3.1875 -0.1875 3.1875 0 0 Z " fill="#053599" transform="translate(258,77)"/>
<path d="M0 0 C1.93451767 1.2017977 3.74416818 2.44673369 5.51953125 3.87109375 C4.14969622 7.03225151 3.53046745 7.86380295 0.51953125 9.87109375 C-0.34671875 9.37609375 -1.21296875 8.88109375 -2.10546875 8.37109375 C-5.70147783 6.77286749 -7.60929516 6.29453598 -11.48046875 6.87109375 C-14.18037537 8.67103149 -16.02235525 9.95486675 -17.48046875 12.87109375 C-18.06167574 18.72658406 -18.06167574 18.72658406 -15.54296875 23.87109375 C-11.41536631 26.56667085 -8.27899599 26.55659764 -3.48046875 25.87109375 C-0.54966201 25.00455961 -0.54966201 25.00455961 1.51953125 23.87109375 C3.16953125 25.52109375 4.81953125 27.17109375 6.51953125 28.87109375 C1.33746326 33.44350668 -3.39098286 35.39797095 -10.3984375 35.18359375 C-15.69716679 34.38828729 -19.93303635 31.82427735 -23.41796875 27.80859375 C-27.15840563 22.48130486 -27.22336512 17.1943512 -26.48046875 10.87109375 C-24.81162851 6.16090915 -22.15702995 2.9113161 -17.85546875 0.37109375 C-12.1351275 -2.03576681 -5.72302355 -2.60465166 0 0 Z " fill="#07379B" transform="translate(154.48046875,126.12890625)"/>
<path d="M0 0 C2.97 0 5.94 0 9 0 C9 2.64 9 5.28 9 8 C11.64 8 14.28 8 17 8 C17 10.64 17 13.28 17 16 C14.36 16 11.72 16 9 16 C9.33 21.28 9.66 26.56 10 32 C12.31 32 14.62 32 17 32 C17 34.64 17 37.28 17 40 C13.85730785 42.0951281 10.8153147 42.32947365 7.09765625 42.55859375 C3.4791381 41.59500326 2.17649068 40.02457153 0 37 C-0.60446268 33.37433986 -0.47238626 29.85012527 -0.3125 26.1875 C-0.28994141 25.20845703 -0.26738281 24.22941406 -0.24414062 23.22070312 C-0.18539727 20.81222545 -0.10332129 18.40690922 0 16 C-1.32 16 -2.64 16 -4 16 C-4 13.36 -4 10.72 -4 8 C-2.68 8 -1.36 8 0 8 C0 5.36 0 2.72 0 0 Z " fill="#9FAEE4" transform="translate(111,55)"/>
<path d="M0 0 C1.37478516 0.01740234 1.37478516 0.01740234 2.77734375 0.03515625 C3.69644531 0.04417969 4.61554688 0.05320312 5.5625 0.0625 C6.27277344 0.07410156 6.98304688 0.08570312 7.71484375 0.09765625 C7.38484375 1.41765625 7.05484375 2.73765625 6.71484375 4.09765625 C11.00484375 4.09765625 15.29484375 4.09765625 19.71484375 4.09765625 C19.38484375 2.77765625 19.05484375 1.45765625 18.71484375 0.09765625 C22.01484375 0.09765625 25.31484375 0.09765625 28.71484375 0.09765625 C28.71484375 3.39765625 28.71484375 6.69765625 28.71484375 10.09765625 C21.45484375 10.09765625 14.19484375 10.09765625 6.71484375 10.09765625 C8.21484375 14.09765625 8.21484375 14.09765625 10.71484375 15.09765625 C15.27031458 15.35551309 18.59290735 15.09617087 22.71484375 13.09765625 C24.03484375 14.41765625 25.35484375 15.73765625 26.71484375 17.09765625 C25.71631573 19.99338749 24.75390219 21.07031534 22.21484375 22.84765625 C16.8764312 24.75423216 11.81950155 25.2938001 6.43359375 23.21875 C1.73986652 20.565393 -1.75357214 17.36552515 -3.28515625 12.09765625 C-3.63381059 8.39888845 -3.67529269 4.79435892 -3.28515625 1.09765625 C-2.28515625 0.09765625 -2.28515625 0.09765625 0 0 Z " fill="#043599" transform="translate(136.28515625,72.90234375)"/>
<path d="M0 0 C8.58 0 17.16 0 26 0 C26 1.98 26 3.96 26 6 C20.06 6 14.12 6 8 6 C8 8.97 8 11.94 8 15 C13.28 15 18.56 15 24 15 C24 17.31 24 19.62 24 22 C19.05 22 14.1 22 9 22 C9 25.96 9 29.92 9 34 C6.03 34 3.06 34 0 34 C0 22.78 0 11.56 0 0 Z " fill="#1B48A3" transform="translate(230,126)"/>
<path d="M0 0 C1.23556641 0.01740234 1.23556641 0.01740234 2.49609375 0.03515625 C3.32238281 0.04417969 4.14867187 0.05320312 5 0.0625 C5.63808594 0.07410156 6.27617187 0.08570312 6.93359375 0.09765625 C6.93359375 1.08765625 6.93359375 2.07765625 6.93359375 3.09765625 C14.52359375 2.76765625 22.11359375 2.43765625 29.93359375 2.09765625 C29.93359375 4.40765625 29.93359375 6.71765625 29.93359375 9.09765625 C22.34359375 9.09765625 14.75359375 9.09765625 6.93359375 9.09765625 C8.43359375 13.09765625 8.43359375 13.09765625 10.93359375 14.09765625 C15.48906458 14.35551309 18.81165735 14.09617087 22.93359375 12.09765625 C24.58359375 13.74765625 26.23359375 15.39765625 27.93359375 17.09765625 C22.43016572 21.97569473 18.74801114 23.55608981 11.3125 23.43359375 C6.34020733 22.73143091 2.59497739 20.25043505 -0.453125 16.30078125 C-3.23212311 11.42534596 -3.8059735 6.63834862 -3.06640625 1.09765625 C-2.06640625 0.09765625 -2.06640625 0.09765625 0 0 Z " fill="#09389B" transform="translate(224.06640625,73.90234375)"/>
<path d="M0 0 C9.9 0 19.8 0 30 0 C30 2.31 30 4.62 30 7 C26.37 7 22.74 7 19 7 C19 16.24 19 25.48 19 35 C16.36 35 13.72 35 11 35 C11 25.76 11 16.52 11 7 C7.37 7 3.74 7 0 7 C0 4.69 0 2.38 0 0 Z " fill="#1341A0" transform="translate(163,125)"/>
<path d="M0 0 C0.66 0.33 1.32 0.66 2 1 C2 1.99 2 2.98 2 4 C3.98 3.67 5.96 3.34 8 3 C9.98 8.28 11.96 13.56 14 19 C12.68 19 11.36 19 10 19 C9.67 18.34 9.34 17.68 9 17 C6.67843403 16.59270772 4.3431213 16.25561323 2 16 C2 17.32 2 18.64 2 20 C-0.81256281 20.02684312 -3.62487241 20.04676188 -6.4375 20.0625 C-7.23994141 20.07087891 -8.04238281 20.07925781 -8.86914062 20.08789062 C-10.91295221 20.0965143 -12.95683902 20.0522815 -15 20 C-16 19 -16 19 -16.09765625 15.40234375 C-16.0909822 13.91403133 -16.07902183 12.42573568 -16.0625 10.9375 C-16.05798828 10.17888672 -16.05347656 9.42027344 -16.04882812 8.63867188 C-16.0370068 6.75908129 -16.01907078 4.87953101 -16 3 C-13.89590361 2.97298592 -11.79170822 2.95359777 -9.6875 2.9375 C-8.51574219 2.92589844 -7.34398437 2.91429688 -6.13671875 2.90234375 C-3 3 -3 3 0 4 C0 2.68 0 1.36 0 0 Z " fill="#F9FBFB" transform="translate(735,76)"/>
<path d="M0 0 C1.98 0.99 1.98 0.99 4 2 C4 36.65 4 71.3 4 107 C2.68 107 1.36 107 0 107 C0 71.69 0 36.38 0 0 Z " fill="#013299" transform="translate(347,53)"/>
<path d="M0 0 C2.97 0 5.94 0 9 0 C10.19388403 28.93263641 10.19388403 28.93263641 10 43 C6.7 43 3.4 43 0 43 C0 28.81 0 14.62 0 0 Z " fill="#9BABE2" transform="translate(53,53)"/>
<path d="M0 0 C3.16115776 1.36983503 3.9927092 1.9890638 6 5 C6.3328052 10.03474534 5.7948813 13.94015827 2.75 18 C-1.75082696 21.2733287 -5.26399382 22.25869894 -10.8125 22.125 C-12.27623047 22.09792969 -12.27623047 22.09792969 -13.76953125 22.0703125 C-14.50558594 22.04710937 -15.24164063 22.02390625 -16 22 C-15.505 20.515 -15.505 20.515 -15 19 C-15.32238793 17.66397795 -15.65778908 16.33108248 -16 15 C-16.06743348 12.91765408 -16.08514472 10.83331443 -16.0625 8.75 C-16.04896484 7.13351563 -16.04896484 7.13351563 -16.03515625 5.484375 C-16.02355469 4.66453125 -16.01195312 3.8446875 -16 3 C-11.1666528 2.91666643 -6.76307437 3.04738513 -2 4 C-2 3.34 -2 2.68 -2 2 C-1.34 2 -0.68 2 0 2 C0 1.34 0 0.68 0 0 Z " fill="#12409F" transform="translate(77,129)"/>
<path d="M0 0 C3.50290345 3.06504052 4.82221283 4.89376872 5.5625 9.5 C4.9051093 13.59043104 3.59081908 15.79957644 1 19 C-2.45739557 20.72869779 -6.21975568 20.48966895 -10 20 C-12.87029869 18.20606332 -14.49131638 17.01736724 -16 14 C-16.42074378 10.94059163 -16.47999423 8.0540292 -16 5 C-11.6035991 -0.70343901 -6.91186866 -2.16500166 0 0 Z " fill="#F7F9FB" transform="translate(111,133)"/>
<path d="M0 0 C4.59472906 1.79793746 7.18345766 5.05684072 10 9 C10 10.32 10 11.64 10 13 C2.66236293 14.17402193 -4.58165418 14.09377123 -12 14 C-12 13.01 -12 12.02 -12 11 C-14.97 11 -17.94 11 -21 11 C-16.59838967 0.80679714 -10.33352203 -0.80988417 0 0 Z " fill="#A1AFE5" transform="translate(243,63)"/>
<path d="M0 0 C0.66 0.66 1.32 1.32 2 2 C4.06874034 2.6425235 4.06874034 2.6425235 6 3 C6 3.66 6 4.32 6 5 C5.01 5.495 5.01 5.495 4 6 C4 7.32 4 8.64 4 10 C3.2575 10 2.515 10 1.75 10 C-1.08064902 10.70147946 -1.08064902 10.70147946 -2.08203125 12.8125 C-2.72848229 14.2547812 -3.33907759 15.71374861 -3.91015625 17.1875 C-5 19 -5 19 -7.12109375 19.75 C-8.05115234 19.87375 -8.05115234 19.87375 -9 20 C-8.67 21.32 -8.34 22.64 -8 24 C-8.66 24 -9.32 24 -10 24 C-10.50559908 25.43554025 -11.0042749 26.8735202 -11.5 28.3125 C-11.7784375 29.11300781 -12.056875 29.91351563 -12.34375 30.73828125 C-13.13933107 33.08769422 -13.13933107 33.08769422 -13 36 C-14 38.1875 -14 38.1875 -15 40 C-16.65 40 -18.3 40 -20 40 C-20.66 38.02 -21.32 36.04 -22 34 C-21.34 34 -20.68 34 -20 34 C-20 32.68 -20 31.36 -20 30 C-18.02 29.67 -16.04 29.34 -14 29 C-13.67 26.69 -13.34 24.38 -13 22 C-13.66 22 -14.32 22 -15 22 C-15.66 20.35 -16.32 18.7 -17 17 C-16.01 16.67 -15.02 16.34 -14 16 C-13.67 15.01 -13.34 14.02 -13 13 C-12.34 13 -11.68 13 -11 13 C-11 12.34 -11 11.68 -11 11 C-10.34 10.67 -9.68 10.34 -9 10 C-8.855625 9.34 -8.71125 8.68 -8.5625 8 C-8.376875 7.34 -8.19125 6.68 -8 6 C-7.01 5.67 -6.02 5.34 -5 5 C-5 4.34 -5 3.68 -5 3 C-4.360625 2.87625 -3.72125 2.7525 -3.0625 2.625 C-2.381875 2.41875 -1.70125 2.2125 -1 2 C-0.67 1.34 -0.34 0.68 0 0 Z " fill="#053496" transform="translate(409,71)"/>
<path d="M0 0 C3.98126656 1.99063328 6.70093269 4.16822114 9 8 C9 8.66 9 9.32 9 10 C6.36 10.33 3.72 10.66 1 11 C1 11.99 1 12.98 1 14 C-3.29 14 -7.58 14 -12 14 C-12 13.01 -12 12.02 -12 11 C-14.97 10.67 -17.94 10.34 -21 10 C-15.83161771 0.69691187 -10.33954536 -1.07980946 0 0 Z " fill="#A0AEE4" transform="translate(155,63)"/>
<path d="M0 0 C0.66 0.33 1.32 0.66 2 1 C2 1.99 2 2.98 2 4 C2.99 4 3.98 4 5 4 C6.50605402 7.28893003 8.00380532 10.58157446 9.5 13.875 C9.92925781 14.81214844 10.35851562 15.74929687 10.80078125 16.71484375 C11.20683594 17.61074219 11.61289062 18.50664062 12.03125 19.4296875 C12.40830078 20.25710449 12.78535156 21.08452148 13.17382812 21.93701172 C14 24 14 24 14 26 C11.36 26 8.72 26 6 26 C5.01 24.02 4.02 22.04 3 20 C-2.61 19.67 -8.22 19.34 -14 19 C-12 14 -12 14 -10.375 13.1875 C-6.90524846 12.91357225 -3.48067063 12.94198882 0 13 C-0.515625 11.948125 -1.03125 10.89625 -1.5625 9.8125 C-2.97643706 6.52442938 -3.32016935 4.45275062 -2 1 C-1.34 0.67 -0.68 0.34 0 0 Z " fill="#12409E" transform="translate(280,134)"/>
<path d="M0 0 C1.60407328 -0.02708567 3.2082785 -0.04643483 4.8125 -0.0625 C5.70582031 -0.07410156 6.59914063 -0.08570312 7.51953125 -0.09765625 C10 0 10 0 13 1 C13 1.99 13 2.98 13 4 C14.918125 3.938125 14.918125 3.938125 16.875 3.875 C19.0546875 3.8046875 19.0546875 3.8046875 21 4 C23 6 23 6 23.1953125 8.3828125 C23.17210937 9.28773437 23.14890625 10.19265625 23.125 11.125 C23.10695313 12.03507813 23.08890625 12.94515625 23.0703125 13.8828125 C23.04710937 14.58148438 23.02390625 15.28015625 23 16 C22.01 16 21.02 16 20 16 C20 13.03 20 10.06 20 7 C19.01 7.33 18.02 7.66 17 8 C16.67 10.97 16.34 13.94 16 17 C12.7 17 9.4 17 6 17 C6 12.05 6 7.1 6 2 C5.01 2 4.02 2 3 2 C3 2.99 3 3.98 3 5 C3.66 5 4.32 5 5 5 C5 5.66 5 6.32 5 7 C4.34 7 3.68 7 3 7 C3 9.97 3 12.94 3 16 C1.68 16 0.36 16 -1 16 C-1 13.03 -1 10.06 -1 7 C-1.66 7 -2.32 7 -3 7 C-3 6.01 -3 5.02 -3 4 C-2.34 4 -1.68 4 -1 4 C-0.67 2.68 -0.34 1.36 0 0 Z " fill="#FDFDFC" transform="translate(569,117)"/>
<path d="M0 0 C2.97 0 5.94 0 9 0 C9.33 4.29 9.66 8.58 10 13 C12.31 13 14.62 13 17 13 C17 15.64 17 18.28 17 21 C13.85730785 23.0951281 10.8153147 23.32947365 7.09765625 23.55859375 C3.5470269 22.61308165 2.16690421 20.92158464 0 18 C-0.59224401 14.86748474 -0.47530619 11.86096839 -0.3125 8.6875 C-0.28994141 7.85154297 -0.26738281 7.01558594 -0.24414062 6.15429688 C-0.1855061 4.10208851 -0.09583215 2.05080798 0 0 Z " fill="#09399C" transform="translate(111,74)"/>
<path d="M0 0 C4.62 0 9.24 0 14 0 C12.515 2.475 12.515 2.475 11 5 C10.51085008 7.20435488 10.51085008 7.20435488 10.48828125 9.42578125 C10.45283203 10.22177734 10.41738281 11.01777344 10.38085938 11.83789062 C10.34702148 13.06282227 10.34702148 13.06282227 10.3125 14.3125 C10.27833984 15.14845703 10.24417969 15.98441406 10.20898438 16.84570312 C10.12694539 18.89667772 10.0617849 20.94831538 10 23 C6.7 23 3.4 23 0 23 C0 15.41 0 7.82 0 0 Z " fill="#0A3B9C" transform="translate(172,73)"/>
<path d="M0 0 C4.62 0 9.24 0 14 0 C13.35546875 0.80695313 12.7109375 1.61390625 12.046875 2.4453125 C9.39202131 6.42759304 9.33718732 10.19858938 9.25 14.875 C9.22035156 15.65875 9.19070312 16.4425 9.16015625 17.25 C9.090054 19.16612807 9.04269342 21.08306537 9 23 C6.03 23 3.06 23 0 23 C0 15.41 0 7.82 0 0 Z " fill="#023499" transform="translate(198,73)"/>
<path d="M0 0 C3.8425303 0.72047443 5.45767292 1.57152696 8 4.5625 C8.81653107 8.32162419 8.45215366 11.46037544 7 15 C3.91233793 17.41223599 0.8824256 17.99304136 -3 17.5625 C-6 15.5625 -6 15.5625 -8 12.5625 C-8.625 9.0625 -8.625 9.0625 -8 5.5625 C-5.54999553 2.17572911 -4.13607554 0.77551416 0 0 Z " fill="#14419F" transform="translate(596,142.4375)"/>
<path d="M0 0 C8.25 0 16.5 0 25 0 C25 1.98 25 3.96 25 6 C19.06 6 13.12 6 7 6 C7 8.64 7 11.28 7 14 C6.01 14.495 6.01 14.495 5 15 C5 15.33 5 15.66 5 16 C3.35 16 1.7 16 0 16 C0 10.72 0 5.44 0 0 Z " fill="#013298" transform="translate(231,126)"/>
<path d="M0 0 C2.875 1.5 2.875 1.5 5 4 C5.79601977 9.01492456 5.77842337 10.84415924 2.9375 15.0625 C0 17 0 17 -3.625 17 C-6.95352525 16.01377029 -7.9658637 15.6498096 -10 13 C-10.86672198 8.76008978 -10.70069294 5.10493887 -8.375 1.4375 C-5.25576511 -0.45045796 -3.59388548 -0.58675681 0 0 Z " fill="#0A399A" transform="translate(685,143)"/>
<path d="M0 0 C2.19140625 1.21484375 2.19140625 1.21484375 4 3 C4.49609375 5.375 4.49609375 5.375 4.4375 8 C4.43621094 8.86625 4.43492187 9.7325 4.43359375 10.625 C3.91612718 13.45941148 3.35749842 14.36707794 1 16 C-2.05200961 16.61371932 -4.9325386 16.49696302 -8 16 C-10.4395583 14.22577578 -10.8366175 13.02218795 -11.3046875 10.09375 C-11.5294052 6.55114162 -11.34460456 4.55136729 -9.4375 1.5 C-6.0761612 -0.56851618 -3.88040089 -0.48505011 0 0 Z " fill="#0C399C" transform="translate(698,79)"/>
<path d="M0 0 C2.4375 1.5 2.4375 1.5 4 4 C4.6799589 7.77068116 4.4051456 10.91961173 3.0625 14.5 C0.1463895 16.62080763 -2.31248036 16.4394792 -5.84375 16.43359375 C-8.52635718 15.89415644 -9.41907995 15.22022628 -11 13 C-11.86106961 8.78774056 -11.68195258 5.11840224 -9.4375 1.4375 C-6.04481874 -0.56331202 -3.87285839 -0.55326548 0 0 Z " fill="#0B399C" transform="translate(612,79)"/>
<path d="M0 0 C3.3 0 6.6 0 10 0 C10.33 1.32 10.66 2.64 11 4 C11.556875 3.34 12.11375 2.68 12.6875 2 C15 0 15 0 17.75 -0.25 C18.4925 -0.1675 19.235 -0.085 20 0 C20.02689216 1.47906892 20.04634621 2.95827483 20.0625 4.4375 C20.07410156 5.26121094 20.08570313 6.08492188 20.09765625 6.93359375 C20 9 20 9 19 10 C17.65732587 10.08631874 16.31025678 10.10706473 14.96484375 10.09765625 C13.87224243 10.09390991 13.87224243 10.09390991 12.75756836 10.09008789 C11.8269458 10.08098389 10.89632324 10.07187988 9.9375 10.0625 C5.5134375 10.0315625 5.5134375 10.0315625 1 10 C1 17.59 1 25.18 1 33 C0.67 33 0.34 33 0 33 C0 22.11 0 11.22 0 0 Z " fill="#9FAEE3" transform="translate(197,63)"/>
<path d="M0 0 C1.65 0.99 3.3 1.98 5 3 C5.66 2.01 6.32 1.02 7 0 C7.9821994 3.27626375 8.11580914 6.22788119 8.09765625 9.640625 C8.09443359 10.71054688 8.09121094 11.78046875 8.08789062 12.8828125 C8.07951172 13.99398437 8.07113281 15.10515625 8.0625 16.25 C8.05798828 17.37664062 8.05347656 18.50328125 8.04882812 19.6640625 C8.03705397 22.44276217 8.0206084 25.22135409 8 28 C5.36 28 2.72 28 0 28 C0 18.76 0 9.52 0 0 Z " fill="#003398" transform="translate(174,132)"/>
<path d="M0 0 C3.3 0 6.6 0 10 0 C10 8.91 10 17.82 10 27 C9.67 27 9.34 27 9 27 C9 24.36 9 21.72 9 19 C5.7 18.67 2.4 18.34 -1 18 C-0.95875 17.113125 -0.9175 16.22625 -0.875 15.3125 C-0.99897246 12.02722987 -1.61387904 9.94550705 -3 7 C-2.34 6.34 -1.68 5.68 -1 5 C-0.35232207 2.42938689 -0.35232207 2.42938689 0 0 Z " fill="#A2B1E4" transform="translate(283,63)"/>
<path d="M0 0 C3.3 0 6.6 0 10 0 C10.33 0.99 10.66 1.98 11 3 C11.556875 2.505 12.11375 2.01 12.6875 1.5 C15 0 15 0 20 0 C20 3.3 20 6.6 20 10 C15.38034912 10.95946595 11.31870875 10.96102244 6.625 10.5625 C5.37976563 10.46066406 4.13453125 10.35882813 2.8515625 10.25390625 C1.91054687 10.17011719 0.96953125 10.08632812 0 10 C0 6.7 0 3.4 0 0 Z " fill="#9CACE2" transform="translate(172,63)"/>
<path d="M0 0 C2.5625 1.5 2.5625 1.5 4 4 C4.17653346 6.97753111 3.72092432 9.02017948 3 12 C-0.6899492 14.45996614 -3.71659713 14.67949564 -8 14 C-10.5625 12.4375 -10.5625 12.4375 -12 10 C-11.93957505 6.55577787 -11.60093625 4.09582493 -9.9375 1.0625 C-6.73175423 -0.69548961 -3.50613352 -0.6125173 0 0 Z " fill="#F8FAFB" transform="translate(279,71)"/>
<path d="M0 0 C8.58 0 17.16 0 26 0 C26 2.31 26 4.62 26 7 C20.06 7 14.12 7 8 7 C8 9.31 8 11.62 8 14 C7.67 14 7.34 14 7 14 C6.95101562 13.36191406 6.90203125 12.72382813 6.8515625 12.06640625 C6.77679688 11.24011719 6.70203125 10.41382813 6.625 9.5625 C6.52058594 8.32693359 6.52058594 8.32693359 6.4140625 7.06640625 C6.27742187 6.38449219 6.14078125 5.70257813 6 5 C5.34 4.67 4.68 4.34 4 4 C3.67 5.32 3.34 6.64 3 8 C2.34 8 1.68 8 1 8 C0.67 8.99 0.34 9.98 0 11 C0 7.37 0 3.74 0 0 Z " fill="#1744A1" transform="translate(198,125)"/>
<path d="M0 0 C2.97 0 5.94 0 9 0 C9 6.6 9 13.2 9 20 C6.03 20 3.06 20 0 20 C0 13.4 0 6.8 0 0 Z " fill="#013399" transform="translate(93,76)"/>
<path d="M0 0 C8.3984375 -0.1953125 8.3984375 -0.1953125 11 0 C13 2 13 2 13.25 5 C13 8 13 8 11 10 C11.495 10.61875 11.99 11.2375 12.5 11.875 C14 14 14 14 14 16 C9.16743695 15.58578031 7.17320782 13.53586014 4 10 C4 12.31 4 14.62 4 17 C2.68 17 1.36 17 0 17 C0 11.39 0 5.78 0 0 Z " fill="#2852A8" transform="translate(659,143)"/>
<path d="M0 0 C10.48858773 -0.37018545 10.48858773 -0.37018545 12.8671875 1.3515625 C14 3 14 3 13.8125 5.5625 C13 8 13 8 11 10 C12.98 12.97 12.98 12.97 15 16 C10.40925926 15.5037037 10.40925926 15.5037037 8.375 13 C7.92125 12.34 7.4675 11.68 7 11 C6.01 10.67 5.02 10.34 4 10 C4 11.98 4 13.96 4 16 C2.68 16 1.36 16 0 16 C0 10.72 0 5.44 0 0 Z " fill="#2952A8" transform="translate(671,79)"/>
<path d="M0 0 C0 5.94 0 11.88 0 18 C-2.97 18 -5.94 18 -9 18 C-9 12.39 -9 6.78 -9 1 C-6 0 -6 0 0 0 Z " fill="#01349A" transform="translate(80,78)"/>
<path d="M0 0 C4 1 4 1 6.25 4.0625 C7.11625 5.5165625 7.11625 5.5165625 8 7 C8.33 4.69 8.66 2.38 9 0 C10.32 0 11.64 0 13 0 C13 5.61 13 11.22 13 17 C11.68 17 10.36 17 9 17 C7.515625 15.25 7.515625 15.25 6.25 13 C5.82203125 12.2575 5.3940625 11.515 4.953125 10.75 C4.48132813 9.88375 4.48132813 9.88375 4 9 C3.67 11.64 3.34 14.28 3 17 C2.01 17 1.02 17 0 17 C0 11.39 0 5.78 0 0 Z " fill="#254FA6" transform="translate(567,143)"/>
<path d="M0 0 C1.32 0 2.64 0 4 0 C5.32 2.31 6.64 4.62 8 7 C8.33 4.69 8.66 2.38 9 0 C10.32 0 11.64 0 13 0 C13 5.61 13 11.22 13 17 C11.68 17 10.36 17 9 17 C7.35 14.03 5.7 11.06 4 8 C3.67 10.64 3.34 13.28 3 16 C2.01 16 1.02 16 0 16 C0 10.72 0 5.44 0 0 Z " fill="#2A54A8" transform="translate(737,143)"/>
<path d="M0 0 C1.32 0 2.64 0 4 0 C5.484375 1.75 5.484375 1.75 6.75 4 C7.17796875 4.7425 7.6059375 5.485 8.046875 6.25 C8.36140625 6.8275 8.6759375 7.405 9 8 C9.33 5.36 9.66 2.72 10 0 C10.99 0 11.98 0 13 0 C13 5.28 13 10.56 13 16 C11.68 16 10.36 16 9 16 C6.75 13 6.75 13 5 10 C4.67 12.31 4.34 14.62 4 17 C2.68 17 1.36 17 0 17 C0 11.39 0 5.78 0 0 Z " fill="#244EA6" transform="translate(606,143)"/>
<path d="M0 0 C3.96 0 7.92 0 12 0 C12 0.99 12 1.98 12 3 C9.36 3 6.72 3 4 3 C4 3.99 4 4.98 4 6 C6.64 6 9.28 6 12 6 C12 7.32 12 8.64 12 10 C9.36 10 6.72 10 4 10 C4 11.32 4 12.64 4 14 C6.97 14 9.94 14 13 14 C13 14.99 13 15.98 13 17 C11.02090602 17.02686553 9.04171029 17.04633375 7.0625 17.0625 C5.96035156 17.07410156 4.85820313 17.08570313 3.72265625 17.09765625 C1 17 1 17 0 16 C-0.07319621 13.30345146 -0.09242537 10.63308542 -0.0625 7.9375 C-0.05798828 7.17888672 -0.05347656 6.42027344 -0.04882812 5.63867188 C-0.0370068 3.75908129 -0.01907078 1.87953101 0 0 Z " fill="#2651A7" transform="translate(628,143)"/>
<path d="M0 0 C1.588125 -0.061875 3.17625 -0.12375 4.8125 -0.1875 C6.15248047 -0.23970703 6.15248047 -0.23970703 7.51953125 -0.29296875 C10 0 10 0 11.8046875 1.3515625 C13.47948435 3.66124965 13.35691675 5.21604938 13 8 C11 10 11 10 7.375 10.125 C6.26125 10.08375 5.1475 10.0425 4 10 C4 12.31 4 14.62 4 17 C2.68 16.67 1.36 16.34 0 16 C0 10.72 0 5.44 0 0 Z " fill="#325BAD" transform="translate(692,143)"/>
<path d="M0 0 C1.32 0 2.64 0 4 0 C4 5.28 4 10.56 4 16 C0.7 16 -2.6 16 -6 16 C-8.26609984 11.46780033 -7.92735976 9.82227075 -7 5 C-5.02 4.67 -3.04 4.34 -1 4 C-0.67 2.68 -0.34 1.36 0 0 Z " fill="#3C60B0" transform="translate(659,53)"/>
<path d="M0 0 C0.99 0.33 1.98 0.66 3 1 C2.67 1.66 2.34 2.32 2 3 C3.32 3.33 4.64 3.66 6 4 C6 4.99 6 5.98 6 7 C3.36 7 0.72 7 -2 7 C-2 8.32 -2 9.64 -2 11 C0.64 11 3.28 11 6 11 C6 11.66 6 12.32 6 13 C3.36 13 0.72 13 -2 13 C-2 14.65 -2 16.3 -2 18 C0.97 18 3.94 18 7 18 C7 18.99 7 19.98 7 21 C2.71 21 -1.58 21 -6 21 C-6 15.39 -6 9.78 -6 4 C-4.35 4 -2.7 4 -1 4 C-0.67 2.68 -0.34 1.36 0 0 Z " fill="#0C3A9C" transform="translate(713,139)"/>
<path d="M0 0 C1.32 0 2.64 0 4 0 C5.65 2.97 7.3 5.94 9 9 C9.33 6.03 9.66 3.06 10 0 C10.99 0 11.98 0 13 0 C13 5.61 13 11.22 13 17 C11.68 17 10.36 17 9 17 C7.35 14.03 5.7 11.06 4 8 C3.67 10.64 3.34 13.28 3 16 C2.01 16 1.02 16 0 16 C0 10.72 0 5.44 0 0 Z " fill="#093899" transform="translate(753,143)"/>
<path d="M0 0 C4.16021408 -0.21153631 7.08997426 -0.34125965 11 1.125 C13 3 13 3 13.375 6.0625 C13 9 13 9 12 11 C9.11788698 11.96070434 7.30149956 12.10581883 4.3125 12.0625 C2.889375 12.041875 1.46625 12.02125 0 12 C0 8.04 0 4.08 0 0 Z " fill="#F7F9FB" transform="translate(61,132)"/>
<path d="M0 0 C4.29 0 8.58 0 13 0 C13 0.99 13 1.98 13 3 C10.03 3 7.06 3 4 3 C4 3.99 4 4.98 4 6 C6.64 6 9.28 6 12 6 C12 6.99 12 7.98 12 9 C9.36 9 6.72 9 4 9 C4 10.32 4 11.64 4 13 C6.97 13 9.94 13 13 13 C13 13.99 13 14.98 13 16 C8.71 16 4.42 16 0 16 C0 10.72 0 5.44 0 0 Z " fill="#023298" transform="translate(719,79)"/>
<path d="M0 0 C1.32 0 2.64 0 4 0 C5.65 2.97 7.3 5.94 9 9 C9.33 6.03 9.66 3.06 10 0 C10.99 0 11.98 0 13 0 C13 5.28 13 10.56 13 16 C8 15 8 15 6.63671875 13.37109375 C5.31835938 10.68554688 5.31835938 10.68554688 4 8 C3.67 10.64 3.34 13.28 3 16 C2.01 16 1.02 16 0 16 C0 10.72 0 5.44 0 0 Z " fill="#023398" transform="translate(579,79)"/>
<path d="M0 0 C1.32 0 2.64 0 4 0 C5.98 5.28 7.96 10.56 10 16 C8.68 16 7.36 16 6 16 C5.67 15.34 5.34 14.68 5 14 C2.67843403 13.59270772 0.3431213 13.25561323 -2 13 C-2 13.99 -2 14.98 -2 16 C-3.32 16 -4.64 16 -6 16 C-4.43551329 10.3856009 -2.83604813 5.13189662 0 0 Z " fill="#0B399B" transform="translate(739,79)"/>
<path d="M0 0 C6.8359375 -0.1953125 6.8359375 -0.1953125 9 0 C11 2 11 2 11.265625 3.875 C11.26046875 4.57625 11.2553125 5.2775 11.25 6 C11.25515625 6.70125 11.2603125 7.4025 11.265625 8.125 C11 10 11 10 9 12 C6.375 12.125 6.375 12.125 4 12 C3.67 13.32 3.34 14.64 3 16 C2.01 16 1.02 16 0 16 C0 10.72 0 5.44 0 0 Z " fill="#0A399C" transform="translate(685,57)"/>
<path d="M0 0 C2.44897847 3.67346771 2.31537716 5.66356399 2 10 C0 12 0 12 -2.625 12.125 C-3.40875 12.08375 -4.1925 12.0425 -5 12 C-5.33 13.65 -5.66 15.3 -6 17 C-6.99 17 -7.98 17 -9 17 C-9 11.72 -9 6.44 -9 1 C-5.66208701 0.16552175 -3.3667387 -0.35439355 0 0 Z " fill="#1844A0" transform="translate(661,121)"/>
<path d="M0 0 C0.66 0.33 1.32 0.66 2 1 C2 1.99 2 2.98 2 4 C2.99 4.33 3.98 4.66 5 5 C5 7 5 9 5 11 C4.34 11 3.68 11 3 11 C2.49440092 12.43554025 1.9957251 13.8735202 1.5 15.3125 C1.2215625 16.11300781 0.943125 16.91351563 0.65625 17.73828125 C-0.13933107 20.08769422 -0.13933107 20.08769422 0 23 C-1 25.1875 -1 25.1875 -2 27 C-3.65 27 -5.3 27 -7 27 C-7.66 25.02 -8.32 23.04 -9 21 C-8.34 21 -7.68 21 -7 21 C-7 19.68 -7 18.36 -7 17 C-5.02 16.67 -3.04 16.34 -1 16 C-0.67 13.69 -0.34 11.38 0 9 C-0.66 9 -1.32 9 -2 9 C-2.66 7.35 -3.32 5.7 -4 4 C-3.01 3.67 -2.02 3.34 -1 3 C-0.67 2.01 -0.34 1.02 0 0 Z " fill="#0B3892" transform="translate(396,84)"/>
<path d="M0 0 C1.32 0 2.64 0 4 0 C4 4.29 4 8.58 4 13 C5.65 13 7.3 13 9 13 C9 8.71 9 4.42 9 0 C10.32 0 11.64 0 13 0 C13.05402274 2.10388569 13.09280256 4.20816714 13.125 6.3125 C13.14820313 7.48425781 13.17140625 8.65601562 13.1953125 9.86328125 C13 13 13 13 11 16 C8.90625 16.3984375 8.90625 16.3984375 6.5 16.375 C5.7059375 16.38273437 4.911875 16.39046875 4.09375 16.3984375 C3.4028125 16.26695313 2.711875 16.13546875 2 16 C-0.42130331 12.36804504 -0.21022785 10.61650652 -0.125 6.3125 C-0.09792969 4.54326172 -0.09792969 4.54326172 -0.0703125 2.73828125 C-0.04710937 1.83464844 -0.02390625 0.93101563 0 0 Z " fill="#3359AC" transform="translate(563,79)"/>
<path d="M0 0 C4 1 4 1 5.265625 2.62890625 C6.17708333 4.41927083 7.08854167 6.20963542 8 8 C8.33 5.36 8.66 2.72 9 0 C9.99 0 10.98 0 12 0 C12 5.28 12 10.56 12 16 C10.68 16 9.36 16 8 16 C6.02 12.535 6.02 12.535 4 9 C3.67 11.31 3.34 13.62 3 16 C2.01 16 1.02 16 0 16 C0 10.72 0 5.44 0 0 Z " fill="#113F9E" transform="translate(619,79)"/>
<path d="M0 0 C3.96 0 7.92 0 12 0 C12 0.99 12 1.98 12 3 C9.03 3 6.06 3 3 3 C3 4.32 3 5.64 3 7 C5.64 7 8.28 7 11 7 C11 7.66 11 8.32 11 9 C8.69 9 6.38 9 4 9 C4 10.32 4 11.64 4 13 C6.64 13 9.28 13 12 13 C12 14.32 12 15.64 12 17 C8.04 17 4.08 17 0 17 C0 11.39 0 5.78 0 0 Z " fill="#3E64B1" transform="translate(722,143)"/>
<path d="M0 0 C3.96 0 7.92 0 12 0 C12 0.99 12 1.98 12 3 C9.03 3 6.06 3 3 3 C3 4.32 3 5.64 3 7 C5.64 7 8.28 7 11 7 C11 7.66 11 8.32 11 9 C8.69 9 6.38 9 4 9 C4 10.32 4 11.64 4 13 C6.64 13 9.28 13 12 13 C12 14.32 12 15.64 12 17 C8.04 17 4.08 17 0 17 C0 11.39 0 5.78 0 0 Z " fill="#023399" transform="translate(769,143)"/>
<path d="M0 0 C0.66 0.33 1.32 0.66 2 1 C2 1.99 2 2.98 2 4 C2.99 4 3.98 4 5 4 C5.66 5.98 6.32 7.96 7 10 C6.01 9.67 5.02 9.34 4 9 C3.67 10.98 3.34 12.96 3 15 C1.68 15 0.36 15 -1 15 C-0.67 15.99 -0.34 16.98 0 18 C-4.62 18.33 -9.24 18.66 -14 19 C-12 14 -12 14 -10.375 13.1875 C-6.90524846 12.91357225 -3.48067063 12.94198882 0 13 C-0.515625 11.948125 -1.03125 10.89625 -1.5625 9.8125 C-2.97643706 6.52442938 -3.32016935 4.45275062 -2 1 C-1.34 0.67 -0.68 0.34 0 0 Z " fill="#05369A" transform="translate(280,134)"/>
<path d="M0 0 C0 4.95 0 9.9 0 15 C-2.97 15 -5.94 15 -9 15 C-9 10.38 -9 5.76 -9 1 C-5 0 -5 0 0 0 Z " fill="#013398" transform="translate(62,81)"/>
<path d="M0 0 C8.625 -0.25 8.625 -0.25 12 2 C12.3125 5 12.3125 5 12 8 C10 10 10 10 6.375 10.125 C5.26125 10.08375 4.1475 10.0425 3 10 C3 11.98 3 13.96 3 16 C2.01 16 1.02 16 0 16 C0 10.72 0 5.44 0 0 Z " fill="#023298" transform="translate(705,79)"/>
<path d="M0 0 C0.99 0 1.98 0 3 0 C3.33 3.96 3.66 7.92 4 12 C5.65 12.33 7.3 12.66 9 13 C9 8.71 9 4.42 9 0 C10.32 0 11.64 0 13 0 C13.10832169 2.08218362 13.18573541 4.16599129 13.25 6.25 C13.29640625 7.41015625 13.3428125 8.5703125 13.390625 9.765625 C13 13 13 13 11.17578125 15.39453125 C8.25961 17.54632009 6.54441224 17.52789118 3 17 C1.328125 15.921875 1.328125 15.921875 0 14 C-0.29296875 10.64453125 -0.29296875 10.64453125 -0.1875 6.8125 C-0.16042969 5.54019531 -0.13335938 4.26789063 -0.10546875 2.95703125 C-0.07066406 1.98121094 -0.03585937 1.00539062 0 0 Z " fill="#3259AC" transform="translate(551,143)"/>
<path d="M0 0 C1.32 0 2.64 0 4 0 C4 4.29 4 8.58 4 13 C5.65 12.67 7.3 12.34 9 12 C9.33 8.04 9.66 4.08 10 0 C10.99 0 11.98 0 13 0 C13.08126087 2.08268593 13.13930839 4.16628658 13.1875 6.25 C13.22230469 7.41015625 13.25710938 8.5703125 13.29296875 9.765625 C12.97734296 13.25013368 12.49696272 14.59638168 10 17 C7.0625 17.5 7.0625 17.5 4 17 C1.82421875 15.390625 1.82421875 15.390625 0 13 C-0.390625 9.765625 -0.390625 9.765625 -0.25 6.25 C-0.21390625 5.07953125 -0.1778125 3.9090625 -0.140625 2.703125 C-0.09421875 1.81109375 -0.0478125 0.9190625 0 0 Z " fill="#224CA5" transform="translate(643,143)"/>
<path d="M0 0 C3.96 0 7.92 0 12 0 C12 0.99 12 1.98 12 3 C9.03 3 6.06 3 3 3 C3 3.99 3 4.98 3 6 C5.64 6 8.28 6 11 6 C11 6.99 11 7.98 11 9 C8.36 9 5.72 9 3 9 C3 10.32 3 11.64 3 13 C5.97 13 8.94 13 12 13 C12 13.99 12 14.98 12 16 C8.04 16 4.08 16 0 16 C0 10.72 0 5.44 0 0 Z " fill="#08389A" transform="translate(641,79)"/>
<path d="M0 0 C2.35210784 2.11689705 2.91810953 3.44041515 3.375 6.5625 C3 9 3 9 1.9375 10.8125 C-1.05550269 12.646921 -3.57816663 12.31107576 -7 12 C-9 10 -9 10 -9.3125 6.5625 C-9 3 -9 3 -7.875 1.0625 C-5.07837528 -0.52225401 -3.1506804 -0.45947423 0 0 Z " fill="#1E48A3" transform="translate(563,121)"/>
<path d="M0 0 C3.4375 -0.4375 3.4375 -0.4375 7 0 C9 1.625 9 1.625 10 4 C9.77962372 7.67293796 9.63033454 9.36966546 7 12 C3.5 12.25 3.5 12.25 0 12 C-2 10 -2 10 -2.25 6.5625 C-2 3 -2 3 0 0 Z " fill="#14419F" transform="translate(667,57)"/>
<path d="M0 0 C2.15502531 3.23253796 2.46856135 4.25150923 2 8 C0.9375 9.8125 0.9375 9.8125 -1 11 C-4.5625 11.3125 -4.5625 11.3125 -8 11 C-10 9 -10 9 -10.375 5.5625 C-10 2 -10 2 -8.375 0 C-5.16403572 -1.35198496 -3.30053834 -1.00451167 0 0 Z " fill="#1B46A2" transform="translate(564,58)"/>
<path d="M0 0 C1.875 1.125 1.875 1.125 3 3 C3.39365568 6.14924548 3.52854531 8.11909116 1.875 10.875 C-0.88090884 12.52854531 -2.85075452 12.39365568 -6 12 C-7.875 10.875 -7.875 10.875 -9 9 C-9.39365568 5.85075452 -9.52854531 3.88090884 -7.875 1.125 C-5.11909116 -0.52854531 -3.14924548 -0.39365568 0 0 Z " fill="#1B46A1" transform="translate(707,57)"/>
<path d="M0 0 C1.9375 1.375 1.9375 1.375 3 3 C3 3.66 3 4.32 3 5 C0.03 4.67 -2.94 4.34 -6 4 C-6 6.64 -6 9.28 -6 12 C-4.68 12 -3.36 12 -2 12 C-1.67 11.34 -1.34 10.68 -1 10 C0.32 10.33 1.64 10.66 3 11 C2 13.5 2 13.5 0 16 C-2.78262993 16.70145463 -5.20528714 16.61134344 -8 16 C-10.36110026 14.22917481 -10.84291198 12.9703665 -11.30859375 10.09375 C-11.52669177 6.55130936 -11.34463183 4.55141094 -9.4375 1.5 C-6.08965651 -0.56021138 -3.85985753 -0.49125459 0 0 Z " fill="#16419F" transform="translate(549,117)"/>
<path d="M0 0 C0.33 1.32 0.66 2.64 1 4 C1.99 4 2.98 4 4 4 C4.99 4.33 5.98 4.66 7 5 C3.35701363 9.08456048 0.21554663 11.29145886 -5 13 C-8.9375 13.1875 -8.9375 13.1875 -12 13 C-12 12.67 -12 12.34 -12 12 C-10.35 12 -8.7 12 -7 12 C-6.87625 11.360625 -6.7525 10.72125 -6.625 10.0625 C-6.41875 9.381875 -6.2125 8.70125 -6 8 C-5.34 7.67 -4.68 7.34 -4 7 C-6.64 6.67 -9.28 6.34 -12 6 C-12 6.66 -12 7.32 -12 8 C-13.32 8.33 -14.64 8.66 -16 9 C-16.66 8.01 -17.32 7.02 -18 6 C-17.34 4.68 -16.68 3.36 -16 2 C-15.01 2.66 -14.02 3.32 -13 4 C-9.95641721 4.48204074 -7.0450401 4.47269576 -4 4 C-1.43009002 2.18735352 -1.43009002 2.18735352 0 0 Z " fill="#0C3B9D" transform="translate(114,148)"/>
<path d="M0 0 C0.99 0.33 1.98 0.66 3 1 C3.02686553 2.97909398 3.04633375 4.95828971 3.0625 6.9375 C3.07410156 8.03964844 3.08570313 9.14179688 3.09765625 10.27734375 C3 13 3 13 2 14 C0.31391034 14.07205511 -1.37500659 14.08386068 -3.0625 14.0625 C-3.98160156 14.05347656 -4.90070312 14.04445312 -5.84765625 14.03515625 C-6.55792969 14.02355469 -7.26820313 14.01195312 -8 14 C-8 12.35 -8 10.7 -8 9 C-5.36 9 -2.72 9 0 9 C0 8.34 0 7.68 0 7 C-2.64 7 -5.28 7 -8 7 C-8 5.68 -8 4.36 -8 3 C-5.36 3 -2.72 3 0 3 C0 2.01 0 1.02 0 0 Z " fill="#D3DDED" transform="translate(719,143)"/>
<path d="M0 0 C2 2 2 2 2 5 C0.700625 4.814375 -0.59875 4.62875 -1.9375 4.4375 C-4.08575543 4.1018371 -4.08575543 4.1018371 -6 4 C-7.35618499 5.12534105 -7.35618499 5.12534105 -7.0625 8.0625 C-7.041875 9.031875 -7.02125 10.00125 -7 11 C-5.35 11.33 -3.7 11.66 -2 12 C-1.67 11.34 -1.34 10.68 -1 10 C0.32 10.33 1.64 10.66 3 11 C1.9375 13.5 1.9375 13.5 0 16 C-3.87779158 16.63454771 -6.03274686 16.57043134 -9.4375 14.5625 C-11.68195258 10.88159776 -11.86106961 7.21225944 -11 3 C-7.97541995 -1.17503382 -4.78255404 -0.37956778 0 0 Z " fill="#123E9E" transform="translate(549,53)"/>
<path d="M0 0 C5.61 0 11.22 0 17 0 C17 1.98 17 3.96 17 6 C10.4 6 3.8 6 -3 6 C-2 4 -1 2 0 0 Z " fill="#003298" transform="translate(207,154)"/>
<path d="M0 0 C0.99 0 1.98 0 3 0 C3.33 3.96 3.66 7.92 4 12 C5.32 12 6.64 12 8 12 C8.33 8.04 8.66 4.08 9 0 C9.99 0 10.98 0 12 0 C12.05384521 2.29141286 12.09272087 4.58318188 12.125 6.875 C12.14820313 8.15117188 12.17140625 9.42734375 12.1953125 10.7421875 C12 14 12 14 10 16 C8.125 16.265625 8.125 16.265625 6 16.25 C4.948125 16.25773437 4.948125 16.25773437 3.875 16.265625 C2 16 2 16 0 14 C-0.1953125 10.7421875 -0.1953125 10.7421875 -0.125 6.875 C-0.10695313 5.59367187 -0.08890625 4.31234375 -0.0703125 2.9921875 C-0.04710937 2.00476563 -0.02390625 1.01734375 0 0 Z " fill="#023399" transform="translate(656,79)"/>
<path d="M0 0 C3.375 -0.125 3.375 -0.125 7 0 C9 2 9 2 9.1953125 4.3828125 C9.17210937 5.28773437 9.14890625 6.19265625 9.125 7.125 C9.10695313 8.03507812 9.08890625 8.94515625 9.0703125 9.8828125 C9.04710937 10.58148438 9.02390625 11.28015625 9 12 C7.54207116 12.05399736 6.08357288 12.09279177 4.625 12.125 C3.81289063 12.14820312 3.00078125 12.17140625 2.1640625 12.1953125 C0 12 0 12 -2 10 C-1.46428571 6.46428571 -1.46428571 6.46428571 0 5 C1.66617115 4.95936168 3.33388095 4.957279 5 5 C5 4.34 5 3.68 5 3 C3.02 3.33 1.04 3.66 -1 4 C-0.67 2.68 -0.34 1.36 0 0 Z " fill="#2650A8" transform="translate(596,57)"/>
<path d="M0 0 C2.875 -0.125 2.875 -0.125 6 0 C8 2 8 2 8.1953125 4.3828125 C8.13020833 6.921875 8.06510417 9.4609375 8 12 C4.7 12 1.4 12 -2 12 C-2.33 10.68 -2.66 9.36 -3 8 C-2.34 7.01 -1.68 6.02 -1 5 C1.625 4.8125 1.625 4.8125 4 5 C4 4.34 4 3.68 4 3 C2.02 3.33 0.04 3.66 -2 4 C-1.34 2.68 -0.68 1.36 0 0 Z " fill="#2851A7" transform="translate(597,121)"/>
<path d="M0 0 C2.96968426 4.45452639 3.37870034 7.69819529 3 13 C1.5 14.9375 1.5 14.9375 0 16 C0 15.01 0 14.02 0 13 C-2.64 13 -5.28 13 -8 13 C-8 11.68 -8 10.36 -8 9 C-5.69 9 -3.38 9 -1 9 C-1 8.34 -1 7.68 -1 7 C-3.64 7 -6.28 7 -9 7 C-9 5.68 -9 4.36 -9 3 C-6.03 3 -3.06 3 0 3 C0 2.01 0 1.02 0 0 Z " fill="#CCD7EA" transform="translate(734,143)"/>
<path d="M0 0 C0.99 0.33 1.98 0.66 3 1 C3.06058594 1.83144531 3.12117187 2.66289062 3.18359375 3.51953125 C3.26738281 4.60621094 3.35117187 5.69289062 3.4375 6.8125 C3.55931641 8.43091797 3.55931641 8.43091797 3.68359375 10.08203125 C3.90212461 13.05989905 3.90212461 13.05989905 5 16 C3.68 16 2.36 16 1 16 C1 15.34 1 14.68 1 14 C-1.97 14 -4.94 14 -8 14 C-8 12.68 -8 11.36 -8 10 C-5.36 10 -2.72 10 0 10 C0 8.68 0 7.36 0 6 C-2.64 6 -5.28 6 -8 6 C-8 5.01 -8 4.02 -8 3 C-5.36 3 -2.72 3 0 3 C0 2.01 0 1.02 0 0 Z " fill="#E8EDF5" transform="translate(640,143)"/>
<path d="M0 0 C2.875 -0.125 2.875 -0.125 6 0 C8 2 8 2 8.1953125 4.3828125 C8.17210937 5.28773437 8.14890625 6.19265625 8.125 7.125 C8.10695313 8.03507813 8.08890625 8.94515625 8.0703125 9.8828125 C8.04710937 10.58148438 8.02390625 11.28015625 8 12 C5.03 12 2.06 12 -1 12 C-1.625 9.625 -1.625 9.625 -2 7 C-1.34 6.34 -0.68 5.68 0 5 C1.32 5 2.64 5 4 5 C4 4.34 4 3.68 4 3 C2.02 3.33 0.04 3.66 -2 4 C-1.34 2.68 -0.68 1.36 0 0 Z " fill="#1B47A1" transform="translate(667,121)"/>
<path d="M0 0 C2.875 -0.125 2.875 -0.125 6 0 C8 2 8 2 8.1953125 4.3828125 C8.17210937 5.28773437 8.14890625 6.19265625 8.125 7.125 C8.10695313 8.03507812 8.08890625 8.94515625 8.0703125 9.8828125 C8.04710937 10.58148438 8.02390625 11.28015625 8 12 C5.03 12 2.06 12 -1 12 C-1.625 9.625 -1.625 9.625 -2 7 C-1.34 6.34 -0.68 5.68 0 5 C1.32 5 2.64 5 4 5 C4 4.34 4 3.68 4 3 C2.02 3.33 0.04 3.66 -2 4 C-1.34 2.68 -0.68 1.36 0 0 Z " fill="#023399" transform="translate(546,83)"/>
<path d="M0 0 C2.875 -0.125 2.875 -0.125 6 0 C8.49505962 2.49505962 8.35948376 3.67328888 8.625 7.125 C8.69976563 8.03507812 8.77453125 8.94515625 8.8515625 9.8828125 C8.90054688 10.58148438 8.94953125 11.28015625 9 12 C7.35425434 12.02688151 5.70838587 12.04634123 4.0625 12.0625 C3.14597656 12.07410156 2.22945312 12.08570312 1.28515625 12.09765625 C-1 12 -1 12 -2 11 C-2.04063832 9.33382885 -2.042721 7.66611905 -2 6 C1.465 5.505 1.465 5.505 5 5 C5 4.34 5 3.68 5 3 C2.69 3.33 0.38 3.66 -2 4 C-1.34 2.68 -0.68 1.36 0 0 Z " fill="#15429E" transform="translate(641,57)"/>
<path d="M0 0 C0 1.32 0 2.64 0 4 C-2.31 3.67 -4.62 3.34 -7 3 C-7 3.66 -7 4.32 -7 5 C-6.34 5 -5.68 5 -5 5 C-5 5.99 -5 6.98 -5 8 C-5.66 8 -6.32 8 -7 8 C-7 10.97 -7 13.94 -7 17 C-8.32 17 -9.64 17 -11 17 C-11.22281874 15.08496326 -11.42771076 13.16783494 -11.625 11.25 C-11.74101563 10.18265625 -11.85703125 9.1153125 -11.9765625 8.015625 C-12.00048081 4.93813547 -11.79587944 3.47224961 -10 1 C-6.54536666 0.0987913 -3.58088792 0 0 0 Z " fill="#2650A8" transform="translate(579,52)"/>
<path d="M0 0 C6.8359375 -0.1953125 6.8359375 -0.1953125 9 0 C11 2 11 2 11.1953125 4.3828125 C11.17210937 5.28773437 11.14890625 6.19265625 11.125 7.125 C11.10695313 8.03507812 11.08890625 8.94515625 11.0703125 9.8828125 C11.04710937 10.58148438 11.02390625 11.28015625 11 12 C10.01 12 9.02 12 8 12 C7.67 9.36 7.34 6.72 7 4 C6.01 3.67 5.02 3.34 4 3 C4 5.97 4 8.94 4 12 C2.68 12 1.36 12 0 12 C0 8.04 0 4.08 0 0 Z " fill="#244EA6" transform="translate(607,57)"/>
<path d="M0 0 C8.75 -0.125 8.75 -0.125 11 1 C11 4.63 11 8.26 11 12 C10.01 12 9.02 12 8 12 C8 9.03 8 6.06 8 3 C6.68 3 5.36 3 4 3 C4 5.97 4 8.94 4 12 C2.68 12 1.36 12 0 12 C0 8.04 0 4.08 0 0 Z " fill="#375EAE" transform="translate(581,57)"/>
<path d="M0 0 C3.3 0 6.6 0 10 0 C10 0.99 10 1.98 10 3 C7.69 2.67 5.38 2.34 3 2 C3 2.99 3 3.98 3 5 C3.66 5 4.32 5 5 5 C5 5.66 5 6.32 5 7 C4.34 7 3.68 7 3 7 C3 9.97 3 12.94 3 16 C1.68 16 0.36 16 -1 16 C-1 13.03 -1 10.06 -1 7 C-1.66 7 -2.32 7 -3 7 C-3 6.01 -3 5.02 -3 4 C-2.34 4 -1.68 4 -1 4 C-0.67 2.68 -0.34 1.36 0 0 Z " fill="#2953A8" transform="translate(569,117)"/>
<path d="M0 0 C3.65316671 1.24976756 4.78065836 1.67098753 7 5 C0.90966347 10.37382635 -4.14381426 11.27090296 -12 11 C-12 10.67 -12 10.34 -12 10 C-9.36 9.67 -6.72 9.34 -4 9 C-4 7.68 -4 6.36 -4 5 C-6.97 4.505 -6.97 4.505 -10 4 C-10 3.67 -10 3.34 -10 3 C-9.04287109 2.80083984 -9.04287109 2.80083984 -8.06640625 2.59765625 C-7.24011719 2.42105469 -6.41382813 2.24445313 -5.5625 2.0625 C-4.32693359 1.80146484 -4.32693359 1.80146484 -3.06640625 1.53515625 C-1.02338796 1.19247006 -1.02338796 1.19247006 0 0 Z " fill="#1D48A3" transform="translate(154,150)"/>
<path d="M0 0 C2.5 0.25 2.5 0.25 4.5 2.25 C4.8403296 5.44909824 5.02148335 7.4417008 3.25 10.1875 C1.5 11.25 1.5 11.25 -0.5625 11.0625 C-2.5 10.25 -2.5 10.25 -4.5 8.25 C-4.75 5.25 -4.75 5.25 -4.5 2.25 C-2.5 0.25 -2.5 0.25 0 0 Z " fill="#E3EAF3" transform="translate(682.5,145.75)"/>
<path d="M0 0 C0.66 1.32 1.32 2.64 2 4 C-0.31 3.67 -2.62 3.34 -5 3 C-5 4.98 -5 6.96 -5 9 C-3.02 8.34 -1.04 7.68 1 7 C1 8.32 1 9.64 1 11 C0 12 0 12 -2.875 12.3125 C-6 12 -6 12 -7.875 10.3125 C-9.20607683 7.57639764 -9.46233717 6.00519158 -9 3 C-6.71619742 -0.67945972 -4.04424788 -0.26961653 0 0 Z " fill="#033399" transform="translate(629,57)"/>
<path d="M0 0 C0.66 1.32 1.32 2.64 2 4 C0.02 4 -1.96 4 -4 4 C-4.33 5.65 -4.66 7.3 -5 9 C-1.535 8.505 -1.535 8.505 2 8 C1.34 9.32 0.68 10.64 0 12 C-2.8125 12.25 -2.8125 12.25 -6 12 C-8.35210784 9.88310295 -8.91810953 8.55958485 -9.375 5.4375 C-9 3 -9 3 -7.875 1.1875 C-5.22464043 -0.49106106 -3.06753576 -0.20450238 0 0 Z " fill="#2951A7" transform="translate(629,121)"/>
<path d="M0 0 C1 1 1 1 1.09765625 3.28515625 C1.08605469 4.20167969 1.07445312 5.11820312 1.0625 6.0625 C1.05347656 6.98160156 1.04445313 7.90070313 1.03515625 8.84765625 C1.02355469 9.55792969 1.01195312 10.26820313 1 11 C0.01 11 -0.98 11 -2 11 C-2.33 8.36 -2.66 5.72 -3 3 C-3.99 2.67 -4.98 2.34 -6 2 C-6 4.97 -6 7.94 -6 11 C-6.99 11 -7.98 11 -9 11 C-9 7.37 -9 3.74 -9 0 C-5.16046631 -0.95988342 -3.67125527 -0.99223115 0 0 Z " fill="#103E9D" transform="translate(617,122)"/>
<path d="M0 0 C1 1 1 1 1.09765625 3.28515625 C1.08605469 4.20167969 1.07445312 5.11820312 1.0625 6.0625 C1.05347656 6.98160156 1.04445313 7.90070313 1.03515625 8.84765625 C1.02355469 9.55792969 1.01195312 10.26820313 1 11 C0.01 11 -0.98 11 -2 11 C-2 8.03 -2 5.06 -2 2 C-2.99 2.33 -3.98 2.66 -5 3 C-5.33 5.64 -5.66 8.28 -6 11 C-6.99 11 -7.98 11 -9 11 C-9 7.37 -9 3.74 -9 0 C-5.16046631 -0.95988342 -3.67125527 -0.99223115 0 0 Z " fill="#1644A1" transform="translate(591,122)"/>
<path d="M0 0 C0.33 0 0.66 0 1 0 C1.33 4.95 1.66 9.9 2 15 C-2.29 14.34 -6.58 13.68 -11 13 C-11 11.68 -11 10.36 -11 9 C-8.36 9 -5.72 9 -3 9 C-2.67 7.35 -2.34 5.7 -2 4 C-1.34 4 -0.68 4 0 4 C0 2.68 0 1.36 0 0 Z " fill="#E0E6F1" transform="translate(655,79)"/>
<path d="M0 0 C4.55555556 0.55555556 4.55555556 0.55555556 6 2 C6.1875 5.4375 6.1875 5.4375 6 9 C5.34 9.66 4.68 10.32 4 11 C1.4375 10.75 1.4375 10.75 -1 10 C-2.38125018 7.23749964 -2.19079306 5.05268901 -2 2 C-1.34 1.34 -0.68 0.68 0 0 Z " fill="#F1F4F8" transform="translate(594,146)"/>
<path d="M0 0 C0.66 0 1.32 0 2 0 C2.79953138 3.28696233 3.09658936 4.71023192 2 8 C2.639375 8.12375 3.27875 8.2475 3.9375 8.375 C4.618125 8.58125 5.29875 8.7875 6 9 C6.33 9.66 6.66 10.32 7 11 C7.721875 10.154375 8.44375 9.30875 9.1875 8.4375 C12 6 12 6 14.8125 6.1875 C15.8953125 6.5896875 15.8953125 6.5896875 17 7 C16.360625 7.433125 15.72125 7.86625 15.0625 8.3125 C12.73253997 9.91239177 12.73253997 9.91239177 12 13 C12.66 13.66 13.32 14.32 14 15 C8.97653748 14.521575 5.89807119 13.22014577 2 10 C0.29720948 7.7091587 -0.78573235 5.62281813 -2 3 C-1 1 -1 1 0 0 Z " fill="#123F9F" transform="translate(135,82)"/>
<path d="M0 0 C1.99954746 -0.04254356 4.00041636 -0.04080783 6 0 C7 1 7 1 7.0625 3.5625 C7.041875 4.366875 7.02125 5.17125 7 6 C4.69 6 2.38 6 0 6 C0.33 6.66 0.66 7.32 1 8 C1.61875 7.79375 2.2375 7.5875 2.875 7.375 C3.57625 7.25125 4.2775 7.1275 5 7 C5.66 7.66 6.32 8.32 7 9 C5 11 5 11 2 11.25 C-1 11 -1 11 -3 9 C-3.125 5.375 -3.125 5.375 -3 2 C-2.01 2 -1.02 2 0 2 C0 2.66 0 3.32 0 4 C1.32 4 2.64 4 4 4 C4 3.34 4 2.68 4 2 C2.68 1.67 1.36 1.34 0 1 C0 0.67 0 0.34 0 0 Z " fill="#07359A" transform="translate(636,122)"/>
<path d="M0 0 C2.5625 0.1875 2.5625 0.1875 4.5625 2.1875 C4.8125 5.1875 4.8125 5.1875 4.5625 8.1875 C2.5625 10.1875 2.5625 10.1875 0 10.375 C-2.4375 10.1875 -2.4375 10.1875 -3.4375 9.1875 C-3.5703125 7.375 -3.5703125 7.375 -3.5625 5.1875 C-3.56507813 4.465625 -3.56765625 3.74375 -3.5703125 3 C-3.36228014 0.16097012 -2.84416607 0.21878201 0 0 Z " fill="#F2F5F9" transform="translate(694.4375,81.8125)"/>
<path d="M0 0 C2.4375 0.1875 2.4375 0.1875 3.4375 1.1875 C3.5703125 3 3.5703125 3 3.5625 5.1875 C3.56507813 5.909375 3.56765625 6.63125 3.5703125 7.375 C3.4375 9.1875 3.4375 9.1875 2.4375 10.1875 C0 10.375 0 10.375 -2.5625 10.1875 C-4.5625 8.1875 -4.5625 8.1875 -4.8125 5.1875 C-4.49521834 1.38012011 -3.88988006 0.28462537 0 0 Z " fill="#F1F4F8" transform="translate(608.5625,81.8125)"/>
<path d="M0 0 C0.66 1.32 1.32 2.64 2 4 C2.66 4 3.32 4 4 4 C4 4.99 4 5.98 4 7 C-0.29 7 -4.58 7 -9 7 C-8.67 5.35 -8.34 3.7 -8 2 C-4.77208445 -0.1519437 -3.71599191 -0.20086443 0 0 Z " fill="#F5F7FA" transform="translate(152,70)"/>
<path d="M0 0 C3.63 0 7.26 0 11 0 C11 0.99 11 1.98 11 3 C8.36 3 5.72 3 3 3 C3 3.99 3 4.98 3 6 C5.64 6 8.28 6 11 6 C11 6.99 11 7.98 11 9 C9.54257537 9.08096803 8.08387193 9.13917774 6.625 9.1875 C5.81289063 9.22230469 5.00078125 9.25710937 4.1640625 9.29296875 C3.44992187 9.19628906 2.73578125 9.09960938 2 9 C-0.29013653 5.5647952 -0.17842973 4.014669 0 0 Z " fill="#1D4AA4" transform="translate(629,143)"/>
<path d="M0 0 C0.66 0 1.32 0 2 0 C2.6708712 1.6232687 3.33657029 3.24867578 4 4.875 C4.556875 6.23238281 4.556875 6.23238281 5.125 7.6171875 C6 10 6 10 6 12 C2.7 12 -0.6 12 -4 12 C-3.52309796 10.37433394 -3.04340334 8.74948689 -2.5625 7.125 C-2.29566406 6.22007812 -2.02882813 5.31515625 -1.75390625 4.3828125 C-1 2 -1 2 0 0 Z " fill="#DDE5F1" transform="translate(274,135)"/>
<path d="M0 0 C0.61875 0.350625 1.2375 0.70125 1.875 1.0625 C2.57625 1.371875 3.2775 1.68125 4 2 C4.66 1.67 5.32 1.34 6 1 C5.67 2.32 5.34 3.64 5 5 C4.34 5 3.68 5 3 5 C3.66 6.65 4.32 8.3 5 10 C3.02 10.99 3.02 10.99 1 12 C1 10.68 1 9.36 1 8 C-0.216875 8.04125 -1.43375 8.0825 -2.6875 8.125 C-6.21894127 8.13754508 -8.80003566 7.59998217 -12 6 C-12 5.67 -12 5.34 -12 5 C-11.38511719 4.97421875 -10.77023437 4.9484375 -10.13671875 4.921875 C-5.00745409 4.7185352 -5.00745409 4.7185352 -0.9375 1.9375 C-0.628125 1.298125 -0.31875 0.65875 0 0 Z " fill="#0B3A9B" transform="translate(282,93)"/>
<path d="M0 0 C4.29 0 8.58 0 13 0 C13 1.65 13 3.3 13 5 C8.38 5 3.76 5 -1 5 C-0.67 3.35 -0.34 1.7 0 0 Z " fill="#003399" transform="translate(208,140)"/>
<path d="M0 0 C2.68031126 0.87110116 3.8469899 1.55048618 5.5 3.8125 C5.5 4.8025 5.5 5.7925 5.5 6.8125 C1.21 6.8125 -3.08 6.8125 -7.5 6.8125 C-4.63592233 -0.34769417 -4.63592233 -0.34769417 0 0 Z " fill="#FAFBFC" transform="translate(238.5,70.1875)"/>
<path d="M0 0 C0 3.63 0 7.26 0 11 C-2.97 11 -5.94 11 -9 11 C-10.88343932 7.23312136 -11.22057835 5.97041037 -11 2 C-10.01 1.67 -9.02 1.34 -8 1 C-7.67 2.98 -7.34 4.96 -7 7 C-5.68 7.33 -4.36 7.66 -3 8 C-3 5.69 -3 3.38 -3 1 C-1 0 -1 0 0 0 Z " fill="#123F9E" transform="translate(662,58)"/>
<path d="M0 0 C1.32 0 2.64 0 4 0 C4 5.61 4 11.22 4 17 C2.68 17 1.36 17 0 17 C0 11.39 0 5.78 0 0 Z " fill="#2953A9" transform="translate(538,143)"/>
<path d="M0 0 C2 2 2 2 2.3125 5.875 C2.21982909 8.42344994 1.96765063 10.08626499 1.0625 12.5 C-2.29950148 14.94509198 -5.98243527 14.30321243 -10 14 C-9.67 12.68 -9.34 11.36 -9 10 C-7.02 10 -5.04 10 -3 10 C-2.814375 8.3603125 -2.814375 8.3603125 -2.625 6.6875 C-2 3 -2 3 0 0 Z " fill="#1C48A3" transform="translate(614,81)"/>
<path d="M0 0 C1.65 0 3.3 0 5 0 C5.33 0.99 5.66 1.98 6 3 C6.66 3 7.32 3 8 3 C7.773125 3.5775 7.54625 4.155 7.3125 4.75 C6.72904407 7.10993795 6.72904407 7.10993795 8.4375 9.125 C9.2109375 10.053125 9.2109375 10.053125 10 11 C10 11.66 10 12.32 10 13 C7.29068581 12.84518205 5.53415961 12.51827919 3.5546875 10.59765625 C2.32320358 9.10228292 1.1570163 7.5537076 0 6 C1.32 5.67 2.64 5.34 4 5 C2.68 4.67 1.36 4.34 0 4 C0 2.68 0 1.36 0 0 Z " fill="#14419F" transform="translate(663,146)"/>
<path d="M0 0 C8.57142857 -0.14285714 8.57142857 -0.14285714 12 1 C11.34 2.98 10.68 4.96 10 7 C11.32 7.33 12.64 7.66 14 8 C8.39 8 2.78 8 -3 8 C-3 7.67 -3 7.34 -3 7 C0.96 7 4.92 7 9 7 C9 6.01 9 5.02 9 4 C6.03 4 3.06 4 0 4 C0 2.68 0 1.36 0 0 Z " fill="#D7DFEF" transform="translate(723,88)"/>
<path d="M0 0 C1.32 0 2.64 0 4 0 C4 5.28 4 10.56 4 16 C2.68 16 1.36 16 0 16 C0 10.72 0 5.44 0 0 Z " fill="#3059AB" transform="translate(538,79)"/>
<path d="M0 0 C0.99 0 1.98 0 3 0 C3 5.61 3 11.22 3 17 C1.68 17 0.36 17 -1 17 C-1.66 15.02 -2.32 13.04 -3 11 C-2.01 11 -1.02 11 0 11 C0 7.37 0 3.74 0 0 Z " fill="#1E4AA3" transform="translate(763,143)"/>
<path d="M0 0 C4.62 0 9.24 0 14 0 C12.68 2.31 11.36 4.62 10 7 C9.01 7 8.02 7 7 7 C6.67 5.68 6.34 4.36 6 3 C4.68 3.33 3.36 3.66 2 4 C2 4.66 2 5.32 2 6 C1.34 6 0.68 6 0 6 C0 4.02 0 2.04 0 0 Z " fill="#023397" transform="translate(172,73)"/>
<path d="M0 0 C2.97 0 5.94 0 9 0 C9 2.31 9 4.62 9 7 C5.7 7 2.4 7 -1 7 C-0.67 4.69 -0.34 2.38 0 0 Z " fill="#0E3D9D" transform="translate(245,76)"/>
<path d="M0 0 C0.33 0.66 0.66 1.32 1 2 C1.66 2.33 2.32 2.66 3 3 C2.67 3.99 2.34 4.98 2 6 C2.99 6.33 3.98 6.66 5 7 C5.36923077 11.55384615 5.36923077 11.55384615 3.5 13.8125 C3.005 14.204375 2.51 14.59625 2 15 C2 14.34 2 13.68 2 13 C0.35 13 -1.3 13 -3 13 C-2.649375 12.46375 -2.29875 11.9275 -1.9375 11.375 C-0.71438088 8.27643157 -1.44909859 6.23654578 -2 3 C-1.34 2.01 -0.68 1.02 0 0 Z " fill="#04359A" transform="translate(77,132)"/>
<path d="M0 0 C2.64 0 5.28 0 8 0 C8 0.99 8 1.98 8 3 C7.01 3.33 6.02 3.66 5 4 C4.67 6.64 4.34 9.28 4 12 C2.68 12 1.36 12 0 12 C0 8.04 0 4.08 0 0 Z " fill="#3B60AF" transform="translate(677,121)"/>
<path d="M0 0 C1.03125 0.33 2.0625 0.66 3.125 1 C6.49256169 1.97679781 9.48743992 2.08168744 13 2 C13.66 2.33 14.32 2.66 15 3 C15 4.32 15 5.64 15 7 C13.741875 7.04125 12.48375 7.0825 11.1875 7.125 C10.47980469 7.14820312 9.77210938 7.17140625 9.04296875 7.1953125 C7 7 7 7 4 5 C3.01 5 2.02 5 1 5 C0.67 3.35 0.34 1.7 0 0 Z " fill="#013298" transform="translate(268,98)"/>
<path d="M0 0 C1.45742463 -0.08096803 2.91612807 -0.13917774 4.375 -0.1875 C5.18710937 -0.22230469 5.99921875 -0.25710937 6.8359375 -0.29296875 C7.55007813 -0.19628906 8.26421875 -0.09960938 9 0 C9.66 0.99 10.32 1.98 11 3 C10.01 3.495 10.01 3.495 9 4 C8.27840576 5.64363134 7.60648579 7.31050386 7 9 C5.68 8.67 4.36 8.34 3 8 C2.67 6.68 2.34 5.36 2 4 C1.34 4 0.68 4 0 4 C0 2.68 0 1.36 0 0 Z " fill="#1845A1" transform="translate(685,57)"/>
<path d="M0 0 C3.375 -0.1875 3.375 -0.1875 7 0 C7.66 0.99 8.32 1.98 9 3 C8.4375 5.625 8.4375 5.625 7 8 C4.375 8.8125 4.375 8.8125 2 9 C0.50178941 5.62902617 0 3.79557881 0 0 Z " fill="#1D47A3" transform="translate(667,57)"/>
<path d="M0 0 C5.53846154 -0.36923077 5.53846154 -0.36923077 7.875 1.5 C8.24625 1.995 8.6175 2.49 9 3 C8.34 4.32 7.68 5.64 7 7 C4.69 7 2.38 7 0 7 C-0.33 7.66 -0.66 8.32 -1 9 C-2.60031344 5.79937313 -1.03173691 3.27728194 0 0 Z " fill="#1844A2" transform="translate(708,82)"/>
<path d="M0 0 C1.32 0 2.64 0 4 0 C4.33 4.62 4.66 9.24 5 14 C3.68 14.33 2.36 14.66 1 15 C-0.44207941 12.11584117 -0.09394887 9.58278472 -0.0625 6.375 C-0.05347656 5.18648438 -0.04445313 3.99796875 -0.03515625 2.7734375 C-0.02355469 1.85820313 -0.01195312 0.94296875 0 0 Z " fill="#1C49A3" transform="translate(563,79)"/>
<path d="M0 0 C3.63 0 7.26 0 11 0 C11 0.66 11 1.32 11 2 C8.03 2 5.06 2 2 2 C2 3.32 2 4.64 2 6 C4.64 6 7.28 6 10 6 C10 6.66 10 7.32 10 8 C8.88625 8.103125 7.7725 8.20625 6.625 8.3125 C5.42875 8.539375 4.2325 8.76625 3 9 C2.34 9.99 1.68 10.98 1 12 C-0.82089479 8.35821043 -0.05121113 3.99446852 0 0 Z " fill="#033399" transform="translate(723,144)"/>
<path d="M0 0 C2.75 -0.3125 2.75 -0.3125 6 0 C10 4 10 4 10 7 C8.72125 7.061875 7.4425 7.12375 6.125 7.1875 C5.40570313 7.22230469 4.68640625 7.25710937 3.9453125 7.29296875 C3.30335938 7.19628906 2.66140625 7.09960938 2 7 C0 4 0 4 0 0 Z " fill="#05359A" transform="translate(284,153)"/>
<path d="M0 0 C0.125 2.375 0.125 2.375 0 5 C-0.66 5.66 -1.32 6.32 -2 7 C-3.32 7 -4.64 7 -6 7 C-6 6.34 -6 5.68 -6 5 C-6.99 5 -7.98 5 -9 5 C-9 3.35 -9 1.7 -9 0 C-2.25 -1.125 -2.25 -1.125 0 0 Z " fill="#1F49A5" transform="translate(705,146)"/>
<path d="M0 0 C0.33 0 0.66 0 1 0 C1.33 4.29 1.66 8.58 2 13 C5.63 13 9.26 13 13 13 C13 13.99 13 14.98 13 16 C8.71 16 4.42 16 0 16 C0 10.72 0 5.44 0 0 Z " fill="#315AAB" transform="translate(719,79)"/>
<path d="M0 0 C0.99 0 1.98 0 3 0 C3 5.28 3 10.56 3 16 C1.68 16 0.36 16 -1 16 C-0.67 10.72 -0.34 5.44 0 0 Z " fill="#043499" transform="translate(628,79)"/>
<path d="M0 0 C0.33 0 0.66 0 1 0 C1.33 2.31 1.66 4.62 2 7 C3.32 7 4.64 7 6 7 C6.33 6.34 6.66 5.68 7 5 C8.32 5.33 9.64 5.66 11 6 C10 8.5 10 8.5 8 11 C5.20625708 11.46837899 2.85778964 11.23424505 0 11 C-1.125 9.4375 -1.125 9.4375 -2 7 C-1.125 3.25 -1.125 3.25 0 0 Z " fill="#1642A1" transform="translate(541,122)"/>
<path d="M0 0 C2.05078125 0.03255208 4.1015625 0.06510417 6.15234375 0.09765625 C6.48234375 2.73765625 6.81234375 5.37765625 7.15234375 8.09765625 C6.16234375 8.59265625 6.16234375 8.59265625 5.15234375 9.09765625 C4.49234375 8.43765625 3.83234375 7.77765625 3.15234375 7.09765625 C3.48234375 6.43765625 3.81234375 5.77765625 4.15234375 5.09765625 C1.84234375 5.42765625 -0.46765625 5.75765625 -2.84765625 6.09765625 C-2.89037725 4.4315372 -2.88829457 2.7638274 -2.84765625 1.09765625 C-1.84765625 0.09765625 -1.84765625 0.09765625 0 0 Z " fill="#C5D3E6" transform="translate(626.84765625,123.90234375)"/>
<path d="M0 0 C0.66 0.66 1.32 1.32 2 2 C4.06874034 2.6425235 4.06874034 2.6425235 6 3 C6 3.66 6 4.32 6 5 C5.01 5.495 5.01 5.495 4 6 C4 7.32 4 8.64 4 10 C3.401875 9.814375 2.80375 9.62875 2.1875 9.4375 C-0.16408762 8.77906313 -0.16408762 8.77906313 -3 10 C-3 8.68 -3 7.36 -3 6 C-3.66 5.67 -4.32 5.34 -5 5 C-5 4.34 -5 3.68 -5 3 C-4.360625 2.87625 -3.72125 2.7525 -3.0625 2.625 C-2.0415625 2.315625 -2.0415625 2.315625 -1 2 C-0.67 1.34 -0.34 0.68 0 0 Z " fill="#E2BD10" transform="translate(409,71)"/>
<path d="M0 0 C3.625 0.375 3.625 0.375 6.0625 2.375 C6.8359375 3.365 6.8359375 3.365 7.625 4.375 C5.6875 4.9375 5.6875 4.9375 3.625 5.375 C3.295 5.045 2.965 4.715 2.625 4.375 C0.95882885 4.33436168 -0.70888095 4.332279 -2.375 4.375 C-2.705 6.355 -3.035 8.335 -3.375 10.375 C-3.705 9.055 -4.035 7.735 -4.375 6.375 C-5.365 6.375 -6.355 6.375 -7.375 6.375 C-4.640625 0.515625 -4.640625 0.515625 0 0 Z " fill="#1945A1" transform="translate(694.375,78.625)"/>
<path d="M0 0 C0.99 0.33 1.98 0.66 3 1 C2.67 1.66 2.34 2.32 2 3 C3.32 3.66 4.64 4.32 6 5 C2.37 5 -1.26 5 -5 5 C-5 9.95 -5 14.9 -5 20 C-1.04 20 2.92 20 7 20 C7 20.33 7 20.66 7 21 C2.71 21 -1.58 21 -6 21 C-6 15.39 -6 9.78 -6 4 C-4.35 4 -2.7 4 -1 4 C-0.67 2.68 -0.34 1.36 0 0 Z " fill="#5B7CBF" transform="translate(713,139)"/>
<path d="M0 0 C0.99 0 1.98 0 3 0 C3 5.61 3 11.22 3 17 C2.01 17 1.02 17 0 17 C0 11.39 0 5.78 0 0 Z " fill="#07389A" transform="translate(583,143)"/>
<path d="M0 0 C-0.66 1.32 -1.32 2.64 -2 4 C-2.99 4 -3.98 4 -5 4 C-5.33 4.66 -5.66 5.32 -6 6 C-8.21267406 8.95023208 -9.90812473 10.93874982 -13 13 C-12.46608326 8.46170772 -10.80333268 5.5820362 -8 2 C-3.71641791 -1.23880597 -3.71641791 -1.23880597 0 0 Z " fill="#0F3D9D" transform="translate(141,127)"/>
<path d="M0 0 C1.70884005 1.62339805 3.37446717 3.29319053 5 5 C5 5.66 5 6.32 5 7 C1.7 7.33 -1.6 7.66 -5 8 C-5.66 6.68 -6.32 5.36 -7 4 C-6.01 4 -5.02 4 -4 4 C-4 3.34 -4 2.68 -4 2 C-2.68 2 -1.36 2 0 2 C0 1.34 0 0.68 0 0 Z " fill="#96A7DE" transform="translate(159,66)"/>
<path d="M0 0 C0.33 0 0.66 0 1 0 C1 2.64 1 5.28 1 8 C-1.97 8 -4.94 8 -8 8 C-8.38218767 6.34385343 -8.71395102 4.67542976 -9 3 C-8 2 -8 2 -5.4375 1.9375 C-4.2309375 1.9684375 -4.2309375 1.9684375 -3 2 C-3.99 3.32 -4.98 4.64 -6 6 C-2.24976089 4.7499203 -1.88151815 3.33541853 0 0 Z " fill="#0E3C9E" transform="translate(674,125)"/>
<path d="M0 0 C0.33 0.99 0.66 1.98 1 3 C2.65 3 4.3 3 6 3 C4.875 5.9375 4.875 5.9375 3 9 C-0.1875 9.875 -0.1875 9.875 -3 10 C-3 8.68 -3 7.36 -3 6 C-3.66 5.67 -4.32 5.34 -5 5 C-5 4.34 -5 3.68 -5 3 C-3.68 3 -2.36 3 -1 3 C-0.67 2.01 -0.34 1.02 0 0 Z " fill="#CFB01C" transform="translate(457,119)"/>
<path d="M0 0 C0.66 0.33 1.32 0.66 2 1 C2 1.66 2 2.32 2 3 C3.32 3.33 4.64 3.66 6 4 C5.01 5.485 5.01 5.485 4 7 C3.67 7.99 3.34 8.98 3 10 C2.38125 9.814375 1.7625 9.62875 1.125 9.4375 C-1.04160178 8.76313824 -1.04160178 8.76313824 -3 10 C-2.67 8.35 -2.34 6.7 -2 5 C-2.99 4.67 -3.98 4.34 -5 4 C-4.360625 3.71125 -3.72125 3.4225 -3.0625 3.125 C-0.84793921 2.17176549 -0.84793921 2.17176549 0 0 Z " fill="#D9B616" transform="translate(409,132)"/>
<path d="M0 0 C1.62463842 -0.05395478 3.24978541 -0.09277195 4.875 -0.125 C5.77992188 -0.14820312 6.68484375 -0.17140625 7.6171875 -0.1953125 C10 0 10 0 12 2 C11.67 2.99 11.34 3.98 11 5 C8.36 4.34 5.72 3.68 3 3 C2.67 4.32 2.34 5.64 2 7 C1.34 7 0.68 7 0 7 C0 4.69 0 2.38 0 0 Z " fill="#06369A" transform="translate(672,79)"/>
<path d="M0 0 C1.32 0 2.64 0 4 0 C4 3.96 4 7.92 4 12 C2.68 12 1.36 12 0 12 C0 8.04 0 4.08 0 0 Z " fill="#2953A8" transform="translate(575,121)"/>
<path d="M0 0 C0.66 0.66 1.32 1.32 2 2 C3.31747324 2.69748583 4.64914193 3.36959957 6 4 C5.01 4.33 4.02 4.66 3 5 C3.33 6.65 3.66 8.3 4 10 C3.21625 9.814375 2.4325 9.62875 1.625 9.4375 C-0.97089775 8.74037734 -0.97089775 8.74037734 -3 10 C-3.144375 9.21625 -3.28875 8.4325 -3.4375 7.625 C-3.87798925 5.03578982 -3.87798925 5.03578982 -5 3 C-4.360625 2.87625 -3.72125 2.7525 -3.0625 2.625 C-2.0415625 2.315625 -2.0415625 2.315625 -1 2 C-0.67 1.34 -0.34 0.68 0 0 Z " fill="#DAB716" transform="translate(457,84)"/>
<path d="M0 0 C0.99 0 1.98 0 3 0 C3 5.28 3 10.56 3 16 C2.01 16 1.02 16 0 16 C0 10.72 0 5.44 0 0 Z " fill="#013398" transform="translate(595,79)"/>
<path d="M0 0 C0.66 0.33 1.32 0.66 2 1 C2 1.99 2 2.98 2 4 C2.99 4.33 3.98 4.66 5 5 C4.67 6.65 4.34 8.3 4 10 C3.401875 9.835 2.80375 9.67 2.1875 9.5 C-0.11344336 8.8885876 -0.11344336 8.8885876 -3 9 C-3 8.01 -3 7.02 -3 6 C-3.66 5.67 -4.32 5.34 -5 5 C-5 4.34 -5 3.68 -5 3 C-4.360625 2.87625 -3.72125 2.7525 -3.0625 2.625 C-2.0415625 2.315625 -2.0415625 2.315625 -1 2 C-0.67 1.34 -0.34 0.68 0 0 Z " fill="#C5AA20" transform="translate(444,71)"/>
<path d="M0 0 C0.33 0.66 0.66 1.32 1 2 C1.78375 2.144375 2.5675 2.28875 3.375 2.4375 C6.25125721 3.05384083 7.16384707 3.77728856 9 6 C5.61905851 7.04028969 2.52637472 7.15672777 -1 7 C-2 6 -2 6 -2.0625 3.4375 C-2.041875 2.633125 -2.02125 1.82875 -2 1 C-1.34 0.67 -0.68 0.34 0 0 Z " fill="#0A399C" transform="translate(641,62)"/>
<path d="M0 0 C1.32 0 2.64 0 4 0 C4 3.96 4 7.92 4 12 C2.68 12 1.36 12 0 12 C0 8.04 0 4.08 0 0 Z " fill="#355CAD" transform="translate(633,57)"/>
<path d="M0 0 C1.32 0 2.64 0 4 0 C4 3.96 4 7.92 4 12 C2.68 12 1.36 12 0 12 C0 8.04 0 4.08 0 0 Z " fill="#345CAD" transform="translate(575,57)"/>
<path d="M0 0 C2.31 0 4.62 0 7 0 C7 0.99 7 1.98 7 3 C6.01 3.33 5.02 3.66 4 4 C3.67 6.64 3.34 9.28 3 12 C2.01 12 1.02 12 0 12 C0 8.04 0 4.08 0 0 Z " fill="#0D3B9E" transform="translate(712,57)"/>
<path d="M0 0 C0.66 0.33 1.32 0.66 2 1 C2 1.66 2 2.32 2 3 C3.32 3.33 4.64 3.66 6 4 C5.01 4.33 4.02 4.66 3 5 C3.33 6.65 3.66 8.3 4 10 C3.21625 9.814375 2.4325 9.62875 1.625 9.4375 C-0.97089775 8.74037734 -0.97089775 8.74037734 -3 10 C-3.144375 9.21625 -3.28875 8.4325 -3.4375 7.625 C-3.87798925 5.03578982 -3.87798925 5.03578982 -5 3 C-3.35 3 -1.7 3 0 3 C0 2.01 0 1.02 0 0 Z " fill="#DDB914" transform="translate(444,132)"/>
<path d="M0 0 C1.65 1.32 3.3 2.64 5 4 C5.33 3.34 5.66 2.68 6 2 C6.99 4.97 7.98 7.94 9 11 C7.68 11 6.36 11 5 11 C4.67 10.34 4.34 9.68 4 9 C0.97065509 8.34227572 0.97065509 8.34227572 -2 8 C-2 7.67 -2 7.34 -2 7 C-0.35 6.67 1.3 6.34 3 6 C1.68 5.67 0.36 5.34 -1 5 C-0.67 3.35 -0.34 1.7 0 0 Z " fill="#4F71B9" transform="translate(740,84)"/>
<path d="M0 0 C0.66 0 1.32 0 2 0 C2 1.32 2 2.64 2 4 C3.32 4.33 4.64 4.66 6 5 C5.34 6.65 4.68 8.3 4 10 C2.02 10 0.04 10 -2 10 C-2.66 8.02 -3.32 6.04 -4 4 C-2.68 4 -1.36 4 0 4 C0 2.68 0 1.36 0 0 Z " fill="#DCB814" transform="translate(426,66)"/>
<path d="M0 0 C2.97 0 5.94 0 9 0 C9 2.31 9 4.62 9 7 C6.36 7 3.72 7 1 7 C1 6.67 1 6.34 1 6 C3.31 6 5.62 6 8 6 C8 5.34 8 4.68 8 4 C5.36 4 2.72 4 0 4 C0 2.68 0 1.36 0 0 Z " fill="#B5C3E1" transform="translate(772,146)"/>
<path d="M0 0 C0.99 0 1.98 0 3 0 C3.0810206 2.10353495 3.13919907 4.20795952 3.1875 6.3125 C3.22230469 7.48425781 3.25710938 8.65601563 3.29296875 9.86328125 C3 13 3 13 1.48828125 14.91796875 C0.99714844 15.27503906 0.50601563 15.63210937 0 16 C-1.16306443 12.45049966 -0.92365049 9.44176052 -0.5625 5.75 C-0.46066406 4.67234375 -0.35882812 3.5946875 -0.25390625 2.484375 C-0.17011719 1.66453125 -0.08632813 0.8446875 0 0 Z " fill="#07379B" transform="translate(653,143)"/>
<path d="M0 0 C2.97 0.495 2.97 0.495 6 1 C5.67 2.98 5.34 4.96 5 7 C3.02 7 1.04 7 -1 7 C-1.625 5.1875 -1.625 5.1875 -2 3 C-1.34 2.01 -0.68 1.02 0 0 Z " fill="#17439F" transform="translate(596,126)"/>
<path d="M0 0 C1.32 0.33 2.64 0.66 4 1 C4 1.99 4 2.98 4 4 C3.34 4 2.68 4 2 4 C2.350625 4.5775 2.70125 5.155 3.0625 5.75 C4 8 4 8 3 12 C0.69 10.35 -1.62 8.7 -4 7 C-3.67 6.01 -3.34 5.02 -3 4 C-2.34 4.33 -1.68 4.66 -1 5 C-0.67 3.35 -0.34 1.7 0 0 Z " fill="#053499" transform="translate(227,82)"/>
<path d="M0 0 C0.33 0.99 0.66 1.98 1 3 C3.64 3 6.28 3 9 3 C9 4.32 9 5.64 9 7 C5.04 7 1.08 7 -3 7 C-2.34 6.67 -1.68 6.34 -1 6 C-0.34227572 2.97065509 -0.34227572 2.97065509 0 0 Z " fill="#4568B5" transform="translate(772,153)"/>
<path d="M0 0 C0.33 0.66 0.66 1.32 1 2 C1.66 2 2.32 2 3 2 C3.144375 3.11375 3.28875 4.2275 3.4375 5.375 C3.78372035 8.82142047 3.78372035 8.82142047 5 11 C4.01 11 3.02 11 2 11 C2 11.66 2 12.32 2 13 C0.68 12.67 -0.64 12.34 -2 12 C-1.01 12 -0.02 12 1 12 C-0.98 8.535 -0.98 8.535 -3 5 C-2.34 4.67 -1.68 4.34 -1 4 C-0.34786708 1.97536745 -0.34786708 1.97536745 0 0 Z " fill="#D8E1EF" transform="translate(672,147)"/>
<path d="M0 0 C0.66 0 1.32 0 2 0 C2 0.99 2 1.98 2 3 C3.32 3.33 4.64 3.66 6 4 C5.34 5.65 4.68 7.3 4 9 C2.02 9 0.04 9 -2 9 C-2.66 7.02 -3.32 5.04 -4 3 C-2.68 3 -1.36 3 0 3 C0 2.01 0 1.02 0 0 Z " fill="#E7BE0F" transform="translate(426,137)"/>
<path d="M0 0 C2.97 0.495 2.97 0.495 6 1 C2.375 5.875 2.375 5.875 -1 7 C-0.01 7.33 0.98 7.66 2 8 C2 8.66 2 9.32 2 10 C0.68 10 -0.64 10 -2 10 C-2 9.34 -2 8.68 -2 8 C-2.99 7.67 -3.98 7.34 -5 7 C-3.35 4.69 -1.7 2.38 0 0 Z " fill="#859DCD" transform="translate(638,116)"/>
<path d="M0 0 C0.66 0 1.32 0 2 0 C2 0.99 2 1.98 2 3 C3.32 3.33 4.64 3.66 6 4 C5.34 5.65 4.68 7.3 4 9 C2.02 9 0.04 9 -2 9 C-2.66 7.02 -3.32 5.04 -4 3 C-2.68 3 -1.36 3 0 3 C0 2.01 0 1.02 0 0 Z " fill="#E5BD11" transform="translate(391,102)"/>
<path d="M0 0 C0.66 0 1.32 0 2 0 C2 0.99 2 1.98 2 3 C3.32 3.33 4.64 3.66 6 4 C5.34 5.65 4.68 7.3 4 9 C2.02 9 0.04 9 -2 9 C-2.66 7.02 -3.32 5.04 -4 3 C-2.68 3 -1.36 3 0 3 C0 2.01 0 1.02 0 0 Z " fill="#E4BC10" transform="translate(461,102)"/>
<path d="M0 0 C0.99 0 1.98 0 3 0 C3 5.28 3 10.56 3 16 C2.34 15.01 1.68 14.02 1 13 C0.34 12.67 -0.32 12.34 -1 12 C-1.02687279 10.18757948 -1.04633715 8.37504767 -1.0625 6.5625 C-1.07410156 5.55316406 -1.08570313 4.54382813 -1.09765625 3.50390625 C-1 1 -1 1 0 0 Z " fill="#C7D2E7" transform="translate(616,79)"/>
<path d="M0 0 C0.33 1.65 0.66 3.3 1 5 C3.31 5 5.62 5 8 5 C7.34 6.32 6.68 7.64 6 9 C0.57142857 9.36190476 0.57142857 9.36190476 -1.875 7.8125 C-3.34781139 5.43963721 -3.22223194 3.74086056 -3 1 C-1 0 -1 0 0 0 Z " fill="#0A399B" transform="translate(701,60)"/>
<path d="M0 0 C2.97 0 5.94 0 9 0 C9 1.65 9 3.3 9 5 C8.01 5 7.02 5 6 5 C3.99690671 5.31421071 1.99628664 5.6451046 0 6 C0 4.02 0 2.04 0 0 Z " fill="#EBEFF5" transform="translate(624,60)"/>
<path d="M0 0 C0.66 0 1.32 0 2 0 C2 4.95 2 9.9 2 15 C0.68 14.67 -0.64 14.34 -2 14 C-2.33 12.68 -2.66 11.36 -3 10 C-2.01 9.67 -1.02 9.34 0 9 C0 6.03 0 3.06 0 0 Z " fill="#043399" transform="translate(747,144)"/>
<path d="M0 0 C0.268125 0.639375 0.53625 1.27875 0.8125 1.9375 C1.88667752 4.33131686 1.88667752 4.33131686 5 5 C4.67 6.65 4.34 8.3 4 10 C3.401875 9.814375 2.80375 9.62875 2.1875 9.4375 C-0.16408762 8.77906313 -0.16408762 8.77906313 -3 10 C-3.33 8.02 -3.66 6.04 -4 4 C-3.01 3.67 -2.02 3.34 -1 3 C-0.67 2.01 -0.34 1.02 0 0 Z " fill="#E0BB12" transform="translate(396,119)"/>
<path d="M0 0 C3 1 3 1 4.5625 3.9375 C5.036875 4.948125 5.51125 5.95875 6 7 C6.66 7.66 7.32 8.32 8 9 C8.625 11.125 8.625 11.125 9 13 C8.01 13.33 7.02 13.66 6 14 C4.02 10.7 2.04 7.4 0 4 C0.66 4 1.32 4 2 4 C2 3.34 2 2.68 2 2 C1.34 2 0.68 2 0 2 C0 1.34 0 0.68 0 0 Z " fill="#0F3C9E" transform="translate(582,81)"/>
<path d="M0 0 C0.33 0 0.66 0 1 0 C1.33 1.65 1.66 3.3 2 5 C2.99 5 3.98 5 5 5 C5.33 5 5.66 5 6 5 C6 7.31 6 9.62 6 12 C3 12 3 12 1.32421875 10.79296875 C-0.38179304 8.48305898 -0.31091704 7.15109181 -0.1875 4.3125 C-0.16042969 3.50425781 -0.13335937 2.69601563 -0.10546875 1.86328125 C-0.07066406 1.24839844 -0.03585938 0.63351563 0 0 Z " fill="#1946A2" transform="translate(221,75)"/>
<path d="M0 0 C1.32 0 2.64 0 4 0 C4 3.63 4 7.26 4 11 C3.01 11 2.02 11 1 11 C-0.20272819 8.59454362 -0.10071472 7.05003047 -0.0625 4.375 C-0.05347656 3.55773438 -0.04445313 2.74046875 -0.03515625 1.8984375 C-0.02355469 1.27195313 -0.01195312 0.64546875 0 0 Z " fill="#FCFDFA" transform="translate(585,60)"/>
<path d="M0 0 C0.99 0 1.98 0 3 0 C3.08075665 2.29109597 3.13907731 4.58299267 3.1875 6.875 C3.22230469 8.15117188 3.25710938 9.42734375 3.29296875 10.7421875 C3.19628906 11.81726563 3.09960938 12.89234375 3 14 C2.01 14.66 1.02 15.32 0 16 C0 12.37 0 8.74 0 5 C0.66 5 1.32 5 2 5 C2 4.34 2 3.68 2 3 C1.34 3 0.68 3 0 3 C0 2.01 0 1.02 0 0 Z " fill="#F0F3F8" transform="translate(572,119)"/>
<path d="M0 0 C2.61940964 2.50552226 3.95696227 3.85347491 4.09765625 7.6015625 C4.08605469 8.59929687 4.07445313 9.59703125 4.0625 10.625 C4.05347656 11.62789062 4.04445313 12.63078125 4.03515625 13.6640625 C4.02355469 14.43492187 4.01195313 15.20578125 4 16 C3.67 16 3.34 16 3 16 C2.67 14.35 2.34 12.7 2 11 C1.01 10.67 0.02 10.34 -1 10 C-1 8.68 -1 7.36 -1 6 C-0.34 6 0.32 6 1 6 C0.67 4.02 0.34 2.04 0 0 Z " fill="#1441A0" transform="translate(120,132)"/>
<path d="M0 0 C0.66 0 1.32 0 2 0 C2 0.66 2 1.32 2 2 C2.99 2 3.98 2 5 2 C5.33 3.65 5.66 5.3 6 7 C3.69 7 1.38 7 -1 7 C-1.625 4.625 -1.625 4.625 -2 2 C-1.34 1.34 -0.68 0.68 0 0 Z " fill="#4166B2" transform="translate(546,88)"/>
<path d="M0 0 C3.3 0 6.6 0 10 0 C9.67 1.32 9.34 2.64 9 4 C7.35 4 5.7 4 4 4 C3.67 4.66 3.34 5.32 3 6 C2.01 5.67 1.02 5.34 0 5 C0.66 4.01 1.32 3.02 2 2 C1.34 2 0.68 2 0 2 C-0.33 2.66 -0.66 3.32 -1 4 C-0.67 2.68 -0.34 1.36 0 0 Z " fill="#1A46A5" transform="translate(134,73)"/>
<path d="M0 0 C0.66 1.32 1.32 2.64 2 4 C-0.31 3.67 -2.62 3.34 -5 3 C-5 4.65 -5 6.3 -5 8 C-5.66 7.01 -6.32 6.02 -7 5 C-7.66 5.99 -8.32 6.98 -9 8 C-9.22223194 5.25913944 -9.34781139 3.56036279 -7.875 1.1875 C-5.22464043 -0.49106106 -3.06753576 -0.20450238 0 0 Z " fill="#1F49A2" transform="translate(629,57)"/>
<path d="M0 0 C0.33 0 0.66 0 1 0 C1 2.31 1 4.62 1 7 C6.94 7 12.88 7 19 7 C19 7.33 19 7.66 19 8 C17.87980469 8.04898438 16.75960937 8.09796875 15.60546875 8.1484375 C14.13278797 8.22347856 12.66013293 8.29902582 11.1875 8.375 C10.44951172 8.4059375 9.71152344 8.436875 8.95117188 8.46875 C5.18106885 8.67346148 3.20349259 8.86433827 0 11 C-1.37432457 7.18243176 -0.67975039 3.92744671 0 0 Z M-2 11 C-1.34 11.33 -0.68 11.66 0 12 C-0.33 12.66 -0.66 13.32 -1 14 C-1.66 13.67 -2.32 13.34 -3 13 C-2.67 12.34 -2.34 11.68 -2 11 Z " fill="#486BB6" transform="translate(205,146)"/>
<path d="M0 0 C-0.33 0.680625 -0.66 1.36125 -1 2.0625 C-2.17307315 5.50840238 -2.14180493 8.38397422 -2 12 C-2.66 12 -3.32 12 -4 12 C-4.33 11.01 -4.66 10.02 -5 9 C-4.67 8.34 -4.34 7.68 -4 7 C-4.66 7 -5.32 7 -6 7 C-6 8.65 -6 10.3 -6 12 C-6.33 12 -6.66 12 -7 12 C-7.44117322 7.50003317 -7.52867608 5.65388883 -4.625 2.0625 C-2 0 -2 0 0 0 Z " fill="#274EA8" transform="translate(595,143)"/>
<path d="M0 0 C0.99 0 1.98 0 3 0 C3 4.29 3 8.58 3 13 C2.01 13 1.02 13 0 13 C0 8.71 0 4.42 0 0 Z " fill="#06369A" transform="translate(551,143)"/>
<path d="M0 0 C0.66 0.33 1.32 0.66 2 1 C2 1.99 2 2.98 2 4 C2.99 4.33 3.98 4.66 5 5 C4.67 6.65 4.34 8.3 4 10 C1.125 9.8125 1.125 9.8125 -2 9 C-3.375 6.4375 -3.375 6.4375 -4 4 C-3.01 3.67 -2.02 3.34 -1 3 C-0.67 2.01 -0.34 1.02 0 0 Z " fill="#E6BF0F" transform="translate(396,84)"/>
<path d="M0 0 C1.98 0.99 1.98 0.99 4 2 C4.36923077 9.50769231 4.36923077 9.50769231 2.5 12 C2.005 12.33 1.51 12.66 1 13 C0.1276588 10.00519083 -0.10829766 7.36424089 -0.0625 4.25 C-0.05347656 3.45078125 -0.04445313 2.6515625 -0.03515625 1.828125 C-0.02355469 1.22484375 -0.01195312 0.6215625 0 0 Z " fill="#0C3A9C" transform="translate(686,145)"/>
<path d="M0 0 C0.66 0 1.32 0 2 0 C2 4.95 2 9.9 2 15 C0.68 14.67 -0.64 14.34 -2 14 C-2 12.68 -2 11.36 -2 10 C-1.34 10 -0.68 10 0 10 C0 6.7 0 3.4 0 0 Z " fill="#023398" transform="translate(577,144)"/>
<path d="M0 0 C0.66 0.33 1.32 0.66 2 1 C2 6.28 2 11.56 2 17 C1.67 17 1.34 17 1 17 C1 15.35 1 13.7 1 12 C0.34 12 -0.32 12 -1 12 C-1.02698189 10.37509046 -1.04638757 8.75005367 -1.0625 7.125 C-1.07410156 6.22007812 -1.08570313 5.31515625 -1.09765625 4.3828125 C-1 2 -1 2 0 0 Z " fill="#E3E8F3" transform="translate(565,142)"/>
<path d="M0 0 C-0.33 0.33 -0.66 0.66 -1 1 C0.32 1.66 1.64 2.32 3 3 C1.35 4.32 -0.3 5.64 -2 7 C-2 6.01 -2 5.02 -2 4 C-3.65 4 -5.3 4 -7 4 C-7.33 2.68 -7.66 1.36 -8 0 C-2.25 -1.125 -2.25 -1.125 0 0 Z " fill="#1744A2" transform="translate(281,85)"/>
<path d="M0 0 C0.99 0 1.98 0 3 0 C3 4.29 3 8.58 3 13 C2.01 13.495 2.01 13.495 1 14 C-0.04976964 10.85069107 -0.10131595 8.61185544 -0.0625 5.3125 C-0.05347656 4.31863281 -0.04445313 3.32476562 -0.03515625 2.30078125 C-0.02355469 1.54152344 -0.01195312 0.78226562 0 0 Z " fill="#1644A1" transform="translate(573,79)"/>
<path d="M0 0 C0.54140625 0.32742187 1.0828125 0.65484375 1.640625 0.9921875 C4.50719067 2.21664767 6.6452987 2.19892146 9.75 2.125 C10.73484375 2.10695312 11.7196875 2.08890625 12.734375 2.0703125 C13.48203125 2.04710937 14.2296875 2.02390625 15 2 C14.01 3.485 14.01 3.485 13 5 C10.36 4.67 7.72 4.34 5 4 C5 4.66 5 5.32 5 6 C3.68 6.33 2.36 6.66 1 7 C-1 4 -1 4 -0.625 1.8125 C-0.41875 1.214375 -0.2125 0.61625 0 0 Z " fill="#214CA5" transform="translate(97,150)"/>
<path d="M0 0 C-0.33 1.98 -0.66 3.96 -1 6 C-2.8125 6.625 -2.8125 6.625 -5 7 C-5.99 6.34 -6.98 5.68 -8 5 C-7.8125 3.125 -7.8125 3.125 -7 1 C-2.66666667 -1.33333333 -2.66666667 -1.33333333 0 0 Z " fill="#013298" transform="translate(154,90)"/>
<path d="M0 0 C2.31 0.33 4.62 0.66 7 1 C7 3 7 5 7 7 C5.00045254 7.04254356 2.99958364 7.04080783 1 7 C0 6 0 6 -0.0625 2.9375 C-0.041875 1.968125 -0.02125 0.99875 0 0 Z " fill="#013396" transform="translate(222,74)"/>
<path d="M0 0 C0.66 0 1.32 0 2 0 C2.33 0.99 2.66 1.98 3 3 C5.31 3 7.62 3 10 3 C9.34 4.32 8.68 5.64 8 7 C5.125 7.125 5.125 7.125 2 7 C0 5 0 5 -0.125 2.375 C-0.08375 1.59125 -0.0425 0.8075 0 0 Z " fill="#0A389B" transform="translate(621,126)"/>
<path d="M0 0 C2.97 0 5.94 0 9 0 C9 0.99 9 1.98 9 3 C6.36 3 3.72 3 1 3 C1 4.32 1 5.64 1 7 C0.34 7 -0.32 7 -1 7 C-0.67 4.69 -0.34 2.38 0 0 Z " fill="#103E9E" transform="translate(722,85)"/>
<path d="M0 0 C1.32 0.33 2.64 0.66 4 1 C3.67 1.99 3.34 2.98 3 4 C2.77820215 5.89212737 2.59385985 7.78884472 2.4375 9.6875 C2.31181641 11.17830078 2.31181641 11.17830078 2.18359375 12.69921875 C2.12300781 13.45847656 2.06242188 14.21773437 2 15 C1.34 15 0.68 15 0 15 C0 10.05 0 5.1 0 0 Z " fill="#023399" transform="translate(607,144)"/>
<path d="M0 0 C-0.33 1.32 -0.66 2.64 -1 4 C-3.8125 4.25 -3.8125 4.25 -7 4 C-8.875 2 -8.875 2 -10 0 C-6.30581799 -1.231394 -3.7943739 -0.64432764 0 0 Z " fill="#224DA5" transform="translate(561,156)"/>
<path d="M0 0 C0.33 0 0.66 0 1 0 C1.66 2.64 2.32 5.28 3 8 C5.97 8.33 8.94 8.66 12 9 C12 9.33 12 9.66 12 10 C9.36 10 6.72 10 4 10 C3.67 10.99 3.34 11.98 3 13 C3 12.01 3 11.02 3 10 C2.34 10 1.68 10 1 10 C1 11.98 1 13.96 1 16 C0.67 16 0.34 16 0 16 C0 10.72 0 5.44 0 0 Z " fill="#6281C1" transform="translate(628,143)"/>
<path d="M0 0 C0.66 0.66 1.32 1.32 2 2 C3.98821313 2.39764263 5.98944339 2.73775349 8 3 C7.67 3.66 7.34 4.32 7 5 C4.9375 5.625 4.9375 5.625 3 6 C2.67 7.98 2.34 9.96 2 12 C1.34 12 0.68 12 0 12 C0 8.04 0 4.08 0 0 Z " fill="#023397" transform="translate(660,147)"/>
<path d="M0 0 C0 3.63 0 7.26 0 11 C-2.97 10.505 -2.97 10.505 -6 10 C-5.34 9.34 -4.68 8.68 -4 8 C-3.835 6.824375 -3.67 5.64875 -3.5 4.4375 C-3.335 3.303125 -3.17 2.16875 -3 1 C-1 0 -1 0 0 0 Z " fill="#08379B" transform="translate(662,58)"/>
<path d="M0 0 C1.65 0.33 3.3 0.66 5 1 C5 2.98 5 4.96 5 7 C2.69 7.66 0.38 8.32 -2 9 C-2 7.68 -2 6.36 -2 5 C-1.01 5.33 -0.02 5.66 1 6 C1.6814823 4.10820797 1.6814823 4.10820797 2 2 C1.34 1.34 0.68 0.68 0 0 Z " fill="#1B4288" transform="translate(398,122)"/>
<path d="M0 0 C2.97 0 5.94 0 9 0 C9 0.66 9 1.32 9 2 C7.35 2.33 5.7 2.66 4 3 C3.67 4.65 3.34 6.3 3 8 C2.01 8.33 1.02 8.66 0 9 C0 6.03 0 3.06 0 0 Z " fill="#E2E9F3" transform="translate(592,124)"/>
<path d="M0 0 C0.33 0 0.66 0 1 0 C1.042721 1.66611905 1.04063832 3.33382885 1 5 C0 6 0 6 -1.84765625 6.09765625 C-3.8984375 6.06510417 -5.94921875 6.03255208 -8 6 C-7.67 4.68 -7.34 3.36 -7 2 C-6.21625 2.04125 -5.4325 2.0825 -4.625 2.125 C-1.83883881 2.28728734 -1.83883881 2.28728734 0 0 Z " fill="#013397" transform="translate(126,90)"/>
<path d="M0 0 C0.33 0 0.66 0 1 0 C1 5.28 1 10.56 1 16 C-2 13 -2 13 -2.3125 9.125 C-2.19349602 5.73025484 -1.5337071 3.0674142 0 0 Z " fill="#C9D5E9" transform="translate(704,79)"/>
<path d="M0 0 C1.98 0 3.96 0 6 0 C5.67 0.804375 5.34 1.60875 5 2.4375 C3.93940959 4.69681125 3.93940959 4.69681125 4 6 C3.0206121 7.02019573 2.02104551 8.02149805 1 9 C-0.4783226 6.04335481 -0.06032783 3.25770263 0 0 Z " fill="#133FA1" transform="translate(258,77)"/>
<path d="M0 0 C3.3 0 6.6 0 10 0 C10 0.66 10 1.32 10 2 C7.69 2 5.38 2 3 2 C2.67 3.65 2.34 5.3 2 7 C1.34 6.67 0.68 6.34 0 6 C0 4.02 0 2.04 0 0 Z " fill="#023398" transform="translate(693,144)"/>
<path d="M0 0 C1.99954746 -0.04254356 4.00041636 -0.04080783 6 0 C7 1 7 1 7.0625 3.5625 C7.041875 4.366875 7.02125 5.17125 7 6 C4.69 6 2.38 6 0 6 C0 5.34 0 4.68 0 4 C1.32 4 2.64 4 4 4 C4 3.34 4 2.68 4 2 C2.68 1.67 1.36 1.34 0 1 C0 0.67 0 0.34 0 0 Z " fill="#12409E" transform="translate(636,122)"/>
<path d="M0 0 C3.96 0 7.92 0 12 0 C12 0.99 12 1.98 12 3 C10.37581255 3.08090971 8.75048255 3.13914995 7.125 3.1875 C5.76761719 3.23970703 5.76761719 3.23970703 4.3828125 3.29296875 C3.20332031 3.14794922 3.20332031 3.14794922 2 3 C1.34 2.01 0.68 1.02 0 0 Z " fill="#1A46A0" transform="translate(769,143)"/>
<path d="M0 0 C5.75 0.75 5.75 0.75 8 3 C7.625 5.125 7.625 5.125 7 7 C6.13375 6.319375 6.13375 6.319375 5.25 5.625 C3.2199667 4.15886484 1.26460157 3.05142216 -1 2 C-0.67 1.34 -0.34 0.68 0 0 Z " fill="#0C3A9C" transform="translate(595,143)"/>
<path d="M0 0 C0.66 0.33 1.32 0.66 2 1 C2 4.3 2 7.6 2 11 C1.01 11 0.02 11 -1 11 C-1.02688151 9.35425434 -1.04634123 7.70838587 -1.0625 6.0625 C-1.07410156 5.14597656 -1.08570313 4.22945313 -1.09765625 3.28515625 C-1 1 -1 1 0 0 Z " fill="#033298" transform="translate(590,122)"/>
<path d="M0 0 C0.99 0 1.98 0 3 0 C3.22223194 2.74086056 3.34781139 4.43963721 1.875 6.8125 C-0.77535957 8.49106106 -2.93246424 8.20450238 -6 8 C-5 6 -5 6 -2.4375 4.5625 C-1.633125 4.046875 -0.82875 3.53125 0 3 C0 2.01 0 1.02 0 0 Z " fill="#113E9E" transform="translate(563,125)"/>
<path d="M0 0 C-0.495 0.391875 -0.99 0.78375 -1.5 1.1875 C-3.45593143 3.55091715 -3.24207973 5.01435003 -3 8 C-4.32 8 -5.64 8 -7 8 C-7.25 5.1875 -7.25 5.1875 -7 2 C-4.34311663 -0.84011671 -3.7870049 -1.26233497 0 0 Z " fill="#083698" transform="translate(561,58)"/>
<path d="M0 0 C1.485 0.99 1.485 0.99 3 2 C5.64632287 1.6878236 5.64632287 1.6878236 8 1 C8.33 2.32 8.66 3.64 9 5 C5.625 5.625 5.625 5.625 2 6 C1.34 5.34 0.68 4.68 0 4 C0 2.68 0 1.36 0 0 Z " fill="#1F4AA4" transform="translate(678,154)"/>
<path d="M0 0 C1.32 0.33 2.64 0.66 4 1 C3.01 1 2.02 1 1 1 C1 4.63 1 8.26 1 12 C1.99 12.33 2.98 12.66 4 13 C0.7 13 -2.6 13 -6 13 C-4.68 12.67 -3.36 12.34 -2 12 C-1.34 8.04 -0.68 4.08 0 0 Z " fill="#B2C3DF" transform="translate(581,121)"/>
<path d="M0 0 C0.99 0 1.98 0 3 0 C3.125 2.875 3.125 2.875 3 6 C1 8 1 8 -1.625 8.125 C-2.40875 8.08375 -3.1925 8.0425 -4 8 C-4.33 7.34 -4.66 6.68 -5 6 C-3.35 6 -1.7 6 0 6 C0 4.02 0 2.04 0 0 Z " fill="#083798" transform="translate(660,125)"/>
<path d="M0 0 C0.99 0.33 1.98 0.66 3 1 C2.34 1 1.68 1 1 1 C1 4.63 1 8.26 1 12 C-1.31 12.33 -3.62 12.66 -6 13 C-5.67 12.34 -5.34 11.68 -5 11 C-4.01 11.33 -3.02 11.66 -2 12 C-2 10.35 -2 8.7 -2 7 C-1.34 7 -0.68 7 0 7 C0 4.69 0 2.38 0 0 Z " fill="#B7C8E3" transform="translate(607,121)"/>
<path d="M0 0 C6.625 -0.25 6.625 -0.25 10 2 C8 4 8 4 6.0546875 4.1953125 C4.03645833 4.13020833 2.01822917 4.06510417 0 4 C0 2.68 0 1.36 0 0 Z " fill="#113E9E" transform="translate(658,91)"/>
<path d="M0 0 C0.8971875 0.309375 0.8971875 0.309375 1.8125 0.625 C1.8125 1.945 1.8125 3.265 1.8125 4.625 C-2.6425 5.12 -2.6425 5.12 -7.1875 5.625 C-7.1875 4.965 -7.1875 4.305 -7.1875 3.625 C-6.5275 3.625 -5.8675 3.625 -5.1875 3.625 C-5.1875 2.965 -5.1875 2.305 -5.1875 1.625 C-2.1875 -0.375 -2.1875 -0.375 0 0 Z " fill="#98A9E0" transform="translate(251.1875,71.375)"/>
<path d="M0 0 C0.99 0 1.98 0 3 0 C3 2.31 3 4.62 3 7 C2.01 7 1.02 7 0 7 C-0.33 7.66 -0.66 8.32 -1 9 C-1.09765625 2.84765625 -1.09765625 2.84765625 -1 1 C-0.67 0.67 -0.34 0.34 0 0 Z " fill="#F4F7F9" transform="translate(586,124)"/>
<path d="M0 0 C0.99 0.33 1.98 0.66 3 1 C3.33 2.98 3.66 4.96 4 7 C3.01 7.33 2.02 7.66 1 8 C-0.32 6.02 -1.64 4.04 -3 2 C-2.01 1.34 -1.02 0.68 0 0 Z " fill="#EAF0F6" transform="translate(684,86)"/>
<path d="M0 0 C2.875 -0.1875 2.875 -0.1875 6 0 C6.66 0.99 7.32 1.98 8 3 C7.01 3 6.02 3 5 3 C4.67 3.66 4.34 4.32 4 5 C4 4.34 4 3.68 4 3 C2.02 3.33 0.04 3.66 -2 4 C-1.34 2.68 -0.68 1.36 0 0 Z " fill="#244EA5" transform="translate(546,83)"/>
<path d="M0 0 C1.5 1.375 1.5 1.375 3 3 C3 3.66 3 4.32 3 5 C0.03 5 -2.94 5 -6 5 C-6.33 3.68 -6.66 2.36 -7 1 C-6.34 1 -5.68 1 -5 1 C-5 1.66 -5 2.32 -5 3 C-3.35 2.67 -1.7 2.34 0 2 C0 1.34 0 0.68 0 0 Z " fill="#09379B" transform="translate(602,64)"/>
<path d="M0 0 C0 1.32 0 2.64 0 4 C-5.53846154 4.36923077 -5.53846154 4.36923077 -7.875 2.5 C-8.24625 2.005 -8.6175 1.51 -9 1 C-5.92677456 0.08941469 -3.19902639 -0.08886184 0 0 Z " fill="#2B53A7" transform="translate(653,156)"/>
<path d="M0 0 C0 3.3 0 6.6 0 10 C-0.99 10 -1.98 10 -3 10 C-3 7.03 -3 4.06 -3 1 C-1 0 -1 0 0 0 Z " fill="#033399" transform="translate(618,59)"/>
<path d="M0 0 C1.32 0 2.64 0 4 0 C4 1.98 4 3.96 4 6 C2.35 5.67 0.7 5.34 -1 5 C-0.67 3.35 -0.34 1.7 0 0 Z " fill="#E2E8F2" transform="translate(702,60)"/>
<path d="M0 0 C0 1.65 0 3.3 0 5 C-3.47325181 6.1577506 -6.36067448 6.06866652 -10 6 C-10 5.67 -10 5.34 -10 5 C-8.35 5 -6.7 5 -5 5 C-4.8453125 4.0409375 -4.8453125 4.0409375 -4.6875 3.0625 C-4.460625 2.381875 -4.23375 1.70125 -4 1 C-1 0 -1 0 0 0 Z " fill="#214BA6" transform="translate(112,155)"/>
<path d="M0 0 C2.25245881 2.68841859 3.88213958 4.64641875 5 8 C4.01 8.66 3.02 9.32 2 10 C-1.07692308 5.69230769 -1.07692308 5.69230769 -0.6875 2.1875 C-0.460625 1.465625 -0.23375 0.74375 0 0 Z " fill="#113D9D" transform="translate(741,145)"/>
<path d="M0 0 C3.63 0 7.26 0 11 0 C11 0.66 11 1.32 11 2 C8.03 2 5.06 2 2 2 C1.67 2.99 1.34 3.98 1 5 C0.67 5 0.34 5 0 5 C0 3.35 0 1.7 0 0 Z " fill="#023397" transform="translate(708,144)"/>
<path d="M0 0 C0.99 0 1.98 0 3 0 C3 2.97 3 5.94 3 9 C2.01 9 1.02 9 0 9 C0 6.03 0 3.06 0 0 Z " fill="#023298" transform="translate(615,124)"/>
<path d="M0 0 C1.98 0.495 1.98 0.495 4 1 C4 2.65 4 4.3 4 6 C2.35 5.67 0.7 5.34 -1 5 C-0.67 3.35 -0.34 1.7 0 0 Z " fill="#ECF0F6" transform="translate(558,124)"/>
<path d="M0 0 C0.99 0 1.98 0 3 0 C3 2.97 3 5.94 3 9 C2.01 9 1.02 9 0 9 C0 6.03 0 3.06 0 0 Z " fill="#013298" transform="translate(589,60)"/>
<path d="M0 0 C1.98 0.495 1.98 0.495 4 1 C4 2.65 4 4.3 4 6 C2.35 5.67 0.7 5.34 -1 5 C-0.67 3.35 -0.34 1.7 0 0 Z " fill="#EFF3F6" transform="translate(558,60)"/>
<path d="M0 0 C0.66 0 1.32 0 2 0 C2 0.66 2 1.32 2 2 C3.65 1.67 5.3 1.34 7 1 C6 3 6 3 3.4375 4.125 C-0.58289462 5.14837318 -3.86509813 5.14258282 -8 5 C-8 4.67 -8 4.34 -8 4 C-5.36 3.67 -2.72 3.34 0 3 C0 2.01 0 1.02 0 0 Z " fill="#2D56A8" transform="translate(150,156)"/>
<path d="M0 0 C2.64 0 5.28 0 8 0 C8 0.66 8 1.32 8 2 C8.66 2.33 9.32 2.66 10 3 C6.7 3 3.4 3 0 3 C0 2.01 0 1.02 0 0 Z " fill="#FCFEFC" transform="translate(726,153)"/>
<path d="M0 0 C0.33 0 0.66 0 1 0 C1 4.62 1 9.24 1 14 C1.99 13.67 2.98 13.34 4 13 C4.99 14.485 4.99 14.485 6 16 C4.02 16 2.04 16 0 16 C0 10.72 0 5.44 0 0 Z " fill="#C8D2E8" transform="translate(586,143)"/>
<path d="M0 0 C0.66 0 1.32 0 2 0 C3.35439668 2.70879335 3.06501451 5.00933268 3 8 C0.525 7.01 0.525 7.01 -2 6 C-1.34 4.02 -0.68 2.04 0 0 Z " fill="#1C49A2" transform="translate(80,132)"/>
<path d="M0 0 C2.475 0.99 2.475 0.99 5 2 C5 2.66 5 3.32 5 4 C4.34 4 3.68 4 3 4 C3 4.66 3 5.32 3 6 C1.68 6 0.36 6 -1 6 C-1.042721 4.33388095 -1.04063832 2.66617115 -1 1 C-0.67 0.67 -0.34 0.34 0 0 Z " fill="#F6F8FA" transform="translate(625,124)"/>
<path d="M0 0 C1.98 0.495 1.98 0.495 4 1 C3.67 2.65 3.34 4.3 3 6 C1.68 5.67 0.36 5.34 -1 5 C-0.67 3.35 -0.34 1.7 0 0 Z " fill="#E6EBF5" transform="translate(656,124)"/>
<path d="M0 0 C0.66 0.33 1.32 0.66 2 1 C1.814375 1.5775 1.62875 2.155 1.4375 2.75 C0.95976454 5.20692525 1.24270636 6.64397534 2 9 C0.35 8.67 -1.3 8.34 -3 8 C-3 4.42424104 -1.91159393 2.94704065 0 0 Z " fill="#0F3A8E" transform="translate(397,105)"/>
<path d="M0 0 C2.97 0 5.94 0 9 0 C9 0.99 9 1.98 9 3 C6.36 3 3.72 3 1 3 C0.67 2.01 0.34 1.02 0 0 Z " fill="#1542A2" transform="translate(643,85)"/>
<path d="M0 0 C2.97 0.495 2.97 0.495 6 1 C6.33 2.65 6.66 4.3 7 6 C6.01 5.67 5.02 5.34 4 5 C4 4.34 4 3.68 4 3 C2.35 3 0.7 3 -1 3 C-0.67 2.01 -0.34 1.02 0 0 Z " fill="#0C3A9E" transform="translate(710,79)"/>
<path d="M0 0 C0.66 0 1.32 0 2 0 C2 2.97 2 5.94 2 9 C1.01 9 0.02 9 -1 9 C-1.09765625 2.84765625 -1.09765625 2.84765625 -1 1 C-0.67 0.67 -0.34 0.34 0 0 Z " fill="#1341A0" transform="translate(583,60)"/>
<path d="M0 0 C1.98 0.495 1.98 0.495 4 1 C3.67 2.65 3.34 4.3 3 6 C1.68 5.67 0.36 5.34 -1 5 C-0.67 3.35 -0.34 1.7 0 0 Z " fill="#E8EFF5" transform="translate(689,60)"/>
<path d="M0 0 C1.98 0.495 1.98 0.495 4 1 C3.67 2.65 3.34 4.3 3 6 C1.68 5.67 0.36 5.34 -1 5 C-0.67 3.35 -0.34 1.7 0 0 Z " fill="#F3F6FA" transform="translate(669,60)"/>
<path d="M0 0 C0.33 0 0.66 0 1 0 C1 3.63 1 7.26 1 11 C-0.65 11.66 -2.3 12.32 -4 13 C-3.69320312 12.43796875 -3.38640625 11.8759375 -3.0703125 11.296875 C-1.97042415 8.93653066 -1.39904149 6.79534438 -0.875 4.25 C-0.70742188 3.45078125 -0.53984375 2.6515625 -0.3671875 1.828125 C-0.24601563 1.22484375 -0.12484375 0.6215625 0 0 Z " fill="#E8EDF4" transform="translate(691,146)"/>
<path d="M0 0 C0.33 0 0.66 0 1 0 C1 2.31 1 4.62 1 7 C0.01 7 -0.98 7 -2 7 C-2 6.34 -2 5.68 -2 5 C-3.32 5.33 -4.64 5.66 -6 6 C-6.33 5.01 -6.66 4.02 -7 3 C-4.69 3 -2.38 3 0 3 C0 2.01 0 1.02 0 0 Z " fill="#BDCCE5" transform="translate(643,125)"/>
<path d="M0 0 C1.485 0.99 1.485 0.99 3 2 C2.34 4.31 1.68 6.62 1 9 C0.34 9 -0.32 9 -1 9 C-1.09765625 2.84765625 -1.09765625 2.84765625 -1 1 C-0.67 0.67 -0.34 0.34 0 0 Z " fill="#093899" transform="translate(539,120)"/>
<path d="M0 0 C0.33 0 0.66 0 1 0 C1.6875 3.3125 1.6875 3.3125 2 7 C0.5625 8.9375 0.5625 8.9375 -1 10 C-1 9.34 -1 8.68 -1 8 C-1.66 8 -2.32 8 -3 8 C-2.67 6.02 -2.34 4.04 -2 2 C-1.34 2 -0.68 2 0 2 C0 1.34 0 0.68 0 0 Z " fill="#E6EDF4" transform="translate(553,61)"/>
<path d="M0 0 C0.33 0.66 0.66 1.32 1 2 C2.98 1.67 4.96 1.34 7 1 C7 1.66 7 2.32 7 3 C4.36 3.66 1.72 4.32 -1 5 C-1 6.65 -1 8.3 -1 10 C-1.33 10 -1.66 10 -2 10 C-2.25 3.375 -2.25 3.375 0 0 Z " fill="#DCE4EF" transform="translate(594,59)"/>
<path d="M0 0 C3 1 3 1 4.6875 4.0625 C5.120625 5.031875 5.55375 6.00125 6 7 C4.68 7.33 3.36 7.66 2 8 C0.23537317 4.91190305 0 3.76687864 0 0 Z " fill="#113E9F" transform="translate(757,147)"/>
<path d="M0 0 C0.33 0 0.66 0 1 0 C1.103125 1.11375 1.20625 2.2275 1.3125 3.375 C1.539375 4.57125 1.76625 5.7675 2 7 C2.99 7.66 3.98 8.32 5 9 C4.01 9 3.02 9 2 9 C2 9.66 2 10.32 2 11 C0.68 10.34 -0.64 9.68 -2 9 C-1.34 6.03 -0.68 3.06 0 0 Z " fill="#355BAC" transform="translate(541,122)"/>
<path d="M0 0 C0.33 0.66 0.66 1.32 1 2 C2.32 1.67 3.64 1.34 5 1 C5 3.64 5 6.28 5 9 C2.9754262 7.06745228 1.57894208 5.36841312 0 3 C0 2.01 0 1.02 0 0 Z " fill="#F0F4F8" transform="translate(623,79)"/>
<path d="M0 0 C1.32 0 2.64 0 4 0 C4 1.98 4 3.96 4 6 C2.68 6 1.36 6 0 6 C0 4.02 0 2.04 0 0 Z " fill="#ECF1F5" transform="translate(655,60)"/>
<path d="M0 0 C0.66 0 1.32 0 2 0 C2 1.65 2 3.3 2 5 C3.32 5.33 4.64 5.66 6 6 C6 6.66 6 7.32 6 8 C5.01 8.33 4.02 8.66 3 9 C1.5 7.875 1.5 7.875 0 6 C-0.1875 2.8125 -0.1875 2.8125 0 0 Z " fill="#053699" transform="translate(589,150)"/>
<path d="M0 0 C1.32 0 2.64 0 4 0 C4 1.65 4 3.3 4 5 C2.02 5.99 2.02 5.99 0 7 C0 4.69 0 2.38 0 0 Z " fill="#4266B1" transform="translate(544,143)"/>
<path d="M0 0 C0.66 0 1.32 0 2 0 C2.99 1.98 3.98 3.96 5 6 C3.68 6.33 2.36 6.66 1 7 C-0.0625 4.625 -0.0625 4.625 -1 2 C-0.67 1.34 -0.34 0.68 0 0 Z " fill="#1945A1" transform="translate(610,146)"/>
<path d="M0 0 C0.66 0 1.32 0 2 0 C2.33 2.97 2.66 5.94 3 9 C1.68 8.67 0.36 8.34 -1 8 C-0.67 6.35 -0.34 4.7 0 3 C-0.66 2.67 -1.32 2.34 -2 2 C-1.34 2 -0.68 2 0 2 C0 1.34 0 0.68 0 0 Z " fill="#013297" transform="translate(602,124)"/>
<path d="M0 0 C0 2.64 0 5.28 0 8 C-0.66 6.68 -1.32 5.36 -2 4 C-3.32 4.33 -4.64 4.66 -6 5 C-6 4.01 -6 3.02 -6 2 C-2.25 0 -2.25 0 0 0 Z " fill="#2751A8" transform="translate(128,87)"/>
<path d="M0 0 C0.66 0.33 1.32 0.66 2 1 C1.67 1.33 1.34 1.66 1 2 C1.66 2.33 2.32 2.66 3 3 C3 3.66 3 4.32 3 5 C1.35 5.33 -0.3 5.66 -2 6 C-2 5.34 -2 4.68 -2 4 C-3.32 3.67 -4.64 3.34 -6 3 C-4.03533587 1.93224776 -2.03144641 0.93446535 0 0 Z " fill="#133D8C" transform="translate(423,65)"/>
<path d="M0 0 C0.99 0.33 1.98 0.66 3 1 C3 2.65 3 4.3 3 6 C0.69 5.34 -1.62 4.68 -4 4 C-4 3.34 -4 2.68 -4 2 C-2.68 2 -1.36 2 0 2 C0 1.34 0 0.68 0 0 Z " fill="#07379A" transform="translate(646,60)"/>
<path d="M0 0 C2.31 0 4.62 0 7 0 C5 3 5 3 1.875 3.6875 C0.92625 3.790625 -0.0225 3.89375 -1 4 C-0.67 2.68 -0.34 1.36 0 0 Z " fill="#234CA6" transform="translate(596,57)"/>
<path d="M0 0 C2.875 -0.125 2.875 -0.125 6 0 C8 2 8 2 8 5 C4.20411134 4.45773019 2.52788007 2.79872437 0 0 Z " fill="#0C399A" transform="translate(543,53)"/>
<path d="M0 0 C1.65 0 3.3 0 5 0 C5 1.32 5 2.64 5 4 C3.35 4 1.7 4 0 4 C0 2.68 0 1.36 0 0 Z " fill="#E4EAF3" transform="translate(663,146)"/>
<path d="M0 0 C1.65 0 3.3 0 5 0 C5 0.66 5 1.32 5 2 C3.35 2 1.7 2 0 2 C0 4.31 0 6.62 0 9 C-0.99 9 -1.98 9 -3 9 C-2.30058404 5.85262818 -1.23921302 2.97411124 0 0 Z " fill="#2650A7" transform="translate(655,129)"/>
<path d="M0 0 C0.33 0 0.66 0 1 0 C1 2.64 1 5.28 1 8 C-0.32 7.67 -1.64 7.34 -3 7 C-1.125 1.125 -1.125 1.125 0 0 Z " fill="#023398" transform="translate(674,125)"/>
<path d="M0 0 C0.99 0 1.98 0 3 0 C2.88637738 1.4800841 2.75877092 2.95910074 2.625 4.4375 C2.52058594 5.67306641 2.52058594 5.67306641 2.4140625 6.93359375 C2.27742187 7.61550781 2.14078125 8.29742187 2 9 C1.01 9.495 1.01 9.495 0 10 C0 6.7 0 3.4 0 0 Z " fill="#023396" transform="translate(652,125)"/>
<path d="M0 0 C2.475 0.99 2.475 0.99 5 2 C4.67 2.99 4.34 3.98 4 5 C3.34 5 2.68 5 2 5 C2 5.66 2 6.32 2 7 C1.01 7.33 0.02 7.66 -1 8 C-0.67 5.36 -0.34 2.72 0 0 Z " fill="#0A399C" transform="translate(73,126)"/>
<path d="M0 0 C1.65 0 3.3 0 5 0 C5 1.32 5 2.64 5 4 C3.35 4 1.7 4 0 4 C0 2.68 0 1.36 0 0 Z " fill="#EEF2F7" transform="translate(675,82)"/>
<path d="M0 0 C1.5 1.3125 1.5 1.3125 3 3 C3 3.99 3 4.98 3 6 C1.35 6 -0.3 6 -2 6 C-2 4.68 -2 3.36 -2 2 C-1.34 2 -0.68 2 0 2 C0 1.34 0 0.68 0 0 Z " fill="#98A7DF" transform="translate(99,70)"/>
<path d="M0 0 C0.33 0.66 0.66 1.32 1 2 C2.32 2 3.64 2 5 2 C4.67 2.99 4.34 3.98 4 5 C3.38125 4.79375 2.7625 4.5875 2.125 4.375 C1.42375 4.25125 0.7225 4.1275 0 4 C-0.66 4.66 -1.32 5.32 -2 6 C-2 4.35 -2 2.7 -2 1 C-1.34 0.67 -0.68 0.34 0 0 Z " fill="#6785C1" transform="translate(641,62)"/>
<path d="M0 0 C3 3 3 3 4 6 C2.68 6.99 1.36 7.98 0 9 C0 6.03 0 3.06 0 0 Z " fill="#D5DFEF" transform="translate(756,150)"/>
<path d="M0 0 C0.66 0 1.32 0 2 0 C1.67 1.98 1.34 3.96 1 6 C-0.32 6.33 -1.64 6.66 -3 7 C-2.67 6.01 -2.34 5.02 -2 4 C-2.66 3.34 -3.32 2.68 -4 2 C-2.68 2 -1.36 2 0 2 C0 1.34 0 0.68 0 0 Z " fill="#728EC7" transform="translate(671,124)"/>
<path d="M0 0 C3.63 0 7.26 0 11 0 C10.01 1.485 10.01 1.485 9 3 C5.47930015 2.41321669 3.28700157 1.64350079 0 0 Z " fill="#204CA5" transform="translate(270,98)"/>
<path d="M0 0 C0.66 0 1.32 0 2 0 C2 2.64 2 5.28 2 8 C1.01 7.67 0.02 7.34 -1 7 C-1.04254356 5.00045254 -1.04080783 2.99958364 -1 1 C-0.67 0.67 -0.34 0.34 0 0 Z " fill="#033397" transform="translate(700,83)"/>
<path d="M0 0 C0 1.65 0 3.3 0 5 C-1.65 5 -3.3 5 -5 5 C-4.625 3.0625 -4.625 3.0625 -4 1 C-2 0 -2 0 0 0 Z " fill="#0E3D9E" transform="translate(165,73)"/>
<path d="M0 0 C1.32 0 2.64 0 4 0 C4 2.97 4 5.94 4 9 C3.67 9 3.34 9 3 9 C2.67 7.35 2.34 5.7 2 4 C1.01 4.495 1.01 4.495 0 5 C0 3.35 0 1.7 0 0 Z " fill="#DAE2F0" transform="translate(585,60)"/>
<path d="M0 0 C2.97 0 5.94 0 9 0 C6 3 6 3 2.8125 3.1875 C1.4203125 3.0946875 1.4203125 3.0946875 0 3 C0 2.01 0 1.02 0 0 Z " fill="#FDFDFC" transform="translate(711,153)"/>
<path d="M0 0 C0.66 0 1.32 0 2 0 C2 2.31 2 4.62 2 7 C1.01 7 0.02 7 -1 7 C-1.04254356 5.00045254 -1.04080783 2.99958364 -1 1 C-0.67 0.67 -0.34 0.34 0 0 Z " fill="#1342A1" transform="translate(584,153)"/>
<path d="M0 0 C0.66 0 1.32 0 2 0 C1.38722388 2.96175123 0.74627478 4.38058783 -1 7 C-1.99 7 -2.98 7 -4 7 C-2.92598892 4.08482708 -2.22189824 2.22189824 0 0 Z " fill="#15408B" transform="translate(432,140)"/>
<path d="M0 0 C0.66 0.66 1.32 1.32 2 2 C1.75 4.5625 1.75 4.5625 1 7 C0.01 7.495 0.01 7.495 -1 8 C-1.66 7.67 -2.32 7.34 -3 7 C-3 6.01 -3 5.02 -3 4 C-2.34 3.67 -1.68 3.34 -1 3 C-0.67 2.01 -0.34 1.02 0 0 Z " fill="#103A8F" transform="translate(450,133)"/>
<path d="M0 0 C2.00720923 0.28674418 4.0085944 0.61866701 6 1 C6 1.99 6 2.98 6 4 C4.68 4.33 3.36 4.66 2 5 C1.67 4.01 1.34 3.02 1 2 C0.34 1.67 -0.32 1.34 -1 1 C-0.67 0.67 -0.34 0.34 0 0 Z " fill="#738EC7" transform="translate(596,126)"/>
<path d="M0 0 C1.37562854 1.28965176 2.70766393 2.62689293 4 4 C4 4.66 4 5.32 4 6 C2 7.625 2 7.625 0 9 C0 6.03 0 3.06 0 0 Z " fill="#D4DDED" transform="translate(582,86)"/>
<path d="M0 0 C2.475 0.495 2.475 0.495 5 1 C4.67 2.98 4.34 4.96 4 7 C3.01 6.67 2.02 6.34 1 6 C0.67 4.02 0.34 2.04 0 0 Z " fill="#EDC20B" transform="translate(444,74)"/>
<path d="M0 0 C1.4540625 0.0309375 1.4540625 0.0309375 2.9375 0.0625 C2.6075 1.3825 2.2775 2.7025 1.9375 4.0625 C0.6175 4.0625 -0.7025 4.0625 -2.0625 4.0625 C-2.0625 3.4025 -2.0625 2.7425 -2.0625 2.0625 C-2.7225 1.7325 -3.3825 1.4025 -4.0625 1.0625 C-3.0625 0.0625 -3.0625 0.0625 0 0 Z " fill="#103D9E" transform="translate(141.0625,72.9375)"/>
<path d="M0 0 C1.98 0.495 1.98 0.495 4 1 C2.625 3.5 2.625 3.5 1 6 C0.34 6 -0.32 6 -1 6 C-0.67 4.02 -0.34 2.04 0 0 Z " fill="#214BA3" transform="translate(548,63)"/>
<path d="M0 0 C2.475 0.99 2.475 0.99 5 2 C4.67 2.99 4.34 3.98 4 5 C3.01 5 2.02 5 1 5 C1 4.34 1 3.68 1 3 C0.34 3 -0.32 3 -1 3 C-1.33 3.66 -1.66 4.32 -2 5 C-1.125 1.125 -1.125 1.125 0 0 Z " fill="#7590C6" transform="translate(596,62)"/>
<path d="M0 0 C0.33 0 0.66 0 1 0 C1 2.64 1 5.28 1 8 C0.67 7.34 0.34 6.68 0 6 C-0.99 6 -1.98 6 -3 6 C-2.42655063 3.13275314 -2.1385485 2.1385485 0 0 Z " fill="#2B54A9" transform="translate(603,147)"/>
<path d="M0 0 C2.475 0.495 2.475 0.495 5 1 C5 1.99 5 2.98 5 4 C3.35 4 1.7 4 0 4 C0 2.68 0 1.36 0 0 Z " fill="#EBEFF7" transform="translate(696,146)"/>
<path d="M0 0 C0.66 0 1.32 0 2 0 C2 0.66 2 1.32 2 2 C2.66 2.66 3.32 3.32 4 4 C4 4.99 4 5.98 4 7 C1.525 6.01 1.525 6.01 -1 5 C-0.67 3.35 -0.34 1.7 0 0 Z " fill="#1541A1" transform="translate(261,98)"/>
<path d="M0 0 C2.0625 0.4375 2.0625 0.4375 4 1 C2.68 2.32 1.36 3.64 0 5 C0 4.34 0 3.68 0 3 C-1.65 3 -3.3 3 -5 3 C-4.360625 2.690625 -3.72125 2.38125 -3.0625 2.0625 C-1.06389179 1.1654837 -1.06389179 1.1654837 0 0 Z " fill="#254EA5" transform="translate(698,90)"/>
<path d="M0 0 C2.475 0.495 2.475 0.495 5 1 C5 1.99 5 2.98 5 4 C3.35 4 1.7 4 0 4 C0 2.68 0 1.36 0 0 Z " fill="#EBF1F5" transform="translate(708,82)"/>
<path d="M0 0 C1.65 0 3.3 0 5 0 C5 0.99 5 1.98 5 3 C2.03 3 -0.94 3 -4 3 C-2.68 2.67 -1.36 2.34 0 2 C0 1.34 0 0.68 0 0 Z " fill="#0C3B9A" transform="translate(648,79)"/>
<path d="M0 0 C0.99 0 1.98 0 3 0 C4 3 4 3 3 6 C2.01 6 1.02 6 0 6 C0 4.02 0 2.04 0 0 Z " fill="#F6F8FA" transform="translate(624,60)"/>
<path d="M0 0 C0.99 0.33 1.98 0.66 3 1 C3 3.31 3 5.62 3 8 C2.34 8 1.68 8 1 8 C0.67 5.36 0.34 2.72 0 0 Z " fill="#033298" transform="translate(686,145)"/>
<path d="M0 0 C0.99 0.33 1.98 0.66 3 1 C2.67 1.66 2.34 2.32 2 3 C3.32 3.66 4.64 4.32 6 5 C3.69 5 1.38 5 -1 5 C-0.67 3.35 -0.34 1.7 0 0 Z " fill="#3258AC" transform="translate(713,139)"/>
<path d="M0 0 C0.99 0.33 1.98 0.66 3 1 C3 2.98 3 4.96 3 7 C2.01 7 1.02 7 0 7 C0 4.69 0 2.38 0 0 Z " fill="#023399" transform="translate(678,126)"/>
<path d="M0 0 C0.99 0.33 1.98 0.66 3 1 C3 2.98 3 4.96 3 7 C1.68 7.33 0.36 7.66 -1 8 C-0.67 5.36 -0.34 2.72 0 0 Z " fill="#E3EAF3" transform="translate(551,124)"/>
<path d="M0 0 C1.65 0 3.3 0 5 0 C5.33 0.99 5.66 1.98 6 3 C4.02 3.99 4.02 3.99 2 5 C1.34 3.35 0.68 1.7 0 0 Z " fill="#023298" transform="translate(271,126)"/>
<path d="M0 0 C0.33 0.66 0.66 1.32 1 2 C-0.75 2.6875 -0.75 2.6875 -3 3 C-5.25 1.5625 -5.25 1.5625 -7 0 C-4.30234372 -1.34882814 -2.84835666 -0.80338265 0 0 Z " fill="#214BA6" transform="translate(617,122)"/>
<path d="M0 0 C1.98 0 3.96 0 6 0 C6 0.99 6 1.98 6 3 C4.02 3 2.04 3 0 3 C0 2.01 0 1.02 0 0 Z " fill="#FCFDFC" transform="translate(723,89)"/>
<path d="M0 0 C1.65 0 3.3 0 5 0 C4.34 0.66 3.68 1.32 3 2 C3.66 3.65 4.32 5.3 5 7 C4.34 7 3.68 7 3 7 C0.70351351 4.4385343 0 3.52032428 0 0 Z " fill="#33517A" transform="translate(390,87)"/>
<path d="M0 0 C1.98 0 3.96 0 6 0 C6 0.99 6 1.98 6 3 C4.02 3 2.04 3 0 3 C0 2.01 0 1.02 0 0 Z " fill="#0B3B9B" transform="translate(726,79)"/>
<path d="M0 0 C0.66 0.66 1.32 1.32 2 2 C4.06874034 2.6425235 4.06874034 2.6425235 6 3 C5.67 3.66 5.34 4.32 5 5 C1.7 5 -1.6 5 -5 5 C-5 4.34 -5 3.68 -5 3 C-4.360625 2.87625 -3.72125 2.7525 -3.0625 2.625 C-2.0415625 2.315625 -2.0415625 2.315625 -1 2 C-0.67 1.34 -0.34 0.68 0 0 Z " fill="#A29438" transform="translate(409,71)"/>
<path d="M0 0 C0.99 0 1.98 0 3 0 C3 1.98 3 3.96 3 6 C2.01 6 1.02 6 0 6 C0 4.02 0 2.04 0 0 Z " fill="#023296" transform="translate(712,63)"/>
<path d="M0 0 C0.99 0.33 1.98 0.66 3 1 C2.34 2.32 1.68 3.64 1 5 C-0.32 4.34 -1.64 3.68 -3 3 C-2.01 2.01 -1.02 1.02 0 0 Z " fill="#234AA5" transform="translate(628,64)"/>
<path d="M0 0 C1.32 0 2.64 0 4 0 C4 1.32 4 2.64 4 4 C2.35 3.67 0.7 3.34 -1 3 C-0.67 2.01 -0.34 1.02 0 0 Z " fill="#5D7DBF" transform="translate(575,52)"/>
<path d="M0 0 C0 0.66 0 1.32 0 2 C-2.31 2.33 -4.62 2.66 -7 3 C-7 2.34 -7 1.68 -7 1 C-4.53721199 -0.231394 -2.7204945 -0.07159196 0 0 Z " fill="#224DA6" transform="translate(600,157)"/>
<path d="M0 0 C2.0625 0.4375 2.0625 0.4375 4 1 C3 4 3 4 0.9375 5.1875 C0.298125 5.455625 -0.34125 5.72375 -1 6 C-1.042721 4.33388095 -1.04063832 2.66617115 -1 1 C-0.67 0.67 -0.34 0.34 0 0 Z " fill="#0A3792" transform="translate(466,106)"/>
<path d="M0 0 C1.32 1.32 2.64 2.64 4 4 C2.68 4.33 1.36 4.66 0 5 C-0.99 3.68 -1.98 2.36 -3 1 C-2.01 0.67 -1.02 0.34 0 0 Z " fill="#123F9E" transform="translate(682,90)"/>
<path d="M0 0 C0.66 0 1.32 0 2 0 C2 1.98 2 3.96 2 6 C1.01 6 0.02 6 -1 6 C-1.042721 4.33388095 -1.04063832 2.66617115 -1 1 C-0.67 0.67 -0.34 0.34 0 0 Z " fill="#023396" transform="translate(673,89)"/>
<path d="M0 0 C2.31 0.33 4.62 0.66 7 1 C5 4 5 4 2.875 4.6875 C2.25625 4.790625 1.6375 4.89375 1 5 C1.33 4.01 1.66 3.02 2 2 C1.34 1.34 0.68 0.68 0 0 Z " fill="#2B4C7F" transform="translate(398,87)"/>
<path d="M0 0 C0.33 0.66 0.66 1.32 1 2 C1.66 2.33 2.32 2.66 3 3 C2.34 4.32 1.68 5.64 1 7 C0.01 6.34 -0.98 5.68 -2 5 C-1.34 3.35 -0.68 1.7 0 0 Z " fill="#1341A1" transform="translate(737,83)"/>
<path d="M0 0 C2.64 0 5.28 0 8 0 C8 0.99 8 1.98 8 3 C5.125 3.1875 5.125 3.1875 2 3 C1.34 2.01 0.68 1.02 0 0 Z " fill="#AAB6E9" transform="translate(120,63)"/>
<path d="M0 0 C0.99 0 1.98 0 3 0 C3 1.98 3 3.96 3 6 C2.01 6 1.02 6 0 6 C0 4.02 0 2.04 0 0 Z " fill="#033298" transform="translate(693,60)"/>
</svg>