<?xml version="1.0" encoding="UTF-8"?>
<!--
Soliguide: Useful information for those who need it

SPDX-FileCopyrightText: © 2024 Solinum

SPDX-License-Identifier: AGPL-3.0-only

This program is free software: you can redistribute it and/or modify
it under the terms of the GNU Affero General Public License as published
by the Free Software Foundation, either version 3 of the License, or
(at your option) any later version.

This program is distributed in the hope that it will be useful,
but WITHOUT ANY WARRANTY; without even the implied warranty of
MERCHANTABILITY or FITNESS FOR A PARTICULAR PURPOSE.  See the
GNU Affero General Public License for more details.

You should have received a copy of the GNU Affero General Public License
along with this program.  If not, see <https://www.gnu.org/licenses/>.
-->
<svg xmlns="http://www.w3.org/2000/svg" viewBox="0 0 550 577"><g stroke-width="2" fill="none" stroke="#80ceda"><path vector-effect="non-scaling-stroke" d="M349.5 342.21c8.08-12.12 11.22-25.42 11.41-39.71.26-19.71 1.9-41.42-6.42-59.49-9.34-20.28-30.5-26.4-51.65-23.19a.51.51 0 01-.59-.5q-.07-15.88.21-31.75c.12-6.62 1.65-13.15 9.52-13.83 12.92-1.11 12.1 14.14 11.77 22.5-.16 3.89 2.18 5.59 5.97 5.66q11.02.2 22.04.08c5.18-.05 8.72-.6 8.92-6.49 1.32-39.3-21.47-64.32-62.26-55.85-27.81 5.77-33.04 33.06-33.3 56.87q-.55 52.24-.07 104.49c.28 30.93 13.06 56.17 48.11 56.36M161.7 118.64q.65 6.74-.12 13.14a1.98 1.98 0 001.97 2.22h62.87a2.4 2.39-83.5 012.33 2.93q-19.91 86.59-39.95 173.38c-1.15 5.01 2.2 5.72 6.25 5.7q9.32-.05 18.63.32c4.9.19 11.03.29 12.1-4.58q19.39-88.2 38.73-176.43c2.29-10.42 2.31-19.8 1.94-30.15-.14-3.84-.83-6.68-5.2-6.67q-39.28.02-78.87-.02"/><path vector-effect="non-scaling-stroke" d="M302.22 309.32c.3 8.24 3.37 15.17 12.55 13.98 8.22-1.07 8.97-10.04 8.98-16.55q.03-20.47-.28-40.93c-.09-6.04-1.23-12.12-8.49-12.9q-11.53-1.25-12.43 10.15-1.36 17.33-.33 46.25"/></g><path fill="#009cb4" d="M349.5 342.21c8.08-12.12 11.22-25.42 11.41-39.71.26-19.71 1.9-41.42-6.42-59.49-9.34-20.28-30.5-26.4-51.65-23.19a.51.51 0 01-.59-.5q-.07-15.88.21-31.75c.12-6.62 1.65-13.15 9.52-13.83 12.92-1.11 12.1 14.14 11.77 22.5-.16 3.89 2.18 5.59 5.97 5.66q11.02.2 22.04.08c5.18-.05 8.72-.6 8.92-6.49 1.32-39.3-21.47-64.32-62.26-55.85-27.81 5.77-33.04 33.06-33.3 56.87q-.55 52.24-.07 104.49c.28 30.93 13.06 56.17 48.11 56.36q-51.44 13.15-98.45-7.79C124.47 309.39 98.82 194.3 161.7 118.64q.65 6.74-.12 13.14a1.98 1.98 0 001.97 2.22h62.87a2.4 2.39-83.5 012.33 2.93q-19.91 86.59-39.95 173.38c-1.15 5.01 2.2 5.72 6.25 5.7q9.32-.05 18.63.32c4.9.19 11.03.29 12.1-4.58q19.39-88.2 38.73-176.43c2.29-10.42 2.31-19.8 1.94-30.15-.14-3.84-.83-6.68-5.2-6.67q-39.28.02-78.87-.02c71.1-56.65 174.66-37.27 220.7 40.95 41.84 71.1 16.44 161.52-53.58 202.78z"/><path fill="#fff" d="M182.38 98.48q39.59.04 78.87.02c4.37-.01 5.06 2.83 5.2 6.67.37 10.35.35 19.73-1.94 30.15q-19.34 88.23-38.73 176.43c-1.07 4.87-7.2 4.77-12.1 4.58q-9.31-.37-18.63-.32c-4.05.02-7.4-.69-6.25-5.7q20.04-86.79 39.95-173.38a2.4 2.39-83.5 00-2.33-2.93h-62.87a1.98 1.98 0 01-1.97-2.22q.77-6.4.12-13.14 9.41-11.1 20.68-20.16zM349.5 342.21q-17.16 10.02-36.34 15.15c-35.05-.19-47.83-25.43-48.11-56.36q-.48-52.25.07-104.49c.26-23.81 5.49-51.1 33.3-56.87 40.79-8.47 63.58 16.55 62.26 55.85-.2 5.89-3.74 6.44-8.92 6.49q-11.02.12-22.04-.08c-3.79-.07-6.13-1.77-5.97-5.66.33-8.36 1.15-23.61-11.77-22.5-7.87.68-9.4 7.21-9.52 13.83q-.28 15.87-.21 31.75a.51.51 0 00.59.5c21.15-3.21 42.31 2.91 51.65 23.19 8.32 18.07 6.68 39.78 6.42 59.49-.19 14.29-3.33 27.59-11.41 39.71zm-47.28-32.89c.3 8.24 3.37 15.17 12.55 13.98 8.22-1.07 8.97-10.04 8.98-16.55q.03-20.47-.28-40.93c-.09-6.04-1.23-12.12-8.49-12.9q-11.53-1.25-12.43 10.15-1.36 17.33-.33 46.25z"/><path fill="#009cb4" d="M314.77 323.3c-9.18 1.19-12.25-5.74-12.55-13.98q-1.03-28.92.33-46.25.9-11.4 12.43-10.15c7.26.78 8.4 6.86 8.49 12.9q.31 20.46.28 40.93c-.01 6.51-.76 15.48-8.98 16.55z"/><path fill="#1d1d1b" d="M92.78 461.47c-1.31 19.84-31.36 17.54-29.2-4.95a1.41 1.4 2.7 011.4-1.27l8.45.01a1.36 1.35 2.9 011.35 1.49c-.27 2.71.51 9.84 5.38 6.42q.41-.29.56-.76c2.78-9.11-6.47-17.51-11.73-23.91-5.48-6.69-7.56-16.71-3.7-24.32 5.22-10.28 22.24-8.95 26.25 2.69q1.41 4.1 1.22 8.65a1.28 1.28 0 01-1.28 1.23h-9.22a.59.58 86.1 01-.58-.51q-.37-2.95-.67-5.72c-.3-2.77-4.89-3.3-5.71.01-2.04 8.32 4.87 14.34 9.49 20.16 5.37 6.77 8.59 11.52 7.99 20.78zM97.5 473.23v-64.24a1.24 1.24 0 011.24-1.24h21.77a1.24 1.24 0 011.24 1.24v8.52a1.24 1.24 0 01-1.24 1.24h-10.27a1.24 1.24 0 00-1.24 1.24v12.58a1.24 1.24 0 001.25 1.24l10.25-.09a1.24 1.24 0 011.25 1.24v8.55a1.24 1.24 0 01-1.24 1.24h-10.27a1.24 1.24 0 00-1.24 1.24v16.27a1.24 1.24 0 001.24 1.24h10.27a1.24 1.24 0 011.24 1.24v8.51a1.24 1.24 0 01-1.24 1.24l-21.77-.02a1.24 1.24 0 01-1.24-1.24z"/><rect fill="#1d1d1b" x="128" y="407.78" width="11.44" height="66.66" rx="1.71"/><path fill="#1d1d1b" d="M166 436.21v-27.18a1.23 1.22-90 011.22-1.23l8.66-.03a1.36 1.36 0 011.37 1.36v64.3a.89.88 89.3 01-.86.89l-7.72.18a1.93 1.91 79.7 01-1.87-1.31l-9.18-27.03a.35.35 0 00-.68.12l.08 26.35q.01 1.59-1.59 1.63l-8.19.18a1.7 1.7 0 01-1.74-1.7v-63.46a1.53 1.52 0 011.53-1.52l7.2-.01a1.82 1.81 80.4 011.73 1.24l9.22 27.35a.42.42 0 00.82-.13zM196.22 463.48l10.1.03a1.43 1.43 0 011.43 1.43v8.13a1.43 1.43 0 01-1.43 1.43l-21.39-.02a1.43 1.43 0 01-1.43-1.43v-63.87a1.43 1.43 0 011.43-1.43h21.39a1.43 1.43 0 011.43 1.43v8.14a1.43 1.43 0 01-1.43 1.43h-10.15a1.43 1.43 0 00-1.43 1.44l.04 12.15a1.43 1.43 0 001.43 1.42h10.11a1.43 1.43 0 011.43 1.43v8.13a1.43 1.43 0 01-1.43 1.43h-10.15a1.43 1.43 0 00-1.43 1.43l.06 15.88a1.43 1.43 0 001.42 1.42zM260.25 446.52a.28.28 0 00-.55-.09l-3.14 9.03a1.05 1.05 0 01-.85.7c-1.72.22-6.72.68-7.28-1.38q-1.16-4.29-2.82-8.4a.32.32 0 00-.61.12v26.47a1.47 1.46-89.8 01-1.47 1.47l-8.67-.02a1.37 1.37 0 01-1.36-1.37v-63.76q0-1.46 1.46-1.47l7.84-.06a1.05 1.05 0 011 .72l8.46 25.22a.44.44 0 00.83-.01l8.37-25.25q.19-.56.78-.58l7.72-.16a1.76 1.76 0 011.79 1.76v63.41a1.61 1.6-89.6 01-1.62 1.61l-8.28-.08a1.62 1.61.4 01-1.6-1.61v-26.27zM287.41 474.14c-2.37.37-8.39.92-10.42.07q-.66-.28-.54-.99l11.16-63.97a1.8 1.8 0 011.77-1.49l7.85-.01a1.49 1.49 0 011.48 1.24l11.19 64.2a1.04 1.04 0 01-1.02 1.23l-9.44.04a1.18 1.17 85.2 01-1.17-.99l-1.48-9.35a.73.72-4.1 00-.72-.62h-5.36a1.23 1.22-85.6 00-1.21 1.04l-1.42 8.92q-.09.58-.67.68zm3.37-20.59a.41.41 0 00.41.47l3.95-.03a.41.41 0 00.41-.46l-1.92-13.9a.41.41 0 00-.81-.01l-2.04 13.93zM328.84 450.24a1.43 1.43 0 00-2.84.25v22.71a1.21 1.21 0 01-1.2 1.21l-8.3.05q-1.98.01-1.97-1.96l.17-63.59q0-.89.9-.96c21-1.58 29.17 1.36 28.3 24.04q-.26 6.89-2.79 11.47c-.73 1.33-1.95 1.67-1.58 3.79q2.23 12.55 4.5 25.3a1.67 1.66-4.7 01-1.66 1.95l-8.18-.09a1.36 1.35 85.1 01-1.32-1.12l-4.03-23.05zm-2.81-30.86l-.06 18.66a1.24 1.24 0 001.23 1.24h.35a5.86 5.03-89.8 005.05-5.84l.04-9.42a5.86 5.03-89.8 00-5.01-5.88h-.35a1.24 1.24 0 00-1.25 1.24z"/><rect fill="#1d1d1b" x="-5.68" y="-33.33" transform="rotate(.1 -252565.118 204147.647)" width="11.36" height="66.66" rx="1.54"/><path fill="#1d1d1b" d="M373.82 418.28l-5.64-.05a1.44 1.44 0 01-1.43-1.44v-7.58a1.44 1.44 0 011.44-1.44l25.62-.03a1.44 1.44 0 011.44 1.44v7.62a1.44 1.44 0 01-1.44 1.44l-5.62.02a1.44 1.44 0 00-1.44 1.44v53.29a1.44 1.44 0 01-1.43 1.44l-8.62.03a1.44 1.44 0 01-1.45-1.44v-53.3a1.44 1.44 0 00-1.43-1.44z"/><rect fill="#1d1d1b" x="400.5" y="407.75" width="11.5" height="66.7" rx="1.72"/><path fill="#1d1d1b" d="M444.92 446.7a.44.44 0 00-.85-.15l-3.04 9.05a.8.8 0 01-.74.54l-6.07.1q-.72.02-.97-.65c-.44-1.16-2.93-9.08-3.33-9.24a.32.32 0 00-.45.29l.04 26.33a1.48 1.48 0 01-1.48 1.49l-8.57-.03a1.47 1.47 0 01-1.46-1.47v-64.01a1.07 1.07 0 011.05-1.07l7.37-.18a2.14 2.14 0 012.08 1.46l8.13 24.32a.54.54 0 001.03 0l8.17-24.86a1.12 1.12 0 011.05-.77l7.45-.14a1.88 1.88 0 011.92 1.88v63.36a1.24 1.23 85 01-1.02 1.22q-4.09.73-8.6.12c-2.55-.35-1.81-1.96-1.84-3.76q-.19-12.05.13-23.83zM475.35 433.81l9.82-.09a1.57 1.57 0 011.59 1.57l-.02 7.89a1.57 1.57 0 01-1.57 1.57h-9.85a1.57 1.57 0 00-1.57 1.57v15.61a1.57 1.57 0 001.57 1.57h9.86a1.57 1.57 0 011.57 1.57v7.84a1.57 1.57 0 01-1.57 1.57l-21.36.03a1.57 1.57 0 01-1.57-1.57v-63.62a1.57 1.57 0 011.57-1.57h21.36a1.57 1.57 0 011.57 1.57v7.86a1.57 1.57 0 01-1.57 1.57h-9.87a1.57 1.57 0 00-1.57 1.57l.03 11.93a1.57 1.57 0 001.58 1.56z"/><rect fill="#1d1d1b" x="-6.83" y="-5.37" transform="rotate(-.2 128776.467 -62989.804)" width="13.66" height="10.74" rx="1.52"/><path fill="#009cb4" d="M202.01 490.49a.28.28 0 01-.14.37l-.15.08a6.29 1.09-25.3 01-6.15 1.7l-.01-.02a6.29 1.09-25.3 015.22-3.67l.15-.08a.28.28 0 01.38.14l.7 1.48zM307.73 495.61l-4.46-.15a.53.52 1.1 00-.55.52l.04 17.86q0 .53.52.67l2.56.71q.2.05.17.26l-.04.3q-.04.3-.35.3l-8.76-.09q-.33-.01-.52-.29-.07-.11-.11-.27a.17.16-7.9 01.16-.21c2.22.06 3.32-1 3.34-3.27q.08-8-.01-15.96-.01-.57-.58-.54l-4.72.19q-.5.02-.63.5-.44 1.69-1.24 3.2a.45.45 0 01-.84-.24l.36-5.32q.03-.5.49-.3c2.66 1.16 14.73 1.13 17.24-.12a.43.43 0 01.62.37l.22 5.45a.49.48 34 01-.94.18l-1.15-3.15q-.21-.58-.82-.6zM444.23 495.52q-1.54-.05-3.06-.03c-3.91.07-2.25 3.66-3.94 3.96q-.56.1-.52-.46l.36-5q.03-.44.47-.38 8.63 1.22 17.27.03.47-.06.5.42l.26 5.18a.47.47 0 01-.93.08q-.71-5.46-6.77-3.53-.42.13-.42.58l.16 17.41a.85.84-83.9 00.65.81l2.45.57a.43.43 0 01.3.57q-.04.12-.08.25a.12.12 0 01-.12.1l-9.07-.09q-.22 0-.33-.19l-.13-.22q-.09-.16.08-.22l2.71-.89q.66-.22.66-.92l.02-17.5q0-.51-.52-.53zM257.89 515.94l-8 .14a.36.36 0 01-.17-.68l1.77-.92a.63.62-24.4 00.29-.76l-1.82-5.07q-.18-.5-.71-.5l-5.93-.01a.93.92 9.1 00-.88.63l-1.64 4.97q-.2.61.4.83l1.93.71q.14.06.13.21-.01.13-.01.26 0 .25-.25.25h-6.74a.44.43-51.1 01-.09-.86c1.59-.36 2.54-1.11 3.17-2.7q3.65-9.18 7.24-18.37a.72.71-44.1 011.34.02c1.97 5.57 4.38 11.31 6.02 17.1q.88 3.12 4.02 4.42a.17.17 0 01-.07.33zm-14.43-10.02a.4.4 0 00.37.53l4.8.09a.4.4 0 00.39-.53l-2.28-6.98a.4.4 0 00-.76-.01l-2.52 6.9zM97.28 495.62q-1.07-.44-1.92-.55a.52.52 0 01.07-1.04l7.78.13a.52.52 0 01.51.57c-.08 1.03-2.92-.27-2.95 2.78q-.07 7.73.01 15.52a1.45 1.45 0 001.01 1.37q6.5 2.08 8.36-3.72a.56.55-30.1 011.07.28l-.99 4.49q-.12.55-.68.55H94.88a.34.34 0 01-.11-.67l2.32-.76q.67-.22.67-.93l-.02-17.34q0-.49-.46-.68zM125.03 496.04l-.04 7.13q-.01.4.37.54 4.57 1.68 6.66-1.9a.37.37 0 01.69.18l.13 5.63a.43.42-73.1 01-.67.36q-.84-.59-.85-1.78a.59.59 0 00-.57-.58l-5.08-.26a.7.7 0 00-.74.72l.24 7.4q.01.53.5.72 6.84 2.65 9.52-3.22a.53.53 0 011 .35l-1.01 4.19a.67.67 0 01-.65.5q-7.59-.09-15.16.08c-.43.01-.57.1-.63-.44q-.03-.29.25-.39l2.5-.87q.63-.22.63-.89l-.14-17.23a.57.55 9.5 00-.39-.53q-1.07-.36-2.12-.78a.44.44 0 01.16-.84l14.03.01q.51 0 .56.52l.34 3.77q.06.6-.53.67-.75.09-.83-.6c-.45-4.15-4.75-3.07-7.67-2.97q-.5.01-.5.51zM161.22 513.95l.04-17.45a.95.93 7.4 00-.72-.92l-2.03-.48q-.26-.06-.26-.34c.01-.18.12-.33.31-.35 9.19-.93 23.99-1.41 21.44 12.22-1.91 10.22-12.82 9.89-21.56 9.21a.31.31 0 01-.09-.6q1.12-.43 2.34-.65.53-.1.53-.64zm3.06-16.56l-.06 15.32a1.99 1.99 0 001.99 2h1.98a8.53 8.51.2 008.56-8.48v-2.28a8.53 8.51.2 00-8.5-8.54h-1.98a1.99 1.99 0 00-1.99 1.98zM201.39 495.59l-5.87-.13a.76.76 0 00-.78.77l.04 7.19q0 .58.58.58h4.75q.57 0 .8-.52l.77-1.77a.54.54 0 011.03.21l.06 5.42a.65.65 0 01-1.26.23l-.53-1.41q-.23-.6-.87-.62l-4.73-.14a.7.69 89.6 00-.71.73l.3 7.25a1.42 1.42 0 001.39 1.36c3.56.06 7.33.94 8.38-3.75a.62.62 0 01.64-.48c1.24.06-.09 4.09-.45 5.02q-.18.47-.68.47h-15.27q-.73 0-.28-.58.39-.51 1.03-.46a2.07 2.07 0 002.26-2.05q.03-7.92 0-15.92-.01-1.92-2.51-1.7a.45.45 0 01-.39-.74c.62-.76 11.24-.26 14.27-.44q.64-.04.74.59.36 2.15.03 4.32a.39.39 0 01-.75.08l-1.05-2.83q-.24-.66-.94-.68zM220.25 507.35v6.43a.89.89 0 00.69.87l2.21.52a.49.49 0 01.35.61c-.13.44-8.05.22-9.03.25q-.24.01-.23-.23.01-.15.01-.29 0-.18.17-.24l2.17-.8q.66-.25.66-.95v-16.87q0-.6-.47-.98-.76-.59-1.77-.41a.49.44 23.5 01-.38-.83q.54-.27 1.68-.27c4.8-.01 16.3-1.3 14.19 7.57-1.08 4.56-5.37 6.33-9.69 5.19q-.56-.15-.56.43zm-.02-10.83l.02 8.2a1.03 1.03 0 001.03 1.02h1.69a4.3 4.21-.1 004.29-4.22v-1.84a4.3 4.21-.1 00-4.31-4.2h-1.69a1.03 1.03 0 00-1.03 1.04zM271.69 507.94l.24 5.8a.99.99 0 00.71.91l2.02.57a.4.4 0 01-.11.78h-8.09q-.62 0-.43-.6c.27-.85 2.98-.17 2.97-2.15q-.01-8.13.01-16.26.01-1.96-2.28-1.8-.56.05-.48-.51l.04-.29q.03-.27.3-.27c4.65.05 17.44-1.9 15.27 7.17-.47 1.96-1.65 2.92-3.35 3.84a.62.61 63.9 00-.27.8q2.65 5.7 7.47 9.63.37.29-.09.42c-5.31 1.48-8.37-5.43-10.43-9.05a1.88 1.87-61.1 00-3.5 1.01zm.1-11.33l-.02 7.48a1.16 1.16 0 001.15 1.16l1.56.01a4.59 4.4-89.8 004.42-4.58v-.62a4.59 4.4-89.8 00-4.38-4.6l-1.56-.01a1.16 1.16 0 00-1.17 1.16zM330.54 505.57l-5.01-.17a.56.56 0 00-.58.56c-.01 1.73-.44 7.2.85 8.44q.37.37.9.36c3.6-.05 7.36.79 8.21-4.08a.55.55 0 011.09.13q-.16 2.42-1 4.68-.19.53-.76.53c-1.67-.02-15.45.19-15.74-.23a.43.43 0 01.37-.67c2.44.11 3.16-1.05 3.15-3.37q-.03-7.41-.02-14.76a1.52 1.49 25.5 00-.35-.96q-.81-.96-2.08-.78a.48.48 0 01-.53-.6c.17-.61 12.76-.55 14.28-.59a.88.88 0 01.9.86l.1 3.71a.5.48-16.5 01-.25.44l-.22.13a.33.33 0 01-.48-.17l-1.05-2.91a.8.78 80 00-.72-.52l-5.99-.14a.62.61-89.1 00-.63.62l-.03 7.3a.62.61.5 00.62.62h4.56q.57 0 .81-.52l.84-1.79a.49.49 0 01.94.2l.05 5.79a.52.52 0 01-.9.35q-.69-.76-.68-1.78a.67.67 0 00-.65-.68zM349.84 499.09a.3.3 0 00-.58.1l-.65 14.47q-.02.52.47.69l2.66.94a.37.36 54.7 01-.12.71h-7.41a.4.39-56.5 01-.15-.76l2.11-.92a.94.94 0 00.55-.75q.84-7.96 1.25-15.93c.09-1.72-.99-2.5-2.6-2.43a.36.35 89.3 01-.37-.37v-.33a.4.4 0 01.42-.42l4.64.22q.55.02.77.53 3.5 7.67 7.02 15.34a.34.33 45.7 00.61.01l7.08-15.35q.25-.53.83-.56l4.92-.23a.49.49 0 01.45.74l-.18.31q-.12.2-.36.16-1.46-.22-2.35.75-.35.38-.33.89.19 7.78.45 15.54c.07 1.83.97 2.57 2.68 2.75q.44.05.38.49c-.1.69-7.65.25-8.58.21q-.5-.02-.4-.51c.2-.94 2.85.43 2.91-3.37q.1-6.67-.09-13.34a.32.32 0 00-.61-.12l-7.47 16.88a.64.63 45.8 01-1.17-.02l-6.78-16.32zM382.92 495.62q-1.1-.43-2.09-.41a.55.45-41 01.17-1q7.05-.22 14.09-.03.57.02.61.59l.26 4.17a.45.45 0 01-.85.22l-1.42-3.05q-.25-.54-.84-.55l-5.68-.09q-.62-.01-.63.61l-.13 7.3q-.01.53.52.61c2.21.34 5.76.71 6.22-2.29a.54.54 0 011.07.08l.05 5.7a.6.6 0 01-1.16.21l-.55-1.53q-.23-.66-.93-.66h-4.55a.65.65 0 00-.65.66l.12 7.38a1.21 1.21 0 001.18 1.19c3.7.07 7.34.97 8.63-3.71q.14-.52.67-.46c.99.12-.12 3.78-.47 5q-.12.44-.58.44H380.6q-.31 0-.48-.27-.07-.12-.12-.25-.01-.02.01-.02l2.84-.99q.63-.23.63-.9.06-8.59-.02-17.18-.01-.57-.54-.77zM410.17 499.81l.26 13.88a.83.81-83.4 00.59.77l2.53.73a.28.28 0 01.2.27v.29q0 .25-.25.25h-7.58a.32.32 0 01-.29-.47c.29-.56 2.02-.69 2.63-1.52 1.1-1.52.49-12.73.49-15.25 0-2.2-.83-3.55-3.14-3.5a.51.51 0 01-.1-1.02q2.19-.38 4.34-.04.53.08.87.49l12.82 15.52q.62.75.66-.22.22-5.8-.11-11.97c-.13-2.59-1.23-2.65-3.42-3.06a.41.41 0 01.07-.82l7.75-.03a.38.37-74.5 01.32.57l-.2.34a.44.44 0 01-.37.2q-2.4.01-2.43 2.59-.1 9.08-.05 18.08a.6.6 0 01-.79.57c-1.89-.66-12.01-14.48-13.95-16.95a.48.48 0 00-.85.3z"/><ellipse fill="#009cb4" transform="rotate(-2.3 12605.815 -1432.398)" rx="3.91" ry=".52"/><ellipse fill="#009cb4" transform="rotate(-2.5 11808.035 -10800.045)" rx="3.67" ry=".46"/></svg>