<svg width="32" height="32" viewBox="0 0 32 32" fill="none" xmlns="http://www.w3.org/2000/svg">
<path d="M0 16C0 7.16344 7.16344 0 16 0C24.8366 0 32 7.16344 32 16C32 24.8366 24.8366 32 16 32C7.16344 32 0 24.8366 0 16Z" fill="#F6F5FF"/>
<path d="M22.7548 23.0827C22.5058 23.0827 22.3818 22.9594 22.3818 22.712V15.1753C22.3818 14.9284 22.5058 14.8052 22.7548 14.8052H23.467C23.7154 14.8052 23.8399 14.9284 23.8399 15.1753V22.712C23.8399 22.9594 23.7154 23.0827 23.467 23.0827H22.7548Z" fill="#ED6A32"/>
<path d="M22.7548 14.1061C22.5058 14.1061 22.3818 13.9829 22.3818 13.7355V13.0494C22.3818 12.8024 22.5058 12.6792 22.7548 12.6792H23.467C23.7154 12.6792 23.8399 12.8024 23.8399 13.0494V13.7355C23.8399 13.9829 23.7154 14.1061 23.467 14.1061H22.7548Z" fill="#ED6A32"/>
<path d="M18.617 12.6787C18.4206 12.6787 18.2619 12.8369 18.2619 13.0316V15.013C18.2619 15.1811 18.2674 15.3467 18.2783 15.5088H18.2619C17.9569 15.1515 17.6137 14.8696 17.2313 14.6631C16.8489 14.457 16.3391 14.354 15.7018 14.354C14.5939 14.354 13.7513 14.7971 13.175 15.6838C12.5987 16.571 12.3105 17.5972 12.3105 18.7633C12.3105 19.929 12.5987 20.9557 13.175 21.8424C13.7513 22.7291 14.5939 23.1727 15.7018 23.1727C16.3391 23.1727 16.8489 23.0697 17.2313 22.8636C17.6137 22.6571 17.9569 22.3757 18.2619 22.0174V22.668C18.2619 22.9119 18.3601 23.0347 18.5565 23.0347H19.2444C19.4477 23.0347 19.6124 22.8705 19.6124 22.6684V13.044C19.6124 12.8424 19.4477 12.6787 19.2449 12.6787L18.617 12.6787ZM18.2619 19.6988C18.2619 20.5126 18.0631 21.1184 17.6643 21.5171C17.2661 21.9158 16.7661 22.115 16.1646 22.115C15.318 22.115 14.7174 21.8059 14.3638 21.1874C14.0102 20.5693 13.8331 19.761 13.8331 18.7634C13.8331 17.7653 14.0102 16.9575 14.3638 16.3389C14.7174 15.7208 15.318 15.4113 16.1646 15.4113C16.7661 15.4113 17.2661 15.6109 17.6643 16.0097C18.0631 16.4084 18.2619 17.0142 18.2619 17.8279V19.6988Z" fill="#585856"/>
<path d="M14.8053 12.064H24.083L8.40864 8.875L7.15039 12.064H14.8053Z" fill="#ED6A32"/>
<path d="M10.2212 15.1831C9.72969 14.5936 8.90692 14.2983 7.75283 14.2983C7.32734 14.2983 6.90923 14.3466 6.49758 14.4428C6.37264 14.4718 6.2655 14.5064 6.15292 14.5394L5.48438 16.2334C5.64059 16.0791 5.80026 15.9411 5.9679 15.8337C6.18563 15.6937 6.42717 15.5813 6.69249 15.4961C6.95733 15.4113 7.31094 15.3684 7.75281 15.3684C8.44862 15.3684 8.91381 15.5567 9.14841 15.9323C9.38349 16.3083 9.50054 16.7544 9.50054 17.2699V17.8303C7.67246 17.9072 6.2987 18.1729 5.37971 18.6283C4.46022 19.0842 4 19.8004 4 20.7773C4 21.5457 4.24497 22.1451 4.73298 22.5758C5.22201 23.0071 5.91878 23.2225 6.8249 23.2225C7.33818 23.2225 7.80338 23.155 8.22098 23.0204C8.63754 22.8863 9.0641 22.6488 9.50051 22.3082V22.7119C9.50051 22.9588 9.60962 23.082 9.82734 23.082H10.5812C10.8326 23.082 10.9586 22.9588 10.9586 22.7119V17.6076C10.9586 16.5819 10.7131 15.7735 10.2212 15.1831ZM9.50058 21.3372C9.09736 21.6881 8.70556 21.905 8.32468 21.9873C7.9433 22.0701 7.54012 22.111 7.11506 22.111C6.83884 22.111 6.574 22.082 6.32008 22.0248C6.06566 21.9666 5.86679 21.835 5.72346 21.6295C5.57966 21.4235 5.50821 21.1504 5.50821 20.8103C5.50821 20.4372 5.65701 20.1065 5.95506 19.8182C6.25362 19.5298 6.63998 19.3273 7.11508 19.209C7.59021 19.0912 8.38521 18.9906 9.50061 18.9088L9.50058 21.3372Z" fill="#585856"/>
<path d="M26.4648 12.4778V23.0822H27.9224V11.1396L26.4648 12.4778Z" fill="#585856"/>
</svg>
