<svg width="32" height="32" viewBox="0 0 32 32" fill="none" xmlns="http://www.w3.org/2000/svg">
<path d="M0 16C0 7.16344 7.16344 0 16 0C24.8366 0 32 7.16344 32 16C32 24.8366 24.8366 32 16 32C7.16344 32 0 24.8366 0 16Z" fill="#F6F5FF"/>
<g clip-path="url(#clip0_1148_2510)">
<path d="M16.0301 27.9815C16.0352 27.9709 16.1269 27.8992 16.2339 27.8221C16.3408 27.745 16.4596 27.6588 16.4978 27.6305C16.536 27.6022 16.6298 27.5415 16.7062 27.4955C16.7826 27.4495 16.8514 27.4052 16.859 27.397C16.8857 27.3684 17.3749 27.0725 17.5998 26.9488C18.3385 26.5426 19.0374 26.2701 19.7902 26.0948C19.9277 26.0628 20.1653 26.0074 20.3181 25.9717C21.5683 25.6795 23.4553 25.0756 24.1169 24.7558C24.7292 24.4599 25.1605 24.1812 25.6921 23.7379C25.8965 23.5674 26.236 23.2477 26.3611 23.1079C26.672 22.7603 26.8291 22.5385 27.0678 22.1098C27.3586 21.5876 27.5287 21.1847 27.707 20.596C27.9637 19.7481 28.0513 18.8413 27.9714 17.8595C27.9406 17.48 27.7756 16.1903 27.7086 15.8048C27.6462 15.4451 27.5871 15.0897 27.5429 14.8075C27.4907 14.4742 27.3458 13.6611 27.2795 13.3296C27.2505 13.1842 27.194 12.8977 27.154 12.6928C27.114 12.4879 27.063 12.2338 27.0405 12.1281C26.9253 11.5847 26.8295 10.9108 26.7741 10.2536C26.7285 9.71382 26.759 8.60136 26.8297 8.22272C26.9044 7.82225 26.9663 7.56626 27.0271 7.40594C27.3845 6.46398 27.4021 6.39727 27.4026 5.9881C27.403 5.64292 27.4021 5.63814 27.312 5.4788C27.0987 5.10151 26.6214 4.91583 26.0299 4.97998C25.7978 5.00515 25.4593 5.09761 25.1579 5.21815C24.4972 5.48244 23.7332 5.6892 22.9437 5.81744C22.6216 5.86976 22.0739 5.90258 21.5128 5.9032C20.4962 5.90432 19.9799 5.81651 19.179 5.50626C18.4753 5.20366 17.6479 4.83566 17.0581 4.53422C17.0323 4.521 16.8738 4.44175 16.7059 4.35811C16.538 4.27446 16.3081 4.15967 16.1951 4.10301L15.9896 4L15.7783 4.10905C15.6621 4.16903 15.4858 4.25755 15.3865 4.30575C15.2871 4.35395 15.142 4.42778 15.0639 4.46981C14.8712 4.5461 14.6934 4.65701 14.5391 4.73146C14.371 4.81232 14.1772 4.90695 14.1084 4.94175C13.7746 5.11068 12.5606 5.61057 12.3025 5.68538C11.7075 5.85782 10.9851 5.93388 10.2005 5.9067C8.92144 5.86238 7.97073 5.66168 6.69011 5.16564C6.25519 4.99718 5.86728 4.9355 5.52492 4.98039C4.7991 5.07555 4.46695 5.53112 4.5922 6.25971C4.6204 6.42381 4.70714 6.71287 4.82797 7.04545C5.17303 7.99524 5.23282 8.35664 5.22758 9.4606C5.22299 10.4273 5.1591 11.0572 4.96677 12.0319C4.83904 12.6794 4.74508 13.1529 4.69026 13.4257C4.65838 13.5843 4.61936 13.7898 4.60354 13.8823C4.58771 13.9748 4.55074 14.1911 4.52137 14.363C4.49201 14.5348 4.418 14.989 4.35691 15.3723C4.29582 15.7556 4.23986 16.0912 4.23255 16.1181C4.22525 16.145 4.1877 16.4208 4.14912 16.7309C4.11053 17.041 4.06567 17.3867 4.04942 17.499C3.99959 17.8436 3.98232 18.9507 4.0216 19.283C4.17568 20.5865 4.64617 21.841 5.31276 22.7258C5.69317 23.2307 6.33457 23.8224 6.94026 24.2271C7.00898 24.273 7.07145 24.3163 7.07909 24.3232C7.09685 24.3394 7.42832 24.5269 7.66255 24.6532C8.01567 24.8438 8.49407 25.032 9.20456 25.26C9.41849 25.3286 9.66855 25.4109 9.76023 25.4427C10.1698 25.585 11.2567 25.8785 12.0246 26.0542C12.9914 26.2754 13.7058 26.5546 14.5668 27.0477C14.9475 27.2657 15.9417 27.9288 15.9653 27.9804C15.977 28.006 16.0179 28.0067 16.0301 27.9815Z" fill="#CC0000"/>
<path d="M15.6593 27.2977C14.9922 26.8368 14.4807 26.5499 13.8024 26.2561C13.2409 26.0128 12.9538 25.9185 12.3437 25.7764C11.0877 25.4839 10.2298 25.2397 9.03198 24.8336C7.89696 24.4487 7.22551 24.0697 6.41511 23.3563C6.16703 23.1379 6.04889 23.0136 5.70337 22.6077C5.33638 22.1765 4.84058 21.1187 4.6371 20.3327C4.44243 19.5807 4.42524 19.4323 4.42579 18.5083C4.42621 17.8435 4.43729 17.6113 4.48957 17.1746C4.52438 16.8838 4.5581 16.6297 4.5645 16.6099C4.57091 16.5901 4.60179 16.3954 4.63314 16.1773C4.66448 15.9592 4.72685 15.5699 4.77173 15.3122C4.81661 15.0545 4.87362 14.7192 4.89841 14.5672C4.94955 14.2537 5.20013 12.9596 5.25904 12.7048C5.30831 12.4917 5.48238 11.5649 5.52082 11.311C5.59483 10.8222 5.63831 10.2693 5.65329 9.62671C5.68018 8.47259 5.5829 7.87306 5.20714 6.87728C5.01063 6.35649 4.96029 6.15445 4.97135 5.93093C4.97854 5.78579 4.99734 5.70892 5.04475 5.63088C5.1215 5.50452 5.14153 5.48636 5.30112 5.39833C5.60485 5.27871 5.94112 5.31424 6.24516 5.39849C6.84043 5.59621 7.42891 5.82386 8.02332 5.97371C9.39706 6.31396 11.1016 6.35263 12.2465 6.06952C12.6311 5.97442 13.4776 5.63798 14.108 5.32972C14.1768 5.2961 14.2955 5.23894 14.3719 5.2027C14.4483 5.16646 14.5319 5.1256 14.5576 5.11189C14.6228 5.07712 15.0123 4.88306 15.1634 4.8101C15.2324 4.77678 15.3785 4.70378 15.4881 4.64789C15.6235 4.58764 15.7563 4.50452 15.875 4.45409L16.0028 4.40039L16.3126 4.55035C16.5478 4.68852 16.8201 4.80749 17.0273 4.9104C17.5485 5.16981 17.9533 5.36536 18.2617 5.5067C18.4145 5.57673 18.5708 5.64867 18.609 5.66656C19.1974 5.94208 20.0032 6.15944 20.6918 6.2284C21.3118 6.29048 22.4686 6.24502 23.1794 6.13063C23.7539 6.03819 24.6268 5.81566 25.0209 5.66115C25.1016 5.62953 25.1723 5.60365 25.1779 5.60365C25.1836 5.60365 25.2926 5.56176 25.4202 5.51056C25.7741 5.36853 25.9462 5.33199 26.2634 5.33155C26.5713 5.33115 26.6407 5.34826 26.7899 5.46158C26.9314 5.56904 27.0006 5.69906 27.0193 5.89288C27.0425 6.13169 26.9782 6.37599 26.7065 7.08185C26.5767 7.41895 26.4426 7.93126 26.3858 8.30715C26.3331 8.65581 26.3291 8.77229 26.3423 9.55677C26.3506 10.0479 26.3755 10.5881 26.3998 10.8064C26.4391 11.1589 26.6336 12.3033 26.6937 12.5351C26.7523 12.7613 27.0035 14.0612 27.1374 14.8316C27.214 15.2717 27.2511 15.5013 27.4032 16.4758C27.5657 17.5167 27.6231 18.6804 27.5443 19.3374C27.4148 20.4182 26.9808 21.6163 26.4392 22.3885C26.3578 22.5045 26.2787 22.6172 26.2634 22.639C26.0234 22.9808 25.2663 23.6604 24.7611 23.9876C24.0991 24.4163 23.6883 24.5962 22.4571 24.9964C21.3077 25.3699 20.9345 25.4736 19.7203 25.7562C18.459 26.0499 17.3273 26.5736 16.2083 27.3815C16.1028 27.4577 16.0085 27.52 15.9988 27.52C15.989 27.52 15.8363 27.42 15.6593 27.2977ZM16.2689 26.8172C16.4175 26.7215 16.5453 26.6372 16.553 26.6299C16.5732 26.6107 17.2456 26.2223 17.2587 26.2223C17.2647 26.2223 17.3509 26.1796 17.4503 26.1274C18.0494 25.8126 18.9747 25.4855 19.6509 25.3494C19.8457 25.3102 19.9535 25.2829 20.7345 25.0757C21.0554 24.9905 21.3992 24.8955 21.4985 24.8646C23.1581 24.3476 23.5032 24.223 23.9852 23.9674C24.4763 23.7069 25.0742 23.2679 25.4393 22.8999C25.5992 22.7386 25.9609 22.2963 26.0733 22.1245C26.4626 21.5291 26.7967 20.7413 26.9547 20.0463C27.0825 19.4838 27.0971 19.3279 27.0947 18.5444C27.0926 17.8855 27.0822 17.7161 27.0047 17.0785C26.854 15.8403 26.5712 14.1565 26.3326 13.0773C26.0088 11.6123 25.862 10.44 25.8616 9.31644C25.8612 8.56541 25.9394 7.98313 26.1145 7.42999C26.1459 7.33086 26.2135 7.11458 26.2647 6.94937C26.3159 6.78416 26.3974 6.54084 26.4457 6.40867C26.5045 6.24778 26.5348 6.11409 26.5374 6.00418C26.541 5.85215 26.5355 5.8357 26.4633 5.78189C26.4056 5.73889 26.3526 5.72378 26.2594 5.72378C26.1248 5.72378 25.7397 5.82842 25.4438 5.94537C24.6886 6.2439 23.6772 6.48845 22.721 6.6037C22.2999 6.65445 21.1186 6.67474 20.7067 6.6383C20.1776 6.5915 19.4623 6.44719 19.1579 6.32586C19.0928 6.29995 18.9709 6.2559 18.8868 6.22798C18.6942 6.16398 17.7648 5.74816 17.7523 5.72041C17.7472 5.70905 17.7297 5.69975 17.7134 5.69975C17.6971 5.69975 17.3537 5.53483 16.9503 5.33327C16.5469 5.13171 16.167 4.94191 16.1059 4.91148L15.995 4.85615L15.8851 4.91148C15.7972 4.95573 15.4312 5.13887 15.1021 5.30323C13.1049 6.30068 12.453 6.53062 11.3238 6.63585C10.9406 6.67156 10.0251 6.66611 9.55144 6.6253C9.02485 6.57994 8.41116 6.48212 7.96776 6.37287C7.85315 6.34464 7.69061 6.3057 7.60657 6.28634C7.40498 6.23991 7.11325 6.15831 7.00921 6.11926C5.86624 5.69025 5.68612 5.65089 5.52064 5.79403C5.38731 5.90935 5.39975 6.00155 5.64412 6.70906C5.86392 7.34541 6.02085 7.93689 6.08089 8.35519C6.12576 8.66787 6.12711 9.95049 6.08306 10.4219C6.00399 11.2681 5.83592 12.295 5.60717 13.3296C5.48714 13.8725 5.28247 15.009 5.13544 15.949C4.90937 17.3944 4.83115 18.6474 4.92136 19.3784C5.02261 20.1988 5.24387 20.9054 5.63095 21.6444C5.6794 21.7369 5.73017 21.8288 5.74376 21.8487C5.75734 21.8685 5.80822 21.9496 5.85683 22.0289C6.39751 22.9111 7.44663 23.7736 8.49407 24.197C8.85105 24.3413 8.83506 24.3353 9.13468 24.4343C10.4197 24.8589 11.3745 25.1313 12.3789 25.3599C13.0126 25.504 13.364 25.6152 13.935 25.8522C14.5072 26.0898 15.3172 26.5324 15.8584 26.9032C15.9271 26.9503 15.9868 26.9894 15.991 26.9901C15.9953 26.9907 16.1203 26.913 16.2689 26.8172ZM13.1078 24.211C12.88 24.1776 12.6419 24.0647 12.4875 23.9168C12.3231 23.7594 12.2693 23.6286 12.2533 23.3474C12.2406 23.1239 12.2453 23.0929 12.3096 22.9713C12.5099 22.593 12.965 22.4775 13.3034 22.7193C13.3776 22.7723 13.4967 22.921 13.4967 22.9606C13.4967 23.0345 13.3606 23.0983 13.2028 23.0983C12.9991 23.0983 12.9107 23.1641 12.8943 23.328C12.8771 23.4996 12.9438 23.5976 13.1356 23.683C13.2709 23.7432 13.3109 23.7498 13.4847 23.7409C13.7279 23.7285 13.9263 23.6425 14.0775 23.484C14.3516 23.1967 14.3363 22.8603 14.0304 22.4491C13.8622 22.223 13.7921 22.1534 13.3401 21.763C12.6625 21.1776 12.4687 20.8709 12.4687 20.3836C12.4687 20.1068 12.5111 19.9522 12.6378 19.7664C12.7665 19.5776 13.0633 19.3175 13.2337 19.2442C13.5854 19.0927 14.0972 19.1258 14.4738 19.3245C14.5974 19.3896 14.6372 19.3864 14.7609 19.3014C14.9 19.2058 15.0347 19.2026 15.0898 19.2935C15.1241 19.3501 15.1226 19.3695 15.0774 19.4579C14.9866 19.6355 14.886 20.0046 14.8876 20.1545C14.8885 20.2338 14.9121 20.3744 14.9402 20.4669C14.9682 20.5594 14.9857 20.6401 14.979 20.6462C14.9723 20.6522 14.8776 20.6373 14.7684 20.613C14.5297 20.5598 14.3317 20.5582 14.1646 20.608C14.0965 20.6283 14.0355 20.6404 14.029 20.6349C14.0171 20.6245 14.1293 20.3658 14.1645 20.3227C14.2088 20.2683 14.2522 20.0366 14.2352 19.9447C14.2091 19.8033 14.1393 19.7157 14.0095 19.6613C13.863 19.6 13.7389 19.6012 13.5857 19.6653C13.2871 19.7903 13.1578 20.235 13.3335 20.5328C13.3691 20.5931 13.6156 20.8254 13.939 21.1034C14.6246 21.6926 14.8184 21.9383 14.9546 22.3906C15.0103 22.5757 15.01 22.9991 14.9539 23.2081C14.831 23.6666 14.4123 24.0312 13.841 24.1773C13.6534 24.2252 13.3118 24.241 13.1078 24.211ZM15.0249 23.501C15.0249 23.483 15.0349 23.4581 15.0471 23.4455C15.1256 23.3649 15.2422 23.0075 15.4545 22.1971C15.5099 21.9856 15.592 21.6774 15.6369 21.5122C15.6818 21.347 15.756 21.0659 15.8017 20.8874C15.9515 20.3029 16.2211 19.3409 16.2832 19.1693C16.3254 19.0528 16.3751 18.9735 16.4453 18.911C16.5359 18.8301 16.5611 18.8208 16.687 18.8208C16.7643 18.8208 16.8327 18.8289 16.839 18.8388C16.8453 18.8487 16.8381 18.9529 16.823 19.0704C16.7768 19.4285 16.8099 19.5561 17.3443 21.0797C17.4255 21.311 17.5265 21.6006 17.5689 21.7233C17.6112 21.846 17.6746 21.9801 17.7098 22.0213L17.7737 22.0962L17.8093 22.0265C17.8368 21.9727 17.8466 21.6021 17.8525 20.3978L17.86 18.8387L17.7926 18.7396C17.7555 18.6851 17.6927 18.6143 17.6531 18.5823C17.6134 18.5502 17.581 18.5161 17.581 18.5063C17.581 18.4966 17.6841 18.4404 17.8102 18.3814C18.0885 18.251 18.2731 18.1619 18.4408 18.0769C18.6541 17.9688 18.6646 17.9685 18.6639 18.0705C18.6635 18.1197 18.6385 18.2403 18.6083 18.3385C18.5565 18.5069 18.5534 18.5991 18.5534 19.9546C18.5534 21.0541 18.5612 21.3921 18.5867 21.3921C18.6481 21.3921 18.8263 21.2688 18.8933 21.1799C18.9672 21.0818 19.0467 20.912 19.137 20.6591C19.2373 20.3784 19.3505 20.2626 19.5243 20.2626C19.635 20.2626 19.6611 20.3442 19.5952 20.4849C19.5045 20.6789 19.4934 21.0268 19.5681 21.3326C19.5852 21.4027 19.578 21.4093 19.3702 21.5129C19.2517 21.572 19.1306 21.6286 19.1012 21.6386C19.0718 21.6486 19.0146 21.6768 18.9742 21.7012C18.9338 21.7257 18.7882 21.798 18.6507 21.8618C18.5131 21.9257 18.2655 22.0461 18.1003 22.1296C17.9352 22.213 17.7939 22.2812 17.7864 22.2812C17.7789 22.2812 17.5752 22.3783 17.3336 22.4969C16.7942 22.7618 16.7901 22.7633 16.8171 22.6874C16.8284 22.6556 16.8624 22.5864 16.8925 22.5336C17.0233 22.3045 17.0272 22.2415 16.9319 21.911C16.8839 21.7448 16.8338 21.6088 16.8204 21.6086C16.7974 21.6083 16.5169 21.7134 16.1993 21.8413C16.0322 21.9085 16.0471 21.8776 15.9132 22.4358C15.8659 22.6332 15.8342 22.8189 15.8427 22.8485C15.8513 22.8781 15.8896 22.9345 15.9278 22.9737C16.0396 23.0886 16.0935 23.0494 15.3791 23.3731C15.1534 23.4754 15.0249 23.5218 15.0249 23.501ZM16.3935 21.368C16.5239 21.3152 16.6444 21.2719 16.6613 21.2719C16.7012 21.2719 16.7007 21.267 16.6367 21.0556C16.461 20.4752 16.4278 20.3824 16.4101 20.4236C16.3826 20.4878 16.1385 21.4642 16.1499 21.4642C16.1534 21.4642 16.263 21.4209 16.3935 21.368ZM20.2971 20.8854C20.0814 20.8414 19.9007 20.7072 19.7981 20.5146L19.7342 20.3948L19.7425 19.1332C19.7517 17.7446 19.7561 17.7837 19.5806 17.7119C19.5276 17.6902 19.4842 17.6577 19.4842 17.6398C19.4842 17.6219 19.5904 17.5578 19.7203 17.4975C19.8502 17.4372 20.0003 17.366 20.0537 17.3392C20.353 17.1896 20.6432 17.0637 20.6584 17.0768C20.668 17.0851 20.6395 17.1537 20.5952 17.2294L20.5145 17.3669L20.4906 18.6799C20.4653 20.0691 20.4695 20.1358 20.5896 20.2467C20.802 20.443 21.2658 20.3403 21.5282 20.0388C21.7001 19.8413 21.7007 19.8357 21.7128 18.3484C21.7252 16.8138 21.7295 16.8495 21.5284 16.8026C21.3182 16.7537 21.3491 16.7302 22.0323 16.4208C22.2113 16.3398 22.3658 16.2734 22.3757 16.2734C22.411 16.2734 22.354 16.4076 22.2743 16.5119L22.1931 16.6181V18.1382C22.1931 19.073 22.1818 19.7307 22.1637 19.8463C22.1211 20.1188 22.011 20.3071 21.7815 20.5004C21.5579 20.6888 21.2719 20.8274 21.0069 20.876C20.7992 20.914 20.4595 20.9186 20.2971 20.8854ZM23.1576 19.7191C23.133 19.6978 23.1643 19.5769 23.2394 19.403L23.3045 19.2522V17.7148C23.3045 16.8692 23.297 16.1773 23.2879 16.1773C23.2582 16.1773 23.0985 16.2791 22.9895 16.3673C22.8721 16.4625 22.8208 16.5392 22.7068 16.7901C22.625 16.9702 22.5682 17.0424 22.5083 17.0424C22.4786 17.0424 22.4709 16.9663 22.4709 16.6719C22.4709 16.4681 22.4639 16.2856 22.4554 16.2663C22.44 16.2316 22.4725 16.2149 23.235 15.8643C23.3573 15.8081 23.526 15.7281 23.6101 15.6864C23.6941 15.6448 23.8629 15.5659 23.9852 15.5111C24.1074 15.4563 24.2637 15.3838 24.3325 15.3501C24.4012 15.3164 24.4762 15.2813 24.4992 15.2722C24.5221 15.2631 24.5875 15.2305 24.6445 15.1998C24.7015 15.1691 24.7546 15.144 24.7626 15.144C24.7705 15.144 24.777 15.3549 24.777 15.6126C24.777 16.0618 24.7748 16.0812 24.7226 16.0812C24.6927 16.0812 24.6333 16.0418 24.5907 15.9937C24.4375 15.8211 24.4187 15.8103 24.2945 15.8233C24.2313 15.83 24.1453 15.8472 24.1032 15.8616L24.0268 15.8878V17.4342V18.9806L24.0894 19.0283C24.1237 19.0545 24.1863 19.0886 24.2283 19.104C24.3649 19.1543 24.326 19.213 24.0853 19.3197C23.7253 19.4794 23.3221 19.6667 23.2635 19.7014C23.2026 19.7376 23.1828 19.7409 23.1576 19.7191ZM15.0526 18.5072C15.0526 18.4141 15.1073 18.3236 15.2188 18.232C15.2671 18.1923 15.3338 18.122 15.3672 18.0758C15.4275 17.992 15.4277 17.987 15.4308 16.5618C15.4341 15.0534 15.4327 15.0347 15.3094 14.9796C15.2828 14.9678 15.2135 14.9506 15.1554 14.9416C15.0522 14.9254 14.9756 14.8451 15.022 14.8017C15.0508 14.7748 16.3144 14.1692 16.553 14.068C16.7545 13.9825 16.8612 13.9473 17.079 13.9519C17.3302 13.9571 17.3795 13.9802 17.5938 14.0718C18.1418 14.306 18.4701 14.8326 18.4701 15.4775C18.4701 15.734 18.3977 16.2135 18.3307 16.4012C18.2054 16.7521 17.9749 17.0724 17.6755 17.3118C17.4606 17.4836 17.2788 17.5837 16.688 17.8554C15.9563 18.1918 15.0882 18.5804 15.0683 18.5804C15.0597 18.5804 15.0526 18.5475 15.0526 18.5072ZM16.653 17.3663C16.9553 17.1905 17.2752 16.8889 17.41 16.6528C17.5927 16.3326 17.6227 16.203 17.6225 15.7327C17.6224 15.4195 17.6103 15.2794 17.5706 15.132C17.3954 14.4811 16.9359 14.3058 16.3061 14.6496L16.1918 14.712V16.154V17.596L16.3266 17.5369C16.4007 17.5044 16.5476 17.4276 16.653 17.3663ZM6.66191 17.5863C6.66191 17.568 6.69341 17.4915 6.73191 17.4162C6.86103 17.1637 7.02682 16.6974 7.13828 16.2734C7.28838 15.7025 7.4135 15.2238 7.5623 14.6513C7.63101 14.387 7.75056 13.9274 7.82797 13.63C7.90537 13.3326 7.98773 13.011 8.01098 12.9153C8.14565 12.361 8.25594 12.1277 8.45495 11.9762C8.52313 11.9242 8.618 11.875 8.66578 11.8667C8.78781 11.8456 8.96207 11.848 8.97852 11.8711C8.98613 11.8817 8.98084 11.9331 8.96677 11.9852C8.95271 12.0374 8.93315 12.1827 8.92332 12.3083C8.90234 12.576 8.94372 12.784 9.10726 13.2327C9.16523 13.3918 9.27479 13.6949 9.35073 13.9064C9.95645 15.593 9.96244 15.6079 10.0681 15.6932C10.1399 15.751 10.1766 15.7664 10.1982 15.7477C10.2381 15.7132 10.2677 15.0762 10.2982 13.594C10.3176 12.6489 10.3156 12.3857 10.2886 12.3608C10.2697 12.3434 10.2055 12.3146 10.1459 12.2969C10.0864 12.2792 10.0377 12.2545 10.0377 12.2419C10.0377 12.189 10.3905 11.9651 10.6702 11.8407C11.2468 11.5841 11.6645 11.5255 11.9842 11.6563C12.1858 11.7388 12.3004 11.8545 12.4229 12.0989C12.5492 12.3953 12.5507 12.6847 12.4456 13.0052C12.2759 13.4155 12.0974 13.6263 11.7246 13.8569C11.6239 13.9192 11.5821 13.96 11.5915 13.9871C11.5989 14.0088 11.6293 14.1022 11.659 14.1948C11.8187 14.6931 12.0953 15.0489 12.4965 15.272C12.6786 15.3732 12.9398 15.4427 13.0698 15.4245C13.124 15.4169 13.1633 15.4215 13.1633 15.4355C13.1633 15.499 13.0023 15.631 12.8411 15.6996C12.6777 15.7692 12.6476 15.7742 12.4484 15.7638C11.9564 15.7382 11.6604 15.4787 11.2342 14.6994C11.1547 14.554 11.0629 14.3864 11.0302 14.3269L10.9706 14.2188L10.9765 14.7955L10.9823 15.3723L11.0796 15.4143C11.133 15.4373 11.1768 15.4732 11.1768 15.4939C11.1768 15.5171 11.0749 15.5781 10.9128 15.652C10.7677 15.7182 10.4364 15.8705 10.1766 15.9906C9.9168 16.1106 9.56047 16.2731 9.38474 16.3516C9.209 16.4301 9.0507 16.5046 9.03296 16.5172C8.96534 16.5653 8.97326 16.4912 9.0554 16.3075C9.10217 16.2028 9.15001 16.1064 9.16171 16.0932C9.20968 16.039 9.25025 15.8112 9.23334 15.6911C9.21941 15.5921 9.11808 15.2534 9.093 15.222C9.09032 15.2186 8.92043 15.292 8.71548 15.3851C8.51053 15.4781 8.26157 15.5889 8.16224 15.6313C8.06292 15.6736 7.97659 15.7109 7.97041 15.7142C7.96423 15.7175 7.92295 15.9014 7.87867 16.123C7.78929 16.5701 7.76652 16.9018 7.82189 16.9498C7.84099 16.9664 7.85662 16.9969 7.85662 17.0175C7.85662 17.0526 7.7823 17.0914 7.14957 17.386C7.04181 17.4362 6.88801 17.5093 6.80778 17.5484C6.70466 17.5987 6.66191 17.6099 6.66191 17.5863ZM8.25404 15.1237C8.33344 15.0861 8.51406 15.0031 8.65541 14.9392C8.81439 14.8674 8.91231 14.8087 8.91215 14.7853C8.91198 14.7645 8.88099 14.6447 8.84322 14.5192C8.80545 14.3936 8.72279 14.107 8.65953 13.8824C8.54487 13.4752 8.49822 13.3514 8.4965 13.45C8.496 13.4766 8.43886 13.7253 8.36945 14.0027C8.22447 14.5822 8.07889 15.1745 8.07889 15.1849C8.07889 15.2018 8.11823 15.188 8.25404 15.1237ZM11.3713 13.4291C11.5617 13.3163 11.7335 13.1516 11.7689 13.048C11.823 12.8893 11.8573 12.6438 11.8403 12.5366C11.778 12.1432 11.55 12.0246 11.1709 12.1885C11.0076 12.2591 11.0028 12.2639 10.9863 12.3747C10.9739 12.458 10.9587 13.4539 10.9675 13.6112C10.9685 13.6298 11.2362 13.5091 11.3713 13.4291ZM19.3043 16.4993C19.0288 16.4352 18.8942 16.3439 18.7592 16.1293C18.7089 16.0495 18.7062 15.9779 18.7062 14.7355C18.7062 14.0151 18.696 13.4121 18.6835 13.3954C18.671 13.3787 18.6108 13.3429 18.5497 13.316C18.4277 13.2621 18.4228 13.2346 18.5264 13.1843C18.6313 13.1333 19.0686 12.9285 19.3175 12.8138C19.4397 12.7574 19.5516 12.7017 19.5661 12.69C19.6505 12.622 19.663 12.7299 19.5811 12.8199C19.5504 12.8537 19.5135 12.9346 19.4993 12.9998C19.485 13.065 19.4711 13.7023 19.4684 14.4161C19.4631 15.8263 19.4602 15.7977 19.6183 15.8988C19.6784 15.9372 19.7371 15.9489 19.8683 15.9484C20.1629 15.9473 20.424 15.7979 20.5716 15.546C20.6775 15.3651 20.6967 15.0583 20.6871 13.695C20.6794 12.5996 20.6758 12.5266 20.6274 12.4804C20.5991 12.4533 20.5405 12.4245 20.4973 12.4163C20.3736 12.3928 20.3455 12.3458 20.4274 12.2993C20.4653 12.2778 20.5019 12.2602 20.5088 12.2602C20.5156 12.2602 20.6977 12.1787 20.9135 12.0791C21.1292 11.9794 21.3174 11.9041 21.3316 11.9117C21.3648 11.9294 21.3249 12.0215 21.242 12.1184L21.179 12.1921L21.1637 13.8303C21.15 15.2945 21.1432 15.4837 21.0997 15.6126C21.0325 15.8119 20.9343 15.9484 20.7366 16.1173C20.5291 16.2945 20.2499 16.4248 19.9395 16.4891C19.6672 16.5456 19.5141 16.548 19.3043 16.4993ZM12.6077 14.8498C12.6077 14.8053 12.6834 14.6608 12.7433 14.5913L12.8156 14.5072L12.8158 13.0292C12.8161 11.3378 12.8151 11.3282 12.6293 11.1947C12.56 11.1449 12.5216 11.0996 12.5309 11.0787C12.5463 11.0438 13.1723 10.7462 13.2295 10.7464C13.2466 10.7465 13.2807 10.7763 13.3052 10.8125C13.3978 10.9493 14.1435 11.9372 14.1779 11.9688C14.2077 11.996 14.283 11.8199 14.6125 10.9522L15.011 9.90277L15.3133 9.75701C15.7276 9.55725 15.8852 9.48772 15.8978 9.49906C15.9037 9.50436 15.8903 9.58979 15.868 9.68892C15.837 9.82741 15.8222 10.2281 15.8045 11.4192C15.7791 13.1219 15.7759 13.0818 15.9413 13.1133C16.0272 13.1296 16.0869 13.2277 16.0356 13.2683C16.0222 13.2789 15.8487 13.3607 15.65 13.45C15.4514 13.5394 15.1895 13.6598 15.0681 13.7175C14.9218 13.7871 14.838 13.8144 14.8197 13.7986C14.7926 13.7752 14.8022 13.7545 14.9403 13.5393C14.9844 13.4705 14.993 13.3757 15.0079 12.7943C15.0173 12.4279 15.0305 11.935 15.0372 11.699C15.0439 11.463 15.0451 11.2737 15.0399 11.2784C15.0347 11.2831 14.9737 11.433 14.9043 11.6114C14.8348 11.7898 14.671 12.2059 14.5403 12.536C14.4095 12.8661 14.3025 13.14 14.3025 13.1448C14.3025 13.188 14.2199 13.1001 14.0871 12.9154C13.9993 12.7933 13.8462 12.5808 13.7468 12.443L13.5662 12.1926L13.5442 12.6169C13.5226 13.0333 13.5377 13.8183 13.5707 13.997C13.5799 14.0469 13.6168 14.1117 13.6528 14.1412C13.7641 14.2325 13.7406 14.3045 13.5732 14.3852C13.4929 14.4238 13.262 14.5403 13.0599 14.644C12.6958 14.8309 12.6077 14.871 12.6077 14.8498ZM16.2196 13.1198C16.2196 13.0904 16.2628 13.0057 16.3155 12.9318L16.4115 12.7973L16.4402 11.5855C16.4561 10.9191 16.4744 10.2263 16.481 10.046C16.4949 9.66731 16.4838 9.64099 16.2794 9.56519C16.1609 9.52125 16.1099 9.48513 16.1089 9.44431C16.1085 9.43081 16.6513 9.16519 17.4143 8.80552C18.2347 8.41878 18.4005 8.33916 18.4305 8.31763C18.4498 8.30376 18.4718 8.30219 18.4803 8.31406C18.4887 8.32576 18.4972 8.52846 18.4991 8.76449C18.5027 9.19079 18.5023 9.19379 18.4393 9.21396C18.345 9.24411 18.2481 9.1967 18.1293 9.06228C18.0718 8.9972 18.0091 8.94395 17.99 8.94395C17.9709 8.94395 17.9054 8.96743 17.8445 8.99612C17.7836 9.02482 17.6338 9.09445 17.5115 9.15086L17.2893 9.25342L17.2684 9.89574C17.257 10.249 17.2533 10.543 17.2603 10.549C17.2673 10.5551 17.3116 10.5319 17.3588 10.4976C17.406 10.4633 17.7084 10.3205 18.0308 10.1804C18.5726 9.94491 18.8801 9.78293 18.9613 9.69028C18.9902 9.65717 18.9966 9.65839 19.0163 9.70093C19.0829 9.84463 18.9841 10.1004 18.7901 10.286C18.7057 10.3668 18.4353 10.506 18.3626 10.506C18.3474 10.506 18.1827 10.5494 17.9966 10.6024C17.5989 10.7158 17.3628 10.8433 17.2938 10.9819C17.2321 11.106 17.2133 12.1833 17.2718 12.2444C17.3384 12.314 17.4923 12.2924 17.7572 12.1762C18.2326 11.9678 18.3712 11.8231 18.51 11.3907C18.5557 11.2486 18.6688 11.1068 18.7365 11.1068C18.7689 11.1068 18.7757 11.1863 18.7757 11.5633C18.7757 11.8715 18.766 12.0199 18.746 12.0199C18.7215 12.0199 18.2234 12.2507 17.3448 12.6691C17.2684 12.7055 17.1309 12.7705 17.0392 12.8134C16.6602 12.9911 16.5328 13.0517 16.4141 13.1107C16.2604 13.1871 16.2196 13.189 16.2196 13.1198ZM18.9069 11.8768C18.8936 11.8328 18.9103 11.7979 19.0324 11.615C19.0757 11.5502 19.085 11.3825 19.1214 10.009C19.1673 8.27475 19.1794 8.39148 18.9473 8.32457C18.8489 8.2962 18.7487 8.21374 18.7804 8.18714C18.7996 8.17094 19.3278 7.91313 19.5536 7.80967C19.6835 7.75017 19.917 7.6404 20.0724 7.56574C20.2279 7.49108 20.3675 7.42999 20.3827 7.42999C20.3979 7.42999 20.4145 7.42131 20.4196 7.4107C20.4247 7.40009 20.5476 7.33653 20.6928 7.26945C20.8379 7.20237 20.9965 7.12745 21.0452 7.10295C21.0939 7.07846 21.1396 7.06362 21.1467 7.06998C21.1538 7.07633 21.1639 7.27511 21.1692 7.5117C21.1787 7.93456 21.1778 7.94227 21.1182 7.96528C21.0202 8.00308 20.9317 7.96743 20.8353 7.8513C20.6894 7.67554 20.6759 7.67458 20.3663 7.8181C20.2173 7.88713 20.0629 7.95779 20.0232 7.97512L19.951 8.00664L19.9354 8.64952C19.9269 9.00311 19.9232 9.2954 19.9273 9.29905C19.9315 9.30271 20.0022 9.26633 20.0846 9.2182C20.1669 9.17008 20.4156 9.05507 20.6372 8.96263C21.1451 8.75072 21.394 8.62534 21.5436 8.50612C21.6558 8.41664 21.6628 8.41448 21.6911 8.46022C21.7965 8.63068 21.5631 9.02172 21.267 9.17075C21.2033 9.20279 21.0241 9.26151 20.8687 9.30125C20.4103 9.41846 20.1835 9.50989 20.0573 9.62825C19.9905 9.69094 19.9403 9.76474 19.9316 9.81293C19.9236 9.85707 19.9123 10.1169 19.9066 10.3903C19.8942 10.9782 19.9084 11.0347 20.0688 11.0347C20.1978 11.0347 20.6375 10.8533 20.7973 10.7342C20.9686 10.6065 21.0673 10.4697 21.1357 10.2652C21.1687 10.1663 21.2093 10.0553 21.2259 10.0185C21.257 9.94945 21.3713 9.85715 21.4258 9.85712C21.4477 9.85711 21.455 9.98579 21.4507 10.295C21.4438 10.7873 21.4539 10.7641 21.2068 10.8586C21.1456 10.882 21.0894 10.9076 21.0817 10.9154C21.0741 10.9233 20.9616 10.9787 20.8317 11.0385C20.7018 11.0984 20.383 11.248 20.1232 11.3709C19.8634 11.4938 19.5884 11.6236 19.512 11.6593C19.0537 11.8735 18.9434 11.9238 18.9329 11.9238C18.9264 11.9238 18.9147 11.9027 18.9069 11.8768ZM17.3772 8.54143C17.3487 8.50068 17.8925 7.76588 17.9502 7.76719C18.0526 7.76952 18.1367 7.89891 18.1367 8.05444C18.1367 8.13683 18.1191 8.1606 17.9783 8.26916C17.8912 8.3363 17.8037 8.39124 17.7838 8.39124C17.7639 8.39124 17.7477 8.40029 17.7477 8.41137C17.7477 8.43268 17.4651 8.55946 17.4177 8.55946C17.4023 8.55946 17.3841 8.55134 17.3772 8.54143Z" fill="white"/>
</g>
<defs>
<clipPath id="clip0_1148_2510">
<rect width="24" height="24" fill="white" transform="translate(4 4)"/>
</clipPath>
</defs>
</svg>
