<svg width="32" height="32" viewBox="0 0 32 32" fill="none" xmlns="http://www.w3.org/2000/svg">
<path d="M0 16C0 7.16344 7.16344 0 16 0C24.8366 0 32 7.16344 32 16C32 24.8366 24.8366 32 16 32C7.16344 32 0 24.8366 0 16Z" fill="#F6F5FF"/>
<g clip-path="url(#clip0_1152_3260)">
<circle cx="15.9997" cy="16.0002" r="11.027" fill="#FF7F09"/>
<path fill-rule="evenodd" clip-rule="evenodd" d="M14.7843 6.83764C20.3907 6.7861 23.769 9.48881 24.9194 14.9457C25.0441 19.7535 22.8549 22.9697 18.3518 24.5944C12.9936 25.551 9.29086 23.524 7.24373 18.5133C6.20942 12.3085 8.72294 8.41661 14.7843 6.83764Z" fill="#FFF5F0"/>
<path fill-rule="evenodd" clip-rule="evenodd" d="M8.6221 19.8106C13.4882 19.7566 18.353 19.8106 23.2167 19.9727C20.9754 23.523 17.7862 24.8473 13.6491 23.9457C11.3562 23.3002 9.68055 21.9218 8.6221 19.8106Z" fill="#FF7E03"/>
<path fill-rule="evenodd" clip-rule="evenodd" d="M20.1356 17.8647C20.5344 18.2654 20.4804 18.6708 19.9734 19.0809C18.9683 19.2077 18.9413 19.0185 19.8924 18.5133C19.9589 18.2862 20.0399 18.07 20.1356 17.8647Z" fill="#FF8327"/>
<path fill-rule="evenodd" clip-rule="evenodd" d="M11.541 17.7025C11.7032 17.7025 11.8653 17.7025 12.0275 17.7025C12.0021 17.9252 12.0291 18.1414 12.1086 18.3511C12.4599 18.5944 12.8113 18.8376 13.1626 19.0809C12.1659 19.1749 11.6254 18.7155 11.541 17.7025Z" fill="#FF7E1C"/>
<path fill-rule="evenodd" clip-rule="evenodd" d="M14.2978 7.64842C19.0045 7.1758 22.2207 9.12175 23.9464 13.4863C24.3119 15.2312 24.2578 16.961 23.7843 18.6754C23.7236 18.824 23.6425 18.9592 23.541 19.0809C22.5098 19.2155 21.4827 19.1885 20.4599 18.9998C20.7048 18.2931 21.1102 17.6985 21.6762 17.216C22.1158 15.9585 22.6833 14.7693 23.3789 13.6484C23.3249 13.5403 23.2707 13.4322 23.2167 13.3241C22.5979 13.0955 22.0032 12.8253 21.4329 12.5133C21.37 13.2572 21.37 14.0139 21.4329 14.7836C20.4453 14.7066 19.4994 14.8688 18.5951 15.27C17.8825 14.7873 17.2339 14.8414 16.6491 15.4322C16.4176 16.0111 16.3095 16.6057 16.3248 17.216C16.7855 16.8911 17.299 16.81 17.8653 16.9727C18.4701 17.3345 19.1187 17.5777 19.8113 17.7025C19.8443 18.009 19.7362 18.2523 19.487 18.4322C19.0372 18.7652 18.5507 19.0085 18.0275 19.1619C17.8653 19.1079 17.7032 19.0538 17.541 18.9998C17.848 18.6021 18.0642 18.1697 18.1897 17.7025C16.6762 17.7025 15.1626 17.7025 13.6491 17.7025C13.6241 18.2742 13.8403 18.7336 14.2978 19.0809C14.1897 19.1079 14.0816 19.1349 13.9735 19.1619C13.439 18.9485 12.9526 18.6512 12.514 18.27C12.3713 18.0501 12.3172 17.8069 12.3518 17.5403C12.7012 17.5611 13.0256 17.48 13.3248 17.2971C13.8113 16.9187 14.2978 16.5403 14.7843 16.1619C15.1954 16.0618 15.5737 16.1429 15.9194 16.4052C15.9734 16.3511 16.0275 16.2971 16.0816 16.243C15.7616 15.7978 15.5184 15.3113 15.3518 14.7836C15.1483 14.444 14.851 14.2819 14.4599 14.2971C14.0005 14.4035 13.5951 14.6197 13.2437 14.9457C12.2568 14.6026 11.2568 14.5485 10.2437 14.7836C10.2965 14.0727 10.2425 13.37 10.0816 12.6754C9.48315 13.113 8.88855 13.5455 8.29778 13.9727C8.43291 14.243 8.56805 14.5133 8.70318 14.7836C9.54219 15.7328 10.353 16.7058 11.1356 17.7025C11.136 18.224 11.3252 18.6564 11.7032 18.9998C10.5317 19.2125 9.36955 19.2125 8.2167 18.9998C6.71519 13.299 8.74221 9.51523 14.2978 7.64842Z" fill="#FF7F07"/>
<path d="M23.9563 15.9191C23.9563 11.4803 20.3578 7.88187 15.9191 7.88184C11.4803 7.88184 7.88184 11.4803 7.88184 15.9191C7.88187 20.3578 11.4803 23.9563 15.9191 23.9563V25.0813L15.6825 25.078C10.8103 24.9546 6.88329 21.0278 6.75977 16.1556L6.75684 15.9191C6.75684 10.8589 10.8589 6.75684 15.9191 6.75684L16.1556 6.75977C21.1064 6.88528 25.0813 10.9381 25.0813 15.9191L25.078 16.1556C24.9525 21.1064 20.9 25.0813 15.9191 25.0813V23.9563C20.3578 23.9563 23.9563 20.3578 23.9563 15.9191Z" fill="white"/>
</g>
<defs>
<clipPath id="clip0_1152_3260">
<rect width="24" height="24" fill="white" transform="translate(4 4)"/>
</clipPath>
</defs>
</svg>
