<svg width="32" height="32" viewBox="0 0 32 32" fill="none" xmlns="http://www.w3.org/2000/svg">
<path d="M0 16C0 7.16344 7.16344 0 16 0C24.8366 0 32 7.16344 32 16C32 24.8366 24.8366 32 16 32C7.16344 32 0 24.8366 0 16Z" fill="#F6F5FF"/>
<g clip-path="url(#clip0_1148_2729)">
<ellipse cx="16.011" cy="15.8036" rx="11.2727" ry="11.4462" fill="#0062AE"/>
<path d="M17.4508 7.68074C17.1357 7.68074 16.8455 7.93734 16.8026 8.25501C16.7597 8.57219 16.9767 8.82876 17.292 8.82876C17.6071 8.82876 17.8973 8.57222 17.9402 8.25501C17.9856 7.93757 17.7662 7.68074 17.4508 7.68074ZM15.8972 8.32335C15.6022 8.32335 15.3298 8.5644 15.2894 8.86152C15.2642 9.04412 15.3322 9.20706 15.4559 9.3035L16.2451 9.83652C16.2451 9.83652 16.1215 10.7329 16.0584 11.1978C16.0382 11.3321 16.2024 11.4161 16.3311 11.35C16.5506 11.2386 16.9866 10.9998 16.9866 10.9998C16.9866 10.9998 17.3574 11.2386 17.544 11.35C17.6525 11.4161 17.8415 11.3321 17.8593 11.1978C17.9224 10.7355 18.0511 9.83652 18.0511 9.83652L18.9889 9.3035C19.1402 9.20443 19.254 9.04409 19.2791 8.86152C19.3195 8.56419 19.115 8.32335 18.82 8.32335C18.7166 8.32335 18.6133 8.35096 18.4896 8.41703L17.2486 9.11534V9.11797L16.1717 8.40444C16.096 8.35109 16.0003 8.32324 15.8968 8.32324L15.8972 8.32335Z" fill="white"/>
<path d="M13.5661 9.5066C13.235 9.5066 12.9299 9.77418 12.8848 10.1054C12.8398 10.4362 13.0678 10.7038 13.3992 10.7038C13.7303 10.7038 14.0354 10.4362 14.0805 10.1054C14.1282 9.77443 13.8975 9.5066 13.5661 9.5066ZM11.9334 10.1767C11.6233 10.1767 11.337 10.4281 11.2945 10.7379C11.268 10.9283 11.3395 11.0982 11.4695 11.1988L12.2989 11.7546C12.2989 11.7546 12.169 12.6894 12.1027 13.1742C12.0815 13.3142 12.254 13.4018 12.3893 13.3329C12.62 13.2167 13.0782 12.9678 13.0782 12.9678C13.0782 12.9678 13.4679 13.2167 13.664 13.3329C13.7781 13.4018 13.9767 13.3143 13.9954 13.1742C14.0617 12.6921 14.197 11.7546 14.197 11.7546L15.1825 11.1988C15.3416 11.0955 15.4612 10.9283 15.4875 10.7379C15.53 10.4279 15.3151 10.1767 15.0051 10.1767C14.8964 10.1767 14.7878 10.2055 14.6579 10.2744L13.3536 11.0026V11.0053L12.2218 10.2613C12.1423 10.2056 12.0417 10.1766 11.9329 10.1766L11.9334 10.1767Z" fill="white"/>
<path d="M13.0095 13.447C12.6783 13.447 12.3733 13.7146 12.3282 14.0459C12.2831 14.3766 12.5111 14.6442 12.8426 14.6442C13.1737 14.6442 13.4787 14.3767 13.5238 14.0459C13.5715 13.7149 13.3409 13.447 13.0095 13.447ZM11.3767 14.1171C11.0667 14.1171 10.7804 14.3685 10.7379 14.6783C10.7114 14.8688 10.7829 15.0387 10.9129 15.1392L11.7423 15.6951C11.7423 15.6951 11.6124 16.6298 11.5461 17.1146C11.5249 17.2547 11.6974 17.3423 11.8327 17.2734C12.0634 17.1571 12.5216 16.9082 12.5216 16.9082C12.5216 16.9082 12.9112 17.1571 13.1074 17.2734C13.2214 17.3422 13.4201 17.2547 13.4388 17.1146C13.5051 16.6325 13.6404 15.6951 13.6404 15.6951L14.6259 15.1392C14.785 15.0359 14.9045 14.8687 14.9309 14.6783C14.9733 14.3683 14.7585 14.1171 14.4484 14.1171C14.3397 14.1171 14.2312 14.1459 14.1012 14.2148L12.797 14.943V14.9458L11.6652 14.2017C11.5856 14.1461 11.485 14.117 11.3762 14.117L11.3767 14.1171Z" fill="white"/>
<path d="M16.6872 11.4866C16.356 11.4866 16.051 11.7542 16.0059 12.0854C15.9608 12.4162 16.1889 12.6837 16.5203 12.6837C16.8514 12.6837 17.1565 12.4162 17.2016 12.0854C17.2493 11.7544 17.0186 11.4866 16.6872 11.4866ZM15.0544 12.1567C14.7444 12.1567 14.4581 12.4081 14.4156 12.7179C14.3891 12.9083 14.4606 13.0782 14.5906 13.1788L15.42 13.7346C15.42 13.7346 15.2901 14.6693 15.2238 15.1542C15.2026 15.2942 15.3751 15.3818 15.5104 15.3129C15.7411 15.1967 16.1993 14.9477 16.1993 14.9477C16.1993 14.9477 16.589 15.1967 16.7851 15.3129C16.8992 15.3818 17.0978 15.2943 17.1165 15.1542C17.1828 14.672 17.3181 13.7346 17.3181 13.7346L18.3036 13.1788C18.4627 13.0755 18.5823 12.9083 18.6086 12.7179C18.6511 12.4078 18.4362 12.1567 18.1262 12.1567C18.0174 12.1567 17.9089 12.1855 17.779 12.2544L16.4747 12.9826V12.9853L15.3429 12.2413C15.2634 12.1856 15.1627 12.1566 15.0539 12.1566L15.0544 12.1567Z" fill="white"/>
<path d="M20.3434 9.50904C20.0123 9.50904 19.7073 9.77662 19.6622 10.1079C19.6171 10.4386 19.8451 10.7062 20.1765 10.7062C20.5077 10.7062 20.8127 10.4387 20.8578 10.1079C20.9055 9.77687 20.6749 9.50904 20.3434 9.50904ZM18.7107 10.1792C18.4007 10.1792 18.1143 10.4305 18.0719 10.7404C18.0454 10.9308 18.1169 11.1007 18.2468 11.2013L19.0763 11.7571C19.0763 11.7571 18.9464 12.6918 18.8801 13.1766C18.8589 13.3167 19.0314 13.4043 19.1667 13.3354C19.3974 13.2192 19.8556 12.9702 19.8556 12.9702C19.8556 12.9702 20.2452 13.2191 20.4414 13.3354C20.5554 13.4042 20.7541 13.3167 20.7728 13.1766C20.8391 12.6945 20.9744 11.7571 20.9744 11.7571L21.9599 11.2013C22.119 11.0979 22.2385 10.9307 22.2649 10.7404C22.3073 10.4303 22.0925 10.1792 21.7824 10.1792C21.6737 10.1792 21.5652 10.2079 21.4352 10.2768L20.131 11.005V11.0078L18.9991 10.2637C18.9196 10.2081 18.819 10.179 18.7102 10.179L18.7107 10.1792Z" fill="white"/>
<path d="M19.7751 13.4656C19.4439 13.4656 19.1389 13.7332 19.0938 14.0644C19.0487 14.3952 19.2768 14.6627 19.6082 14.6627C19.9393 14.6627 20.2444 14.3952 20.2894 14.0644C20.3372 13.7334 20.1065 13.4656 19.7751 13.4656ZM18.1423 14.1357C17.8323 14.1357 17.546 14.3871 17.5035 14.6969C17.477 14.8873 17.5485 15.0572 17.6785 15.1578L18.5079 15.7136C18.5079 15.7136 18.378 16.6483 18.3117 17.1332C18.2905 17.2732 18.463 17.3608 18.5983 17.2919C18.829 17.1757 19.2872 16.9267 19.2872 16.9267C19.2872 16.9267 19.6769 17.1757 19.873 17.2919C19.987 17.3608 20.1857 17.2733 20.2044 17.1332C20.2707 16.651 20.406 15.7136 20.406 15.7136L21.3915 15.1578C21.5506 15.0545 21.6702 14.8873 21.6965 14.6969C21.739 14.3868 21.5241 14.1357 21.2141 14.1357C21.1053 14.1357 20.9968 14.1645 20.8668 14.2334L19.5626 14.9616V14.9643L18.4308 14.2203C18.3512 14.1646 18.2506 14.1356 18.1418 14.1356L18.1423 14.1357Z" fill="white"/>
<path d="M16.1354 15.426C15.8043 15.426 15.4993 15.6936 15.4542 16.0249C15.4091 16.3556 15.6371 16.6232 15.9685 16.6232C16.2997 16.6232 16.6047 16.3557 16.6498 16.0249C16.6975 15.6939 16.4669 15.426 16.1354 15.426ZM14.5027 16.0961C14.1926 16.0961 13.9063 16.3475 13.8639 16.6573C13.8374 16.8478 13.9089 17.0177 14.0388 17.1182L14.8683 17.6741C14.8683 17.6741 14.7384 18.6088 14.6721 19.0936C14.6509 19.2337 14.8234 19.3213 14.9587 19.2524C15.1894 19.1361 15.6476 18.8872 15.6476 18.8872C15.6476 18.8872 16.0372 19.1361 16.2334 19.2524C16.3474 19.3212 16.5461 19.2337 16.5648 19.0936C16.6311 18.6115 16.7663 17.6741 16.7663 17.6741L17.7518 17.1182C17.911 17.0149 18.0305 16.8477 18.0569 16.6573C18.0993 16.3473 17.8845 16.0961 17.5744 16.0961C17.4657 16.0961 17.3572 16.1249 17.2272 16.1938L15.923 16.922V16.9248L14.7911 16.1807C14.7116 16.1251 14.611 16.096 14.5022 16.096L14.5027 16.0961Z" fill="white"/>
<path d="M22.4688 14.3268C22.5445 14.6392 22.3226 14.9895 22.1768 15.1424C22.007 15.3169 21.2188 15.8009 21.2188 15.8009H24.739V14.3268H22.4688ZM8.01172 14.3333V15.8011H11.7474C11.5541 15.6574 11.0425 15.3046 10.9197 15.1644C10.7683 14.9957 10.6718 14.7084 10.7502 14.3333H8.01172ZM15.2987 15.1888C15.1188 15.3106 14.2966 15.8037 14.2966 15.8037H15.6146C15.6146 15.7256 15.7503 15.5537 15.7503 15.5537C15.369 15.5756 15.296 15.1913 15.296 15.1913L15.2987 15.1888ZM17.7887 15.1888C17.7887 15.1888 17.658 15.595 17.2511 15.5417C17.2511 15.5417 17.3348 15.7256 17.3348 15.8037H18.632C18.632 15.8037 17.896 15.2919 17.7887 15.1888Z" fill="#BDCAE9"/>
<path d="M13.1923 20.6039C12.6923 20.6039 12.3385 20.9469 12.2618 21.3725C12.174 21.8572 12.4211 22.1351 12.8629 22.1351C13.355 22.1351 13.7194 21.7806 13.794 21.3639H13.7967C13.8553 21.0318 13.7646 20.6036 13.1924 20.6036L13.1923 20.6039ZM14.8523 20.6039C14.4163 20.6039 14.0088 20.8562 13.9078 21.4152C13.8283 21.8518 14.1021 22.1351 14.5306 22.1351C14.666 22.1351 14.8121 22.1097 14.9452 22.0445L15.0227 21.8601L15.02 21.8656L14.996 21.8517C14.8896 21.9424 14.7324 22.0103 14.6076 22.0103C14.2988 22.0103 14.1768 21.755 14.2432 21.3894C14.3018 21.0743 14.4985 20.7342 14.8309 20.7342C14.9613 20.7342 15.0757 20.8136 15.1288 20.93H15.1583C15.1875 20.8533 15.2112 20.7822 15.2431 20.7085C15.1393 20.6407 14.9854 20.6039 14.8523 20.6039ZM19.3265 20.6039C18.8262 20.6039 18.4727 20.9469 18.3954 21.3725C18.3076 21.8572 18.5552 22.1351 18.9992 22.1351C19.4913 22.1351 19.8557 21.7806 19.9303 21.3639C19.9888 21.0318 19.8983 20.6036 19.3265 20.6036V20.6039ZM22.2581 20.6068C21.952 20.6068 21.758 20.808 21.7128 21.055C21.6197 21.5711 22.2422 21.4466 22.1782 21.7893C22.1516 21.9369 22.0262 22.0104 21.9012 22.0104C21.7631 22.0104 21.6702 21.9225 21.6675 21.775H21.6303C21.6037 21.8686 21.5636 21.9564 21.5237 22.0471C21.6062 22.1095 21.7207 22.1382 21.8296 22.1382C22.141 22.1382 22.3963 21.9422 22.4471 21.6671C22.5376 21.1766 21.9177 21.2308 21.9709 20.9413C21.9922 20.8193 22.0693 20.7312 22.229 20.7312C22.3434 20.7312 22.4072 20.8051 22.4259 20.9185V20.9211H22.4553C22.4872 20.8474 22.5192 20.7766 22.5565 20.7085C22.5192 20.6631 22.4021 20.6068 22.2585 20.6068H22.2581ZM9.58178 20.6183L8.73828 22.1011C8.77022 22.1011 8.8048 22.0957 8.83673 22.0957C8.86867 22.0957 8.89783 22.0982 8.92976 22.1011C8.99363 21.9536 9.07079 21.8202 9.15029 21.6556H9.61623V21.6586C9.64549 21.8033 9.65883 21.9483 9.67746 22.107C9.73601 22.1013 9.79448 22.0956 9.85304 22.0956C9.91124 22.0956 9.96729 22.1013 10.0232 22.107L9.73321 20.6183C9.70659 20.624 9.68269 20.6238 9.65608 20.6238C9.62946 20.6238 9.60573 20.6239 9.58178 20.6183ZM15.9398 20.6183L15.0963 22.1011C15.1282 22.1011 15.1628 22.0957 15.1947 22.0957C15.2267 22.0957 15.2558 22.0982 15.2878 22.1011C15.3543 21.9536 15.4261 21.8202 15.5083 21.6556H15.9769L15.9742 21.6586C16.0008 21.8033 16.0168 21.9483 16.0354 22.107C16.094 22.1013 16.1524 22.0956 16.211 22.0956C16.2692 22.0956 16.3226 22.1013 16.3811 22.107L16.0911 20.6183C16.0645 20.624 16.0406 20.6238 16.014 20.6238C15.9874 20.6238 15.9637 20.6239 15.9398 20.6183ZM10.4814 20.6351L10.2152 22.0927H10.9759C10.9759 22.0643 10.976 22.0303 10.9813 22.002C10.9866 21.9736 10.997 21.9425 11.0077 21.9113C10.8693 21.9283 10.7179 21.9425 10.5425 21.9425L10.5449 21.9395L10.7817 20.6352C10.7311 20.6409 10.6807 20.6462 10.6301 20.6462C10.5795 20.6462 10.5319 20.6408 10.4814 20.6351ZM11.4842 20.6351L11.2182 22.0927H11.9789C11.9789 22.0643 11.9786 22.0303 11.984 22.002C11.9893 21.9736 12.0001 21.9425 12.0107 21.9113C11.8723 21.9283 11.721 21.9425 11.5453 21.9425L11.5476 21.9395L11.7844 20.6352C11.7339 20.6409 11.6835 20.6462 11.6329 20.6462C11.5823 20.6462 11.5317 20.6408 11.4842 20.6351ZM16.715 20.6381C16.715 20.6689 16.7149 20.6972 16.7096 20.7284C16.7043 20.7596 16.6935 20.7907 16.6829 20.8191C16.7893 20.8049 16.9174 20.7908 17.0607 20.7908L16.8216 22.1069C16.8721 22.1013 16.9225 22.0956 16.9731 22.0956C17.0237 22.0956 17.0714 22.1013 17.1219 22.1069L17.3615 20.7908C17.4839 20.7908 17.5982 20.8049 17.7152 20.8191C17.7179 20.7907 17.7177 20.7596 17.723 20.7284C17.7283 20.6972 17.7391 20.669 17.7497 20.6381H16.715ZM17.9758 20.641L17.7072 22.1095C17.7578 22.1038 17.8085 22.0981 17.8588 22.0981C17.9093 22.0981 17.9571 22.1038 18.0076 22.1095L18.2767 20.641C18.2261 20.6464 18.1753 20.652 18.1248 20.652C18.0742 20.652 18.0263 20.6464 17.9758 20.641ZM20.301 20.641L20.0351 22.104C20.0617 22.1012 20.0909 22.0981 20.1149 22.0981C20.1389 22.0981 20.1654 22.104 20.192 22.104L20.3808 21.0687L20.5564 21.313C20.7374 21.568 20.9048 21.8314 21.0882 22.1096H21.2587L21.5273 20.6411C21.5007 20.6464 21.4714 20.6462 21.4474 20.6462C21.4235 20.6462 21.3942 20.6464 21.3703 20.6411L21.1866 21.6419C20.966 21.2989 20.7267 20.9729 20.5005 20.6411H20.3032L20.301 20.641ZM13.1571 20.7313H13.1599C13.4583 20.7333 13.5215 21.0496 13.471 21.324C13.4071 21.6782 13.2077 22.0074 12.8992 22.0074C12.5905 22.0074 12.5317 21.7125 12.5849 21.4349C12.6724 20.9571 12.8793 20.7328 13.1571 20.7313ZM19.2929 20.7313C19.5932 20.7313 19.657 21.049 19.6064 21.324C19.5426 21.6782 19.3435 22.0074 19.0347 22.0074C18.7259 22.0074 18.6674 21.7125 18.7179 21.4349C18.8058 20.9554 19.0135 20.7313 19.2929 20.7313ZM9.50849 21.0291L9.59647 21.5282H9.22896L9.50849 21.0291ZM15.8665 21.0291L15.9545 21.5282H15.587L15.8665 21.0291ZM20.6185 22.7646C20.3123 22.7646 20.1184 22.9658 20.0732 23.2127C19.98 23.7288 20.6 23.6041 20.5386 23.9471C20.5093 24.0945 20.3869 24.1685 20.2618 24.1685C20.1237 24.1685 20.0304 24.0806 20.0277 23.9331H19.9905C19.9612 24.0267 19.9215 24.1145 19.8816 24.2052C19.9641 24.2676 20.0783 24.2959 20.1875 24.2959C20.4986 24.2959 20.7539 24.1002 20.8045 23.825C20.895 23.3372 20.275 23.3913 20.3282 23.1019C20.3495 22.9799 20.4267 22.8922 20.5864 22.8922C20.7008 22.8922 20.7646 22.9657 20.7833 23.0791H20.8127C20.8473 23.0054 20.8793 22.9345 20.9166 22.8665C20.8793 22.8211 20.7621 22.7646 20.6185 22.7646ZM11.8474 22.7819L11.0045 24.2647C11.0364 24.2647 11.071 24.2593 11.1029 24.2593C11.1349 24.2593 11.164 24.2647 11.1959 24.2647C11.2598 24.1173 11.3344 23.9841 11.4169 23.8198H11.8823V23.8228C11.9115 23.9674 11.9249 24.1119 11.9435 24.2709C12.0021 24.268 12.0605 24.2595 12.1191 24.2595C12.1776 24.2595 12.2333 24.2652 12.2888 24.2709L11.9994 22.7822C11.9728 22.7851 11.9489 22.7877 11.9223 22.7877C11.8956 22.7877 11.8714 22.7879 11.8475 22.7822L11.8474 22.7819ZM17.3111 22.7819L16.465 24.2647C16.4969 24.2647 16.5319 24.2593 16.5638 24.2593C16.5958 24.2593 16.6249 24.2647 16.6568 24.2647C16.7207 24.1173 16.7979 23.9841 16.8778 23.8198H17.3432L17.3455 23.8228C17.3748 23.9674 17.3881 24.1119 17.4067 24.2709C17.4653 24.268 17.5242 24.2595 17.5827 24.2595C17.6412 24.2595 17.6969 24.2652 17.7528 24.2709L17.4629 22.7822C17.4362 22.7851 17.412 22.7877 17.3853 22.7877C17.3587 22.7877 17.3349 22.7879 17.3109 22.7822L17.3111 22.7819ZM19.2024 22.7928L18.9365 24.2507H19.7001C19.7028 24.2223 19.7025 24.1883 19.7078 24.16C19.7132 24.1316 19.724 24.1001 19.7346 24.0688C19.6095 24.0859 19.471 24.1001 19.2663 24.1001L19.3647 23.5584H19.5748C19.6653 23.5584 19.7479 23.5668 19.8197 23.5782C19.8197 23.547 19.8195 23.5161 19.8248 23.4849C19.8301 23.4566 19.8409 23.4254 19.8515 23.3942C19.777 23.4056 19.692 23.4141 19.6015 23.4141H19.3942L19.4791 22.9518C19.684 22.949 19.8169 22.966 19.9368 22.9831C19.9368 22.9547 19.9365 22.9236 19.9418 22.8924C19.9471 22.864 19.9579 22.8329 19.9686 22.8017L19.9659 22.7928L19.2024 22.7928ZM15.1966 22.7987L14.9304 24.2563H15.6911C15.6911 24.2279 15.6912 24.1939 15.6965 24.1656C15.7018 24.1372 15.7126 24.1061 15.7233 24.0749C15.5849 24.0919 15.4335 24.1061 15.2579 24.1061L15.2606 24.1031L15.497 22.7988C15.4468 22.8045 15.396 22.8102 15.3454 22.8102C15.2949 22.8102 15.2471 22.8044 15.1966 22.7987ZM18.2076 22.7987L17.9417 24.2563H18.7023C18.7023 24.2279 18.7021 24.1939 18.7074 24.1656C18.7127 24.1372 18.7261 24.1061 18.7341 24.0749C18.5961 24.0919 18.4444 24.1061 18.2687 24.1061L18.2714 24.1031L18.5082 22.7988C18.4577 22.8045 18.4073 22.8102 18.3567 22.8102C18.3061 22.8102 18.2581 22.8044 18.2076 22.7987ZM10.3943 22.8017L10.1258 24.2707C10.1763 24.2651 10.2267 24.2594 10.2773 24.2594C10.3279 24.2594 10.3783 24.2678 10.4262 24.2707V24.2648L10.5541 23.5587H10.7641C10.8439 23.5587 10.9235 23.57 11.006 23.5785C11.0086 23.5473 11.0088 23.5165 11.0141 23.4853C11.0194 23.4569 11.0302 23.4258 11.0409 23.3946C10.953 23.4059 10.8704 23.4144 10.7932 23.4144H10.5808L10.6657 22.9522C10.8756 22.9522 11.0036 22.9692 11.1234 22.9834C11.1261 22.955 11.1259 22.9239 11.1312 22.8927C11.1365 22.8643 11.1473 22.8332 11.1579 22.802L10.3943 22.8017ZM12.8523 22.8017C12.6847 23.3434 12.5303 23.8396 12.3814 24.2707C12.4133 24.2651 12.4425 24.2594 12.4744 24.2594C12.5063 24.2594 12.5355 24.2678 12.5674 24.2707C12.626 23.9729 12.7138 23.6752 12.8283 23.2979C12.9214 23.6325 13.0199 23.9643 13.0942 24.2592C13.1234 24.2535 13.1447 24.2535 13.1713 24.2592C13.3735 23.9274 13.584 23.5985 13.7968 23.2725C13.7675 23.6014 13.7463 23.9303 13.701 24.2707C13.7596 24.2651 13.8099 24.2594 13.8658 24.2594C13.9213 24.2594 13.9746 24.2678 14.0305 24.2707C14.0385 23.8425 14.0786 23.3777 14.1212 22.8017C14.0919 22.8073 14.0625 22.8127 14.0332 22.8127C14.004 22.8127 13.9773 22.8073 13.9507 22.8017H13.948C13.7301 23.1674 13.4961 23.505 13.2966 23.8082C13.1981 23.4707 13.0997 23.1392 13.0174 22.8017C12.9908 22.8073 12.9588 22.8127 12.9321 22.8127C12.9055 22.8127 12.879 22.8073 12.8523 22.8017ZM14.5467 22.8017L14.2782 24.2707C14.3288 24.2651 14.3792 24.2594 14.4297 24.2594C14.4803 24.2594 14.5284 24.2678 14.579 24.2707L14.8473 22.8017C14.7967 22.8073 14.7463 22.8127 14.6957 22.8127C14.6455 22.8127 14.5946 22.8073 14.5467 22.8017ZM16.2203 22.8017L15.9512 24.2707C16.0017 24.2651 16.0521 24.2594 16.1027 24.2594C16.1533 24.2594 16.2013 24.2678 16.2516 24.2707L16.5206 22.8017C16.4701 22.8073 16.4193 22.8127 16.3687 22.8127C16.3182 22.8127 16.2705 22.8073 16.2203 22.8017ZM11.7726 23.1928L11.8605 23.6919H11.493L11.7726 23.1928ZM17.2363 23.1928L17.3239 23.6919H16.9572L17.2363 23.1928Z" fill="white"/>
</g>
<defs>
<clipPath id="clip0_1148_2729">
<rect width="24" height="24" fill="white" transform="translate(4 4)"/>
</clipPath>
</defs>
</svg>
