<svg width="32" height="32" viewBox="0 0 32 32" fill="none" xmlns="http://www.w3.org/2000/svg">
<path d="M0 16C0 7.16344 7.16344 0 16 0C24.8366 0 32 7.16344 32 16C32 24.8366 24.8366 32 16 32C7.16344 32 0 24.8366 0 16Z" fill="#F6F5FF"/>
<g clip-path="url(#clip0_1153_2134)">
<path d="M13.5192 27.0402L13.0498 28C7.38468 27.8328 4.55159 25.8363 4.55159 22.0114V14.2226C4.55159 13.4133 4.36852 12.491 4 11.4588C5.70101 11.3466 7.06375 11.3466 8.09385 11.4588C10.6443 11.7657 11.92 12.6872 11.92 14.2233V24.317C11.92 25.4903 11.9421 26.1042 11.9861 26.1607C12.1646 26.7462 12.6745 27.0402 13.5192 27.0402ZM11.2387 6.09202C11.2387 6.65014 10.9154 7.13872 10.2688 7.55646C9.62217 7.97558 8.83073 8.18403 7.89447 8.18403C7.00342 8.18403 6.22355 7.97558 5.55382 7.55646C4.88527 7.13881 4.55144 6.65014 4.55144 6.09202C4.55144 5.50713 4.88512 5.01124 5.55382 4.60665C6.2237 4.20271 7.00357 4 7.89462 4C8.83088 4 9.62232 4.20271 10.2689 4.60665C10.9155 5.01124 11.2387 5.50713 11.2387 6.09202Z" fill="#F79321"/>
<path d="M27.9997 22.026C27.9997 22.6058 27.1376 23.0799 26.0866 23.0799H16.9104C15.8572 23.0799 14.9961 22.6058 14.9961 22.026V21.7212C14.9961 21.1421 15.8571 20.668 16.9104 20.668H26.0866C27.1376 20.668 27.9997 21.1421 27.9997 21.7212V22.026Z" fill="#F79321"/>
<path d="M27.9997 18.7457C27.9997 19.3255 27.1376 19.7997 26.0866 19.7997H16.9104C15.8572 19.7997 14.9961 19.3255 14.9961 18.7457V18.441C14.9961 17.8619 15.8571 17.3877 16.9104 17.3877H26.0866C27.1376 17.3877 27.9997 17.8618 27.9997 18.441V18.7457Z" fill="#F79321"/>
</g>
<defs>
<clipPath id="clip0_1153_2134">
<rect width="24" height="24" fill="white" transform="translate(4 4)"/>
</clipPath>
</defs>
</svg>
