<svg width="32" height="32" viewBox="0 0 32 32" fill="none" xmlns="http://www.w3.org/2000/svg">
<path d="M0 16C0 7.16344 7.16344 0 16 0C24.8366 0 32 7.16344 32 16C32 24.8366 24.8366 32 16 32C7.16344 32 0 24.8366 0 16Z" fill="#F6F5FF"/>
<g clip-path="url(#clip0_1154_2151)">
<path d="M11.6875 27.8125V12.8125H20.3125V17.0927H16.2624V27.8125H11.6875Z" fill="#EE3124"/>
<path d="M14.4116 3.8125C15.916 3.8125 17.1348 5.15551 17.1348 6.81192C17.1348 8.46978 15.916 9.8125 14.4116 9.8125C12.9078 9.8125 11.6874 8.46978 11.6874 6.81192C11.6877 5.15551 12.9078 3.8125 14.4116 3.8125Z" fill="#EE3124"/>
</g>
<defs>
<clipPath id="clip0_1154_2151">
<rect width="24" height="24" fill="white" transform="matrix(-1 0 0 -1 28 28)"/>
</clipPath>
</defs>
</svg>
