<svg width="32" height="32" viewBox="0 0 32 32" fill="none" xmlns="http://www.w3.org/2000/svg">
<path d="M0 16C0 7.16344 7.16344 0 16 0C24.8366 0 32 7.16344 32 16C32 24.8366 24.8366 32 16 32C7.16344 32 0 24.8366 0 16Z" fill="#F6F5FF"/>
<g clip-path="url(#clip0_1153_2058)">
<path d="M5.4183 17.7143L5.24371 17.5404C5.32006 17.454 5.37504 17.3396 5.37962 17.2355C5.38471 17.1161 5.34399 17.0556 5.27425 17.0517C5.20044 17.0479 5.17347 17.1189 5.12664 17.2273L5.05487 17.3885C4.99989 17.5173 4.89453 17.6367 4.72452 17.6279C4.53058 17.618 4.38348 17.4227 4.39518 17.159C4.4018 17.0132 4.46136 16.8635 4.56672 16.7595L4.72706 16.9125C4.66445 16.9928 4.62831 17.0704 4.62373 17.1706C4.61966 17.2691 4.65478 17.3341 4.72197 17.3374C4.79374 17.3412 4.82377 17.2598 4.86908 17.1513L4.93678 16.9928C5.00142 16.8409 5.10068 16.7496 5.26611 16.7578C5.46055 16.7677 5.6214 16.9516 5.60817 17.2532C5.60053 17.4183 5.53538 17.5905 5.4183 17.7143Z" fill="#005CA9"/>
<path d="M4.33349 15.9069L4.12988 15.5387L4.31924 15.416L4.48161 15.8034L4.33349 15.9069ZM4.47907 16.1975L4.58749 15.4121L4.80738 15.4473L4.73815 15.9493L4.97077 15.9867L5.02982 15.5591L5.24971 15.5943L5.19067 16.0219L5.4579 16.0648L5.52967 15.5436L5.74957 15.5789L5.6386 16.3835L4.47907 16.1975Z" fill="#005CA9"/>
<path d="M5.22436 15.0903C4.84718 14.9863 4.69244 14.656 4.76574 14.3456C4.80341 14.1871 4.90266 14.0782 5.0004 14.0171L5.1307 14.2092C5.063 14.2559 5.01007 14.3121 4.9892 14.4012C4.94949 14.5696 5.05537 14.7408 5.2829 14.8035C5.51654 14.8679 5.67993 14.7881 5.72218 14.6087C5.7461 14.508 5.71912 14.4155 5.6728 14.339L5.86877 14.2372C5.95429 14.3693 5.97923 14.5207 5.94156 14.6797C5.86826 14.9907 5.60714 15.1959 5.22436 15.0903Z" fill="#005CA9"/>
<path d="M5.59623 13.7502L5.00781 13.5092L5.10198 13.2411L5.71585 13.4926C5.93066 13.5807 6.03042 13.5378 6.07674 13.4051C6.12357 13.272 6.07623 13.1646 5.86143 13.0766L5.24756 12.8251L5.33816 12.5664L5.92658 12.8075C6.2946 12.9583 6.39844 13.1861 6.29053 13.4926C6.18313 13.8003 5.96425 13.9016 5.59623 13.7502Z" fill="#005CA9"/>
<path d="M5.57031 11.9582L5.76526 11.5532C5.87979 11.3143 6.05082 11.1619 6.2982 11.3011C6.53744 11.4354 6.54609 11.6891 6.43157 11.9274L6.35878 12.0782L6.73341 12.2884L6.61125 12.5427L5.57031 11.9582ZM6.23458 11.8432C6.29871 11.7095 6.28039 11.6077 6.17808 11.5504C6.07525 11.4926 6.00603 11.5449 5.94189 11.6792L5.87928 11.8091L6.17197 11.9736L6.23458 11.8432ZM6.34656 11.939L6.28039 11.6787L7.03984 11.6495L6.90291 11.934L6.34656 11.939Z" fill="#005CA9"/>
<path d="M6.25977 10.5838L6.40331 10.3428L7.38876 11.0296L7.24522 11.2707L6.25977 10.5838Z" fill="#005CA9"/>
<path d="M7.00002 9.82196L6.80456 10.0993L6.62793 9.9535L7.1797 9.1709L7.35633 9.31674L7.16087 9.59412L7.91624 10.2171L7.7554 10.445L7.00002 9.82196Z" fill="#005CA9"/>
<path d="M7.46484 8.79738L7.96622 8.21621L8.12911 8.38022L7.80894 8.7517L7.98149 8.92561L8.25433 8.60916L8.41721 8.77317L8.14438 9.08962L8.34188 9.28884L8.67426 8.90305L8.83715 9.06705L8.32355 9.66253L7.46484 8.79738ZM7.49691 8.46827L7.52236 8.03955L7.74327 8.05441L7.67405 8.47323L7.49691 8.46827Z" fill="#005CA9"/>
<path d="M9.43245 8.22392L9.44161 7.96746C9.55207 7.97406 9.66812 7.94544 9.74447 7.8816C9.83202 7.80841 9.84831 7.73521 9.80555 7.67577C9.76025 7.61248 9.69306 7.6367 9.58617 7.66862L9.42583 7.71375C9.29959 7.75227 9.1474 7.74292 9.04305 7.59707C8.92394 7.43087 8.96619 7.18321 9.15911 7.02196C9.266 6.93225 9.41005 6.88437 9.55156 6.90364L9.54799 7.13533C9.45077 7.13588 9.37289 7.15679 9.29909 7.21788C9.22681 7.27842 9.20441 7.34942 9.24513 7.40665C9.28891 7.46829 9.36577 7.43967 9.47164 7.40665L9.62689 7.35932C9.77552 7.31419 9.90481 7.33621 10.0061 7.4782C10.1252 7.64441 10.1003 7.89646 9.87936 8.08138C9.75873 8.18264 9.59533 8.24043 9.43245 8.22392Z" fill="#005CA9"/>
<path d="M10.1616 7.00673C9.9636 6.65175 10.0354 6.3276 10.3062 6.15093C10.577 5.97427 10.8763 6.05848 11.0738 6.4118C11.2718 6.76678 11.2051 7.10029 10.9343 7.27695C10.6635 7.45306 10.3596 7.36115 10.1616 7.00673ZM10.8411 6.56315C10.7195 6.34521 10.5617 6.27311 10.4248 6.36282C10.2878 6.45198 10.2731 6.63689 10.3947 6.85483C10.5164 7.07277 10.6798 7.15422 10.8167 7.06451C10.9531 6.97536 10.9628 6.78109 10.8411 6.56315Z" fill="#005CA9"/>
<path d="M11.4163 6.21382C11.2524 5.83243 11.3904 5.49396 11.6591 5.35913C11.7966 5.28978 11.9376 5.30409 12.0429 5.34757L11.988 5.57817C11.9116 5.5512 11.8378 5.54239 11.7609 5.58092C11.6154 5.65411 11.5599 5.85114 11.6591 6.08119C11.7609 6.31729 11.9213 6.40369 12.077 6.32554C12.1646 6.28151 12.213 6.20061 12.2389 6.11365L12.4359 6.21327C12.3952 6.36847 12.3025 6.48514 12.1651 6.55448C11.8948 6.68987 11.5828 6.60126 11.4163 6.21382Z" fill="#005CA9"/>
<path d="M12.4531 5.02094L12.702 4.92188L13.1062 6.11228L12.8573 6.21134L12.4531 5.02094Z" fill="#005CA9"/>
<path d="M13.5086 4.64323L13.815 4.55518L14.4717 5.67844L14.2004 5.75604L13.9 5.17817C13.8384 5.0648 13.7728 4.92831 13.7112 4.80944L13.7041 4.81164C13.7081 4.94868 13.7132 5.10112 13.7117 5.23211L13.7148 5.89528L13.4531 5.97067L13.5086 4.64323ZM13.5636 5.39611L14.1087 5.23981L14.1617 5.455L13.6165 5.61129L13.5636 5.39611Z" fill="#005CA9"/>
<path d="M14.6133 4.35445L14.8754 4.31152L15.0185 5.32747L15.4761 5.25207L15.5097 5.48982L14.7899 5.60814L14.6133 4.35445Z" fill="#005CA9"/>
<path d="M15.7549 4.18491L16.4884 4.13428L16.5026 4.37423L16.0338 4.4067L16.0486 4.66096L16.4477 4.63344L16.4619 4.8734L16.0628 4.90091L16.0801 5.1926L16.5668 5.15903L16.581 5.39898L15.8297 5.45071L15.7549 4.18491Z" fill="#005CA9"/>
<path d="M17.6757 7.90188C17.6467 7.83804 17.554 7.78796 17.4767 7.7797C17.3962 7.7709 17.3458 7.76484 17.3458 7.76484C17.2537 7.73843 15.2838 7.77255 14.8216 8.0956C14.8196 8.09725 14.8191 8.09836 14.8176 8.10001C14.7687 7.76099 14.6618 7.35263 14.1207 7.22825C13.74 7.14075 12.921 7.5337 13.1959 8.41756C13.2427 8.56835 13.3394 8.67017 13.4789 8.75162C13.5486 8.79179 13.6606 8.77253 13.7441 9.00533C13.768 9.07302 13.8138 9.06532 13.8545 9.05101C13.8851 9.04055 13.8932 9.04441 13.9426 9.08733C13.9828 9.12256 14.0128 9.10109 14.0128 9.10109C14.0128 9.10109 14.0317 9.12365 14.0581 9.1198C14.0785 9.1165 14.1228 9.10439 14.1345 9.11485C14.2907 9.25189 14.4725 9.0378 14.5412 8.90352C14.6104 9.12971 14.7942 9.73069 14.7942 9.73069C14.7336 9.67511 14.1131 9.48193 13.8153 9.84131C13.5567 10.1534 13.3679 10.5705 13.149 11.2915C13.091 11.4836 12.9744 11.5854 12.7662 11.6679C12.4288 11.8017 12.6232 11.9712 12.7113 11.9899C12.9195 12.0344 13.4045 12.0091 13.5028 11.9563C13.628 11.8886 13.5349 11.576 13.6738 11.3834C13.798 11.2106 13.8983 11.0702 13.9828 10.953C13.9772 11.1814 13.9889 11.2986 13.8759 11.5975C13.7741 11.8666 13.4661 12.0086 13.3745 12.1357C13.2121 12.3614 13.5837 12.3801 13.6825 12.3437C13.9293 12.2524 14.1004 12.2573 14.2093 12.1902C14.3539 12.101 14.25 11.8622 14.2958 11.7648C14.4231 11.4935 14.8588 10.9002 14.9097 10.8061C14.9178 10.7907 14.9234 10.7786 14.9275 10.7675C15.2431 10.8738 15.5933 10.9018 15.7221 10.8853C16.4413 10.7923 16.6027 10.2425 16.5289 9.80994C16.4607 9.40984 16.2336 9.16438 16.1644 9.04826C15.9746 8.72795 15.8636 8.5568 15.8005 8.46489C16.0076 8.41095 17.1534 8.07029 17.1575 8.08074C17.2008 8.18201 17.2975 8.20457 17.3331 8.23209C17.4069 8.27557 17.4497 8.20732 17.4202 8.18696C17.3632 8.14789 17.3489 8.10386 17.3489 8.10386C17.4456 8.10166 17.5383 8.11266 17.5983 8.12312C17.6782 8.13743 17.7307 7.94811 17.6757 7.90188Z" fill="#005CA9"/>
<path fill-rule="evenodd" clip-rule="evenodd" d="M27.8657 15.3751C27.6819 14.3075 26.7601 13.647 26.2847 13.4286C25.9599 13.2794 25.8164 13.2491 25.765 13.2326C25.6942 13.2095 25.6438 13.1914 25.6067 13.1765C25.6398 12.9454 25.8902 12.9272 26.0383 12.5959C26.4573 11.657 25.5929 10.996 24.9506 11.1485C24.6467 11.2206 24.4365 11.3378 24.3901 11.5882C24.3652 11.7247 24.2685 11.7291 24.1132 11.9079C24.0618 11.9668 24.1748 12.0615 24.1932 12.1006C24.1982 12.1116 24.1652 12.1617 24.1535 12.2183C24.1417 12.2767 24.1524 12.2651 24.1499 12.2728C24.1499 12.2728 24.1188 12.3273 24.1194 12.4055C24.1194 12.4055 24.042 12.5541 24.1224 12.7274C24.1229 12.7302 24.1214 12.7318 24.1219 12.7346C24.1341 12.783 24.2222 12.8705 24.2527 13.0873C24.2568 13.1165 24.2598 13.1325 24.1341 13.0895C24.1056 13.0796 22.942 12.7098 22.8127 12.6157C22.6682 12.5106 21.5157 11.1584 21.389 10.8937C21.3193 10.7484 21.2465 10.652 21.2098 10.6543C20.9385 10.6724 21.4078 11.2024 21.1437 11.0213C21.076 10.9751 20.8729 10.821 20.8581 10.8083C20.8072 10.7638 20.8194 10.7852 20.7823 10.7214C20.7492 10.6642 20.7273 10.6212 20.6937 10.5965C20.6637 10.5745 20.6463 10.5673 20.6255 10.5734C20.5832 10.5855 20.5904 10.6179 20.5797 10.6207C20.5797 10.6207 20.5527 10.6201 20.5333 10.6251C20.4651 10.6427 20.516 10.8298 20.5374 10.9173C20.542 10.936 20.714 11.4077 20.7833 11.4864C21.077 11.706 21.3681 11.8909 21.3773 11.903C21.6944 12.3009 22.067 12.7984 22.3994 13.177C22.6641 13.4781 23.8735 14.2381 23.9142 14.264C23.9936 14.3152 24.1199 14.5947 23.9387 16.5903C23.8704 17.3421 23.3752 18.9392 23.6098 19.7647C23.763 20.3035 23.9387 20.67 24.1138 22.1208C24.1535 22.4482 23.9178 22.6469 23.5813 22.9105C23.4495 23.0134 23.0799 23.26 23.0428 23.2969C22.9807 23.3579 23.0382 23.4559 23.1191 23.4917C23.1975 23.5269 23.3451 23.6172 23.4296 23.6342C23.5701 23.6623 23.787 23.6441 24.0028 23.5131C24.2481 23.364 24.2695 23.3398 24.4141 23.2457C24.58 23.1373 24.7811 23.1031 24.833 22.9193C24.9017 22.6761 24.7118 22.326 24.7307 22.1675C24.8681 21.0245 25.0514 20.4587 24.7846 19.7581C24.7312 19.6178 25.1705 18.0917 25.2046 18.2964C25.2723 18.6998 25.2992 19.8957 25.311 20.7856C25.316 21.1747 25.6062 22.5555 25.6988 23.0509C25.8424 23.818 24.6487 24.4251 24.9109 24.6502C24.9699 24.7008 25.1165 24.7762 25.2662 24.8015C25.4296 24.8285 25.5629 24.7949 25.6983 24.7454C25.7792 24.7157 25.9141 24.55 25.9416 24.5131C26.1956 24.1719 26.1177 24.2666 26.3183 24.0228C26.4914 23.812 26.3666 23.4493 26.3448 23.2589C26.3 22.8709 26.3381 22.768 26.3346 22.0701C26.3305 21.2611 26.3794 21.0311 26.4211 20.7328C26.6084 19.396 26.724 18.6679 26.782 18.0994L26.7871 18.0669C26.7871 18.0669 26.8767 18.1021 26.9164 18.0317C26.981 17.9172 26.9739 17.7978 26.9887 17.7229C27.0034 17.6481 27.0319 17.7444 27.0319 17.7444C27.0319 17.7444 27.095 17.9271 27.0935 17.9865C27.0905 18.0812 27.0365 18.1841 26.9943 18.3157C26.9459 18.4653 27.0676 18.4896 27.0991 18.5022C27.1307 18.5143 27.4987 18.2309 27.5481 18.1164C27.5974 18.002 27.5959 17.849 27.599 17.7675C27.6061 17.5661 27.4982 17.0064 27.4982 17.0064C27.6107 16.614 27.912 15.6426 27.8657 15.3751ZM27.0212 16.9189C26.981 17.1082 26.9698 16.9271 26.8039 17.6338L26.8222 17.5325C26.8258 17.4334 26.8278 17.3344 26.8273 17.232C26.8258 16.357 26.2078 14.4968 26.583 14.8864C26.585 14.8886 27.0345 15.2265 27.1215 15.4852C27.1902 15.6872 27.1638 16.2458 27.0212 16.9189Z" fill="#005CA9"/>
<path d="M11.942 19.0066C11.7959 18.875 11.3149 18.1541 10.9973 17.8706C10.782 17.6312 10.7336 17.5047 10.5585 17.2526C9.9823 16.4232 9.8581 16.3753 9.45394 16.3016C9.37199 16.2422 9.39897 16.1745 9.40711 16.1706C9.93344 15.9587 9.7563 15.4667 9.75223 15.4469C9.7283 15.339 9.796 15.2912 9.79448 15.1915C9.79142 15.0292 9.76241 14.8955 9.71914 14.7821C9.7395 14.7072 9.74765 14.5988 9.67282 14.4959C9.39439 14.1118 8.69093 14.0925 8.32393 14.366C8.02972 14.5851 8.20279 14.7381 8.11167 15.049C8.05772 15.2334 8.11218 15.4045 8.23078 15.5377C8.24555 15.6406 8.53467 15.8393 8.47766 16.0627C8.41963 16.2911 8.08215 16.3379 8.08571 16.3385C8.04652 16.3495 8.01089 16.3627 7.98187 16.3808C7.44334 16.7138 6.92058 17.1965 6.85645 17.7281C6.88597 18.1563 7.49933 18.7743 7.89432 19.1078C7.95133 19.8376 8.37992 20.9553 8.39927 20.9988C8.4578 21.1326 8.27812 20.8987 7.84699 20.7402C7.63829 20.6631 7.3619 20.3544 7.30183 20.7176C7.27689 20.8689 7.33696 21.132 7.20512 21.4573C7.10434 21.7066 7.22141 22.1034 7.4749 22.0957C7.65865 22.0896 7.76707 21.4859 7.76707 21.4859C7.76707 21.4859 8.65276 21.963 9.07524 21.804C9.32313 21.711 9.37861 20.6433 9.1353 19.6912C9.04979 19.3571 9.29411 20.2338 9.88661 21.0065C10.0174 21.1771 9.90239 21.3109 9.98892 21.9476C10.021 22.1843 10.023 22.2498 10.0174 22.3565C10.0016 22.6647 9.72983 23.0285 10.3508 23.2013C10.9845 23.378 10.9336 23.5376 11.3297 23.2503C11.5078 23.1215 10.7835 23.0417 10.642 22.5778C10.6379 22.5651 10.6272 22.5057 10.6257 22.4776C10.6084 22.1116 10.7621 21.2668 10.7163 20.9724C10.4908 19.5244 9.92733 18.8552 9.85607 18.5167C9.84996 17.5069 9.78888 17.1899 9.87694 17.4172C9.89577 17.465 10.0887 17.8184 10.2841 18.0864L10.2806 18.088C10.3009 18.1166 10.3264 18.1475 10.3539 18.1788C10.4139 18.2537 10.472 18.3148 10.5234 18.3527C10.9133 18.722 11.5343 19.1629 11.6178 19.2586C11.6178 19.2586 11.6641 19.7039 11.8341 19.6708C11.9837 19.6417 12.7315 19.2894 12.7172 19.1997C12.6892 19.0258 11.9685 19.0302 11.942 19.0066ZM7.88618 18.4458C7.77267 18.2113 7.46523 17.7754 7.48661 17.7039C7.65814 17.4039 7.84241 17.3104 7.89789 17.3302C7.94472 17.3462 7.88618 18.4458 7.88618 18.4458Z" fill="#005CA9"/>
<path d="M24.3 27.195C24.2679 27.1769 23.8292 27.0013 23.4418 26.3315C23.2677 26.0305 21.9662 23.4224 21.7885 22.9133C21.4363 21.9056 18.6896 20.0944 18.5715 19.9898C18.4896 19.9172 18.4998 19.7422 18.5313 19.6283C18.7629 18.7813 18.6713 18.0224 18.7161 17.9079C18.8286 17.62 19.0022 17.2007 18.8724 16.9283L18.5883 16.444C18.5883 16.444 20.0431 17.0119 20.3811 16.9332C20.6707 16.8655 22.1346 15.7791 22.2115 15.7324C22.4146 15.6201 22.9007 15.7846 23.3919 15.2057C23.5767 14.9877 23.4428 14.9123 23.4092 14.9509C23.4163 14.9343 23.3262 14.8485 23.2402 14.9019C23.1231 14.9745 22.719 15.1006 22.7933 15.0406C23.087 14.8028 22.8834 14.7313 22.8834 14.7313C22.7551 14.8463 22.1718 15.0053 22.0583 15.1061C21.9254 15.2244 21.8379 15.3251 21.7702 15.3658C21.4113 15.5805 20.8112 15.8991 20.2034 16.0455C20.0803 16.0752 18.9202 15.2563 18.2488 15.1451C17.8869 15.0851 17.7587 15.1132 17.5612 15.1732C17.3214 15.2464 17.3407 14.8716 17.5184 14.7819C17.611 14.7351 17.7668 14.7043 17.8233 14.5772C17.8946 14.4181 17.8101 14.2805 17.8131 14.2613C17.8152 14.2431 17.8258 14.2299 17.8034 14.1721C17.7861 14.1281 17.7887 14.1512 17.7943 14.1077C17.7989 14.0697 17.7765 14.0488 17.7663 14.0125C17.7607 13.9933 17.7658 13.9371 17.776 13.9283C17.9195 13.8006 17.8574 13.7417 17.8381 13.723C17.7973 13.6834 17.5856 13.5838 17.5668 13.4275C17.5372 13.1798 17.4604 13.0566 17.4237 12.941C17.409 12.8953 17.385 12.6124 17.2695 12.498C17.128 12.3587 16.8312 12.1865 16.1904 12.3752C15.9847 12.4358 16.0224 12.5425 15.5073 12.646C14.8904 12.7698 14.5508 13.7605 14.6063 14.1732C14.6511 14.5056 14.9153 14.3444 14.9041 14.4919C14.8863 14.7214 14.8649 15.0973 15.3159 15.2431C15.4126 15.2745 16.0031 15.1721 16.228 15.215C16.228 15.215 16.4103 15.231 16.3192 15.4286C16.2739 15.5265 15.6829 15.7802 15.5363 15.8463C15.1515 16.0196 14.1569 17.7841 13.8545 17.9497C13.5939 18.0928 13.4407 18.1952 13.3531 18.2678C12.9434 18.5452 12.5448 18.8859 12.3254 18.8759C12.0322 18.8556 11.7935 19.0091 11.5975 19.4802C11.54 19.6189 11.5731 19.6916 11.68 19.7207C11.7197 19.7631 11.7803 19.8264 11.8607 19.8214C11.9493 19.9089 12.0475 19.8534 12.1213 19.8099C12.3519 19.6745 12.4023 19.5683 12.4939 19.5292C12.7184 19.4494 14.0454 18.8958 14.3396 18.6492C14.787 18.3839 15.6895 17.3834 15.8951 17.3713C16.0758 17.3608 16.5335 17.8006 16.3899 18.6442C16.341 18.9321 16.0076 19.4527 15.8229 19.7554C15.4564 20.3558 15.7404 20.8792 15.6676 21.0069C15.2884 21.6761 14.8186 22.5699 14.0357 23.3343C13.7303 23.5495 13.0844 23.5985 12.7438 23.7069C11.9595 23.9557 11.1247 24.5638 10.5296 24.9243C10.3321 25.0437 10.1428 24.7878 9.8954 24.757C9.65718 24.7273 9.62562 25.1312 9.49888 25.4994C9.45968 25.6122 9.44238 25.665 9.25302 26.118C9.17922 26.2946 8.98274 26.8395 9.18023 27.0651C9.36043 27.3365 9.79003 26.4862 10.1204 26.0729C10.296 25.8533 10.4044 25.7812 10.7841 25.6865C11.0274 25.6254 12.948 25.063 14.2164 24.7614C14.2475 24.7553 14.2811 24.7476 14.3172 24.7372C15.9659 24.2738 17.6731 21.948 17.696 21.959L20.4941 23.4581C20.7771 23.6221 20.7786 24.2116 21.1125 24.8835C21.3136 25.2886 21.6073 25.643 22.8096 26.9116C22.9628 27.0734 22.8371 27.3442 22.9068 27.5951C22.9816 27.8642 23.0987 27.8703 23.3232 27.8499C23.5319 27.829 23.7192 27.7949 23.9279 27.7811C24.1946 27.7635 24.1229 27.7943 24.4334 27.8439C24.585 27.8681 24.9302 27.9215 25.1735 27.6601C25.6107 27.189 24.7113 27.4267 24.3 27.195Z" fill="#005CA9"/>
<path d="M21.2624 25.8828C21.2196 25.792 21.1168 25.7557 21.0333 25.8019L21.0343 25.7986C19.8386 26.4551 18.4979 26.8035 17.1475 26.8035C15.6428 26.8035 14.1626 26.377 12.8662 25.5702C12.7847 25.519 12.6799 25.5498 12.633 25.6379C12.5862 25.7259 12.6142 25.8388 12.6956 25.8899C14.044 26.7292 15.5833 27.1722 17.1475 27.1722C18.5519 27.1722 19.9476 26.8107 21.1916 26.1277C21.272 26.0798 21.3041 25.9719 21.2624 25.8828Z" fill="#005CA9"/>
<path d="M9.16243 13.7784C9.13901 13.7784 9.11509 13.7729 9.09218 13.7618C9.00616 13.72 8.96849 13.6105 9.00769 13.5175C9.77732 11.6854 11.0356 10.1791 12.6456 9.16203C12.7271 9.1103 12.8314 9.14057 12.8787 9.22808C12.9261 9.31613 12.8991 9.42895 12.8177 9.48013C11.2687 10.4587 10.0588 11.9077 9.31819 13.6699C9.28917 13.7382 9.22758 13.7784 9.16243 13.7784Z" fill="#005CA9"/>
<path d="M23.7158 11.4186C23.6684 11.4186 23.6216 11.3977 23.588 11.3565C22.2305 9.69716 20.372 8.61462 18.3538 8.30807C18.2607 8.29377 18.1955 8.20076 18.2087 8.09949C18.222 7.99878 18.3085 7.92889 18.4011 7.94265C20.4993 8.2613 22.432 9.38676 23.843 11.1121C23.9056 11.1886 23.899 11.3047 23.8283 11.3724C23.7967 11.4032 23.756 11.4186 23.7158 11.4186Z" fill="#005CA9"/>
</g>
<defs>
<clipPath id="clip0_1153_2058">
<rect width="24" height="24" fill="white" transform="translate(4 4)"/>
</clipPath>
</defs>
</svg>
