<svg width="32" height="32" viewBox="0 0 32 32" fill="none" xmlns="http://www.w3.org/2000/svg">
<path d="M0 16C0 7.16344 7.16344 0 16 0C24.8366 0 32 7.16344 32 16C32 24.8366 24.8366 32 16 32C7.16344 32 0 24.8366 0 16Z" fill="#F6F5FF"/>
<g clip-path="url(#clip0_1146_1945)">
<path d="M27.2375 16.0001C27.2375 9.7936 22.2062 4.76221 15.9996 4.76221C9.79311 4.76221 4.76172 9.7936 4.76172 16.0001C4.76173 22.2066 9.79312 27.238 15.9996 27.238C22.2061 27.238 27.2375 22.2066 27.2375 16.0001ZM27.9875 16.0001C27.9875 22.6208 22.6204 27.988 15.9996 27.988C9.3789 27.988 4.01173 22.6209 4.01172 16.0001C4.01172 9.37939 9.3789 4.01221 15.9996 4.01221C22.6204 4.01221 27.9875 9.37939 27.9875 16.0001Z" fill="black"/>
<path d="M18.9999 8.2583V13.0004H23.7416V19.0004H18.9999V23.7421H12.9999V19.0004H8.25781V13.0004H12.9999V8.2583H18.9999Z" fill="#FF0000"/>
</g>
<defs>
<clipPath id="clip0_1146_1945">
<rect width="24" height="24" fill="white" transform="translate(4 4)"/>
</clipPath>
</defs>
</svg>
