<svg width="32" height="32" viewBox="0 0 32 32" fill="none" xmlns="http://www.w3.org/2000/svg">
<path d="M0 16C0 7.16344 7.16344 0 16 0C24.8366 0 32 7.16344 32 16C32 24.8366 24.8366 32 16 32C7.16344 32 0 24.8366 0 16Z" fill="#F6F5FF"/>
<g clip-path="url(#clip0_1148_2856)">
<path fill-rule="evenodd" clip-rule="evenodd" d="M23.4723 7.63877C23.2197 7.98003 22.8357 8.41441 22.4932 8.85385C22.1502 9.29342 21.8491 9.73805 21.6008 10.1099C21.3525 10.4817 21.157 10.7809 21.0378 10.9903C20.9186 11.1996 20.8756 11.3195 20.8529 11.4442C20.9111 11.5727 20.9993 11.6892 21.0955 11.7643C21.1915 11.8392 21.2953 11.8727 21.3777 11.8937C21.4599 11.9146 21.5201 11.9231 21.5708 11.9116C21.6209 11.9001 21.6614 11.8686 21.7034 11.8361C21.7456 11.8036 21.789 11.7701 21.8612 11.6729C21.9335 11.5755 22.0348 11.4145 22.1666 11.2242C22.2965 11.038 22.4301 10.8543 22.5672 10.6733C22.6733 10.5327 22.7237 10.4715 22.7611 10.3994C22.7981 10.3273 22.8227 10.2443 22.8865 10.16C22.9505 10.0759 23.0543 9.99041 23.1414 9.89031C23.2287 9.79008 23.2996 9.6751 23.4636 9.44036C23.6276 9.20548 23.885 8.85098 24.0826 8.5649C24.2799 8.27881 24.4178 8.06128 24.537 7.88321C24.6562 7.70514 24.7567 7.56681 24.8306 7.44555C24.9048 7.32442 24.9523 7.22064 25.0027 7.12956C25.0531 7.03861 25.1062 6.9605 25.1249 6.88976C25.1439 6.81889 25.1278 6.75567 25.1193 6.70678C25.1106 6.65789 25.1092 6.62348 25.0595 6.56899C25.0102 6.51451 24.9128 6.43995 24.8342 6.38273C24.77 6.33496 24.7033 6.29066 24.6344 6.25C24.3965 6.41073 24.1816 6.60573 24.0132 6.8275C23.8454 7.04913 23.7245 7.29738 23.4723 7.63877ZM13.2052 8.2485C13.232 8.40581 13.2948 8.55343 13.4165 8.73382C13.5381 8.91421 13.7188 9.12724 13.9403 9.34067C14.1618 9.55425 14.424 9.76823 14.5881 9.88785C14.7523 10.0073 14.8183 10.0326 14.938 10.1372C15.0576 10.2419 15.2309 10.4263 15.4039 10.6145C15.5769 10.8025 15.7497 10.9945 15.9406 11.1963C16.1315 11.3982 16.3405 11.6096 16.5321 11.7467C16.7236 11.8839 16.8975 11.9468 17.0504 11.9616C17.2029 11.9763 17.3341 11.9429 17.4136 11.9086C17.4931 11.8745 17.5205 11.8396 17.5493 11.8029C17.5781 11.7663 17.6086 11.7279 17.5966 11.6634C17.5846 11.5988 17.5305 11.5081 17.4704 11.4272C17.4106 11.3465 17.3448 11.2757 17.1565 11.0647C16.915 10.7939 16.675 10.5218 16.4367 10.2482C16.2156 9.99409 16.0844 9.83692 15.901 9.65557C15.7174 9.47409 15.4816 9.26857 15.2854 9.07412C15.1067 8.89781 14.9414 8.70847 14.7908 8.50768C14.649 8.31882 14.522 8.12423 14.3887 7.96542C14.2555 7.8066 14.1159 7.68357 13.9658 7.60969C13.8158 7.53581 13.6553 7.51096 13.5253 7.54387C13.3952 7.57664 13.2958 7.66691 13.2415 7.79568C13.1871 7.92418 13.1782 8.09119 13.2052 8.2485Z" fill="#F0D641"/>
<path fill-rule="evenodd" clip-rule="evenodd" d="M12.4651 24.5688C12.5731 24.5778 12.744 24.5834 12.9118 24.5934C13.0589 24.6021 13.2057 24.6145 13.3522 24.6304C13.4597 24.6427 13.5099 24.6525 13.634 24.6718C13.7583 24.6907 13.9563 24.719 14.2365 24.744C14.5869 24.7748 14.9383 24.7918 15.29 24.7949C15.7014 24.7992 16.162 24.7856 16.4303 24.7779C16.6992 24.7701 16.7754 24.7686 16.8383 24.7691C16.9015 24.7699 16.9511 24.7731 17.0759 24.7708C17.2437 24.7677 17.4113 24.7603 17.5787 24.7484C17.7561 24.7355 17.9111 24.717 18.0303 24.7047C18.1498 24.6918 18.2335 24.6854 18.3778 24.6705C18.5219 24.6559 18.7267 24.6327 18.8643 24.6151C19.0022 24.5975 19.0733 24.5849 19.1374 24.5801C19.2014 24.5753 19.2582 24.5785 19.3168 24.5777C19.3755 24.5771 19.4357 24.5726 19.4763 24.559C19.4937 24.5539 19.5096 24.5446 19.5227 24.5321C19.5358 24.5196 19.5457 24.5041 19.5515 24.487C19.5657 24.4518 19.5728 24.4048 19.5737 24.3427C19.5742 24.2805 19.5683 24.2036 19.5633 24.1141C19.5569 24.0214 19.5543 23.9285 19.5555 23.8356C19.5577 23.7484 19.567 23.6753 19.5686 23.5799C19.5703 23.4844 19.5641 23.3663 19.5524 23.2488C19.5555 23.0862 19.558 22.9234 19.5588 22.8302C19.5599 22.737 19.5588 22.7131 19.5607 22.6659C19.5623 22.6186 19.5668 22.5475 19.5708 22.5098C19.5748 22.472 19.5786 22.4669 19.5795 22.4477C19.5799 22.424 19.5794 22.4003 19.5782 22.3767C19.5771 22.3577 19.5771 22.3532 19.5765 22.3492C19.5824 22.2938 19.588 22.2385 19.5931 22.187C19.5984 22.1355 19.6034 22.088 19.6053 22.048C19.6073 22.0156 19.6067 21.9832 19.6037 21.9509C19.6008 21.9257 19.5959 21.9083 19.5901 21.8938C19.5842 21.8793 19.5767 21.8684 19.5677 21.8588C19.5652 21.7484 19.5637 21.6378 19.5621 21.5446C19.5604 21.4512 19.5589 21.3758 19.5722 21.2637C19.5854 21.1516 19.6138 21.0034 19.637 20.8952C19.6602 20.7871 19.6784 20.7191 19.7028 20.6031C19.7272 20.4873 19.758 20.3235 19.7762 20.1929C19.7943 20.0622 19.7997 19.9643 19.8089 19.8677C19.8182 19.7714 19.8313 19.6765 19.8417 19.613C19.8518 19.5498 19.8593 19.5184 19.8668 19.4773C19.8744 19.4362 19.8817 19.3853 19.8817 19.3399C19.8823 19.2951 19.8722 19.2508 19.8524 19.2106C19.8308 19.1666 19.7956 19.1194 19.7756 19.0928C19.7554 19.0664 19.7502 19.0605 19.7399 19.0463C19.7247 19.0267 19.714 19.0039 19.7086 18.9797C19.703 18.9506 19.7072 18.9146 19.7114 18.8909C19.7157 18.8669 19.7195 18.8549 19.7218 18.8142C19.724 18.7734 19.7246 18.704 19.7224 18.6483C19.7202 18.5926 19.7154 18.5504 19.7128 18.4997C19.7092 18.4454 19.7099 18.3909 19.715 18.3368C19.7206 18.2837 19.7329 18.2363 19.7528 18.1919C19.7726 18.1474 19.8003 18.106 19.8363 18.066C19.8722 18.026 19.9166 17.9873 19.9592 17.9577C20.0018 17.9283 20.0431 17.9079 20.0765 17.8972C20.1101 17.8866 20.136 17.8852 20.1576 17.8894C20.1792 17.8937 20.1962 17.9034 20.2107 17.9202C20.2253 17.9367 20.2371 17.9604 20.2448 18.0026C20.2526 18.0448 20.2569 18.1056 20.2605 18.165L20.2712 18.3362C20.2743 18.3891 20.2776 18.4358 20.2795 18.4765C20.2817 18.5176 20.2827 18.5525 20.287 18.6184C20.291 18.6845 20.2982 18.7815 20.3116 18.8646C20.3253 18.9477 20.3449 19.0166 20.3604 19.0753C20.3758 19.134 20.3867 19.1822 20.3942 19.2505C20.4017 19.319 20.4057 19.4075 20.3964 19.537C20.3871 19.6666 20.3645 19.8367 20.346 19.9797C20.3283 20.1108 20.3133 20.2422 20.301 20.3739C20.2884 20.5102 20.2777 20.6683 20.2777 20.7841C20.2777 20.9002 20.2884 20.9741 20.2967 21.0343C20.3048 21.0945 20.3104 21.1415 20.3127 21.1952C20.3152 21.2491 20.3146 21.3096 20.3026 21.3661C20.2906 21.423 20.2671 21.4755 20.2452 21.5187C20.2237 21.5618 20.2036 21.5954 20.1826 21.635C20.1609 21.6748 20.1419 21.716 20.1255 21.7582C20.1118 21.796 20.1071 21.8254 20.1121 21.8542C20.1174 21.8833 20.1323 21.9115 20.1412 21.9273C20.1502 21.9427 20.1532 21.9457 20.1607 21.9622C20.168 21.9793 20.18 22.0103 20.1856 22.0727C20.1914 22.1348 20.1906 22.2285 20.1819 22.3335C20.1729 22.4373 20.1585 22.5406 20.1387 22.6429C20.1211 22.731 20.103 22.7907 20.0836 22.8651C20.0585 22.9559 20.0391 23.0482 20.0257 23.1414C20.0097 23.2536 19.999 23.3896 19.9982 23.5348C19.9974 23.6799 20.0067 23.8343 20.0187 23.9554C20.0307 24.0762 20.0459 24.1639 20.0616 24.2696C20.0773 24.3754 20.0935 24.4993 20.1027 24.6129C20.1118 24.7265 20.1133 24.8298 20.108 24.9058C20.103 24.9821 20.0904 25.0309 20.0655 25.0869C20.041 25.1426 20.0042 25.2053 19.9735 25.2493C19.9428 25.2932 19.9186 25.3183 19.8857 25.3368C19.8526 25.3555 19.811 25.3672 19.7752 25.3754C19.7394 25.3832 19.7091 25.3874 19.665 25.3959C19.6213 25.4044 19.5637 25.4178 19.4975 25.444C19.4316 25.4703 19.357 25.5101 19.3169 25.5327C19.2764 25.5554 19.2702 25.5613 19.2465 25.5741C19.2086 25.5947 19.1685 25.6109 19.127 25.6225C19.0724 25.6376 19.0044 25.6476 18.9227 25.6491C18.841 25.6506 18.7461 25.6438 18.6762 25.6384C18.6066 25.6331 18.5623 25.6294 18.4756 25.6283C18.3629 25.6261 18.2501 25.6309 18.1379 25.6427C18.0162 25.6566 17.9024 25.6832 17.8331 25.7006C17.764 25.7182 17.7394 25.7264 17.6966 25.7384C17.6537 25.7507 17.5922 25.7669 17.5384 25.7703C17.4926 25.773 17.4467 25.7682 17.4024 25.756C17.3661 25.7467 17.34 25.737 17.2978 25.7253C17.2554 25.7135 17.1968 25.6996 17.1204 25.6911C17.0441 25.6827 16.9503 25.6794 16.8588 25.6845C16.767 25.6892 16.6777 25.7023 16.6008 25.7208C16.5351 25.7367 16.4704 25.7566 16.4072 25.7806C16.3557 25.799 16.3176 25.8128 16.2696 25.8228C16.221 25.832 16.1719 25.8383 16.1226 25.8418C16.0804 25.8445 16.0531 25.8442 15.9926 25.8535C15.932 25.8625 15.838 25.8815 15.7646 25.8986C15.6911 25.9154 15.6381 25.9308 15.5608 25.9487C15.4834 25.9669 15.3817 25.9873 15.2946 25.9935C15.2198 25.9989 15.1447 25.9947 15.071 25.9812C15.007 25.9705 14.9515 25.9569 14.8931 25.9428C14.8346 25.9288 14.7735 25.9146 14.6851 25.9062C14.5907 25.899 14.496 25.8956 14.4013 25.8958C14.3213 25.8956 14.2768 25.8972 14.1752 25.8874C14.0736 25.8775 13.9151 25.8561 13.8065 25.8384C13.6978 25.8207 13.639 25.8067 13.5391 25.7899C13.4393 25.7731 13.2982 25.7536 13.1856 25.7426C13.0729 25.7317 12.9883 25.7298 12.8811 25.7208C12.7739 25.7118 12.6439 25.6957 12.5615 25.6845C12.4793 25.673 12.4448 25.6663 12.3766 25.6565C12.2771 25.6416 12.1766 25.6341 12.0759 25.6341C11.9451 25.6341 11.7851 25.6466 11.6828 25.6559C11.5806 25.6657 11.5363 25.6727 11.3897 25.6794C11.1917 25.6878 10.9936 25.6923 10.7954 25.6931C10.5964 25.6933 10.4472 25.6875 10.3138 25.6679C10.1804 25.6484 10.0627 25.6148 9.99004 25.5938C9.91726 25.5728 9.88981 25.5636 9.84051 25.5501C9.79135 25.5364 9.72048 25.5184 9.64032 25.512C9.5603 25.5056 9.47072 25.5114 9.38496 25.5215C9.29907 25.5316 9.21659 25.5467 9.15637 25.5629C9.09615 25.5794 9.05805 25.5971 9.02118 25.6128C8.98417 25.6282 8.94812 25.6413 8.90743 25.6496C8.86674 25.658 8.82099 25.6608 8.76637 25.6541C8.71174 25.648 8.64825 25.6317 8.59895 25.6186C8.54965 25.6053 8.51483 25.5949 8.47291 25.5859C8.43085 25.5771 8.38169 25.5693 8.33704 25.5712C8.29238 25.5732 8.25223 25.5849 8.2084 25.5961C8.16457 25.6076 8.11704 25.6185 8.01558 25.6345C7.91426 25.6502 7.75927 25.6711 7.60851 25.6771C7.45775 25.683 7.31123 25.6739 7.21509 25.667C7.11909 25.66 7.07348 25.655 6.98609 25.6515C6.89869 25.6481 6.76938 25.6462 6.68908 25.6479C6.60879 25.6495 6.57738 25.6545 6.5401 25.6563C6.50257 25.6584 6.46493 25.6574 6.42758 25.6532C6.39521 25.6492 6.3735 25.6428 6.34551 25.6356C6.31751 25.6283 6.2831 25.6212 6.21824 25.6252C6.15324 25.6294 6.05778 25.645 5.99346 25.6562C5.92928 25.6674 5.89651 25.6741 5.82031 25.685C5.74411 25.6957 5.62463 25.7107 5.52153 25.7144C5.42569 25.7183 5.32973 25.7103 5.23585 25.6906C5.14026 25.6711 5.03594 25.6394 4.92833 25.6005C4.82059 25.5616 4.7097 25.5151 4.62791 25.4722C4.56408 25.4402 4.50483 25.3997 4.45175 25.3519C4.41688 25.3213 4.38666 25.2857 4.36203 25.2464C4.34406 25.2184 4.33383 25.1862 4.3324 25.153C4.3309 25.1202 4.33704 25.0831 4.34428 25.0503C4.35152 25.0175 4.36012 24.989 4.3664 24.907C4.37268 24.8248 4.3776 24.6899 4.37637 24.555L4.37473 24.3926C4.37241 24.1629 4.37255 23.9334 4.37077 23.7432C4.36886 23.5527 4.36654 23.4018 4.36517 23.2655C4.36381 23.1292 4.36353 23.0078 4.37009 22.9087C4.37664 22.8091 4.38975 22.7318 4.40559 22.6748C4.42157 22.6177 4.44014 22.5808 4.45721 22.5463C4.47415 22.5116 4.48958 22.4796 4.50364 22.4307C4.51784 22.3817 4.53054 22.316 4.53177 22.203C4.533 22.0902 4.52249 21.9298 4.51552 21.8237C4.50842 21.7171 4.50473 21.6645 4.50419 21.584C4.50364 21.5031 4.5061 21.3948 4.51661 21.3119C4.52462 21.25 4.53894 21.1891 4.55936 21.13C4.57352 21.0916 4.58301 21.0515 4.58762 21.0108C4.59322 20.9604 4.59554 20.8863 4.59404 20.8359C4.59268 20.785 4.58776 20.7578 4.58462 20.7124C4.58148 20.6671 4.57984 20.6036 4.59309 20.4989C4.60619 20.3943 4.63378 20.2482 4.65727 20.1228C4.68062 19.9977 4.69974 19.8934 4.71544 19.766C4.73114 19.6386 4.7433 19.4878 4.7463 19.3812C4.74944 19.2745 4.74343 19.2118 4.74043 19.1449C4.73729 19.078 4.73715 19.007 4.74179 18.9462C4.74657 18.8855 4.756 18.8345 4.76255 18.7937C4.76911 18.7529 4.77252 18.7217 4.76788 18.6825C4.7631 18.6431 4.75012 18.5953 4.73729 18.5465C4.72404 18.4972 4.71107 18.4468 4.68485 18.2513C4.65197 18.0001 4.62315 17.7484 4.59841 17.4963C4.57765 17.2778 4.57547 17.1812 4.57301 17.1018C4.57042 17.0223 4.56769 16.9599 4.5599 16.9092C4.55198 16.8583 4.53901 16.8188 4.52208 16.7878C4.50514 16.7568 4.48452 16.7344 4.46568 16.7108C4.44633 16.6868 4.42941 16.6609 4.41515 16.6335C4.39807 16.6021 4.38919 16.5669 4.38934 16.5311C4.38975 16.4889 4.40273 16.4367 4.41338 16.3935C4.42403 16.3502 4.43263 16.3162 4.44765 16.2348C4.46267 16.1534 4.48411 16.0246 4.48958 15.8982C4.49504 15.7717 4.48439 15.6476 4.47633 15.5622C4.46827 15.4769 4.46267 15.4301 4.45967 15.3175C4.45636 15.1775 4.4555 15.0375 4.45708 14.8975C4.45871 14.7686 4.46281 14.6892 4.45694 14.5646C4.45107 14.4402 4.43523 14.2707 4.41857 14.104C4.40191 13.9374 4.38456 13.7736 4.37146 13.6352C4.35807 13.4967 4.34879 13.3835 4.33049 13.2263C4.31205 13.0696 4.29088 12.9131 4.26699 12.7571C4.24951 12.6466 4.24186 12.627 4.23558 12.5748C4.22864 12.5122 4.22391 12.4494 4.22138 12.3865C4.2192 12.3353 4.22056 12.3175 4.2181 12.2783C4.21564 12.2272 4.20772 12.1765 4.19448 12.127C4.17932 12.0758 4.15515 12.0343 4.13767 12.0041C4.12006 11.974 4.10899 11.9551 4.09247 11.9054C4.07609 11.8557 4.05437 11.775 4.03607 11.6571C4.01579 11.522 4.00393 11.3856 4.00057 11.249C3.99778 11.1327 4.00523 11.0164 4.02283 10.9014C4.03826 10.8031 4.05956 10.7208 4.07458 10.6617C4.0896 10.6024 4.09821 10.5665 4.10026 10.528C4.10193 10.4911 4.09867 10.4541 4.09056 10.418C4.08332 10.3874 4.07349 10.3671 4.06134 10.3368C4.04365 10.2943 4.03184 10.2496 4.02624 10.2039C4.01819 10.1416 4.01668 10.0577 4.03334 9.89489C4.05 9.73225 4.08469 9.49082 4.1079 9.33296C4.13125 9.1751 4.143 9.10082 4.15051 9.04974C4.15802 8.99867 4.16102 8.97095 4.17004 8.92643C4.17905 8.88192 4.1938 8.8206 4.21537 8.77226C4.23622 8.72547 4.26774 8.68422 4.30741 8.65182C4.34974 8.6155 4.40614 8.57835 4.49367 8.5378C4.598 8.49117 4.70524 8.45135 4.81472 8.41858C4.92929 8.38376 5.03976 8.35809 5.14709 8.32927C5.25442 8.30032 5.35862 8.26837 5.42662 8.24638C5.49463 8.2244 5.52658 8.21252 5.57478 8.19736C5.62313 8.1822 5.68785 8.16363 5.75012 8.15708C5.82796 8.14861 5.90088 8.16418 5.97312 8.18029C6.02323 8.19108 6.07403 8.19996 6.13111 8.19681C6.1884 8.19236 6.24522 8.18318 6.30099 8.16937C6.35097 8.15762 6.38825 8.14656 6.44901 8.13236C6.50992 8.11829 6.59445 8.10109 6.65562 8.09098C6.7168 8.08088 6.7549 8.07828 6.79764 8.07337C6.84038 8.06845 6.88804 8.06149 6.92874 8.05589C6.96957 8.05015 7.0037 8.04592 7.04413 8.04456C7.08441 8.04305 7.13111 8.04455 7.17372 8.04606C7.21632 8.04756 7.25483 8.04892 7.30672 8.04483C7.35875 8.04073 7.42416 8.0309 7.47264 8.02393C7.52125 8.0167 7.5528 8.01233 7.5853 8.0096C7.61766 8.00673 7.65098 8.00577 7.68484 8.00482C7.71871 8.00386 7.75326 8.00304 7.78426 7.99635C7.81498 7.98939 7.84188 7.97628 7.86319 7.96371C7.88435 7.95115 7.90006 7.939 7.91863 7.92643C7.93734 7.91373 7.95905 7.90062 7.98595 7.89066C8.01272 7.88082 8.04481 7.87441 8.09356 7.87468C8.14231 7.87495 8.20785 7.88205 8.25046 7.88724C8.29306 7.89216 8.31273 7.89516 8.35643 7.89776C8.40012 7.90035 8.46813 7.90254 8.52644 7.89817C8.58475 7.89366 8.63336 7.88274 8.67078 7.87468C8.70819 7.86662 8.73428 7.86184 8.76841 7.8602C8.80255 7.85857 8.84461 7.85993 8.88517 7.86635C8.92573 7.87277 8.96465 7.8841 9.00602 7.89557C9.0474 7.90691 9.09123 7.91838 9.14708 7.92643C9.20294 7.93463 9.27094 7.93927 9.3425 7.93654C9.41419 7.93381 9.48957 7.92357 9.53832 7.9151C9.58707 7.90663 9.60905 7.90008 9.66067 7.88984C9.71229 7.87987 9.7934 7.86649 9.89787 7.85747C10.0201 7.8474 10.1428 7.84471 10.2653 7.84942C10.4004 7.85474 10.5425 7.86935 10.67 7.8867C10.7975 7.90404 10.9102 7.92398 10.9925 7.93831C11.075 7.95252 11.127 7.96126 11.1837 7.96426C11.2402 7.96726 11.3013 7.96467 11.3395 7.96221C11.3777 7.95975 11.393 7.95716 11.4251 7.95634C11.4572 7.95538 11.5059 7.95593 11.5562 7.96481C11.6063 7.97368 11.6578 7.99116 11.699 8.00809C11.7401 8.02503 11.771 8.04169 11.8016 8.05739C11.8635 8.08894 11.9174 8.11625 11.9705 8.11051C11.9974 8.10792 12.0262 8.09822 12.046 8.09139C12.066 8.08457 12.0769 8.08074 12.0972 8.07569C12.1179 8.07064 12.148 8.06463 12.1897 8.06914C12.2315 8.0735 12.2849 8.08825 12.3204 8.09822C12.3559 8.10846 12.3736 8.11393 12.4102 8.12198C12.4468 8.13004 12.5024 8.14069 12.56 8.14397C12.6176 8.14725 12.6773 8.14342 12.7209 8.13823C12.7643 8.13291 12.7916 8.12662 12.8198 8.12116C12.8482 8.1157 12.8772 8.11119 12.9076 8.11188C12.9694 8.11283 13.0396 8.13919 13.1103 8.18985C13.1465 8.21593 13.1822 8.24857 13.2099 8.27957C13.2376 8.31057 13.2574 8.33993 13.2693 8.36464C13.2801 8.38437 13.2848 8.40684 13.2828 8.42923C13.28 8.44873 13.2735 8.46751 13.2636 8.48454C13.2551 8.49983 13.247 8.51035 13.2362 8.53083C13.2256 8.55131 13.2123 8.58204 13.2016 8.61713C13.1908 8.65237 13.1824 8.69238 13.1767 8.71982C13.1732 8.74067 13.168 8.76118 13.161 8.78114C13.1531 8.80299 13.1412 8.82321 13.126 8.84081C13.0914 8.88041 13.0236 8.90964 12.9646 8.92084C12.9345 8.92643 12.9076 8.92657 12.8665 8.93026C12.8254 8.93381 12.7702 8.94105 12.7341 8.94637C12.6981 8.9517 12.6813 8.95497 12.6458 8.96016C12.6103 8.96549 12.5562 8.97259 12.5025 8.9704C12.4508 8.96723 12.3996 8.95862 12.3497 8.94473C12.304 8.93285 12.2655 8.9207 12.2145 8.90595C12.14 8.884 12.0638 8.8681 11.9866 8.85843C11.8439 8.84039 11.7006 8.82782 11.5569 8.82074C11.4308 8.81348 11.3044 8.8108 11.1781 8.81268C11.0912 8.815 11.0572 8.82156 11.0336 8.82975C11.01 8.83781 10.9967 8.84723 10.9833 8.85638C10.97 8.86553 10.9562 8.87427 10.938 8.88082C10.9199 8.88711 10.8973 8.8912 10.8625 8.88752C10.8277 8.88383 10.7807 8.87236 10.7259 8.85392C10.6709 8.83562 10.608 8.81022 10.549 8.78646C10.4898 8.76284 10.4345 8.74072 10.3641 8.71846C10.2935 8.69634 10.2077 8.67421 10.1351 8.66056C10.0624 8.6469 10.0029 8.64199 9.95017 8.64431C9.89746 8.64663 9.85158 8.65619 9.81307 8.66739C9.73373 8.69128 9.68484 8.71723 9.62312 8.72815C9.59085 8.73453 9.55787 8.7365 9.52507 8.73403C9.4954 8.73042 9.46616 8.72383 9.43781 8.71436C9.41146 8.70644 9.38756 8.6992 9.32734 8.69374C9.24573 8.68746 9.16393 8.68386 9.08208 8.68295C8.9936 8.68159 8.91344 8.68268 8.81853 8.68186C8.72362 8.68118 8.61411 8.67858 8.50281 8.67585C8.39152 8.67312 8.27832 8.67039 8.16539 8.6749C8.05245 8.6794 7.93966 8.69142 7.86455 8.70166C7.78958 8.71177 7.75258 8.7201 7.68525 8.72993C7.61807 8.73962 7.52043 8.75069 7.43085 8.75628C7.34113 8.76188 7.25934 8.76188 7.18696 8.76188C7.11472 8.76175 7.05205 8.76147 7.00084 8.76489C6.94963 8.7683 6.90962 8.77568 6.87712 8.78674C6.84462 8.7978 6.81976 8.81296 6.80147 8.82443C6.78317 8.8359 6.77142 8.84409 6.73196 8.85938C6.69263 8.87468 6.62558 8.89735 6.5274 8.92302C6.42935 8.94856 6.30031 8.9771 6.18068 8.99417C6.0612 9.01124 5.95127 9.0167 5.86947 9.02066C5.78754 9.02475 5.73387 9.02735 5.65931 9.03377C5.58475 9.04019 5.48957 9.05043 5.41979 9.06395C5.35001 9.07733 5.30536 9.09385 5.2633 9.11679C5.22182 9.13988 5.18303 9.1675 5.14764 9.19914C5.1135 9.22918 5.08469 9.2599 5.06584 9.28599C5.047 9.31207 5.03853 9.33364 5.0358 9.35645C5.03307 9.37912 5.03662 9.40301 5.04167 9.42309C5.05341 9.4672 5.06789 9.48864 5.0657 9.52018C5.06404 9.54028 5.05872 9.5599 5.05 9.57808C5.04072 9.59843 5.02733 9.61864 5.0134 9.64062C4.9982 9.66334 4.98517 9.68743 4.97449 9.71259C4.95182 9.76653 4.95468 9.83303 4.96083 9.89776C4.96356 9.93108 4.96588 9.96371 4.96165 10.0261C4.95614 10.098 4.94853 10.1697 4.93884 10.2412C4.93079 10.3013 4.92546 10.3291 4.91645 10.4029C4.90757 10.4766 4.89474 10.5962 4.89351 10.7196C4.89228 10.8429 4.90252 10.9699 4.91659 11.0936C4.93065 11.2174 4.94854 11.338 4.96506 11.4462C4.98159 11.5543 4.99702 11.65 5.00453 11.7387C5.0119 11.8272 5.01108 11.9088 5.00671 11.9797C5.00221 12.0506 4.99388 12.1108 4.98746 12.1646C4.98104 12.2184 4.9764 12.2655 4.97735 12.3058C4.97831 12.3461 4.98459 12.3794 4.99169 12.4038C4.99879 12.4283 5.00671 12.4437 5.01518 12.4628C5.02365 12.4818 5.03266 12.5043 5.0373 12.5372C5.04181 12.5702 5.04194 12.6134 5.04099 12.6517C5.04017 12.6901 5.03826 12.7231 5.04194 12.7777C5.04549 12.8325 5.05451 12.9085 5.06611 12.973C5.07745 13.0376 5.09165 13.0906 5.10653 13.1606C5.12142 13.2305 5.1374 13.3174 5.14982 13.4146C5.16225 13.5118 5.17113 13.6193 5.1785 13.7056C5.18587 13.7918 5.19161 13.8568 5.19816 13.9136C5.20472 13.9704 5.21182 14.0187 5.21469 14.1034C5.21755 14.1881 5.21605 14.3091 5.21359 14.3816C5.21127 14.4541 5.20786 14.4783 5.20813 14.5936C5.20813 14.709 5.21182 14.9158 5.21892 15.0847C5.22588 15.2536 5.23626 15.3846 5.24418 15.5532C5.2521 15.7219 5.25743 15.9281 5.2592 16.0723C5.26098 16.2166 5.2592 16.2987 5.25948 16.3876C5.25961 16.4761 5.2618 16.5719 5.26699 16.6399C5.27245 16.7085 5.28105 16.7493 5.29471 16.7835C5.3085 16.8173 5.32721 16.844 5.34059 16.8632C5.35411 16.8822 5.36217 16.8937 5.37459 16.9166C5.38688 16.9398 5.40354 16.9745 5.41365 17.0103C5.42375 17.0458 5.42744 17.0825 5.42239 17.134C5.41734 17.1855 5.40327 17.2516 5.39276 17.298C5.3821 17.3447 5.37487 17.3713 5.36108 17.4367C5.34728 17.5023 5.32694 17.6061 5.31492 17.7944C5.3029 17.9827 5.29949 18.2553 5.29648 18.4377C5.29334 18.6201 5.29048 18.7122 5.28761 18.8042C5.2592 19.1483 5.23381 19.4929 5.21646 19.762C5.19912 20.0317 5.18983 20.2263 5.17317 20.5618C5.15651 20.8971 5.13275 21.3734 5.13303 21.8868C5.1333 22.4003 5.15761 22.9507 5.17304 23.2778C5.18847 23.605 5.19489 23.709 5.20363 23.8128C5.19052 23.8315 5.17249 23.8464 5.15952 23.8598C5.14641 23.8729 5.13589 23.8822 5.12401 23.8961C5.11227 23.9103 5.0993 23.9289 5.09151 23.9543C5.08373 23.9794 5.08114 24.0111 5.08277 24.0618C5.08428 24.1122 5.09001 24.1815 5.09534 24.2532C5.10066 24.3246 5.10572 24.3982 5.10694 24.4858C5.10817 24.5733 5.10572 24.6743 5.09575 24.7743C5.08584 24.874 5.06882 24.9728 5.04481 25.0701C5.49558 25.0952 5.94635 25.1216 6.2095 25.1386C6.47291 25.156 6.5487 25.1638 6.65521 25.1703C6.76159 25.1773 6.89842 25.1834 7.00794 25.1821C7.11746 25.181 7.20007 25.1725 7.27504 25.1586C7.35001 25.1444 7.41747 25.1247 7.46622 25.1108C7.51497 25.0969 7.54515 25.0889 7.59499 25.0801C7.66713 25.0677 7.74016 25.0613 7.81334 25.0608C7.91207 25.06 8.03962 25.0675 8.12155 25.0725C8.20335 25.0779 8.23953 25.0806 8.30781 25.0792C8.37609 25.0779 8.47632 25.0725 8.53996 25.0678C8.60346 25.0627 8.63008 25.0582 8.70382 25.0518C8.77756 25.0451 8.89828 25.0369 9.02077 25.039C9.14326 25.041 9.26766 25.0544 9.34222 25.0627C9.41692 25.0712 9.44204 25.0747 9.5136 25.0803C9.58529 25.0859 9.70355 25.0934 9.87056 25.0884C10.0376 25.0836 10.2535 25.0657 10.41 25.0508C10.5666 25.0357 10.6638 25.0234 10.7664 25.0111C10.8928 24.9956 11.0198 24.9851 11.1471 24.9798C11.3454 24.9723 11.5438 24.9698 11.7422 24.9723C11.9339 24.975 12.0841 24.9835 12.2438 24.9897C12.4034 24.9955 12.5725 24.9992 12.6969 25.0006C12.8213 25.0019 12.9011 25.0009 12.9833 25.0014C13.0654 25.0017 13.1497 25.0033 13.22 25.0118C13.2903 25.0205 13.3467 25.0361 13.3832 25.0473C13.4198 25.0588 13.4364 25.0657 13.4767 25.079C13.5169 25.0923 13.5805 25.1115 13.6754 25.1257C13.7703 25.14 13.8964 25.1494 13.9805 25.1548C14.0646 25.1601 14.1067 25.1614 14.1782 25.1687C14.2571 25.1772 14.3358 25.1875 14.4142 25.1994C14.4777 25.2095 14.5038 25.2162 14.5483 25.2234C14.6006 25.2325 14.6535 25.2379 14.7065 25.2397C14.7579 25.2405 14.7978 25.2341 14.8333 25.224C14.8688 25.2142 14.8996 25.2 14.9287 25.1806C14.9844 25.1414 15.0298 25.0892 15.0608 25.0286C15.0718 25.0062 15.0751 24.9907 15.0743 24.9798C15.0733 24.9686 15.0681 24.9625 15.0583 24.9591C15.0485 24.9559 15.034 24.9559 15.0119 24.9619C14.9898 24.9679 14.96 24.9806 14.9347 24.9947C14.8871 25.0208 14.8574 25.0521 14.8252 25.0667C14.8093 25.0743 14.7916 25.0774 14.774 25.0757C14.7506 25.0725 14.7276 25.0666 14.7055 25.0583C14.6781 25.0499 14.6454 25.0388 14.5212 25.0146C14.325 24.9776 14.1278 24.9455 13.93 24.9186C13.6803 24.8853 13.43 24.8565 13.1793 24.8325C12.9697 24.8123 12.8398 24.8037 12.7154 24.7936C12.5912 24.7837 12.4725 24.7723 12.3578 24.7608C12.2429 24.7496 12.1319 24.7384 11.9134 24.7328C11.6949 24.7272 11.369 24.7272 11.1781 24.7275C10.987 24.728 10.931 24.7291 10.846 24.7272C10.7608 24.7253 10.6463 24.7205 10.5723 24.7157C10.4983 24.7109 10.4647 24.7053 10.396 24.7045C10.3157 24.7044 10.2354 24.7061 10.1551 24.7096C10.0869 24.7123 10.0538 24.7144 10.0068 24.7152C9.95986 24.716 9.89896 24.7157 9.81293 24.7183C9.7269 24.7208 9.61588 24.7267 9.53463 24.7312C9.45338 24.7359 9.40217 24.7396 9.3115 24.7424C9.22055 24.7452 9.09028 24.7471 8.96983 24.748C8.84953 24.749 8.73919 24.749 8.52057 24.7613C8.30208 24.7736 7.97544 24.7983 7.73455 24.8176C7.4938 24.8369 7.33881 24.8501 7.14436 24.8638C6.93696 24.8787 6.72925 24.8888 6.52139 24.8942C6.36323 24.8978 6.20499 24.8934 6.04727 24.8811C5.923 24.8707 5.82987 24.8565 5.76405 24.8427C5.69823 24.8289 5.65959 24.8155 5.62886 24.799C5.59827 24.7825 5.57519 24.7627 5.55908 24.7454C5.54297 24.728 5.53327 24.7131 5.52945 24.7011C5.52562 24.6891 5.52726 24.6798 5.53436 24.6726C5.54292 24.6643 5.55396 24.6591 5.56577 24.6577C6.14491 24.6667 6.72568 24.6571 7.06911 24.6358C7.41269 24.6143 7.51907 24.5807 7.76173 24.5519C8.00439 24.523 8.38305 24.4993 8.6152 24.4814C8.84721 24.4632 8.93283 24.4512 9.51688 24.4615C10.1009 24.4716 11.1835 24.5037 11.7474 24.5263C12.3112 24.549 12.3571 24.5594 12.4651 24.5688Z" fill="black"/>
<path fill-rule="evenodd" clip-rule="evenodd" d="M5.9214 21.0854C5.91853 21.1246 5.91731 21.1456 5.91635 21.1641C5.91539 21.1822 5.91457 21.1977 5.91348 21.2313C5.91239 21.2649 5.91143 21.3163 5.91143 21.3681C5.91184 21.4689 5.91703 21.567 5.92809 21.663C5.9326 21.7162 5.93601 21.7692 5.93752 21.8105C5.93929 21.8516 5.93929 21.8813 5.93834 21.911C5.93738 21.9412 5.93547 21.9718 5.9326 22.0115C5.92987 22.0513 5.92659 22.1003 5.92454 22.1391C5.92058 22.2177 5.92099 22.2608 5.92113 22.3202C5.92249 22.4106 5.92504 22.5011 5.92878 22.5915C5.93192 22.6637 5.93656 22.7552 5.94093 22.8329C5.9453 22.9105 5.9494 22.974 5.95295 23.0201C5.9565 23.066 5.95936 23.0943 5.96196 23.1178C5.97051 23.1971 5.98711 23.2753 6.01153 23.3512C6.02847 23.4044 6.05152 23.4555 6.08022 23.5034C6.11231 23.558 6.15696 23.6226 6.20585 23.6834C6.24463 23.7293 6.28655 23.7727 6.32452 23.8068C6.36248 23.841 6.39634 23.8661 6.42953 23.8877C6.46271 23.9093 6.49494 23.9277 6.55488 23.9448C6.61483 23.9621 6.70237 23.9784 6.79003 23.9872C6.81694 23.9901 6.84397 23.9931 6.89982 23.9976L7.09947 24.0136C7.1586 24.0186 7.19178 24.0216 7.221 24.0248C7.26505 24.0291 7.30895 24.0349 7.35264 24.042C7.3704 24.0451 7.38815 24.0484 7.41737 24.0548C7.44659 24.061 7.48715 24.0703 7.53631 24.0815C7.58534 24.0927 7.64282 24.106 7.67847 24.114C7.71411 24.1219 7.72776 24.1243 7.74155 24.1268C7.77036 24.1329 7.79892 24.1401 7.82718 24.1484C7.83537 24.1508 7.84138 24.1529 7.84739 24.1551C7.85735 24.1607 7.86691 24.1668 7.87511 24.1727C7.88316 24.1785 7.88985 24.1841 7.89532 24.1892C7.93027 24.2228 7.93096 24.253 7.92263 24.2818C7.92013 24.2899 7.91698 24.2977 7.91321 24.3053C7.90705 24.3176 7.89988 24.3294 7.89177 24.3405C7.87842 24.3592 7.86416 24.3773 7.84902 24.3946C7.84274 24.3991 7.83619 24.4029 7.82786 24.4066C7.81953 24.4103 7.80942 24.4138 7.79618 24.4175C7.77412 24.4232 7.75148 24.4263 7.72872 24.4268C7.69158 24.429 7.63409 24.429 7.57687 24.4265C7.54969 24.4252 7.52266 24.4238 7.5004 24.4231C7.47828 24.4223 7.46107 24.4215 7.44318 24.4209L7.35292 24.4185L7.14426 24.4134C7.07748 24.4118 7.03269 24.4107 6.95882 24.4084C6.88508 24.4056 6.78211 24.4017 6.7167 24.3996C6.65129 24.3972 6.6233 24.3969 6.5979 24.3968C6.5725 24.3966 6.54983 24.3968 6.49712 24.3973C6.44414 24.3979 6.36098 24.3989 6.3054 24.3981C6.24871 24.3981 6.19212 24.3934 6.1362 24.3841C6.11548 24.3813 6.09508 24.3765 6.0753 24.3697C6.04209 24.3586 6.00995 24.3445 5.9793 24.3275C5.90824 24.289 5.83982 24.2459 5.77447 24.1983C5.76242 24.1893 5.75054 24.1801 5.73883 24.1706C5.72121 24.1552 5.70633 24.1424 5.69103 24.1237C5.67638 24.106 5.66471 24.0861 5.65648 24.0647C5.65016 24.0495 5.6458 24.0336 5.64351 24.0174C5.63939 23.9887 5.63724 23.9597 5.63709 23.9307C5.63723 23.8904 5.63668 23.8504 5.63559 23.8216C5.6345 23.7928 5.633 23.7754 5.63095 23.7578C5.6289 23.7402 5.62644 23.7223 5.62235 23.6943L5.60869 23.6004C5.6034 23.5626 5.59867 23.5247 5.59449 23.4868C5.58695 23.4152 5.58094 23.3436 5.57646 23.2718C5.57346 23.2212 5.56977 23.1582 5.56663 23.0977C5.56349 23.0369 5.56076 22.9782 5.55557 22.8672L5.53809 22.4858C5.5302 22.3161 5.52105 22.1464 5.51064 21.9769C5.50518 21.8886 5.50013 21.8149 5.49576 21.756C5.49224 21.7076 5.48823 21.6591 5.48374 21.6107C5.47978 21.5688 5.47555 21.5285 5.47104 21.4949C5.46258 21.4328 5.45091 21.371 5.43608 21.3101C5.43302 21.282 5.43376 21.2537 5.43827 21.2258C5.44031 21.2025 5.44159 21.1791 5.44209 21.1557C5.4427 21.1141 5.44293 21.0725 5.44277 21.0309C5.44059 20.952 5.43881 20.8731 5.43772 20.8074C5.43671 20.7536 5.43621 20.6998 5.43622 20.646C5.43622 20.6031 5.4369 20.5694 5.43799 20.5422C5.43895 20.5147 5.44032 20.4934 5.44182 20.47C5.44346 20.4467 5.44551 20.4212 5.44919 20.3886C5.45274 20.3558 5.4578 20.3161 5.46298 20.2778C5.46817 20.2396 5.4735 20.2039 5.47678 20.1783C5.48005 20.1526 5.48156 20.1377 5.48238 20.1181C5.48319 20.0984 5.4836 20.0744 5.48333 20.05C5.48127 20.0166 5.4809 19.983 5.48224 19.9495C5.48374 19.9095 5.48702 19.86 5.48879 19.8225C5.49057 19.785 5.49071 19.7593 5.49016 19.7338C5.48867 19.6894 5.48296 19.6453 5.47309 19.602C5.46039 19.5396 5.43854 19.4495 5.42297 19.3782C5.40727 19.3072 5.39771 19.2556 5.3917 19.2184C5.38057 19.1454 5.37414 19.0717 5.37245 18.9979C5.37269 18.9757 5.37378 18.9536 5.37573 18.9315C5.37736 18.9142 5.37928 18.9035 5.3846 18.8899C5.38993 18.8762 5.39867 18.8594 5.40905 18.8437C5.41232 18.8357 5.41628 18.8277 5.42625 18.8127C5.43636 18.7976 5.45233 18.7749 5.46176 18.7596C5.4679 18.7504 5.47277 18.7405 5.47623 18.73C5.48388 18.7057 5.48333 18.6871 5.46285 18.6676C5.44265 18.6509 5.41781 18.6408 5.3917 18.6387C5.37532 18.6409 5.35715 18.6524 5.33694 18.6777C5.31264 18.7084 5.30417 18.7425 5.29366 18.7748C5.29133 18.7843 5.29024 18.794 5.28396 18.8288C5.27781 18.8638 5.26689 18.9237 5.25856 19.0023C5.25031 19.0889 5.24416 19.1756 5.24013 19.2625C5.23562 19.3473 5.23221 19.4196 5.22743 19.5217C5.22251 19.6239 5.21636 19.7562 5.21077 19.866C5.20575 19.965 5.20042 20.0641 5.19479 20.1631C5.18919 20.2621 5.18277 20.3719 5.17635 20.497C5.16994 20.6221 5.16352 20.7621 5.15942 20.8613C5.1556 20.9609 5.1541 21.0189 5.15259 21.0715L5.14727 21.2481C5.14093 21.4415 5.13684 21.6349 5.13498 21.8284C5.13402 21.9175 5.13348 21.9952 5.13307 22.0643C5.13293 22.1336 5.13266 22.1941 5.13293 22.2549C5.13307 22.3159 5.13375 22.3772 5.13511 22.4426C5.13634 22.5081 5.13826 22.577 5.13989 22.6387C5.14276 22.7646 5.14618 22.854 5.1515 22.9572C5.1541 23.01 5.15655 23.0671 5.15983 23.1172C5.16311 23.1674 5.16666 23.2104 5.16857 23.2455C5.17062 23.2804 5.17089 23.3073 5.17376 23.3468C5.17663 23.3863 5.18223 23.4386 5.18796 23.5175C5.1937 23.597 5.19943 23.7031 5.20394 23.8096C5.20148 23.852 5.20066 23.8944 5.20121 23.9243C5.20175 23.9542 5.20394 23.9715 5.20653 23.9881C5.20913 24.0046 5.212 24.0203 5.21773 24.0401C5.22333 24.0599 5.23152 24.0832 5.24709 24.1196C5.26252 24.1556 5.28546 24.2044 5.33831 24.2961C5.39129 24.3876 5.47418 24.5217 5.56035 24.6535C5.58438 24.6569 5.60855 24.661 5.64215 24.6666C5.67574 24.6727 5.71889 24.6805 5.77638 24.6882C5.83373 24.6957 5.90543 24.7031 5.96824 24.7077C6.03106 24.7122 6.08513 24.7141 6.14098 24.716C6.19684 24.7179 6.25419 24.7197 6.33667 24.7179C6.41915 24.7158 6.52648 24.7099 6.6304 24.7001C6.73446 24.6905 6.8351 24.6771 6.91211 24.6673C6.98913 24.6572 7.04294 24.6502 7.09373 24.6432C7.14481 24.6366 7.19301 24.6299 7.28314 24.6163C7.37313 24.6032 7.50518 24.583 7.65102 24.563C7.80049 24.5422 7.95031 24.5241 8.10042 24.5086C8.24435 24.4943 8.37217 24.4854 8.50176 24.4784C8.63149 24.4715 8.76313 24.4659 8.88562 24.4614C9.00825 24.4566 9.12172 24.4526 9.26975 24.4499C9.41778 24.4472 9.60035 24.4465 9.87142 24.4499C10.1425 24.4533 10.5023 24.4614 10.7669 24.4689C11.0316 24.4766 11.2011 24.4835 11.3275 24.4896C11.4541 24.4958 11.5377 24.5005 11.6176 24.5053C11.8248 24.517 12.0319 24.5311 12.2389 24.5477C12.3462 24.5561 12.4195 24.5631 12.4736 24.5676C12.5277 24.5718 12.5621 24.5732 12.613 24.5757C12.6638 24.5778 12.7309 24.581 12.7999 24.5847C12.8688 24.5884 12.9397 24.5934 13.0192 24.6001C13.0988 24.6068 13.1867 24.615 13.2684 24.6219C13.35 24.6292 13.4253 24.6353 13.4967 24.6465C13.5681 24.6577 13.6356 24.6737 13.7194 24.6874C13.8033 24.701 13.9036 24.7117 14.0007 24.7212C14.0977 24.7305 14.1914 24.7388 14.2886 24.7461C14.3858 24.7536 14.4866 24.76 14.5826 24.7656C14.6787 24.7715 14.7702 24.7763 14.8807 24.7813C14.9913 24.7864 15.1209 24.7917 15.2431 24.7941C15.3599 24.7963 15.4767 24.7961 15.5935 24.7933C15.7069 24.7914 15.8183 24.7877 15.9262 24.7855C16.0339 24.7834 16.1381 24.7824 16.2509 24.7805C16.364 24.7783 16.4856 24.7752 16.5797 24.7724C16.6738 24.7696 16.7406 24.7668 16.8106 24.7671C16.8807 24.7674 16.9544 24.7705 17.0577 24.7716C17.1609 24.7727 17.2938 24.7713 17.4593 24.759C17.6248 24.7468 17.8236 24.7233 17.997 24.7057C18.1709 24.688 18.3197 24.6757 18.4296 24.6654C18.5396 24.655 18.611 24.6461 18.6779 24.6379C18.7448 24.6295 18.8075 24.6211 18.8673 24.6133C18.9268 24.6053 18.9831 24.5974 19.026 24.5915C19.0689 24.5856 19.0982 24.5817 19.1365 24.5792C19.1746 24.5765 19.2215 24.5755 19.2677 24.5752C19.3144 24.5752 19.3603 24.5758 19.39 24.5739C19.4198 24.572 19.4337 24.5677 19.446 24.5649C19.4586 24.562 19.4695 24.5609 19.486 24.5537C19.5026 24.5464 19.5244 24.5332 19.5409 24.5061C19.5572 24.4792 19.5684 24.4387 19.5717 24.3786C19.5745 24.3191 19.57 24.2401 19.5647 24.15C19.5594 24.0602 19.5538 23.9588 19.5535 23.88C19.5532 23.8012 19.5583 23.7451 19.5628 23.6693C19.5678 23.5933 19.5723 23.4978 19.5697 23.425C19.5673 23.3525 19.558 23.3024 19.554 23.2571C19.5501 23.2117 19.5513 23.1712 19.5524 23.1325C19.5532 23.0942 19.5535 23.0578 19.5546 22.9946C19.5565 22.8572 19.5591 22.7198 19.5625 22.5825C19.5633 22.5425 19.5633 22.5273 19.567 22.5064C19.5702 22.4859 19.5771 22.4597 19.5788 22.4328C19.5804 22.4056 19.5771 22.3771 19.5774 22.3435C19.5777 22.3096 19.5816 22.2707 19.5872 22.2257C19.5928 22.1806 19.5998 22.1297 19.6029 22.0801C19.6061 22.0305 19.6054 21.9816 19.6013 21.9467C19.5971 21.9114 19.5895 21.8896 19.5778 21.8701C19.5696 21.8608 19.561 21.8519 19.552 21.8434C19.5371 21.8301 19.5325 21.8303 19.524 21.8288C19.5097 21.8277 19.4976 21.8342 19.4832 21.8504C19.4823 21.8557 19.4821 21.8608 19.4823 21.8669C19.4825 21.8757 19.4841 21.8845 19.4871 21.8927C19.4914 21.9058 19.4994 21.9252 19.5058 21.942C19.5123 21.9588 19.5168 21.9725 19.5198 21.9837C19.527 22.0141 19.5262 22.0352 19.5219 22.06C19.5129 22.0678 19.5027 22.0734 19.4758 22.0813C19.4492 22.0894 19.4059 22.0995 19.375 22.1088C19.3442 22.1181 19.3254 22.1264 19.3099 22.1346C19.2962 22.1416 19.2833 22.1499 19.2712 22.1594C19.2176 22.2031 19.199 22.2448 19.1817 22.2909C19.1651 22.3222 19.1507 22.3547 19.136 22.3965C19.1214 22.4383 19.1061 22.4899 19.0958 22.5322C19.0868 22.5682 19.0807 22.6049 19.0776 22.6419C19.0813 22.6763 19.0736 22.7091 19.0536 22.7414C19.0477 22.7513 19.0399 22.7614 19.0301 22.7734C19.0143 22.7918 18.9965 22.8085 18.977 22.823C18.9465 22.8467 18.8991 22.8803 18.8502 22.9117C18.8041 22.9368 18.7576 22.9554 18.7165 22.9629C18.6913 22.9674 18.6655 22.9684 18.6399 22.9661C18.5902 22.9625 18.5407 22.9566 18.4916 22.9482C18.4385 22.9409 18.3856 22.9329 18.3327 22.9241C18.301 22.9194 18.2695 22.914 18.2381 22.9079C18.1894 22.8989 18.1411 22.8887 18.093 22.8772C18.0678 22.8715 18.0434 22.8626 18.0205 22.8505C17.9888 22.8334 17.9599 22.8113 17.9352 22.785C17.9251 22.7666 17.9167 22.7472 17.9091 22.722C17.9014 22.6969 17.8945 22.6666 17.8883 22.6101C17.8822 22.5535 17.8771 22.4711 17.8691 22.4122C17.8613 22.3532 17.8509 22.3176 17.8397 22.2847C17.8285 22.2517 17.8168 22.2214 17.8031 22.1923C17.7687 22.1465 17.7559 22.0995 17.7615 22.0571C17.7628 22.0473 17.7652 22.0367 17.769 22.0241C17.7724 22.0115 17.7774 21.9972 17.7936 21.9698C17.8098 21.942 17.8375 21.9009 17.8565 21.8702C17.8755 21.8395 17.8859 21.8193 17.8931 21.8027C17.9076 21.7709 17.9137 21.7358 17.9107 21.7009C17.9182 21.6795 17.9199 21.6565 17.9155 21.6342C17.9131 21.6178 17.9084 21.6018 17.9016 21.5867C17.8917 21.5619 17.8739 21.524 17.861 21.4952C17.8482 21.4664 17.8408 21.4469 17.8362 21.4317C17.8325 21.4203 17.83 21.4085 17.8287 21.3965C17.825 21.3562 17.8326 21.3234 17.8729 21.2871C17.9124 21.2516 17.9263 21.2146 17.9268 21.1816C17.927 21.1723 17.9263 21.163 17.9247 21.1538C17.9218 21.1323 17.9084 21.0992 17.8892 21.0663C17.8877 21.0555 17.8869 21.0447 17.887 21.0338C17.8864 21.0125 17.8953 20.9845 17.9075 20.953C17.9178 20.9258 17.9267 20.8978 17.9374 20.8533C17.948 20.8085 17.9606 20.7469 17.9726 20.705C17.9846 20.663 17.9961 20.6412 18.0075 20.6218C18.0266 20.5864 18.0511 20.5543 18.0803 20.5266C18.0902 20.5115 18.0985 20.4954 18.1081 20.469C18.1179 20.4426 18.1291 20.4063 18.1395 20.3805C18.1501 20.3547 18.1599 20.3397 18.1707 20.3248C18.1817 20.3102 18.1934 20.296 18.206 20.2823C18.2038 20.225 18.2028 20.1674 18.2025 20.1197C18.2023 20.072 18.2031 20.0335 18.2054 20.0033C18.2077 19.9732 18.2118 19.9508 18.2185 19.9292C18.2196 19.9214 18.2213 19.9135 18.2239 19.9001C18.2461 19.8038 18.269 19.7077 18.2927 19.6117C18.305 19.5512 18.3151 19.4903 18.3218 19.4418C18.3287 19.3934 18.3321 19.357 18.3308 19.2946C18.3283 19.215 18.3226 19.1356 18.3137 19.0565C18.3054 19.0214 18.2877 18.9893 18.2625 18.9636C18.2436 18.9439 18.2202 18.9292 18.1942 18.9207C18.2883 18.8816 18.3814 18.8399 18.4732 18.7956C18.5138 18.7764 18.5471 18.7596 18.5759 18.7442C18.6 18.7315 18.6238 18.7181 18.647 18.7039C18.6839 18.6804 18.6985 18.6678 18.722 18.6401C18.7362 18.6229 18.7489 18.6045 18.7601 18.5852C18.7735 18.5631 18.7865 18.5369 18.7988 18.5057C18.8108 18.4747 18.822 18.4386 18.8304 18.402C18.8419 18.4286 18.8512 18.4559 18.8601 18.4943C18.8688 18.5324 18.8771 18.5813 18.8859 18.6191C18.8946 18.6569 18.904 18.6837 18.9158 18.7092C18.9488 18.729 18.9798 18.7412 19.0107 18.7479C19.0267 18.7513 19.044 18.7537 19.0835 18.7529C19.1229 18.7518 19.1848 18.7473 19.2464 18.7401C19.2603 18.7331 19.2736 18.7255 19.2867 18.7169C19.2995 18.7081 19.3118 18.6981 19.323 18.688C19.394 18.6206 19.4262 18.5445 19.3742 18.4751C19.3647 18.4637 19.3537 18.4536 19.3414 18.4452C19.288 18.3921 19.232 18.342 19.1873 18.3068C19.1425 18.2715 19.1091 18.2516 19.079 18.2358C19.0282 18.2085 18.9726 18.1916 18.9152 18.1862C18.8803 18.1874 18.8454 18.1909 18.8109 18.1966C18.7825 18.2007 18.7543 18.2055 18.7261 18.2108C18.6357 18.2247 18.5442 18.2329 18.4787 18.2343C18.4324 18.2361 18.386 18.2327 18.3405 18.2242C18.3133 18.2189 18.2867 18.2115 18.2607 18.202C18.241 18.1948 18.222 18.1855 18.2042 18.1743C18.1842 18.1632 18.1639 18.1529 18.1431 18.1433C18.0902 18.1187 18.0361 18.0967 17.9809 18.0775C17.8313 18.0327 17.6833 17.9824 17.5374 17.9267C17.4569 17.8963 17.3787 17.8601 17.3035 17.8184C17.256 17.7925 17.2101 17.7637 17.1661 17.7323C17.0855 17.6744 17.0093 17.6101 16.9481 17.549C16.887 17.488 16.8407 17.4298 16.8082 17.3823C16.7807 17.3444 16.7583 17.3031 16.7415 17.2594C16.7365 17.2429 16.7325 17.226 16.7298 17.209C16.7245 17.168 16.7222 17.1266 16.7228 17.0853C16.7181 17.0513 16.7156 17.0171 16.7153 16.9829C16.7148 16.9423 16.7167 16.8927 16.715 16.8586C16.7137 16.8245 16.7094 16.806 16.7022 16.7884C16.6949 16.7725 16.6867 16.757 16.6776 16.742C16.6629 16.717 16.6457 16.6935 16.6264 16.6718C16.5881 16.6262 16.5486 16.5816 16.508 16.538C16.4697 16.496 16.4425 16.4683 16.4123 16.4377C16.3482 16.3721 16.283 16.3075 16.2168 16.2441C16.0872 16.317 15.9572 16.3894 15.827 16.4612C15.7721 16.4917 15.725 16.5172 15.6895 16.5367C15.654 16.5563 15.6298 16.5692 15.6039 16.5832C15.5779 16.5974 15.55 16.6123 15.5083 16.6344C15.4667 16.6565 15.4112 16.6856 15.3504 16.7184C15.2897 16.7511 15.2234 16.7875 15.1582 16.8269C15.0929 16.8667 15.0287 16.9095 14.9853 16.9341C14.9419 16.959 14.9191 16.9654 14.8956 16.9669L14.8326 16.9803C14.8154 16.9837 14.8039 16.9859 14.7841 16.989C14.7642 16.9921 14.7358 16.9968 14.7074 17.0008C14.6356 17.0091 14.5642 17.0212 14.4888 17.0391C14.4134 17.057 14.3341 17.08 14.2755 17.0999C14.2298 17.1145 14.1855 17.133 14.143 17.1551C14.1075 17.1697 14.0716 17.1836 14.0439 17.1934C14.016 17.2033 13.9964 17.2094 13.9804 17.2139C13.9644 17.2184 13.9522 17.2217 13.9401 17.224C13.93 17.2268 13.9199 17.2293 13.8825 17.2371C13.8452 17.2449 13.7806 17.2579 13.7351 17.2676C13.6897 17.2773 13.6633 17.2833 13.635 17.2908C13.604 17.2993 13.5733 17.3089 13.543 17.3196C13.5091 17.3314 13.4716 17.346 13.4122 17.3767C13.3528 17.4074 13.2718 17.454 13.1927 17.5037C13.1471 17.5333 13.0995 17.5597 13.0562 17.5795C13.0129 17.5994 12.9738 17.6133 12.939 17.6229C12.9042 17.6325 12.8732 17.6378 12.8452 17.6408C12.8173 17.6435 12.7923 17.6435 12.7697 17.6416C12.7485 17.6399 12.7275 17.6363 12.707 17.6307C12.6711 17.6209 12.6374 17.6046 12.6073 17.5828C12.5749 17.5701 12.543 17.5563 12.5116 17.5414C12.4841 17.5283 12.4634 17.5168 12.4462 17.5053C12.429 17.4939 12.415 17.4824 12.4026 17.4704C12.3905 17.4589 12.3791 17.4467 12.3686 17.4338C12.3516 17.4071 12.3339 17.3809 12.3156 17.3551C12.3022 17.3358 12.2878 17.3172 12.2723 17.2994C12.2482 17.2712 12.2178 17.2492 12.1834 17.2351C12.1663 17.2283 12.1484 17.224 12.13 17.2222C12.1108 17.2194 12.0737 17.2222 12.0391 17.222C12.0236 17.2218 12.0081 17.2198 11.9931 17.2158C11.998 17.1979 12.0026 17.1795 12.0071 17.163C12.0115 17.1462 12.0156 17.1308 12.0177 17.119C12.0217 17.0978 12.0193 17.0759 12.0107 17.0561C12.0029 17.0361 11.9824 17.0135 11.9614 16.9987C11.9303 16.9749 11.8998 16.9503 11.8698 16.9251C11.8397 16.8997 11.8102 16.8742 11.788 16.8523C11.7691 16.834 11.7521 16.814 11.7372 16.7924C11.7316 16.7744 11.733 16.755 11.741 16.738C11.7449 16.7295 11.7497 16.7215 11.7552 16.714C11.7619 16.7044 11.7709 16.6927 11.8001 16.6676C11.8294 16.6422 11.8785 16.6035 11.9135 16.5736C11.9484 16.5437 11.9692 16.5227 11.9857 16.504C12.0301 16.4538 12.0526 16.4136 12.0691 16.3716C12.0772 16.3546 12.0844 16.3372 12.0919 16.3148C12.0996 16.2924 12.1075 16.265 12.1164 16.2418C12.1251 16.2186 12.1348 16.1996 12.1462 16.1818C12.1575 16.1769 12.1698 16.1746 12.1821 16.1751C12.1916 16.1749 12.2042 16.1757 12.2271 16.1794C12.2499 16.1828 12.2831 16.1892 12.3052 16.1925C12.3192 16.1947 12.3334 16.1953 12.3474 16.1941C12.3719 16.1935 12.3954 16.1845 12.4141 16.1687C12.428 16.1626 12.4413 16.1553 12.4873 16.1223C12.5334 16.0895 12.6125 16.0312 12.6731 15.9878C12.7338 15.9445 12.7761 15.9161 12.8089 15.894C12.8418 15.8718 12.8651 15.856 12.8808 15.8441C12.8923 15.8359 12.9031 15.8268 12.9132 15.8168C12.9307 15.7987 12.951 15.7793 12.9551 15.7619C12.9569 15.757 12.958 15.7518 12.9587 15.7466C12.96 15.7377 12.9603 15.7286 12.9598 15.7196C12.9594 15.7062 12.9577 15.6868 12.9573 15.674C12.9569 15.6527 12.9592 15.6464 12.9628 15.6356C12.9685 15.6215 12.9786 15.6096 12.9916 15.6017C13.0127 15.5994 13.0339 15.5993 13.0687 15.6036C13.1036 15.608 13.1519 15.6169 13.1884 15.6207C13.2525 15.6273 13.2837 15.6204 13.3275 15.6057C13.3464 15.5987 13.3667 15.5893 13.3954 15.5758L13.4981 15.5269C13.5222 15.5199 13.5461 15.5116 13.5669 15.5029C13.5875 15.4943 13.605 15.4854 13.626 15.4724C13.6469 15.4594 13.6715 15.4424 13.6948 15.4241C13.7183 15.4086 13.743 15.3947 13.7745 15.3794C13.8232 15.3563 13.8736 15.3366 13.9252 15.3207C14.0059 15.2942 14.1291 15.2579 14.2529 15.2248C14.3106 15.2068 14.3681 15.188 14.4157 15.1719C14.4637 15.1556 14.5019 15.142 14.5332 15.1303C14.5644 15.1187 14.5889 15.1092 14.613 15.0992C14.6561 15.0793 14.701 15.0629 14.7443 15.0514C14.7877 15.0401 14.8299 15.0333 14.8679 15.0305C14.9058 15.0278 14.94 15.029 14.97 15.0328C15.0002 15.0365 15.0263 15.0428 15.0512 15.052C15.063 15.0505 15.0744 15.0471 15.085 15.0419C15.0928 15.0381 15.1 15.0332 15.1063 15.0271C15.116 15.0184 15.1294 15.0042 15.14 14.9939C15.1673 14.9685 15.1826 14.9595 15.2019 14.9576C15.2158 14.9563 15.2298 14.9577 15.2431 14.9617C15.2531 14.9647 15.2658 14.9695 15.2846 14.9779C15.3036 14.9864 15.3286 14.9988 15.3459 15.0058C15.3633 15.0128 15.3728 15.0145 15.3814 15.0158C15.4249 15.0223 15.459 15.0109 15.4986 14.9793C15.503 14.9682 15.5057 14.9564 15.5067 14.9445C15.5079 14.9308 15.5079 14.9142 15.5045 14.8754C15.4994 14.8219 15.4932 14.7685 15.4856 14.7152C15.49 14.7181 15.4937 14.7219 15.4966 14.7263C15.5008 14.732 15.5063 14.7407 15.5165 14.7631C15.5269 14.7855 15.542 14.8215 15.554 14.846C15.5679 14.874 15.5858 14.8999 15.607 14.9228C15.63 14.9467 15.6518 14.9609 15.6741 14.9715C15.7043 14.9736 15.7347 14.973 15.7596 14.9704C15.7963 14.9668 15.832 14.9564 15.865 14.9397C15.8777 14.9332 15.8889 14.9261 15.8989 14.9184C15.9475 14.8807 15.9667 14.843 15.982 14.8034C15.9835 14.7913 15.9814 14.779 15.9759 14.7681C15.9715 14.7589 15.9664 14.7501 15.9606 14.7418C15.9517 14.7285 15.9376 14.7091 15.9283 14.6947C15.9213 14.6845 15.9154 14.6736 15.9107 14.6621C15.9126 14.6609 15.9148 14.6602 15.9251 14.6594C15.9354 14.6585 15.9539 14.6573 15.9674 14.6558C15.9809 14.6543 15.989 14.6523 15.9958 14.6504C16.0142 14.6448 16.0319 14.6371 16.0446 14.6189C16.0509 14.6093 16.0546 14.5981 16.0553 14.5866C16.0626 14.5571 16.0679 14.5271 16.0712 14.4969C16.0748 14.4634 16.0728 14.4296 16.0652 14.3968C16.0604 14.3763 16.0524 14.3568 16.0416 14.3389C16.0017 14.2694 15.9658 14.1978 15.9342 14.1242C15.9062 14.0608 15.891 13.9925 15.8893 13.9232C15.8886 13.8809 15.8952 13.8388 15.9087 13.7987C15.922 13.7809 15.9402 13.7673 15.961 13.7595C15.9756 13.7535 15.9984 13.7453 16.0218 13.7382C16.0239 13.7326 16.0248 13.726 16.0197 13.7216C16.0137 13.7148 15.9735 13.7062 15.9529 13.6818C15.9482 13.6768 15.9438 13.6715 15.94 13.6658C15.9426 13.6617 15.9459 13.6581 15.9496 13.655C15.9556 13.6503 15.9621 13.6464 15.9692 13.6437C15.9897 13.6351 16.0233 13.6224 16.0463 13.6043C16.057 13.5967 16.068 13.5884 16.0784 13.5795C16.0795 13.5729 16.0791 13.5661 16.0773 13.5597C16.0758 13.5534 16.0735 13.5473 16.0705 13.5415C16.0643 13.5293 16.0576 13.5174 16.0506 13.5057C16.0425 13.4925 16.0348 13.479 16.0275 13.4653C16.0185 13.4474 16.0183 13.4414 16.0168 13.4316C16.0156 13.4147 16.0192 13.401 16.0381 13.3856C16.0502 13.3714 16.0627 13.3574 16.0721 13.3473C16.081 13.3375 16.0905 13.3282 16.1005 13.3195C16.1134 13.3083 16.1322 13.2924 16.1702 13.2614C16.208 13.2304 16.2648 13.1843 16.3014 13.154C16.3383 13.1238 16.3548 13.1096 16.3681 13.0977C16.3814 13.0861 16.3918 13.0767 16.4201 13.0513C16.4484 13.0259 16.4948 12.9845 16.5259 12.9577C16.5563 12.9314 16.5881 12.9069 16.6214 12.8844C16.6267 12.8777 16.6334 12.8721 16.6558 12.8612C16.6784 12.8501 16.7165 12.8337 16.7462 12.8194C16.7758 12.8051 16.7968 12.7928 16.8136 12.7814C16.8304 12.7701 16.8433 12.7599 16.8545 12.7496C16.89 12.7175 16.9107 12.6867 16.9273 12.6553C16.9406 12.6258 16.9468 12.5813 16.9583 12.537C16.9647 12.5142 16.9729 12.4939 16.9831 12.4745C16.9901 12.4704 16.9982 12.4683 17.0063 12.4685C17.0129 12.4683 17.0194 12.469 17.0258 12.4704C17.0362 12.4724 17.0522 12.4762 17.0639 12.4788C17.0754 12.4814 17.0829 12.4824 17.0888 12.4829C17.1045 12.4838 17.1146 12.4828 17.1261 12.4717C17.1331 12.4639 17.1377 12.4543 17.1395 12.444C17.147 12.4168 17.1528 12.3893 17.1552 12.3692C17.1576 12.3491 17.1565 12.3367 17.1552 12.326C17.1522 12.2945 17.1373 12.2653 17.1135 12.2445C17.0951 12.2291 17.0737 12.2177 17.0506 12.2111C16.9588 12.1802 16.8677 12.1476 16.7772 12.1133C16.6689 12.0722 16.5348 12.0193 16.443 11.9872C16.3513 11.9553 16.3025 11.9444 16.2525 11.9385C16.2281 11.9308 16.2043 11.9211 16.1814 11.9097C16.1344 11.8869 16.0792 11.8467 16.0241 11.794C16.0197 11.7903 16.0156 11.7864 16.0066 11.7779C15.9979 11.7693 15.9841 11.756 15.9471 11.719C15.8944 11.6663 15.8417 11.6134 15.7892 11.5605C15.7526 11.5265 15.7161 11.4922 15.6891 11.4665C15.6691 11.4477 15.6493 11.4286 15.6298 11.4092C15.6166 11.396 15.6038 11.3824 15.5913 11.3685C15.5718 11.3447 15.5545 11.3193 15.5394 11.2924C15.5256 11.2677 15.5164 11.2448 15.5049 11.2119C15.4934 11.179 15.4799 11.1362 15.4677 11.0929C15.4488 11.0481 15.4266 11.0048 15.4014 10.9632C15.3693 10.9102 15.3323 10.8604 15.2908 10.8145C15.2227 10.7382 15.1509 10.6653 15.0757 10.596C15.0005 10.5295 14.9264 10.4617 14.8535 10.3927C14.7986 10.3401 14.7713 10.3113 14.7501 10.2875C14.729 10.2638 14.7134 10.2449 14.6989 10.2255C14.6815 10.2071 14.6673 10.1857 14.6571 10.1624C14.6416 10.1306 14.6227 10.0834 14.607 10.0499C14.5963 10.0253 14.5831 10.0019 14.5676 9.98C14.5567 9.96498 14.5444 9.95099 14.531 9.93821C14.5178 9.92577 14.5037 9.91435 14.4888 9.90407C14.4725 9.89279 14.4555 9.88257 14.4378 9.87348C14.4117 9.86696 14.3862 9.85847 14.3614 9.84808C14.3317 9.8355 14.3049 9.81712 14.2824 9.79401C14.2622 9.77301 14.2452 9.74913 14.2321 9.72314C14.2067 9.69147 14.1765 9.66408 14.1425 9.64202C14.1083 9.62071 14.0705 9.60586 14.0309 9.59819C14.002 9.59237 13.9725 9.59008 13.9431 9.59136C13.904 9.59245 13.8516 9.59791 13.7999 9.60693C13.7876 9.60174 13.7761 9.59505 13.7656 9.58699C13.7496 9.57491 13.7343 9.56182 13.72 9.5478C13.7019 9.53073 13.6806 9.50915 13.6652 9.49604C13.636 9.47174 13.6234 9.47119 13.6044 9.46477C13.5704 9.43425 13.5316 9.40957 13.4895 9.39171C13.4639 9.38055 13.4367 9.37341 13.4089 9.37055C13.3575 9.36499 13.3057 9.36312 13.254 9.36495C13.221 9.36604 13.1879 9.36686 13.1333 9.36754C13.0787 9.36823 13.0025 9.36891 12.9492 9.36973C12.8959 9.37041 12.8655 9.37123 12.8261 9.37273C12.7866 9.37424 12.7381 9.37642 12.7055 9.37779C12.6746 9.37899 12.6438 9.37995 12.6129 9.38065C12.5846 9.38079 12.5564 9.37942 12.5337 9.37738C12.511 9.37533 12.4938 9.37205 12.4724 9.36659C12.4479 9.35999 12.4237 9.35219 12.3999 9.34324C12.3776 9.33725 12.3548 9.33314 12.3319 9.33095C12.3033 9.3284 12.2745 9.3295 12.2463 9.33422C12.1943 9.34214 12.1428 9.35267 12.0919 9.36577C12.0436 9.37355 11.9949 9.3786 11.9572 9.37997C11.9195 9.38134 11.8929 9.37956 11.8649 9.37601C11.8369 9.37246 11.8075 9.36727 11.7784 9.36031C11.6781 9.32564 11.5761 9.29615 11.4728 9.27195C11.3795 9.24974 11.2833 9.24283 11.1878 9.25147C11.0938 9.25804 10.9996 9.26087 10.9054 9.25994C10.8343 9.25857 10.7975 9.25311 10.7682 9.2471C10.7442 9.24251 10.7206 9.23612 10.6976 9.22798C10.6811 9.22211 10.6651 9.21475 10.6499 9.206C10.6374 9.19902 10.6257 9.19083 10.6148 9.18155C10.5906 9.16818 10.5656 9.15615 10.54 9.1455C10.5267 9.13981 10.5127 9.13578 10.4983 9.13349C10.4833 9.13053 10.4679 9.13044 10.4529 9.13321C10.4055 9.14496 10.3573 9.15329 10.3136 9.15752C10.2747 9.16127 10.2356 9.16196 10.1967 9.15957C10.1652 9.15778 10.1339 9.15349 10.1032 9.14673C10.0731 9.1416 10.043 9.1359 10.0132 9.12966C9.99131 9.12516 9.96359 9.11928 9.89845 9.10481C9.83304 9.09047 9.73022 9.06767 9.65702 9.05183C9.57253 9.03345 9.48772 9.0166 9.40262 9.0013C9.28211 8.97994 9.1603 8.96675 9.03802 8.96184C8.9412 8.95938 8.88289 8.96825 8.82622 8.98109C8.76955 8.99393 8.71492 9.01045 8.66194 9.03148C8.54819 9.09184 8.43157 9.14701 8.34977 9.18046C8.26798 9.21392 8.22128 9.2258 8.18413 9.23345C8.15382 9.24018 8.12298 9.24424 8.09196 9.2456C8.0692 9.24836 8.04632 9.25009 8.02341 9.25079C7.99336 9.25188 7.95267 9.25256 7.88576 9.25065C7.81885 9.24847 7.72585 9.24369 7.66153 9.23973C7.57046 9.23445 7.4796 9.22603 7.3891 9.21446C7.36563 9.21091 7.34218 9.20713 7.31878 9.20313C7.29552 9.19917 7.27239 9.19453 7.24941 9.1892C7.21712 9.1817 7.18498 9.1736 7.153 9.16489C7.10427 9.1502 7.05445 9.13938 7.00402 9.13253C6.96143 9.12695 6.91844 9.12494 6.87552 9.12652C6.84474 9.12753 6.81412 9.13132 6.78403 9.13786C6.76264 9.1425 6.74174 9.14918 6.72162 9.15779C6.70576 9.16442 6.69069 9.1728 6.67669 9.18278C6.6618 9.18588 6.64723 9.19032 6.63313 9.19603C6.61017 9.20559 6.5892 9.21935 6.57127 9.23659C6.56294 9.24455 6.55523 9.25313 6.54819 9.26226C6.48499 9.34712 6.42571 9.43484 6.37053 9.52513C6.32424 9.60187 6.29557 9.66046 6.27658 9.70333C6.2576 9.74621 6.24832 9.77366 6.24204 9.80166C6.23311 9.82866 6.22657 9.8564 6.22251 9.88454C6.21837 9.91417 6.21645 9.94407 6.21677 9.97399C6.21691 10.0062 6.21909 10.042 6.23439 10.1069C6.24968 10.1717 6.27809 10.2659 6.31141 10.358C6.30953 10.3734 6.30239 10.3877 6.2912 10.3984C6.28751 10.4022 6.28287 10.4066 6.2718 10.4137C6.26074 10.4208 6.24285 10.4308 6.23002 10.4383C6.22101 10.4436 6.2123 10.4494 6.20394 10.4556C6.1855 10.4709 6.181 10.4827 6.1784 10.4955C6.17271 10.506 6.16796 10.517 6.1642 10.5284C6.15819 10.5448 6.14986 10.5694 6.13921 10.6077C6.12638 10.6553 6.11468 10.7031 6.10411 10.7511C6.09343 10.7824 6.08696 10.815 6.08486 10.8479C6.08117 10.8911 6.07994 10.95 6.07694 10.9896C6.07577 11.0153 6.07141 11.0409 6.06397 11.0656C6.05473 11.0952 6.03937 11.1225 6.0189 11.1458C5.9948 11.1783 5.97637 11.2146 5.96442 11.2532C5.95546 11.2834 5.94992 11.3144 5.94789 11.3458C5.94393 11.3917 5.94161 11.4584 5.93697 11.5061C5.93233 11.5539 5.9255 11.5832 5.91539 11.6114C5.89393 11.6826 5.87535 11.7546 5.85968 11.8273C5.85079 11.8663 5.84558 11.9059 5.84411 11.9459C5.84343 11.9739 5.8452 11.9964 5.84848 12.0163C5.85574 12.067 5.8765 12.1148 5.90857 12.1547C5.90761 12.162 5.90119 12.1734 5.89518 12.1753C5.89232 12.1775 5.87852 12.1803 5.86651 12.1837C5.85641 12.1868 5.84741 12.1928 5.84056 12.2008C5.82322 12.221 5.81694 12.2407 5.8097 12.2632C5.81462 12.3111 5.81503 12.3593 5.80997 12.42C5.79717 12.5618 5.76756 12.7016 5.72176 12.8365C5.71944 12.8529 5.71793 12.8695 5.71698 12.8839C5.71616 12.8982 5.71616 12.9104 5.71998 12.927C5.72831 12.9603 5.74484 13.004 5.74989 13.0405C5.75112 13.0505 5.75207 13.0604 5.75248 13.0708C5.75303 13.081 5.75317 13.0916 5.75125 13.1084C5.74877 13.1294 5.74531 13.1504 5.74088 13.1712C5.72777 13.2247 5.71507 13.2784 5.70469 13.3233C5.69431 13.3681 5.68653 13.4043 5.68024 13.4343C5.66727 13.4969 5.66113 13.534 5.65375 13.5826C5.64426 13.6476 5.63671 13.7128 5.63109 13.7782C5.6274 13.8212 5.62412 13.8716 5.62262 13.9079C5.62112 13.9444 5.6218 13.9669 5.62275 13.9876C5.62439 14.0309 5.63081 14.0653 5.63887 14.1043C5.64693 14.142 5.65553 14.1817 5.65075 14.2165C5.64601 14.2161 5.64134 14.2151 5.63682 14.2136C5.6289 14.2115 5.6162 14.2074 5.6076 14.2052C5.59699 14.2017 5.58562 14.2014 5.57482 14.2042C5.5568 14.2098 5.55366 14.2287 5.55325 14.2414C5.55325 14.2444 5.55325 14.2476 5.55352 14.2509C5.55257 14.2583 5.55216 14.2655 5.55188 14.2777C5.55183 14.303 5.5531 14.3283 5.55571 14.3535C5.55967 14.4002 5.56759 14.4767 5.57783 14.5687C5.58807 14.6609 5.60063 14.7685 5.6091 14.8477C5.61757 14.9269 5.62166 14.9777 5.62508 15.0242C5.62835 15.0708 5.63081 15.1134 5.63436 15.1646C5.63791 15.216 5.64283 15.2756 5.64788 15.3151C5.65293 15.3546 5.65826 15.3736 5.66399 15.3893C5.66959 15.4051 5.67533 15.4179 5.68175 15.4294C5.69786 15.4596 5.7279 15.4896 5.75631 15.5075C5.7702 15.5159 5.78674 15.5186 5.8026 15.5153C5.80779 15.5142 5.81352 15.5127 5.82103 15.51C5.82854 15.5072 5.8381 15.5031 5.85531 15.4929C5.87265 15.4825 5.89792 15.4659 5.91512 15.4558C5.93233 15.4457 5.94134 15.4418 5.94871 15.4392C5.98162 15.4276 6.00702 15.4302 6.03365 15.459C6.05646 15.4903 6.07926 15.5227 6.09674 15.5578C6.12459 15.6141 6.14146 15.6751 6.14645 15.7377C6.14986 15.7782 6.14986 15.8275 6.14249 15.9142C6.13218 16.0259 6.11829 16.1373 6.10084 16.2482C6.09169 16.3245 6.08281 16.4007 6.07475 16.4717C6.06763 16.5329 6.06112 16.5942 6.05523 16.6555C6.05173 16.6897 6.04995 16.7239 6.0499 16.7582C6.04963 16.7756 6.04881 16.7929 6.04649 16.8223C6.04417 16.8516 6.04034 16.893 6.03065 16.9799C6.02095 17.0666 6.00566 17.1983 5.99255 17.3036C5.97944 17.4088 5.96879 17.4872 5.95868 17.5429C5.94731 17.6094 5.92886 17.6746 5.90365 17.7372C5.87537 17.792 5.85198 17.8492 5.83373 17.9082C5.79959 18.0201 5.78594 18.1284 5.79154 18.2344C5.7914 18.2763 5.79086 18.3181 5.79031 18.348C5.78976 18.3779 5.78908 18.3958 5.78799 18.4155C5.78703 18.4357 5.7858 18.4577 5.78444 18.4801C5.77816 18.5344 5.7746 18.5892 5.77324 18.662C5.77187 18.7345 5.77256 18.8251 5.77993 18.9396C5.7873 19.054 5.8011 19.1925 5.80984 19.2754C5.81858 19.3585 5.82199 19.3868 5.82568 19.4181C5.82923 19.4491 5.83291 19.4829 5.83906 19.5522C5.8452 19.6214 5.85408 19.726 5.85995 19.794C5.86784 19.895 5.8775 19.9958 5.8889 20.0965C5.89832 20.181 5.91307 20.3066 5.92195 20.3925C5.93516 20.5075 5.94055 20.6233 5.93806 20.739C5.93697 20.7989 5.93356 20.8654 5.92973 20.9267C5.92878 20.9898 5.92427 21.0468 5.9214 21.0854Z" fill="#343470"/>
<path fill-rule="evenodd" clip-rule="evenodd" d="M17.6568 12.4767C17.4413 12.5821 17.3188 12.6661 17.1922 12.755C17.0655 12.8439 16.9342 12.9379 16.7691 13.2192C16.6041 13.5005 16.4054 13.969 16.2937 14.3204C16.182 14.6717 16.1574 14.9056 16.1473 15.0609C16.1374 15.2163 16.1419 15.293 16.1579 15.3679C16.0429 15.2162 15.8651 15.1174 15.6206 15.1124C15.376 15.1075 15.0648 15.1962 14.8122 15.2813C14.5597 15.3665 14.3658 15.4476 14.1205 15.5521C13.8616 15.6623 13.6031 15.7734 13.345 15.8856C13.1118 15.9872 12.942 16.0625 12.7739 16.1464C12.6058 16.2301 12.4392 16.3221 12.3529 16.3996C12.2666 16.4766 12.2603 16.539 12.2608 16.6049C12.2612 16.671 12.2683 16.7409 12.2908 16.8053C12.3135 16.8699 12.3516 16.9284 12.4166 16.9802C12.4816 17.0319 12.5733 17.077 12.6667 17.1187C12.7601 17.1603 12.8551 17.199 12.9497 17.2065C13.0443 17.214 13.1387 17.1905 13.2285 17.1665C13.3346 17.1391 13.4387 17.1046 13.5402 17.0632C13.6764 17.0086 13.8635 16.9238 14.069 16.812C14.2744 16.7 14.4982 16.5607 14.7515 16.4591C15.0047 16.3575 15.2872 16.2937 15.5053 16.2177C15.7235 16.1415 15.877 16.053 15.9894 15.9525C16.1018 15.8518 16.1735 15.739 16.2124 15.615C16.2636 15.7898 16.3283 15.9603 16.4058 16.1251C16.468 16.2568 16.542 16.3827 16.6269 16.5012C16.6976 16.5974 16.761 16.6634 16.8376 16.7486C16.9139 16.8339 17.0032 16.9388 17.097 17.0273C17.1854 17.1106 17.2826 17.1841 17.3869 17.2463C17.4851 17.3048 17.5833 17.349 17.6693 17.408C17.7558 17.467 17.8302 17.5403 17.9539 17.6044C18.0774 17.6687 18.2502 17.7231 18.4254 17.7796C18.6006 17.8361 18.7786 17.8943 18.9402 17.9164C19.1019 17.9383 19.2475 17.9239 19.3838 17.9025C19.5201 17.881 19.6471 17.8529 19.7489 17.8308C19.8505 17.8087 19.9274 17.7927 20.0173 17.7681C20.1068 17.7435 20.2098 17.7105 20.3077 17.6769C20.4111 17.6421 20.5126 17.602 20.6118 17.5566C20.7254 17.504 20.8601 17.4337 21.0007 17.3713C21.1415 17.3086 21.2882 17.2543 21.3998 17.1701C21.5112 17.0864 21.587 16.9731 21.6644 16.8573C21.7417 16.7412 21.8205 16.6225 21.8757 16.5033C21.9311 16.3841 21.9632 16.2646 21.9917 16.1337C22.0208 16.0029 22.0463 15.8606 22.0728 15.7221C22.0989 15.5836 22.126 15.4491 22.1456 15.346C22.1654 15.2429 22.1778 15.1712 22.1963 15.1016C22.2147 15.0319 22.2392 14.9648 22.2321 14.8156C22.2248 14.6665 22.1856 14.4359 22.1555 14.2036C22.1253 13.9716 22.1042 13.7379 22.036 13.5391C21.9677 13.3403 21.8519 13.1761 21.6636 12.9925C21.4753 12.8088 21.2142 12.6056 20.9816 12.4711C20.7488 12.3365 20.5437 12.2704 20.3346 12.2189C20.1258 12.1675 19.9124 12.1305 19.6043 12.1159C19.2963 12.1016 18.8933 12.1092 18.5373 12.1767C18.1811 12.2442 17.8722 12.3713 17.6568 12.4767ZM26.367 13.5782C26.2659 13.6186 26.1146 13.7022 25.9536 13.7724C25.7922 13.8424 25.6215 13.8989 25.2916 14.0083C24.9617 14.1174 24.4728 14.2794 24.1045 14.4172C23.736 14.5551 23.4881 14.6687 23.295 14.7392C23.1019 14.8098 22.9637 14.8369 22.8819 14.8602C22.8003 14.8832 22.775 14.9024 22.7417 14.9157C22.7084 14.9291 22.6667 14.9372 22.6264 14.9736C22.5862 15.0101 22.547 15.075 22.5136 15.1391C22.4806 15.2032 22.4534 15.2665 22.4646 15.3489C22.4761 15.4312 22.5259 15.5326 22.5646 15.6411C22.6035 15.7495 22.6312 15.8653 22.6857 15.9342C22.7403 16.003 22.822 16.0248 22.886 16.0427C22.9503 16.0606 22.9972 16.0744 23.0738 16.0609C23.1504 16.0475 23.2568 16.0068 23.3674 15.9682C23.4779 15.9295 23.5927 15.8929 23.8806 15.7719C24.168 15.6511 24.6288 15.4461 24.9711 15.3085C25.3133 15.171 25.5368 15.1009 25.7753 15.0179C26.0137 14.9349 26.2663 14.8387 26.4516 14.7683C26.6372 14.6978 26.7552 14.6533 26.9344 14.6047C27.1135 14.5562 27.3536 14.5037 27.5105 14.4583C27.6674 14.4128 27.741 14.3743 27.8071 14.327C27.8732 14.2798 27.9324 14.2239 27.9639 14.1604C27.9955 14.0969 28.0002 14.0257 28.0005 13.9538C28.0007 13.8819 27.9973 13.8094 27.9652 13.7547C27.933 13.7001 27.8718 13.6635 27.8049 13.6294C27.738 13.5952 27.6652 13.5637 27.5388 13.5384C27.4123 13.5132 27.2329 13.4943 27.0848 13.5017C26.9371 13.5091 26.821 13.5424 26.7407 13.5539C26.6604 13.5651 26.6154 13.5541 26.5673 13.5473C26.5192 13.5405 26.4683 13.5377 26.367 13.5782ZM21.5897 18.1977C21.5894 18.318 21.6428 18.4306 21.6961 18.5248C21.7497 18.6187 21.8036 18.6941 21.9353 18.8006C22.0671 18.9073 22.2767 19.0449 22.4805 19.1935C22.6839 19.3423 22.8817 19.5018 23.2486 19.7811C23.6158 20.0603 24.1524 20.4591 24.4963 20.6933C24.8399 20.9269 24.9908 20.996 25.1471 21.0635C25.3032 21.1312 25.465 21.1976 25.5805 21.2188C25.6963 21.2398 25.7656 21.2156 25.8294 21.1897C25.8931 21.1636 25.9516 21.1357 26 21.0957C26.0484 21.0554 26.0873 21.0029 26.1011 20.9234C26.1149 20.8439 26.1038 20.7375 26.0737 20.6478C26.0432 20.5582 25.9939 20.4852 25.8702 20.3433C25.7465 20.2014 25.5483 19.9907 25.3173 19.7881C25.0861 19.5851 24.822 19.3901 24.5237 19.1973C24.2252 19.0042 23.8927 18.8135 23.5748 18.6103C23.2569 18.4071 22.9536 18.1919 22.7342 18.0374C22.5145 17.8832 22.3785 17.7901 22.2764 17.7198C22.1968 17.6648 22.1178 17.609 22.0394 17.5522C21.9154 17.623 21.8081 17.7196 21.7246 17.8354C21.6432 17.9486 21.59 18.0769 21.5897 18.1977ZM18.6558 19.7169C18.5907 19.9581 18.5347 20.2016 18.4878 20.4469C18.4444 20.68 18.4232 20.8656 18.3815 21.0698C18.3393 21.2732 18.2769 21.4954 18.2457 21.6303C18.2147 21.7652 18.2153 21.8133 18.2054 21.8559C18.1953 21.8984 18.175 21.9354 18.1758 21.9835C18.1766 22.0315 18.1985 22.0904 18.2211 22.151C18.2441 22.2115 18.2676 22.2739 18.3177 22.3183C18.3678 22.3627 18.4444 22.3888 18.5063 22.4084C18.5681 22.4284 18.6154 22.4417 18.6742 22.4351C18.7455 22.4261 18.8117 22.3934 18.862 22.3422C18.9204 22.2835 18.9669 22.1925 19.0089 22.1107C19.0514 22.0285 19.0892 21.9549 19.125 21.8555C19.1608 21.7556 19.1941 21.6297 19.2414 21.4618C19.2886 21.2943 19.3494 21.0852 19.4213 20.8857C19.4933 20.6865 19.5766 20.4971 19.6091 20.3613C19.6419 20.2259 19.6243 20.1439 19.6349 20.0569C19.6453 19.9697 19.6839 19.8775 19.689 19.7577C19.694 19.638 19.6655 19.491 19.635 19.3931C19.6046 19.2947 19.5724 19.2454 19.506 19.2081C19.4396 19.1705 19.339 19.1451 19.2187 19.1462C19.0984 19.1476 18.9581 19.1753 18.8621 19.2641C18.7663 19.3523 18.7145 19.5017 18.6558 19.7169Z" fill="#F0D641"/>
<path fill-rule="evenodd" clip-rule="evenodd" d="M15.058 8.03413C15.0173 8.06827 14.9823 8.13082 14.9552 8.20196C14.928 8.27311 14.9084 8.35313 14.914 8.42769C14.9196 8.50225 14.9501 8.57135 15.0075 8.62337C15.0648 8.67527 15.1491 8.71009 15.2266 8.75338C15.3042 8.79666 15.3755 8.84842 15.4876 8.88898C15.5998 8.92953 15.7529 8.95876 15.8619 8.96039C15.9709 8.9619 16.0354 8.93581 16.0899 8.90427C16.1443 8.87273 16.1884 8.83572 16.2363 8.82862C16.2842 8.82152 16.3359 8.84459 16.4132 8.86453C16.4904 8.88433 16.5937 8.90099 16.6729 8.9085C16.7521 8.91601 16.8073 8.91438 16.8724 8.89853C16.9373 8.88269 17.0117 8.85252 17.0688 8.82848C17.1256 8.80445 17.1653 8.7867 17.2056 8.79434C17.2459 8.80199 17.287 8.83531 17.3329 8.86112C17.379 8.88706 17.43 8.90577 17.4985 8.91451C17.5668 8.92311 17.6521 8.92175 17.7476 8.91137C17.8428 8.90113 17.9482 8.88201 18.1167 8.87737C18.2849 8.87273 18.5168 8.88269 18.6592 8.89157C18.8017 8.90045 18.855 8.90864 18.9121 8.90946C18.9689 8.91028 19.0297 8.90372 19.0921 8.92666C19.1545 8.94961 19.2188 9.00204 19.2653 9.06937C19.312 9.13655 19.3408 9.21889 19.3341 9.2772C19.3274 9.33551 19.2848 9.36993 19.2541 9.41294C19.2231 9.45596 19.2037 9.50771 19.2023 9.60426C19.2007 9.70066 19.2166 9.84186 19.2239 10.0027C19.2311 10.1636 19.2292 10.3444 19.2292 10.482C19.2292 10.6197 19.2311 10.7142 19.2287 10.7937C19.2259 10.87 19.2195 10.9461 19.2094 11.0218C19.1982 11.1173 19.1842 11.2124 19.1675 11.3071C19.1501 11.4028 19.1291 11.4894 19.1205 11.5559C19.112 11.6224 19.1157 11.669 19.1043 11.7181C19.0925 11.7674 19.0659 11.8197 19.0677 11.8596C19.0698 11.8995 19.1007 11.9271 19.1426 11.9448C19.1843 11.9626 19.2373 11.9705 19.2926 11.9682C19.3489 11.9662 19.4044 11.9543 19.4566 11.9331C19.5078 11.9119 19.5523 11.8816 19.6083 11.8796C19.664 11.8776 19.7309 11.9043 19.8243 11.9115C19.9175 11.9189 20.0367 11.9073 20.122 11.8973C20.2071 11.8875 20.2586 11.8796 20.3087 11.8689C20.3588 11.8582 20.4077 11.8449 20.4324 11.8075C20.4575 11.7702 20.4582 11.7089 20.4478 11.6556C20.4375 11.6021 20.4159 11.5565 20.4224 11.514C20.4289 11.4714 20.4633 11.4319 20.4947 11.3858C20.5261 11.3396 20.5546 11.2869 20.561 11.1338C20.5669 10.9806 20.5507 10.7272 20.5359 10.5184C20.5212 10.3096 20.5085 10.1453 20.4911 10.0382C20.4738 9.93117 20.4525 9.88133 20.4274 9.79284C20.4022 9.70435 20.374 9.57722 20.3569 9.39874C20.3403 9.21525 20.3341 9.03097 20.3385 8.84678C20.3432 8.70285 20.3587 8.64454 20.327 8.56698C20.2956 8.48941 20.2168 8.39246 20.1342 8.29974C20.0517 8.20715 19.9657 8.1188 19.853 8.06063C19.7405 8.00245 19.6017 7.97446 19.4228 7.95725C19.2438 7.93991 19.0249 7.93336 18.8953 7.9593C18.7657 7.98525 18.7257 8.04383 18.6703 8.06022C18.6154 8.0766 18.5449 8.05066 18.4679 8.02198C18.3906 7.9933 18.3062 7.96203 18.2298 7.95179C18.159 7.94209 18.0869 7.95046 18.0201 7.9761C17.9564 8 17.8982 8.03687 17.8307 8.03837C17.7633 8.03987 17.6864 8.006 17.6102 7.97296C17.5341 7.93991 17.4585 7.90768 17.3712 7.90263C17.284 7.89744 17.1854 7.91915 16.9963 7.9421C16.8071 7.96476 16.5276 7.98852 16.3132 7.97473C16.0991 7.96094 15.95 7.9096 15.7982 7.91574C15.6465 7.92189 15.4921 7.98552 15.3905 8.0071C15.2889 8.02867 15.2403 8.00819 15.1928 8.00095C15.1452 7.99426 15.0988 8 15.058 8.03413Z" fill="black"/>
<path fill-rule="evenodd" clip-rule="evenodd" d="M16.7459 9.1255C16.7025 9.13656 16.6614 9.16728 16.623 9.20675C16.5844 9.24635 16.5486 9.29469 16.547 9.36666C16.545 9.43862 16.5774 9.53421 16.618 9.62775C16.6585 9.72129 16.7075 9.81278 16.7297 9.88024C16.7515 9.9477 16.7465 9.99113 16.7448 10.0365C16.7432 10.0818 16.7451 10.1289 16.7768 10.1824C16.8085 10.236 16.8707 10.2959 16.9176 10.3481C16.9645 10.4004 16.9968 10.445 17.0354 10.5203C17.0743 10.5953 17.1199 10.7008 17.1683 10.7751C17.2168 10.8494 17.268 10.8925 17.3152 10.9405C17.3625 10.9884 17.4053 11.0412 17.454 11.0692C17.5023 11.0972 17.5558 11.1004 17.6103 11.103C17.6647 11.1056 17.7197 11.1075 17.7667 11.1412C17.8136 11.1749 17.8528 11.2405 17.8952 11.3064C17.9375 11.3724 17.9834 11.4389 18.0136 11.5316C18.0437 11.6242 18.0584 11.743 18.1072 11.8077C18.156 11.8725 18.2393 11.8828 18.2979 11.8917C18.3566 11.9006 18.391 11.908 18.4254 11.9233C18.4598 11.9384 18.4945 11.9615 18.5337 11.9499C18.5729 11.9383 18.6163 11.8921 18.6705 11.8536C18.7285 11.8128 18.7934 11.7828 18.862 11.7649C18.938 11.745 19.0166 11.7371 19.0951 11.7412C19.1175 11.5965 19.1399 11.4517 19.1597 11.3286C19.1795 11.2054 19.1965 11.1036 19.2082 11.0206C19.2202 10.9377 19.2269 10.8734 19.2297 10.7037C19.2326 10.5338 19.2322 10.2585 19.2281 10.0914C19.2244 9.92421 19.2174 9.86509 19.2118 9.80637C19.2065 9.74751 19.2028 9.68893 19.1996 9.63021C19.1692 9.57661 19.1413 9.52161 19.1161 9.46539C19.0848 9.39656 19.0487 9.30712 19.0089 9.254C18.9692 9.20074 18.9263 9.18367 18.8833 9.16387C18.8407 9.14393 18.7977 9.12126 18.7499 9.12577C18.7024 9.13041 18.6499 9.1625 18.5904 9.1849C18.5308 9.20743 18.4647 9.2204 18.3853 9.21453C18.3055 9.20866 18.2124 9.18394 18.1021 9.17602C17.9913 9.16797 17.8631 9.17657 17.7313 9.15568C17.5995 9.13465 17.4643 9.08398 17.3373 9.08398C17.2101 9.08385 17.0914 9.13451 17.0164 9.1509C16.9415 9.16728 16.9106 9.1498 16.8724 9.1367C16.8344 9.12331 16.7891 9.11457 16.7459 9.1255Z" fill="#36378D"/>
</g>
<defs>
<clipPath id="clip0_1148_2856">
<rect width="24" height="24" fill="white" transform="translate(4 4)"/>
</clipPath>
</defs>
</svg>
