<svg width="24" height="24" viewBox="0 0 24 24" fill="none" xmlns="http://www.w3.org/2000/svg">
<path d="M7.1998 2.3999C5.87605 2.3999 4.7998 3.47615 4.7998 4.7999V19.1999C4.7998 20.5237 5.87605 21.5999 7.1998 21.5999H16.7998C18.1236 21.5999 19.1998 20.5237 19.1998 19.1999V4.7999C19.1998 3.47615 18.1236 2.3999 16.7998 2.3999H7.1998ZM11.3998 15.5999H12.5998C13.2636 15.5999 13.7998 16.1362 13.7998 16.7999V19.7999H10.1998V16.7999C10.1998 16.1362 10.7361 15.5999 11.3998 15.5999ZM8.3998 6.5999C8.3998 6.2699 8.6698 5.9999 8.9998 5.9999H10.1998C10.5298 5.9999 10.7998 6.2699 10.7998 6.5999V7.7999C10.7998 8.1299 10.5298 8.3999 10.1998 8.3999H8.9998C8.6698 8.3999 8.3998 8.1299 8.3998 7.7999V6.5999ZM13.7998 5.9999H14.9998C15.3298 5.9999 15.5998 6.2699 15.5998 6.5999V7.7999C15.5998 8.1299 15.3298 8.3999 14.9998 8.3999H13.7998C13.4698 8.3999 13.1998 8.1299 13.1998 7.7999V6.5999C13.1998 6.2699 13.4698 5.9999 13.7998 5.9999ZM8.3998 11.3999C8.3998 11.0699 8.6698 10.7999 8.9998 10.7999H10.1998C10.5298 10.7999 10.7998 11.0699 10.7998 11.3999V12.5999C10.7998 12.9299 10.5298 13.1999 10.1998 13.1999H8.9998C8.6698 13.1999 8.3998 12.9299 8.3998 12.5999V11.3999ZM13.7998 10.7999H14.9998C15.3298 10.7999 15.5998 11.0699 15.5998 11.3999V12.5999C15.5998 12.9299 15.3298 13.1999 14.9998 13.1999H13.7998C13.4698 13.1999 13.1998 12.9299 13.1998 12.5999V11.3999C13.1998 11.0699 13.4698 10.7999 13.7998 10.7999Z" fill="#424291"/>
</svg>
