<svg width="32" height="32" viewBox="0 0 32 32" fill="none" xmlns="http://www.w3.org/2000/svg">
<path d="M0 16C0 7.16344 7.16344 0 16 0C24.8366 0 32 7.16344 32 16C32 24.8366 24.8366 32 16 32C7.16344 32 0 24.8366 0 16Z" fill="#F6F5FF"/>
<g clip-path="url(#clip0_1150_2970)">
<path d="M27.9996 21.0135C27.9996 22.1335 26.9815 23.0402 25.7239 23.0402C24.4663 23.0402 23.4482 22.1335 23.4482 21.0135C23.4482 19.8935 24.4663 18.9868 25.7239 18.9868C26.9815 18.9868 27.9996 19.8935 27.9996 21.0135Z" fill="#283276"/>
<path d="M13.148 13.4935C13.148 14.6135 12.1299 15.5201 10.8723 15.5201C9.61474 15.5201 8.59668 14.6135 8.59668 13.4935C8.59668 12.3735 9.61474 11.4668 10.8723 11.4668C12.1299 11.4668 13.148 12.3735 13.148 13.4935Z" fill="#F29FC5"/>
<path d="M23.7486 18.827C23.7486 19.947 22.7305 20.8536 21.4729 20.8536C20.2153 20.8536 19.1973 19.947 19.1973 18.827C19.1973 17.707 20.2153 16.8003 21.4729 16.8003C22.7305 16.8003 23.7486 17.707 23.7486 18.827Z" fill="#008ECF"/>
<path d="M18.2984 21.2269C18.2984 22.3469 17.2803 23.2535 16.0227 23.2535C14.7651 23.2535 13.7471 22.3469 13.7471 21.2269C13.7471 20.1069 14.7651 19.2002 16.0227 19.2002C17.2803 19.2002 18.2984 20.1602 18.2984 21.2269Z" fill="#F29FC5"/>
<path d="M18.2984 25.9734C18.2984 27.0934 17.2803 28.0001 16.0227 28.0001C14.7651 28.0001 13.7471 27.0934 13.7471 25.9734C13.7471 24.8534 14.7651 23.9468 16.0227 23.9468C17.2803 23.9468 18.2984 24.8534 18.2984 25.9734Z" fill="#283276"/>
<path d="M27.9996 10.9866C27.9996 12.1066 26.9815 13.0133 25.7239 13.0133C24.4663 13.0133 23.4482 12.1066 23.4482 10.9866C23.4482 9.86663 24.4663 8.95996 25.7239 8.95996C26.9815 9.01329 27.9996 9.91996 27.9996 10.9866Z" fill="#283276"/>
<path d="M23.7486 13.4935C23.7486 14.6135 22.7305 15.5201 21.4729 15.5201C20.2153 15.5201 19.1973 14.6135 19.1973 13.4935C19.1973 12.3735 20.2153 11.4668 21.4729 11.4668C22.7305 11.4668 23.7486 12.3735 23.7486 13.4935Z" fill="#283276"/>
<path d="M12.7886 18.9866C12.7886 20.1066 11.7706 21.0133 10.513 21.0133C9.25537 21.0133 8.2373 20.1066 8.2373 18.9866C8.2373 17.8666 9.25537 16.96 10.513 16.96C11.7706 16.96 12.7886 17.8666 12.7886 18.9866Z" fill="#283276"/>
<path d="M8.47733 10.56C8.71687 11.6266 7.99824 12.6933 6.74063 12.96C5.54292 13.1733 4.3452 12.5333 4.04577 11.4133C3.80623 10.3466 4.52486 9.27998 5.78246 9.01331C7.04006 8.74665 8.23778 9.49331 8.47733 10.56Z" fill="#283276"/>
<path d="M8.29722 14.9335C8.17745 15.5735 7.51871 16.0002 6.85996 15.8935C6.14133 15.7869 5.66224 15.2002 5.78201 14.6135C5.90179 13.9735 6.56053 13.5469 7.21928 13.6535C7.87802 13.7069 8.35711 14.2935 8.29722 14.9335Z" fill="#E1000F"/>
<path d="M21.2329 23.1998C21.1131 23.8932 20.3945 24.4265 19.5561 24.3198C18.7776 24.2132 18.1787 23.5732 18.2985 22.8265C18.4183 22.1332 19.1369 21.5998 19.9753 21.7065C20.7538 21.8132 21.3527 22.5065 21.2329 23.1998Z" fill="#E1000F"/>
<path d="M25.6049 14.8798C25.545 15.3064 25.0659 15.6264 24.5868 15.5731C24.1077 15.5198 23.7484 15.0931 23.8083 14.6664C23.8682 14.2398 24.3473 13.9198 24.8263 13.9731C25.3054 14.0264 25.6648 14.4531 25.6049 14.8798Z" fill="#E1000F"/>
<path d="M16.8011 11.1464C16.6814 11.7864 16.0226 12.2131 15.3639 12.1064C14.6452 11.9998 14.1661 11.4131 14.2859 10.8264C14.4057 10.1864 15.0644 9.75977 15.7232 9.86643C16.4418 9.91977 16.9209 10.5064 16.8011 11.1464Z" fill="#E1000F"/>
<path d="M20.514 9.65327C20.3942 10.2933 19.7355 10.7199 19.0768 10.6133C18.3581 10.5066 17.879 9.91994 17.9988 9.33327C18.1186 8.69327 18.7773 8.2666 19.4361 8.37327C20.0948 8.4266 20.6338 9.01327 20.514 9.65327Z" fill="#F29FC5"/>
<path d="M12.1302 22.2402C12.0105 22.8802 11.3517 23.3069 10.693 23.2002C9.97434 23.0935 9.49525 22.5069 9.61502 21.9202C9.73479 21.2802 10.3935 20.8535 11.0523 20.9602C11.7709 21.0135 12.25 21.6002 12.1302 22.2402Z" fill="#FFE000"/>
<path d="M24.766 17.0668C24.6462 17.7068 23.9875 18.1335 23.3287 18.0268C22.6101 17.9202 22.131 17.3335 22.2508 16.7468C22.3705 16.1068 23.0293 15.6802 23.688 15.7868C24.4067 15.8935 24.8857 16.4802 24.766 17.0668Z" fill="#FFE000"/>
<path d="M23.3291 22.3998C23.6884 22.9332 23.5087 23.6265 22.9099 23.9998C22.311 24.3198 21.5325 24.1598 21.1133 23.6265C20.6941 23.0932 20.9336 22.3998 21.5325 22.0265C22.1314 21.7065 22.9099 21.8665 23.3291 22.3998Z" fill="#283276"/>
<path d="M13.5072 8.95991C13.3874 9.59991 12.7287 10.0266 12.0699 9.91991C11.3513 9.81325 10.8722 9.22658 10.992 8.63991C11.1117 7.99991 11.7705 7.57324 12.4292 7.67991C13.088 7.78658 13.627 8.37324 13.5072 8.95991Z" fill="#FFE000"/>
<path d="M18.4188 6.13334C18.4188 7.30667 17.3409 8.26667 16.0234 8.26667C14.7059 8.26667 13.6279 7.30667 13.6279 6.13334C13.6279 4.96 14.7059 4 16.0234 4C17.3409 4 18.4188 4.96 18.4188 6.13334Z" fill="#008ECF"/>
<path d="M8.53734 21.0135C8.53734 22.1335 7.51928 23.0402 6.26168 23.0402C5.00407 23.0402 4.0459 22.1335 4.0459 21.0135C4.0459 19.8935 5.06396 18.9868 6.32156 18.9868C7.57917 18.9868 8.53734 19.8935 8.53734 21.0135Z" fill="#008ECF"/>
<path d="M19.6764 15.5732C19.6764 17.4932 17.9397 19.0932 15.724 19.0932C13.5082 19.0932 11.7715 17.5466 11.7715 15.5732C11.7715 13.5999 13.5082 12.0532 15.724 12.0532C17.9397 12.0532 19.6764 13.6532 19.6764 15.5732Z" fill="#008ECF"/>
</g>
<defs>
<clipPath id="clip0_1150_2970">
<rect width="24" height="24" fill="white" transform="translate(4 4)"/>
</clipPath>
</defs>
</svg>
