<svg width="32" height="32" viewBox="0 0 32 32" fill="none" xmlns="http://www.w3.org/2000/svg">
<path d="M0 16C0 7.16344 7.16344 0 16 0C24.8366 0 32 7.16344 32 16C32 24.8366 24.8366 32 16 32C7.16344 32 0 24.8366 0 16Z" fill="#F6F5FF"/>
<g clip-path="url(#clip0_1148_2751)">
<path d="M16.1082 26.7407C22.3229 26.7407 27.361 21.9021 27.361 15.9334C27.361 9.96461 22.3229 5.12598 16.1082 5.12598C9.89349 5.12598 4.85547 9.96461 4.85547 15.9334C4.85547 21.9021 9.89349 26.7407 16.1082 26.7407Z" fill="white" stroke="white" stroke-width="0.940265"/>
<path d="M15.5214 4.00334C14.5713 4.05647 13.8494 4.16129 13.0486 4.36231C9.51083 5.24969 6.54143 7.75102 5.03592 11.111C3.88777 13.6769 3.68541 16.6191 4.47189 19.3516C4.91393 20.888 5.71476 22.4072 6.72657 23.6277C7.23319 24.2379 7.82305 24.8252 8.41721 25.3105C9.96004 26.5698 11.8129 27.4342 13.7633 27.8018C14.5742 27.9554 15.2473 28.01 16.1701 27.9985C16.7686 27.9913 17.0154 27.9755 17.5019 27.9152C20.7325 27.5146 23.6402 25.8188 25.6179 23.1854C27.4722 20.7171 28.2945 17.5897 27.9056 14.4911C27.6085 12.1133 26.611 9.89767 25.0209 8.07984C24.7912 7.81707 24.2961 7.31738 24.0248 7.07471C22.9183 6.08107 21.6611 5.31144 20.2891 4.78446C19.194 4.36518 18.0817 4.11821 16.8561 4.02344C16.6609 4.00765 15.695 3.99329 15.5214 4.00334ZM15.3865 5.78384L15.4324 5.79246L15.4424 6.06528C15.4482 6.21461 15.4496 6.33953 15.4482 6.34241C15.4453 6.34528 15.4066 6.34097 15.3635 6.33236C15.319 6.32374 15.1956 6.32087 15.0836 6.32518C14.4952 6.34671 14.2957 6.55492 14.3445 7.09194C14.3876 7.55286 14.5053 7.88599 14.666 8.0023C14.7607 8.07122 14.8569 8.09132 15.0463 8.08271C15.2401 8.07409 15.408 8.03102 15.5831 7.94486C15.6649 7.90466 15.6979 7.89317 15.7022 7.90753C15.7065 7.91758 15.7381 8.02814 15.7725 8.15307C15.8185 8.31532 15.8314 8.38424 15.8213 8.39717C15.7984 8.42588 15.5544 8.54219 15.4338 8.58096C15.2458 8.64414 15.0808 8.66568 14.8397 8.6585C14.6531 8.65276 14.6086 8.64701 14.5096 8.61255C14.1178 8.47758 13.8738 8.15163 13.7518 7.59881C13.6958 7.34609 13.68 7.18097 13.6886 6.92825C13.6958 6.67697 13.7159 6.57646 13.792 6.4142C13.9585 6.05236 14.2814 5.8542 14.8397 5.76949C14.8942 5.76087 15.3276 5.77236 15.3865 5.78384ZM16.8202 5.7939L17.0642 5.81113L17.0671 5.86138C17.0728 5.93318 16.8776 8.57378 16.8661 8.58383C16.8575 8.59388 16.2404 8.55368 16.2332 8.54363C16.2289 8.53788 16.4255 5.80251 16.4327 5.78097C16.4356 5.77092 16.4629 5.76661 16.5073 5.77092C16.5447 5.77523 16.6867 5.78528 16.8202 5.7939ZM18.5539 6.04661C18.686 6.09256 18.7965 6.13277 18.7993 6.13564C18.8051 6.13995 19.2629 7.79266 19.3246 8.02958L19.3418 8.09419L19.4739 7.7065C19.5471 7.49256 19.6705 7.13645 19.7466 6.91389L19.8872 6.51041L20.1412 6.59656C20.2805 6.64538 20.3996 6.68846 20.4053 6.6942C20.4154 6.70282 19.5241 9.30034 19.5026 9.32045C19.4868 9.33624 19.0835 9.18978 19.0763 9.16537C19.0735 9.15245 18.95 8.72599 18.8022 8.21625C18.6544 7.7065 18.5209 7.25133 18.508 7.20394L18.4836 7.11779L18.4578 7.19676C18.4018 7.36333 17.9153 8.76906 17.911 8.77337C17.9081 8.77624 17.7875 8.73747 17.6426 8.68578C17.4574 8.62117 17.3814 8.58814 17.3842 8.57378C17.3886 8.55511 18.2525 6.06097 18.2784 5.99348C18.2855 5.97625 18.2956 5.96189 18.3013 5.96189C18.3085 5.96189 18.4219 5.99923 18.5539 6.04661ZM12.7055 6.84497C12.7027 6.84641 12.4587 6.96415 12.163 7.10343C11.8674 7.24415 11.622 7.36189 11.6191 7.36476C11.6091 7.37194 11.843 7.85009 11.8559 7.84722C11.8631 7.84579 12.0683 7.75102 12.3109 7.63471C12.5549 7.51984 12.7601 7.4265 12.7673 7.42938C12.7816 7.43368 12.9811 7.83861 12.9811 7.86445C12.9811 7.87163 12.8921 7.92045 12.783 7.97214C12.6754 8.0224 12.4687 8.12148 12.3252 8.1904L12.064 8.31532L12.1917 8.58527C12.2635 8.73317 12.3224 8.85952 12.3252 8.8667C12.3267 8.87388 12.5893 8.75614 12.9079 8.60394C13.2251 8.45317 13.4877 8.33112 13.4892 8.33399C13.4906 8.33686 13.5423 8.45029 13.6025 8.5867L13.7116 8.83655L13.5652 8.90547C13.4849 8.94424 13.0988 9.1266 12.7084 9.31327L11.998 9.65214L11.9664 9.59039C11.8803 9.42096 10.7996 7.13502 10.8025 7.13071C10.8054 7.12927 11.1785 6.94979 11.632 6.73297L12.4573 6.34097L12.5836 6.59082C12.6539 6.72866 12.7084 6.8421 12.7055 6.84497ZM21.8434 7.64189C21.9065 7.65768 22.0055 7.69502 22.0644 7.72373C22.2998 7.84004 22.6241 8.13153 22.7834 8.37132L22.8566 8.47901L22.6672 8.65993C22.5624 8.75901 22.472 8.84086 22.4662 8.84086C22.4605 8.84086 22.4203 8.79204 22.3744 8.73317C22.1433 8.43019 21.8434 8.20189 21.6769 8.20189C21.5664 8.20189 21.463 8.3024 21.463 8.41009C21.4645 8.49624 21.5176 8.61111 21.6611 8.82937C21.8706 9.15245 21.9453 9.31757 21.9611 9.50137C21.9754 9.6866 21.9166 9.85747 21.7759 10.0355C21.5621 10.3055 21.2463 10.4132 20.9148 10.3284C20.5531 10.2351 20.1283 9.87757 19.9331 9.4985L19.8772 9.3908L20.0709 9.20557C20.1771 9.10363 20.2675 9.02034 20.2718 9.02034C20.2761 9.02178 20.3106 9.07778 20.3493 9.14814C20.5302 9.47265 20.843 9.75409 21.0511 9.77706C21.1358 9.78711 21.2305 9.74403 21.2851 9.67224C21.3712 9.5588 21.3382 9.44106 21.12 9.10219C20.8646 8.70588 20.7928 8.47183 20.8531 8.23778C20.9263 7.95778 21.1832 7.69932 21.453 7.63327C21.5664 7.60599 21.7171 7.60886 21.8434 7.64189ZM10.0275 8.19614C10.138 8.22486 10.303 8.30671 10.4408 8.40435C10.5786 8.50055 10.8958 8.81788 11.0163 8.98014C11.3665 9.45111 11.4081 9.87183 11.1426 10.2767C11.0479 10.4232 10.9718 10.5022 10.5011 10.9473L10.0906 11.3364L10.0619 11.3005C10.0447 11.2804 9.61846 10.8267 9.11328 10.2911C8.60809 9.75552 8.19333 9.31327 8.19046 9.30752C8.18471 9.29029 9.00995 8.51348 9.1305 8.42301C9.4405 8.18896 9.72467 8.11717 10.0275 8.19614ZM16.7843 10.1332C18.1535 10.3026 19.382 10.8999 20.3436 11.8634C20.7139 12.2324 21.1186 12.7522 21.1186 12.857C21.1186 12.9116 21.0856 12.9734 21.0382 13.0107C20.9923 13.0466 20.8818 13.0523 20.8373 13.0207C20.8215 13.0093 20.7526 12.9231 20.6852 12.8298C20.3249 12.3315 19.8298 11.8419 19.339 11.4958C18.5927 10.9703 17.71 10.6257 16.8059 10.5079C16.0237 10.4045 15.1927 10.472 14.4392 10.7003C13.8781 10.8698 13.4317 11.0794 12.9309 11.4111C11.853 12.1262 11.0694 13.16 10.6647 14.4006C10.3849 15.2622 10.3174 16.2472 10.4781 17.1331C10.6231 17.9344 10.9044 18.6308 11.3522 19.3013C12.4386 20.9296 14.3086 21.8917 16.2533 21.8228C17.5665 21.7768 18.6573 21.3848 19.6188 20.6166C19.7982 20.4716 20.1498 20.1298 20.3149 19.9389C20.8186 19.3545 21.2219 18.6408 21.4602 17.9085C21.519 17.7276 21.8075 16.734 21.8075 16.711C21.8075 16.678 21.4186 16.6377 21.0899 16.6377C20.7096 16.6377 20.711 16.6363 20.5345 16.8373C20.1613 17.2581 19.6949 17.5582 19.2356 17.6702C19.0405 17.7175 18.9113 17.7305 18.3056 17.7592C18.0258 17.7721 17.7947 17.785 17.7918 17.7865C17.789 17.7893 17.8162 17.8769 17.8521 17.9803C18.2281 19.0587 18.0846 19.9202 17.4574 20.3682C17.3326 20.4558 17.0972 20.5678 16.9365 20.6152C16.8159 20.6496 16.7456 20.6554 15.6821 20.7157C15.0621 20.7516 14.5526 20.7774 14.5498 20.776C14.5483 20.7731 14.5641 20.687 14.5885 20.585C14.6961 20.1083 14.7048 19.8886 14.6545 18.9352C14.6344 18.5475 14.6143 18.1799 14.61 18.1167L14.6014 18.0018L14.003 18.0334C13.6743 18.0507 13.3485 18.065 13.2811 18.065C12.9237 18.0679 12.5692 17.9272 12.3008 17.6759C12.0611 17.4519 11.9105 17.1647 11.8559 16.823C11.8416 16.7383 11.8129 16.2831 11.7827 15.6972C11.7555 15.1559 11.7311 14.6792 11.7268 14.6376C11.7224 14.5973 11.7253 14.5629 11.7325 14.5629C11.7397 14.5629 11.7741 14.583 11.81 14.6074C11.9148 14.6778 12.1056 14.761 12.2506 14.7998C12.4845 14.8616 12.6108 14.8687 13.06 14.8429C13.2811 14.83 13.68 14.8084 13.9455 14.7955C14.2125 14.7811 14.4335 14.7653 14.4392 14.7596C14.4565 14.7424 14.346 12.7278 14.3216 12.6101C14.2814 12.4191 14.2067 12.2568 14.0618 12.0458C13.9915 11.9438 13.9872 11.9352 14.0173 11.9352C14.036 11.9352 14.2125 11.9252 14.4091 11.9137C15.3621 11.8562 16.3236 11.806 16.4456 11.806C16.9307 11.806 17.3024 12.0515 17.5407 12.5311C17.6871 12.824 17.71 12.9461 17.7459 13.6296C17.7832 14.3173 17.7818 14.4121 17.7287 14.5184L17.6914 14.5959L17.7961 14.5873C17.9224 14.5787 18.0358 14.5342 18.1765 14.4408C18.2353 14.4021 18.3559 14.3331 18.4448 14.2872C19.2371 13.8866 20.0867 13.9971 20.6593 14.5787C20.8545 14.7768 21.0239 15.0669 21.0899 15.3167C21.1215 15.4402 21.1545 15.7116 21.143 15.7561C21.1373 15.7791 21.1588 15.7963 21.2664 15.8509C21.5291 15.9815 21.7443 16.1553 21.852 16.319L21.9051 16.4008L21.9797 16.1754C22.2725 15.2909 22.5667 14.7653 22.97 14.4107C23.2082 14.201 23.5498 14.0072 23.8785 13.8952C24.0536 13.8363 24.0923 13.8363 24.1684 13.9052C24.2258 13.9555 24.243 14.0216 24.2186 14.0948C24.1956 14.1651 24.1569 14.1924 24.0004 14.2456C23.4407 14.4394 23.0719 14.7395 22.7705 15.2464C22.5409 15.6312 22.3816 16.0734 21.9883 17.4275C21.773 18.1713 21.6654 18.4656 21.4587 18.8777C20.9134 19.9719 20.081 20.8621 19.0735 21.4336C18.4018 21.8156 17.667 22.0511 16.8274 22.153C16.5662 22.1846 15.8759 22.1961 15.5974 22.1745C14.1163 22.0554 12.773 21.4236 11.7368 20.3581C10.8886 19.488 10.3361 18.4125 10.1193 17.2193C10.049 16.8359 10.0332 16.6277 10.0332 16.1424C10.0332 15.657 10.049 15.4488 10.1193 15.0654C10.4853 13.0495 11.8487 11.3508 13.736 10.5582C14.3058 10.3198 14.9817 10.1576 15.6147 10.1059C15.7998 10.0915 16.5992 10.1087 16.7843 10.1332ZM6.93754 10.4275C6.96337 10.5898 6.98634 10.7348 6.99064 10.7506C6.99495 10.7693 6.9562 10.8439 6.88157 10.966C6.81842 11.0679 6.76101 11.1569 6.75384 11.1641C6.73805 11.1799 6.4912 10.7434 6.50124 10.7161C6.52277 10.6601 6.87296 10.1116 6.88157 10.1217C6.88731 10.1274 6.91314 10.2653 6.93754 10.4275ZM7.74985 10.3945L7.98379 10.5323L7.92925 10.6199C7.89911 10.6687 7.75416 10.9014 7.60777 11.1383L7.34083 11.5676L7.44559 11.6337C7.64652 11.7615 7.80009 11.8534 7.80583 11.8476C7.8087 11.8447 7.92782 11.6509 8.07277 11.4183C8.21629 11.1857 8.33684 10.9918 8.33972 10.989C8.34115 10.9861 8.44018 11.0435 8.5593 11.1167L8.77458 11.2503L8.72721 11.3235C8.57652 11.5619 8.24212 12.1075 8.24212 12.1176C8.24069 12.1305 8.75018 12.4507 8.76166 12.4449C8.76596 12.4421 8.91809 12.2008 9.09893 11.9079C9.2812 11.615 9.43333 11.3752 9.43907 11.3752C9.45055 11.3752 9.86388 11.6408 9.88541 11.6624C9.89545 11.671 9.03147 13.0868 8.91235 13.2591C8.89657 13.2821 8.78032 13.2131 7.71972 12.5541C6.93323 12.0659 6.5443 11.816 6.54573 11.8002C6.5486 11.7715 7.48722 10.2566 7.50444 10.2552C7.51161 10.2552 7.62212 10.317 7.74985 10.3945ZM24.9247 11.3795C25.0539 11.806 25.0381 12.3071 24.8845 12.6144C24.7798 12.8226 24.6047 13.0294 24.3966 13.193C24.2817 13.2821 24.0736 13.4142 24.0449 13.4142C24.0263 13.4142 24.0062 13.3596 23.9631 13.1772C23.9287 13.0337 23.9258 12.9935 23.9258 12.7249C23.9258 12.4449 23.9273 12.4248 23.966 12.3014C24.0808 11.9266 24.3506 11.6064 24.764 11.3551C24.8228 11.3192 24.8773 11.2919 24.886 11.2948C24.8931 11.2962 24.9104 11.335 24.9247 11.3795ZM23.1752 11.6538C23.2427 11.7543 23.3604 11.9912 23.3977 12.1003C23.5125 12.4392 23.5254 12.7422 23.4335 13.0337C23.3575 13.2778 23.158 13.5965 22.9657 13.7861L22.8853 13.8636L22.8265 13.7717C22.7432 13.6439 22.6356 13.4156 22.5911 13.272C22.4361 12.7795 22.5122 12.3444 22.8279 11.9022C22.914 11.7801 23.0934 11.5762 23.1121 11.5762C23.1192 11.5762 23.1465 11.6107 23.1752 11.6538ZM26.4833 12.791C26.6412 12.8183 26.7732 12.8556 26.7732 12.8728C26.7732 12.903 26.6225 13.1485 26.5307 13.2663C26.1704 13.7329 25.7184 13.9311 25.1443 13.8751C24.9792 13.8593 24.7037 13.8033 24.6807 13.7818C24.6664 13.766 24.7711 13.5721 24.8673 13.4371C25.1457 13.0437 25.4988 12.8211 25.9265 12.7695C26.0585 12.7522 26.3226 12.7637 26.4833 12.791ZM7.41976 13.4515C8.16175 13.5448 8.77458 13.6238 8.78032 13.6296C8.79036 13.6382 8.72865 14.1852 8.71717 14.1953C8.71286 14.1996 7.67092 14.0704 7.10402 13.9957C7.0337 13.9871 7.038 13.9885 7.21884 14.0862C7.32217 14.1422 7.67953 14.3389 8.01536 14.5241L8.62532 14.8601L8.62101 14.952C8.61958 15.0023 8.60953 15.0985 8.59948 15.166L8.58226 15.2866L8.25934 15.3699C8.08138 15.4158 7.68527 15.5178 7.37671 15.5953C6.88157 15.7217 6.8256 15.7389 6.88157 15.7461C6.91745 15.7504 7.2949 15.7978 7.72115 15.8509C8.1474 15.9026 8.49759 15.9471 8.49902 15.9485C8.5062 15.9528 8.43444 16.4884 8.42726 16.497C8.42008 16.5042 5.67601 16.1625 5.66884 16.1539C5.66166 16.1452 5.75064 15.4747 5.75925 15.4661C5.7693 15.4574 6.54573 15.2564 7.35374 15.0511L7.73263 14.9549L7.56902 14.8687C7.41402 14.7854 5.94439 13.9756 5.94009 13.9699C5.93865 13.9684 5.95587 13.8248 5.97884 13.6511C6.00036 13.4774 6.01902 13.3237 6.02046 13.3094C6.02046 13.2964 6.03194 13.2849 6.04629 13.2849C6.05921 13.2849 6.67777 13.3596 7.41976 13.4515ZM25.1802 14.4193C25.4442 14.4494 25.6954 14.5442 25.8777 14.6821C25.9954 14.7711 26.1618 14.9491 26.2551 15.087C26.3355 15.2019 26.4862 15.4847 26.4862 15.5178C26.4862 15.5436 26.4647 15.5493 26.2824 15.5766C25.9997 15.6183 25.6509 15.5924 25.4242 15.5134C25.1041 15.4014 24.8242 15.1559 24.6133 14.7998C24.5343 14.6663 24.4626 14.5155 24.4626 14.4825C24.4626 14.4308 24.9218 14.3891 25.1802 14.4193ZM23.7665 14.9377C24.3621 15.0899 24.7367 15.4187 24.9147 15.9485C24.9606 16.0864 25.0022 16.2888 25.0166 16.4425L25.0266 16.5616L24.9348 16.5516C24.7941 16.5358 24.5386 16.4654 24.3937 16.4037C23.8383 16.1639 23.5354 15.7217 23.4579 15.0339C23.4493 14.9635 23.4465 14.9003 23.4493 14.8946C23.4594 14.8802 23.6259 14.9032 23.7665 14.9377ZM23.4579 18.7772C23.5929 18.8447 23.7019 18.9022 23.7019 18.9065C23.7019 18.9108 23.5785 19.1506 23.4292 19.4406C23.2786 19.7307 23.158 19.9733 23.1609 19.9805C23.1623 19.9862 23.2685 20.0466 23.3962 20.1126L23.6287 20.2332L23.7349 20.0293C23.7938 19.9173 23.8986 19.7149 23.9674 19.5813C24.0378 19.4464 24.0966 19.3344 24.0995 19.33C24.1067 19.3229 24.5487 19.5469 24.5487 19.5569C24.5487 19.5598 24.4454 19.7608 24.3191 20.0049C24.1928 20.2476 24.0894 20.4529 24.0894 20.4587C24.0894 20.4773 24.6319 20.7545 24.6391 20.7415C24.6434 20.7358 24.774 20.4845 24.929 20.1844C25.084 19.8843 25.2146 19.6345 25.2204 19.6287C25.2347 19.6158 25.6882 19.8699 25.6925 19.8929C25.6983 19.9274 24.84 21.5629 24.8199 21.5585C24.7769 21.5485 22.3686 20.2978 22.3672 20.2863C22.3672 20.2792 22.5452 19.9259 22.7633 19.5038C22.9815 19.0802 23.1695 18.7169 23.181 18.6939C23.191 18.6724 23.2039 18.6552 23.2068 18.6552C23.2111 18.6552 23.3245 18.7097 23.4579 18.7772ZM9.13337 19.3473C9.28407 19.6129 9.43333 19.8843 9.4649 19.9504C9.73471 20.529 9.57684 21.0072 8.98411 21.4035C8.50476 21.7222 8.07564 21.8587 7.72976 21.7998C7.50587 21.7624 7.25902 21.593 7.08536 21.3575C7.02078 21.2714 6.41657 20.2347 6.42518 20.2275C6.46967 20.1916 8.84346 18.8462 8.84921 18.8533C8.85351 18.8591 8.98124 19.0816 9.13337 19.3473ZM10.2815 21.1048L10.5126 21.3144L10.2499 21.6031C9.34004 22.6053 9.23814 22.7216 9.19939 22.802C9.11328 22.9772 9.15633 23.128 9.34291 23.306C9.56823 23.52 9.75624 23.5487 9.94138 23.3951C9.9787 23.3649 10.2844 23.0361 10.6217 22.6642C10.9589 22.2909 11.2388 21.9864 11.2445 21.9864C11.2603 21.9864 11.6966 22.3871 11.6966 22.4014C11.6966 22.4287 10.4078 23.8344 10.3145 23.9077C9.86819 24.2595 9.37305 24.1733 8.87647 23.6578C8.73296 23.5085 8.67842 23.4338 8.60953 23.2888C8.53633 23.1323 8.50907 22.9858 8.52772 22.8336C8.55786 22.5953 8.65546 22.423 8.92814 22.12C9.80217 21.1508 10.0332 20.8966 10.0418 20.8966C10.0461 20.8952 10.1552 20.9899 10.2815 21.1048ZM22.4849 20.9167C22.7045 20.9627 22.9499 21.1062 23.214 21.3446C23.534 21.6318 23.7479 21.9391 23.8167 22.2119C23.8512 22.3454 23.8541 22.535 23.8239 22.6541C23.7938 22.7704 23.7062 22.9485 23.6173 23.0734C23.5398 23.1825 22.716 24.0441 22.6944 24.0369C22.6729 24.0297 20.7024 22.1099 20.7053 22.0999C20.7196 22.0625 21.5707 21.2111 21.6668 21.1393C21.9453 20.9296 22.2079 20.8578 22.4849 20.9167ZM21.0468 23.5516C21.3855 24.2307 21.664 24.7907 21.664 24.7979C21.664 24.8037 21.5764 24.8525 21.4688 24.9056L21.275 25.0018L20.4469 24.5624C19.992 24.3198 19.57 24.0943 19.5098 24.0599C19.4495 24.0254 19.3964 23.9967 19.3906 23.9967C19.3863 23.9967 19.5557 24.3456 19.7695 24.7721C19.9819 25.1985 20.157 25.5503 20.157 25.5546C20.157 25.5618 19.6762 25.8059 19.6619 25.8059C19.6533 25.8059 18.4205 23.3405 18.4205 23.3218C18.4205 23.3146 18.5252 23.2558 18.653 23.1912L18.8855 23.0749L18.9328 23.0978C18.9744 23.1179 20.4225 23.9148 20.6048 24.0168L20.6708 24.0556L20.2991 23.3175C20.0953 22.9112 19.9274 22.5723 19.9274 22.5665C19.9274 22.5522 20.3823 22.3196 20.4111 22.3181C20.4211 22.3167 20.7067 22.8724 21.0468 23.5516ZM13.1418 23.072C13.3227 23.1165 13.4734 23.1596 13.4762 23.1696C13.4834 23.1883 13.7217 24.9516 13.736 25.0837C13.7417 25.1339 13.7489 25.1741 13.7547 25.1741C13.759 25.1741 13.792 25.1296 13.8264 25.0765C13.957 24.8783 14.9358 23.5228 14.9487 23.5228C14.9559 23.5228 15.0937 23.5559 15.253 23.5946C15.4123 23.6348 15.5573 23.6707 15.5759 23.6736C15.5931 23.6779 15.6075 23.6908 15.6075 23.7009C15.6075 23.7253 14.953 26.3788 14.9459 26.386C14.9344 26.3975 14.3876 26.2582 14.3876 26.2439C14.389 26.2252 14.7823 24.6443 14.7966 24.6069C14.8024 24.5912 14.7693 24.6328 14.7249 24.7003C14.643 24.8209 13.7618 26.0601 13.7417 26.083C13.7317 26.0945 13.3471 26.0041 13.3299 25.9868C13.3212 25.9782 13.116 24.4835 13.1017 24.3169C13.0959 24.2595 13.0873 24.2121 13.083 24.2121C13.0787 24.2121 12.9854 24.5754 12.8763 25.019C12.7687 25.4627 12.6783 25.8275 12.6754 25.8289C12.6711 25.8332 12.1444 25.704 12.1358 25.6968C12.1343 25.6954 12.2807 25.0894 12.463 24.3499C12.6453 23.6119 12.7945 23.0045 12.7945 23.0002C12.7945 22.9873 12.7888 22.9858 13.1418 23.072ZM17.5436 23.53C17.6885 23.5659 17.8536 23.6593 17.9612 23.767C18.1636 23.9708 18.2798 24.2609 18.3501 24.7333C18.386 24.976 18.3932 25.3421 18.3645 25.5044C18.2798 25.9854 18.0129 26.2381 17.4704 26.353C17.2737 26.3946 16.8977 26.4004 16.7556 26.3616C16.2949 26.2396 16.0366 25.8677 15.9275 25.1713C15.8917 24.9386 15.8917 24.4777 15.9275 24.3198C16.018 23.9292 16.2533 23.6908 16.6638 23.5731C16.9365 23.4956 17.3225 23.4755 17.5436 23.53Z" fill="#005EA5"/>
<path d="M9.61543 8.81368C9.51066 8.84671 9.42024 8.91276 9.21788 9.10661L9.03418 9.28035L9.59534 9.87624C9.9039 10.2036 10.1637 10.4707 10.1737 10.4707C10.1823 10.4707 10.2828 10.3788 10.3976 10.2654C10.6502 10.0198 10.6775 9.97388 10.6775 9.80301C10.676 9.7025 10.6703 9.67666 10.6315 9.60199C10.4995 9.3464 10.1278 8.95871 9.91682 8.85533C9.79339 8.79502 9.71159 8.78353 9.61543 8.81368Z" fill="#005EA5"/>
<path d="M19.9821 15.2089C19.9161 15.2291 19.8601 15.2779 19.8285 15.3425C19.7912 15.42 19.7898 15.4846 19.8271 15.5607C19.9362 15.7847 20.2734 15.7302 20.2978 15.4846C20.3064 15.3913 20.282 15.3209 20.2218 15.2678C20.15 15.2046 20.0639 15.1845 19.9821 15.2089Z" fill="#005EA5"/>
<path d="M7.96501 20.0782C7.59474 20.2921 7.27613 20.473 7.2589 20.4831C7.22876 20.5003 7.23164 20.5046 7.3608 20.7301C7.56747 21.0876 7.66363 21.1723 7.85594 21.1709C7.97937 21.1709 8.13006 21.1206 8.34103 21.0101C8.89501 20.72 9.06437 20.4903 8.94381 20.193C8.89501 20.0724 8.67543 19.689 8.65534 19.6905C8.64673 19.6905 8.33673 19.8657 7.96501 20.0782Z" fill="#005EA5"/>
<path d="M22.1147 21.5527C22.0129 21.5886 21.9282 21.656 21.7244 21.8599L21.5479 22.038L21.7961 22.2821C21.9325 22.4171 22.1994 22.677 22.3889 22.8607L22.7333 23.1953L22.9357 22.9871C23.0835 22.8363 23.1495 22.7588 23.1797 22.6956C23.2916 22.4673 23.1883 22.239 22.8094 21.8786C22.4965 21.5814 22.297 21.488 22.1147 21.5527Z" fill="#005EA5"/>
<path d="M16.9533 24.0899C16.7567 24.1287 16.6548 24.2048 16.5945 24.3513C16.5644 24.4288 16.5615 24.4547 16.5615 24.693C16.563 25.1841 16.6692 25.5876 16.8328 25.7283C16.9375 25.8173 17.0997 25.8417 17.3193 25.8001C17.6551 25.7355 17.7599 25.5416 17.7197 25.0563C17.6795 24.5724 17.5891 24.2723 17.4485 24.1546C17.3466 24.0713 17.1672 24.0483 16.9533 24.0899Z" fill="#005EA5"/>
</g>
<defs>
<clipPath id="clip0_1148_2751">
<rect width="24" height="24" fill="white" transform="translate(4 4)"/>
</clipPath>
</defs>
</svg>
