<svg width="32" height="32" viewBox="0 0 32 32" fill="none" xmlns="http://www.w3.org/2000/svg">
<path d="M0 16C0 7.16344 7.16344 0 16 0C24.8366 0 32 7.16344 32 16C32 24.8366 24.8366 32 16 32C7.16344 32 0 24.8366 0 16Z" fill="#F6F5FF"/>
<g clip-path="url(#clip0_1148_2822)">
<path fill-rule="evenodd" clip-rule="evenodd" d="M10.5974 24.9127C10.7761 24.7738 11.1777 24.4907 11.2257 24.4524C11.3026 24.3917 11.3485 24.3994 11.3509 24.4308C11.3606 24.5511 11.358 24.8047 11.4742 24.8565C11.5076 24.8711 11.5947 24.8175 11.6103 24.8481C11.6525 24.9313 11.6553 24.9162 11.6666 24.9405C11.68 24.9707 11.738 24.9536 11.7505 24.9691C11.7827 25.0077 11.7484 25.0588 11.767 25.0857C11.7971 25.128 11.8533 25.0588 11.8818 25.0664C11.9339 25.0799 11.9469 25.157 11.9381 25.2069C11.9235 25.2885 11.9617 25.3509 12.063 25.2401C12.1157 25.1816 12.1192 25.2116 12.1648 25.1816C12.1919 25.164 12.2367 25.1658 12.2559 25.1911C12.2752 25.2162 12.3055 25.2604 12.3339 25.2743C12.3762 25.2952 12.4213 25.2738 12.4472 25.288C12.4868 25.3089 12.4878 25.3848 12.5214 25.3911C12.5546 25.3976 12.5888 25.3119 12.6104 25.3382C12.6707 25.4132 12.5594 25.5425 12.6364 25.5711C12.6783 25.5864 12.6951 25.5428 12.7286 25.5363C12.762 25.5295 12.7813 25.4773 12.8103 25.4773C12.839 25.4773 12.8603 25.5223 12.8965 25.4959C12.9264 25.4747 12.9499 25.4587 12.9777 25.4371C13.0182 25.4048 13.0604 25.4208 13.0838 25.3953C13.1124 25.3651 13.0908 25.2819 13.1749 25.3024C13.2616 25.3238 13.1611 25.4285 13.1991 25.471C13.2287 25.5037 13.3001 25.4722 13.3231 25.4617C13.3702 25.4415 13.4133 25.3656 13.429 25.3131C13.4483 25.2497 13.5204 25.0406 13.5487 24.9844C13.5776 24.9271 13.6495 24.7057 13.6876 24.6296C13.7263 24.5545 13.8793 24.231 13.8939 24.1811C13.908 24.13 13.9632 24.0606 13.9773 24.0227C13.9919 23.9846 14.023 23.858 14.0613 23.7563C14.0998 23.6557 14.205 23.453 14.215 23.4151C14.2243 23.3773 14.3054 23.1306 14.3342 23.0547C14.3631 22.9787 14.4638 22.805 14.4879 22.7226C14.5118 22.6403 14.5785 22.4662 14.5785 22.4662L14.6504 22.3082C14.6504 22.3082 14.6743 22.2386 14.7077 22.1438C14.7417 22.0486 14.8421 21.8465 14.8711 21.7766C14.8996 21.7069 14.981 21.5613 14.981 21.5613L15.0433 21.3783L15.0911 21.2392C15.0911 21.2392 15.1296 21.0745 15.1488 21.0302C15.1678 20.9863 15.2348 20.8785 15.2543 20.8216C15.2733 20.7642 15.3308 20.5111 15.3598 20.4356C15.3885 20.3594 15.527 20.0313 15.5416 19.9674C15.5557 19.9045 15.6995 19.5626 15.714 19.4936C15.7284 19.4232 15.7333 19.3287 15.7519 19.2839C15.7713 19.2402 15.829 19.1257 15.8385 19.0941C15.848 19.0628 15.9438 18.759 15.9582 18.7149C15.9726 18.6707 15.9823 18.5881 16.0206 18.5881C16.0588 18.5881 16.0864 18.6429 16.1116 18.6893C16.1402 18.7434 16.1977 18.7339 16.2315 18.7778C16.2649 18.8224 16.3748 18.9806 16.3801 19.0059C16.3845 19.0312 16.4467 19.0377 16.461 19.0628C16.4756 19.0883 16.4852 19.1517 16.5042 19.164C16.5236 19.1766 16.6194 19.2648 16.6382 19.3032C16.6576 19.341 16.6813 19.4177 16.7056 19.4425C16.7293 19.4678 16.8394 19.5568 16.8536 19.5942C16.8681 19.632 17.0263 19.8849 17.0453 19.9293C17.0647 19.9734 17.0791 20.0498 17.0931 20.0817C17.1077 20.1128 17.1649 20.1574 17.1702 20.189C17.1746 20.2208 17.1797 20.3346 17.1941 20.3662C17.2082 20.398 17.275 20.4358 17.2848 20.4674C17.2945 20.499 17.3235 20.6191 17.3379 20.6384C17.3522 20.6569 17.3805 20.6827 17.39 20.7073C17.3998 20.7329 17.4099 20.8727 17.4239 20.8971C17.438 20.9226 17.486 21.0302 17.5002 21.0745C17.5148 21.1184 17.5632 21.2009 17.5723 21.2325C17.5818 21.2638 17.5864 21.3913 17.5963 21.4345C17.6059 21.4793 17.649 21.5739 17.6536 21.6001C17.6587 21.625 17.6684 21.7009 17.6684 21.7009L17.7065 21.8212C17.7065 21.8212 17.7496 21.941 17.7496 21.9859C17.7496 22.0298 17.7591 22.0804 17.7638 22.1117C17.7689 22.1438 17.8071 22.2251 17.8071 22.2511C17.8071 22.2766 17.8599 22.4223 17.8599 22.4223C17.8599 22.4223 17.85 22.5486 17.8599 22.5802C17.8694 22.6115 17.9123 22.7 17.9123 22.7316C17.9123 22.7634 17.8982 22.8461 17.8982 22.8461L17.9221 22.897C17.9221 22.897 17.9077 22.966 17.9174 22.9913C17.9267 23.0164 17.9077 23.074 17.9221 23.0925C17.9362 23.1116 17.9747 23.2454 17.9747 23.2454C17.9458 23.2897 15.9478 24.5102 15.0911 25.0376C13.857 25.7987 11.2913 27.4981 11.0184 27.7066C10.7455 27.9152 10.5733 28.0355 10.507 27.9907C10.3556 27.8873 10.1089 27.5982 9.94028 26.9783C9.79749 26.4557 9.79696 26.0207 9.80874 25.8027C9.81806 25.6354 9.80821 25.5105 9.99989 25.3644C10.0667 25.3133 10.4188 25.052 10.5974 24.9127ZM7.04438 15.5679C7.03418 15.5391 7.02328 15.4894 7.05141 15.4541C7.07973 15.4179 7.11859 15.3696 7.15218 15.3589C7.18084 15.3496 7.168 15.2841 7.25857 15.2669C7.33242 15.253 7.37164 15.1355 7.40522 15.0586C7.42633 15.0093 7.56789 14.8856 7.69643 14.7808C7.94526 14.5764 8.54772 14.1294 9.67387 13.3564C11.1624 12.3352 13.6036 10.869 15.6515 9.85225C17.8553 8.75743 20.844 7.60896 21.4952 7.38437C21.5631 7.36138 21.6292 7.30912 21.6871 7.29658C21.7444 7.28334 21.8019 7.32167 21.9357 7.28334C22.0701 7.24618 22.089 7.19509 22.1372 7.18255C22.1852 7.16978 22.2519 7.19509 22.2809 7.20763C22.3094 7.22041 22.3957 7.22041 22.4246 7.24595C22.4534 7.2708 22.4627 7.30912 22.4627 7.35975C22.4627 7.40992 22.5204 7.46078 22.5204 7.46078C22.5204 7.46078 22.57 7.49237 22.5779 7.53673C22.5853 7.58039 22.5682 7.70093 22.5682 7.70093C22.5682 7.70093 22.6122 7.69675 22.6254 7.75202C22.6395 7.80683 22.6254 7.84028 22.6254 7.84028C22.6254 7.84028 22.6834 7.89044 22.7021 7.95408C22.7214 8.01748 22.7021 8.20723 22.7214 8.27017C22.7404 8.33358 22.8473 8.40534 22.8651 8.4857C22.8834 8.56559 22.8747 8.67568 22.8747 8.67568C22.8747 8.67568 22.9417 8.68799 22.9321 8.77601C22.9226 8.86519 22.8364 9.06748 22.8364 9.11811C22.8364 9.16897 22.8941 9.30809 22.8747 9.40889C22.8556 9.51061 22.8176 9.52269 22.7949 9.54057C22.7717 9.55869 22.5849 9.59655 22.5011 9.62418C21.7002 9.88825 17.4904 11.315 15.0579 12.5596C13.4954 13.3585 11.7937 14.1133 9.63553 15.482C9.5775 15.5191 9.43664 15.6153 9.43664 15.6153C9.43664 15.6153 9.25798 15.7384 9.19116 15.7762C9.12416 15.8139 8.96519 15.9504 8.96519 15.9504C8.96519 15.9504 8.83559 16.051 8.82134 15.9379C8.81185 15.8617 8.7561 15.8963 8.70317 15.8696C8.65921 15.8473 8.63195 15.7983 8.61894 15.7811C8.59045 15.7435 8.50024 15.8078 8.45259 15.8336C8.40458 15.8584 8.42973 15.9295 8.36132 15.9379C8.29344 15.946 8.25775 16.0963 8.18899 16.1151C8.12005 16.1334 7.97603 16.2352 7.90165 16.2795C7.86243 16.3025 7.78981 16.4086 7.73881 16.4695C7.68905 16.5278 7.5445 16.5896 7.49684 16.5642C7.44901 16.5385 7.49632 16.1892 7.4418 16.064C7.42052 16.0152 7.4418 15.9567 7.43231 15.9188C7.42263 15.8812 7.3843 15.8872 7.35546 15.8747C7.3268 15.8617 7.31712 15.7981 7.29813 15.7604C7.27879 15.7228 7.28512 15.6808 7.25347 15.6494C7.24379 15.6394 7.21531 15.6524 7.19544 15.6494C7.17574 15.6464 7.14409 15.6062 7.12685 15.6006C7.09661 15.59 7.0544 15.596 7.04438 15.5679ZM16.3486 13.8026C16.2489 13.7236 16.283 13.6498 16.3987 13.5845C17.1116 13.1818 18.9116 12.3345 19.943 11.9016C20.8242 11.5326 23.2577 10.4858 23.9365 10.2278C24.0988 10.1665 24.1648 10.1688 24.2371 10.2696C24.4205 10.5274 24.5993 10.8746 24.7676 11.3057C24.9232 11.7035 25.057 12.2788 25.1098 12.6404C25.1485 12.9052 25.0563 12.9505 24.9473 13.015C24.1941 13.46 22.3359 14.5349 21.5631 15.017C20.8082 15.488 19.4269 16.365 18.9587 16.676C18.7613 16.8072 18.7941 16.8613 18.6598 16.6588C18.6192 16.5982 18.5541 16.4567 18.5355 16.4186C18.5161 16.3801 18.2575 16.0768 18.2284 16.0389C18.1999 16.0006 18.0561 15.773 18.0181 15.7354C17.9793 15.697 17.8549 15.4697 17.8168 15.4441C17.7784 15.419 17.7134 15.3779 17.6851 15.3403C17.656 15.302 17.6059 15.2228 17.5773 15.1979C17.5482 15.1721 17.4835 15.0837 17.4835 15.0837L17.3951 14.9761L17.3184 14.8619C17.3184 14.8619 17.2512 14.7488 17.2036 14.7234C17.1558 14.6979 17.0888 14.5971 17.0696 14.5581C17.0502 14.5209 16.8969 14.2678 16.8202 14.2041C16.7191 14.1206 16.6194 14.0341 16.5211 13.9449C16.4824 13.9071 16.4316 13.8678 16.3486 13.8026ZM19.0903 17.2687C19.0162 17.1713 19.1109 17.1574 19.1958 17.114C19.51 16.954 21.3851 16.1789 23.0179 15.6113C24.6441 15.0465 26.9986 14.4015 27.3478 14.3084C27.4952 14.2685 27.5513 14.2984 27.626 14.4571C27.7125 14.6412 27.8923 15.2539 27.9614 15.7479C28.0493 16.3745 27.9654 17.0137 27.9232 17.1653C27.8877 17.2921 27.7548 17.3009 27.4375 17.4143C27.2473 17.483 26.4355 17.7589 26.1028 17.886C25.7202 18.033 24.7048 18.4208 24.3306 18.5895C23.8681 18.7976 23.2586 19.063 23.2586 19.063L20.0295 19.1357C20.0295 19.1357 19.9815 18.8484 19.9528 18.8222C19.9238 18.7971 19.8758 18.6577 19.8473 18.6201C19.8188 18.5818 19.7803 18.4429 19.7803 18.4429C19.7803 18.4429 19.7516 18.2913 19.7228 18.2657C19.694 18.2404 19.6247 18.0221 19.596 17.9968C19.5667 17.9714 19.5021 17.8611 19.474 17.8103C19.4448 17.7599 19.4283 17.6965 19.3804 17.6458C19.3329 17.595 19.2728 17.4937 19.2345 17.4686C19.1958 17.4431 19.1638 17.3653 19.0903 17.2687ZM15.1846 9.04658C15.0927 9.05053 15.0123 9.04937 14.9903 9.01337C14.978 8.99247 14.991 8.95879 14.9689 8.93255C14.9457 8.90584 14.9007 8.9135 14.8862 8.92836C14.8718 8.9423 14.8757 8.9423 14.8431 8.9567C14.8108 8.97087 14.6888 8.9135 14.6455 8.93255C14.6024 8.95182 14.5106 8.9574 14.4802 8.93789C14.4489 8.91698 14.444 8.8062 14.3905 8.77601C14.3622 8.76022 14.272 8.69519 14.2431 8.62923C14.2143 8.56257 14.1389 8.46387 14.123 8.41672C14.1067 8.36934 14.0821 8.29363 14.0705 8.25415C14.0594 8.21559 14.0312 8.13593 14.0135 8.10736C13.9954 8.07857 13.9709 8.05395 13.9523 8.02677C13.9333 7.9996 13.9177 7.90949 13.8983 7.87024C13.8886 7.85003 13.8667 7.80985 13.8552 7.77966C13.8438 7.7497 13.8447 7.71463 13.8338 7.68026C13.8229 7.64542 13.7905 7.59502 13.7833 7.56181C13.7763 7.52837 13.7655 7.30518 13.7689 7.13494C13.7724 6.96377 13.7694 6.81304 13.7833 6.74104C13.7967 6.6723 13.8229 6.6082 13.8338 6.53666C13.8445 6.46583 13.9127 6.23335 13.9308 6.12442C13.9484 6.01526 13.9917 5.81089 14.0135 5.73959C14.0348 5.66852 14.0924 5.479 14.1213 5.41699C14.1498 5.35521 14.2577 5.14201 14.3007 5.07094C14.3436 4.99964 14.5414 4.73882 14.5882 4.69121C14.7168 4.56217 14.8485 4.43878 14.9833 4.32124C15.0164 4.29383 15.0696 4.29267 15.0696 4.29267L15.1162 4.23066C15.1162 4.23066 15.1416 4.19304 15.1664 4.16912C15.1917 4.14589 15.2527 4.14589 15.2527 4.14589C15.2527 4.14589 15.3225 4.07343 15.3962 4.09317C15.4287 4.10246 15.4504 4.02698 15.4792 4.01769C15.5077 4.00794 15.6118 3.98936 15.6262 4.00794C15.6408 4.02698 15.6587 4.05044 15.7162 4.06507C15.7737 4.079 15.8235 4.06135 15.8457 4.06971C15.8752 4.0804 15.9065 4.13126 15.9283 4.14032C15.9494 4.1503 16.2118 4.46942 16.2477 4.54861C16.26 4.57648 16.2635 4.62827 16.2696 4.64383C16.2802 4.67101 16.3254 4.7077 16.341 4.79549C16.3533 4.86517 16.4063 4.88653 16.4131 4.98547C16.4167 5.04539 16.5011 5.09509 16.5244 5.21772C16.5303 5.24722 16.5415 5.36799 16.5485 5.38633C16.5558 5.40561 16.5749 5.41188 16.5855 5.45485C16.596 5.49781 16.6034 5.55982 16.6001 5.61138C16.596 5.66387 16.6679 5.8585 16.6609 5.97694C16.6545 6.09121 16.6388 6.20425 16.6143 6.31417C16.5925 6.40382 16.6073 6.57429 16.5925 6.64629C16.5784 6.71689 16.5389 6.88782 16.5315 6.94031C16.5245 6.99257 16.413 7.35279 16.3952 7.39088C16.3771 7.42873 16.314 7.59131 16.2853 7.63869C16.2566 7.6863 16.0352 8.0932 15.996 8.14638C15.9563 8.19817 15.8575 8.29595 15.8383 8.3352C15.8119 8.38862 15.7908 8.45156 15.763 8.51078C15.7187 8.60368 15.6593 8.5347 15.6299 8.60043C15.59 8.69031 15.5138 8.71423 15.5007 8.76672C15.4806 8.84801 15.4296 8.91791 15.4073 8.9423C15.354 9.00083 15.2411 9.04402 15.1846 9.04658ZM8.73254 21.5458C8.73254 21.5458 7.78735 21.9671 7.4105 22.1438C7.05265 22.3119 6.66138 22.4945 6.39725 22.6373C6.07756 22.8092 5.51185 23.1137 5.37732 23.1757C5.16683 23.2735 5.07732 23.2152 5.01964 23.0503C4.96214 22.8861 4.82621 22.5416 4.74954 22.1371C4.67304 21.7323 4.64526 21.3967 4.64104 21.2717C4.63647 21.1465 4.71472 20.924 4.83008 20.8407C4.94579 20.757 5.21994 20.5355 5.44045 20.3678C5.86144 20.0484 7.31273 19.0259 8.17703 18.4362C9.09233 17.8103 10.5359 16.8866 11.3116 16.3803C12.0879 15.8745 13.362 15.0774 13.5155 14.9889C13.6685 14.9002 13.8313 14.7989 13.908 14.7989C13.9845 14.7989 13.956 14.8496 13.956 14.8876C13.956 14.9257 13.9296 14.9415 13.9201 15.017C13.9103 15.093 13.9173 15.1787 13.8983 15.2551C13.879 15.3303 13.8288 15.403 13.8195 15.4534C13.8097 15.504 13.8023 15.685 13.7641 15.7479C13.726 15.8111 13.5895 16.1622 13.5605 16.3267C13.532 16.4911 13.4673 16.7603 13.4386 16.8232C13.41 16.8866 13.3189 17.1237 13.309 17.1999C13.2999 17.2759 13.2375 17.4561 13.2183 17.532C13.199 17.608 13.0843 17.8897 13.0653 17.9399C13.0458 17.9907 12.9691 18.3291 12.9498 18.3795C12.9308 18.4306 12.8541 18.5818 12.8541 18.5818L12.8158 18.7971C12.8158 18.7971 12.7106 18.9998 12.7106 19.0377C12.7106 19.076 12.6339 19.4177 12.5958 19.4936C12.5573 19.5689 12.3751 20.1128 12.3369 20.3028C12.2984 20.4923 12.2312 20.771 12.2123 20.8341C12.1933 20.8971 12.0879 21.1249 12.0689 21.2011C12.0496 21.277 11.9634 21.6563 11.9346 21.7323C11.9059 21.8084 11.8291 22.0235 11.8291 22.0992C11.8291 22.1754 11.7718 22.3401 11.7236 22.4785C11.6759 22.6178 11.6184 22.8584 11.5897 22.9472C11.5609 23.0354 11.5224 23.0974 11.5127 23.1483C11.5032 23.1987 11.4941 23.3392 11.4842 23.3773C11.4752 23.4114 11.4656 23.4451 11.4552 23.4785C11.4077 23.5087 8.83031 24.9712 8.46665 25.199C8.10229 25.4266 5.48758 27.0633 5.32474 27.1648C5.16208 27.2661 4.94491 27.4862 4.78823 27.3459C4.58108 27.1595 4.38448 26.7711 4.25136 26.4262C4.14057 26.139 4.01994 25.6589 4.00218 25.3131C3.98037 24.8774 4.11824 24.7972 4.602 24.4266C4.8394 24.245 6.72099 22.9348 7.32433 22.5221C7.49561 22.4058 8.73254 21.5458 8.73254 21.5458Z" fill="#EE0000"/>
</g>
<defs>
<clipPath id="clip0_1148_2822">
<rect width="24" height="24" fill="white" transform="translate(4 4)"/>
</clipPath>
</defs>
</svg>
