<svg width="32" height="32" viewBox="0 0 32 32" fill="none" xmlns="http://www.w3.org/2000/svg">
<path d="M0 16C0 7.16344 7.16344 0 16 0C24.8366 0 32 7.16344 32 16C32 24.8366 24.8366 32 16 32C7.16344 32 0 24.8366 0 16Z" fill="#F6F5FF"/>
<g clip-path="url(#clip0_1148_2843)">
<path fill-rule="evenodd" clip-rule="evenodd" d="M8.52308 9.25592C12.8933 9.27275 17.2633 9.25592 21.6332 9.20538C21.6264 9.1747 21.608 9.15788 21.5781 9.15484C21.107 7.65282 20.0604 6.65045 18.4383 6.14786C18.0635 6.02758 17.6779 5.96021 17.2815 5.94571C13.0951 5.92888 8.90867 5.912 4.72224 5.89517C4.13674 5.65481 3.90726 5.24212 4.03368 4.657C4.19816 4.3376 4.46439 4.12701 4.83241 4.02528C9.09227 3.99157 13.3522 3.99157 17.612 4.02528C20.4465 4.36969 22.4204 5.74265 23.5336 8.14409C23.7318 8.66923 23.8603 9.20826 23.9192 9.76129C26.7301 11.0271 28.0889 13.0991 27.9955 15.9774C27.4665 18.8886 25.6395 20.6995 22.5146 21.4102C22.2218 21.4513 21.928 21.4849 21.6332 21.5113C19.1912 21.545 16.749 21.545 14.307 21.5113C13.6929 21.2834 13.4635 20.8708 13.6184 20.2731C13.7829 19.9537 14.0491 19.7431 14.4171 19.6414C16.8225 19.6246 19.2278 19.6077 21.6332 19.5908C23.9391 19.2441 25.3254 18.0227 25.7921 15.9269C25.973 14.1701 25.2661 12.8056 23.6714 11.8333C22.6377 14.4742 20.5996 15.965 17.557 16.3059C14.9864 16.3312 12.4158 16.3396 9.84511 16.3312C9.85431 20.0036 9.84511 23.676 9.81756 27.3484C9.49124 27.9256 8.98628 28.1194 8.30274 27.9295C8.00038 27.8048 7.80758 27.5942 7.72435 27.2978C7.68761 21.486 7.68761 15.6742 7.72435 9.86237C7.8847 9.53802 8.15092 9.33587 8.52308 9.25592Z" fill="#E30347"/>
<path fill-rule="evenodd" clip-rule="evenodd" d="M21.5781 9.15484C21.608 9.15788 21.6264 9.1747 21.6332 9.20538C17.2633 9.25592 12.8933 9.27275 8.52308 9.25592C12.8748 9.22221 17.2264 9.18855 21.5781 9.15484Z" fill="#EB4075"/>
<path fill-rule="evenodd" clip-rule="evenodd" d="M9.84511 11.1258C13.7378 11.1174 17.6304 11.1258 21.523 11.1511C21.5518 11.1794 21.5701 11.2131 21.5781 11.2521C20.9375 13.0189 19.6155 14.0634 17.612 14.3855C15.0231 14.4107 12.4341 14.4192 9.84511 14.4107C9.84511 13.3157 9.84511 12.2208 9.84511 11.1258Z" fill="#FEFEFE"/>
</g>
<defs>
<clipPath id="clip0_1148_2843">
<rect width="24" height="24" fill="white" transform="translate(4 4)"/>
</clipPath>
</defs>
</svg>
