<svg width="32" height="32" viewBox="0 0 32 32" fill="none" xmlns="http://www.w3.org/2000/svg">
<path d="M0 16C0 7.16344 7.16344 0 16 0C24.8366 0 32 7.16344 32 16C32 24.8366 24.8366 32 16 32C7.16344 32 0 24.8366 0 16Z" fill="#F6F5FF"/>
<g clip-path="url(#clip0_1150_2948)">
<path d="M19.5879 8.33209C18.3164 5.66021 15.8962 4 13.2693 4H4.375L4.38277 27.1111L10.246 20.7828H13.2693C18.7687 20.7828 22.249 13.9233 19.5879 8.33028V8.33209ZM11.7335 16.9096H4.37811V11.2189C4.37811 8.8578 6.02422 6.94467 8.05581 6.94467C10.0874 6.94467 11.7335 8.8578 11.7335 11.2189V16.9096Z" fill="#5C8AFF"/>
<path d="M20.5 16.8891V11.3054C20.5 8.98853 22.0945 7.11133 24.0625 7.11133C26.0305 7.11133 27.625 8.98853 27.625 11.3054V16.8891H20.5Z" fill="#35EC91"/>
</g>
<defs>
<clipPath id="clip0_1150_2948">
<rect width="24" height="24" fill="white" transform="translate(4 4)"/>
</clipPath>
</defs>
</svg>
