<svg width="32" height="32" viewBox="0 0 32 32" fill="none" xmlns="http://www.w3.org/2000/svg">
<path d="M0 16C0 7.16344 7.16344 0 16 0C24.8366 0 32 7.16344 32 16C32 24.8366 24.8366 32 16 32C7.16344 32 0 24.8366 0 16Z" fill="#F6F5FF"/>
<g clip-path="url(#clip0_1148_2191)">
<path d="M25.08 4.43352C24.6644 4.12051 24.1283 4.38302 23.7528 4.59504C22.636 5.39742 22.1828 6.74265 21.8821 7.95385C21.9975 7.89332 22.1202 7.84023 22.2451 7.81498C22.3353 7.84023 22.4507 7.86065 22.5207 7.94122C22.7009 7.76448 22.8888 7.56509 23.1342 7.52499C23.2897 7.52499 23.4046 7.56286 23.4599 7.71398C23.4746 7.81015 23.4949 7.86548 23.4098 7.94122C23.2543 7.94642 23.1268 8.05484 23.0214 8.15584L22.9838 8.63519C23.0292 8.73618 23.1592 8.64521 23.2344 8.68569C23.3247 8.73098 23.4046 8.75401 23.4348 8.8498C23.4746 9.17284 23.367 9.36183 23.272 9.64476C23.0767 10.0536 22.8663 10.586 22.3704 10.7171C22.2701 10.7371 22.2127 10.6465 22.1578 10.5908C22.1375 10.6766 22.0575 10.7828 22.0325 10.8686C21.9824 10.9543 21.9323 11.0022 21.832 11.0074C21.846 11.0631 21.8541 11.1404 21.8696 11.1838C22.2852 11.0123 22.8088 11.0728 23.1843 11.3101C23.2845 10.654 23.5023 9.96 23.6777 9.33435C24.0034 8.31995 24.3637 7.3256 24.8096 6.3617C24.9897 5.95772 25.1651 5.54891 25.3055 5.13008C25.3556 4.86757 25.3004 4.58984 25.08 4.43352Z" fill="#CB006B"/>
<path d="M22.8614 15.6582C22.8665 15.734 22.7538 15.7518 22.7836 15.8272C22.6535 16.2564 22.6185 16.751 22.1325 16.9377C22.0275 16.953 21.9299 16.9604 21.8448 16.8999C21.5791 16.7231 21.6218 16.4406 21.5566 16.168L21.5065 14.4392C21.4465 14.4949 21.3013 14.7497 21.281 14.8306C21.2913 15.3553 21.2836 15.7113 21.2187 16.2312C21.0983 16.8115 21.0231 17.5255 20.3422 17.7075C20.0117 17.788 19.7887 17.6544 19.5282 17.4676C18.8871 18.0026 18.1734 18.5756 17.4873 18.9844C16.6259 19.4385 15.8193 20.0036 14.938 20.3976L14.7828 20.4076L13.8436 19.7641C13.7486 20.1224 13.5057 20.4733 13.2051 20.7106L14.5124 21.523C14.6476 21.5634 14.7876 21.654 14.9431 21.5935C15.589 21.3767 16.145 20.9475 16.7412 20.6096L19.6159 18.9844L20.763 18.3231L20.9881 18.2321C21.1185 18.5199 21.2187 18.8229 21.4339 19.075C21.494 19.1964 21.5618 19.3048 21.6819 19.2595C21.7869 19.2643 21.7346 19.3728 21.7947 19.4233C21.8245 19.4233 22.0275 19.421 22.0574 19.3854C22.0224 19.32 21.9848 19.2543 22.0198 19.1838C22.0651 19.1128 22.0625 19.118 22.1576 19.1333C22.358 19.2391 22.333 19.5116 22.4708 19.6505C22.6587 19.5495 22.4531 19.1611 22.4583 18.9439C22.6134 18.7976 22.7084 18.7419 22.9089 18.7167C23.0791 18.6914 23.2471 18.8303 23.3923 18.7419C23.7177 17.9395 23.3573 17.1019 23.1417 16.3596C23.1016 16.1023 22.9413 15.8903 22.8614 15.6582Z" fill="#CB006B"/>
<path d="M21.9951 8.62263C22.0051 9.14765 22.0327 9.79595 22.0828 10.3262C22.1278 10.2957 22.2906 10.1899 22.3459 10.1747C22.5559 10.0031 22.6536 9.7228 22.7339 9.48071C22.8691 9.20818 22.5261 9.3192 22.4457 9.17773C22.2254 8.95569 22.3533 8.59998 22.3831 8.33227C22.288 8.40802 22.0854 8.52684 21.9951 8.62263Z" fill="#CB006B"/>
<path d="M22.3958 12.8496C22.5859 12.6981 22.7414 12.4081 22.6213 12.1556C22.576 12.0699 22.4459 11.941 22.3457 11.941C22.2156 11.9362 22.0576 12.0572 22.0078 12.1683L22.2956 12.8496H22.3958Z" fill="#CB006B"/>
<path d="M15.6843 10.1015C16.6059 9.72799 17.4773 9.23342 18.4541 9.00618C18.9349 8.89033 19.4508 9.00135 19.8966 9.09195C19.9217 8.93043 19.8763 8.78414 20.0418 8.69837C20.4025 8.6178 20.4298 9.15284 20.6302 9.30397C20.6803 9.0771 20.5853 8.75407 20.7555 8.57213C20.8454 8.45108 20.9983 8.54205 21.1184 8.52163L21.6818 8.09277C21.1309 7.77977 20.4626 7.51762 19.8262 7.41143C18.3638 7.16414 17.1667 7.95168 15.9297 8.45628L15.7695 8.48153C14.6928 7.94128 13.7009 7.20462 12.4588 7.06835C11.6526 7.01265 10.8063 7.11365 10.08 7.39621C9.08815 7.71924 8.30185 8.55208 7.51039 9.30397L7.4905 9.27872C7.44038 8.48153 7.63088 7.74969 7.91607 7.07317C8.08667 6.65954 8.3269 6.27598 8.47724 5.85678C8.48718 5.74576 8.41202 5.65999 8.3269 5.60467C8.16662 5.53895 8.04135 5.65517 7.93118 5.75616C7.55055 6.34653 7.2252 6.96215 7.00965 7.62345C6.83942 8.09277 6.77937 8.60777 6.64893 9.09195C6.60914 9.1729 6.51886 9.24344 6.42859 9.21337C6.24841 9.10717 6.21341 8.90036 6.20346 8.70357C6.2182 7.5024 6.74915 6.50805 7.29005 5.52372L7.31511 5.31171C7.30037 5.23114 7.2252 5.17062 7.15483 5.13014C7.02992 5.0596 6.94959 5.18064 6.85932 5.24116C6.40869 5.85678 6.02807 6.50285 5.77752 7.20462C5.58739 7.69399 5.50228 8.21902 5.38695 8.73884C5.35194 8.82461 5.25688 8.88514 5.16661 8.85989C4.95106 8.77931 4.95622 8.52163 4.92637 8.32001C4.98643 7.14892 5.54207 6.17982 6.04318 5.19067L6.10803 4.9586C6.09808 4.86763 6.02291 4.78706 5.94775 4.74139C5.76757 4.69089 5.62755 4.83756 5.51223 4.97382C4.83094 6.10407 4.23514 7.29039 4.2952 8.71359C4.36005 10.0863 5.3969 11.0606 5.78747 12.297C5.898 12.8321 5.71267 13.3772 5.67251 13.9122L5.7801 14.0359C5.87516 14.076 5.87295 14.21 5.89285 14.3006C5.90795 14.8962 5.72741 15.628 5.79262 16.2188L6.0056 16.042C6.17067 15.9005 6.38106 15.6737 6.60656 15.6885C6.65667 15.1639 6.53397 14.6036 6.64414 14.099C6.74436 13.7655 6.87701 13.4277 7.23257 13.3419C7.3129 13.3267 7.31769 13.3619 7.35785 13.4176C7.41275 13.5134 7.37038 13.5688 7.34532 13.6698C7.17509 13.8617 7.02476 14.1391 7.06971 14.4016C7.08998 14.4773 7.22999 14.4547 7.29521 14.4647C7.37517 14.51 7.30037 14.533 7.34532 14.6036C7.32027 14.8104 7.14009 14.9441 7.04466 15.1208C7.04466 15.2419 7.04245 15.4969 7.08224 15.6128C7.19757 15.5675 7.33758 15.4212 7.45807 15.3859C7.62314 15.305 7.62314 15.5296 7.78342 15.4995C7.91865 15.348 8.10656 15.0176 8.17178 14.8308L8.07156 14.7551C7.99639 14.7851 7.9437 14.7499 7.85859 14.7551C7.75358 14.7447 7.66846 14.7499 7.60803 14.6541C7.50818 14.1744 7.72594 13.8643 7.92123 13.4804C8.0314 13.3088 8.14157 13.0842 8.36707 13.1299C8.36707 12.3022 8.58225 11.5452 8.98313 10.8686C9.64415 9.89954 10.6058 9.0667 11.7175 8.86508C12.9397 8.60257 13.9014 9.30916 14.8579 9.85424C15.1184 9.96526 15.3586 10.2073 15.6843 10.1015Z" fill="#CB006B"/>
<path d="M21.519 10.3892C21.4888 9.91463 21.5116 9.38219 21.5065 8.91286C21.4214 8.91806 21.2559 8.93291 21.1808 8.96335C21.1959 9.28119 21.1535 9.62947 21.1436 9.94768L21.519 10.3892Z" fill="#CB006B"/>
<path d="M10.8642 17.6063L10.6814 17.4753C10.446 17.3186 10.163 17.0461 9.9375 16.8745C10.0628 17.5206 10.1531 18.2498 10.0628 18.9312L10.9368 19.4131L11.0646 19.4736L10.9895 19.1836C10.7791 18.6538 10.824 18.1919 10.8642 17.6063Z" fill="#CB006B"/>
<path d="M9.44839 16.395L9.43328 16.3193C9.31832 16.1225 9.16283 15.9409 9.07293 15.7289C9.02282 15.638 8.95244 15.6053 8.9226 15.5243C8.86991 15.2444 8.69452 14.9618 8.63446 14.7546C8.59946 15.2544 8.36143 15.7085 8.04603 16.0921C7.9458 16.1478 7.9307 16.1225 7.82053 16.0921C7.71036 16.0772 7.59761 15.9305 7.48265 15.9914C7.31242 16.183 7.17719 16.4882 6.88169 16.4582C6.74646 16.3924 6.66872 16.264 6.59355 16.1678C6.39827 16.4303 6.05265 16.4656 5.76709 16.6475C5.66687 16.6876 5.66687 17.0259 5.58691 16.9501C5.62708 17.3185 5.70703 17.682 5.83231 18.0102C5.85736 17.8587 5.89974 17.7856 6.00512 17.6694C6.12524 17.6541 6.21035 17.5431 6.33047 17.5179C7.00181 17.4321 7.57513 17.8765 7.99592 18.376C7.98597 18.0429 8.09356 17.6014 8.13372 17.2784C8.17867 17.0612 8.15878 16.8595 8.40896 16.7734C8.5394 16.7381 8.57182 16.7686 8.67204 16.8239C8.77742 16.9249 8.82237 17.0459 8.84743 17.1774L8.87249 18.7042L8.97271 19.1204C9.00771 19.1657 9.12267 19.2719 9.19784 19.2467C9.238 19.2266 9.3408 19.1609 9.3607 19.1204L9.42334 18.5653C9.44323 17.995 9.32827 17.4421 9.22289 16.9123C9.19784 16.6954 9.26305 16.5261 9.44839 16.395Z" fill="#CB006B"/>
<path d="M8.3096 19.3602C8.20459 19.749 7.67106 20.4203 7.83613 20.574C8.04652 20.7051 8.35714 20.7051 8.58263 20.6093C8.78308 20.5439 8.92309 20.3215 8.99826 20.14C8.91056 20.0037 8.45994 19.6027 8.3096 19.3602Z" fill="#CB006B"/>
<path d="M8.12207 14.1995L8.54285 14.3662C8.50269 14.1542 8.44005 13.8033 8.38515 13.6065C8.27498 13.7376 8.12207 14.0179 8.12207 14.1995Z" fill="#EC008C"/>
<path d="M6.85724 18.2626C6.77729 18.2526 6.58163 18.2248 6.50684 18.3005C6.59674 18.8103 6.66196 19.3855 6.63174 19.9409C6.62695 19.9762 6.72718 20.0241 6.75702 20.0293C7.1078 19.8474 7.38562 19.4211 7.34545 19.0071C7.31045 18.7145 7.12254 18.3937 6.85724 18.2626Z" fill="#CB006B"/>
<path d="M27.621 14.7137C27.3159 14.2322 26.6759 14.3595 26.2009 14.4401C25.2466 14.6818 24.4552 14.1546 23.6261 13.9054C23.4202 13.8315 23.1895 13.8289 22.9983 13.735C23.4132 13.1101 23.9021 12.3983 23.5539 11.6145C23.3907 11.3182 23.0834 11.1396 22.7772 11.072C22.205 10.9565 21.6508 11.1336 21.2695 11.5814C21.1313 11.7749 21.0034 12.0485 21.1412 12.2895C21.5487 13.517 21.4423 14.9261 21.5001 16.2227C21.5679 16.5049 21.5915 16.8629 21.9132 16.991C22.1044 17.0901 22.2684 16.9419 22.4025 16.8198C22.8977 16.2543 22.8903 15.4823 22.8479 14.7308L22.8726 14.7052C23.3848 14.8263 23.8185 15.14 24.3012 15.3372C25.1866 15.707 26.362 16.0738 27.3089 15.5748C27.4585 15.4976 27.6022 15.3702 27.6759 15.2128C27.7444 15.0505 27.6825 14.8645 27.621 14.7137ZM22.3535 12.8275L22.3233 12.8127L22.0469 12.1948C22.0955 12.0682 22.2252 11.9862 22.3553 11.9899C22.4504 11.9888 22.5263 12.0638 22.5723 12.1391C22.705 12.395 22.5723 12.679 22.3535 12.8275Z" fill="#231F20"/>
<path d="M24.1056 20.0077C23.7998 19.9602 23.4785 19.8878 23.2707 19.6376C23.4 19.5403 23.4185 19.3988 23.4575 19.2722C23.4358 19.1007 23.4837 18.8834 23.3521 18.7535C23.2309 18.6484 23.0806 18.6298 22.9155 18.6465C22.7202 18.6841 22.5308 18.7817 22.4074 18.9395C22.4645 19.1508 22.4465 19.3479 22.4984 19.5544C22.4885 19.5644 22.4837 19.5744 22.4686 19.5696C22.3768 19.414 22.3551 19.2325 22.2235 19.0977C22.1731 19.0728 22.1229 19.0431 22.0732 19.0739C21.7891 19.2484 22.092 19.4876 22.134 19.6892C22.1815 19.9361 22.2449 20.2632 22.0364 20.4574C21.9966 20.4778 21.9365 20.4786 21.9059 20.4333C21.8437 20.2168 21.8518 19.9948 21.8595 19.7623C21.8425 19.5911 21.8709 19.3988 21.7843 19.2533C21.6786 19.1939 21.5691 19.2707 21.4792 19.3119C21.431 19.4942 21.4479 19.7059 21.4199 19.8982C21.4881 20.2205 21.3768 20.6252 21.6546 20.8447C21.7652 20.8736 21.9 20.8625 21.9999 20.8209C22.2394 20.7429 22.4273 20.4938 22.4903 20.2658C22.4951 20.251 22.5154 20.2506 22.5253 20.2658C22.4914 20.372 22.4977 20.5235 22.6285 20.5725C22.6989 20.597 22.7843 20.6263 22.8543 20.6007C22.9579 20.4533 22.9863 20.2762 22.9793 20.0846C22.9892 20.0542 23.0139 20.0133 23.0489 20.0181C23.3776 20.343 23.8009 20.5963 24.2552 20.4351C24.3798 20.3835 24.4236 20.2417 24.3971 20.1158C24.3363 20.0308 24.2055 19.9814 24.1056 20.0077ZM23.0036 19.4582C22.9734 19.4686 22.9479 19.4389 22.9479 19.4137C22.9667 19.2822 22.8706 19.1771 22.9041 19.0405C22.949 19.0097 23.0139 18.9941 23.0644 19.0238C23.1557 19.1641 23.0824 19.3364 23.0036 19.4582Z" fill="#231F20"/>
<path d="M11.2193 14.9514C11.2782 14.85 11.4341 14.8987 11.4429 14.7624C11.5722 14.6904 11.6308 14.5133 11.7756 14.4817C11.8814 14.5411 11.9577 14.6614 12.0829 14.6603C12.1983 14.664 12.2819 14.527 12.3615 14.4453C12.6577 14.0235 12.8534 13.5371 12.7779 12.9876C12.7211 12.8168 12.4864 12.8695 12.4245 12.6983C12.4267 12.421 12.5649 12.1874 12.7631 11.9936L13.0737 11.9754L13.1139 12.0051C13.1227 12.3987 13.0914 12.7778 13.0601 13.1565C13.0726 13.4339 12.9805 13.7328 13.0881 13.9942C13.1342 14.0944 13.2403 14.1895 13.3504 14.1936C13.5409 14.2118 13.6246 14.0291 13.6931 13.8921C13.8368 13.184 13.7841 12.4325 13.832 11.685L13.8814 11.6189C14.0262 11.5469 14.1603 11.4496 14.2845 11.3275C14.3092 11.3018 14.3446 11.3319 14.3449 11.3572C14.2661 12.0088 14.1319 12.6363 14.0833 13.298C14.0697 13.4394 14.056 13.601 14.1721 13.7008C14.2628 13.7554 14.3534 13.8 14.4684 13.7784C14.713 13.6852 14.7252 13.4027 14.7631 13.1799C14.807 13.0585 14.7506 12.9025 14.8398 12.7956C14.8843 12.77 14.9341 12.7444 14.9993 12.7536C15.0958 12.884 15.1323 13.0351 15.2189 13.1654C15.2849 13.2657 15.3866 13.416 15.5317 13.3897C15.702 13.3878 15.7602 13.2107 15.8442 13.0938C16.0148 13.1324 16.2554 13.1301 16.4249 13.0577C16.7193 12.9438 16.8162 12.6148 16.909 12.3512H16.9238C16.9654 12.487 16.9569 12.6434 17.073 12.7533C17.1338 12.8034 17.2289 12.8123 17.304 12.8067C17.6331 12.6367 17.6242 12.2535 17.6762 11.9297C17.6806 11.8844 17.7152 11.8384 17.7705 11.848C18.038 12.0474 18.2565 12.3987 18.6069 12.3545C18.7665 12.2724 18.8501 12.1102 18.9087 11.9579C19.0365 11.7348 18.8917 11.2718 19.3026 11.2929C19.4595 11.4578 19.5071 11.6999 19.7186 11.8139C19.8995 11.8826 19.9776 11.6546 20.1478 11.6631C20.4466 11.4834 20.3829 11.1106 20.4452 10.8121L20.4846 10.7564C20.5914 10.9369 20.6235 11.1437 20.7705 11.3085C20.821 11.3687 20.9017 11.4132 20.9864 11.3824C21.0911 11.3156 21.1401 11.199 21.1589 11.088C21.1574 10.4014 21.2005 9.68928 21.2189 9.01796C21.2838 8.97155 21.3888 8.96041 21.4588 8.97489C21.4747 9.57566 21.4455 10.1564 21.5111 10.746C21.5126 10.8722 21.5539 10.9881 21.6747 11.0575C21.7503 11.1021 21.8549 11.0757 21.9301 11.0497C22.0793 10.9625 22.0977 10.7958 22.1515 10.6591C22.227 10.7037 22.3085 10.8292 22.433 10.7672C22.9721 10.5652 23.1766 9.96738 23.3825 9.50102C23.4551 9.23777 23.6217 8.86275 23.349 8.65334C23.2632 8.55346 23.1088 8.65594 23.0181 8.59133C23.0314 8.44467 23.0502 8.3032 23.069 8.16173C23.1685 8.09007 23.2676 7.98314 23.4076 7.98165C23.5929 7.97979 23.5207 7.73808 23.4894 7.64265C23.4282 7.51715 23.3026 7.48299 23.1821 7.45886C22.9323 7.50193 22.7031 7.65045 22.545 7.86915L22.5152 7.86952C22.4393 7.79934 22.3534 7.74476 22.2484 7.74068C21.8188 7.8814 21.436 8.15765 21.0937 8.48922C20.9886 8.50036 20.8829 8.43576 20.7878 8.48217C20.5539 8.62066 20.6471 8.93776 20.6294 9.16982L20.59 9.22589C20.4629 9.05546 20.4507 8.82859 20.2539 8.68416C20.1935 8.65445 20.1279 8.6047 20.0531 8.63552C19.9783 8.64666 19.9489 8.73243 19.9194 8.78849L19.8254 10.4449L19.7908 10.5058C19.7808 10.5009 19.7661 10.511 19.7609 10.4957C19.5211 10.0591 19.3564 9.59125 19.0819 9.17019C19.0358 9.08479 18.9503 9.03021 18.8501 9.04135C18.7502 9.09259 18.7617 9.20361 18.7222 9.28493L18.4223 11.3872L18.3932 11.5038C18.3586 11.5495 18.328 11.4894 18.3026 11.4693C18.1766 11.3594 18.0649 11.2294 18.0085 11.0787C18.1412 10.8451 18.3549 10.6409 18.4024 10.3732C18.4396 10.1103 18.3571 9.85376 18.1552 9.67888C17.9732 9.51439 17.6979 9.53704 17.4827 9.57454C17.3232 9.65177 17.0376 9.63952 17.0351 9.89201C17.0454 10.4319 17.0859 10.9866 17.0211 11.5172L16.9912 11.5632C16.9592 11.3564 16.9422 11.1296 16.9348 10.9175C16.8619 10.6257 16.8936 10.2618 16.6758 10.0268C16.6003 9.98706 16.5104 9.9982 16.4304 10.019C16.3405 10.0502 16.2764 10.1467 16.2572 10.2329C16.2104 10.5867 16.279 10.9443 16.3276 11.287C16.3611 11.6449 16.37 12.0337 16.2127 12.333C16.1526 12.3586 16.0977 12.3593 16.052 12.2992C15.9846 12.0827 15.972 11.8254 15.9897 11.5829C15.9754 11.1392 16.2657 10.596 15.8866 10.2414C15.8011 10.2069 15.706 10.208 15.6213 10.244C15.5365 10.2904 15.4975 10.3818 15.4628 10.4575C15.4061 10.7813 15.3995 11.1244 15.4079 11.4778C15.423 11.4979 15.3932 11.5283 15.3681 11.5187C15.1448 11.2332 15.1062 10.8648 14.8335 10.6101L14.7377 10.5759C14.5723 10.5622 14.5041 10.7497 14.4249 10.8414C14.1419 10.6019 13.7989 10.8425 13.5192 10.9209C13.2001 11.0909 12.79 11.1556 12.6032 11.5205C12.528 11.496 12.4079 11.4975 12.3427 11.5231C11.954 11.7188 11.7882 12.1495 11.6714 12.5242C11.6323 12.6356 11.6187 12.767 11.5748 12.8784C11.4134 12.7893 11.2543 12.9018 11.1201 12.989C11.0542 12.9241 11.0531 12.8131 11.0774 12.7321C11.2646 12.392 11.8442 12.2498 11.6946 11.8024C11.6636 11.737 11.5932 11.6873 11.5328 11.6524C11.4425 11.6382 11.3375 11.6542 11.2679 11.7207C10.9901 12.001 10.6323 12.2921 10.4705 12.6371C10.5056 13.1665 10.5807 13.6756 10.5811 14.2207L10.5313 14.2719C10.3899 14.1419 10.2233 14.0124 10.1216 13.862C10.2185 13.5078 10.4252 13.142 10.2712 12.7451C10.2605 12.6794 10.175 12.64 10.1691 12.5695C10.0221 12.3942 9.81137 12.3408 9.58661 12.3835C9.32721 12.4971 8.96206 12.5461 8.87511 12.8799C8.95248 13.6362 8.93517 14.4238 8.85742 15.1664C8.88358 15.3179 8.83052 15.5102 8.95691 15.6197C9.05307 15.72 9.20341 15.7486 9.32832 15.697C9.4278 15.6301 9.4816 15.5135 9.5107 15.4025L9.53023 14.3373C9.53502 14.312 9.51955 14.2463 9.56966 14.2459L10.1356 14.7802C10.3073 14.8998 10.4344 15.1155 10.6695 15.078C10.8456 15.1571 11.07 15.0739 11.2193 14.9514ZM22.3298 8.39603C22.3122 8.65371 22.1803 8.98826 22.3929 9.20807C22.4787 9.2879 22.5841 9.31723 22.6998 9.33617C22.7318 9.54298 22.5981 9.72084 22.5097 9.89349L22.3217 10.1326C22.2569 10.1787 22.1721 10.1946 22.1224 10.2555C22.0572 9.72603 22.0568 9.17094 22.0417 8.63106C22.1309 8.53415 22.22 8.44764 22.3298 8.39603ZM18.9923 10.1237C19.1121 10.1501 19.1872 10.2978 19.2344 10.3992C19.2351 10.4828 19.1994 10.5945 19.0981 10.5956C18.9971 10.6149 18.9868 10.5039 18.9676 10.43C18.9757 10.3279 18.9378 10.2076 18.9923 10.1237ZM17.569 10.2113C17.6036 10.1686 17.66 10.1683 17.702 10.182C17.8295 10.3149 17.8103 10.5058 17.7628 10.6688C17.7281 10.704 17.7219 10.782 17.6515 10.7475C17.6426 10.5637 17.5292 10.4167 17.569 10.2113ZM14.818 11.5588C14.9621 11.5658 14.9724 11.7281 15.024 11.8302C15.0336 11.9242 15.0174 12.0099 14.9245 12.0448C14.8737 12.0541 14.8228 12.0545 14.8051 11.9947C14.7867 11.841 14.7683 11.6876 14.818 11.5588ZM11.241 13.5783L11.5579 13.1914C11.6688 13.2913 11.8095 13.3355 11.9595 13.3087C11.9908 13.4294 11.9772 13.5913 11.9134 13.6979L11.8582 13.7135C11.783 13.6841 11.6972 13.6192 11.6076 13.6704C11.468 13.7376 11.374 13.8798 11.2598 13.9871C11.175 14.0031 11.2241 13.9013 11.1835 13.8664C11.1728 13.7658 11.1316 13.6451 11.241 13.5783ZM9.60171 13.8018C9.53871 13.8026 9.56081 13.7272 9.54313 13.6867L9.49302 13.236C9.52692 13.1896 9.56045 13.1082 9.62972 13.1131C9.769 13.3028 9.73215 13.6214 9.60171 13.8018Z" fill="#231F20"/>
<path d="M20.9828 20.7804C20.9224 20.7407 20.967 20.6846 20.9412 20.6293C20.9854 20.5179 21.1103 20.5068 21.1951 20.4451C21.3745 20.3727 21.3377 20.1663 21.4062 20.0241C21.2798 19.9042 21.1309 20.0471 21.006 20.0939L20.9909 20.0787C21.0495 19.9016 21.254 19.824 21.373 19.6966C21.4021 19.6153 21.3914 19.5247 21.3704 19.4441C21.3598 19.3736 21.2846 19.3543 21.2245 19.3546C20.9799 19.4631 20.7363 19.6272 20.5631 19.8559C20.4777 19.8061 20.3819 19.7467 20.2669 19.7883C20.0318 19.8358 19.9345 20.0995 19.841 20.2769C19.6792 20.1373 19.4287 20.1043 19.2289 20.1819C18.8605 20.4229 18.7695 20.8428 18.7588 21.2616C18.7879 21.6905 18.848 22.1843 19.2805 22.3822C19.5215 22.4554 19.7816 22.3975 19.96 22.2189C20.0591 22.1119 20.0978 21.9805 20.1015 21.839C20.1107 21.738 20.0646 21.6526 19.9791 21.598C19.9187 21.5936 19.8634 21.5739 19.8141 21.6148C19.6442 21.6719 19.8063 21.8672 19.712 21.9538C19.6424 22.015 19.5572 21.9857 19.4718 21.9816C19.3513 21.9575 19.3052 21.8216 19.2592 21.7261C19.1803 21.3586 19.1962 20.9293 19.3833 20.6197C19.443 20.5784 19.5178 20.5224 19.5934 20.5669C19.5945 20.688 19.7006 20.7778 19.7964 20.8428C19.8181 21.024 19.8351 21.2056 19.9065 21.3664C19.9729 21.4618 20.0687 21.5617 20.2039 21.5301C20.4346 21.5683 20.5823 21.3092 20.6707 21.1469C20.7256 21.1261 20.7514 21.2067 20.7868 21.2368C21.0687 21.3801 21.2459 21.0455 21.4548 20.897C21.4994 20.8358 21.4836 20.7704 21.4279 20.7207C21.3155 20.4745 21.1379 20.7738 20.9828 20.7804ZM20.2938 20.9891C20.2488 21.0099 20.1936 21.0002 20.1682 20.9501C20.135 20.6527 20.1118 20.2944 20.3601 20.085C20.5407 20.1084 20.4725 20.3364 20.5141 20.4723C20.4957 20.6642 20.4626 20.8614 20.2938 20.9891Z" fill="#231F20"/>
<path d="M18.9707 17.3431C19.0102 17.2871 18.9995 17.2017 19.0691 17.1657C19.3834 17.5258 19.767 17.8351 20.2574 17.7846C20.5776 17.7464 20.8853 17.4805 21.0175 17.1764C21.1207 16.9384 21.1981 16.6904 21.2508 16.4323C21.4295 15.2293 21.3071 14.004 21.0658 12.8556C20.9976 12.5533 20.9295 12.2511 20.6819 12.0216C20.5503 11.8917 20.3303 11.934 20.1808 11.986C20.0013 12.0836 19.9284 12.2812 19.925 12.4731C19.9822 13.1794 20.2637 13.7972 20.3606 14.4878C20.4416 15.1027 20.5083 15.8086 20.3841 16.4156C20.3399 16.507 20.2508 16.5987 20.1458 16.6046C19.8197 16.5523 19.7957 16.1843 19.6933 15.9378C19.5577 15.3637 19.4567 14.7793 19.4107 14.164C19.3554 13.6546 19.6303 13.0616 19.2508 12.6566C19.1295 12.5667 19.0135 12.472 18.8432 12.4991C18.6634 12.521 18.5094 12.674 18.4107 12.8214L18.4608 12.7954C18.5658 13.8039 18.6159 14.8584 18.9155 15.7941C18.9059 15.8345 18.9718 15.9095 18.8919 15.9155C18.3241 15.7647 18.0249 16.4138 17.7283 16.7851C17.708 16.7803 17.6833 16.7955 17.673 16.7654C17.5997 16.4632 17.5418 16.1609 17.5286 15.8331C17.8009 15.5126 18.194 15.236 18.4059 14.8807C18.5046 14.7281 18.4225 14.5272 18.3808 14.3761C18.2998 14.291 18.2187 14.1808 18.0787 14.2023C17.7887 14.271 17.5606 14.5053 17.3171 14.6894C17.292 14.705 17.257 14.6902 17.2367 14.6701C17.2146 14.4785 17.1328 14.2977 17.176 14.1002C17.5883 13.7278 18.1207 13.3895 18.3712 12.8771L18.204 12.677C18.0525 12.5674 17.8127 12.6101 17.6631 12.6874C17.2799 12.9384 16.9276 13.29 16.5905 13.6368C16.3823 13.8607 16.0941 14.0809 16.0068 14.3694C15.9571 14.4303 16.0437 14.5858 15.9387 14.587C15.5647 14.2576 14.9924 14.1117 14.5337 14.3181C13.9998 14.5354 13.7349 15.1135 13.6048 15.6196C13.5654 15.6856 13.5764 15.8067 13.4865 15.8227C13.1778 15.5078 12.7957 15.3448 12.3598 15.3593C11.8392 15.3593 11.418 15.8331 11.2017 16.2641C10.6756 17.2585 10.5853 18.7838 11.1409 19.7978C11.3871 20.3659 11.9534 20.9407 12.6144 20.934C13.1804 20.9236 13.6516 20.4495 13.8672 19.9527C13.9795 19.6738 14.0654 19.2238 13.7975 18.9843C13.6962 18.8692 13.5411 18.8506 13.3907 18.867C12.9663 18.9825 13.016 19.4715 12.7179 19.7217C12.5831 19.7485 12.4276 19.7347 12.3314 19.6144C12.072 19.2435 11.9478 18.8157 11.9084 18.352C11.8985 17.8522 11.883 17.2971 12.0941 16.8608C12.163 16.7494 12.2618 16.5868 12.4324 16.6354C12.6892 16.7743 12.9176 17.0699 13.2518 16.9507C13.3421 16.9395 13.411 16.833 13.4965 16.8675C13.6479 18.0015 13.9416 19.3764 15.1925 19.7377C15.6892 19.8439 16.1476 19.5769 16.4136 19.1451C16.5322 18.9825 16.5451 18.76 16.6793 18.6175C16.7909 18.7831 16.8134 19.0151 17.0293 19.0987C17.1649 19.1429 17.2998 19.0961 17.4143 19.0393C18.0057 18.5488 18.5359 17.9684 18.9707 17.3431ZM15.6852 18.3698L15.5263 18.5432C15.4471 18.6145 15.3016 18.616 15.2062 18.5766C14.7375 18.2733 14.652 17.7189 14.5518 17.2102C14.4906 16.5901 14.4991 15.9185 14.7997 15.4057C14.8639 15.3296 14.949 15.2932 15.0389 15.2772C15.46 15.3288 15.6199 15.7963 15.7581 16.123C15.9755 16.8326 16.0241 17.7104 15.6852 18.3698Z" fill="#231F20"/>
<path d="M18.1127 20.7837C18.0725 20.7892 18.0129 20.8301 18.0235 20.8806C18.102 21.2129 18.1956 21.5905 18.1138 21.9395C18.0644 22.0157 18.0357 22.1523 17.9156 22.1434C17.8655 22.1237 17.8349 22.0684 17.8043 22.0235C17.7417 21.7613 17.8091 21.4884 17.8264 21.2307C17.8305 21.1097 17.8389 20.973 17.7232 20.9188C17.6529 20.8891 17.5884 20.9352 17.5538 20.986C17.451 21.2445 17.4941 21.5419 17.4668 21.8248C17.5044 22.0766 17.5272 22.3896 17.8187 22.4672C17.9443 22.5266 18.084 22.4646 18.1989 22.4234C18.3386 22.3762 18.392 22.2195 18.4863 22.1226C18.5777 21.7431 18.6927 21.1969 18.4042 20.8717C18.3135 20.8171 18.2229 20.7774 18.1127 20.7837Z" fill="#231F20"/>
<path d="M16.9407 21.2497C16.7351 21.2062 16.5549 21.2485 16.4061 21.3759C16.3401 21.8259 16.3851 22.3201 16.3545 22.7898L16.3854 22.8752C16.4562 22.9454 16.5321 23.0052 16.6272 23.0141C16.9031 23.0468 17.0815 22.8433 17.265 22.6599L17.3287 22.4976C17.4017 22.2797 17.489 21.9863 17.3714 21.7702C17.3641 21.5281 17.157 21.3284 16.9407 21.2497ZM17.0199 22.1928C16.9919 22.3799 16.9134 22.5722 16.7392 22.6699C16.6784 22.5997 16.7075 22.4935 16.7115 22.3977L16.7093 21.6607C16.7742 21.6347 16.8442 21.6039 16.9193 21.6284C17.0907 21.748 17.0232 22.0108 17.0199 22.1928Z" fill="#231F20"/>
<path d="M15.5486 21.7631C15.3352 21.9669 15.1823 22.1957 15.1801 22.4834C15.1672 22.7058 15.4137 22.8094 15.5397 22.9241C15.571 23.05 15.497 23.1518 15.4229 23.2431C15.3931 23.2687 15.3327 23.2591 15.3223 23.219C15.2759 23.0678 15.1005 23.0898 15.0099 23.0099L14.9926 22.2833C14.9266 22.1931 14.9395 21.961 14.745 22.0286C14.6797 22.0393 14.6101 22.0702 14.5755 22.1362C14.5231 22.4143 14.5862 22.7014 14.5839 22.9839C14.5703 23.1254 14.6215 23.2713 14.5475 23.3779L14.5224 23.3582L14.2943 22.5729C14.193 22.4429 14.0954 22.2216 13.8909 22.2792C13.791 22.3256 13.742 22.427 13.7077 22.5183C13.6267 22.9531 13.6565 23.4373 13.5758 23.8721C13.5066 23.9586 13.4524 24.0752 13.3478 24.1168C13.2862 23.9809 13.3245 23.7937 13.3028 23.6426C13.2497 23.3404 13.3923 23.0311 13.2597 22.7853C13.2239 22.7147 13.1285 22.6954 13.0434 22.7066C12.9837 22.7374 12.9388 22.7682 12.9093 22.8291C12.8584 23.2583 12.8525 23.6875 12.8669 24.1316C12.7273 24.1936 12.6082 24.3006 12.4686 24.3626C12.3879 24.328 12.4472 24.2367 12.4417 24.1762C12.5508 24.0741 12.7107 24.0169 12.7741 23.865C12.7932 23.7789 12.7822 23.6679 12.6819 23.6337C12.5611 23.5643 12.4977 23.7414 12.3868 23.682C12.4999 23.4789 12.8802 23.4499 12.7671 23.1384C12.7357 23.0173 12.6152 22.9884 12.5102 22.9743L12.0626 23.3066C12.001 23.6656 12.06 24.0741 12.0585 24.4524C12.0143 24.5338 11.9137 24.474 11.8437 24.4799C11.6727 24.4209 11.882 24.3228 11.8813 24.2371C11.9391 24.0195 11.9115 23.7574 11.7696 23.5873C11.6436 23.4774 11.4634 23.5093 11.329 23.5713C11.2144 23.643 11.0544 23.685 11.0813 23.8665C11.116 24.3306 10.99 24.771 10.9141 25.2106C10.98 25.3009 11.0416 25.4416 11.1864 25.41C11.3555 25.2823 11.3334 25.0655 11.3967 24.888C11.441 24.8119 11.3647 24.6815 11.4594 24.6299L11.651 24.7796C11.9082 24.9437 12.218 24.8902 12.5032 24.8315L12.8853 24.4948C12.99 24.4131 13.0766 24.5739 13.1919 24.5724C13.3665 24.5204 13.5559 24.4328 13.6495 24.2549L13.8046 24.2534C14.004 24.1353 13.8761 23.8791 13.9649 23.7169C14.0552 23.7262 14.1142 23.6244 14.1996 23.6742C14.2409 23.7848 14.2579 23.9612 14.4181 23.9649C14.4981 23.9742 14.578 23.923 14.6322 23.8465L14.808 23.9003C14.868 23.8747 14.938 23.8639 14.9675 23.7978C15.0165 23.7017 14.9752 23.5958 15.0298 23.5145C15.1105 23.5895 15.1915 23.6645 15.3065 23.6634C15.522 23.656 15.721 23.5379 15.8293 23.3352C15.9027 23.1477 15.9649 22.8692 15.833 22.6891C15.8117 22.5276 15.5865 22.5855 15.5799 22.424C15.6142 22.3431 15.6282 22.2265 15.7232 22.1953C15.7837 22.2554 15.8098 22.3661 15.91 22.3653C16.0305 22.3742 16.004 22.2332 16.0534 22.1719C16.0618 22.0156 15.9509 21.9157 15.8643 21.8002C15.7641 21.7761 15.6584 21.7167 15.5486 21.7631ZM11.5102 24.2155C11.4248 24.1762 11.5139 24.054 11.4631 23.9838C11.4778 23.9634 11.5029 23.943 11.5327 23.953C11.5836 24.0232 11.5799 24.1543 11.5102 24.2155ZM14.036 23.3025C13.9959 23.3229 13.9907 23.2776 13.9804 23.2576C14.0095 23.1763 13.9786 23.0708 14.0331 22.9995C14.0688 23.0801 14.1403 23.2305 14.036 23.3025Z" fill="#231F20"/>
<path d="M10.4447 24.9125C10.3338 24.8279 10.2244 24.9096 10.0991 24.911C10.018 24.8056 10.1573 24.7235 10.1463 24.6177C10.2093 24.4001 10.3813 24.5902 10.5114 24.5735C10.5365 24.5583 10.5361 24.5382 10.5512 24.5178C10.5398 24.3715 10.4834 24.2408 10.3622 24.1462C10.2863 24.0812 10.1713 24.1027 10.0814 24.1339C9.81796 24.3181 9.64588 24.653 9.71405 24.9853C9.77521 25.0907 9.88649 25.1854 9.99703 25.22C10.0475 25.2545 10.1319 25.2085 10.1724 25.2586C10.1735 25.3544 10.1094 25.4457 10.0247 25.4821C9.81096 25.1509 9.59467 25.5924 9.3747 25.6347C9.31464 25.6303 9.31574 25.7465 9.24021 25.6915C9.16725 25.3896 9.58877 25.4814 9.6212 25.2237C9.62046 25.1227 9.56445 25.0573 9.48376 24.9976C9.38354 24.9734 9.27963 25.1008 9.20852 25.0005C9.3069 24.8126 9.65694 24.7688 9.58914 24.497C9.5733 24.4113 9.48266 24.3719 9.4027 24.3674C9.17794 24.4406 8.98413 24.5839 8.78479 24.712C8.79805 25.0347 8.82643 25.3726 8.83453 25.7157L8.53166 25.9763C8.5066 25.9867 8.46718 26.0223 8.4517 25.977C8.48302 25.5879 8.41891 25.2051 8.40048 24.8368C8.37948 24.7614 8.28958 24.7573 8.22436 24.7529C8.11935 24.7588 8.02944 24.79 8.02539 24.9062L8.11861 26.2277C8.13925 26.2982 8.21515 26.368 8.28037 26.3977C8.40122 26.4471 8.51544 26.3803 8.6153 26.3287C8.69931 26.1965 8.89459 26.2099 8.8828 26.0283C8.9377 26.0075 8.97381 26.0981 9.01876 26.1178C9.29069 26.231 9.48855 25.9871 9.68236 25.8489L9.73689 25.7676C9.78664 25.7569 9.84227 25.7866 9.88244 25.8166C10.0634 25.8601 10.2682 25.8178 10.4023 25.6904C10.556 25.5475 10.6245 25.3752 10.6227 25.1732C10.6116 25.0622 10.5354 24.9723 10.4447 24.9125Z" fill="#231F20"/>
<path d="M8.32314 19.4772C8.47605 19.7535 8.73987 20.0787 9.0608 20.1463C9.38689 20.1782 9.7314 20.0639 9.90384 19.7694L10.0601 19.364C10.2325 18.5449 10.2078 17.5657 9.95469 16.786C9.888 16.5948 9.75498 16.3285 9.51954 16.3059C9.41932 16.3167 9.32425 16.343 9.25498 16.4295C9.05675 16.6486 9.13523 16.991 9.19787 17.2479C9.35852 17.8063 9.39537 18.4825 9.31099 19.0888C9.28667 19.1397 9.23214 19.2258 9.16213 19.2165C9.1017 19.192 9.06596 19.1319 9.03059 19.0818C8.82499 18.5586 8.97421 17.911 8.91342 17.3314C8.90568 17.0741 8.81836 16.8324 8.58659 16.7036C8.44105 16.6546 8.29625 16.7114 8.20192 16.8183C7.96058 17.2349 7.99079 17.7644 7.94068 18.2597C7.76898 18.1097 7.61643 17.8992 7.42483 17.7651C7.03205 17.5215 6.49373 17.2947 6.05084 17.5917C6.021 17.5921 5.98083 17.5873 5.95615 17.6181C5.66027 18.1156 5.92188 18.7439 5.97199 19.2734L5.95983 20.5907L6.04273 20.8625C6.11385 20.978 6.22991 21.0775 6.36035 21.0965C6.91746 21.2023 7.42115 20.9851 7.80288 20.5725C8.06043 20.2621 8.19713 19.9075 8.26861 19.5232C8.26824 19.5028 8.29293 19.4675 8.32314 19.4772ZM7.27008 19.3513C7.19749 19.5942 6.97457 19.8489 6.74023 19.9673C6.70007 19.9729 6.66986 19.9528 6.65954 19.9127C6.67907 19.3621 6.64885 18.8074 6.57369 18.2983C6.74871 18.2712 6.92962 18.3451 7.05637 18.4955C7.25903 18.7257 7.3423 19.0528 7.27008 19.3513Z" fill="#231F20"/>
<path d="M6.58386 16.2241C6.65497 16.3296 6.71134 16.4751 6.84215 16.5293C6.95269 16.5434 7.05733 16.5022 7.14171 16.4358C7.30088 16.3129 7.35394 16.1005 7.52859 16.0281C7.67966 16.1276 7.88637 16.2616 8.06065 16.1339C8.32299 15.8183 8.54997 15.4678 8.64135 15.0731C8.68409 14.8455 8.73641 14.5473 8.55439 14.3724C8.4479 14.2321 8.1126 14.2811 8.20509 14.0175C8.26367 13.8303 8.41143 13.6016 8.62661 13.5793C8.64614 13.5285 8.62071 13.4835 8.61518 13.433C8.53375 13.3027 8.45122 13.0662 8.23641 13.1037C8.11113 13.1148 8.02196 13.2117 7.94274 13.3086C7.75077 13.6384 7.5636 13.9684 7.51238 14.3475C7.52343 14.4786 7.48032 14.6557 7.58607 14.7504C7.69772 14.8956 7.89263 14.8432 8.02786 14.8217L8.03817 14.8774C7.95969 15.0545 7.95195 15.2817 7.8031 15.4046C7.71282 15.4106 7.64208 15.3304 7.60118 15.2702C7.42026 15.1759 7.28688 15.3842 7.1476 15.4815C7.07649 15.3865 7.1406 15.2595 7.11923 15.1436C7.19698 14.9108 7.51091 14.7411 7.40847 14.4797C7.39116 14.2781 7.20287 14.4664 7.13655 14.3513C7.11407 14.0991 7.22719 13.8756 7.43574 13.7022C7.46448 13.5656 7.51275 13.3885 7.39152 13.2838C7.12034 13.1954 6.94237 13.4497 6.76882 13.6228C6.34841 14.147 6.53632 14.9576 6.52269 15.6089L6.49321 15.6597C6.24229 15.6267 6.12954 15.8703 5.94052 15.9883C5.84546 15.4845 5.95563 14.9836 5.98105 14.4938C6.00906 14.2867 6.02674 14.049 5.83514 13.9298C5.75445 13.8801 5.6546 13.8864 5.56985 13.9224C5.4501 13.9892 5.41141 14.1211 5.37751 14.2425C5.31303 14.8083 5.29866 15.4243 5.31451 16.0095C5.34325 16.3778 5.32261 16.8271 5.69476 16.9901C5.82519 17.0139 5.93979 16.9574 6.03927 16.8806C6.2224 16.6719 6.40036 16.428 6.58386 16.2241Z" fill="#231F20"/>
<path d="M10.0303 27.5518C10.0303 27.5518 17.4935 22.6119 24.9567 21.4145" stroke="#CB006B" stroke-width="1.19"/>
<path d="M10.2623 27.5239C10.2623 27.6216 10.1809 27.7007 10.0807 27.7007C9.98048 27.7007 9.89941 27.6216 9.89941 27.5239C9.89941 27.4263 9.98048 27.3472 10.0807 27.3472C10.1809 27.3472 10.2623 27.4263 10.2623 27.5239Z" fill="#CB006B"/>
<path d="M25.0811 21.4292C25.0811 21.5269 24.9996 21.606 24.8994 21.606C24.7992 21.606 24.7178 21.5269 24.7178 21.4292C24.7178 21.3316 24.7992 21.2525 24.8994 21.2525C24.9996 21.2525 25.0811 21.3316 25.0811 21.4292Z" fill="#EC008C"/>
<path d="M25.0811 21.4292C25.0811 21.5269 24.9996 21.606 24.8994 21.606C24.7992 21.606 24.7178 21.5269 24.7178 21.4292C24.7178 21.3316 24.7992 21.2525 24.8994 21.2525C24.9996 21.2525 25.0811 21.3316 25.0811 21.4292Z" fill="#CB006B"/>
</g>
<defs>
<clipPath id="clip0_1148_2191">
<rect width="24" height="24" fill="white" transform="translate(4 4)"/>
</clipPath>
</defs>
</svg>
