<svg width="32" height="32" viewBox="0 0 32 32" fill="none" xmlns="http://www.w3.org/2000/svg">
<path d="M0 16C0 7.16344 7.16344 0 16 0C24.8366 0 32 7.16344 32 16C32 24.8366 24.8366 32 16 32C7.16344 32 0 24.8366 0 16Z" fill="#F6F5FF"/>
<g clip-path="url(#clip0_1146_1881)">
<ellipse cx="16" cy="15.625" rx="12" ry="11.625" fill="#005291"/>
<path d="M8.46734 13.4263C8.446 13.3657 8.40608 13.313 8.35298 13.2752C8.29988 13.2375 8.23617 13.2166 8.17049 13.2153C8.12163 13.2166 8.07392 13.2301 8.03188 13.2544C7.83398 13.3501 7.85401 13.5802 7.91169 13.7529C7.97259 13.9466 8.01286 14.1458 8.03188 14.3475L8.09117 14.8652C8.09117 14.9226 8.1108 14.9609 8.1108 15.0187C8.15086 15.2871 8.19092 17.4925 8.20975 17.6269C8.22008 17.7118 8.23996 17.7954 8.26904 17.8761C8.28867 17.8953 8.28867 17.9152 8.3091 17.9542C8.323 17.9824 8.34603 18.0054 8.37464 18.0195C8.40324 18.0336 8.43582 18.0381 8.46734 18.0324C8.48697 18.0324 8.5074 18.0132 8.52663 18.0132C8.5752 17.973 8.61444 17.9231 8.64172 17.8669C8.66901 17.8108 8.68372 17.7496 8.68487 17.6874C8.73396 17.3893 8.76073 17.0881 8.76499 16.7861V16.0727C8.76499 15.8044 8.74536 14.9605 8.72493 14.807L8.66484 14.2311C8.64521 14.1354 8.64521 14.0584 8.62478 13.9818C8.60113 13.8518 8.56807 13.7236 8.52583 13.5982C8.51217 13.5388 8.4923 13.4809 8.46654 13.4255" fill="white"/>
<path d="M13.3322 16.4558C13.3322 16.4558 13.8859 16.3022 13.9452 16.571C13.9452 16.571 14.0838 16.8777 13.5298 16.9929C13.4651 17.0118 13.3989 17.0248 13.3318 17.032C13.2517 17.0512 12.9164 17.1277 12.8179 17.1473C12.6977 17.1664 12.2246 17.3008 12.0864 17.3391L11.2559 17.5692C11.1173 17.6083 10.9791 17.6473 10.8208 17.7036C10.6718 17.7431 10.5262 17.7945 10.3858 17.8571C10.3457 17.8763 10.3056 17.8763 10.2656 17.8962C10.127 17.9536 9.98876 17.9919 9.85015 18.0497C9.71154 18.1076 9.3558 18.299 9.31614 18.3181C9.31614 18.3181 9.03932 18.4717 8.9007 18.5674C8.26774 18.9893 7.89197 19.085 7.87234 18.9127C7.85271 18.7592 8.07024 18.6252 8.16919 18.5482C8.35249 18.4094 8.54405 18.2813 8.74286 18.1646C8.74286 18.1646 9.19756 17.8771 9.43512 17.7427C9.5553 17.6852 10.2263 17.359 10.4635 17.2824C10.7207 17.1867 10.9775 17.1098 11.2547 17.014C11.4722 16.9359 12.4609 16.6495 12.7369 16.5921C12.9394 16.5699 13.1385 16.5248 13.3302 16.4577" fill="white"/>
<path d="M12.7983 18.2202C12.8785 18.1421 13.0159 18.0667 13.0948 18.1811C13.1046 18.1988 13.1097 18.2186 13.1097 18.2387C13.1097 18.2589 13.1046 18.2787 13.0948 18.2964C13.0752 18.3354 12.8969 18.5839 12.8576 18.6417C12.6994 18.8718 12.0664 19.7356 12.0071 19.8306C11.8293 20.0798 11.4138 20.6361 10.8205 21.3839C10.6409 21.6283 10.4279 21.8476 10.1876 22.0359C10.1283 22.075 10.0293 22.1316 9.9504 22.075C9.69321 21.8832 10.0097 21.5187 10.1876 21.2503C10.504 20.8283 10.7015 20.56 10.9784 20.2345C11.2552 19.9091 11.532 19.6016 11.8088 19.2949C11.929 19.1797 12.0264 19.0457 12.1449 18.9304C12.2599 18.7934 12.3856 18.6651 12.5207 18.5468C12.608 18.4526 12.7004 18.363 12.7975 18.2784C12.7575 18.2593 12.7779 18.2393 12.7975 18.221" fill="white"/>
<path d="M14.4591 16.6683C14.5162 16.6301 14.5815 16.6051 14.65 16.5952C14.7185 16.5853 14.7884 16.5906 14.8545 16.6108C14.9201 16.6389 14.9753 16.6858 15.0127 16.7452C15.0233 16.8216 15.0233 16.899 15.0127 16.9753C14.9727 17.2054 14.024 20.9255 13.9647 21.0599C13.8958 21.2864 13.7889 21.5003 13.6483 21.6928C13.6082 21.7502 13.5097 21.8463 13.4307 21.8463C13.3318 21.8272 13.3105 21.6928 13.3105 21.6162C13.3105 21.5771 14.2003 17.3781 14.2596 17.148C14.3101 16.9826 14.3763 16.8221 14.4575 16.6687" fill="white"/>
<path d="M13.649 22.017C13.649 22.017 13.4711 22.0361 13.4314 22.1127C13.4139 22.1413 13.403 22.1733 13.3996 22.2065C13.3962 22.2396 13.4004 22.2731 13.4118 22.3045C13.4711 22.4581 13.7083 22.4581 13.8469 22.4581H14.8949C15.0204 22.4549 15.1461 22.4613 15.2706 22.4772C15.5761 22.4966 15.88 22.535 16.1804 22.5921C16.3743 22.6256 16.5658 22.6704 16.7541 22.7265C16.9123 22.7655 17.367 22.88 17.4067 22.8991C17.5846 22.9382 17.7428 22.9773 17.9211 23.0144C18.1783 23.0718 18.8505 23.2636 18.9298 23.2636C19.0549 23.2738 19.1805 23.2738 19.3056 23.2636C19.392 23.2537 19.4736 23.2193 19.5403 23.1649C19.607 23.1104 19.656 23.0382 19.6814 22.957C19.6952 22.8587 19.6883 22.7587 19.6611 22.6631C19.6339 22.5675 19.5869 22.4783 19.5231 22.401C19.4029 22.2284 19.286 22.0557 19.187 21.8834C19.0697 21.6848 18.964 21.4799 18.8705 21.2696C18.7716 21.0395 18.554 20.4066 18.5344 20.33C18.4355 20.0425 18.119 19.0643 18.0401 18.8533C18.0204 18.7959 17.5653 17.5301 17.506 17.3961C17.4361 17.2042 17.3501 17.0183 17.2489 16.8401C17.2292 16.8011 17.1687 16.762 17.1687 16.7057C17.1687 16.5713 17.3666 16.6276 17.4456 16.6483C17.4456 16.6483 17.6631 16.6874 17.7817 16.7057C17.7817 16.7057 18.4343 16.8206 18.7704 16.8976C19.127 16.9824 19.4772 17.0913 19.8184 17.2234C20.0163 17.3015 21.1632 17.7989 21.3214 17.8754L22.3895 18.3356C22.5477 18.4138 23.1607 18.681 23.2993 18.7384C23.2993 18.7384 23.9519 19.0068 23.9715 18.6603C23.9715 18.2192 23.675 18.1426 23.2003 17.9125C23.0421 17.8344 21.5786 17.1839 21.3214 17.0878C21.0446 16.973 20.7678 16.8769 20.471 16.7811C20.1741 16.6854 19.8777 16.5893 19.5612 16.5127C19.2623 16.4305 18.9584 16.3665 18.6514 16.3209C18.5713 16.3018 17.7813 16.2057 17.4648 16.1865H17.3658C17.1862 16.1867 17.0071 16.2059 16.8318 16.244C16.772 16.2731 16.7234 16.3202 16.6932 16.3783C16.6893 16.4873 16.6959 16.5964 16.7128 16.7042C16.7128 16.7432 16.8118 17.107 16.833 17.1644C16.8526 17.2425 16.9532 17.6246 16.9716 17.7207C16.9913 17.836 17.0309 17.9317 17.0518 18.0465C17.1319 18.3532 17.5461 19.8108 17.5858 19.9448C17.6254 20.0788 17.9219 20.9418 17.9615 21.0571C18.0012 21.1723 18.1791 21.5939 18.2187 21.69C18.2926 21.8556 18.3785 22.0158 18.4759 22.1694L18.6538 22.3995C18.6342 22.3803 18.8517 22.6296 18.2584 22.4186C18.1594 22.3795 18.0605 22.3612 17.9615 22.3229C17.6054 22.208 16.6564 22.0162 16.5378 21.9971C16.3006 21.958 15.648 21.8818 15.5883 21.8818C15.3708 21.8627 15.1729 21.8627 14.9554 21.8627C14.7378 21.8627 14.5203 21.8818 14.3028 21.9017C14.1445 21.9408 13.6502 22.017 13.6502 22.017" fill="white"/>
<path d="M18.8694 17.952C18.8326 17.9528 18.7975 17.9667 18.7704 17.991C18.7508 18.0301 18.7704 18.0692 18.7704 18.0867C18.7856 18.1264 18.8137 18.1601 18.8506 18.1825C18.8952 18.2369 18.9353 18.2946 18.9707 18.3551C19.1094 18.547 19.2476 18.7196 19.3862 18.9111C19.4262 18.9685 19.6233 19.2177 19.6826 19.2947C19.8409 19.4865 19.9991 19.6975 20.177 19.8893C20.217 19.9468 20.6517 20.4839 20.8099 20.6949C20.9034 20.7898 21.0024 20.8794 21.1064 20.9633C21.245 21.0024 21.4625 21.0207 21.4625 20.8289C21.4385 20.6801 21.3615 20.5442 21.245 20.4453C21.1064 20.2726 20.4342 19.4686 20.2759 19.3123C20.1958 19.2166 20.0981 19.1396 20.0187 19.0439C19.9595 18.9865 19.6626 18.6603 19.5641 18.5645C19.4686 18.4529 19.3627 18.3502 19.2476 18.2579C19.1675 18.1797 19.0893 18.1235 19.0104 18.0469C19.0505 18.0469 18.9115 17.9512 18.8718 17.9512" fill="white"/>
<path d="M22.9635 14.1164C22.978 14.06 23.0054 14.0075 23.0436 13.9629C23.0907 13.913 23.1532 13.8794 23.2215 13.8672H23.3597C23.4191 13.8715 23.4746 13.8977 23.515 13.9404C23.5554 13.9831 23.5776 14.0392 23.5773 14.0973C23.5773 14.2891 23.5576 14.3465 23.5576 14.4618C23.5576 14.6919 23.5977 15.2865 23.5977 15.3631C23.7359 16.4179 23.9735 17.4727 23.9735 17.5876C23.9768 17.6648 23.9702 17.7421 23.9538 17.8177C23.9538 17.8369 23.9342 17.8568 23.9342 17.8751C23.9239 17.903 23.9051 17.9271 23.8803 17.9442C23.8555 17.9613 23.826 17.9706 23.7956 17.9709H23.7363C23.6837 17.9471 23.637 17.9126 23.5995 17.8695C23.5619 17.8265 23.5344 17.776 23.5188 17.7216C23.4264 17.5394 23.3598 17.3458 23.3209 17.1461C23.3012 17.0887 23.3012 17.0313 23.2808 16.9735C23.2407 16.8391 23.2215 16.7051 23.1819 16.5707C23.1591 16.509 23.1456 16.4443 23.1418 16.3789C23.1017 16.1487 23.0428 15.9378 23.0032 15.7077C22.9835 15.5733 22.9042 15.0173 22.883 14.9216C22.8632 14.7881 22.8632 14.6524 22.883 14.5188C22.8866 14.4282 22.9 14.3383 22.9231 14.2504C22.9297 14.204 22.9432 14.1587 22.9631 14.116" fill="white"/>
<path d="M17.8208 14.2887C17.7716 14.2822 17.7216 14.2858 17.6739 14.2992C17.6262 14.3127 17.582 14.3357 17.544 14.3668C17.5084 14.4187 17.4911 14.4804 17.4946 14.5427C17.4981 14.605 17.5224 14.6645 17.5636 14.7122C17.6229 14.7696 17.7415 14.7696 17.8008 14.7903C17.906 14.7999 18.012 14.7999 18.1173 14.7903C18.1173 14.7903 20.8462 14.7329 22.0725 14.2727C22.3754 14.1692 22.6567 14.0133 22.9029 13.8125C23.0355 13.7007 23.1432 13.5636 23.2194 13.4097C23.239 13.3522 23.2787 13.2944 23.239 13.237C23.2166 13.1797 23.174 13.1321 23.1189 13.1026C22.921 12.9682 22.6441 13.16 22.5059 13.2753C22.2288 13.4734 21.9219 13.6287 21.5961 13.7355C21.2596 13.8515 20.9162 13.9475 20.5678 14.023C20.314 14.0801 20.0563 14.1187 19.7966 14.1383C19.8367 14.1383 18.4718 14.2531 17.8192 14.2918" fill="white"/>
<path d="M19.0668 13.1769C19.0075 13.2159 18.9679 13.2726 18.8889 13.2726C18.866 13.2714 18.8435 13.2657 18.8229 13.2558C18.8022 13.2459 18.7838 13.2321 18.7688 13.2152C18.759 13.1974 18.7539 13.1776 18.7539 13.1575C18.7539 13.1374 18.759 13.1176 18.7688 13.0999C18.795 13.0508 18.8283 13.0055 18.8677 12.9655C18.8873 12.9464 18.8873 12.9265 18.9078 12.9081C18.943 12.8535 18.9832 12.8021 19.028 12.7546C19.1862 12.5244 19.8192 11.6607 19.8784 11.5657C20.0563 11.3165 20.9857 10.1276 21.0651 10.0124C21.1852 9.85886 21.3022 9.70571 21.4212 9.57132C21.4651 9.52268 21.519 9.48356 21.5794 9.45646C21.7377 9.39903 21.9949 9.39903 21.9949 9.60999C21.9704 9.79455 21.8792 9.96453 21.7377 10.0894C21.5598 10.3003 21.4016 10.5304 21.2433 10.7414C21.2033 10.7988 20.7686 11.336 20.5907 11.5278C20.4918 11.6431 20.1557 12.0263 20.0767 12.1033C20.0767 12.1033 19.8592 12.3525 19.7406 12.4678C19.6256 12.6049 19.5 12.7331 19.3649 12.8514L19.088 13.1198C19.1077 13.139 19.088 13.1589 19.0684 13.1773" fill="white"/>
<path d="M10.8807 10.2622C10.8517 10.2506 10.8203 10.2463 10.7892 10.2496C10.7581 10.253 10.7284 10.2639 10.7028 10.2813C10.648 10.3197 10.6061 10.3732 10.5826 10.4349C10.3454 10.8185 11.7492 11.9308 11.8682 12.0074C12.3228 12.3332 12.8569 12.736 13.0548 12.7168C13.0147 12.7168 13.2326 12.7168 13.1934 12.5441C13.1737 12.4098 11.4135 10.6458 11.2753 10.5126C11.1951 10.4935 10.9391 10.2825 10.8799 10.2634" fill="white"/>
<path d="M8.82241 12.3907C8.62451 12.2755 8.40698 12.2563 8.32806 12.506C8.26877 12.6978 8.44824 12.8126 8.58525 12.9088C8.99614 13.1688 9.42578 13.3995 9.8708 13.5991C10.3455 13.8292 10.8399 14.0402 11.3342 14.2511C11.4728 14.3086 11.6307 14.3664 11.7693 14.4238C12.2272 14.6133 12.7045 14.7547 13.1931 14.8457C13.5026 14.8907 13.8181 14.8774 14.1225 14.8067C14.3003 14.7676 14.6761 14.6723 14.7158 14.4613C14.7191 14.3968 14.7124 14.3321 14.6961 14.2695C14.5972 14.0202 14.2018 14.0585 13.9843 14.0968C13.5468 14.1422 13.1046 14.1097 12.6791 14.0011C12.2688 13.9152 11.8656 13.7998 11.4728 13.6557C11.2553 13.5776 11.0574 13.4831 10.8399 13.4065C10.642 13.3108 10.4445 13.2147 10.2662 13.1189C9.91006 12.9463 9.53469 12.7736 9.17855 12.5821C9.0796 12.5431 9.00068 12.4864 8.90173 12.4478C8.87906 12.4242 8.85218 12.4049 8.82241 12.3907Z" fill="white"/>
<path d="M13.2927 8.45962C13.2061 8.36053 13.0876 8.29292 12.9566 8.2678C12.8765 8.24866 12.7195 8.22873 12.6602 8.30687C12.304 8.7288 14.2626 11.1643 14.7958 14.1748C14.8196 14.2586 14.8605 14.3369 14.916 14.4049C14.9753 14.4624 15.0362 14.4831 15.0939 14.4241C15.1339 14.385 15.1532 14.2514 15.174 14.2131C15.2234 13.9146 15.2234 13.6103 15.174 13.3118C15.1338 13.0081 15.0744 12.7071 14.9961 12.4105C14.8972 12.0269 14.5414 10.8764 14.4028 10.5122C14.2649 10.1523 14.1064 9.8001 13.9281 9.45741C13.9091 9.40866 13.882 9.36327 13.848 9.32302C13.6824 9.02418 13.4975 8.73592 13.2943 8.46001" fill="white"/>
<path d="M16.7737 14.3849C16.7737 14.3849 16.7144 14.7302 16.8938 14.7302C16.9945 14.7224 17.0898 14.6824 17.1648 14.6166C17.2399 14.5507 17.2907 14.4625 17.3093 14.3657C17.3289 14.2876 19.1088 9.09159 19.1485 8.8814C19.2134 8.80802 19.2524 8.71617 19.2596 8.61948C19.2669 8.52278 19.2419 8.42639 19.1885 8.34461C19.1885 8.34461 19.0896 8.26648 19.2478 8.21022C19.2478 8.21022 19.5246 8.19107 19.5447 8.03754C19.5447 8.03754 19.6649 7.75 19.1096 7.75C19.0107 7.75 18.8921 7.76914 18.7931 7.76914C18.5008 7.78868 18.2101 7.82718 17.923 7.88439C17.7251 7.92346 17.5276 7.96253 17.3493 7.99964C17.1514 8.03871 16.9339 8.07778 16.7364 8.11489L16.1828 8.21061C16.1427 8.21061 16.1026 8.22975 16.0626 8.22975C15.9636 8.24889 15.8647 8.24889 15.7657 8.26882C15.5286 8.28796 15.311 8.30789 15.0735 8.32625C14.9419 8.33584 14.8097 8.33584 14.6781 8.32625C14.3616 8.30711 14.0255 8.30711 13.709 8.26882C13.6619 8.27193 13.6147 8.26541 13.5704 8.24968C13.5111 8.23053 13.5303 8.32781 13.5303 8.36493C13.5402 8.4285 13.5402 8.49317 13.5303 8.55675C13.5303 8.55675 13.471 8.88257 13.9257 8.88257H15.2706C15.4881 8.88257 15.7056 8.88257 15.9428 8.86343C15.9963 8.86655 16.0499 8.86006 16.101 8.84429C16.8201 8.76713 17.5335 8.64539 18.2367 8.47979C18.2367 8.47979 18.6914 8.32625 18.6521 8.47979C18.6521 8.47979 18.6922 8.49893 18.4346 9.03572C18.415 9.03572 16.8722 12.5835 16.7733 14.386" fill="white"/>
</g>
<defs>
<clipPath id="clip0_1146_1881">
<rect width="24" height="24" fill="white" transform="translate(4 4)"/>
</clipPath>
</defs>
</svg>
