<?xml version="1.0" encoding="UTF-8"?>
<!--
Soliguide: Useful information for those who need it

SPDX-FileCopyrightText: © 2024 Solinum

SPDX-License-Identifier: AGPL-3.0-only

This program is free software: you can redistribute it and/or modify
it under the terms of the GNU Affero General Public License as published
by the Free Software Foundation, either version 3 of the License, or
(at your option) any later version.

This program is distributed in the hope that it will be useful,
but WITHOUT ANY WARRANTY; without even the implied warranty of
MERCHANTABILITY or FITNESS FOR A PARTICULAR PURPOSE.  See the
GNU Affero General Public License for more details.

You should have received a copy of the GNU Affero General Public License
along with this program.  If not, see <https://www.gnu.org/licenses/>.
-->
<svg xmlns="http://www.w3.org/2000/svg" width="16" height="16" viewBox="0 0 12 12" fill="none"><path fill="#fff" d="M0 0h12v12H0z"/><path d="M8.75 7.75c0 .555-.445 1-1 1a1 1 0 111-1zm-4.5-1c-.55 0-1 .45-1 1s.45 1 1 1a1 1 0 100-2zm7.25.75V9c0 .275-.225.5-.5.5h-.5v.5c0 .555-.445 1-1 1h-7a1 1 0 01-1-1v-.5H1A.501.501 0 01.5 9V7.5c0-.275.225-.5.5-.5h.5c0-1.935 1.565-3.5 3.5-3.5h.5v-.635A.992.992 0 015 2c0-.55.45-1 1-1s1 .45 1 1c0 .37-.2.695-.5.865V3.5H7c1.935 0 3.5 1.565 3.5 3.5h.5c.275 0 .5.225.5.5zm-1 .5h-1V7A2.5 2.5 0 007 4.5H5A2.5 2.5 0 002.5 7v1h-1v.5h1V10h7V8.5h1V8z" fill="#3E3A71"/></svg>