<?xml version="1.0" encoding="UTF-8"?>
<!--
Soliguide: Useful information for those who need it

SPDX-FileCopyrightText: © 2024 Solinum

SPDX-License-Identifier: AGPL-3.0-only

This program is free software: you can redistribute it and/or modify
it under the terms of the GNU Affero General Public License as published
by the Free Software Foundation, either version 3 of the License, or
(at your option) any later version.

This program is distributed in the hope that it will be useful,
but WITHOUT ANY WARRANTY; without even the implied warranty of
MERCHANTABILITY or FITNESS FOR A PARTICULAR PURPOSE.  See the
GNU Affero General Public License for more details.

You should have received a copy of the GNU Affero General Public License
along with this program.  If not, see <https://www.gnu.org/licenses/>.
-->
<svg width="60" height="65" fill="none" xmlns="http://www.w3.org/2000/svg"><mask id="prefix__a" maskUnits="userSpaceOnUse" x="0" y="0" width="60" height="65"><ellipse cx="30" cy="32.571" rx="30" ry="32.143" fill="#F4EBE1"/></mask><g mask="url(#prefix__a)"><ellipse cx="30" cy="32.571" rx="30" ry="32.143" fill="#F4EBE1"/><path d="M11.95 23.916a19.75 19.75 0 010-9.403C13.514 8.57 18.495 4.057 23.913.948 31-3.14 40.68-5.045 47.022.045 54.11 5.737 57.342 16.5 55.83 23.59 53 36.857 28.231 43.411 37.5 49.178c3.443 2.207 44.477-1.85 45.9 1.924a18.365 18.365 0 01.416 11.755C72.75 97.082 39.5 25.606 21.5 35.25c-3.932-6.357-7.908-4.063-9.55-11.334z" fill="#3E3A71"/><path d="M87.95 99.039c-5.906-42.852-51.506-54.336-61.802-55.59a34.162 34.162 0 00-12.555.477C4.786 46.206-1.967 53.278-6.563 60.95c-2.978 5.015-8.704 14.418-6.932 20.335 1.643 5.366 10.27 8.852 12.555 14.719 0 .276-1.36 5.817-1.669 10.03-.924 12.913-1.592 26.127-2.567 39.116-.154 2.056 1.54 29.587 1.36 31.643-.18 2.057-.462 4.614-.795 6.896-1.746 12.311-9.244 36.583-9.45 48.995 0 5.918.54 12.537 4.88 17.026 4.955 5.165 12.298 9.076 18.897 8.45 9.089-.828 20.54-6.846 29.475-6.645 11.144.251 20.541-10.857 32.07-9.403 4.262.527 7.317-7.522 8.139-11.208 1.977-9.127-.257-13.415-1.644-22.567-3.8-24.623-8.524-74.947-5.443-99.47l12.222-4.012a5.956 5.956 0 003.21-1.905 5.766 5.766 0 00.205-3.912z" fill="#8076A9"/><path d="M81.401 106.21c-2.362.803-5.34 1.68-7.933 2.683l-1.13.326v-.15a27.302 27.302 0 00-.385 3.711 40.34 40.34 0 00-.231 4.287c0 1.129-.257 1.981-.206 3.586V131.535c0 3.009 0 4.79.154 7.021l.283 7.522.36 7.046.461 7.046c.18 2.357.36 4.689.514 7.046.154 2.357.436 5.015.41 6.62a5.435 5.435 0 000 .927c.454 2.53.745 5.084.874 7.648 0 .828.256 2.006.333 2.708.822 7.648 1.746 15.295 2.902 22.893 0 .602.256 1.78.36 2.507.102.728.282 1.705.384 2.132.54 2.056.976 4.413 1.335 6.619.09.624.142 1.252.154 1.881-.023.443-.023.886 0 1.329a15.795 15.795 0 010 3.736 37.16 37.16 0 01-.898 5.617 26.988 26.988 0 01-2.003 5.24 12.178 12.178 0 01-3.286 4.438 4.02 4.02 0 01-1.45.74 4.102 4.102 0 01-1.632.113 21.283 21.283 0 00-2.08-.176c-.671.019-1.34.086-2.002.201-.282 0-1.412.251-2.157.426-5.751 1.379-10.783 4.689-16.278 6.946a24.115 24.115 0 01-8.704 2.031c-2.964-.01-5.916.36-8.781 1.103-5.752 1.379-11.298 3.586-17.126 4.89-2.9.796-5.947.933-8.91.401a24.556 24.556 0 01-8.293-3.335 31.065 31.065 0 01-3.543-2.733 24.051 24.051 0 01-2.979-2.683 18.13 18.13 0 01-3.928-8.601 41.644 41.644 0 01-.488-9.453c.039-.839.125-1.677.257-2.507l.205-1.705c.555-4.561 1.36-9.089 2.414-13.565.95-4.439 2.028-8.877 3.055-13.315.257-1.053.437-1.755.642-2.332a7.609 7.609 0 00.385-1.63c0-.978.386-2.031.72-3.51.539-2.232 1.078-4.789 1.411-7.021.26-1.12.415-2.262.463-3.41 0-.702.282-2.081.436-3.159.158-1.013.252-2.035.283-3.059v-2.959-2.508c.009-1.197-.051-2.394-.18-3.585 0-.778-.129-3.059-.231-4.037-.103-.978 0-2.081 0-3.059 0-.978-.231-2.508-.206-3.185 0-1.379 0-2.708-.18-4.037-.18-1.329 0-2.507-.205-3.435v-1.529-3.686-2.132l1.156-16.9c0-1.103.154-2.206.282-2.908 0-2.508.334-5.341.437-7.924 0-.802 0-1.755.128-2.507.334-4.138.282-3.561.565-7.347.205-1.655.488-3.31.821-5.015.154-.777.334-1.58.514-2.507l.128-.602v-.176l-.128-.275a9.13 9.13 0 00-.54-1.129 11.988 11.988 0 00-2.079-2.708c-.59-.627-1.258-1.178-1.874-1.755l-3.158-2.783a26.002 26.002 0 01-3.236-3.235 8.333 8.333 0 01-1.9-5.015c-.019-1.601.197-3.197.642-4.739a31.089 31.089 0 011.643-4.463 51.032 51.032 0 012.132-4.263c.23-.426.436-.827.693-1.253.899-1.605 1.772-2.508 2.567-3.962.796-1.454 1.618-2.683 2.311-3.786.154-.251.488-.703.745-1.053.667-.853 1.386-1.655 2.105-2.508a35.269 35.269 0 012.876-2.959 28.611 28.611 0 012.645-1.98 31.532 31.532 0 018.267-4.288 14.453 14.453 0 011.823-.502 57.272 57.272 0 015.572-.652h2.952c1.972.084 3.936.293 5.88.627 1.823.376 3.518.903 5.495 1.304l.642.15c2.002.728 4.827 1.38 6.804 2.282 1.207.527 2.696 1.028 4.082 1.605a75.103 75.103 0 0113.66 6.97l1.155.803 2.927 1.98c.616.402 1.207 1.029 1.67 1.33 1.36 1.078 2.72 2.056 3.979 3.21l3.646 3.66c1.463 1.605 3.055 3.636 4.75 5.542 1.155 1.73 2.799 4.062 3.903 6.143.23.552.385.827.539 1.153.719 1.555 1.438 2.909 2.182 4.313.745 1.404.796 2.507 1.335 3.761a25.562 25.562 0 011.31 4.489c.128.676.154 1.153.36 1.93.373 1.365.63 2.757.77 4.163v.35a6.795 6.795 0 01-.54-1.805c-.256-1.429-.539-2.858-.77-4.087a25.19 25.19 0 00-1.258-3.861c-.385-1.129-.616-1.806-.924-2.658a40.48 40.48 0 00-2.568-5.567c-.436-.902-.822-1.755-1.31-2.507-.487-.752-1.078-1.605-1.617-2.508l-1.618-2.507c-.564-.878-1.335-1.63-1.95-2.507l-2.132-2.508c-.693-.852-1.54-1.58-2.31-2.382a50.58 50.58 0 00-4.571-4.137l-2.568-2.157c-.924-.651-1.874-1.253-2.824-1.855a41.167 41.167 0 01-2.568-1.78c-1.745-1.104-3.62-2.232-5.494-3.185-1.874-.953-3.518-1.855-5.443-2.507-.925-.351-2.286-1.003-3.441-1.48a87.823 87.823 0 00-15.74-4.463 56.614 56.614 0 00-4.005-.577 28.932 28.932 0 00-4.698 0c-1.44.012-2.876.154-4.288.427-1.539.372-3.049.85-4.52 1.429a33.002 33.002 0 00-4.518 2.307c-.764.468-1.493.987-2.182 1.554a46.762 46.762 0 00-6.368 6.495c-.334.426-1.001 1.303-1.54 1.955a43.217 43.217 0 00-2.44 3.862c-1.053 1.78-2.157 3.636-3.132 5.491-.257.502-.642 1.103-.77 1.43a36.66 36.66 0 00-2.568 6.569 13.405 13.405 0 00-.257 5.993 7.724 7.724 0 001.258 2.507 22.648 22.648 0 003.107 3.235c.924.927 2.568 2.231 3.877 3.41a19.407 19.407 0 013.466 4.012c.256.365.463.761.616 1.178 0 .25.232.276.232.752v.652l-.514 2.508a79.042 79.042 0 00-.873 5.015c-.23 1.604-.257 3.936-.488 5.641-.23 1.705-.205 3.536-.308 5.316a77.554 77.554 0 01-.36 4.363c0 .627-.128 1.73-.256 2.507v1.831c.037.889-.015 1.779-.154 2.658v1.254c-.231 4.538-.283 5.265-.693 10.029 0 1.104 0 1.555-.206 2.758a31.856 31.856 0 01-.41 4.464v.952c0 .803.153 2.006.205 3.285 0 1.755.128 2.984.257 5.567 0 1.68.18 2.908.23 4.488.13 2.181.206 3.761.283 5.617v4.488c0 .702.128 2.307.154 3.46v2.508a17.142 17.142 0 01-.257 3.961 76.987 76.987 0 01-1.874 11.259c0 .251-.154.827-.205 1.178a28.184 28.184 0 01-.745 3.21 9.304 9.304 0 00-.54 2.507c0 .376-.205.878-.282 1.229-.641 2.934-1.412 5.867-2.002 8.876-.231 1.204-.77 3.034-1.104 4.589a216.288 216.288 0 00-2.131 10.631c-.257 1.43-.411 3.009-.694 4.363 0 .276 0 1.505-.18 2.307a36.212 36.212 0 000 6.67v1.705c.033.681.11 1.359.232 2.031a24.86 24.86 0 002.13 6.369 18.318 18.318 0 004.366 5.14 24.007 24.007 0 004.133 2.909l.591.275a20.829 20.829 0 007.703 2.909 18.41 18.41 0 005.88 0c1.206-.376 3.26-.577 4.98-1.153l5.367-1.555c1.54-.426 2.876-.852 4.313-1.279 1.438-.426 2.979-.852 4.186-1.253 1.206-.402 2.927-.652 4.416-.853a45.488 45.488 0 015.135-.426h1.207a13.818 13.818 0 004.16-.752c.333 0 .872-.326 1.206-.402a21.439 21.439 0 004.16-1.68 21.817 21.817 0 003.209-1.529c1.284-.702 2.799-1.279 3.903-1.831a22.652 22.652 0 013.44-1.504 30.401 30.401 0 014.493-1.304 21.454 21.454 0 014.134-.351 6.644 6.644 0 003.698-.376 6.656 6.656 0 001.232-.903 7.58 7.58 0 00.847-.978c.231-.301.437-.476.668-.827.231-.351.744-1.229.924-1.505.467-.79.838-1.632 1.104-2.507.437-1.304.848-2.758 1.335-4.664.3-1.337.488-2.695.565-4.062.129-1.304 0-2.783 0-3.962v-1.203c-1.104-5.993-1.104-5.968-1.643-8.851v-.326c-.41-1.304-.642-3.611-.924-5.015-.17-.76-.28-1.531-.334-2.307 0-.903-.231-1.931-.437-2.909 0-.301-.154-1.479-.257-2.281-.102-.803-.282-2.508-.41-3.21-.334-1.83-.514-3.861-.745-5.742-.154-1.028 0-1.855-.36-3.084 0-.276-.153-1.806-.23-2.783-.078-.978-.257-2.508-.385-3.762-.129-1.253-.206-2.056-.334-3.284-.129-1.229 0-2.031 0-3.034 0-1.003-.283-1.379-.411-2.909-.206-2.307-.36-4.137-.668-7.522 0-1.078-.128-2.508-.23-3.811-.206-2.508-.258-5.241-.54-7.523a8.454 8.454 0 010-1.354c0-1.454 0-3.209-.18-4.839-.18-1.63 0-3.435-.256-4.814v-1.229-3.285-2.081a30.385 30.385 0 000-3.385v-3.987-6.82c0-2.257.23-5.015.436-7.522 0-.677.18-1.279.282-1.931.099-.437.15-.882.155-1.329v-.928c1.72-.652 3.671-1.253 5.7-1.88l2.9-1.104 2.004-.727a9.385 9.385 0 003.671-1.554c.47-.4.818-.917 1.008-1.496a3.26 3.26 0 00.07-1.789c-.03-.434-.03-.87 0-1.304.114.272.183.56.206.853.09.665.09 1.34 0 2.005a2.88 2.88 0 01-.333 1.109c-.185.345-.438.65-.745.897a8.652 8.652 0 01-2.568 1.254l-3.184 1.028z" fill="#8076A9"/><g opacity=".5" fill="#5C508F"><path opacity=".5" d="M87.948 99.038c-2.567-18.53-11.964-31.97-23.878-39.693a4.142 4.142 0 00-2.85-1.003c-6.085.577-6.445 19.257-13.814 40.595-5.135 14.894-8.01 14.644-12.837 27.206-7.703 20.511-4.288 32.07-5.88 52.857-3.57 46.989-30.246 78.081-19.103 79.31 4.468.476 8.345-3.059 29.476-6.67 12.838-.251 20.54-10.857 32.069-9.403 4.262.527 7.317-7.522 8.14-11.208 1.976-9.127-.258-13.415-1.644-22.567-3.8-24.623-8.524-74.947-5.443-99.47l12.221-4.012a5.956 5.956 0 003.21-1.905 5.767 5.767 0 00.334-4.037z"/><path opacity=".5" d="M82.992 105.683c-2.003.702-4.544 1.429-6.753 2.282-.154 0-.77.251-.95.301-1.033.23-2.046.54-3.03.928v.15c0 1.078-.282 2.508-.282 3.636 0 1.128-.257 1.68-.23 3.059 0 .903-.18 2.507-.206 3.861 0 1.831-.154 3.461-.154 5.391v12.387l.205 6.018.283 6.018c0 2.006.23 3.987.333 5.993.103 2.005.283 4.262.206 5.641a7.366 7.366 0 000 .803c.373 2.155.588 4.334.642 6.519 0 .702.18 1.755.23 2.332.591 6.519 1.207 13.038 1.978 19.558 0 .476 0 1.529.205 2.156.206.627 0 1.48.206 1.831.359 1.805.513 3.836.77 5.717v1.579c.002.381.054.76.154 1.129.24 1.025.421 2.063.54 3.109.23 1.605.461 3.209.77 4.764.307 1.555.513 3.059.847 4.664.334 1.605.667 3.009.873 4.563.12.832.197 1.669.23 2.508v3.46c0 .276 0 1.229-.153 1.856a26.183 26.183 0 01-4.39 12.01 7.4 7.4 0 01-2.569 2.182 6.042 6.042 0 01-3.312.275 18.364 18.364 0 00-6.367.803 88.738 88.738 0 00-11.837 5.316 31.405 31.405 0 01-12.58 3.385c-2.8.501-5.573 1.002-8.346 1.604-1.797.376-2.413.351-3.774.702-1.36.351-1.669.552-3.286.978-2.568.677-5.264 1.48-7.857 2.282a31.26 31.26 0 01-4.005 1.003 5.465 5.465 0 01-4.134-.652 3.027 3.027 0 01-.95-2.081 9.068 9.068 0 010-1.505 45.357 45.357 0 013.594-11.208l4.442-10.782c.36-.827.616-1.429.847-1.855.235-.429.416-.884.54-1.354.29-.973.641-1.928 1.052-2.859a81.181 81.181 0 002.106-5.742c.37-.909.687-1.838.95-2.783.252-.851.552-1.688.898-2.507.54-1.63 1.104-3.411 1.49-5.015.256-.928.41-1.455.616-2.081a17.66 17.66 0 00.796-2.959c0-.677.667-2.508.796-3.36.128-.853.436-1.705.616-2.508.18-.802.36-2.156.513-2.657.308-1.154.437-2.282.668-3.386.213-.957.35-1.93.41-2.908l.258-1.279c.24-1.012.369-2.046.385-3.084 0-.251.128-1.204.205-1.805.514-4.781.813-9.579.899-14.393a21.75 21.75 0 010-2.507v-6.745-2.157c0-3.661 0-3.059.154-6.269.046-2.88.295-5.753.744-8.6.232-1.379.334-1.981.488-2.934.154-.953.231-1.429.386-2.131.205-1.178.539-2.307.847-3.46.308-1.154.642-2.508 1.027-3.711.385-1.204.924-2.809 1.438-4.188.513-1.379.95-2.507 1.463-3.761a54.228 54.228 0 011.669-3.686c.59-1.178 1.258-2.507 1.926-3.56l.59-1.053a38.793 38.793 0 002.08-3.385c.488-1.079 1.181-2.508 1.566-3.385l.462-1.003c.386-.828.77-1.63 1.104-2.508.334-.877.848-2.131 1.233-3.209.385-1.079.77-1.881 1.027-2.683.847-2.508 1.72-5.015 2.285-7.372.11-.508.247-1.01.41-1.505.49-1.462.885-2.952 1.182-4.463 0-.2.231-.903.36-1.354l.282-.978c.334-1.53.77-3.46 1.053-4.789.282-1.329.821-2.909 1.078-4.564.028-.178.07-.354.128-.526.514-1.705.899-4.087 1.515-5.817.36-1.028.694-2.282 1.079-3.51a9.685 9.685 0 014.005-5.567 3.51 3.51 0 013.44.2c.976.552 1.824 1.229 2.748 1.83.334.227.488.402.95.728.81.588 1.59 1.215 2.336 1.88l1.335 1.204a39.826 39.826 0 015.931 6.444c1.079 1.505 2.363 3.285 3.518 5.015a30.757 30.757 0 012.876 5.466c.205.502.308.727.436 1.003l1.592 3.786a18.22 18.22 0 001.053 3.235c.386 1.275.686 2.573.899 3.886.069.551.18 1.096.333 1.63.319 1.172.5 2.375.54 3.586v.3c0-.726-.206 0-.411-1.554a33.194 33.194 0 00-.642-3.51c-.257-1.128-.616-2.182-.95-3.31a55.709 55.709 0 00-.693-2.307c-.514-1.655-1.181-3.285-1.798-4.864-.616-1.58-1.36-2.909-2.156-4.488a40.632 40.632 0 00-2.568-4.464 48.6 48.6 0 00-3.364-4.538 42.203 42.203 0 00-3.543-3.862 33.755 33.755 0 00-4.365-3.736l-2.208-1.63c-1.335-1.028-3.03-2.507-4.596-1.58a6.335 6.335 0 00-2.876 3.762c-.282.752-.795 1.906-1.078 2.909-1.31 4.363-2.157 8.876-3.21 13.34-.23 1.077-.462 2.13-.821 3.309-.36 1.178-.565 2.507-.899 3.861-.333 1.354-.616 1.906-.975 3.486a70.25 70.25 0 01-2.414 7.998l-.744 2.157a61.438 61.438 0 01-2.799 7.271c-.282.627-.642 1.279-.976 1.906l-1.797 3.485-2.568 4.664c-.256.426-.59.953-.693 1.204-.821 1.78-1.848 3.485-2.567 5.466l-1.875 5.015a28.85 28.85 0 00-.847 2.507c-.41 1.229-.616 2.207-1.053 3.686a31.37 31.37 0 00-1.001 4.213c-.334 1.429-.514 2.883-.77 4.337-.257 1.455-.386 2.909-.488 4.363-.103 1.455-.18 2.934-.257 4.388-.077 1.455 0 3.36-.18 4.815-.18 1.454 0 3.034 0 4.538v7.397a11.36 11.36 0 010 2.282v1.053c0 2.891-.171 5.779-.513 8.651 0 1.003 0 1.228-.231 2.357a20.152 20.152 0 01-.59 3.786v.802a19.59 19.59 0 01-.335 2.808c-.205 1.58-.539 3.26-.821 4.664-.411 2.056-.462 2.508-.745 3.787-.462 1.905-.744 3.134-1.104 4.663-.18.728-.41 1.53-.59 2.132a12.774 12.774 0 00-.411 1.655c-.231.877-.54 1.88-.796 2.833-.257.953-.59 1.755-.642 2.031-.231 1.003-.59 2.181-.95 3.235-1.027 3.059-2.054 6.268-3.287 9.177 0 .2-.23.677-.308.953a22.703 22.703 0 01-1.052 2.632 7.166 7.166 0 00-.77 2.057s-.232.651-.386 1.002c-.924 2.508-1.977 4.765-2.901 7.222-.36 1.003-1.079 2.507-1.592 3.711-1.181 2.833-2.362 5.692-3.26 8.626a28.752 28.752 0 00-.848 3.66 6.278 6.278 0 00.205 1.881c.144.428.412.805.772 1.086.36.281.798.452 1.257.494a6.858 6.858 0 002.773-.126l1.437-.301 1.72-.451a46.376 46.376 0 015.7-1.705c1.798-.476 3.724-1.078 5.726-1.454 1.053-.201 2.825-.702 4.262-1.028l.54-.176c2.182-.301 4.673-.903 6.958-1.254h.59l2.209-.2c.718 0 1.437-.251 2.182-.326.744-.075 2.747-.652 4.16-1.254l4.339-1.855c1.258-.552 2.31-1.104 3.466-1.655a79.042 79.042 0 003.312-1.68c.976-.527 2.362-.978 3.569-1.379a35.775 35.775 0 014.134-1.054 3.61 3.61 0 011.078 0h3.698c.332.039.668.039 1 0a4.764 4.764 0 002.876-2.081 8.345 8.345 0 001.592-2.507 31.226 31.226 0 001.464-3.26c.41-1.404.36-1.178.873-2.984a30.67 30.67 0 00.642-3.786 21.89 21.89 0 000-6.619c0-.301 0-.878-.154-1.329-.154-.452-.18-.903-.206-1.104v-.902l-.282-1.48a16.728 16.728 0 00-.462-2.256 22.276 22.276 0 01-.796-4.113c0-.627-.334-2.281-.514-3.485-.18-1.204-.41-2.357-.436-3.36v-1.053a61.539 61.539 0 01-1.001-7.522v-.527c-.283-1.103-.36-3.059-.591-4.263a11.06 11.06 0 01-.206-2.005 22.067 22.067 0 00-.308-2.508c0-.276 0-1.279-.154-1.956s-.18-2.181-.282-2.733c-.283-1.579-.36-3.31-.54-5.015 0-.877 0-1.579-.23-2.633 0-.25 0-1.554-.154-2.382 0-1.203-.18-2.156-.257-3.209a101.5 101.5 0 00-.231-2.783c-.103-1.053 0-1.73 0-2.508 0-.777-.231-1.178-.308-2.507a179.57 179.57 0 00-.488-6.494v-3.26c0-2.156-.154-4.463-.36-6.494a9.24 9.24 0 010-1.179v-4.087-4.137a6.81 6.81 0 010-1.028c.052-.936.052-1.873 0-2.809v-1.78c.052-.96.052-1.923 0-2.883v-3.41c0-2.057.18-3.862.283-5.793.103-1.93.334-4.287.539-6.419V108.843h.128l1.156-.326a5.596 5.596 0 001.13-.326 55.17 55.17 0 015.52-1.906l2.875-.928 1.72-.627c1.08-.426 2.235-.601 2.85-1.655a3.771 3.771 0 00.565-2.958 6.125 6.125 0 010-1.104c.097.233.158.478.18.728a4.29 4.29 0 01-.41 3.535 9.561 9.561 0 01-5.752 2.407z"/></g><path d="M26.146 43.45a34.162 34.162 0 00-12.556.475C4.784 46.207-1.97 53.279-6.565 60.951c-2.979 5.015-8.704 14.418-6.933 20.335 1.643 5.366 10.27 8.852 12.556 14.719.051.276 8.345-41.85 27.088-52.556z" fill="#8D84B3"/><path d="M23.887 45.104a9.383 9.383 0 00-1.54 1.329.668.668 0 01-.258.175c-.291.132-.54.34-.718.602a5.405 5.405 0 00-.72.803c0 .275-.41.3-.641.626a9.59 9.59 0 01-.745.853c-.334.426-.719.727-1.027 1.203-.308.477-.744.903-1.078 1.38l-1.13 1.504-.976 1.454-.95 1.48-.924 1.504a4.236 4.236 0 01-.95 1.354l-.128.2a3.94 3.94 0 01-.77 1.756 4.69 4.69 0 00-.283.627c-.873 1.705-1.695 3.435-2.568 5.165l-.308.577a3.821 3.821 0 00-.23.476 7.41 7.41 0 01-.591 1.58 1.75 1.75 0 01-.257.401s-.154.15 0 .301c-.023.315-.11.622-.257.903-.18.426-.36.877-.513 1.303-.155.427-.386.828-.514 1.28l-.436 1.278a4.5 4.5 0 01-.283.702c-.208.277-.325.61-.334.953-.028.181-.08.358-.154.526A168.753 168.753 0 00-.17 94.025c0 .501-.334.627-.411 1.028.032.333.032.67 0 1.003a.225.225 0 01-.127.127.236.236 0 01-.181-.002c-.129 0 0 0-.129-.125l-.128-.251-.231-.526-.59-1.004a19.418 19.418 0 00-1.439-1.805l-.41-.501-.283-.326c-.899-.677-1.72-1.53-2.567-2.257l-2.568-2.257a1.208 1.208 0 01-.385-.476.56.56 0 00-.308-.276 1.96 1.96 0 01-.694-.627c-.385-.426-.796-.927-1.206-1.354-.411-.426-.206-.526-.514-.702-.308-.175-.257-.476-.385-.727-.128-.25-.41-.978-.616-1.404a1.543 1.543 0 01-.385-.702 2.873 2.873 0 00-.154-.878v-1.028a2.448 2.448 0 010-.777 2.011 2.011 0 010-.803c.097-.318.157-.646.18-.977a2.65 2.65 0 00.128-.853c.034-.128.077-.253.128-.376.151-.27.23-.57.231-.878.03-.178.073-.354.129-.526.433-1.35.947-2.672 1.54-3.962a1.4 1.4 0 01.385-.627c.22-.616.477-1.22.77-1.805.074-.202.169-.395.283-.577.327-.524.619-1.068.873-1.63a14.71 14.71 0 011.284-2.181 4.99 4.99 0 00.436-.727c0-.201.18-.402.283-.577l.565-.878.564-.978c.231-.376.488-.727.72-1.078l.667-1.003.693-.953.565-1.002.231-.276c.257-.376.668-.477.822-.828.154-.35.436-.677.59-.953a.883.883 0 01.206-.25l.539-.577.693-.777c.206-.251.462-.377.642-.577a19.62 19.62 0 001.643-1.605c.109-.112.23-.213.36-.3a4.22 4.22 0 001.052-.853l.36-.251.257-.15 1.155-.903c.42-.215.822-.458 1.207-.727.513-.176 1.053-.677 1.617-.778.34-.128.667-.288.976-.476a13.877 13.877 0 013.595-1.404h.334c.274-.102.558-.177.847-.226h.539a9.448 9.448 0 012.568-.426c.62-.034 1.236-.1 1.848-.2a5.678 5.678 0 011.849 0h.308c.41.025.822.025 1.232 0a1.92 1.92 0 001.002 0c.4.003.798.062 1.181.175.167.05.346.05.513 0 .396-.06.8.03 1.13.25 0 0 .206 0 0 0-.205 0-.23 0-.513.126l-.976-.15h-1.053c-.23.012-.462.012-.693 0H19.573a10.491 10.491 0 00-1.515 0l-1.669.175-1.514.25c-.556.086-1.1.238-1.618.452a2.98 2.98 0 01-.77.226 5.353 5.353 0 00-1.49.451 5.925 5.925 0 00-1.36.602c-.206.125-.565.2-.848.326a36.883 36.883 0 00-3.44 2.106l-.822.527c-.314.234-.614.485-.898.752a4.333 4.333 0 00-.848.627 19.41 19.41 0 01-1.823 1.63 2.54 2.54 0 00-.462.45c-.436.628-1.027 1.104-1.515 1.68a2.54 2.54 0 01-.462.427c-.18.176-.488.652-.693.903l-.976 1.228-.282.301c-.257.502-.72.903-1.002 1.43a9.374 9.374 0 01-.847 1.303l-.462.602c-.231.301-.257.627-.565.953-.25.351-.474.72-.668 1.103l-.667 1.104-.642 1.103-.642 1.128c-.193.426-.435.83-.719 1.204-.145.419-.334.822-.565 1.203-.154.331-.334.65-.539.953 0 .126-.205.376-.334.527a1.197 1.197 0 000 .426.966.966 0 01-.257.627s0 .175-.128.276a19.315 19.315 0 01-.95 2.332l-.23.626c-.155.352-.155.928-.437 1.029-.283.1 0 .2 0 .25a2.45 2.45 0 010 .803c0 .326 0 0-.283 1.354-.037.358-.037.72 0 1.078-.038.459-.038.92 0 1.379v.627a.931.931 0 000 .476c0 .251 0 .552.18.802.05.196.11.388.18.577.187.27.35.556.487.853.501.792 1.05 1.553 1.644 2.281.066.071.145.13.23.176.226.157.41.363.54.602 0 0 .308.526.513.426l.232.2a19.604 19.604 0 001.746 1.455c.31.256.601.532.872.828.668.601 1.387 1.178 2.029 1.805.309.225.57.506.77.827 0 0 .308.226.462.376.154.15.745.878 1.156 1.229.097.118.183.243.257.376.086.155.18.306.282.451.41.423.7.941.847 1.505l.154.376v.2s.154 0 0 0h-.154c.057-.28.134-.557.231-.827.119-.4.187-.812.206-1.229a.27.27 0 000-.15c.242-.636.43-1.29.565-1.956.08-.477.2-.946.36-1.404 0-.35.204-.777.256-1.228.044-.452.165-.892.36-1.304.13-.345.242-.697.333-1.053.123-.332.2-.677.231-1.028.177-.322.299-.669.36-1.029a4.13 4.13 0 00.282-1.178c-.007-.1-.007-.2 0-.3.183-.307.288-.65.308-1.004-.012-.1-.012-.2 0-.3.176-.329.29-.686.334-1.054.161-.248.25-.534.257-.827 0-.351.333-.677.385-.978.05-.305.145-.6.282-.878.148-.344.277-.695.385-1.053a8.628 8.628 0 00.591-1.856s0-.25.18-.376a1.029 1.029 0 010-.3s0-.15.154-.251a3.41 3.41 0 01.154-.401c.133-.185.213-.402.23-.627.044-.41.185-.806.412-1.154.159-.305.288-.624.385-.953a4.24 4.24 0 01.436-.902v-.276c.157-.737.443-1.44.848-2.081 0-.351.36-.828.41-1.179.043-.2.13-.388.257-.551.143-.201.23-.434.257-.677 0 0 .205-.301.308-.502a4.34 4.34 0 00.334-.727c.144-.46.333-.904.565-1.329 0-.226.308-.376.36-.677.05-.3.256-.376.359-.602l.436-.827.41-.727c.155-.376.335-.402.463-.627.128-.226 0-.351.257-.702s.642-1.104.899-1.68c.256-.577.385-.502.565-.778.368-.526.694-1.079.975-1.654.044-.101.105-.194.18-.276.282-.291.532-.61.745-.953.267-.313.491-.659.667-1.028 0 0 0-.176.205-.25.21-.18.377-.403.488-.653a2.06 2.06 0 01.308-.4c.283 0 .36-.452.565-.653.251-.225.475-.477.668-.752.4-.575.865-1.105 1.386-1.58l1.361-1.329c.12-.114.259-.207.41-.276 0 0 .18 0 .258-.225a3.64 3.64 0 011.258-1.129c.231-.15.462-.376.693-.551.149-.104.286-.221.41-.351.258-.251.643-.2.848-.552.205-.35.514-.25.796-.35l.36-.151a9.32 9.32 0 01-.873.702c-.457.316-.886.668-1.284 1.053z" fill="#8D84B3"/><path d="M42.013 30.912v16.574l-5.494 4.162a4.872 4.872 0 01-5.124.462 4.728 4.728 0 01-1.94-1.806 4.578 4.578 0 01-.639-2.542l.745-16.85h12.452z" fill="#F8A68F"/><path d="M40.652 31.037a4.47 4.47 0 00-.976 0h-1.335c-.17.013-.342.013-.513 0h-.72a4.216 4.216 0 01-.795 0H33c-.283 0-.565 0-.72-.176-.256.276-.564.176-.898.15-.334-.024-.205 0-.308 0H29.69l.205-.2v1.179c.012.091.012.184 0 .276a.442.442 0 000 .25c.128.226 0 .502 0 .753a.488.488 0 010 .2v1.179c.013.208.013.418 0 .627.013.2.013.4 0 .601.014.117.014.235 0 .351 0 .15-.154.276 0 .452.154.175 0 .15 0 .225 0 2.508-.205 5.015-.334 7.748 0 .226-.18.301-.154.477.026.175.128.226.128.451v2.081a.88.88 0 010 .276v.2c.155.452.18.954.386 1.405.19.444.46.85.796 1.203.031.081.031.17 0 .251 0 0 0 .126.128.126s.231 0 .334.225c.185.185.415.323.667.401 0 0 .154.226.334.151.18-.075.206.125.308.175.203.094.42.153.642.176a.34.34 0 01.282 0s.206.15.386 0c.18-.15.333 0 .436 0h1.13c.154 0 .257 0 .334-.2h.154c.154 0 .308 0 .36-.201.05-.2 0 0 .179-.15.513-.302 1.027-.753 1.515-1.104 0 0 .205-.175.308-.15.102.025.462-.377.667-.627.206-.251 0-.15.206-.176.25-.13.475-.3.667-.501.27-.273.581-.501.925-.677.108-.067.211-.143.308-.226l.205-.2.385-.251.385-.351.283-.2v.225-1.931c0-.2.23-.376 0-.526-.231-.151 0-.326-.18-.452v-.15-.351-.427-.4a2.45 2.45 0 000-.979.27.27 0 010-.2v-.577V40.515c0-.175.154-.426 0-.602v-.802a.761.761 0 000-.476 5.727 5.727 0 010-1.63v-.15a1.832 1.832 0 010-.377v-.25a3.304 3.304 0 010-1.129 1.84 1.84 0 000-.752 1.838 1.838 0 010-.828v-.3a1.347 1.347 0 000-.477.419.419 0 000-.426 2.45 2.45 0 010-.577v-.25-.502-.15c0 .075.154-.126 0 0a1.686 1.686 0 000 .5 1.953 1.953 0 000 .377c.013.1.013.201 0 .3.013.235.013.47 0 .703.027.217.027.435 0 .652a5.926 5.926 0 000 .677v1.68c-.04.24-.04.486 0 .727a.81.81 0 010 .351c-.05.248-.05.504 0 .752a2.714 2.714 0 000 .652v2.207c.024.158.024.318 0 .476a3.65 3.65 0 000 .502v.501c.078.364.078.74 0 1.104a.635.635 0 000 .3c.052.333.052.671 0 1.003.012.1.012.201 0 .301a1.733 1.733 0 000 .502c.013.234.013.468 0 .702V46.809c.051.231.051.47 0 .702v.2a1.55 1.55 0 01-.282.15c-.154 0-.18.252-.385.327-.166.091-.322.2-.463.326l-.487.35-.463.352a3.634 3.634 0 01-.462.351c-.18.125-.334.326-.539.351-.205.025-.308.276-.436.401a.85.85 0 01-.437.251s-.18.125-.282.125c-.103 0 0 0 0 .176a.226.226 0 01-.094.137.236.236 0 01-.163.038 2.563 2.563 0 01-.924.677l-.283.176c-.154 0-.334.326-.513.15 0 .126-.18.176-.308.251-.207.082-.422.14-.642.176-.171.01-.343.01-.514 0h-.976a.394.394 0 00-.23 0 1.153 1.153 0 01-.411 0h-.283a.761.761 0 01-.462 0 2.58 2.58 0 01-1.155-.677h-.129a.363.363 0 01-.178-.086.35.35 0 01-.104-.165s0-.301-.257-.176c-.282-.225-.436-.551-.719-.802a2.467 2.467 0 01-.205-.527 4.68 4.68 0 01-.36-1.203.662.662 0 010-.502 2.488 2.488 0 000-.275c.039-.25.039-.503 0-.753v-.2-.226c-.09-.243-.09-.51 0-.752a3.906 3.906 0 010-.752c.036-.183.036-.37 0-.552.18-.276 0-.602.129-.903.128-.3 0-.426 0-.652v-.551a1.176 1.176 0 010-.602 1.126 1.126 0 000-.502.76.76 0 000-.476v-.476-.552-.125a.444.444 0 000-.477v-.125a.565.565 0 000-.502v-.376-.476a.711.711 0 010-.401 3.33 3.33 0 000-.502c.077-.288.077-.59 0-.878v-.175-.15c0-.151 0 0 0 0v-.201-.301c0-.15-.154-.326 0-.527.154-.2 0-.3 0-.45v-.452-.126a1.496 1.496 0 010-1.003v-.551a.27.27 0 010-.276.295.295 0 000-.326V30.711h.333c.206-.125.463 0 .668 0 .205 0 .205.125.36 0 .153-.125.205 0 .333 0h.796c.18 0 .231.125.334.125.103 0 .18-.125.36-.125.298.038.6.038.898 0h.437c.296.06.602.06.898 0h.59a.92.92 0 00.54 0h.719a.366.366 0 00.36 0h.641c.145.025.292.025.437 0 .264-.025.53-.025.796 0H39.727a1.47 1.47 0 01.796 0h1.514c.154 0 0 0 0 0h-.718l-.668.326z" fill="#F8A68F"/><path d="M42.016 31.864a12.376 12.376 0 01-4.956 5.592c-2.156 1.254-4.339 1.454-6.342 3.636a9.285 9.285 0 00-1.694 2.507l.23-7.07 12.762-4.665z" fill="#F5835C"/><path d="M41.196 32.24c-.207.06-.405.144-.59.252h-.231c-.231 0-.18 0-.334.15-.154.15 0 0-.206 0-.102.01-.205.01-.308 0-.154 0-.205 0-.385.15a2.17 2.17 0 01-.462.176l-.462.175-.463.176-.436.175-.462.176c-.154 0-.308.15-.36 0a.601.601 0 01-.54.3h-.178l-1.464.553h-.283c-.154.175-.282.15-.436.225-.154.075 0 0 0 0a.25.25 0 01-.081.138.26.26 0 01-.15.063h-.36-.36a1.351 1.351 0 01-.333.15h-.205-.231a.183.183 0 01-.155 0l-2.08.778.13-.201v2.507c0 .126-.155.176-.155.276 0 .1.154.15 0 .276V40.164a.418.418 0 000 .126c.076.304.076.623 0 .927v.928a.123.123 0 010 .15v.352h-.334a.945.945 0 00.154-.326s.18 0 0-.226 0 0 .154-.175a.897.897 0 00.206-.377.172.172 0 010-.125s.18 0 .154-.2c-.026-.201.128-.151.128-.251v-.15-.201s.154-.126.231-.201c.077-.075.129 0 0-.226 0 0 .206 0 .154-.2-.051-.2 0 0 0-.126 0-.125.59-.526.899-.777a.21.21 0 01.206 0c0-.175.282-.226.41-.376l.129-.125a.93.93 0 00.462-.251c.176-.164.4-.27.642-.301.076.019.155.019.23 0h.283c.1-.04.194-.09.283-.15l.308-.126.745.477h.308l.282-.126h.334c.051 0 .154-.15.18-.276.025-.125 0 0 0 0h.205l.206-.15c.205-.15.18 0 .23 0 .052 0 .386-.15.488-.376.103-.226 0 0 0 0s.257 0 .283-.2h.18l.256-.302s.283 0 .309-.2c.205 0 .205-.251.41-.226.206.025.18 0 .206-.2.17-.291.387-.554.642-.778a.876.876 0 01.128-.2.842.842 0 01.385-.552.647.647 0 00.231-.426.544.544 0 01.283-.402v-.3c0-.1.128-.126.128-.226s0-.15.205-.2c.206-.05 0 0 0 0l.231-.226c.232-.226.129-.126.129 0 0 .125.154-.126 0 0l-.154.376a.834.834 0 000 .35v.151c-.053.133-.122.26-.206.376 0 0 0 .251-.205.351-.092.108-.17.225-.231.351l-.257.377-.257.35s-.23.226-.23.402a.231.231 0 01-.154.176c-.18 0-.232.175-.335.275-.102.1-.205.176-.23.326-.026.15-.155 0-.232.176a7.61 7.61 0 01-.77.802.493.493 0 01-.257.125s-.154.15-.231.251c-.077.1-.205 0-.282.126a.81.81 0 01-.565.376h-.18c-.026 0-.36.25-.54.35-.179.1 0 0-.179 0l-.282.176a1.79 1.79 0 01-.385.176c0 .15-.309 0-.437.2a.754.754 0 01-.41.176h-.206s-.129.15-.283.125c-.154-.025-.205 0-.308.126l-.308.15-.334.15-.308.15s-.205.176-.36.151c-.153-.025-.179.15-.256.226a.368.368 0 01-.283 0h-.18c-.18 0 0 0 0 .125v.126a.97.97 0 01-.513.426s0 .25-.308.125v.226c-.078.098-.164.19-.257.276 0 0 0 .175-.154.25-.09.09-.168.191-.23.301v.326l-.13.126v.25c0 .076-.153.477-.41.652h-.257v-.225c0-.075.18-.15 0-.176a2.598 2.598 0 000-.627V41.87v-.276-.175-.451-.15-.452-.451-.352c.154-.15 0-.35 0-.526v-.401-.351a.344.344 0 010-.351.442.442 0 000-.301.271.271 0 000-.301.173.173 0 000-.15v-.126h.154s.257 0 .308-.175a.235.235 0 00.283 0 .288.288 0 00.282 0h.539c.078 0 0-.126.232 0 .23.125.205 0 .308 0a.733.733 0 00.513-.251h.386c.18 0 .18-.226.307-.15.129.075.18 0 .283 0 .103 0 .18-.126.257 0a.668.668 0 01.59-.226c0-.176.231 0 .334-.226.103-.226 0 0 .154 0h.565c.051 0 .257-.125.41-.2.155-.076 0 0 .18 0h.823c.179 0 .128-.176.23-.201l.514-.226h.23c.197-.03.383-.107.54-.226h.308c.121-.038.234-.098.334-.175h.822c.205 0 .282 0 .436-.15l.488-.176a1.17 1.17 0 01.488-.2H41.196l-.334.175.334-2.407z" fill="#F5835C"/><path d="M43.218 21.71c-1.078-.226-1.977.626-2.567 1.78-1.772-5.817-5.649-14.618-10.399-15.998-17.177-5.014-16.818 19.558-10.27 27.983a12.531 12.531 0 004.427 3.26c1.706.75 3.562 1.118 5.432 1.078a12.395 12.395 0 005.855-2.507 11.22 11.22 0 004.57-5.441h.23c.66.029 1.315-.122 1.891-.437a3.501 3.501 0 001.37-1.344 7.412 7.412 0 001.644-4.538c.128-1.605-.847-3.56-2.183-3.836z" fill="#F8A68F"/><path d="M40.525 32.297a1.81 1.81 0 01-.256-.081h.282a2.131 2.131 0 01-.668 1.003v.15c0 .15-.282.828-.615 1.229-.334.401-.154.3-.257.426a11.107 11.107 0 01-3.158 2.783l-.411.176-.334.2a4.244 4.244 0 01-1.027.678.735.735 0 01-.334 0s-.18 0-.205.125c-.145.178-.342.31-.565.376l-.976.401c-.326.11-.66.194-1.001.251-.338.068-.682.11-1.027.125-.18.014-.36.014-.54 0-.282 0-.487-.15-.744 0-.256.15-.257 0-.41 0a13.71 13.71 0 01-5.957-2.13 12.048 12.048 0 01-4.006-4.815c-.18-.326 0-.502-.205-.752-.205-.251-.283-.276-.41-.602a28.937 28.937 0 01-1.054-3.185 2.787 2.787 0 010-.451v-.326a9.165 9.165 0 01-.513-2.382c-.154-.802-.206-1.605-.283-2.508a.662.662 0 010-.426.271.271 0 000-.3 1.006 1.006 0 010-.628 5.312 5.312 0 000-1.278c0-.226.155-.402 0-.627-.154-.226 0-.376 0-.552.023-.359.023-.719 0-1.078a.81.81 0 010-.451.834.834 0 000-.627v-.727a1.594 1.594 0 010-.527v-.552c.112-.221.19-.458.231-.702.092-.187.136-.394.129-.601l.087-.128a1 1 0 00-.036-.173c0-.025-.256-.15 0-.176.145-.014.241-.188.311-.36a.31.31 0 00-.003-.016c-.051-.25 0-.25 0-.376a10.994 10.994 0 011.635-2.558.894.894 0 01.086-.125l.05-.03c.053-.054.109-.1.168-.126.038-.035.075-.072.108-.111.203-.376.623-.638.932-.987.101-.119.223-.22.36-.3.59-.301.513-.352 1.155-.678a5.028 5.028 0 011.771-.651c.213.024.429.024.642 0l.462-.15h3.415l.847.15.848.2h.256c.334 0 .488.376.77.376.28.03.556.088.822.176l.231.125.488.326.617.426c.205.126.308.351.436.452.128.1.745.852 1.181 1.178.096.065.175.15.231.25.135.3.337.566.59.778.078.066.132.154.155.25v.201l.642.828c.18.276.18.602.487.853 0 .376.463.752.54 1.128.052.257.166.498.333.702.504.782.901 1.625 1.181 2.507.005.076.005.15 0 .226.104.172.181.358.231.552v.376c.309.521.526 1.089.642 1.68.118.405.273.8.462 1.178.187.335.311.7.367 1.077.111-.126.169-.276.275-.45.188-.24.449-.415.745-.501.128 0 .257 0 .36-.15a.704.704 0 01.847 0s.18 0 0 .15 0 .15-.308 0a1.257 1.257 0 00-.668.15c-.18.134-.335.295-.462.476l-.282.351a4.57 4.57 0 00-.463.753l-.36.652-.179-.702v-.126c0-.35-.257-.627-.308-1.003-.051-.376-.231-.677-.334-1.003l-.41-1.103-.386-1.003a4.613 4.613 0 00-.513-1.078 1.29 1.29 0 01-.231-.502 3.555 3.555 0 00-.385-1.028 6.41 6.41 0 00-.488-.927 2.68 2.68 0 01-.283-.602c-.436-.828-.95-1.63-1.463-2.508a3.44 3.44 0 01-.36-.601 2.217 2.217 0 00-.513-.627c-.18-.2-.154-.427-.41-.627-.411-.395-.797-.814-1.156-1.254a1.061 1.061 0 00-.308-.35c-.488-.227-.822-.653-1.31-.878a1.61 1.61 0 01-.334-.276c-.128 0-.513-.176-.719-.251a7.584 7.584 0 00-1.078-.3h-.257a9.394 9.394 0 00-1.258-.202c-.359.024-.719.024-1.078 0h-1.335a3.628 3.628 0 00-.873 0l-.899.15-.873.277c-.282 0-.539.25-.821.35-.28.17-.572.321-.873.452-.18.25-.488.376-.72.602a2.77 2.77 0 01-.616.451l-.007.009c-.016.03-.03.06-.044.092a.269.269 0 00-.064.019 1.2 1.2 0 01-.169.127c-.046.047-.09.1-.135.154a.89.89 0 00-.068.15v.001c0 .175 0 .3-.283.376a.443.443 0 000 .176c-.285.52-.602 1.022-.95 1.504 0 0-.128.3-.205.426-.034.055-.072.185-.126.317.038.242-.208.415-.208.611l-.067.098c.015.135.004.272-.036.403 0 .301-.18.652-.308.928-.04.115-.074.232-.103.35v.302c-.029.175-.029.352 0 .527v.727a.834.834 0 010 .627.81.81 0 000 .451c.023.36.023.72 0 1.078 0 .176-.154.326 0 .552.155.226 0 .401 0 .627.052.424.052.854 0 1.278a1.006 1.006 0 000 .627.271.271 0 010 .301.662.662 0 000 .426c.077.903.129 1.706.283 2.508.064.812.237 1.613.513 2.382v.326c-.012.15-.012.301 0 .451.29 1.08.64 2.144 1.053 3.185.128.326.206.35.411.602.205.25.026.426.205.752.88 1.92 2.261 3.58 4.006 4.814a13.71 13.71 0 005.956 2.131c.154 0 .155.15.411 0 .257-.15.462 0 .745 0 .18.014.36.014.54 0A6.752 6.752 0 0031 40.014c.34-.057.675-.14 1.001-.25l.976-.402c.223-.067.42-.198.565-.376.026-.125.205-.125.205-.125.11.025.224.025.334 0 .375-.176.72-.404 1.027-.677l.334-.201.41-.175a11.107 11.107 0 003.159-2.784c.102-.125-.077-.025.257-.426.333-.401.616-1.078.616-1.229v-.15c.294-.247.515-.565.64-.922z" fill="#F8A68F"/><path d="M40.682 23.49C38.91 17.673 35.033 8.87 30.283 7.492a12.79 12.79 0 00-6.624-.376C35.521 11.078 40.682 23.49 40.682 23.49z" fill="#F58B73"/><path d="M40.19 22.662c-.128-.175-.154-.476-.385-.601-.23-.126 0 0 0-.126v-.3c0-.1 0-.251-.257-.302-.256-.05 0-.2 0-.275 0-.076-.128-.251-.23-.351a4.327 4.327 0 00-.257-.477 2.297 2.297 0 01-.334-.526l-.36-.577-.359-.502-.36-.526-.359-.502c-.128-.175-.282-.35-.205-.576-.309 0-.411-.226-.54-.452-.128-.225 0 0-.18-.15-.416-.54-.862-1.06-1.334-1.555a.732.732 0 010-.2v-.15s-.309-.277-.463-.402a.344.344 0 010-.175s-.23 0-.308-.15l-.36-.352s-.179-.276-.333-.376l-.385-.301-.18-.2c0-.126 0-.251-.282-.226h-.154a24.478 24.478 0 00-5.135-3.435c-.154 0-.154-.251-.283-.301-.128-.05-.23 0-.385 0a16.615 16.615 0 00-1.54-.652l-.206-.126a1.204 1.204 0 01-.513-.125l-.796-.276.821-.15.72-.126c.417-.05.84-.05 1.257 0a.183.183 0 01.206 0h.488c.22.038.446.038.667 0 0 0 .18.15.308 0 .129-.15.206 0 .283 0 .187.025.377.025.565 0h.23s.155.15.309 0 .282 0 .36 0h1.232s.18.176.333 0c.154-.175.129 0 .18 0 .487.206.95.458 1.387.753 0 0 .18.125.18.225s.41.276.616.376a.41.41 0 01.205.15c.123.187.29.342.488.452.243.193.444.432.59.702l.206.226s.128 0 .18.15l.205.326.282.301.283.376.23.351.232.351.23.351v.402c0 .05.232.2.36.25v.251l.206.301v.3c0 .076.205.527.436.678a.27.27 0 010 .15c0 .176 0 .351.206.427a.271.271 0 010 .15c0 .15.205.276.282.426.077.15 0 .351.18.452 0 .225.23.376.18.627a.318.318 0 00.007.195.327.327 0 00.121.156c.255.368.446.774.565 1.203a.22.22 0 000 .125v.276a.468.468 0 000 .201c.184.242.3.528.333.827.03.22.119.427.257.602a.937.937 0 01.18.602c.043.137.113.265.205.376v.376a.76.76 0 010 .527.173.173 0 000 .2v.326c.02-.099.02-.201 0-.3l-.154-.251s-.18-.176-.23-.251c-.052-.075 0 0 0-.175a2.885 2.885 0 01-.155-.502c0-.175-.18-.3-.18-.476a2.91 2.91 0 00-.18-.502l-.205-.552c0-.175 0-.35-.18-.501-.18-.15-.128-.401-.282-.527a.32.32 0 010-.276c0-.2 0-.35-.154-.526a1.444 1.444 0 00-.257-.476v-.301l-.667-1.28a.688.688 0 010-.325s-.154-.226-.231-.351c-.077-.125 0-.226 0-.351a1.543 1.543 0 01-.41-.752.616.616 0 000-.226c-.258-.15-.284-.451-.463-.652-.18-.2 0-.15 0-.226-.06-.12-.137-.23-.231-.326a2.316 2.316 0 01-.283-.476v-.125s-.18-.377-.385-.502a1.428 1.428 0 01-.308-.451.759.759 0 010-.251c0-.125-.23-.125-.257-.3-.025-.176-.154-.227-.256-.352l-.309-.351-.282-.326-.308-.351a.808.808 0 01-.334-.376c-.18 0-.257-.176-.385-.276a.683.683 0 01-.257-.276l-.128-.2c-.128-.2 0 0-.154 0s-.18 0-.206-.15c-.025-.151 0 0 0 0a1.6 1.6 0 01-.77-.452h-.23s-.335 0-.309-.226h-.282a2.22 2.22 0 01-.488-.15h-.873a.657.657 0 01-.231 0h-.488-.565a4.383 4.383 0 01-1.001-.15h-.283c-.102 0-.205-.176-.23 0a2.102 2.102 0 00-.797 0h-.436a4.168 4.168 0 00-.77.15V6.54h.153c.129 0 .283 0 .36.2h.231c.18 0 .36.2.59.176.232-.025 0 0 0 0h.155a.84.84 0 01.59.225c.154.126.36.15.514.326.154.176.308 0 .462.15.154.226.436.251.642.402.205.15.36 0 .462.25.103.251.231.176.41.176.173.044.326.14.437.276a.74.74 0 00.308.25s.206.176.36.151c.154-.025.18.2.282.276.103.075.231.226.385.2.154-.024 0 0 0 0a.351.351 0 00.283.226h.128s.154.226.308.226 0 .15.257.2c.257.05.154.226.257.276.102.05.205 0 .256.201.052.2.231.175.309.3.14.19.338.33.564.402 0 0 .129 0 .129.125 0 .126 0 0 .154.176.154.175.308 0 .334.276.025.276.18.175.256.276.078.1.231.15.231.275 0 .126 0 0 0 0s.463.326.59.577c.18 0 .232.25.386.276.154.025 0 0 0 .175a.201.201 0 00.076.11.209.209 0 00.13.04v.202c0 .05.128.2.18.2.05 0 .256.25.384.376.129.126 0 .2.18.226.18.025 0 .15 0 .226.06.097.129.19.206.275l.18.226c.128 0 0 .2 0 .276 0 .075.179 0 .256.15.118.196.275.366.462.502 0 0 0 .226.154.326s.206.426.437.526c.23.1 0 0 0 0s0 .276.18.402c.18.125 0 .275.282.326.282.05 0 0 0 0a.221.221 0 00.03.153.23.23 0 00.124.097v.15c0 .026.128.151.128.277.029.115.091.22.18.3.18.15.18.377.282.552.127.184.238.376.334.577v.2c0 .201 0 0 0 0s.283.301.334.502a.92.92 0 00.128.276.245.245 0 000 .15s0 .301.154.326c.155.025 0 .276 0 .301v.175c0 .176 0 0 0 0s-.205-.175-.256-.326c-.052-.15-.052 1.154-.052.978z" fill="#F58B73"/></g></svg>
