<?xml version="1.0" encoding="UTF-8"?>
<svg version="1.1" xmlns="http://www.w3.org/2000/svg" width="2723" height="1204" viewBox="0 0 2723 1204">
<path d="M0 0 C898.59 0 1797.18 0 2723 0 C2723 397.32 2723 794.64 2723 1204 C1824.41 1204 925.82 1204 0 1204 C0 806.68 0 409.36 0 0 Z " fill="#FEFEFE" transform="translate(0,0)"/>
<path d="M0 0 C0.90530457 -0.00376648 1.81060913 -0.00753296 2.74334717 -0.01141357 C30.10123973 -0.06910578 57.17685098 3.43375798 83.125 12.3125 C84.38062744 12.73740723 84.38062744 12.73740723 85.66162109 13.17089844 C104.51689141 19.65788556 123.04818782 28.41846308 139.125 40.3125 C139.64707031 40.69615723 140.16914062 41.07981445 140.70703125 41.47509766 C148.21209412 47.01821054 155.36798921 52.870631 162.125 59.3125 C162.74391113 59.8988623 163.36282227 60.48522461 164.00048828 61.08935547 C197.99743689 93.49533366 219.0036129 134.96953928 230.125 180.3125 C230.32222656 181.10640137 230.51945312 181.90030273 230.72265625 182.71826172 C247.74720401 253.09333721 237.39755009 334.0542015 200.11572266 396.25463867 C195.55757249 403.58517022 190.50417376 410.56358722 185.125 417.3125 C184.32964844 418.3128125 183.53429688 419.313125 182.71484375 420.34375 C170.28271029 435.64796195 156.17485978 448.89142762 140.125 460.3125 C139.22612061 460.97040527 139.22612061 460.97040527 138.30908203 461.64160156 C108.60505362 483.33078566 73.03542502 493.85734722 37.125 499.3125 C35.44229004 499.58284058 35.44229004 499.58284058 33.72558594 499.85864258 C23.73582728 501.35204625 13.95968542 501.67026271 3.875 501.625 C3.04961731 501.62350952 2.22423462 501.62201904 1.37384033 501.6204834 C-54.08745992 501.44158029 -110.75507525 485.9148303 -152.875 448.3125 C-153.36258789 447.8784082 -153.85017578 447.44431641 -154.35253906 446.99707031 C-157.90857914 443.81909579 -161.40425662 440.58338315 -164.875 437.3125 C-165.6071875 436.62285156 -166.339375 435.93320312 -167.09375 435.22265625 C-172.50460459 429.972839 -177.24160326 424.25255968 -181.875 418.3125 C-182.51526123 417.49483154 -182.51526123 417.49483154 -183.16845703 416.66064453 C-211.52440802 380.15559757 -227.41265166 334.92631293 -232.875 289.3125 C-232.95974075 288.60796188 -233.04448151 287.90342377 -233.13179016 287.17753601 C-233.87340673 280.50398708 -234.06596965 273.88692372 -234.11328125 267.17578125 C-234.1230751 266.03030823 -234.13286896 264.88483521 -234.14295959 263.70465088 C-234.47120893 215.37049792 -234.47120893 215.37049792 -229.875 192.3125 C-229.66069336 191.22710938 -229.44638672 190.14171875 -229.22558594 189.0234375 C-222.10126911 154.2625787 -208.76098133 120.16495567 -187.875 91.3125 C-187.27437744 90.4786377 -187.27437744 90.4786377 -186.66162109 89.62792969 C-180.34600787 80.94427945 -173.30068984 73.05506513 -165.875 65.3125 C-164.97910156 64.36375 -164.08320312 63.415 -163.16015625 62.4375 C-142.28171791 40.85391617 -115.03739264 24.43335986 -86.875 14.3125 C-85.76125 13.89742188 -84.6475 13.48234375 -83.5 13.0546875 C-56.23147035 3.37679417 -28.74857919 0.06600644 0 0 Z " fill="#9007C1" transform="translate(1051.875,441.6875)"/>
<path d="M0 0 C29.12325407 27.27620403 43.21246404 63.67279459 44.86400557 103.29780626 C45.04801167 110.8129861 45.01921657 118.32930725 45.00537109 125.84619141 C45.00812637 128.35634983 45.01180952 130.86650737 45.01634216 133.37666321 C45.02440701 138.75005073 45.02679889 144.12339466 45.02439499 149.49678421 C45.0212742 157.28181139 45.03301599 165.06676701 45.04894479 172.85177605 C45.07481529 185.50892501 45.09488208 198.16607402 45.10839844 210.82324219 C45.10920881 211.578282 45.11001918 212.33332182 45.1108541 213.11124162 C45.12208164 223.83171547 45.12735944 234.55218411 45.13024123 245.27266304 C45.13054721 246.40613234 45.13054721 246.40613234 45.13085938 247.5625 C45.13105931 248.31721052 45.13125925 249.07192103 45.13146524 249.84950157 C45.1352073 262.46673985 45.15434935 275.08389978 45.18595374 287.7010988 C45.20477997 295.46022452 45.21088484 303.21914851 45.20013656 310.97829066 C45.19302949 316.92949025 45.20668038 322.88053122 45.22775459 328.83170128 C45.23305329 331.26037141 45.23161987 333.68906768 45.22271919 336.11772728 C45.10236926 361.63407411 45.10236926 361.63407411 57.375 383.33203125 C64.29320669 389.91393623 72.52622122 391.05238036 81.75 390.875 C82.58789062 390.87822266 83.42578125 390.88144531 84.2890625 390.88476562 C92.08335938 390.81840551 98.81428255 389.42682359 106.03125 386.4855957 C107.3625293 385.94537529 107.3625293 385.94537529 108.72070312 385.39424133 C109.39037109 385.11976669 110.06003906 384.84529205 110.75 384.5625 C112.0797413 392.20185613 113.40158308 399.84253303 114.71332645 407.48499775 C115.32265556 411.03357275 115.93470687 414.58163332 116.55297852 418.12866211 C117.14942461 421.55106856 117.73872074 424.97463581 118.32305717 428.39912987 C118.65661622 430.34265478 118.99758836 432.28490267 119.33863831 434.22712708 C119.53892136 435.40812485 119.73920441 436.58912262 119.94555664 437.8059082 C120.21536095 439.36810844 120.21536095 439.36810844 120.49061584 440.96186829 C120.75 443.5625 120.75 443.5625 119.75 446.5625 C117.18304567 447.58182327 114.78259193 448.36016051 112.125 449.0625 C111.32449219 449.27608154 110.52398438 449.48966309 109.69921875 449.7097168 C87.6416154 455.29378656 62.09387621 457.77407434 39.75 452.5625 C37.99816406 452.19511719 37.99816406 452.19511719 36.2109375 451.8203125 C22.12449844 448.52472738 9.44682695 442.39758607 -1.25 432.5625 C-2.01699219 431.87542969 -2.78398437 431.18835938 -3.57421875 430.48046875 C-16.3417787 418.44991566 -26.52962593 399.7298568 -27.4375 381.875 C-27.375625 381.111875 -27.31375 380.34875 -27.25 379.5625 C-27.91 379.5625 -28.57 379.5625 -29.25 379.5625 C-29.46011719 380.243125 -29.67023437 380.92375 -29.88671875 381.625 C-31.69516611 385.5217118 -34.22472443 388.36690357 -37.0625 391.5625 C-37.64290039 392.22040527 -38.22330078 392.87831055 -38.82128906 393.55615234 C-64.889347 422.82814501 -95.86105553 440.52517322 -133.25 451.5625 C-134.36117187 451.8925 -135.47234375 452.2225 -136.6171875 452.5625 C-155.07010579 457.58085738 -174.47043354 458.79791284 -193.5 458.8125 C-194.691698 458.81351212 -194.691698 458.81351212 -195.9074707 458.81454468 C-241.17106652 458.75373096 -283.85132294 445.96897527 -317.25 414.5625 C-318.13558594 413.77359375 -318.13558594 413.77359375 -319.0390625 412.96875 C-329.84024706 402.93542216 -337.36595456 389.92314766 -343.25 376.5625 C-343.56453125 375.85754395 -343.8790625 375.15258789 -344.203125 374.42626953 C-349.32011277 362.76362682 -352.1731199 351.10060047 -354.25 338.5625 C-354.426521 337.64686279 -354.60304199 336.73122559 -354.78491211 335.7878418 C-355.32306934 332.05577085 -355.4120682 328.39054484 -355.41796875 324.62890625 C-355.42129715 323.87391342 -355.42462555 323.11892059 -355.42805481 322.34104919 C-355.43309942 320.74503178 -355.4354639 319.1490039 -355.43530273 317.55297852 C-355.43746526 315.16338632 -355.45558029 312.77427486 -355.47460938 310.38476562 C-355.52360712 297.3836648 -354.48527996 284.73033091 -351.0625 272.125 C-350.84746826 271.33061523 -350.63243652 270.53623047 -350.41088867 269.71777344 C-344.82635093 249.96407169 -334.4917855 234.15922096 -320.25 219.5625 C-319.37988281 218.59957031 -319.37988281 218.59957031 -318.4921875 217.6171875 C-297.78997896 195.25047978 -264.02187883 183.6308209 -235.25 176.5625 C-234.07026611 176.26545166 -234.07026611 176.26545166 -232.86669922 175.96240234 C-207.73298182 169.77234672 -181.62553745 167.46289056 -155.9609375 164.46875 C-96.42759743 159.08596047 -96.42759743 159.08596047 -47.4296875 128.4765625 C-38.45812442 116.34917321 -37.90527334 101.04258726 -39.25 86.5625 C-40.82436658 77.38645808 -44.74245157 69.98917355 -50.25 62.5625 C-50.82363281 61.78132812 -51.39726562 61.00015625 -51.98828125 60.1953125 C-67.73592974 40.70464692 -98.05415356 32.74245968 -121.94140625 30.03125 C-143.53012701 28.13175915 -165.96641034 28.41677011 -187.25 32.5625 C-188.1575 32.72878906 -189.065 32.89507813 -190 33.06640625 C-221.26613424 38.86438444 -252.24935966 50.33145459 -278.65234375 68.203125 C-279.60657227 68.84789795 -280.56080078 69.4926709 -281.54394531 70.15698242 C-283.44864397 71.45244107 -285.34541913 72.7596396 -287.23339844 74.0793457 C-288.53132324 74.97012817 -288.53132324 74.97012817 -289.85546875 75.87890625 C-290.63043701 76.41974854 -291.40540527 76.96059082 -292.20385742 77.51782227 C-293.216698 78.03493774 -293.216698 78.03493774 -294.25 78.5625 C-297.65307469 77.42814177 -297.86069284 77.02769397 -299.5703125 74.07421875 C-300.01487793 73.31866699 -300.45944336 72.56311523 -300.91748047 71.78466797 C-301.39846191 70.94822754 -301.87944336 70.11178711 -302.375 69.25 C-303.44155608 67.43291693 -304.50933798 65.616553 -305.578125 63.80078125 C-306.45114258 62.31118896 -306.45114258 62.31118896 -307.34179688 60.79150391 C-310.51448402 55.4227782 -313.76217276 50.09984508 -317.00628662 44.77407837 C-318.10013199 42.97832551 -319.19311864 41.18205393 -320.28564453 39.38549805 C-320.63275482 38.81488144 -320.97986511 38.24426483 -321.3374939 37.65635681 C-322.34430008 35.99862228 -323.34748598 34.33869073 -324.35058594 32.67871094 C-325.59049357 30.64449743 -326.84826471 28.62103502 -328.12597656 26.61035156 C-328.68510742 25.72057617 -329.24423828 24.83080078 -329.8203125 23.9140625 C-330.31547363 23.14143066 -330.81063477 22.36879883 -331.32080078 21.57275391 C-332.25 19.5625 -332.25 19.5625 -331.25 16.5625 C-328.86641829 14.79901252 -326.50566252 13.19795886 -324 11.625 C-323.24058105 11.14337402 -322.48116211 10.66174805 -321.69873047 10.16552734 C-288.42822563 -10.72713618 -253.56556784 -26.43136653 -215.25 -35.4375 C-214.02023438 -35.74171875 -212.79046875 -36.0459375 -211.5234375 -36.359375 C-204.34869406 -38.03747728 -197.10950653 -39.08526462 -189.8125 -40.0625 C-188.89533203 -40.18584717 -187.97816406 -40.30919434 -187.03320312 -40.4362793 C-124.59933658 -48.36116837 -48.91792498 -44.32061119 0 0 Z " fill="#9008C1" transform="translate(2437.25,484.4375)"/>
<path d="M0 0 C3.80922214 3.40482573 7.53363845 6.89184365 11.21972656 10.42919922 C12.11433594 11.28255859 13.00894531 12.13591797 13.93066406 13.01513672 C19.08507339 18.04266827 23.75395482 23.31011455 28.23144531 28.94873047 C29.87390804 30.99777533 31.57437266 32.93052705 33.34472656 34.86669922 C35.21972656 37.42919922 35.21972656 37.42919922 35.03588867 39.42944336 C34.05820778 41.82495165 33.16739263 42.55217079 31.03613281 43.98779297 C30.36533691 44.44919678 29.69454102 44.91060059 29.00341797 45.38598633 C28.2704248 45.87462158 27.53743164 46.36325684 26.78222656 46.86669922 C25.21760645 47.93842261 23.65383078 49.01137967 22.09082031 50.08544922 C21.28241699 50.63716797 20.47401367 51.18888672 19.64111328 51.75732422 C15.82554177 54.39183054 12.08900789 57.13232583 8.34472656 59.86669922 C-0.2305104 66.09530566 -8.96707331 72.07392934 -17.73193359 78.03125 C-21.77569347 80.79103177 -25.78262306 83.60309677 -29.78027344 86.42919922 C-33.79657218 82.47318263 -37.63942216 78.37896645 -41.46777344 74.24169922 C-64.00345585 50.07431484 -90.27697217 31.319619 -121.78027344 20.42919922 C-122.4725 20.18363281 -123.16472656 19.93806641 -123.87792969 19.68505859 C-168.5180413 4.13581337 -228.66093081 0.80218805 -272.31713867 21.29760742 C-279.86405105 25.04786893 -286.98587293 29.44051776 -293.78027344 34.42919922 C-294.49441406 34.94611328 -295.20855469 35.46302734 -295.94433594 35.99560547 C-306.52704167 44.40695923 -313.39268504 56.8746146 -317.78027344 69.42919922 C-318.11929688 70.37150391 -318.45832031 71.31380859 -318.80761719 72.28466797 C-321.06100879 79.97942915 -321.05378222 87.64689531 -321.09277344 95.61669922 C-321.09841309 96.72174805 -321.10405273 97.82679688 -321.10986328 98.96533203 C-320.94646954 117.43713337 -314.85123858 133.9969031 -302.09277344 147.61669922 C-267.17430326 180.42919163 -210.62312961 187.99685544 -165.62939453 197.95214844 C-147.48007684 202.00532807 -129.5723433 207.03160499 -111.78027344 212.42919922 C-110.59046875 212.78111328 -109.40066406 213.13302734 -108.17480469 213.49560547 C-87.54723969 219.73386801 -67.14964937 226.94676176 -47.78027344 236.42919922 C-46.91853516 236.84782227 -46.05679687 237.26644531 -45.16894531 237.69775391 C-8.01701917 255.92246241 24.17929771 283.985398 38.18823242 323.87402344 C47.30370864 350.67467608 49.22356809 380.54615775 44.21972656 408.42919922 C43.92775391 410.20423828 43.92775391 410.20423828 43.62988281 412.01513672 C37.87952619 443.93131727 24.23664483 472.3985727 2.20800781 496.25341797 C0.61265836 497.99921295 -0.87963076 499.76208024 -2.34277344 501.61669922 C-33.55071346 537.62586078 -85.47797113 554.84514064 -130.78027344 562.42919922 C-132.26285645 562.6812915 -132.26285645 562.6812915 -133.77539062 562.93847656 C-151.14304743 565.76174968 -168.31944168 566.87207699 -185.90527344 566.86669922 C-187.49017075 566.86780197 -187.49017075 566.86780197 -189.10708618 566.868927 C-249.70367904 566.75939218 -315.10709149 552.92378187 -364.78027344 516.42919922 C-365.3782373 515.99671875 -365.97620117 515.56423828 -366.59228516 515.11865234 C-393.90959062 495.32802806 -420.00000495 471.09558106 -436.78027344 441.42919922 C-436.78027344 440.76919922 -436.78027344 440.10919922 -436.78027344 439.42919922 C-435.10986328 438.13916016 -435.10986328 438.13916016 -432.74121094 436.66357422 C-431.86207031 436.11056641 -430.98292969 435.55755859 -430.07714844 434.98779297 C-429.11292969 434.39095703 -428.14871094 433.79412109 -427.15527344 433.17919922 C-425.12130204 431.90334443 -423.08745112 430.62729754 -421.05371094 429.35107422 C-420.00795898 428.69816406 -418.96220703 428.04525391 -417.88476562 427.37255859 C-413.16590082 424.41862938 -408.47356501 421.42352519 -403.78027344 418.42919922 C-401.97183461 417.27791416 -400.16323972 416.12687422 -398.35449219 414.97607422 C-397.45005371 414.40050781 -396.54561523 413.82494141 -395.61376953 413.23193359 C-392.61363213 411.32317825 -389.61300639 409.4151923 -386.61230469 407.50732422 C-385.60490234 406.86666016 -384.5975 406.22599609 -383.55957031 405.56591797 C-381.62223875 404.33388223 -379.68474591 403.10210005 -377.74707031 401.87060547 C-376.87759766 401.31759766 -376.008125 400.76458984 -375.11230469 400.19482422 C-374.34635986 399.70788086 -373.58041504 399.2209375 -372.79125977 398.71923828 C-371.10939693 397.64033052 -369.44285579 396.53758745 -367.78027344 395.42919922 C-365.85449219 395.43701172 -365.85449219 395.43701172 -363.78027344 396.42919922 C-361.73730469 398.98388672 -361.73730469 398.98388672 -359.59277344 402.30419922 C-331.85838331 444.06643045 -288.03953644 471.5737704 -239.78027344 483.42919922 C-238.67296875 483.71408203 -237.56566406 483.99896484 -236.42480469 484.29248047 C-232.89416405 485.13106137 -229.35615253 485.82084079 -225.78027344 486.42919922 C-224.99056152 486.56600098 -224.20084961 486.70280273 -223.38720703 486.84375 C-194.02949979 491.68485175 -162.91600454 491.40345284 -133.78027344 485.42919922 C-132.9884668 485.27435059 -132.19666016 485.11950195 -131.38085938 484.95996094 C-102.85932848 479.24933069 -74.04022929 463.4537282 -57.46777344 439.17919922 C-43.36435151 417.6906229 -39.29317261 390.46169594 -44.02636719 365.33935547 C-49.55019805 344.01679592 -62.89295573 327.93571922 -81.70068359 316.7487793 C-101.12710478 305.67163171 -122.21997091 298.93866127 -143.78027344 293.42919922 C-145.09068466 293.0879679 -146.40089924 292.74598071 -147.7109375 292.40332031 C-169.97708415 286.58823999 -192.39039134 281.64698162 -214.90345764 276.89186096 C-230.31000644 273.6308935 -245.3915688 269.80209646 -260.43408203 265.14355469 C-262.66415803 264.4645534 -264.90016621 263.81656283 -267.14355469 263.18310547 C-317.34118566 248.99845868 -366.12456399 223.80070161 -392.97705078 177.359375 C-409.81167894 146.81708524 -413.30130495 106.44257955 -406.78027344 72.42919922 C-406.62961426 71.63465332 -406.47895508 70.84010742 -406.32373047 70.02148438 C-397.99948457 27.88848569 -373.58274549 -7.51956963 -338.09277344 -31.44970703 C-332.44626518 -35.06533673 -326.67601217 -38.38001122 -320.78027344 -41.57080078 C-319.70519531 -42.15603516 -318.63011719 -42.74126953 -317.52246094 -43.34423828 C-293.88955703 -55.69145285 -268.03831688 -62.61555897 -241.78027344 -66.57080078 C-240.31968506 -66.79727295 -240.31968506 -66.79727295 -238.82958984 -67.02832031 C-154.72018494 -79.59389942 -64.1442 -56.59678865 0 0 Z " fill="#9007C1" transform="translate(688.7802734375,376.57080078125)"/>
<path d="M0 0 C0.73266083 -0.00067474 1.46532166 -0.00134949 2.22018433 -0.00204468 C35.03475955 0.04590561 67.09328804 10.3290699 92 32.25 C92.81855469 32.93578125 93.63710937 33.6215625 94.48046875 34.328125 C128.8277679 63.81547244 144.73816453 109.93295767 148.82501221 153.896698 C149.32125917 160.57041473 149.2932861 167.26252833 149.26074219 173.95092773 C149.25005057 176.55020694 149.26069724 179.14878876 149.2734375 181.74804688 C149.3185263 232.12113562 134.31323001 280.53988589 99 317.25 C98.4328125 317.88035156 97.865625 318.51070312 97.28125 319.16015625 C75.64874158 342.50339876 40.42324991 354.94244862 9.28808594 356.37475586 C-34.19272845 357.55080418 -69.93110127 345.37509047 -102.234375 316.234375 C-124.56453632 294.97606142 -138.80135038 264.0974859 -145.6875 234.4375 C-145.87787842 233.62192627 -146.06825684 232.80635254 -146.2644043 231.96606445 C-146.90083574 229.0692328 -147.46101095 226.16666911 -148 223.25 C-148.12774811 222.56902252 -148.25549622 221.88804504 -148.38711548 221.18643188 C-150.74753494 208.28218914 -151.44527888 195.69992017 -151.33618164 182.59448242 C-151.31243561 179.55425645 -151.31567274 176.51490589 -151.32226562 173.47460938 C-151.30551774 161.91470062 -150.69409585 150.69099002 -149 139.25 C-148.8953241 138.53965607 -148.79064819 137.82931213 -148.68280029 137.09744263 C-142.17851422 93.43655107 -121.55810689 52.77374201 -85.9765625 25.97265625 C-60.32517728 7.44665581 -31.31175048 0.02597901 0 0 Z " fill="#FEFEFE" transform="translate(1054,514.75)"/>
<path d="M0 0 C55.77 0 111.54 0 169 0 C169 164.67 169 329.34 169 499 C113.23 499 57.46 499 0 499 C0 334.33 0 169.66 0 0 Z " fill="#FFAE08" transform="translate(0,433)"/>
<path d="M0 0 C1.33605286 0.00273422 1.33605286 0.00273422 2.69909668 0.00552368 C16.54201022 0.05303692 30.07551873 0.58638027 43.6875 3.3125 C44.55600586 3.48410645 45.42451172 3.65571289 46.31933594 3.83251953 C97.80921058 14.35812598 144.99588455 41.9320831 177.6875 83.3125 C178.69865409 84.53540008 179.71178026 85.75667143 180.7265625 86.9765625 C181.75567701 88.23399157 182.78432853 89.49179972 183.8125 90.75 C184.31072266 91.34143799 184.80894531 91.93287598 185.32226562 92.54223633 C188.63727809 96.65594046 188.63727809 96.65594046 188.84765625 99.40625 C187.07923032 102.31194647 184.61679724 104.26961785 182 106.375 C181.12758667 107.09453857 181.12758667 107.09453857 180.23754883 107.82861328 C175.59262059 111.63833752 170.87119653 115.35358084 166.13208008 119.04516602 C161.60173544 122.5756847 157.13660548 126.18030404 152.6875 129.8125 C147.41459168 134.1068776 142.13465341 138.3917214 136.8125 142.625 C136.22339844 143.099375 135.63429688 143.57375 135.02734375 144.0625 C130.91848489 147.3125 130.91848489 147.3125 128.6875 147.3125 C126.9883864 144.96784503 125.39101987 142.61166537 123.8125 140.1875 C118.34128537 132.0094547 112.29280772 124.59267636 105.6875 117.3125 C105.048125 116.58933594 104.40875 115.86617187 103.75 115.12109375 C93.39551437 104.0501147 80.10637138 95.20369897 66.6875 88.3125 C65.64464844 87.77109375 64.60179687 87.2296875 63.52734375 86.671875 C54.88574745 82.43138908 46.00483914 79.61354327 36.6875 77.3125 C36.02782227 77.14588867 35.36814453 76.97927734 34.68847656 76.80761719 C2.64154296 69.10295371 -33.9981661 73.77899153 -63.3125 88.3125 C-63.96959961 88.63702148 -64.62669922 88.96154297 -65.30371094 89.29589844 C-100.05388224 106.81514048 -123.59829045 139.37132874 -136.11230469 175.62988281 C-137.47957322 179.82763708 -138.67940216 184.05794032 -139.79052734 188.33007812 C-140.29702637 190.25373206 -140.8451705 192.16627028 -141.39453125 194.078125 C-149.20362944 222.50675212 -150.09823359 255.13296353 -145.62451172 284.27929688 C-145.29481992 286.42771106 -145.00865721 288.5797405 -144.72265625 290.734375 C-143.09147948 302.29146256 -139.98513493 313.25070836 -136.3125 324.3125 C-136.08723633 325.00553223 -135.86197266 325.69856445 -135.62988281 326.41259766 C-129.8178585 344.04414228 -120.88210301 360.79681397 -109.3125 375.3125 C-108.85262695 375.89580078 -108.39275391 376.47910156 -107.91894531 377.08007812 C-85.60801233 405.08581256 -53.27684808 422.38943374 -17.8125 426.80859375 C20.22642139 430.75012672 58.78610548 422.33300196 89.6875 399.3125 C90.61304688 398.62929688 91.53859375 397.94609375 92.4921875 397.2421875 C106.30393339 386.46328789 121.74273084 372.20203833 129.6875 356.3125 C132.34898909 357.58492652 134.75983827 358.96850662 137.1640625 360.67578125 C137.82535156 361.14371094 138.48664063 361.61164063 139.16796875 362.09375 C140.22951172 362.85171875 140.22951172 362.85171875 141.3125 363.625 C142.43205078 364.41970703 142.43205078 364.41970703 143.57421875 365.23046875 C149.71601775 369.59842597 155.82329368 374.01396209 161.92724609 378.43457031 C167.24179805 382.27973016 172.57947315 386.09065936 177.9375 389.875 C178.6284375 390.36355469 179.319375 390.85210938 180.03125 391.35546875 C183.8792802 394.06726956 187.75838032 396.71952506 191.6875 399.3125 C188.32959359 418.53209591 158.26343208 442.20989609 143.6875 453.3125 C143.16317383 453.72387207 142.63884766 454.13524414 142.09863281 454.55908203 C112.96076739 477.38796616 78.00287779 491.87547686 41.6875 498.3125 C40.83349609 498.47476074 39.97949219 498.63702148 39.09960938 498.80419922 C-11.40248406 508.16466757 -67.20784281 499.57801918 -112.3125 475.3125 C-113.31192627 474.78269531 -113.31192627 474.78269531 -114.33154297 474.2421875 C-154.66243059 452.76842785 -187.12527857 417.69212067 -206.37695312 376.31933594 C-207.00744311 374.96687569 -207.64698115 373.61860124 -208.29492188 372.27441406 C-240.07021119 306.33914023 -241.99324179 223.34445484 -219.08886719 154.42822266 C-218.01014329 151.48853042 -216.71723251 148.6659013 -215.41015625 145.82177734 C-214.14284089 142.92465385 -213.04709889 139.98346064 -211.9453125 137.01953125 C-209.44036712 130.44381079 -206.45440785 124.22757381 -203.1875 118 C-202.6198291 116.91549561 -202.0521582 115.83099121 -201.46728516 114.71362305 C-196.6951844 105.75110876 -191.41757318 97.41523025 -185.3125 89.3125 C-184.66015381 88.43126465 -184.66015381 88.43126465 -183.99462891 87.53222656 C-151.7901765 44.20346682 -105.30759181 15.32291586 -52.5 4.4375 C-51.571875 4.24615479 -50.64375 4.05480957 -49.6875 3.85766602 C-33.26301207 0.74126102 -16.68076406 -0.07159884 0 0 Z " fill="#9007C1" transform="translate(1603.3125,441.6875)"/>
<path d="M0 0 C26.73 0 53.46 0 81 0 C81 217.14 81 434.28 81 658 C54.27 658 27.54 658 0 658 C0 440.86 0 223.72 0 0 Z " fill="#9008C1" transform="translate(2642,274)"/>
<path d="M0 0 C26.4 0 52.8 0 80 0 C80 158.07 80 316.14 80 479 C53.6 479 27.2 479 0 479 C0 320.93 0 162.86 0 0 Z " fill="#9007C1" transform="translate(1895,453)"/>
<path d="M0 0 C0.33 0 0.66 0 1 0 C1.07004613 12.02373873 1.12308499 24.04742753 1.15543652 36.07133007 C1.17097716 41.65675846 1.19199868 47.2420455 1.22631836 52.82739258 C1.2593316 58.23503791 1.27693977 63.64254878 1.28463173 69.05028725 C1.29010103 71.09556502 1.30077643 73.14083691 1.31719017 75.18605614 C1.45569441 93.18884871 0.45104747 111.20154668 -5.625 128.3125 C-6.14223633 129.81031006 -6.14223633 129.81031006 -6.66992188 131.33837891 C-11.33706321 144.34897803 -17.86883064 155.6099704 -27 166 C-27.67417969 166.81726563 -28.34835938 167.63453125 -29.04296875 168.4765625 C-49.52746598 192.5803607 -83.72440105 206.82304645 -114.80175781 209.78466797 C-150.06791067 212.15907612 -186.13429746 210.32264071 -214 186 C-214.62648438 185.46890625 -215.25296875 184.9378125 -215.8984375 184.390625 C-225.69650853 175.43492206 -230.58539094 163.49719267 -234 151 C-234.36931641 149.68515625 -234.36931641 149.68515625 -234.74609375 148.34375 C-239.298685 128.50073161 -236.4718661 106.22006763 -226.11914062 88.75097656 C-223.26793929 84.29006557 -219.85495221 80.60099421 -216 77 C-215.29875 76.31808594 -214.5975 75.63617187 -213.875 74.93359375 C-202.16754267 64.54729046 -185.94379279 58.8772164 -171 55 C-170.26168945 54.80486816 -169.52337891 54.60973633 -168.76269531 54.40869141 C-146.49137676 48.64407777 -123.4476312 45.55889647 -100.6875 42.375 C-97.45789869 41.91967702 -94.22878505 41.46107455 -91 41 C-90.07574219 40.86948242 -89.15148438 40.73896484 -88.19921875 40.60449219 C-57.5085127 36.18381102 -22.20492419 27.77223733 -1.7890625 2.234375 C-1.19867187 1.49703125 -0.60828125 0.7596875 0 0 Z " fill="#FEFEFE" transform="translate(2400,666)"/>
<path d="M0 0 C55.77 0 111.54 0 169 0 C169 35.64 169 71.28 169 108 C113.23 108 57.46 108 0 108 C0 72.36 0 36.72 0 0 Z " fill="#FFAE08" transform="translate(0,274)"/>
<path d="M0 0 C6.93 0 13.86 0 21 0 C21 53.46 21 106.92 21 162 C14.07 162 7.14 162 0 162 C-0.33 156.72 -0.66 151.44 -1 146 C-2.423125 147.52625 -3.84625 149.0525 -5.3125 150.625 C-15.76629706 161.01998526 -27.86410121 165.20584193 -42.4375 165.4375 C-56.82893081 165.32092494 -68.82512159 160.01941726 -79.3125 150.1875 C-83.35280894 145.90758174 -86.27240298 141.19464745 -89 136 C-89.57041016 134.92105469 -89.57041016 134.92105469 -90.15234375 133.8203125 C-97.94553739 117.76339278 -98.52901031 97.68771409 -93.3203125 80.71484375 C-88.05962124 65.91331302 -79.93906201 53.82251838 -66 46 C-52.17804188 39.82343016 -37.6151728 39.09319584 -23.21875 43.74609375 C-13.75589084 47.43247457 -8.40242828 52.59757172 -1 60 C-0.67 40.2 -0.34 20.4 0 0 Z " fill="#920CC2" transform="translate(493,3)"/>
<path d="M0 0 C11.52201256 9.75611989 19.72538729 24.79707799 21.13671875 39.9296875 C22.279956 59.53067457 19.10927408 78.92824458 6.06640625 94.3828125 C-5.27261718 106.31446782 -20.54776204 111.70317187 -36.79833984 112.27319336 C-53.00335882 112.5203496 -66.91721776 107.35076142 -79.05078125 96.3671875 C-90.78549263 83.79084723 -96.72169529 66.25468831 -96.3125 49.18652344 C-95.4399924 31.77676539 -90.69896187 15.7880365 -78.2109375 3.04296875 C-56.13976823 -16.824756 -23.82469452 -17.22658676 0 0 Z " fill="#910BC2" transform="translate(941.86328125,56.0703125)"/>
<path d="M0 0 C13.33115702 10.66921907 20.60373809 24.16536756 23.42578125 40.94140625 C25.18557915 60.16604058 22.18094957 78.08313137 10.2890625 93.7578125 C1.34742657 104.22873346 -11.64360299 112.46115159 -25.57421875 113.94140625 C-43.93394853 115.17551425 -60.40204307 111.88066057 -74.82421875 99.75390625 C-84.73117884 90.34935935 -91.87910543 76.72358167 -92.76708984 62.94970703 C-93.47796493 33.71766186 -93.47796493 33.71766186 -87.57421875 21.94140625 C-87.12820313 21.03132813 -86.6821875 20.12125 -86.22265625 19.18359375 C-79.1881535 6.33285409 -68.79569616 -2.94733954 -54.82421875 -7.43359375 C-36.27830574 -12.79233746 -16.05527726 -11.28011134 0 0 Z " fill="#910AC1" transform="translate(974.57421875,1090.05859375)"/>
<path d="M0 0 C7.40231273 5.81730727 13.42115503 14.86779042 16.83984375 23.59765625 C17.39671875 24.98210937 17.39671875 24.98210937 17.96484375 26.39453125 C23.89138624 43.59796709 22.41099865 63.99997423 15.5546875 80.734375 C8.06573517 95.69141908 -3.97666015 105.01005661 -19.390625 110.43359375 C-35.06171991 115.27295777 -52.72778013 113.24731872 -67.22265625 105.72265625 C-81.28096116 97.26669076 -89.9055628 84.10163079 -93.97265625 68.28515625 C-97.39563221 50.22054904 -96.5201756 30.49258651 -86.78515625 14.47265625 C-85.61004804 12.82347005 -84.40339652 11.19610802 -83.16015625 9.59765625 C-82.62648438 8.87320312 -82.0928125 8.14875 -81.54296875 7.40234375 C-61.60608299 -17.6856991 -24.67736609 -16.02020692 0 0 Z " fill="#910AC1" transform="translate(2348.16015625,1091.40234375)"/>
<path d="M0 0 C16.13586685 -0.60055136 30.2395256 3.60027225 42.75 14.06640625 C54.34637886 24.86760485 61.1658971 40.33780265 61.88671875 56.13671875 C62.24351779 76.38262711 58.39126939 93.93358751 43.859375 109.078125 C31.00194245 121.04358677 15.04813956 124.87464298 -2.01171875 124.46875 C-16.21965335 123.86069856 -28.92716167 117.59216341 -39.1640625 107.8046875 C-54.13073658 90.91920905 -55.36434286 72.064853 -54.67578125 50.54443359 C-54.22155643 43.89258519 -52.41450247 38.21204259 -49.44921875 32.2265625 C-49.00320313 31.31519531 -48.5571875 30.40382813 -48.09765625 29.46484375 C-40.54462389 15.68794394 -29.21615534 6.42415275 -14.203125 1.9375 C-9.39180582 0.69542895 -4.92451678 0.32346769 0 0 Z " fill="#910AC1" transform="translate(373.44921875,1079.7734375)"/>
<path d="M0 0 C12.10179098 11.4276423 19.87354261 26.29270715 20.42578125 43.078125 C20.44509042 45.01943915 20.44857708 46.96096517 20.4375 48.90234375 C20.43012817 50.42855347 20.43012817 50.42855347 20.42260742 51.9855957 C20.30952633 59.22916457 19.65814205 65.75341221 17.125 72.58984375 C16.77308594 73.60046875 16.42117187 74.61109375 16.05859375 75.65234375 C13.42887979 82.59548292 10.05552986 88.0616739 5.125 93.58984375 C4.59132813 94.21632813 4.05765625 94.8428125 3.5078125 95.48828125 C-4.76856502 104.55665662 -17.82044535 110.04209846 -29.875 111.58984375 C-38.32245793 111.96625897 -46.74659329 112.20519947 -54.875 109.58984375 C-56.19564453 109.18765625 -56.19564453 109.18765625 -57.54296875 108.77734375 C-64.06469012 106.61842909 -69.40272805 103.72005661 -74.875 99.58984375 C-75.49117187 99.15027344 -76.10734375 98.71070313 -76.7421875 98.2578125 C-88.07725961 89.51721245 -94.06064382 74.37395808 -95.875 60.58984375 C-96.14955692 56.79251542 -96.21000951 53.0212013 -96.1875 49.21484375 C-96.18186035 48.20897217 -96.1762207 47.20310059 -96.17041016 46.16674805 C-95.90709691 30.00948204 -91.09572198 15.54818291 -79.875 3.58984375 C-58.85190496 -16.57895591 -22.70643377 -19.03514896 0 0 Z " fill="#9109C1" transform="translate(2033.875,1092.41015625)"/>
<path d="M0 0 C7.54487709 6.89615868 10.98074387 15.20710994 11.77734375 25.28515625 C11.92514427 29.60030528 11.9753121 33.91421776 12.00713921 38.23166656 C12.02372594 40.40100586 12.04696232 42.57018403 12.07203674 44.73944092 C12.14237305 50.9010807 12.20310413 57.06277966 12.25415039 63.22460938 C12.28595152 67.00757414 12.32720885 70.79033974 12.37434578 74.57314301 C12.39033385 76.01000146 12.40267016 77.44690544 12.41125298 78.88382721 C12.42341731 80.88909629 12.44860214 82.89427359 12.47436523 84.89941406 C12.48982643 86.6086203 12.48982643 86.6086203 12.50559998 88.35235596 C12.77188305 91.22622154 13.19032692 92.8984679 14.77734375 95.28515625 C17.42192754 96.60744814 19.45495676 96.38192819 22.40234375 96.34765625 C23.40523437 96.33863281 24.408125 96.32960938 25.44140625 96.3203125 C26.21226562 96.30871094 26.983125 96.29710937 27.77734375 96.28515625 C28.11685994 97.84632444 28.44866919 99.40916963 28.77734375 100.97265625 C28.96296875 101.84277344 29.14859375 102.71289062 29.33984375 103.609375 C29.76706422 106.22228589 29.85350576 108.64328663 29.77734375 111.28515625 C21.5531275 114.34532974 12.3734211 114.90159125 4.27734375 111.22265625 C-2.02324837 107.61208966 -4.68340845 102.90533803 -7.22265625 96.28515625 C-7.98835937 97.15527344 -7.98835937 97.15527344 -8.76953125 98.04296875 C-14.59120573 104.29817218 -20.34779208 108.03090774 -28.22265625 111.28515625 C-28.99996094 111.62546875 -29.77726563 111.96578125 -30.578125 112.31640625 C-41.26496685 116.28948343 -55.84121768 115.92207366 -66.22265625 111.28515625 C-66.98707031 110.95644531 -67.75148438 110.62773438 -68.5390625 110.2890625 C-76.93337639 106.1842288 -83.48176888 99.14927639 -86.6015625 90.2890625 C-88.44787363 81.35941938 -89.03547387 69.33206469 -84.22265625 61.28515625 C-75.63887885 49.3149519 -64.41498099 44.86715428 -50.22265625 42.28515625 C-45.1491204 41.57628942 -40.06227524 40.98344126 -34.96240234 40.49951172 C-26.28686953 39.59122215 -17.13770249 38.22732665 -11.22265625 31.28515625 C-9.66127295 26.60100635 -9.58112101 22.25558591 -11.09765625 17.59765625 C-16.80935447 11.38198466 -24.74515148 9.53337613 -32.88671875 9.08203125 C-46.0245783 8.92655362 -55.98753952 11.09819377 -67.41015625 17.859375 C-70.22265625 19.28515625 -70.22265625 19.28515625 -74.22265625 19.28515625 C-76.14453125 16.765625 -76.14453125 16.765625 -77.97265625 13.47265625 C-78.58625 12.39371094 -79.19984375 11.31476563 -79.83203125 10.203125 C-81.22265625 7.28515625 -81.22265625 7.28515625 -81.22265625 4.28515625 C-57.83385754 -10.23824264 -23.88654521 -18.4291623 0 0 Z " fill="#920BC2" transform="translate(662.22265625,1089.71484375)"/>
<path d="M0 0 C13.64693704 9.09092715 20.62749334 22.08419209 24.52734375 37.68359375 C24.52734375 44.61359375 24.52734375 51.54359375 24.52734375 58.68359375 C-5.83265625 58.68359375 -36.19265625 58.68359375 -67.47265625 58.68359375 C-65.51564435 70.42566515 -63.21717067 81.37991922 -53.625 89.1875 C-45.92533967 94.31550439 -37.8889912 96.25411089 -28.72265625 96.18359375 C-27.41494263 96.17501343 -27.41494263 96.17501343 -26.08081055 96.16625977 C-15.16180304 95.86673587 -6.63386145 92.38360056 1.625 85.234375 C3.52734375 83.68359375 3.52734375 83.68359375 7.52734375 81.68359375 C11.48734375 85.64359375 15.44734375 89.60359375 19.52734375 93.68359375 C14.8982267 102.94182785 4.96176901 108.23907875 -4.47265625 111.68359375 C-5.99052734 112.27140625 -5.99052734 112.27140625 -7.5390625 112.87109375 C-23.81784355 118.40626369 -41.77804413 117.10062019 -57.484375 110.3984375 C-71.45809512 103.40183287 -80.51193227 92.152364 -86.4296875 77.93359375 C-92.38690092 59.370292 -90.81105421 39.13618542 -82.91015625 21.43359375 C-75.83102616 8.36032587 -64.71840063 -1.22249573 -50.53515625 -5.69140625 C-48.52019355 -6.25451855 -46.49988068 -6.79917203 -44.47265625 -7.31640625 C-43.83303955 -7.49147705 -43.19342285 -7.66654785 -42.53442383 -7.84692383 C-28.16247648 -11.11954132 -12.43672842 -7.32324243 0 0 Z " fill="#920BC2" transform="translate(1168.47265625,1088.31640625)"/>
<path d="M0 0 C7.13428814 5.76508133 10.99621584 12.27157763 12.75 21.25 C13.10844385 25.87570991 13.17066798 30.48194078 13.16069031 35.11818886 C13.15615765 37.40997603 13.17035931 39.70101313 13.18908691 41.99272156 C13.23179319 47.67518476 13.24313157 53.35762655 13.25531006 59.04022217 C13.26685144 63.86439946 13.29041971 68.68822736 13.33000183 73.51225853 C13.3435298 75.76412707 13.33941188 78.01551737 13.33459473 80.26741028 C13.34393535 81.65004076 13.35410417 83.03266597 13.36523438 84.4152832 C13.36728882 85.61756058 13.36934326 86.81983795 13.37145996 88.05854797 C13.82115775 91.84992745 15.0305824 94.5305824 17.75 97.25 C19.76964199 97.32244053 21.79167124 97.33377188 23.8125 97.3125 C25.771875 97.291875 27.73125 97.27125 29.75 97.25 C30.74 104.675 30.74 104.675 31.75 112.25 C23.58999619 114.58142966 14.34748979 116.32278925 6.25 112.6875 C1.09854075 109.5590387 -2.39920145 105.37699637 -4.625 99.8125 C-4.934375 98.5440625 -4.934375 98.5440625 -5.25 97.25 C-5.91 97.95125 -6.57 98.6525 -7.25 99.375 C-18.9045359 110.93159862 -31.89428563 115.65331311 -48.1394043 115.62084961 C-58.49928453 115.32903919 -68.38352261 112.1470731 -76.25 105.25 C-83.96586926 97.07626597 -86.59513314 87.44494433 -86.4609375 76.4140625 C-85.90609554 68.09143309 -83.137433 61.21456095 -77.25 55.25 C-66.79506142 46.59763704 -54.9400932 44.43798898 -41.875 42.75 C-25.28846776 41.05929118 -25.28846776 41.05929118 -10.5 34.1875 C-8.52172233 29.53854748 -8.42679403 25.21109085 -9.25 20.25 C-11.06599335 16.09078943 -14.19066255 14.06312187 -18.3125 12.4375 C-19.61559811 12.01173527 -20.92863453 11.61514871 -22.25 11.25 C-22.82621094 11.06566406 -23.40242188 10.88132812 -23.99609375 10.69140625 C-38.19539623 7.91060698 -52.02924909 11.14829237 -64.55859375 17.84765625 C-67.25 19.25 -67.25 19.25 -72.25 21.25 C-76.21 14.32 -76.21 14.32 -80.25 7.25 C-76.19560611 3.19560611 -73.38304734 0.93113141 -68.375 -1.3125 C-67.71717529 -1.60842041 -67.05935059 -1.90434082 -66.3815918 -2.20922852 C-46.02314062 -11.07285437 -19.13021967 -13.35848356 0 0 Z " fill="#910AC1" transform="translate(1595.25,1088.75)"/>
<path d="M0 0 C5.45201718 4.98100057 8.56006165 11.46924744 10.87109375 18.40234375 C10.96926709 20.68563544 11.00659978 22.97168761 11.01293945 25.25708008 C11.01641388 25.95013748 11.01988831 26.64319489 11.02346802 27.35725403 C11.03081586 28.86157747 11.03616642 30.36591169 11.03975868 31.87024879 C11.046934 34.25397619 11.06260876 36.63749892 11.08110046 39.02116394 C11.13351764 45.7983417 11.18153366 52.57540711 11.19702148 59.3527832 C11.20711906 63.4996925 11.23648772 67.64608608 11.27834129 71.79279137 C11.29063082 73.37033876 11.29577629 74.94795907 11.29354286 76.52555275 C11.29118219 78.73740023 11.31341108 80.94777577 11.34106445 83.15942383 C11.34693069 84.41612381 11.35279694 85.67282379 11.35884094 86.96760559 C11.9678735 91.05126767 13.24039262 93.24853067 15.87109375 96.40234375 C18.90609101 97.12463772 18.90609101 97.12463772 22.12109375 96.77734375 C23.73757812 96.69613281 23.73757812 96.69613281 25.38671875 96.61328125 C26.2065625 96.54367187 27.02640625 96.4740625 27.87109375 96.40234375 C29.1341471 101.47711169 30.14145459 106.13030729 29.87109375 111.40234375 C21.96047276 114.34583063 12.79845599 114.95889381 4.87109375 111.77734375 C-0.29104847 109.10629034 -4.10449744 104.92345869 -6.12890625 99.40234375 C-6.12890625 98.08234375 -6.12890625 96.76234375 -6.12890625 95.40234375 C-6.78890625 95.40234375 -7.44890625 95.40234375 -8.12890625 95.40234375 C-8.37769531 95.98113281 -8.62648438 96.55992188 -8.8828125 97.15625 C-13.68458355 105.81147994 -23.53176968 110.43351081 -32.62890625 113.1484375 C-45.3919555 116.11421016 -60.22686111 115.33080046 -71.8125 108.93359375 C-79.41889376 103.90542115 -84.92527914 97.34826116 -87.12890625 88.40234375 C-88.41180806 78.00373654 -88.7878833 67.05348014 -82.12890625 58.40234375 C-70.89432043 44.6711833 -52.46278975 42.47810679 -35.85913086 40.68676758 C-22.81623909 39.37389872 -22.81623909 39.37389872 -11.94140625 32.65234375 C-9.7071193 28.64603611 -9.17047809 25.88098002 -10.12890625 21.40234375 C-13.152631 15.35489426 -17.24604746 12.47006923 -23.50390625 10.15234375 C-38.89833653 6.88507461 -54.02315097 10.01905599 -67.3515625 17.9765625 C-70.12890625 19.40234375 -70.12890625 19.40234375 -74.12890625 19.40234375 C-78.08890625 12.47234375 -78.08890625 12.47234375 -82.12890625 5.40234375 C-59.76450552 -10.79256712 -23.66903943 -17.76263693 0 0 Z " fill="#910AC1" transform="translate(2652.12890625,1089.59765625)"/>
<path d="M0 0 C5.82767503 5.32636965 10.77511923 13.47391528 11.14193726 21.48847961 C11.14843292 22.72502792 11.15492859 23.96157623 11.16162109 25.2355957 C11.16670181 25.91889954 11.17178253 26.60220337 11.17701721 27.30621338 C11.18771092 28.78925104 11.19633502 30.27230475 11.20313644 31.75536537 C11.21494194 34.10548401 11.23439957 36.45542026 11.2562561 38.8054657 C11.31781213 45.48702902 11.37187589 52.16857367 11.40527344 58.8503418 C11.42625816 62.938831 11.46159226 67.02698731 11.50603104 71.11528587 C11.52016183 72.67050436 11.52890687 74.22578174 11.53208542 75.78106117 C11.53701295 77.961571 11.56021678 80.14120284 11.58740234 82.3215332 C11.5954892 83.56046829 11.60357605 84.79940338 11.61190796 86.07588196 C12.06330767 89.98738609 13.14092674 93.60967674 16.00390625 96.47265625 C18.02354824 96.54509678 20.04557749 96.55642813 22.06640625 96.53515625 C23.17113281 96.52613281 24.27585937 96.51710938 25.4140625 96.5078125 C26.26871094 96.49621094 27.12335938 96.48460937 28.00390625 96.47265625 C28.34167309 98.22180595 28.67394296 99.9720177 29.00390625 101.72265625 C29.18953125 102.6971875 29.37515625 103.67171875 29.56640625 104.67578125 C30.00390625 107.47265625 30.00390625 107.47265625 30.00390625 111.47265625 C22.60429432 114.31866084 14.13374932 114.8406144 6.42578125 112.78515625 C1.34479125 110.45798526 -2.69886462 106.8481687 -4.7421875 101.53125 C-5.23055101 99.86407803 -5.62282983 98.16931041 -5.99609375 96.47265625 C-6.46917969 96.90835938 -6.94226563 97.3440625 -7.4296875 97.79296875 C-21.85452365 110.78375686 -35.53980876 115.4527423 -54.79296875 114.65185547 C-66.58804823 113.6924596 -74.71277023 107.21932028 -82.453125 98.890625 C-86.55792028 92.45804708 -87.55647126 85.54031021 -87.49609375 78.03515625 C-87.49037354 77.2040332 -87.48465332 76.37291016 -87.47875977 75.51660156 C-87.22661439 66.8468758 -84.57519349 61.09633748 -78.80859375 54.66015625 C-67.22590978 44.00508983 -51.12113849 42.75613639 -36.2265625 41.1875 C-28.0809023 40.21994442 -20.04758654 38.92691413 -12.99609375 34.47265625 C-10.29401579 30.83837239 -9.4586895 28.0565493 -9.640625 23.46484375 C-10.3713308 19.36967939 -12.73601125 16.54506689 -15.83203125 13.91015625 C-24.72371959 8.003764 -37.57608542 8.21561971 -47.68359375 10.22265625 C-49.13003928 10.6071204 -50.56764323 11.02594999 -51.99609375 11.47265625 C-52.89070312 11.75238281 -53.7853125 12.03210938 -54.70703125 12.3203125 C-60.10801977 14.14777026 -64.71144625 16.27336643 -69.33984375 19.6171875 C-69.88640625 19.89949219 -70.43296875 20.18179688 -70.99609375 20.47265625 C-75.06174107 19.11744048 -76.13117225 16.43230454 -78.18359375 12.91015625 C-78.55162109 12.29462891 -78.91964844 11.67910156 -79.29882812 11.04492188 C-80.20577275 9.52549516 -81.10197543 7.99966592 -81.99609375 6.47265625 C-63.94986581 -13.94327839 -20.86973136 -15.96881597 0 0 Z " fill="#910AC1" transform="translate(626.99609375,53.52734375)"/>
<path d="M0 0 C26.4 0 52.8 0 80 0 C80 28.05 80 56.1 80 85 C53.6 85 27.2 85 0 85 C0 56.95 0 28.9 0 0 Z " fill="#9007C1" transform="translate(1895,274)"/>
<path d="M0 0 C35.97 0 71.94 0 109 0 C109 6.6 109 13.2 109 20 C79.96 20 50.92 20 21 20 C21 34.19 21 48.38 21 63 C45.75 63 70.5 63 96 63 C96 69.27 96 75.54 96 82 C71.58 82 47.16 82 22 82 C22 104.77 22 127.54 22 151 C14.74 151 7.48 151 0 151 C0 101.17 0 51.34 0 0 Z " fill="#910BC2" transform="translate(0,14)"/>
<path d="M0 0 C8.55908442 6.3256533 13.08411389 15.40254582 15.3203125 25.71484375 C15.41006974 28.56744079 15.44652154 31.39484859 15.43383789 34.24707031 C15.43398392 35.10596863 15.43412994 35.96486694 15.4342804 36.84979248 C15.43358446 39.68504371 15.42580695 42.52022901 15.41796875 45.35546875 C15.41610344 47.3227332 15.41468007 49.28999811 15.41368103 51.25726318 C15.40986477 56.43250819 15.40004206 61.60772508 15.38897705 66.78295898 C15.3787438 72.06493754 15.3741793 77.34692064 15.36914062 82.62890625 C15.35841901 92.99089975 15.34082939 103.35286501 15.3203125 113.71484375 C8.7203125 113.71484375 2.1203125 113.71484375 -4.6796875 113.71484375 C-4.69427002 111.30824463 -4.70885254 108.90164551 -4.72387695 106.42211914 C-4.77434201 98.44724782 -4.84095787 90.47256931 -4.91540241 82.49788761 C-4.96002176 77.6655197 -4.99929629 72.83323446 -5.02612305 68.00073242 C-5.05224041 63.33214268 -5.09270193 58.6638725 -5.14287376 53.99548149 C-5.15948563 52.21945628 -5.17103513 50.44337586 -5.17730141 48.66728401 C-5.089172 32.09765449 -5.089172 32.09765449 -12.6796875 17.71484375 C-20.8992869 12.42718393 -29.06117918 11.97575924 -38.6796875 12.71484375 C-47.73717561 14.88022684 -55.14249434 19.81261997 -60.0546875 27.71484375 C-63.57823682 33.85644927 -64.92692112 39.19097258 -64.99853516 46.28076172 C-65.00858078 47.01315567 -65.0186264 47.74554962 -65.02897644 48.50013733 C-65.05967759 50.90242788 -65.07680681 53.30460766 -65.09375 55.70703125 C-65.1124722 57.37998397 -65.13204639 59.05292736 -65.1524353 60.7258606 C-65.20365148 65.11517824 -65.2433333 69.50452647 -65.28057861 73.89398193 C-65.32068436 78.37861633 -65.37174666 82.86312467 -65.421875 87.34765625 C-65.5185098 96.13663878 -65.6019408 104.92567382 -65.6796875 113.71484375 C-72.6096875 113.71484375 -79.5396875 113.71484375 -86.6796875 113.71484375 C-86.6796875 74.77484375 -86.6796875 35.83484375 -86.6796875 -4.28515625 C-79.7496875 -4.28515625 -72.8196875 -4.28515625 -65.6796875 -4.28515625 C-65.1846875 3.63484375 -65.1846875 3.63484375 -64.6796875 11.71484375 C-63.0503125 10.00296875 -61.4209375 8.29109375 -59.7421875 6.52734375 C-55.16056269 1.87716425 -50.76716416 -1.74065543 -44.6796875 -4.28515625 C-43.95910156 -4.60097656 -43.23851562 -4.91679688 -42.49609375 -5.2421875 C-28.43255869 -10.43597195 -12.39527315 -7.94618608 0 0 Z " fill="#920DC2" transform="translate(276.6796875,1087.28515625)"/>
<path d="M0 0 C1.5390625 0.984375 1.5390625 0.984375 4.0390625 2.984375 C5.2765625 3.78875 5.2765625 3.78875 6.5390625 4.609375 C12.59435389 10.36190182 15.88783594 18.02947966 18.0390625 25.984375 C18.21278098 26.60852673 18.38649946 27.23267845 18.56548214 27.87574387 C19.33979148 31.32338005 19.16859473 34.8167482 19.15258789 38.33300781 C19.15273392 39.17239899 19.15287994 40.01179016 19.1530304 40.87661743 C19.15233457 43.64693804 19.14455757 46.41719115 19.13671875 49.1875 C19.1348534 51.10992394 19.13343005 53.03234836 19.13243103 54.95477295 C19.12861507 60.01165075 19.11879262 65.06849977 19.10772705 70.12536621 C19.09749315 75.28669851 19.09292917 80.44803547 19.08789062 85.609375 C19.07716955 95.73438967 19.05958018 105.85937544 19.0390625 115.984375 C12.4390625 115.984375 5.8390625 115.984375 -0.9609375 115.984375 C-0.9906665 112.4575 -0.9906665 112.4575 -1.02099609 108.859375 C-1.08804185 101.07212538 -1.16567909 93.28500694 -1.24846458 85.49790955 C-1.29831171 80.77874668 -1.34464244 76.05960494 -1.3828125 71.34033203 C-1.41981205 66.78203237 -1.46621107 62.22391466 -1.51900101 57.66577148 C-1.53746726 55.93077806 -1.55260358 54.19574575 -1.56428146 52.46069336 C-1.58127769 50.021785 -1.6103433 47.58328631 -1.64208984 45.14453125 C-1.64425003 44.43458511 -1.64641022 43.72463898 -1.64863586 42.99317932 C-1.78800848 34.55708151 -3.55254676 26.4739179 -9.5859375 20.296875 C-17.00264847 14.67540703 -25.9312666 13.86751956 -34.9609375 14.984375 C-45.15887255 17.84910105 -52.10721467 22.35961437 -57.3359375 31.546875 C-60.52310796 37.55477654 -61.08551085 42.57359719 -61.16625977 49.3449707 C-61.18110916 50.42871223 -61.18110916 50.42871223 -61.19625854 51.53434753 C-61.22770955 53.90958439 -61.2525657 56.28484121 -61.27734375 58.66015625 C-61.29792746 60.31211348 -61.3189243 61.96406562 -61.34031677 63.61601257 C-61.39539112 67.95439513 -61.44486467 72.29282406 -61.49316406 76.63128662 C-61.54348625 81.06217555 -61.59911627 85.49299751 -61.65429688 89.92382812 C-61.76169933 98.61062188 -61.86269296 107.29747284 -61.9609375 115.984375 C-68.8909375 115.984375 -75.8209375 115.984375 -82.9609375 115.984375 C-82.9609375 77.044375 -82.9609375 38.104375 -82.9609375 -2.015625 C-76.0309375 -2.015625 -69.1009375 -2.015625 -61.9609375 -2.015625 C-61.4659375 5.904375 -61.4659375 5.904375 -60.9609375 13.984375 C-59.3934375 12.293125 -57.8259375 10.601875 -56.2109375 8.859375 C-41.52239247 -6.27650299 -18.74361013 -9.70784588 0 0 Z " fill="#920CC2" transform="translate(351.9609375,49.015625)"/>
<path d="M0 0 C9.11303103 6.75039335 13.77037002 16.46395448 15.89842224 27.42050171 C16.84859977 34.84878752 16.56026407 42.3758318 16.515625 49.8515625 C16.51188889 51.69814907 16.50904474 53.54473763 16.50704956 55.3913269 C16.4994602 60.22128903 16.4798527 65.05112842 16.4576416 69.88104248 C16.43708132 74.82171977 16.42802619 79.76241714 16.41796875 84.703125 C16.39660183 94.37506225 16.36145863 104.04687665 16.3203125 113.71875 C9.3903125 113.71875 2.4603125 113.71875 -4.6796875 113.71875 C-4.6890332 111.25156494 -4.69837891 108.78437988 -4.70800781 106.24243164 C-4.74185671 98.06796774 -4.79744956 89.89375418 -4.86359024 81.719491 C-4.90300856 76.76602464 -4.9352247 71.81273454 -4.95068359 66.85913086 C-4.9658874 62.07377075 -5.00039885 57.28889542 -5.04799652 52.50375175 C-5.06277199 50.68307153 -5.0707263 48.86232209 -5.07157135 47.04158211 C-4.99667727 31.89546928 -4.99667727 31.89546928 -12.0546875 18.84375 C-20.19604633 12.25312619 -28.55050946 11.97169565 -38.6796875 12.71875 C-46.94473137 14.43195237 -53.19862793 19.46023517 -58.6796875 25.71875 C-62.82765231 32.30221709 -64.8203668 38.18846298 -64.88500977 45.9440918 C-64.89985916 47.0420256 -64.89985916 47.0420256 -64.91500854 48.16213989 C-64.94658761 50.58071665 -64.97136673 52.99931304 -64.99609375 55.41796875 C-65.01666638 57.09520477 -65.03766294 58.77243564 -65.05906677 60.44966125 C-65.11425551 64.86369659 -65.16367889 69.27777846 -65.21191406 73.69189453 C-65.26215243 78.19633119 -65.31782631 82.70070028 -65.37304688 87.20507812 C-65.48058936 96.04291316 -65.58154072 104.88080562 -65.6796875 113.71875 C-72.2796875 113.71875 -78.8796875 113.71875 -85.6796875 113.71875 C-85.6796875 74.77875 -85.6796875 35.83875 -85.6796875 -4.28125 C-79.0796875 -4.28125 -72.4796875 -4.28125 -65.6796875 -4.28125 C-65.1846875 3.63875 -65.1846875 3.63875 -64.6796875 11.71875 C-62.5140625 9.429375 -62.5140625 9.429375 -60.3046875 7.09375 C-43.75929966 -9.38172775 -19.91975773 -12.73865384 0 0 Z " fill="#920CC2" transform="translate(1305.6796875,1087.28125)"/>
<path d="M0 0 C11.34145712 -0.34009585 21.46877359 1.6577541 30.24609375 9.16015625 C39.71651052 18.12413362 44.02991764 28.29708265 44.41851807 41.29693604 C44.5027599 46.3686487 44.47132145 51.4396407 44.44140625 56.51171875 C44.43767024 58.38072558 44.43482605 60.24973439 44.43283081 62.1187439 C44.42524062 67.00788907 44.40563238 71.89691304 44.38342285 76.78601074 C44.36286438 81.78701132 44.35380782 86.78803173 44.34375 91.7890625 C44.32238161 101.57948856 44.28723771 111.3697933 44.24609375 121.16015625 C37.64609375 121.16015625 31.04609375 121.16015625 24.24609375 121.16015625 C24.23674805 118.79432373 24.22740234 116.42849121 24.21777344 113.9909668 C24.18387802 106.13981397 24.12825985 98.28892052 24.06219101 90.43797588 C24.02282406 85.68186327 23.99058299 80.92593282 23.97509766 76.16967773 C23.95985966 71.57233218 23.92528881 66.9754878 23.87778473 62.37836647 C23.86304417 60.63190907 23.85505698 58.8853801 23.8542099 57.1388607 C23.84361114 46.23524207 23.61436122 36.03825005 17.12109375 26.72265625 C10.9192922 21.19496356 4.10696641 19.56301245 -4.08203125 19.8984375 C-14.35367651 20.90457819 -22.81403666 24.2682966 -29.75390625 32.16015625 C-34.46356988 39.93160984 -36.85007085 46.27093708 -36.95922852 55.31542969 C-36.97407791 56.38432182 -36.97407791 56.38432182 -36.98922729 57.47480774 C-37.02073764 59.82301547 -37.04555816 62.1712434 -37.0703125 64.51953125 C-37.09089108 66.15049761 -37.11188779 67.78145874 -37.13328552 69.41241455 C-37.1884129 73.69984702 -37.23786324 77.98732688 -37.28613281 82.27484131 C-37.33641608 86.65202031 -37.39206649 91.02913072 -37.44726562 95.40625 C-37.55473302 103.99082892 -37.6557071 112.5754663 -37.75390625 121.16015625 C-44.35390625 121.16015625 -50.95390625 121.16015625 -57.75390625 121.16015625 C-57.75390625 82.22015625 -57.75390625 43.28015625 -57.75390625 3.16015625 C-51.15390625 3.16015625 -44.55390625 3.16015625 -37.75390625 3.16015625 C-37.25890625 11.57515625 -37.25890625 11.57515625 -36.75390625 20.16015625 C-35.47515625 18.63390625 -34.19640625 17.10765625 -32.87890625 15.53515625 C-28.34730854 10.49767263 -23.777665 7.19211482 -17.75390625 4.16015625 C-17.12484375 3.83273437 -16.49578125 3.5053125 -15.84765625 3.16796875 C-10.68481116 0.70388359 -5.59539968 0.32540622 0 0 Z " fill="#9008C1" transform="translate(112.75390625,1079.83984375)"/>
<path d="M0 0 C6.6 0 13.2 0 20 0 C20.01981934 2.24989746 20.03963867 4.49979492 20.06005859 6.81787109 C20.12720022 14.281807 20.20483524 21.74560782 20.28752708 29.20938683 C20.33730653 33.7311946 20.38363704 38.25298107 20.421875 42.77490234 C20.45896108 47.14518252 20.50538177 51.51527604 20.55806351 55.88539505 C20.57648434 57.54616623 20.59163685 59.20697722 20.60334396 60.8678093 C20.37536028 79.37821458 20.37536028 79.37821458 28.34765625 95.53515625 C34.73977187 101.38181134 42.02573075 101.50131057 50.28515625 101.38671875 C59.20288976 100.45837425 67.88075711 96.96397243 73.6953125 89.95703125 C74.16710937 89.24933594 74.63890625 88.54164063 75.125 87.8125 C75.60195312 87.11769531 76.07890625 86.42289062 76.5703125 85.70703125 C81.53601737 76.30475399 81.4716873 67.27248164 81.51171875 56.93359375 C81.52858821 55.28734517 81.54674146 53.6411093 81.56611633 51.99488831 C81.61337668 47.68944265 81.64334033 43.38404853 81.66955566 39.07843018 C81.69948295 34.67392812 81.7459711 30.26960318 81.79101562 25.86523438 C81.8767758 17.24356247 81.94270842 8.62190812 82 0 C88.6 0 95.2 0 102 0 C102 38.94 102 77.88 102 118 C95.4 118 88.8 118 82 118 C81.67 112.39 81.34 106.78 81 101 C80.01 102.19625 79.02 103.3925 78 104.625 C69.48476503 114.26200245 58.41565145 120.37091485 45.43359375 121.23828125 C33.41642195 121.46147408 23.43628469 119.99230625 13.9609375 111.90234375 C4.05503931 102.29243853 0.09100681 90.41487626 -0.12025452 76.84263611 C-0.12309391 75.40933333 -0.12063255 73.97601258 -0.11352539 72.54272461 C-0.11367142 71.75137115 -0.11381744 70.9600177 -0.1139679 70.14468384 C-0.11327869 67.5638746 -0.10553343 64.98314017 -0.09765625 62.40234375 C-0.09578854 60.59916727 -0.0943663 58.79599028 -0.09336853 56.99281311 C-0.08957117 52.27302624 -0.07976496 47.55327069 -0.06866455 42.83349609 C-0.05839031 38.00684025 -0.05385808 33.18017928 -0.04882812 28.35351562 C-0.03813991 18.90232785 -0.02056597 9.45117145 0 0 Z " fill="#910AC1" transform="translate(132,47)"/>
<path d="M0 0 C2.44233197 1.68575996 4.78123347 3.43898202 7.09765625 5.29296875 C7.73960937 5.78410156 8.3815625 6.27523438 9.04296875 6.78125 C10.44709506 7.888224 11.78249787 9.08163866 13.09765625 10.29296875 C13.09765625 10.95296875 13.09765625 11.61296875 13.09765625 12.29296875 C11.48828125 13.87890625 11.48828125 13.87890625 9.34765625 15.66796875 C6.47328305 18.10914741 3.71221633 20.56946867 1.09765625 23.29296875 C-2.02507275 21.86201167 -4.51100587 20.086567 -7.21484375 17.98046875 C-17.42442533 10.81427199 -29.50207169 7.54565769 -41.90234375 9.29296875 C-48.03227888 10.85187467 -53.19542425 12.58604925 -57.71484375 17.10546875 C-59.54823655 22.026681 -59.68683426 25.88346219 -58.02734375 30.98046875 C-51.47586244 38.11002194 -41.29827305 39.57916049 -32.21484375 41.29296875 C2.34338933 48.28823487 2.34338933 48.28823487 11.16015625 60.41796875 C16.46228656 68.42730441 15.97655204 77.86824053 14.70703125 87.1484375 C12.54056888 95.88372488 6.86247208 102.85170997 -0.65234375 107.66796875 C-16.02713143 116.03052661 -34.90299762 117.88033193 -51.83984375 113.66796875 C-66.05787233 109.28025455 -76.80819749 102.11535888 -85.90234375 90.29296875 C-83.05169738 87.26415699 -80.08979283 84.51792802 -76.83984375 81.91796875 C-75.86337891 81.13292969 -75.86337891 81.13292969 -74.8671875 80.33203125 C-72.90234375 79.29296875 -72.90234375 79.29296875 -70.7578125 79.49609375 C-68.90234375 80.29296875 -68.90234375 80.29296875 -67.27734375 82.41796875 C-60.76867706 90.29688106 -51.85972573 94.57757879 -41.90234375 96.29296875 C-32.07999316 97.21640307 -20.38570358 98.16331057 -11.90234375 92.29296875 C-8.72180035 89.36627153 -6.12347056 86.25467941 -5.62890625 81.8671875 C-5.37156057 75.7891826 -5.37156057 75.7891826 -7.77734375 70.35546875 C-15.67956553 65.14000238 -24.06231617 63.54307526 -33.22485352 61.78833008 C-66.04510175 55.50126514 -66.04510175 55.50126514 -75.08984375 43.35546875 C-80.1150299 34.86463698 -80.34007369 24.75458458 -78.21484375 15.203125 C-74.61205069 5.4605721 -68.12640937 -0.25536119 -58.90234375 -4.70703125 C-40.74958837 -12.59847134 -16.91705929 -9.94987202 0 0 Z " fill="#910AC1" transform="translate(2217.90234375,1088.70703125)"/>
<path d="M0 0 C0.75474609 0.00563965 1.50949219 0.0112793 2.28710938 0.01708984 C12.73725558 0.24475696 20.6297451 3.83167414 28.41015625 10.87109375 C36.8846888 19.90915021 38.87739261 30.56628984 38.9375 42.4375 C38.958125 43.43265625 38.97875 44.4278125 39 45.453125 C39.06217919 57.36043937 35.69720142 67.63505397 27.6484375 76.578125 C19.00892866 84.82076594 10.89266323 86.88443745 -0.76489258 86.71533203 C-11.23422075 86.32615402 -18.61780857 83.19522369 -25.96875 75.6015625 C-31.89016352 68.44148595 -35.80694964 58.58092329 -36.3125 49.3125 C-36.36277344 48.4565625 -36.41304688 47.600625 -36.46484375 46.71875 C-36.93412051 32.45273663 -33.6347682 19.57557222 -23.98046875 8.87890625 C-17.07516463 2.39406562 -9.39220348 -0.07305047 0 0 Z " fill="#FEFDFE" transform="translate(454.3125,62.6875)"/>
<path d="M0 0 C9.79585062 6.81612419 14.8998392 17.12746047 17.30078125 28.6640625 C19.14284117 43.32458066 16.7678279 57.1766233 8.6796875 69.6796875 C3.36129608 75.91504296 -2.59223284 79.2106079 -10.3203125 81.6796875 C-11.3103125 82.0096875 -12.3003125 82.3396875 -13.3203125 82.6796875 C-23.23089896 83.53841729 -31.77954389 82.62246632 -40.015625 76.76171875 C-49.31570054 68.91911773 -54.70173397 59.77220811 -56.3203125 47.6796875 C-57.46685161 33.80936074 -56.59992202 20.34245645 -48.0703125 8.7421875 C-35.31496626 -6.29089914 -17.4620648 -9.93632643 0 0 Z " fill="#FEFDFE" transform="translate(2015.3203125,1103.3203125)"/>
<path d="M0 0 C8.67647065 6.94776208 13.72061265 17.21601324 15.0012207 28.18041992 C15.1561426 31.01081038 15.20250328 33.8139234 15.18359375 36.6484375 C15.17787354 37.65148926 15.17215332 38.65454102 15.16625977 39.68798828 C14.87165184 52.04961801 11.92406363 63.62786309 2.68359375 72.4609375 C-6.70504775 80.12409894 -15.25190088 82.48088361 -27.31640625 81.4609375 C-36.38330799 80.10885566 -44.63608469 75.24834766 -50.23828125 67.9609375 C-51.74795495 65.50958615 -53.07367333 63.05667997 -54.31640625 60.4609375 C-54.64253906 59.79578125 -54.96867187 59.130625 -55.3046875 58.4453125 C-60.42438748 47.28388127 -60.30024757 30.32885767 -56.81640625 18.7109375 C-52.39095333 8.05879469 -45.56414529 0.07449541 -34.98046875 -4.5625 C-22.66710253 -8.90604989 -10.80462448 -7.17878928 0 0 Z " fill="#FEFDFE" transform="translate(398.31640625,1104.5390625)"/>
<path d="M0 0 C9.19869776 7.58968462 14.20450563 18.38961117 15.67773438 30.18994141 C16.80247611 43.54466984 14.20339852 57.46880194 6.015625 68.37890625 C-0.12225523 75.43898031 -8.58868778 80.65054587 -18.13671875 81.40625 C-30.42461192 81.59849865 -38.5790812 78.85122838 -47.48046875 70.38671875 C-52.10368474 65.52792487 -54.57524193 60.56930497 -56.5703125 54.203125 C-56.79589844 53.51863281 -57.02148438 52.83414062 -57.25390625 52.12890625 C-61.12204062 38.12359216 -58.86980352 22.20209922 -52.08203125 9.5234375 C-47.12419912 1.91374167 -39.72380386 -4.28332554 -30.765625 -6.47265625 C-19.25790726 -8.17219463 -9.60919025 -6.71767099 0 0 Z " fill="#FEFDFE" transform="translate(2332.5703125,1104.796875)"/>
<path d="M0 0 C7.93260818 6.75303819 12.32570941 15.62105099 14.1015625 25.7890625 C14.3398421 29.51597199 14.33250025 33.24274336 14.3515625 36.9765625 C14.3721875 37.96720703 14.3928125 38.95785156 14.4140625 39.97851562 C14.47954759 52.4616118 10.58053482 62.07289949 2.546875 71.640625 C-3.88406858 77.87960011 -13.25837771 81.03879663 -22.0859375 81.2890625 C-33.18324781 80.76131723 -41.32409803 76.96137614 -48.8984375 68.7890625 C-51.91986394 65.30280122 -53.85764371 62.06345472 -55.5859375 57.7890625 C-56.00230469 56.7784375 -56.41867187 55.7678125 -56.84765625 54.7265625 C-60.87357613 43.47194632 -61.05973089 26.8705663 -56.1015625 15.9765625 C-55.70453125 15.2546875 -55.3075 14.5328125 -54.8984375 13.7890625 C-54.50140625 13.0465625 -54.104375 12.3040625 -53.6953125 11.5390625 C-48.94254292 3.35707942 -41.29425953 -3.90177753 -32.0234375 -6.5859375 C-20.43898619 -8.81548468 -9.61925076 -6.90002793 0 0 Z " fill="#FEFDFE" transform="translate(961.8984375,1105.2109375)"/>
<path d="M0 0 C9.70430162 10.28445008 11.99625534 22.10756993 11.84423828 35.79272461 C11.45299949 48.64688681 8.35054279 59.99345873 -0.4296875 69.62890625 C-8.83549696 77.09560513 -17.66778632 79.10634243 -28.59765625 78.86328125 C-38.17028163 78.0427705 -46.17777735 73.62253471 -52.5625 66.5234375 C-62.5694665 54.37020473 -62.86217059 38.47835246 -61.5625 23.5234375 C-59.8929148 13.05722528 -55.11844153 4.26006968 -47.01953125 -2.64453125 C-32.86906305 -12.54781707 -12.99512953 -11.65324116 0 0 Z " fill="#FEFDFE" transform="translate(929.5625,71.4765625)"/>
<path d="M0 0 C12.32715637 9.68850035 12.32715637 9.68850035 14.390625 15.87890625 C12.29389297 17.72139831 10.18908651 19.55284602 8.078125 21.37890625 C7.48322266 21.90355469 6.88832031 22.42820312 6.27539062 22.96875 C1.73046875 26.87890625 1.73046875 26.87890625 -1.609375 26.87890625 C-2.8984375 25.33984375 -2.8984375 25.33984375 -4.234375 23.25390625 C-9.7095163 15.63455936 -17.4443178 11.50496479 -26.609375 9.87890625 C-36.13748825 8.8443524 -44.33260032 10.2668738 -52.30859375 15.7265625 C-60.83795012 22.7514883 -66.71844168 32.94185512 -67.82910156 44.08300781 C-68.55147099 58.76713929 -67.61087219 73.21850689 -57.609375 84.87890625 C-55.44387079 87.19537109 -53.22215159 89.08432692 -50.609375 90.87890625 C-49.72958984 91.49958984 -49.72958984 91.49958984 -48.83203125 92.1328125 C-43.47618307 95.17663117 -38.0613903 95.26206519 -32.046875 95.31640625 C-30.8417627 95.3316333 -30.8417627 95.3316333 -29.61230469 95.34716797 C-19.6650429 95.20238413 -12.91815384 91.46514422 -5.609375 84.87890625 C-3.79463437 82.94599646 -2.21131819 80.9976053 -0.609375 78.87890625 C4.7668871 81.79104822 9.56980773 85.12242526 14.390625 88.87890625 C13.12767083 95.91091036 7.03898043 100.62210395 1.515625 104.62890625 C-12.64979938 114.01563325 -28.22037853 116.63978138 -44.90625 114.4453125 C-59.43565228 111.35108794 -71.78089912 102.98580695 -79.94140625 90.6796875 C-89.95733794 73.86136661 -92.88862901 53.34921335 -88.734375 34.0859375 C-86.540397 25.85565828 -82.75245834 18.63255849 -77.609375 11.87890625 C-77.00222656 11.07839844 -76.39507813 10.27789063 -75.76953125 9.453125 C-57.47666265 -12.8050689 -23.52665698 -15.3243361 0 0 Z " fill="#910AC1" transform="translate(794.609375,1089.12109375)"/>
<path d="M0 0 C6.2460075 4.35790142 12.89738074 9.62844388 16 16.75 C13.92930225 18.62021112 11.84553585 20.47049257 9.75 22.3125 C9.16347656 22.84552734 8.57695313 23.37855469 7.97265625 23.92773438 C6.234375 25.44140625 6.234375 25.44140625 3 27.75 C0.29072033 27.42583154 -0.71231771 27.04316195 -2.640625 25.078125 C-3.43726563 24.04945312 -3.43726563 24.04945312 -4.25 23 C-10.70143492 15.34320144 -18.7830287 11.60766905 -28.6953125 10.4296875 C-38.2560511 10.02110893 -45.97072966 12.67970382 -53.3125 18.8125 C-61.16125445 26.38673522 -65.95107763 35.99500414 -66.265625 46.96484375 C-66.27089084 48.87239568 -66.26545575 50.78000342 -66.25 52.6875 C-66.25773438 53.63818359 -66.26546875 54.58886719 -66.2734375 55.56835938 C-66.24095159 67.35262386 -62.92843384 78.83236359 -54.75 87.6875 C-47.11828788 94.63932685 -38.37486467 97.14623769 -28.29296875 97.0234375 C-17.81087978 96.15303865 -9.44524494 91.59149516 -2.3359375 83.96484375 C-1.17842407 82.59716726 -0.08062064 81.17920794 1 79.75 C2.75129657 80.85210905 4.50098464 81.95677432 6.25 83.0625 C7.71179688 83.98482422 7.71179688 83.98482422 9.203125 84.92578125 C11.54733713 86.45475759 13.78784032 88.03820977 16 89.75 C14.75194973 96.69902063 8.74672953 101.42318206 3.3125 105.4375 C-10.20536149 114.40844444 -27.0191823 118.32148342 -43.10253906 115.36328125 C-57.96290264 111.89609423 -70.03643279 104.3419772 -78.625 91.625 C-88.86951463 74.94305388 -91.41115328 52.91872519 -87.09375 33.78515625 C-85.95758825 30.25650004 -84.67582595 27.05288449 -83 23.75 C-82.55398438 22.84121094 -82.10796875 21.93242188 -81.6484375 20.99609375 C-74.03758465 7.07120935 -62.5225013 -2.21822661 -47.39404297 -6.80737305 C-31.38324513 -11.0673154 -14.21038711 -8.47879843 0 0 Z " fill="#910AC2" transform="translate(758,52.25)"/>
<path d="M0 0 C5.39414 4.0224343 9.32868171 8.37829387 13 14 C9.55795583 18.93858512 5.05480586 22.76976495 0 26 C-0.99 26 -1.98 26 -3 26 C-4.2890625 24.4609375 -4.2890625 24.4609375 -5.625 22.375 C-11.09918074 14.75698985 -18.83544688 10.62358847 -28 9 C-38.91609402 7.82886938 -47.62673433 10.43800713 -56.18359375 17.30078125 C-64.93435081 25.48697334 -68.5700827 35.85789271 -69.19140625 47.625 C-69.40128228 61.5048014 -67.21313497 74.33544152 -58.078125 85.30859375 C-56.1441405 87.10719933 -54.21677051 88.56833571 -52 90 C-51.38125 90.42925781 -50.7625 90.85851563 -50.125 91.30078125 C-41.93058016 95.95815659 -30.68357812 95.07873369 -21.70703125 93.375 C-13.32144189 90.72567417 -7.05531715 85.07744401 -2 78 C1.66398299 79.68970089 4.90832572 81.87300211 8.25 84.125 C9.32765625 84.84945313 10.4053125 85.57390625 11.515625 86.3203125 C12.33546875 86.87460938 13.1553125 87.42890625 14 88 C8.62270009 99.65943394 -2.5573559 106.53132766 -14.140625 111 C-28.49058314 116.0185646 -44.2851461 115.34787713 -58.37890625 109.62890625 C-72.24909355 102.80025441 -82.0396203 91.74583846 -87.13720703 77.24902344 C-93.26659685 59.10461135 -93.25470585 39.14038564 -85.45703125 21.51171875 C-78.55700963 7.82220217 -68.64939586 -1.47248542 -54.58203125 -7.453125 C-36.56050324 -13.34278433 -15.71815049 -10.70063014 0 0 Z " fill="#910AC1" transform="translate(1852,1090)"/>
<path d="M0 0 C7.41250509 6.53981191 7.41250509 6.53981191 10.0625 10.68359375 C10.0625 11.67359375 10.0625 12.66359375 10.0625 13.68359375 C7.93224265 15.54171658 5.8385903 17.21252899 3.5625 18.87109375 C2.94246094 19.33451172 2.32242187 19.79792969 1.68359375 20.27539062 C0.14957119 21.42000745 -1.39316943 22.55292316 -2.9375 23.68359375 C-6.2595709 22.28142097 -7.89412308 20.72049357 -10.0625 17.87109375 C-16.26969665 10.5473992 -25.13440959 7.46410335 -34.45703125 6.39453125 C-43.47175901 5.90446021 -51.66999547 8.84902527 -58.8125 14.37109375 C-67.48493499 22.68481489 -71.93037416 34.85504664 -72.35913086 46.69042969 C-72.4606275 59.83814815 -69.08013057 71.04311404 -61.75 81.93359375 C-53.31900323 90.17723504 -45.10888483 92.07181212 -33.77050781 92.13671875 C-23.52671716 91.94545228 -16.60620175 88.51830123 -9.25 81.43359375 C-7.47050449 79.5325178 -6.1001643 78.00892234 -4.9375 75.68359375 C-0.78598662 77.12561851 2.36228445 79.18463755 5.875 81.80859375 C6.85082031 82.53304688 7.82664062 83.2575 8.83203125 84.00390625 C9.56808594 84.55820313 10.30414062 85.1125 11.0625 85.68359375 C8.16665423 94.26555336 0.49485958 100.02661392 -7.1875 104.3359375 C-22.98194187 112.07611143 -39.46504647 114.59973999 -56.31982422 108.94799805 C-69.29039121 104.18412696 -80.58380897 95.08271047 -86.9375 82.68359375 C-95.53375422 62.1506514 -96.97195597 41.38733096 -88.65234375 20.44921875 C-85.27337231 13.0324235 -80.71091516 7.38547987 -74.9375 1.68359375 C-74.38449219 1.10867188 -73.83148437 0.53375 -73.26171875 -0.05859375 C-53.76821015 -18.72979554 -19.97142894 -15.74874649 0 0 Z " fill="#910AC1" transform="translate(1732.9375,1092.31640625)"/>
<path d="M0 0 C17.07307323 -0.59782131 30.86237336 5.02585561 43.41796875 16.2421875 C45.67162718 18.49584593 47.50307096 20.6721931 49.41796875 23.2421875 C49.41796875 24.2321875 49.41796875 25.2221875 49.41796875 26.2421875 C47.2877114 28.10031033 45.19405905 29.77112274 42.91796875 31.4296875 C42.29792969 31.89310547 41.67789063 32.35652344 41.0390625 32.83398438 C39.50503994 33.9786012 37.96229932 35.11151691 36.41796875 36.2421875 C33.09983721 34.83863945 31.42222058 33.26002381 29.23046875 30.4296875 C23.63183407 23.80984264 15.81937519 19.86341463 7.19140625 18.87109375 C-3.84654232 18.6554097 -13.59660013 21.17101418 -21.765625 28.96484375 C-31.31339249 40.93548557 -34.01012172 55.2936505 -32.58203125 70.2421875 C-30.38196127 82.38007356 -26.00146293 92.29060611 -16.0234375 99.76953125 C-6.7315591 105.3743923 2.79459358 105.58477356 13.41796875 104.2421875 C22.47051439 101.56627778 29.23272847 96.02004792 34.41796875 88.2421875 C38.56948213 89.68421226 41.7177532 91.7432313 45.23046875 94.3671875 C46.20628906 95.09164063 47.18210937 95.81609375 48.1875 96.5625 C48.92355469 97.11679688 49.65960937 97.67109375 50.41796875 98.2421875 C46.57444582 109.4393895 35.46419239 115.3004687 25.41796875 120.2421875 C10.71114837 126.41990711 -5.77383356 125.67771303 -20.58203125 120.2421875 C-32.76437872 114.84530736 -43.06466233 105.47563942 -48.58203125 93.2421875 C-55.58430671 74.75598897 -57.66668936 53.83312209 -50.39453125 35.0546875 C-47.77469331 29.24979877 -44.5837149 24.1892791 -40.58203125 19.2421875 C-39.95941406 18.47003906 -39.33679687 17.69789062 -38.6953125 16.90234375 C-28.53010401 5.57539715 -14.78790595 0.99983661 0 0 Z " fill="#910AC1" transform="translate(2443.58203125,1079.7578125)"/>
<path d="M0 0 C7.59 0 15.18 0 23 0 C28.28028077 13.96010583 33.55535453 27.92216419 38.8248291 41.88635254 C39.96446674 44.90585365 41.10473497 47.92511597 42.24511719 50.94433594 C43.98603163 55.55444713 45.72388841 60.16570015 47.45944214 64.77783203 C48.10781907 66.4995541 48.75716122 68.22091301 49.40750122 69.94189453 C50.31466458 72.34309376 51.21830356 74.74559126 52.12109375 77.1484375 C52.38493866 77.8444809 52.64878357 78.54052429 52.92062378 79.25765991 C54.49618132 83.4651477 55.82000404 87.66995232 57 92 C57.66 92 58.32 92 59 92 C59.10997314 91.15695312 59.21994629 90.31390625 59.33325195 89.4453125 C60.05363807 85.72283397 61.25592842 82.37365504 62.66796875 78.875 C62.93942719 78.18724487 63.21088562 77.49948975 63.49057007 76.79089355 C64.07789766 75.30327599 64.66764214 73.81661082 65.259552 72.33081055 C66.8564139 68.31982873 68.43329668 64.3010476 70.0078125 60.28125 C70.33546097 59.44501099 70.66310944 58.60877197 71.00068665 57.74719238 C75.26858888 46.80917517 79.28196117 35.77687343 83.29174805 24.7421875 C86.33118993 16.39764193 89.50758668 8.1684751 93 0 C100.26 0 107.52 0 115 0 C111.6248672 10.12539839 111.6248672 10.12539839 110.01351929 14.17565918 C109.64903183 15.09531464 109.28454437 16.01497009 108.90901184 16.9624939 C108.51928696 17.93844513 108.12956207 18.91439636 107.72802734 19.91992188 C107.30979202 20.97301544 106.8915567 22.02610901 106.46064758 23.1111145 C105.08826665 26.56466896 103.71223737 30.01675563 102.3359375 33.46875 C101.37840526 35.87482025 100.42102014 38.28094905 99.46377563 40.68713379 C97.46316849 45.71427852 95.46079024 50.74071242 93.45703125 55.76660156 C91.13912838 61.58053267 88.82495064 67.39593625 86.51264799 73.21209669 C84.28474522 78.8156394 82.0539385 84.41802064 79.82188797 90.01991272 C78.87296382 92.40236338 77.92482064 94.78512524 76.97745895 97.16819763 C75.65853424 100.48487966 74.33631647 103.80022931 73.01318359 107.11523438 C72.61941025 108.10737946 72.2256369 109.09952454 71.81993103 110.12173462 C71.46108322 111.01883148 71.10223541 111.91592834 70.73251343 112.84020996 C70.26409562 114.01593693 70.26409562 114.01593693 69.78621483 115.21541595 C69 117 69 117 68 118 C66.43827255 118.08685603 64.87270656 118.10702219 63.30859375 118.09765625 C62.36435547 118.09443359 61.42011719 118.09121094 60.44726562 118.08789062 C59.45404297 118.07951172 58.46082031 118.07113281 57.4375 118.0625 C56.44041016 118.05798828 55.44332031 118.05347656 54.41601562 118.04882812 C51.94394862 118.03700005 49.47201335 118.01967958 47 118 C43.65805832 110.78859146 40.52245826 103.52586338 37.5769043 96.14428711 C37.1665242 95.12176849 36.7561441 94.09924988 36.33332825 93.04574585 C34.99433482 89.70732289 33.65910347 86.3674115 32.32421875 83.02734375 C31.38984038 80.69368029 30.45533417 78.36006801 29.52070618 76.02650452 C27.32293509 70.53709398 25.12793589 65.04658047 22.9338358 59.55570179 C20.93186758 54.54665725 18.9254248 49.53941428 16.9179427 44.53257746 C14.7412072 39.10312591 12.56830178 33.67214872 10.39695168 28.24054146 C9.47417958 25.93353435 8.55033131 23.6269574 7.62540245 21.32081413 C6.33901355 18.11223579 5.05699096 14.90194766 3.77612305 11.69116211 C3.39124725 10.73380661 3.00637146 9.77645111 2.60983276 8.79008484 C2.26366409 7.91974609 1.91749542 7.04940735 1.56083679 6.1526947 C1.10599427 5.01543143 1.10599427 5.01543143 0.64196301 3.85519314 C0 2 0 2 0 0 Z " fill="#910AC1" transform="translate(448,1083)"/>
<path d="M0 0 C6.6 0 13.2 0 20 0 C20 53.46 20 106.92 20 162 C13.4 162 6.8 162 0 162 C0 108.54 0 55.08 0 0 Z " fill="#9109C1" transform="translate(2703,1039)"/>
<path d="M0 0 C6.6 0 13.2 0 20 0 C20 53.46 20 106.92 20 162 C13.4 162 6.8 162 0 162 C0 108.54 0 55.08 0 0 Z " fill="#9109C1" transform="translate(1417,1039)"/>
<path d="M0 0 C6.6 0 13.2 0 20 0 C20 38.94 20 77.88 20 118 C13.4 118 6.8 118 0 118 C0 79.06 0 40.12 0 0 Z " fill="#9109C1" transform="translate(2518,1083)"/>
<path d="M0 0 C6.6 0 13.2 0 20 0 C20 38.94 20 77.88 20 118 C13.4 118 6.8 118 0 118 C0 79.06 0 40.12 0 0 Z " fill="#9109C1" transform="translate(1890,1083)"/>
<path d="M0 0 C6.6 0 13.2 0 20 0 C20 38.94 20 77.88 20 118 C13.4 118 6.8 118 0 118 C0 79.06 0 40.12 0 0 Z " fill="#9007C1" transform="translate(834,1083)"/>
<path d="M0 0 C6.6 0 13.2 0 20 0 C20 38.94 20 77.88 20 118 C13.4 118 6.8 118 0 118 C0 79.06 0 40.12 0 0 Z " fill="#8F07C1" transform="translate(0,1083)"/>
<path d="M0 0 C6.6 0 13.2 0 20 0 C20 38.94 20 77.88 20 118 C13.4 118 6.8 118 0 118 C0 79.06 0 40.12 0 0 Z " fill="#9109C1" transform="translate(799,47)"/>
<path d="M0 0 C0.33 0 0.66 0 1 0 C1.11742499 4.29143157 1.18765996 8.58244273 1.25 12.875 C1.30027344 14.68097656 1.30027344 14.68097656 1.3515625 16.5234375 C1.46109271 26.60021686 -0.24708364 34.95009664 -7.3046875 42.46875 C-16.14859269 50.4567934 -25.70408313 51.55843737 -37.21484375 51.23828125 C-44.16783151 50.80058027 -48.153202 49.22622111 -52.9375 44 C-57.19863825 38.87498634 -57.34400328 34.45202711 -57.28125 27.94921875 C-56.79213695 22.82032492 -54.31688116 20.31688116 -50.8125 16.8125 C-42.64770432 11.55074278 -32.73897073 10.89373293 -23.32617188 9.62695312 C-14.87140443 8.39256741 -5.70222856 6.94184346 0 0 Z " fill="#FDFCFE" transform="translate(1587,1136)"/>
<path d="M0 0 C0.66 0 1.32 0 2 0 C2.17683407 4.24945882 2.28169487 8.49795193 2.375 12.75 C2.42527344 13.93722656 2.47554687 15.12445312 2.52734375 16.34765625 C2.68300532 25.84301175 0.61818571 33.70740027 -5.74536133 41.00024414 C-14.15734798 49.05053764 -24.88898387 50.48181775 -36 50.27734375 C-41.73734315 50.0079031 -46.32407874 48.47721424 -50.578125 44.5390625 C-55.61221783 38.83954361 -56.46732511 34.34630905 -56.3046875 26.91015625 C-55.88124331 22.86572136 -54.83893457 20.90990793 -52 18 C-45.82277093 13.05455131 -39.42057927 11.68573677 -31.75 10.375 C-14.58384317 8.22239044 -14.58384317 8.22239044 0 0 Z " fill="#FDFCFE" transform="translate(2641,1137)"/>
<path d="M0 0 C0.14667378 4.45798044 0.23453375 8.91533054 0.3125 13.375 C0.35439453 14.62667969 0.39628906 15.87835937 0.43945312 17.16796875 C0.56432603 26.70825894 -1.08961137 33.11570326 -7.0703125 40.5859375 C-16.42486904 48.73115974 -25.78110768 50.97186947 -37.953125 50.453125 C-44.72374753 49.89258044 -49.73640387 47.26359613 -54.5 42.5 C-57.99064969 36.68225052 -58.82415929 31.75176653 -58 25 C-56.40138682 19.74885922 -53.07233522 16.69163842 -48.3671875 14.0546875 C-41.68099547 11.07569105 -34.47140956 10.05192361 -27.29101562 8.93017578 C-19.01796369 7.63772597 -6.81931225 0 0 0 Z " fill="#FDFCFE" transform="translate(653,1137)"/>
<path d="M0 0 C0.33 0 0.66 0 1 0 C1.11719343 4.31226745 1.18758416 8.62411934 1.25 12.9375 C1.30027344 14.75604492 1.30027344 14.75604492 1.3515625 16.61132812 C1.46796272 27.34924838 -0.8047358 34.40545225 -8.14453125 42.27734375 C-16.05934204 49.62562071 -25.79336112 50.49167221 -36.109375 50.2421875 C-42.94525977 49.81666054 -47.73156886 48.78018471 -52.4375 43.625 C-56.86482845 37.72598342 -58.03932765 32.3311714 -57 25 C-55.26778552 19.93525106 -52.41599498 16.89090076 -47.703125 14.421875 C-40.17207071 10.81908536 -32.06540346 10.1568665 -23.875 9.06054688 C-15.80797929 7.85049377 -6.04760885 6.04760885 0 0 Z " fill="#FEFCFE" transform="translate(617,101)"/>
<path d="M0 0 C7.39464162 5.95178471 12.63945839 12.6221139 14.5625 22.0625 C14.5625 24.0425 14.5625 26.0225 14.5625 28.0625 C-8.8675 28.0625 -32.2975 28.0625 -56.4375 28.0625 C-55.26259061 17.48831553 -52.3686433 9.37636092 -44.4375 2.0625 C-30.83969012 -8.51037336 -14.77763473 -8.3292123 0 0 Z " fill="#FEFCFE" transform="translate(1157.4375,1102.9375)"/>
<path d="M0 0 C7.59 0 15.18 0 23 0 C23 12.37059787 23 12.37059787 21.9765625 18.36328125 C21.76 19.66330078 21.5434375 20.96332031 21.3203125 22.30273438 C21.08892756 23.63938977 20.85715582 24.97597827 20.625 26.3125 C20.17671824 28.953929 19.73309788 31.59613564 19.2890625 34.23828125 C18.96470215 36.15761475 18.96470215 36.15761475 18.63378906 38.11572266 C17.66317 44.06431636 16.82091372 50.02892675 16 56 C12.7 56 9.4 56 6 56 C5.13488144 49.95490738 4.28083584 43.90838532 3.43652344 37.86035156 C3.1484645 35.8078511 2.85750957 33.75575472 2.56347656 31.70410156 C-0.43927701 10.72568034 -0.43927701 10.72568034 0 0 Z " fill="#920BC2" transform="translate(1467,1050)"/>
<path d="M0 0 C6.35219042 0.54881057 12.67873638 1.16511613 19 2 C17.58628808 12.00070284 7.12636016 21.39092458 -0.62060547 27.21923828 C-4.0015775 29.60459865 -7.47638722 31.83255434 -11 34 C-17.57142857 30 -17.57142857 30 -19 26 C-18.21496094 25.04480469 -17.42992187 24.08960938 -16.62109375 23.10546875 C-10.55861515 15.66629426 -4.8879667 8.27856332 0 0 Z " fill="#920BC2" transform="translate(942,1036)"/>
<path d="M0 0 C5.94 0.66 11.88 1.32 18 2 C19 5 19 5 18.20703125 6.83984375 C10.55128973 18.35562301 0.7669929 26.90642272 -11 34 C-14.81684226 32.44499019 -17.19195732 29.96404505 -20 27 C-19.39414062 26.30777344 -18.78828125 25.61554687 -18.1640625 24.90234375 C-11.38673349 16.9885088 -5.67022857 8.74835265 0 0 Z " fill="#920BC2" transform="translate(907,0)"/>
<path d="M0 0 C6.35219042 0.54881057 12.67873638 1.16511613 19 2 C18.3898984 11.76162557 7.74326613 19.86727283 1 26 C-7.1017294 32.36724313 -7.1017294 32.36724313 -12 34 C-13.82421875 32.78515625 -13.82421875 32.78515625 -15.6875 31.0625 C-16.31011719 30.49660156 -16.93273438 29.93070313 -17.57421875 29.34765625 C-18.04472656 28.90292969 -18.51523438 28.45820312 -19 28 C-17.64411321 25.0881179 -16.08562687 22.65906349 -14.1015625 20.13671875 C-13.25851562 19.05293945 -13.25851562 19.05293945 -12.3984375 17.94726562 C-11.22481478 16.45180143 -10.05034797 14.95699926 -8.875 13.46289062 C-5.50815651 9.13134655 -2.59401415 4.83662245 0 0 Z " fill="#910BC2" transform="translate(1998,1036)"/>
<path d="M0 0 C6.6 0 13.2 0 20 0 C20 6.93 20 13.86 20 21 C13.4 21 6.8 21 0 21 C0 14.07 0 7.14 0 0 Z " fill="#920CC2" transform="translate(2518,1039)"/>
<path d="M0 0 C6.6 0 13.2 0 20 0 C20 6.93 20 13.86 20 21 C13.4 21 6.8 21 0 21 C0 14.07 0 7.14 0 0 Z " fill="#920CC2" transform="translate(1890,1039)"/>
<path d="M0 0 C6.6 0 13.2 0 20 0 C20 6.93 20 13.86 20 21 C13.4 21 6.8 21 0 21 C0 14.07 0 7.14 0 0 Z " fill="#9109C1" transform="translate(834,1039)"/>
<path d="M0 0 C6.6 0 13.2 0 20 0 C20 6.93 20 13.86 20 21 C13.4 21 6.8 21 0 21 C0 14.07 0 7.14 0 0 Z " fill="#9109C1" transform="translate(0,1039)"/>
<path d="M0 0 C6.6 0 13.2 0 20 0 C20 6.93 20 13.86 20 21 C13.4 21 6.8 21 0 21 C0 14.07 0 7.14 0 0 Z " fill="#9109C1" transform="translate(799,3)"/>
</svg>