<?xml version="1.0" encoding="UTF-8"?>
<svg version="1.1" xmlns="http://www.w3.org/2000/svg" width="402" height="125" viewBox="0 0 402 125">
<path d="M0 0 C132.66 0 265.32 0 402 0 C402 41.25 402 82.5 402 125 C269.34 125 136.68 125 0 125 C0 83.75 0 42.5 0 0 Z " fill="#FEFDFE" transform="translate(0,0)"/>
<path d="M0 0 C1.79203928 0.40033693 3.58436468 0.79939491 5.37695312 1.19726562 C11.17582009 2.49398854 16.96359703 3.83638676 22.75 5.1875 C23.79454346 5.43079041 24.83908691 5.67408081 25.9152832 5.92474365 C37.27655421 8.57383039 48.62918642 11.2594098 59.96875 14 C61.26259613 14.31036446 61.26259613 14.31036446 62.58258057 14.6269989 C68.51592868 16.07046434 68.51592868 16.07046434 70.75 17.1875 C71.08 13.2275 71.41 9.2675 71.75 5.1875 C77.03 5.1875 82.31 5.1875 87.75 5.1875 C87.77286774 12.5347276 87.79109425 19.88193476 87.80181217 27.22919083 C87.80696403 30.64320479 87.81391584 34.05719253 87.82543945 37.47119141 C87.87418905 53.07679873 87.77399289 68.61172544 86.75 84.1875 C78.93964829 84.28928459 71.12946894 84.35912714 63.31860352 84.40722656 C60.66366314 84.42502053 58.00959468 84.4545388 55.35473633 84.48925781 C51.52934916 84.53801626 47.7045485 84.56052497 43.87890625 84.578125 C42.70042618 84.59877014 41.52194611 84.61941528 40.30775452 84.64068604 C31.76074588 84.64299063 25.30818437 83.05289169 18.4375 77.875 C14.53151894 73.96901894 11.74767228 69.71908269 10.75 64.1875 C10.87451172 62.21142578 10.87451172 62.21142578 11.1796875 60.1328125 C12.21898045 51.262086 12.21898045 51.262086 9.41113281 43.04394531 C5.91482387 39.02229456 1.82264057 35.74979292 -2.4296875 32.56054688 C-4.64872183 30.88674737 -6.69785994 29.06048498 -8.75 27.1875 C-10.5702449 25.61420298 -12.4034187 24.05870035 -14.24609375 22.51171875 C-14.88675781 21.97160156 -15.52742188 21.43148437 -16.1875 20.875 C-16.75339844 20.40449219 -17.31929687 19.93398438 -17.90234375 19.44921875 C-19.25 18.1875 -19.25 18.1875 -20.25 16.1875 C-22.52024968 16.10652676 -24.79132075 16.04832296 -27.0625 16 C-28.32707031 15.96519531 -29.59164062 15.93039063 -30.89453125 15.89453125 C-34.18172653 15.89804209 -34.18172653 15.89804209 -36.171875 17.54296875 C-37.73683812 19.93010453 -37.73810985 21.39830088 -37.25 24.1875 C-34.53302592 26.6438219 -32.10922857 27.71308355 -28.58203125 28.58203125 C-27.24108398 28.93297852 -27.24108398 28.93297852 -25.87304688 29.29101562 C-24.02048 29.75834139 -22.16632743 30.21943189 -20.31054688 30.67382812 C-11.12224334 33.10080307 -3.76256383 37.33627272 1.75 45.1875 C4.53764388 51.12725004 4.85042744 57.37466761 3.02734375 63.69140625 C-0.32836844 71.72066093 -4.80945157 76.53853075 -12.72265625 80.15234375 C-24.80453748 85.10087316 -37.97048697 84.19202909 -50.25 80.1875 C-53.69446188 78.69800297 -56.99201076 77.04815751 -60.25 75.1875 C-59.86330541 68.22699747 -57.61561591 63.2480925 -54.25 57.1875 C-50.42949217 58.6691926 -46.83893084 60.38340758 -43.21484375 62.28515625 C-39.22168734 64.1189915 -35.62690154 64.34764437 -31.25 64.375 C-29.703125 64.39626953 -29.703125 64.39626953 -28.125 64.41796875 C-25.23357729 64.18618351 -23.59023179 63.88799553 -21.25 62.1875 C-20.43129815 58.62543339 -20.43129815 58.62543339 -20.25 55.1875 C-25.04282315 50.81144408 -31.53182681 49.47772685 -37.75 48.3125 C-45.35286507 46.68047137 -51.12541914 42.99041249 -56.05859375 37.03125 C-60.53448557 30.10462398 -60.01222358 22.10350945 -59.25 14.1875 C-58.14126575 10.87614638 -56.65674543 8.69198128 -54.25 6.1875 C-53.74210937 5.63835938 -53.23421875 5.08921875 -52.7109375 4.5234375 C-38.47783058 -9.17002556 -17.24063459 -3.98971753 0 0 Z " fill="#FCEEEC" transform="translate(99.25,40.8125)"/>
<path d="M0 0 C2.4453125 1.63671875 2.4453125 1.63671875 4 3 C2.89061647 9.30596952 1.06802099 14.37529486 -2 20 C-2.60328125 19.79503906 -3.2065625 19.59007813 -3.828125 19.37890625 C-4.62734375 19.10949219 -5.4265625 18.84007813 -6.25 18.5625 C-7.03890625 18.29566406 -7.8278125 18.02882813 -8.640625 17.75390625 C-9.41921875 17.50511719 -10.1978125 17.25632812 -11 17 C-11.59167969 16.80792969 -12.18335938 16.61585937 -12.79296875 16.41796875 C-16.20068877 15.77261292 -19.60676978 15.77488375 -23.0625 15.75 C-23.78244141 15.729375 -24.50238281 15.70875 -25.24414062 15.6875 C-29.35018339 15.63461188 -29.35018339 15.63461188 -32.96875 17.359375 C-34.47306394 19.75260172 -34.48383536 21.23522651 -34 24 C-31.28302592 26.4563219 -28.85922857 27.52558355 -25.33203125 28.39453125 C-23.99108398 28.74547852 -23.99108398 28.74547852 -22.62304688 29.10351562 C-20.77048 29.57084139 -18.91632743 30.03193189 -17.06054688 30.48632812 C-7.87224334 32.91330307 -0.51256383 37.14877272 5 45 C7.78764388 50.93975004 8.10042744 57.18716761 6.27734375 63.50390625 C2.92163156 71.53316093 -1.55945157 76.35103075 -9.47265625 79.96484375 C-21.55453748 84.91337316 -34.72048697 84.00452909 -47 80 C-50.44446188 78.51050297 -53.74201076 76.86065751 -57 75 C-56.61330541 68.03949747 -54.36561591 63.0605925 -51 57 C-47.17949217 58.4816926 -43.58893084 60.19590758 -39.96484375 62.09765625 C-35.97168734 63.9314915 -32.37690154 64.16014437 -28 64.1875 C-26.453125 64.20876953 -26.453125 64.20876953 -24.875 64.23046875 C-21.98357729 63.99868351 -20.34023179 63.70049553 -18 62 C-17.18129815 58.43793339 -17.18129815 58.43793339 -17 55 C-21.79282315 50.62394408 -28.28182681 49.29022685 -34.5 48.125 C-42.10286507 46.49297137 -47.87541914 42.80291249 -52.80859375 36.84375 C-57.28448557 29.91712398 -56.76222358 21.91600945 -56 14 C-54.89126575 10.68864638 -53.40674543 8.50448128 -51 6 C-50.49210937 5.45085938 -49.98421875 4.90171875 -49.4609375 4.3359375 C-36.33357605 -8.29370408 -15.83527696 -5.67715565 0 0 Z " fill="#3E3A70" transform="translate(96,41)"/>
<path d="M0 0 C3.79536624 3.79536624 5.81423598 7.67318891 6.24291992 13.04272461 C6.23881104 14.15139893 6.23470215 15.26007324 6.23046875 16.40234375 C6.22853516 17.62244141 6.22660156 18.84253906 6.22460938 20.09960938 C6.21236328 21.36611328 6.20011719 22.63261719 6.1875 23.9375 C6.1865332 25.83145508 6.1865332 25.83145508 6.18554688 27.76367188 C6.15886999 33.38063848 5.92874763 38.42751421 5 44 C0.38 44 -4.24 44 -9 44 C-9.03738281 41.86917969 -9.07476562 39.73835938 -9.11328125 37.54296875 C-9.15950257 35.4776792 -9.21073366 33.41257047 -9.26245117 31.34741211 C-9.29569001 29.91295372 -9.32372535 28.47836487 -9.34643555 27.04370117 C-9.38000271 24.98039193 -9.43231413 22.91827697 -9.48828125 20.85546875 C-9.51446533 19.61434326 -9.54064941 18.37321777 -9.56762695 17.09448242 C-9.75740535 14.03966991 -9.75740535 14.03966991 -11.34057617 12.06762695 C-13.10054227 10.71706426 -13.10054227 10.71706426 -16.0625 11.0625 C-19.02520409 11.68139311 -19.02520409 11.68139311 -20.15771484 13.65136719 C-21.24122659 16.67263761 -21.32655759 19.30711147 -21.4140625 22.515625 C-21.45273437 23.76601562 -21.49140625 25.01640625 -21.53125 26.3046875 C-21.57765625 28.25761719 -21.57765625 28.25761719 -21.625 30.25 C-21.66367187 31.56742188 -21.70234375 32.88484375 -21.7421875 34.2421875 C-21.83645919 37.49456078 -21.91931849 40.74726121 -22 44 C-26.62 44 -31.24 44 -36 44 C-36.06058594 41.86917969 -36.12117188 39.73835938 -36.18359375 37.54296875 C-36.24541415 35.47774821 -36.30878897 33.41258082 -36.37231445 31.34741211 C-36.41560793 29.91288997 -36.45728699 28.47831816 -36.49731445 27.04370117 C-36.55515267 24.9808048 -36.61880753 22.91815717 -36.68359375 20.85546875 C-36.72025146 19.61434326 -36.75690918 18.37321777 -36.79467773 17.09448242 C-36.87144121 13.96446653 -36.87144121 13.96446653 -38 11 C-41.11512601 10.78760504 -43.33951879 10.66953596 -46.16503906 12.08325195 C-48.84903464 14.88687746 -48.54472818 17.02514474 -48.609375 20.85546875 C-48.62591125 21.51710526 -48.64244751 22.17874176 -48.65948486 22.86042786 C-48.70799288 24.96954601 -48.72933927 27.07794323 -48.75 29.1875 C-48.77815777 30.61917695 -48.80808495 32.05082028 -48.83984375 33.48242188 C-48.91708159 36.98861349 -48.9575623 40.49252402 -49 44 C-53.95 44 -58.9 44 -64 44 C-64 28.82 -64 13.64 -64 -2 C-59.38 -2 -54.76 -2 -50 -2 C-49.34 -1.01 -48.68 -0.02 -48 1 C-47.20722656 0.27296875 -47.20722656 0.27296875 -46.3984375 -0.46875 C-41.80898389 -3.39882462 -36.23583906 -2.7266592 -31 -2 C-28.29038418 -0.60399042 -27.03707585 0.67191331 -25 3 C-24.278125 2.38125 -23.55625 1.7625 -22.8125 1.125 C-15.59777619 -4.32612466 -7.8438398 -4.28933288 0 0 Z " fill="#3F3B71" transform="translate(396,80)"/>
<path d="M0 0 C7.13211593 -0.39899949 13.32022548 1.44229635 19.09375 5.6953125 C24.45924715 10.62514963 27.55227242 16.07770946 28.42578125 23.3359375 C28.73843405 31.98936012 27.28789374 38.34945149 21.671875 45 C14.48563452 50.98853373 7.99158738 53.71796457 -1.3984375 53.50390625 C-8.33475974 52.64482047 -14.09118195 49.04944305 -18.953125 44.1875 C-24.47687225 36.32678276 -24.71013513 28.57652837 -23.953125 19.1875 C-21.68076954 11.22190612 -15.77066753 6.29931763 -8.85546875 2.19140625 C-5.85737847 0.60925183 -3.32223934 0.31893498 0 0 Z " fill="#EE7569" transform="translate(133.953125,71.8125)"/>
<path d="M0 0 C1.63001953 0.01353516 1.63001953 0.01353516 3.29296875 0.02734375 C4.12441406 0.03894531 4.95585937 0.05054687 5.8125 0.0625 C6.1425 1.3825 6.4725 2.7025 6.8125 4.0625 C7.555 3.4025 8.2975 2.7425 9.0625 2.0625 C13.82736006 -1.11407337 19.32979885 -0.67555592 24.8125 0.0625 C29.75836526 2.35879459 32.12010518 5.37573865 34.8125 10.0625 C36.00662346 13.64487037 35.94207863 16.53991457 35.9453125 20.3203125 C35.94626923 21.02396942 35.94722595 21.72762634 35.94821167 22.4526062 C35.94889125 23.93699229 35.94705245 25.42138137 35.94287109 26.90576172 C35.93750367 29.18593958 35.94283171 31.46592189 35.94921875 33.74609375 C35.94855824 35.18750044 35.94727765 36.628907 35.9453125 38.0703125 C35.94418457 39.38660645 35.94305664 40.70290039 35.94189453 42.05908203 C35.8125 45.0625 35.8125 45.0625 34.8125 46.0625 C32.45936445 46.13521741 30.10416332 46.14620868 27.75 46.125 C26.45964844 46.11597656 25.16929687 46.10695312 23.83984375 46.09765625 C22.84082031 46.08605469 21.84179688 46.07445312 20.8125 46.0625 C20.79268066 45.19971436 20.77286133 44.33692871 20.75244141 43.44799805 C20.67430356 40.24413044 20.58760918 37.04064106 20.49511719 33.8371582 C20.4568565 32.45118093 20.42199844 31.06510535 20.390625 29.67895508 C20.34491301 27.6854836 20.28591075 25.69233086 20.2265625 23.69921875 C20.17943115 21.90037231 20.17943115 21.90037231 20.13134766 20.06518555 C20.02820506 16.88367294 20.02820506 16.88367294 17.8125 14.0625 C12.73727633 13.3693644 12.73727633 13.3693644 8.22119141 15.17260742 C6.14355032 17.95995919 6.37600232 20.25409357 6.30078125 23.69921875 C6.26533203 24.99794922 6.22988281 26.29667969 6.19335938 27.63476562 C6.1702595 29.00650517 6.1474771 30.3782501 6.125 31.75 C6.09182458 33.13349607 6.05733469 34.51696129 6.02148438 35.90039062 C5.9388727 39.28746933 5.87401428 42.67497246 5.8125 46.0625 C0.8625 46.0625 -4.0875 46.0625 -9.1875 46.0625 C-9.1875 31.2125 -9.1875 16.3625 -9.1875 1.0625 C-5.90230525 -0.03256492 -3.45086585 -0.03710608 0 0 Z " fill="#EF766A" transform="translate(234.1875,77.9375)"/>
<path d="M0 0 C4.62 0 9.24 0 14 0 C14.02578125 2.04703125 14.0515625 4.0940625 14.078125 6.203125 C14.11985489 8.19224995 14.16172403 10.18137465 14.20751953 12.17041016 C14.23569099 13.54951651 14.25692472 14.92878318 14.27099609 16.30810547 C14.29247545 18.29422949 14.34123132 20.27999909 14.390625 22.265625 C14.41157227 23.45961914 14.43251953 24.65361328 14.45410156 25.88378906 C15.09950004 29.56798681 16.01046296 30.80767283 19 33 C22.09648876 33.16448881 22.09648876 33.16448881 25 32 C28.26440432 28.72835753 28.40912258 25.99860646 28.51171875 21.484375 C28.54716797 20.23398438 28.58261719 18.98359375 28.61914062 17.6953125 C28.64169922 16.39335938 28.66425781 15.09140625 28.6875 13.75 C28.72166016 12.43257812 28.75582031 11.11515625 28.79101562 9.7578125 C28.8735016 6.50550829 28.93842673 3.25276733 29 0 C33.95 0 38.9 0 44 0 C44.02319794 4.46173795 44.04303618 8.92325911 44.05493164 13.38500977 C44.05990073 14.8967358 44.06667832 16.4084572 44.07543945 17.92016602 C44.12860773 27.34346037 43.86037747 36.60359407 43 46 C38.38 46 33.76 46 29 46 C28.67 44.68 28.34 43.36 28 42 C27.278125 42.66 26.55625 43.32 25.8125 44 C20.81625718 47.33877802 14.73214723 46.7146952 9 46 C3.92639694 43.72562622 2.02520202 41.11629984 0 36 C-3.43900435 25.25607607 -0.76555433 11.16889088 0 0 Z " fill="#ED766A" transform="translate(279,78)"/>
<path d="M0 0 C5.28 0 10.56 0 16 0 C16.02285037 7.36449832 16.0410847 14.72897635 16.05181217 22.093503 C16.05696814 25.51539265 16.06392812 28.93725622 16.07543945 32.35913086 C16.12292063 47.60617516 16.07061635 62.78566058 15 78 C10.05 78 5.1 78 0 78 C-1.10374363 74.68876911 -1.12695781 72.23116157 -1.12939453 68.74365234 C-1.13254669 67.45155853 -1.13569885 66.15946472 -1.13894653 64.82821655 C-1.13715551 63.41412319 -1.13510425 62.00003014 -1.1328125 60.5859375 C-1.1334865 59.1320494 -1.13445734 57.6781614 -1.13571167 56.22427368 C-1.1371869 53.17277964 -1.13504157 50.12131486 -1.13037109 47.06982422 C-1.1247043 43.17977219 -1.12793444 39.28978963 -1.13394356 35.39974022 C-1.13757994 32.39351898 -1.13639601 29.38731383 -1.13381577 26.38109207 C-1.1331534 24.94832984 -1.13395052 23.5155661 -1.13629532 22.08280563 C-1.14579351 14.64055929 -1.02195723 7.37696833 0 0 Z " fill="#EE786C" transform="translate(171,46)"/>
<path d="M0 0 C5.61 0 11.22 0 17 0 C17 12.87 17 25.74 17 39 C11.72 39 6.44 39 1 39 C0.11051116 34.5525558 -0.12992534 30.56264456 -0.09765625 26.07421875 C-0.0962413 25.32662796 -0.09482635 24.57903717 -0.09336853 23.80879211 C-0.08779764 21.43498635 -0.0752506 19.06127697 -0.0625 16.6875 C-0.05748123 15.07226699 -0.05291899 13.4570325 -0.04882812 11.84179688 C-0.03869117 7.89446478 -0.0191103 3.94733953 0 0 Z " fill="#EF766A" transform="translate(197,85)"/>
<path d="M0 0 C6.22192813 2.66233804 12.81341955 8.28693886 16.2421875 14.109375 C16.85801887 15.72852715 17.43219569 17.36338758 18 19 C20.22805397 21.22805397 21.76027034 21.93279545 24.80078125 22.78515625 C28.46748259 24.17751781 30.53704947 25.9404522 33.375 28.625 C34.24898437 29.44226563 35.12296875 30.25953125 36.0234375 31.1015625 C37.00183594 32.04128906 37.00183594 32.04128906 38 33 C34.26342295 36.73657705 29.21519122 37.15299789 24.125 37.375 C16.10055048 37.19207182 9.58821961 33.58821961 4 28 C-0.21665905 21.99936982 -1.14020467 17.16732249 -1.125 9.9375 C-1.12757812 8.70902344 -1.13015625 7.48054688 -1.1328125 6.21484375 C-1 3 -1 3 0 0 Z " fill="#403C71" transform="translate(111,88)"/>
<path d="M0 0 C9.08612169 0.12582431 20.44129103 1.12910456 27.50537109 7.32348633 C26.39598757 13.62945585 24.57339208 18.69878119 21.50537109 24.32348633 C20.90208984 24.11852539 20.29880859 23.91356445 19.67724609 23.70239258 C18.87802734 23.43297852 18.07880859 23.16356445 17.25537109 22.88598633 C16.46646484 22.61915039 15.67755859 22.35231445 14.86474609 22.07739258 C10.44705395 20.66577903 6.40139144 20.08620775 1.75537109 19.76098633 C0.58490234 19.67719727 -0.58556641 19.5934082 -1.79150391 19.50708008 C-2.68353516 19.44649414 -3.57556641 19.3859082 -4.49462891 19.32348633 C-4.49462891 18.99348633 -4.49462891 18.66348633 -4.49462891 18.32348633 C-2.51462891 17.99348633 -0.53462891 17.66348633 1.50537109 17.32348633 C0.81830078 16.6712207 0.13123047 16.01895508 -0.57666016 15.34692383 C-1.47771484 14.47293945 -2.37876953 13.59895508 -3.30712891 12.69848633 C-4.64710937 11.41071289 -4.64710937 11.41071289 -6.01416016 10.09692383 C-8.50833708 7.30815908 -9.990733 4.7309847 -11.49462891 1.32348633 C-9.18856087 -0.9825817 -3.20867273 0.0144941 0 0 Z " fill="#EC7469" transform="translate(72.49462890625,36.676513671875)"/>
<path d="M0 0 C4.95 0.99 9.9 1.98 15 3 C15 11.58 15 20.16 15 29 C10.05 29 5.1 29 0 29 C0 19.43 0 9.86 0 0 Z " fill="#EE756A" transform="translate(332,95)"/>
<path d="M0 0 C2.8100346 1.79363911 4.50940468 3.01880935 6 6 C6.60130441 10.77607501 6.92258656 15.50742541 4.125 19.625 C0.33187841 22.50777241 -1.93688157 22.89164694 -6.6171875 22.5703125 C-9.62260879 21.85098216 -11.49204903 20.5733002 -13.22265625 17.98046875 C-14.77899272 14.01533009 -14.76821854 10.15253267 -14 6 C-10.44272712 0.18978764 -6.66427238 -0.9575104 0 0 Z " fill="#FDF3F3" transform="translate(140,88)"/>
<path d="M0 0 C8 1 8 1 14 3 C14 9.27 14 15.54 14 22 C9.38 22 4.76 22 0 22 C0 14.74 0 7.48 0 0 Z " fill="#ED7266" transform="translate(360,102)"/>
<path d="M0 0 C3.68226218 2.58541812 4.79175034 4.20865127 5.9375 8.5625 C5.99837495 11.91062198 5.96117085 13.35241936 4 16 C-0.23117196 18.8207813 -4.03267971 18.78046276 -9 18 C-12.4038811 15.32552199 -12.90351827 13.77185385 -13.4375 9.5 C-12.97918775 5.83350202 -12.22769177 3.91313539 -10 1 C-6.77121481 -0.6143926 -3.49096318 -0.5818272 0 0 Z " fill="#ED756A" transform="translate(211,59)"/>
<path d="M0 0 C5.28 0 10.56 0 16 0 C16 4.95 16 9.9 16 15 C10.39525319 14.48263876 5.3591425 13.71036463 0 12 C0 8.04 0 4.08 0 0 Z " fill="#3B376F" transform="translate(171,46)"/>
<path d="M0 0 C5.26303067 0.75186152 9.91701988 1.66237365 15 3 C14.67 7.29 14.34 11.58 14 16 C9.38 16 4.76 16 0 16 C0 10.72 0 5.44 0 0 Z " fill="#ED7368" transform="translate(387,108)"/>
<path d="M0 0 C4.38341045 1.55907896 6.62156989 4.75200599 9.54296875 8.265625 C10.12369141 8.93464844 10.70441406 9.60367187 11.30273438 10.29296875 C14.19411026 13.69576719 16.54833234 16.66412571 17.85546875 21.015625 C16.60546875 22.578125 16.60546875 22.578125 14.85546875 24.015625 C11.38400225 23.64232043 9.90117435 22.35474525 7.69140625 19.7421875 C6.84449219 18.7521875 6.84449219 18.7521875 5.98046875 17.7421875 C5.40296875 17.04867188 4.82546875 16.35515625 4.23046875 15.640625 C3.35261719 14.61195312 3.35261719 14.61195312 2.45703125 13.5625 C0.09386514 10.77656565 -2.11503179 8.0598742 -4.14453125 5.015625 C-3.41059368 0.0248495 -3.41059368 0.0248495 0 0 Z " fill="#EF766A" transform="translate(21.14453125,5.984375)"/>
<path d="M0 0 C4.62 0 9.24 0 14 0 C14 4.95 14 9.9 14 15 C9.38 14.01 4.76 13.02 0 12 C0 8.04 0 4.08 0 0 Z " fill="#3E3A70" transform="translate(308,78)"/>
<path d="M0 0 C2.625 0.375 2.625 0.375 5 1 C6.79341438 5.16673521 5.01173384 8.74663341 3.5625 12.75 C3.31951172 13.44738281 3.07652344 14.14476562 2.82617188 14.86328125 C2.22689752 16.57885098 1.61470115 18.28989715 1 20 C-0.98 19.67 -2.96 19.34 -5 19 C-6.51839575 15.07344794 -5.43537717 12.28178154 -4.1875 8.375 C-3.83042969 7.22773437 -3.47335938 6.08046875 -3.10546875 4.8984375 C-2 2 -2 2 0 0 Z " fill="#EF796E" transform="translate(86,0)"/>
<path d="M0 0 C0.33 2.31 0.66 4.62 1 7 C-1.22623801 7.53321262 -3.45615004 8.05110119 -5.6875 8.5625 C-6.92886719 8.85253906 -8.17023437 9.14257812 -9.44921875 9.44140625 C-12.76111454 9.96241956 -14.81860153 9.91852996 -18 9 C-18.625 6.625 -18.625 6.625 -19 4 C-14.65203404 -0.34796596 -5.88436514 -0.31807379 0 0 Z " fill="#EF776B" transform="translate(19,72)"/>
<path d="M0 0 C0.598125 0.226875 1.19625 0.45375 1.8125 0.6875 C3.4037689 5.560761 4.02442221 9.49540596 3.8125 14.6875 C1.5025 14.6875 -0.8075 14.6875 -3.1875 14.6875 C-3.60409944 12.75435873 -3.99514837 10.81569653 -4.375 8.875 C-4.59542969 7.79605469 -4.81585938 6.71710937 -5.04296875 5.60546875 C-5.1875 2.6875 -5.1875 2.6875 -3.875 0.78125 C-2.1875 -0.3125 -2.1875 -0.3125 0 0 Z " fill="#EF796E" transform="translate(58.1875,3.3125)"/>
<path d="M0 0 C3 2.25 3 2.25 5 5 C5 6.32 5 7.64 5 9 C2.91631462 8.68985608 0.83306332 8.3767948 -1.25 8.0625 C-2.41015625 7.88847656 -3.5703125 7.71445313 -4.765625 7.53515625 C-7.23106961 7.1272264 -9.59424562 6.66098697 -12 6 C-11.6875 4.125 -11.6875 4.125 -11 2 C-7.32223845 -0.45184103 -4.27137916 -0.82269754 0 0 Z " fill="#464074" transform="translate(211,59)"/>
<path d="M0 0 C4.98287932 0.39081406 8.65022018 1.55987961 13 4 C12.34 5.98 11.68 7.96 11 10 C6.43545749 9.45660208 3.0271824 8.20536179 -1 6 C-1.042721 4.33388095 -1.04063832 2.66617115 -1 1 C-0.67 0.67 -0.34 0.34 0 0 Z " fill="#EF766A" transform="translate(11,40)"/>
<path d="M0 0 C4.62 0 9.24 0 14 0 C14 2.64 14 5.28 14 8 C12.22868439 7.69024532 10.45796222 7.37709575 8.6875 7.0625 C7.70136719 6.88847656 6.71523438 6.71445313 5.69921875 6.53515625 C3 6 3 6 0 5 C0 3.35 0 1.7 0 0 Z " fill="#3E396F" transform="translate(279,78)"/>
<path d="M0 0 C0 1.65 0 3.3 0 5 C4.29 5 8.58 5 13 5 C13 5.33 13 5.66 13 6 C2.77 6 -7.46 6 -18 6 C-18 5.67 -18 5.34 -18 5 C-17.27554687 4.97421875 -16.55109375 4.9484375 -15.8046875 4.921875 C-10.39399682 4.60444781 -4.11005073 0 0 0 Z " fill="#FCE8E7" transform="translate(308,119)"/>
</svg>