<?xml version="1.0" encoding="UTF-8"?>
<!--
Soliguide: Useful information for those who need it

SPDX-FileCopyrightText: © 2024 Solinum

SPDX-License-Identifier: AGPL-3.0-only

This program is free software: you can redistribute it and/or modify
it under the terms of the GNU Affero General Public License as published
by the Free Software Foundation, either version 3 of the License, or
(at your option) any later version.

This program is distributed in the hope that it will be useful,
but WITHOUT ANY WARRANTY; without even the implied warranty of
MERCHANTABILITY or FITNESS FOR A PARTICULAR PURPOSE.  See the
GNU Affero General Public License for more details.

You should have received a copy of the GNU Affero General Public License
along with this program.  If not, see <https://www.gnu.org/licenses/>.
-->
<svg viewBox="0 0 375 150" xmlns="http://www.w3.org/2000/svg"><path d="M138.354 111.223l3.604-4.814a.826.826 0 00.143-.305l1.37-5.856a.689.689 0 011.262-.287l5.177 9.28a.792.792 0 01-.528 1.133l-10.438 2a.689.689 0 01-.59-1.15zM11.646 38.777L8.042 43.59a.826.826 0 00-.143.305l-1.37 5.856a.689.689 0 01-1.262.287L.09 40.76a.792.792 0 01.528-1.133l10.438-2a.689.689 0 01.59 1.15zm27.131 99.577l4.814 3.604a.826.826 0 00.305.143l5.856 1.37a.689.689 0 01.287 1.262l-9.28 5.177a.792.792 0 01-1.133-.528l-2-10.438a.689.689 0 011.15-.59zm72.446-126.708l-4.814-3.604a.826.826 0 00-.305-.143l-5.856-1.37a.689.689 0 01-.287-1.262L109.24.09a.792.792 0 011.133.528l2 10.438a.689.689 0 01-1.15.59z" fill="#e65a46"/><path d="M80.675 14.33a2.49 2.49 0 00-4.974-.26l-.471 8.996q2.484.008 4.973.257zM69.323 135.761a2.49 2.49 0 004.974.261l.476-9.088q-2.485-.008-4.974-.257zm20.583-11.025l5.885 16.171a2.987 2.987 0 105.615-2.043l-5.885-16.17a52.146 52.146 0 01-5.615 2.042zM60.063 25.274l-5.856-16.09a2.987 2.987 0 10-5.615 2.044l5.856 16.09a52.14 52.14 0 015.615-2.044zm-24.797 3.513a2.49 2.49 0 10-3.642 3.397l6.158 6.603q1.747-1.799 3.637-3.402zm83.108 89.121l-6.2-6.65q-1.75 1.797-3.643 3.398l6.2 6.65a2.49 2.49 0 103.643-3.398zM14.284 69.37a2.49 2.49 0 10-.261 4.974l9.043.474q.007-2.485.253-4.974zm121.43 11.352a2.49 2.49 0 00.261-4.974l-9.04-.474q-.01 2.485-.262 4.974zm-10.97-20.602l16.116-5.866a2.987 2.987 0 00-2.043-5.615l-16.112 5.864a52.184 52.184 0 012.039 5.617zM25.282 89.962L9.138 95.838a2.987 2.987 0 102.043 5.615l16.148-5.877a52.182 52.182 0 01-2.047-5.614zm95.976-54.649a2.49 2.49 0 00-3.397-3.642l-6.602 6.157q1.797 1.749 3.398 3.641zM28.74 114.779a2.49 2.49 0 103.397 3.642l6.65-6.202q-1.798-1.747-3.402-3.637zM97.834 26.37S56.412 48.98 49.8 63.063a27.888 27.888 0 1050.484 23.705c6.612-14.083-2.45-60.398-2.45-60.398zM70.072 85.98a11.154 11.154 0 1114.838-5.356 11.154 11.154 0 01-14.838 5.356zm105.904-20.625c-.32-1.601 3.602-11.847 4.482-11.447 1.842 1.12 7.845 5.443 14.65 5.443 4.722 0 7.764-1.44 7.764-4.883 0-2.562-1.922-4.483-10.167-6.163-10.485-2.161-16.329-7.045-16.329-17.53 0-9.127 7.445-17.051 20.973-17.051 8.484 0 15.61 2.24 18.73 4.722 1.041.801-3.761 11.207-4.562 11.127a33.052 33.052 0 00-13.848-3.522c-4.804 0-7.045 1.922-7.045 4.563 0 2.482 1.362 3.762 9.126 5.523 10.326 2.402 18.331 6.564 18.331 17.531 0 8.484-6.804 17.37-22.414 17.37-8.965 0-16.81-3.522-19.691-5.683zm86.694-13.609c0 10.326-7.445 19.612-20.253 19.853-11.366 0-20.332-7.845-20.332-20.893a19.753 19.753 0 0120.172-19.851c11.367 0 20.412 7.684 20.412 20.891zm-19.772-8.724c-5.684-.16-8.486 3.44-8.486 8.644 0 5.604 3.603 8.646 7.366 8.726 5.602.16 8.564-3.203 8.564-8.806 0-6.403-3.682-8.404-7.444-8.564zm38.904-32.581c.56.961-.56 54.673-.96 60.837 0 0-10.807.08-11.447-.32-.64-.48-.64-59.155.56-60.196 1.121-1.04 11.607-.88 11.847-.32zm18.729.561c4.323 0 7.365 2.962 7.365 7.925 0 3.522-3.042 6.244-7.365 6.244-4.163 0-7.043-2.321-7.043-6.725 0-4.322 1.28-7.444 7.043-7.444zm6.404 20.172c.24.32-.4 38.743-.64 39.304-.32.56-11.767.32-11.928.08s-.88-38.503-.4-39.384c.48-.8 12.648-.32 12.968 0zm-90.309 51.671c.16.881.64 26.336.72 31.22.24 21.132-10.406 25.935-20.412 25.935-9.526 0-16.17-4.002-17.13-5.764a35.284 35.284 0 014.002-8.564c.4-.4 4.643 3.521 11.447 3.521 6.884 0 9.366-5.043 9.206-12.007-.641 1.12-3.843 4.723-10.967 4.723A18.44 18.44 0 01175 103.017c0-12.487 9.046-20.332 18.731-20.332a15.924 15.924 0 0111.526 4.564c0-.48.16-3.843.16-4.323 1.282-.96 10.967-.32 11.208-.08zm-20.012 28.578c4.322 0 8.005-3.042 8.005-8.326 0-4.802-2.562-8.404-8.005-8.404-4.323 0-7.765 2.882-7.765 8.324 0 5.043 2.722 8.406 7.765 8.406zm53.943 10.566c.08-1.68 0-4.002.08-4.563a14.466 14.466 0 01-11.847 5.924c-9.685 0-14.328-5.923-14.328-17.13 0-5.764.8-19.452 1.04-23.214.16-.8 12.167-.64 12.407-.4.16.88-.64 19.131-.64 22.253 0 4.483 1.922 7.204 6.084 7.204 4.403 0 6.724-3.362 6.804-6.884 0-2.32.32-22.013.64-22.334.24-.32 11.848-.16 12.168.32.08.321-.16 21.774-.48 38.824-.721 1.041-11.127.72-11.928 0zm27.327-42.476c4.322 0 7.364 2.962 7.364 7.925 0 3.523-3.042 6.244-7.364 6.244-4.163 0-7.044-2.32-7.044-6.724 0-4.322 1.28-7.445 7.044-7.445zm6.403 20.172c.24.32-.4 21.743-.64 22.304-.32.56-11.767.32-11.927.08s-.88-21.503-.4-22.384c.48-.8 12.647-.319 12.967 0zm6.625 2.372c0-12.487 9.206-19.372 18.571-19.452 5.283 0 9.686 3.202 10.326 4.243 0-2.641-.16-24.094.56-24.575.72-.56 11.687-1.04 13.288-.24.16.08-.8 59.315-1.04 60.196-.24.24-8.966 1.041-11.848-.08 0-.56-.159-3.843-.239-4.402-.64.96-5.283 4.642-12.008 4.642-9.045 0-17.61-7.044-17.61-20.332zm21.613 8.805c5.363 0 7.925-3.601 7.925-8.404 0-5.283-3.603-8.325-7.925-8.325-5.043 0-7.845 3.442-7.845 8.405 0 5.443 3.442 8.324 7.845 8.324zm47.026 1.842a17.089 17.089 0 009.365-2.802c.801.8 4.083 7.444 4.163 8.645-2.16 2.002-7.684 4.563-14.169 4.563-14.488 0-20.332-9.686-20.332-19.932 0-10.806 6.725-20.892 19.292-20.892 10.646 0 17.13 8.004 17.13 16.97a22.052 22.052 0 01-.72 6.164c-4.002.56-18.492.56-23.294.4 0 4.242 3.042 6.884 8.565 6.884zm3.922-14.49c.16-3.921-1.841-6.963-5.683-6.963-4.163 0-6.885 3.122-6.885 7.204z" fill="#3c3c6e"/></svg>