<?xml version="1.0" encoding="UTF-8"?>
<!--
Soliguide: Useful information for those who need it

SPDX-FileCopyrightText: © 2024 Solinum

SPDX-License-Identifier: AGPL-3.0-only

This program is free software: you can redistribute it and/or modify
it under the terms of the GNU Affero General Public License as published
by the Free Software Foundation, either version 3 of the License, or
(at your option) any later version.

This program is distributed in the hope that it will be useful,
but WITHOUT ANY WARRANTY; without even the implied warranty of
MERCHANTABILITY or FITNESS FOR A PARTICULAR PURPOSE.  See the
GNU Affero General Public License for more details.

You should have received a copy of the GNU Affero General Public License
along with this program.  If not, see <https://www.gnu.org/licenses/>.
-->
<svg id="Soliduide_logos" xmlns="http://www.w3.org/2000/svg" width="464" height="150" viewBox="0 0 464 150"><defs><style>.cls-1{fill:#3e3a71;}.cls-1,.cls-2{stroke-width:0px;}.cls-2{fill:#eb5243;}</style></defs><g id="Soliguide-inline"><g id="Picto"><path id="Fleche-east" class="cls-2" d="m138.61,111.22l3.6-4.81c.07-.09.12-.2.14-.31l1.37-5.86c.15-.65.96-.83,1.26-.29l5.18,9.28c.24.44-.03,1.04-.53,1.13l-10.44,2c-.61.12-.99-.62-.59-1.15Z"/><path id="Fleche-west" class="cls-2" d="m11.9,38.78l-3.6,4.81c-.07.09-.12.2-.14.31l-1.37,5.86c-.15.65-.96.83-1.26.29L.34,40.76c-.24-.44.03-1.04.53-1.13l10.44-2c.61-.12.99.62.59,1.15Z"/><path id="Fleche-south" class="cls-2" d="m39.03,138.35l4.81,3.6c.09.07.2.12.31.14l5.86,1.37c.65.15.83.96.29,1.26l-9.28,5.18c-.44.24-1.04-.03-1.13-.53l-2-10.44c-.12-.61.62-.99,1.15-.59Z"/><path id="Fleche-north" class="cls-2" d="m111.48,11.65l-4.81-3.6c-.09-.07-.2-.12-.31-.14l-5.86-1.37c-.65-.15-.83-.96-.29-1.26L109.5.09c.44-.24,1.04.03,1.13.53l2,10.44c.12.61-.62.99-1.15.59Z"/><g id="Rayons"><path class="cls-1" d="m80.93,14.33c.07-1.37-.98-2.55-2.36-2.62-1.37-.07-2.54.98-2.62,2.36l-.47,9c1.66,0,3.32.09,4.97.26l.47-8.99Z"/><path class="cls-1" d="m69.58,135.76c-.05,1.04.54,1.97,1.44,2.39.28.13.59.21.92.23,1.37.07,2.54-.98,2.62-2.36l.48-9.09c-1.66,0-3.32-.09-4.97-.26l-.48,9.08Z"/><path class="cls-1" d="m90.16,124.74l5.89,16.17c.28.78.85,1.36,1.54,1.69s1.51.38,2.28.1c1.55-.56,2.35-2.28,1.79-3.83l-5.89-16.17c-1.83.79-3.71,1.47-5.62,2.04Z"/><path class="cls-1" d="m60.32,25.27l-5.86-16.09c-.56-1.55-2.28-2.35-3.83-1.79-1.55.56-2.35,2.28-1.79,3.83l5.86,16.09c1.83-.79,3.71-1.47,5.61-2.04Z"/><path class="cls-1" d="m35.52,28.79c-.94-1.01-2.51-1.06-3.52-.12-1.01.94-1.06,2.51-.12,3.52l6.16,6.6c1.16-1.2,2.38-2.33,3.64-3.4l-6.15-6.6Z"/><path class="cls-1" d="m118.63,117.91l-6.2-6.65c-1.17,1.2-2.38,2.33-3.64,3.4l6.2,6.65c.22.24.49.43.77.56.89.42,1.99.28,2.75-.44,1.01-.94,1.06-2.51.12-3.52Z"/><path class="cls-1" d="m14.54,69.37c-1.37-.07-2.54.98-2.62,2.36-.05,1.04.54,1.97,1.44,2.39.28.13.59.21.92.23l9.04.47c0-1.66.09-3.32.25-4.97l-9.04-.47Z"/><path class="cls-1" d="m135.97,80.72c1.37.07,2.54-.98,2.62-2.36.07-1.37-.98-2.54-2.36-2.62l-9.04-.47c0,1.66-.09,3.32-.26,4.97l9.04.47Z"/><path class="cls-1" d="m125,60.12l16.12-5.87c1.55-.56,2.35-2.28,1.79-3.83-.56-1.55-2.28-2.35-3.83-1.79l-16.11,5.86c.79,1.83,1.47,3.71,2.04,5.62Z"/><path class="cls-1" d="m25.54,89.96l-16.14,5.88c-1.55.56-2.35,2.28-1.79,3.83.28.78.85,1.36,1.54,1.69.69.32,1.51.38,2.28.1l16.15-5.88c-.79-1.83-1.47-3.71-2.05-5.61Z"/><path class="cls-1" d="m121.51,35.31c1.01-.94,1.06-2.51.12-3.52-.94-1.01-2.51-1.06-3.52-.12l-6.6,6.16c1.2,1.17,2.33,2.38,3.4,3.64l6.6-6.16Z"/><path class="cls-1" d="m28.99,114.78c-1.01.94-1.06,2.51-.12,3.52.22.24.49.43.77.56.89.42,1.99.28,2.75-.44l6.65-6.2c-1.2-1.16-2.33-2.38-3.4-3.64l-6.65,6.2Z"/></g><path id="Pointeur" class="cls-1" d="m98.09,26.37s-41.42,22.61-48.03,36.69c-6.61,14.08-.67,30.81,13.27,37.35,13.94,6.55,30.6.44,37.21-13.65,6.61-14.08-2.45-60.4-2.45-60.4Zm-27.76,59.61c-5.58-2.62-7.97-9.26-5.36-14.84,2.62-5.58,9.26-7.97,14.84-5.36,5.58,2.62,7.97,9.26,5.36,14.84-2.62,5.58-9.26,7.97-14.84,5.36Z"/></g><path class="cls-1" d="m175.27,91.3c-.33-1.64,3.69-12.14,4.59-11.73,1.89,1.15,8.04,5.58,15.01,5.58,4.84,0,7.95-1.48,7.95-5,0-2.62-1.97-4.59-10.41-6.31-10.74-2.21-16.73-7.22-16.73-17.96,0-9.35,7.63-17.47,21.48-17.47,8.69,0,15.99,2.29,19.19,4.84,1.07.82-3.85,11.48-4.67,11.4-1.23-.57-7.22-3.61-14.19-3.61-4.92,0-7.22,1.97-7.22,4.68,0,2.54,1.39,3.85,9.35,5.66,10.58,2.46,18.78,6.72,18.78,17.96,0,8.69-6.97,17.79-22.96,17.79-9.18,0-17.22-3.61-20.17-5.82Z"/><path class="cls-1" d="m263.83,77.36c0,10.58-7.63,20.09-20.75,20.34-11.64,0-20.83-8.04-20.83-21.4,0-10.25,7.87-20.34,20.66-20.34,11.64,0,20.91,7.87,20.91,21.4Zm-20.25-8.94c-5.82-.16-8.69,3.53-8.69,8.86,0,5.74,3.69,8.86,7.54,8.94,5.74.16,8.77-3.28,8.77-9.02,0-6.56-3.77-8.61-7.63-8.77Z"/><path class="cls-1" d="m283.18,35.05c.57.98-.57,56.01-.98,62.32,0,0-11.07.08-11.73-.33-.66-.49-.66-60.6.57-61.67,1.15-1.06,11.89-.9,12.14-.33Z"/><path class="cls-1" d="m298.03,35.62c4.43,0,7.54,3.04,7.54,8.12,0,3.61-3.12,6.4-7.54,6.4s-7.22-2.38-7.22-6.89,1.31-7.63,7.22-7.63Zm6.56,20.66c.25.33-.41,39.69-.66,40.26-.33.57-12.05.33-12.22.08s-.9-39.44-.41-40.35c.49-.82,12.96-.33,13.28,0Z"/><path class="cls-1" d="m415.09,35.62c4.43,0,7.54,3.04,7.54,8.12,0,3.61-3.12,6.4-7.54,6.4s-7.22-2.38-7.22-6.89,1.31-7.63,7.22-7.63Zm6.56,20.66c.25.33-.41,39.69-.66,40.26-.33.57-12.05.33-12.22.08s-.9-39.44-.41-40.35c.49-.82,12.96-.33,13.28,0Z"/><path class="cls-1" d="m353.46,56.45c.16.9.66,26.98.74,31.98.25,21.65-10.66,26.57-20.91,26.57s-16.56-4.1-17.55-5.9c.74-2.62,2.79-6.97,4.1-8.77.41-.41,4.76,3.61,11.73,3.61s9.59-5.17,9.43-12.3c-.66,1.15-3.94,4.84-11.23,4.84-8.77,0-18.94-6.64-18.94-19.35s9.27-20.83,19.19-20.83c5.17,0,9.27,2.05,11.81,4.68,0-.49.16-3.94.16-4.43,1.31-.98,11.23-.33,11.48-.08Zm-20.5,29.28c4.43,0,8.2-3.12,8.2-8.53,0-4.92-2.62-8.61-8.2-8.61-4.43,0-7.95,2.95-7.95,8.53,0,5.17,2.79,8.61,7.95,8.61Z"/><path class="cls-1" d="m388.31,96.55c.08-1.72,0-4.1.08-4.67-1.8,2.62-5.99,6.07-12.14,6.07-9.92,0-14.68-6.07-14.68-17.55,0-5.9.82-19.93,1.07-23.78.16-.82,12.46-.65,12.71-.41.16.9-.66,19.6-.66,22.8,0,4.59,1.97,7.38,6.23,7.38,4.51,0,6.89-3.45,6.97-7.05,0-2.38.33-22.55.66-22.88.25-.33,12.14-.16,12.46.33.08.33-.16,22.3-.49,39.77-.74,1.07-11.4.74-12.22,0Z"/><path class="cls-1" d="m445.71,55.47c10.17,0,18.04,5.98,18.04,17.96,0,8.78-.41,22.39-.66,22.88s-10.58,0-10.58,0l-.74-3.53c-.57.57-4.02,4.51-10.5,4.51-8.94,0-12.71-5.25-12.71-12.38s6.48-12.05,14.68-12.05c3.77,0,6.07,1.07,7.63,2.21.08-3.53.25-8.37-7.13-8.37-5.08,0-7.46,3.61-8.2,3.69-.74,0-6.4-4.92-6.31-5.82.08-1.39,5.49-9.1,16.48-9.1Zm-.82,33.78c3.61,0,5.41-2.13,5.41-4.59,0-2.87-2.38-4.67-5.41-4.67-3.2,0-5.33,2.05-5.33,4.67s2.3,4.59,5.33,4.59Z"/></g></svg>