<?xml version="1.0" encoding="UTF-8"?>
<!--
Soliguide: Useful information for those who need it

SPDX-FileCopyrightText: © 2024 Solinum

SPDX-License-Identifier: AGPL-3.0-only

This program is free software: you can redistribute it and/or modify
it under the terms of the GNU Affero General Public License as published
by the Free Software Foundation, either version 3 of the License, or
(at your option) any later version.

This program is distributed in the hope that it will be useful,
but WITHOUT ANY WARRANTY; without even the implied warranty of
MERCHANTABILITY or FITNESS FOR A PARTICULAR PURPOSE.  See the
GNU Affero General Public License for more details.

You should have received a copy of the GNU Affero General Public License
along with this program.  If not, see <https://www.gnu.org/licenses/>.
-->
<svg id="prefix__Soliduide_logos" xmlns="http://www.w3.org/2000/svg" width="325" height="150"><defs><style>.prefix__cls-1,.prefix__cls-2{fill:#3e3a71;stroke-width:0}.prefix__cls-2{fill:#eb5243}</style></defs><g id="prefix__Soliguide-bloc"><g id="prefix__Picto"><path id="prefix__Fleche-east" class="prefix__cls-2" d="M138.54 111.22l3.6-4.81c.07-.09.12-.2.14-.31l1.37-5.86c.15-.65.96-.83 1.26-.29l5.18 9.28c.24.44-.03 1.04-.53 1.13l-10.44 2c-.61.12-.99-.62-.59-1.15z"/><path id="prefix__Fleche-west" class="prefix__cls-2" d="M11.84 38.78l-3.6 4.81c-.07.09-.12.2-.14.31l-1.37 5.86c-.15.65-.96.83-1.26.29L.28 40.76c-.24-.44.03-1.04.53-1.13l10.44-2c.61-.12.99.62.59 1.15z"/><path id="prefix__Fleche-south" class="prefix__cls-2" d="M38.97 138.35l4.81 3.6c.09.07.2.12.31.14l5.86 1.37c.65.15.83.96.29 1.26l-9.28 5.18c-.44.24-1.04-.03-1.13-.53l-2-10.44c-.12-.61.62-.99 1.15-.59z"/><path id="prefix__Fleche-north" class="prefix__cls-2" d="M111.41 11.65l-4.81-3.6a.727.727 0 00-.31-.14l-5.86-1.37c-.65-.15-.83-.96-.29-1.26l9.29-5.19c.44-.24 1.04.03 1.13.53l2 10.44c.12.61-.62.99-1.15.59z"/><g id="prefix__Rayons"><path class="prefix__cls-1" d="M80.86 14.33c.07-1.37-.98-2.55-2.36-2.62a2.5 2.5 0 00-2.62 2.36l-.47 9c1.66 0 3.32.09 4.97.26l.47-8.99zM69.51 135.76a2.502 2.502 0 002.36 2.62 2.5 2.5 0 002.62-2.36l.48-9.09c-1.66 0-3.32-.09-4.97-.26l-.48 9.08zM90.09 124.74l5.89 16.17c.28.78.85 1.36 1.54 1.69s1.51.38 2.28.1a2.993 2.993 0 001.79-3.83L95.7 122.7c-1.83.79-3.71 1.47-5.62 2.04zM60.25 25.27L54.39 9.18a2.993 2.993 0 00-3.83-1.79 2.993 2.993 0 00-1.79 3.83l5.86 16.09c1.83-.79 3.71-1.47 5.61-2.04zM35.46 28.79a2.485 2.485 0 00-3.52-.12 2.485 2.485 0 00-.12 3.52l6.16 6.6c1.16-1.2 2.38-2.33 3.64-3.4l-6.15-6.6zM118.56 117.91l-6.2-6.65c-1.17 1.2-2.38 2.33-3.64 3.4l6.2 6.65c.22.24.49.43.77.56.89.42 1.99.28 2.75-.44 1.01-.94 1.06-2.51.12-3.52zM14.47 69.37a2.5 2.5 0 00-2.62 2.36 2.502 2.502 0 002.36 2.62l9.04.47c0-1.66.09-3.32.25-4.97l-9.04-.47zM135.9 80.72a2.5 2.5 0 002.62-2.36 2.5 2.5 0 00-2.36-2.62l-9.04-.47c0 1.66-.09 3.32-.26 4.97l9.04.47zM124.93 60.12l16.12-5.87a2.993 2.993 0 001.79-3.83 2.993 2.993 0 00-3.83-1.79l-16.11 5.86c.79 1.83 1.47 3.71 2.04 5.62zM25.47 89.96L9.33 95.84a2.993 2.993 0 00-.25 5.52c.69.33 1.51.38 2.28.1l16.15-5.88c-.79-1.83-1.47-3.71-2.05-5.61zM121.45 35.31c1.01-.94 1.06-2.51.12-3.52a2.485 2.485 0 00-3.52-.12l-6.6 6.16c1.2 1.17 2.33 2.38 3.4 3.64l6.6-6.16zM28.93 114.78a2.485 2.485 0 00-.12 3.52c.22.24.49.43.77.56.89.42 1.99.28 2.75-.44l6.65-6.2c-1.2-1.16-2.33-2.38-3.4-3.64l-6.65 6.2z"/></g><path id="prefix__Pointeur" class="prefix__cls-1" d="M98.02 26.37S56.6 48.98 49.99 63.06c-6.61 14.08-.67 30.81 13.27 37.35 13.94 6.55 30.6.44 37.21-13.65 6.61-14.08-2.45-60.4-2.45-60.4zM70.26 85.98c-5.58-2.62-7.97-9.26-5.36-14.84 2.62-5.58 9.26-7.97 14.84-5.36 5.58 2.62 7.97 9.26 5.36 14.84-2.62 5.58-9.26 7.97-14.84 5.36z"/></g><g id="prefix__Texte"><path class="prefix__cls-1" d="M176.17 65.35c-.32-1.6 3.6-11.85 4.48-11.45 1.84 1.12 7.84 5.44 14.65 5.44 4.72 0 7.76-1.44 7.76-4.88 0-2.56-1.92-4.48-10.17-6.16-10.49-2.16-16.33-7.04-16.33-17.53 0-9.13 7.44-17.05 20.97-17.05 8.48 0 15.61 2.24 18.73 4.72 1.04.8-3.76 11.21-4.56 11.13-1.2-.56-7.04-3.52-13.85-3.52-4.8 0-7.04 1.92-7.04 4.56 0 2.48 1.36 3.76 9.13 5.52 10.33 2.4 18.33 6.56 18.33 17.53 0 8.48-6.8 17.37-22.41 17.37-8.96 0-16.81-3.52-19.69-5.68zM262.86 51.75c0 10.33-7.44 19.61-20.25 19.85-11.37 0-20.33-7.84-20.33-20.89 0-10.01 7.68-19.85 20.17-19.85 11.37 0 20.41 7.68 20.41 20.89zm-19.77-8.72c-5.68-.16-8.49 3.44-8.49 8.64 0 5.6 3.6 8.65 7.37 8.73 5.6.16 8.56-3.2 8.56-8.81 0-6.4-3.68-8.4-7.44-8.56zM281.99 10.44c.56.96-.56 54.67-.96 60.84 0 0-10.81.08-11.45-.32-.64-.48-.64-59.16.56-60.2 1.12-1.04 11.61-.88 11.85-.32zM300.72 11c4.32 0 7.36 2.96 7.36 7.92 0 3.52-3.04 6.24-7.36 6.24s-7.04-2.32-7.04-6.72 1.28-7.44 7.04-7.44zm6.4 20.17c.24.32-.4 38.74-.64 39.3-.32.56-11.77.32-11.93.08s-.88-38.5-.4-39.38c.48-.8 12.65-.32 12.97 0zM216.91 82.72c.16.88.64 26.39.72 31.29.24 21.18-10.43 25.99-20.46 25.99s-16.21-4.01-17.17-5.78c.72-2.57 2.73-6.82 4.01-8.58.4-.4 4.65 3.53 11.47 3.53s9.39-5.05 9.23-12.03c-.64 1.12-3.85 4.73-10.99 4.73-8.58 0-18.53-6.5-18.53-18.93s9.07-20.38 18.77-20.38c5.05 0 9.07 2.01 11.55 4.57 0-.48.16-3.85.16-4.33 1.28-.96 10.99-.32 11.23-.08zm-20.06 28.64c4.33 0 8.02-3.05 8.02-8.34 0-4.81-2.57-8.42-8.02-8.42-4.33 0-7.78 2.89-7.78 8.34 0 5.06 2.73 8.42 7.78 8.42zM251 121.95c.08-1.69 0-4.01.08-4.57-1.76 2.57-5.86 5.94-11.87 5.94-9.71 0-14.36-5.94-14.36-17.17 0-5.78.8-19.49 1.04-23.27.16-.8 12.19-.64 12.43-.4.16.88-.64 19.18-.64 22.3 0 4.49 1.93 7.22 6.1 7.22 4.41 0 6.74-3.37 6.82-6.9 0-2.33.32-22.06.64-22.38.24-.32 11.87-.16 12.2.32.08.32-.16 21.82-.48 38.91-.72 1.04-11.15.72-11.95 0zM307.16 81.76c9.95 0 17.65 5.85 17.65 17.57 0 8.59-.4 21.9-.64 22.38s-10.35 0-10.35 0l-.72-3.45c-.56.56-3.93 4.41-10.27 4.41-8.74 0-12.43-5.13-12.43-12.11s6.34-11.79 14.36-11.79c3.69 0 5.94 1.04 7.46 2.17.08-3.45.24-8.18-6.98-8.18-4.97 0-7.3 3.53-8.02 3.61-.72 0-6.26-4.81-6.18-5.7.08-1.36 5.38-8.9 16.13-8.9zm-.8 33.05c3.53 0 5.3-2.08 5.3-4.49 0-2.81-2.33-4.57-5.3-4.57-3.13 0-5.21 2.01-5.21 4.57s2.25 4.49 5.21 4.49zM277.78 79.51c4.32 0 7.36 2.96 7.36 7.92 0 3.52-3.04 6.24-7.36 6.24s-7.04-2.32-7.04-6.72 1.28-7.44 7.04-7.44zm6.4 20.17c.24.32-.4 21.74-.64 22.3-.32.56-11.77.32-11.93.08s-.88-21.5-.4-22.38c.48-.8 12.65-.32 12.97 0z"/></g></g></svg>
