<?xml version="1.0" encoding="UTF-8"?>
<!--
Soliguide: Useful information for those who need it

SPDX-FileCopyrightText: © 2024 Solinum

SPDX-License-Identifier: AGPL-3.0-only

This program is free software: you can redistribute it and/or modify
it under the terms of the GNU Affero General Public License as published
by the Free Software Foundation, either version 3 of the License, or
(at your option) any later version.

This program is distributed in the hope that it will be useful,
but WITHOUT ANY WARRANTY; without even the implied warranty of
MERCHANTABILITY or FITNESS FOR A PARTICULAR PURPOSE.  See the
GNU Affero General Public License for more details.

You should have received a copy of the GNU Affero General Public License
along with this program.  If not, see <https://www.gnu.org/licenses/>.
-->
<svg fill="none" height="118" width="121" xmlns="http://www.w3.org/2000/svg"><path d="M117.528 95.978c-.39 1.718-.787 3.465-.986 4.36-2.913 2.235-5.87 3.968-8.114 6.363-2.206 2.351-4.494 3.246-7.466 2.394-1.39-.4-2.714-1.099-3.965-1.827-3.148-1.827-6.333-2.941-10.07-.429v-2.956c-9.144-1.536-14.823 4.499-13.116 13.955-5.525.444-10.615.204-15.338-3.691-1.53-1.266-4.796-2.511-8.084-.546-1.957 1.172-5.443-.043-8.224-.356-4.958-.554-8.923-3.218-12.586-6.29-.486-.4-.478-1.958-.11-2.693 4.53-9.02 3.163-18.475 2.302-27.902-.17-1.82-.206-3.654-.302-5.481.368-.16.743-.328 1.111-.488.177.59.353 1.187.53 1.776.441-.276.882-.56 1.324-.844-.721-1.361-1.2-2.948-2.23-4.011-.948-.983-2.574-1.288-3.743-2.111-2.384-1.674-3.848-3.77-3.84-6.945 0-1.404-1.148-2.984-2.14-4.185-4.407-5.329-10.829-6.319-17.133-7.687-1.626-.35-2.994-1.878-4.84-3.108 1.191-.277 2.052-.48 3.052-.714-.301-.946-.603-1.914-.993-3.152C1.994 39.003 1 38.29 0 37.583c1.17-.91 2.207-2.19 3.53-2.642 2.965-.997 6.04-1.878 9.137-2.206 1.435-.145 3.509.714 4.436 1.82 1.339 1.594 2.082 2.067 4.149 1.07 1.537-.75 3.64-.371 5.495-.451 1.213-.044 2.435-.008 3.825-.008-1.287-5.263-2.435-9.943-3.62-14.77h5.79c.316 1.624.61 3.109.787 4.026 2.567.495 4.737.961 6.915 1.34 3.759.647 4.575-.153 5.487-3.72.324-1.245 1.957-2.308 3.208-3.13 1.184-.78 2.611-1.413 4.009-1.616 5.517-.808 5.76-4.994 6.216-9.107.654-5.867.662-5.852 6.598-7.366C66.778.61 67.55.24 68.19 0c3.28 6.399 9.504 8.793 15.66 11.894.17 1.049.413 2.585.78 4.878 2.178-.852 3.907-1.522 5.51-2.148.736 5.78 5.275 9.23 11.836 8.422 2.163-.269 3.656-.138 4.708 2.126 1.236 2.65 4.016 2.708 6.562 3.123 2.891.466 5.745 1.2 7.753 1.63-1.905 5.918-3.604 11.138-5.252 16.372-.177.56-.199 1.208-.118 1.798.5 3.865.221 4.032-3.604 3.1-.633-.152-1.832.801-2.318 1.536-.595.881-.456 2.25-1.074 3.101-1.765 2.454-4.045 4.586-5.531 7.178-.817 1.434-.442 3.545-.537 4.557 2.317-.35 4.531-1.376 5.995-.728 1.92.844 1.721 6.275.103 7.912 1.265 1.682 2.545 3.385 4.406 5.853-2.479.94-4.605 1.74-7.26 2.744 1.861 1.464 3.45 2.716 5.061 3.982-1.199 7.338-1.199 7.338 6.657 8.648z" fill="#e65a46"/></svg>