<?xml version="1.0" encoding="UTF-8"?>
<!--
Soliguide: Useful information for those who need it

SPDX-FileCopyrightText: © 2024 Solinum

SPDX-License-Identifier: AGPL-3.0-only

This program is free software: you can redistribute it and/or modify
it under the terms of the GNU Affero General Public License as published
by the Free Software Foundation, either version 3 of the License, or
(at your option) any later version.

This program is distributed in the hope that it will be useful,
but WITHOUT ANY WARRANTY; without even the implied warranty of
MERCHANTABILITY or FITNESS FOR A PARTICULAR PURPOSE.  See the
GNU Affero General Public License for more details.

You should have received a copy of the GNU Affero General Public License
along with this program.  If not, see <https://www.gnu.org/licenses/>.
-->
<svg viewBox="649.415 1014.303 393.59 184.615" xmlns="http://www.w3.org/2000/svg"><defs><style>.prefix__cls-4{fill:#2896a0}</style></defs><path d="M882.64 1054.16c0 19.62-35.53 63.47-35.53 63.47s-35.53-43.85-35.53-63.47c0-19.62 15.91-35.53 35.53-35.53s35.53 15.91 35.53 35.53zm-105.8 12.37c10.41 16.63 3.58 72.65 3.58 72.65s-53.38-18.31-63.8-34.94c-10.41-16.63-5.37-38.55 11.26-48.97 16.63-10.42 38.55-5.37 48.97 11.26h-.01zm140.46 0c-10.41 16.63-3.58 72.65-3.58 72.65s53.38-18.31 63.8-34.94c10.41-16.63 5.37-38.55-11.26-48.97-16.63-10.41-38.55-5.37-48.97 11.26h.01zm-210.93 63.97c17.5 8.88 40.53 60.4 40.53 60.4s-55.18 11.84-72.68 2.97c-17.5-8.88-24.49-30.26-15.61-47.76 8.88-17.5 30.26-24.49 47.76-15.61zm281.4 0c-17.5 8.88-40.53 60.4-40.53 60.4s55.18 11.84 72.68 2.97c17.5-8.88 24.49-30.26 15.61-47.76-8.88-17.5-30.26-24.49-47.76-15.61z" fill="#f5ebe1"/><path d="M843.01 1067.82v12.1c0 1.1-.5 1.62-1.59 1.63-.78.01-1.56.01-2.34 0-1.09-.02-1.59-.54-1.59-1.64v-24.25c0-.37-.09-.57-.44-.75-1.06-.54-2.05-1.19-2.9-2.03-.69-.68-1.07-1.52-1.05-2.49.05-2.91.13-5.81.2-8.72.05-2.05.09-4.09.14-6.14.01-.58.12-1.13.48-1.6.39-.52.88-.58 1.39-.19.5.39.7.91.73 1.53l.33 8.62c0 .23.03.45.06.68.08.59.65 1.12 1.14 1.08.49-.04.9-.54.93-1.15.07-1.67.13-3.34.2-5.01.06-1.43.11-2.86.18-4.28.03-.61.28-1.13.78-1.51.45-.33.87-.29 1.27.1.41.41.53.92.55 1.47.09 2.53.17 5.06.25 7.6l.06 1.56c.01.32.14.6.35.84.26.3.59.48.99.38.39-.1.62-.41.71-.8.06-.28.09-.58.1-.87.11-2.84.21-5.68.32-8.52 0-.19.03-.39.07-.58.14-.74.68-1.24 1.3-1.23.59.01 1.13.57 1.25 1.29.15.89.08 1.78.12 2.68.15 3.62.23 7.24.41 10.86.12 2.44-.82 4.28-2.85 5.6-.38.25-.76.51-1.16.71-.31.15-.4.35-.4.68.01 4.11 0 8.23 0 12.34zm17.86-10.24v22.39c0 1.03-.5 1.56-1.54 1.59-.8.02-1.59.01-2.39 0-1.09-.02-1.6-.54-1.6-1.63v-19.17c0-.44-.1-.6-.56-.57-.81.04-1.63.02-2.44 0-.8 0-1.22-.4-1.29-1.21-.21-2.56-.01-5.1.32-7.63.45-3.41 1.32-6.71 2.75-9.84 1.27-2.76 2.92-5.24 5.12-7.35.23-.22.43-.51.83-.34.4.17.68.44.74.89.03.22.03.45.03.68v22.2z" fill="#3e3a71"/><path class="prefix__cls-4" d="M962.41 1096.95v8.05c0 1.5-.93 2.42-2.44 2.43-5.15.02-10.29.03-15.44.05-4.05.02-8.1.05-12.15.07-1.38 0-2.33-.95-2.33-2.33 0-2.12-.02-4.23-.03-6.35 0-1.2-.02-2.4-.05-3.6 0-.31.06-.38.35-.25 1.07.45 2.19.64 3.35.6 3.99-.14 7.23-3.05 7.92-6.77.3-1.62.16-3.19-.47-4.72-.1-.24 0-.34.16-.47l3.99-3.18c.02-.02.04-.03.06-.05.31-.22.58-.68.92-.64.33.04.62.42.92.66 4.96 4.01 9.93 8.02 14.89 12.03.19.15.27.3.27.55-.01 1.3 0 2.61 0 3.91h.08z"/><path class="prefix__cls-4" d="M954.26 1079.34v-1.65c0-.9.46-1.35 1.36-1.35h2.98c.78 0 1.25.48 1.26 1.24v5.88c0 .29.09.47.31.65 1.95 1.57 3.89 3.14 5.84 4.71.55.44.64 1.15.18 1.7-.43.52-.87 1.02-1.3 1.54-.49.58-1.09.64-1.69.16-1.97-1.58-3.95-3.16-5.92-4.74-3.57-2.86-7.15-5.72-10.71-8.6-.25-.2-.39-.2-.64 0-1.68 1.35-3.37 2.68-5.05 4.02-.18.15-.26.16-.39-.06a7.993 7.993 0 00-2.65-2.65c-.22-.14-.18-.21 0-.34 1.83-1.43 3.62-2.92 5.49-4.29 1.73-1.27 3.63-1.21 5.54-.38.87.37 1.55 1.01 2.27 1.59 1.02.82 2.04 1.65 3.15 2.54z"/><path class="prefix__cls-4" d="M941.05 1087.17c.05 3.7-2.53 7.01-6.39 7.66-2.11.35-4.06-.13-5.79-1.4-.21-.16-.32-.14-.5.03-2.99 2.77-5.98 5.53-8.97 8.29-.43.4-.87.5-1.3.29a1.3 1.3 0 01-.73-1.25c.02-.34.23-.56.46-.77 2.09-1.92 4.18-3.84 6.27-5.75.91-.84 1.83-1.66 2.75-2.49.17-.15.2-.26.07-.48-2.78-4.58-.25-10.49 5-11.52 4.42-.87 8.3 2.03 9.06 6.21.08.42.14.84.09 1.18zm-1.93.1c.1-2.91-2.36-5.71-5.69-5.73-3.07-.01-5.74 2.38-5.75 5.73 0 3.46 2.82 5.69 5.65 5.74 3.11.06 5.89-2.59 5.79-5.74z"/><path class="prefix__cls-4" d="M934 1082.79c.74 0 .54-.16.55.69 0 .17-.06.23-.22.22-1.79-.05-3.12.78-4.12 2.2-.15.21-.27.12-.41.04-.59-.35-.66-.19-.18-.82.98-1.29 2.27-2.1 3.89-2.33.16-.02.33 0 .5 0z"/><path d="M1000.16 1145.69c1.13-.3 2.23-.61 3.37-.46.86.11 1.74.21 2.55.6.39.19.8.31 1.19.51.85.44 1.63 1.01 2.48 1.43.03.02.07.02.1.03 1.24.48 2.51.76 3.84.65.46-.04.93-.04 1.37-.18.99-.29 2-.54 2.88-1.12.46-.31.93-.27 1.14.06.33.51.2 1.04-.31 1.36-.74.47-1.54.76-2.36 1.05-1.25.44-2.54.52-3.84.49-.24 0-.23.07-.16.23.54 1.19 1.09 2.38 1.62 3.58.64 1.41 1.27 2.83 1.91 4.24.47 1.04.94 2.07 1.41 3.11.47 1.02.93 2.05 1.4 3.07.09.19.03.39.02.58a9.406 9.406 0 01-1.3 4.57c-.39.67-.88 1.28-1.47 1.81-.89.79-1.88 1.3-3.06 1.57-1.19.27-2.31.07-3.35-.39-1.81-.81-3.01-2.25-3.78-4.07-.49-1.15-.73-2.35-.78-3.6-.03-.56.3-1 .5-1.48.57-1.42 1.18-2.82 1.77-4.23l1.95-4.65c.63-1.49 1.25-2.99 1.88-4.5-.65-.12-1.24-.35-1.81-.59-.74-.32-1.45-.71-2.1-1.19-.31-.23-.68-.37-1.03-.53-1.58-.71-3.22-.93-4.92-.52-.33.08-.64.24-.96.35-.11.04-.15.09-.15.2v32c0 .52-.05.45.44.45 1.9 0 3.8.04 5.69-.01 1.17-.04 2.06.98 2.14 2 .05.54-.05.49.54.49.76 0 1.53.03 2.29 0 .62-.03 1.01.37 1.1.91.07.41.08.83-.05 1.24-.11.35-.52.74-.97.74-8.28-.01-16.56 0-24.85-.01-.49 0-.83-.25-.96-.73-.12-.46-.14-.94 0-1.4.15-.51.5-.75.95-.74.83.02 1.67 0 2.5.01.29 0 .42-.04.43-.38.03-.87.48-1.51 1.22-1.95.23-.13.5-.15.77-.15h5.9c.31 0 .38-.08.38-.38v-31.86c0-.29-.11-.38-.35-.49-1.42-.61-2.88-.62-4.33-.25-1.18.3-2.26.86-3.27 1.57-.39.27-.84.47-1.28.64-.51.19-1.01.43-1.56.52-.22.04-.19.12-.12.27.38.9.75 1.8 1.12 2.7l1.59 3.81c.57 1.36 1.15 2.71 1.72 4.06.5 1.2 1.01 2.39 1.5 3.59.15.38.05.78 0 1.16-.19 1.78-.75 3.43-1.88 4.85-.65.82-1.4 1.49-2.33 1.97-1.07.55-2.2.81-3.38.62-.95-.16-1.85-.48-2.66-1.09-2.38-1.79-3.34-4.24-3.47-7.11-.02-.54.32-.95.51-1.41.55-1.29 1.14-2.56 1.72-3.84l1.86-4.08c.65-1.44 1.3-2.89 1.95-4.33.11-.25.23-.5.35-.75.08-.17.09-.24-.14-.23-1.04.05-2.09 0-3.1-.27-1.16-.3-2.29-.7-3.29-1.38-.36-.25-.42-.8-.14-1.25.19-.31.59-.39.98-.16.83.49 1.72.82 2.65 1.08 1.4.4 2.8.42 4.2.11 1.2-.27 2.3-.83 3.31-1.56.33-.24.71-.41 1.09-.57.87-.37 1.74-.68 2.69-.79.28-.03.55-.1.84-.12 1-.07 1.96.16 2.92.43.25.07.28 0 .28-.22v-2.46c0-1.17.81-1.55 1.8-1.25.35.11.68.51.68 1.14v2.85l.02.03zm-14.04 5.3c-.04.08-.08.13-.1.19-.47 1.05-.94 2.09-1.42 3.14-.71 1.57-1.43 3.14-2.14 4.7-.72 1.6-1.44 3.2-2.17 4.8-.17.37-.18.37.23.37h10.72c.44 0 .43 0 .25-.41-.4-.94-.79-1.89-1.19-2.83-.44-1.04-.88-2.08-1.31-3.12-.52-1.23-1.03-2.46-1.54-3.69-.44-1.05-.89-2.1-1.34-3.17l.01.02zm25.58 0c-.32.73-.61 1.4-.89 2.08-.79 1.89-1.58 3.79-2.37 5.69-.72 1.72-1.45 3.45-2.18 5.17-.1.23-.05.3.2.3h10.92c.3 0 .26-.12.17-.3-.19-.4-.38-.81-.57-1.22-.86-1.92-1.72-3.83-2.59-5.75-.89-1.97-1.78-3.93-2.7-5.96l.01-.01zm-303.97 16.23c.01 2.62-.66 4.82-2.08 6.79-.14.19-.11.29.05.45 2.4 2.42 4.79 4.85 7.18 7.28.43.43.43.44 0 .87-1.08 1.05-2.17 2.1-3.24 3.15-.15.15-.23.16-.38 0-2.04-2.11-4.09-4.21-6.13-6.32-.48-.5-.97-.98-1.44-1.49-.16-.17-.24-.13-.4 0-1.69 1.38-3.64 2.17-5.82 2.37-3.69.34-6.94-.83-9.84-3.03-1.66-1.26-3.05-2.83-4.6-4.23-.17-.16-.04-.23.05-.32 1.03-1.03 2.05-2.06 3.08-3.07.19-.19.19-.29 0-.48-2.98-2.97-5.95-5.94-8.92-8.91-.62-.62-.96-1.34-.65-2.18.34-.9 1.01-1.57 1.92-1.92.75-.29 1.45-.05 2.02.52 3 3 6 5.99 8.99 8.99.23.23.35.28.61.01 1.65-1.68 3.31-3.33 4.98-4.99.2-.2.24-.3.01-.52-2.97-2.95-5.93-5.92-8.9-8.89-.98-.98-.98-2.11 0-3.09l.44-.44c.85-.85 2.04-.85 2.89 0 2.99 2.99 5.98 5.97 8.96 8.97.24.24.35.22.58 0 1-1.02 2.01-2.03 3.02-3.03.09-.09.16-.24.32-.07 1.22 1.24 2.54 2.37 3.62 3.74 1.83 2.33 3.03 4.94 3.52 7.87.12.71.2 1.44.17 1.97h-.01z" fill="#e65a46"/><path class="prefix__cls-4" d="M746.87 1103.1h-20.25c-.59 0-.52.06-.52-.53v-18.64q0-.51.49-.33c5.83 2.18 11.67 4.37 17.5 6.54.32.12.4.27.4.59-.02.96 0 1.92 0 2.88 0 .91.65 1.56 1.55 1.58h.83c1.04 0 1.67-.61 1.69-1.65.01-.97.01-1.94 0-2.92 0-.25.08-.37.31-.45 6.17-2.3 12.33-4.61 18.5-6.92.27-.1.36-.08.36.23v19.27c0 .39-.21.34-.45.34h-20.41z"/><path class="prefix__cls-4" d="M734.22 1073.57c1.38 0 2.76-.01 4.14 0 .34 0 .47-.06.46-.44-.03-1.12-.01-2.23 0-3.35 0-2.19 1.84-4.05 4.03-4.07 2.67-.02 5.33 0 8 0 2.33 0 4.12 1.82 4.15 4.2.01 1.09.01 2.18 0 3.27 0 .32.09.4.4.4 2.64-.01 5.28 0 7.92 0 2.47 0 4.39 1.9 4.41 4.37 0 .33-.02.66 0 .98.02.28-.08.41-.35.51-4.62 1.72-9.24 3.45-13.87 5.18-2.23.84-4.46 1.67-6.69 2.51a.78.78 0 01-.6 0c-6.59-2.47-13.19-4.94-19.78-7.4-.27-.1-.36-.24-.34-.51.04-.75-.06-1.5.1-2.24a4.294 4.294 0 014.21-3.41h3.82zm12.68 0h4.41c.29 0 .38-.08.38-.37-.02-1.06 0-2.13 0-3.19 0-.67-.32-.99-.99-1h-7.6c-.64 0-.98.34-.98.97 0 1.08.01 2.15 0 3.23 0 .31.1.37.38.36 1.47-.01 2.94 0 4.41 0z"/></svg>