<?xml version="1.0" encoding="UTF-8"?>
<!--
Soliguide: Useful information for those who need it

SPDX-FileCopyrightText: © 2024 Solinum

SPDX-License-Identifier: AGPL-3.0-only

This program is free software: you can redistribute it and/or modify
it under the terms of the GNU Affero General Public License as published
by the Free Software Foundation, either version 3 of the License, or
(at your option) any later version.

This program is distributed in the hope that it will be useful,
but WITHOUT ANY WARRANTY; without even the implied warranty of
MERCHANTABILITY or FITNESS FOR A PARTICULAR PURPOSE.  See the
GNU Affero General Public License for more details.

You should have received a copy of the GNU Affero General Public License
along with this program.  If not, see <https://www.gnu.org/licenses/>.
-->
<svg width="30" height="30" viewBox="0 0 30 30" fill="none" xmlns="http://www.w3.org/2000/svg">
  <path
    d="M29.1426 5.55222L15.5067 0.0978615C15.2997 0.014905 15.0756 -0.0160183 14.8538 0.00780147C14.6321 0.0316212 14.4196 0.109457 14.2349 0.234488C14.0503 0.35952 13.8991 0.52793 13.7947 0.724962C13.6902 0.921994 13.6357 1.14163 13.6359 1.36464V6.81899H1.36359C1.00194 6.81899 0.655108 6.96265 0.399386 7.21838C0.143663 7.4741 0 7.82093 0 8.18258V28.6364C0 28.9981 0.143663 29.3449 0.399386 29.6006C0.655108 29.8563 1.00194 30 1.36359 30H28.6354C28.997 30 29.3438 29.8563 29.5996 29.6006C29.8553 29.3449 29.999 28.9981 29.999 28.6364V6.81899C29.9992 6.54644 29.9177 6.28008 29.7651 6.05428C29.6124 5.82848 29.3956 5.65361 29.1426 5.55222V5.55222ZM2.72718 9.54617H13.6359V27.2728H2.72718V9.54617ZM16.3631 27.2728V3.37866L27.2718 7.74214V9.54617H19.0902V12.2733H27.2718V15.0005H19.0902V17.7277H27.2718V20.4549H19.0902V23.1821H27.2718V27.2728H16.3631ZM8.18153 15.0005H12.2723V17.7277H8.18153V15.0005ZM4.09077 15.0005H6.81794V17.7277H4.09077V15.0005ZM8.18153 10.9098H12.2723V13.6369H8.18153V10.9098ZM4.09077 10.9098H6.81794V13.6369H4.09077V10.9098ZM8.18153 19.0913H12.2723V21.8185H8.18153V19.0913ZM4.09077 19.0913H6.81794V21.8185H4.09077V19.0913ZM8.18153 23.1821H12.2723V25.9092H8.18153V23.1821ZM4.09077 23.1821H6.81794V25.9092H4.09077V23.1821Z"
    fill="#3E3A71" />
</svg>