<svg width="32" height="32" viewBox="0 0 32 32" fill="none" xmlns="http://www.w3.org/2000/svg">
  <path d="M0 16C0 7.16344 7.16344 0 16 0C24.8366 0 32 7.16344 32 16C32 24.8366 24.8366 32 16 32C7.16344 32 0 24.8366 0 16Z" fill="#F6F5FF" />
  <path
    d="M11.1998 6.3999C9.87605 6.3999 8.7998 7.47615 8.7998 8.7999V23.1999C8.7998 24.5237 9.87605 25.5999 11.1998 25.5999H20.7998C22.1236 25.5999 23.1998 24.5237 23.1998 23.1999V8.7999C23.1998 7.47615 22.1236 6.3999 20.7998 6.3999H11.1998ZM15.3998 19.5999H16.5998C17.2636 19.5999 17.7998 20.1362 17.7998 20.7999V23.7999H14.1998V20.7999C14.1998 20.1362 14.7361 19.5999 15.3998 19.5999ZM12.3998 10.5999C12.3998 10.2699 12.6698 9.9999 12.9998 9.9999H14.1998C14.5298 9.9999 14.7998 10.2699 14.7998 10.5999V11.7999C14.7998 12.1299 14.5298 12.3999 14.1998 12.3999H12.9998C12.6698 12.3999 12.3998 12.1299 12.3998 11.7999V10.5999ZM17.7998 9.9999H18.9998C19.3298 9.9999 19.5998 10.2699 19.5998 10.5999V11.7999C19.5998 12.1299 19.3298 12.3999 18.9998 12.3999H17.7998C17.4698 12.3999 17.1998 12.1299 17.1998 11.7999V10.5999C17.1998 10.2699 17.4698 9.9999 17.7998 9.9999ZM12.3998 15.3999C12.3998 15.0699 12.6698 14.7999 12.9998 14.7999H14.1998C14.5298 14.7999 14.7998 15.0699 14.7998 15.3999V16.5999C14.7998 16.9299 14.5298 17.1999 14.1998 17.1999H12.9998C12.6698 17.1999 12.3998 16.9299 12.3998 16.5999V15.3999ZM17.7998 14.7999H18.9998C19.3298 14.7999 19.5998 15.0699 19.5998 15.3999V16.5999C19.5998 16.9299 19.3298 17.1999 18.9998 17.1999H17.7998C17.4698 17.1999 17.1998 16.9299 17.1998 16.5999V15.3999C17.1998 15.0699 17.4698 14.7999 17.7998 14.7999Z"
    fill="#424291" />
</svg>