<?xml version="1.0" encoding="UTF-8"?>
<!--
Soliguide: Useful information for those who need it

SPDX-FileCopyrightText: © 2024 Solinum

SPDX-License-Identifier: AGPL-3.0-only

This program is free software: you can redistribute it and/or modify
it under the terms of the GNU Affero General Public License as published
by the Free Software Foundation, either version 3 of the License, or
(at your option) any later version.

This program is distributed in the hope that it will be useful,
but WITHOUT ANY WARRANTY; without even the implied warranty of
MERCHANTABILITY or FITNESS FOR A PARTICULAR PURPOSE.  See the
GNU Affero General Public License for more details.

You should have received a copy of the GNU Affero General Public License
along with this program.  If not, see <https://www.gnu.org/licenses/>.
-->
<svg width="260" height="244" fill="none" xmlns="http://www.w3.org/2000/svg"><path d="M260 208.283a35.738 35.738 0 01-10.45 25.256A35.66 35.66 0 01224.322 244h-87.215a35.66 35.66 0 01-25.228-10.461 35.738 35.738 0 01-10.45-25.256 35.736 35.736 0 0110.45-25.256 35.66 35.66 0 0125.228-10.461V160.66a43.678 43.678 0 0112.773-30.868 43.58 43.58 0 0130.834-12.786 43.581 43.581 0 0130.835 12.786 43.678 43.678 0 0112.773 30.868v11.906a35.66 35.66 0 0125.228 10.461A35.736 35.736 0 01260 208.283z" fill="#F0A093"/><g clip-path="url(#prefix__clip0_332_936)"><path d="M116.799 30.983a95.147 95.147 0 00-13.609 2.74l-3.893-19.256a6.877 6.877 0 011.077-5.132 6.943 6.943 0 014.389-2.9 6.968 6.968 0 015.171 1 6.906 6.906 0 012.976 4.326l3.889 19.222zM73.655 48.043a102.082 102.082 0 00-9.053 7.406c-.532.487-1.058.978-1.58 1.474l-29.218-34.84a6.877 6.877 0 01.963-9.646 6.962 6.962 0 019.707.824l29.18 34.782zM43.976 80.93a89.793 89.793 0 00-5.881 12.497l-15.716-6.658h-.025a6.914 6.914 0 01-3.699-3.786 6.865 6.865 0 01.076-5.28 6.917 6.917 0 013.805-3.679 6.967 6.967 0 015.307.076l16.133 6.83zM34.176 147.091l-26.001 4.65a6.948 6.948 0 01-5.914-1.702 6.868 6.868 0 01-.827-9.265 6.934 6.934 0 014.28-2.601l26.722-4.777c.119 1.863.289 3.739.511 5.629.318 2.745.728 5.433 1.229 8.066zM170.583 8.867l-8.022 26.616a97.297 97.297 0 00-13.402-3.558l8.132-27.01a6.915 6.915 0 013.374-3.996 6.973 6.973 0 015.22-.508 6.935 6.935 0 014.086 3.27 6.875 6.875 0 01.621 5.182l-.009.004z" fill="#E65A46"/><path d="M240.353 205.614c-10.914-10.875-21.812-21.772-32.807-32.567-1.377-1.353-1.428-2.235-.554-3.869 6.448-12.102 9.619-25.036 10.003-38.772-.654-5.331-.988-10.72-2.01-15.963-3.615-18.57-13.515-35.348-28.052-47.539a83.434 83.434 0 00-51.843-19.461c-22.1-.53-41.7 6.582-57.99 21.486-20.884 19.105-30.181 43.107-26.93 71.109 3.26 28.086 17.7 49.627 42.684 63.22 26.119 14.211 52.851 14.03 79.414.638 1.452-.73 2.183-.655 3.302.475a5810.539 5810.539 0 0033.082 32.967c8.917 8.851 23.096 8.901 31.845.16 8.909-8.914 8.854-22.923-.144-31.884zm-107.277-12.602c-34.467.072-62.664-27.917-62.761-62.291a62.17 62.17 0 014.708-23.919 62.425 62.425 0 0113.553-20.304 62.792 62.792 0 0120.332-13.596 63.051 63.051 0 0124.016-4.817c34.602-.076 62.959 28.035 62.934 62.38-.018 16.568-6.635 32.454-18.402 44.178-11.768 11.725-27.726 18.331-44.38 18.374v-.005z" fill="#3E3A71"/><path d="M133.076 193.012c-34.467.076-62.664-27.909-62.761-62.287a62.164 62.164 0 014.707-23.92 62.421 62.421 0 0113.552-20.306 62.795 62.795 0 0120.333-13.597 63.055 63.055 0 0124.017-4.818c34.598-.076 62.959 28.031 62.934 62.38-.011 16.57-6.626 32.46-18.395 44.185-11.769 11.725-27.732 18.329-44.387 18.363z" fill="#fff" fill-opacity=".5"/></g><path d="M134.286 186.211v12.842a44.923 44.923 0 01-13.18 31.783 45.03 45.03 0 01-31.82 13.165H31.429c-6.82 0-13.36-2.706-18.183-7.523a25.67 25.67 0 01-7.532-18.162c0-6.812 2.71-13.344 7.532-18.161a25.729 25.729 0 0118.183-7.523h12.857v-6.421a44.922 44.922 0 0113.18-31.783 45.027 45.027 0 0131.82-13.164 45.029 45.029 0 0131.82 13.164 44.923 44.923 0 0113.18 31.783z" fill="#EB806F"/><defs><clipPath id="prefix__clip0_332_936"><path fill="#fff" d="M0 0h247.143v244H0z"/></clipPath></defs></svg>