<svg width="28" height="28" viewBox="0 0 28 28" fill="none" xmlns="http://www.w3.org/2000/svg">
  <path d="M0 14C0 6.26801 6.26801 0 14 0C21.732 0 28 6.26801 28 14C28 21.732 21.732 28 14 28C6.26801 28 0 21.732 0 14Z" fill="#F6F5FF" />
  <g clip-path="url(#clip0_1148_2179)">
    <path
      d="M19.4169 13.1667C18.3455 13.1667 17.3901 13.5119 16.6997 14.1994C16.0092 14.8869 15.6669 15.8452 15.6669 16.9167C15.6669 17.9881 16.0122 18.9435 16.6997 19.6339C17.3872 20.3244 18.3455 20.6667 19.4169 20.6667C20.5211 20.6667 21.5092 20.2946 22.1997 19.5655L22.3782 20.0982C22.5241 20.5357 22.9943 20.7708 23.4318 20.625C23.8693 20.4792 24.1044 20.0089 23.9586 19.5714L23.4675 18.0982C23.2681 17.503 23.1669 16.881 23.1669 16.253V13.5833C23.1669 13.122 22.7949 12.75 22.3336 12.75C21.786 12.75 21.5003 13.2113 21.5003 13.7054C20.905 13.3452 20.1907 13.1667 19.4169 13.1667ZM17.3336 16.9167C17.3336 16.2054 17.5568 15.7024 17.8782 15.378C18.1997 15.0536 18.7026 14.8333 19.4169 14.8333C20.1312 14.8333 20.6312 15.0565 20.9556 15.378C21.28 15.6994 21.5003 16.2024 21.5003 16.9167C21.5003 17.631 21.277 18.131 20.9556 18.4554C20.6342 18.7798 20.1312 19 19.4169 19C18.7026 19 18.2026 18.7768 17.8782 18.4554C17.5538 18.1339 17.3336 17.631 17.3336 16.9167ZM13.1759 19.9524C13.0122 18.8185 12.777 17.6458 12.5062 16.5H7.16395C6.89014 17.6458 6.65502 18.8155 6.4943 19.9524C6.42883 20.4077 6.00621 20.7232 5.55085 20.6607C5.0955 20.5982 4.77704 20.1696 4.84252 19.7143C5.5449 14.8065 7.533 9.36012 8.20561 7.6131C8.46752 6.92857 9.12228 6.5 9.83657 6.5C10.5509 6.5 11.2026 6.92857 11.4675 7.6131C12.1372 9.36012 14.1282 14.8095 14.8306 19.7143C14.8961 20.1696 14.5776 20.5923 14.1223 20.6577C13.6669 20.7232 13.2443 20.4048 13.1788 19.9494L13.1759 19.9524ZM12.0776 14.8333C11.277 11.8929 10.2532 9.29167 9.82764 8.18155C9.40204 9.29167 8.39014 11.8929 7.58954 14.8333H12.0806H12.0776Z"
      fill="#424291" />
  </g>
  <defs>
    <clipPath id="clip0_1148_2179">
      <rect width="20" height="20" fill="white" transform="translate(4 4)" />
    </clipPath>
  </defs>
</svg>