<?xml version="1.0" encoding="UTF-8"?>
<!--
Soliguide: Useful information for those who need it

SPDX-FileCopyrightText: © 2024 Solinum

SPDX-License-Identifier: AGPL-3.0-only

This program is free software: you can redistribute it and/or modify
it under the terms of the GNU Affero General Public License as published
by the Free Software Foundation, either version 3 of the License, or
(at your option) any later version.

This program is distributed in the hope that it will be useful,
but WITHOUT ANY WARRANTY; without even the implied warranty of
MERCHANTABILITY or FITNESS FOR A PARTICULAR PURPOSE.  See the
GNU Affero General Public License for more details.

You should have received a copy of the GNU Affero General Public License
along with this program.  If not, see <https://www.gnu.org/licenses/>.
-->
<svg version="1.0" xmlns="http://www.w3.org/2000/svg" width="1706.667" height="1706.667" viewBox="0 0 1280 1280"><path d="M455.3 227.9c-7.7 2.6-11.7 6.2-15.5 13.8-3.2 6.6-3.3 7-3.3 20.3 0 16.8 1.6 22.2 8.5 29 6.3 6.4 12.6 8.5 24.5 8.3 5 0 10.2-.6 11.8-1.2 2.5-1 2.7-1.5 2.7-6.5v-5.4l-11.3.5-11.3.6-3.7-3.3c-5.2-4.5-7-11.3-6.5-23.9.4-11.2 2.4-16.3 7.8-19.9 3.2-2.2 4.2-2.3 11.5-1.8 4.4.3 9.1.7 10.5.8 2.4.3 2.5.1 2.5-5.2 0-5.4-.1-5.5-3.5-6.7-5.4-1.8-18.6-1.5-24.7.6zM515.2 227.8c-7.4 2.7-11.6 6.5-15.6 14.2-8.5 16.3-4.7 41.9 7.7 51.3 8.5 6.4 22.5 8 32.4 3.7 6.2-2.6 12.6-9.2 15.3-15.6 4.4-10.1 4.2-27.9-.3-37.8-3.3-7-6.6-10.7-12.9-14.1-7-3.8-18.5-4.5-26.6-1.7zm18.8 12.1c2.3 1.2 4.4 3.6 6 6.7 2.2 4.3 2.5 6.1 2.5 15.9 0 9.2-.4 11.8-2.2 15.7-2.7 6-7.1 8.8-13.6 8.8-7 0-10.1-2-13.4-8.7-2.5-5.2-2.8-6.8-2.8-15.9.1-8.6.5-10.7 2.5-15 4.4-8.7 13-11.8 21-7.5zM663 226.9c-10.3 3.4-16 10.7-16 20.7 0 4.4 4.4 12.6 8.2 15.1 1.8 1.2 7.6 3.8 12.8 5.7 11.8 4.4 14.8 7.8 12.4 14.1-1.8 4.7-15.1 6-25.1 2.5-8.2-2.9-8.3-2.8-8.3 3.5 0 4.6.4 5.7 2.3 6.9 6.9 4.5 24.5 5.3 33.9 1.7 14.8-5.7 18.5-22.9 7.3-33.7-3.4-3.3-6.3-4.8-13.7-7.3-5.2-1.7-10.5-4.1-11.6-5.2-2.9-2.6-2.9-7.9-.2-10.4 2.8-2.6 11.1-3 19.3-1.1 3.8.9 7.2 1.6 7.8 1.6.5 0 .9-2.5.9-5.6 0-5.4-.1-5.5-3.7-7.1-4.3-1.8-22.2-2.8-26.3-1.4zM574.7 227.7c-.4.3-.7 16.3-.7 35.5v34.9l6.8-.3 6.7-.3.5-23.5.5-23.5 2.1 3c8.2 11.8 11.7 17.4 23.6 38l3.4 6 6.7.3 6.7.3V227h-13v21.3c0 11.8-.3 21.7-.6 22-.4.3-3.8-4.4-7.6-10.6-8.4-13.5-17.1-26.2-20.6-30-2.2-2.3-3.3-2.7-8.2-2.7-3.1 0-6 .3-6.3.7zM713 262.5V298l22.8-.2 22.7-.3v-11l-15.2-.3c-17.6-.3-16.6.4-16.1-11.2l.3-6.5 13.3-.3 13.2-.3V256h-12.9c-10.8 0-13-.3-13.5-1.6-1.1-3-.6-13.1.7-14.2.8-.7 7.2-1.3 15.8-1.4l14.4-.3v-11l-22.7-.3-22.8-.2v35.5zM774.5 228.3c-.3.6-.4 16.5-.3 35.2l.3 34 7.3.3 7.2.3V227h-7c-4.8 0-7.2.4-7.5 1.3zM808.5 228.3c-.3.6-.4 16.5-.3 35.2l.3 34h40v-11L836 286l-12.5-.5-.3-29.3-.2-29.2h-7c-4.8 0-7.2.4-7.5 1.3zM319.4 314.8c-1.6 1-7.4 12.8-6.7 13.6.4.3 3 .6 5.8.6 5.1 0 5.1 0 10.4-6.6 4.2-5.2 5-6.8 4-7.5-1.7-1.1-12-1.2-13.5-.1zM224.8 336.7c-1.7.4-1.8 2.9-1.8 35.3v34.9l3.4.7c1.9.3 9.7.4 17.3.2 11.7-.3 14.6-.7 18.8-2.6 6.5-3 11.8-8.2 14.7-14.6 2-4.5 2.3-6.6 2.3-18.6 0-12-.3-14.1-2.4-18.8-3.1-6.9-10.6-13.7-17.4-15.7-4.8-1.4-30.3-2-34.9-.8zM256 350c6.2 3.2 8.5 9.1 8.5 22 0 12.1-1.5 16.4-7.3 20.8-3 2.3-4.7 2.8-11.4 3.1l-7.8.3v-23.6c0-23.6 0-23.7 2.3-24.6 3.1-1.3 11.2-.3 15.7 2zM296.7 336.6c-.4.4-.7 16.4-.7 35.6V407h46.1l-.3-5.8-.3-5.7-15-.3c-8.2-.1-15.4-.7-15.8-1.1-.5-.5-.6-4.6-.2-9l.7-8.1H337v-11.9l-13.2-.3-13.1-.3.2-7.5c.1-4.1.4-7.7.7-7.9.2-.2 6.6-.3 14.1-.3 7.6.1 14.4-.2 15.1-.6.9-.6 1.2-2.7 1-6.3l-.3-5.4-22.1-.3c-12.1-.1-22.3.1-22.7.4zM358.6 337.5c-1.5 1.5-1.6 5-1.5 34.2 0 17.9.3 33.2.6 33.9.4 1 2.5 1.4 7.4 1.4h6.9v-7.3c0-8.7 1.4-14.4 3.8-15.1.9-.3 5-1 9-1.6 16-2.2 24.2-10.5 24.2-24.5 0-9.1-3.8-15.8-11.4-19.8-3.7-1.9-5.9-2.2-20.7-2.5-14.5-.3-16.8-.2-18.3 1.3zm28.1 11c5 2.1 6.2 4.2 6.3 10.2 0 5.9-1.3 9.4-4.2 11.2-2.3 1.4-15.4 4.1-16.3 3.3-.3-.3-.5-5.8-.5-12.3 0-10.2.2-11.9 1.8-12.8 2.5-1.5 8.8-1.3 12.9.4zM435.4 336.7c-1.8 1.3-2.9 4-9.9 24.3-6.8 20.1-13.5 42.1-13.5 44.6 0 1.1 1.7 1.4 7.5 1.4h7.4l1.1-4c.5-2.2 1.5-5.8 2-8l1.1-4h12c8.7 0 12.1.3 12.3 1.2.3.7 1.2 4.3 2.2 8l1.7 6.8h7.8c9 0 8.5 2 3.3-16-3.6-12.7-15.2-46.7-17.5-51.5-1.4-2.9-1.7-3-8.9-3.3-4.1-.1-8 .1-8.6.5zm11.8 25.6c1.5 4.8 3.1 10.5 3.4 12.7l.7 4h-7.7c-5.8 0-7.8-.4-8.2-1.5-.9-2.2 6.5-24.7 7.9-24.2.6.2 2.4 4.2 3.9 9zM489.8 336.6c-1.7.5-1.8 3.1-1.8 35.5v35l7.3-.3 7.2-.3.5-10.7c.3-5.9 1-11.1 1.5-11.7.6-.5 2.2-1.3 3.7-1.6 2.3-.6 3.1-.1 6.2 4.2 1.9 2.6 5.5 8.3 7.8 12.5l4.3 7.7 8.3.1h8.2l-2.6-5.3c-3.3-6.3-10.9-18-12.9-19.7-2.3-1.9-1.8-3.8 1.3-5.4 6.3-3.3 10.2-10.3 10.2-18.6 0-8.8-3.8-15.2-11.5-19.3-3.6-1.9-5.8-2.2-20-2.4-8.8-.1-16.8.1-17.7.3zm27.8 12.3c4.8 2.2 6.9 6.3 6.1 11.8-.9 5.6-4.1 8-12.6 9.8-4.1.8-7.5 1.4-7.7 1.2-.2-.2-.5-5.4-.6-11.6-.2-9 .1-11.4 1.2-12.1 2.4-1.6 9.2-1.1 13.6.9zM546.6 337.6c-.9 2.4-.7 7.3.4 9.5.9 1.6 2.2 1.9 9.5 1.9h8.5v58h15v-57.9l9.3-.3 9.2-.3v-12l-25.6-.3c-22.8-.2-25.7-.1-26.3 1.4zM611.7 336.6c-.4.4-.7 16.4-.7 35.6V407h46.1l-.3-5.8-.3-5.7-15.2-.3-15.3-.3v-17.8l13.3-.3 13.2-.3v-11l-13.2-.3-13.3-.3v-15.8l15.3-.3 15.2-.3v-12l-22.1-.3c-12.1-.1-22.3.1-22.7.4zM674.6 338.2c-.3 1.3-.9 12.2-1.5 24.3-.6 12.1-1.4 27.1-1.8 33.2l-.6 11.3h14.1l.6-5.8c.3-3.1.8-14.1 1.2-24.5.4-10.3 1-18.9 1.4-19.2.9-.6 6.2 12.5 10.5 26l3.2 10h14.4l3.8-11.5c5-15 9.1-25.1 10.1-24.5.4.2 1 9.1 1.4 19.7.4 10.6.9 21.7 1.3 24.5l.5 5.3h6.9c6.5 0 6.9-.1 6.9-2.3.1-11.1-3.6-67.3-4.4-67.9-.6-.4-4.6-.8-8.8-.8-7.2 0-7.9.2-9.4 2.5-2 3.1-9.3 20.7-12.3 29.7-1.3 3.8-2.6 6.8-3 6.8-.5 0-2.1-3.5-3.6-7.8-5.4-15-11.7-29.3-13.5-30.2-1-.6-5.3-1-9.4-1-7 0-7.6.2-8 2.2zM764.5 337.3c-.3.6-.4 16.5-.3 35.2l.3 34 22.4.3c24.4.3 24.1.3 24.1-5.4 0-5.9-1-6.3-17-6.6l-14.5-.3v-17l13.3-.3 13.3-.3-.3-5.7-.3-5.7-13-.5-13-.5-.3-6.9c-.2-3.8.1-7.3.6-7.8s7.4-1 15.3-1.1l14.3-.2 1-2.6c.5-1.4.6-4.2.2-6.2l-.7-3.7h-22.5c-17.1 0-22.6.3-22.9 1.3zM826.7 336.7c-.4.3-.7 16.3-.7 35.5V407h14v-23.8l.1-23.7 2.3 2.7c2.8 3.1 14.7 22.1 22.1 35.2l5.1 9.1h13.9v-70h-13l-.5 22-.5 22-2.6-4c-1.5-2.2-6.9-10.5-12.1-18.5-5.2-8-10.9-16.2-12.7-18.3-3.1-3.5-3.7-3.7-9-3.7-3.2 0-6.1.3-6.4.7zM895.5 338.3c-.4 1.3-.5 4.1-.3 6.3l.3 3.9 9.2.3 9.3.3.2 28.7.3 28.7 7.2.3 7.3.3.2-28.8.3-28.8 9-.5 9-.5v-12l-25.7-.3-25.8-.2-.5 2.3zM971.1 337.4c-1.9 2.3-13.8 37-19.6 57.1-1.4 4.9-2.8 9.8-3.1 10.7-.5 1.6.3 1.8 7.3 1.8h7.8l2.1-7.8 2-7.7 12-.3 12.1-.3 1.1 3.8c.6 2.1 1.6 5.7 2.2 8l1.1 4.3h7.4c5.7 0 7.5-.3 7.5-1.4 0-2.2-9.5-33-14.6-47.1-2.5-7.2-5.1-14.4-5.6-16-2-5.7-3.4-6.5-11.3-6.5-4.9 0-7.6.4-8.4 1.4zm13.5 27.6c1.9 6.3 3.2 12 3 12.7-.4.9-2.8 1.3-8.1 1.3-7.4 0-7.5-.1-7.5-2.5 0-4.2 7.1-24.8 8.1-23.8.5.5 2.5 6.1 4.5 12.3zM1024.7 336.6c-.4.4-.7 16.4-.7 35.6V407h39.9l.7-3.6c.4-2 .2-4.6-.4-5.9-1.1-2.3-1.6-2.4-12.9-2.7l-11.8-.3-.5-29-.5-29-6.5-.3c-3.6-.2-6.9 0-7.3.4zM526.4 501.8c-.6.4-26.2 49.7-56.9 109.7-30.6 59.9-57.3 112-59.2 115.7-1.9 3.7-3.2 7.2-2.8 7.7.4.7 8.8 1.1 24.4 1.1 21.4 0 23.9-.2 25.3-1.8.8-.9 5.2-10 9.8-20.2 4.6-10.2 8.8-19.1 9.3-19.8.8-.9 12.1-1.2 53.1-1l52.1.3 10.1 20c5.6 11 10.7 20.6 11.3 21.2 1.5 1.6 47.6 1.9 48.6.3.4-.6-5.3-12.6-12.6-26.8-18.1-35.4-30.9-60.2-39.4-76.7-4-7.7-20.2-39.4-36-70.5s-29.5-57.3-30.3-58.3c-1.6-1.8-4.9-2.2-6.8-.9zm15.5 104.4c16.5 34.1 25.1 52.2 25.1 53.1 0 .4-16.6.7-37 .7-32.3 0-37-.2-37-1.5 0-2.5 35.4-76.5 36.6-76.5.3 0 5.8 10.9 12.3 24.2zM278.6 505.1c-5.4.6-14.8 2.3-21 3.8-47.4 12-77.1 41.6-86.8 86.6-2.1 9.5-1.7 44.1.5 53.5 7.9 33.4 23.2 54.7 50.7 71.1 31.8 18.9 79.8 23.1 121.3 10.8 14.9-4.4 40.6-16 46-20.7 1.6-1.4 1.7-5.1 1.7-50.9V610l-23.7.2-23.8.3-.1 40.8c0 34.5-.2 41-1.5 41.8-2.3 1.5-15.9 5.7-23.9 7.5-11.6 2.6-33.1 2.4-44-.5-29-7.6-49.5-29-55.6-58-5-24.1-.9-50.7 10.6-67.9 4.7-7 13.6-15.9 20.9-20.8 23-15.5 56.8-17.8 91.8-6.3 11.3 3.6 20.8 7.8 28.6 12.6 3.2 1.9 6.2 3.1 6.6 2.7.8-.9 3.1-24.7 3.1-32.1V526l-7.7-3.8c-14.5-7.2-32.8-13.1-48.8-15.7-11.9-2-32.6-2.6-44.9-1.4zM681.5 508.2c-.3.7-.4 52.1-.3 114.3l.3 113 22.4.3c15.6.2 22.8-.1 23.7-.9 1.2-.9 1.4-9.4 1.4-47.5V641h2.5c5.5 0 18.3 3.3 24.5 6.3 10.3 5 22.2 17.6 36.4 38.7 6.5 9.6 14.4 20.4 17.5 23.9 14.3 16.4 32.7 25.7 54.8 27.6 7.3.7 8.2.6 9.1-1.1 1.8-3.6 8.4-33.6 7.6-34.3-.5-.4-4-1.3-7.9-2-16.3-2.9-28.3-12.9-49.2-41.1-13.2-17.7-22.7-27.9-29.5-31.5-2.1-1.1-3.8-2.2-3.8-2.6 0-.3 3.5-2.3 7.8-4.4 14.2-7 26-21.6 29.1-36.3 2.5-11.8.7-27.4-4.3-37.7-9.4-19.1-28.7-31.2-59.2-37.1-12.1-2.3-82.1-3.4-82.9-1.2zm68.1 34.9c15.6 2.1 26.2 8.5 30.5 18.1 3.4 7.8 3.2 19.6-.5 27.2-5.8 11.9-18 17.5-41.2 19.2l-9.1.7-.6-9.9c-.4-5.5-.4-20.4 0-33.2l.6-23.2h6.3c3.4 0 9.7.5 14 1.1zM905.5 508.2c-.3.8-.4 8.8-.3 17.8l.3 16.5 45.5.6c41.5.5 46.3.8 54.2 2.7 31.6 7.6 51.4 24.9 60 52.2 2 6.5 2.3 9.5 2.3 23 0 17.5-1.5 24.4-8.3 37.5-4.7 9.1-18.1 22.7-27.4 27.9-16.5 9.2-31.3 12.5-59.5 13.3l-19.3.6v-44.1c0-24.2-.3-44.7-.6-45.6-.5-1.4-3.6-1.6-24-1.6H905l.2 63.2.3 63.3 34.5.3c19 .2 41.3-.2 49.5-.8 32.5-2.4 58.7-10.2 79-23.4 22.1-14.4 36.7-34.7 43.5-60.6 2.8-10.7 3.9-36.6 2.1-49.1-3.2-21.8-14-43.3-29-57.8-18.8-18.2-44.1-29.2-79.6-34.8-14.2-2.2-99.2-3.2-100-1.1zM381.8 835.2c-.8.7-7.1 13.4-13.8 28.3-6.8 14.8-14.7 32.2-17.6 38.5-2.9 6.3-5 11.8-4.6 12.2.5.5 17 .7 36.8.6l35.9-.3.3-5.7.3-5.7-3.3-.3-3.3-.3.1-7.3c.3-12.8 7.9-24.4 19.9-30.2 23.9-11.6 52.7 5 52.9 30.5l.1 7-3.8.3-3.8.3.3 5.7.3 5.7 38.8.3 38.7.2v-11.9l-3.2-.3-3.3-.3.2-6.3c.4-16.4 10.9-29.5 27-33.6 7.5-2 12.2-2 19.1-.2 7 1.9 12.9 5.5 18.1 11.1 6.1 6.6 8.4 12.4 8.5 21.5l.1 7.5-3.2.3-3.3.3V915h78v-12h-3.4c-1.9 0-3.6-.5-3.8-1.1-.2-.6-.1-4.4.3-8.4.8-8.6 4-15.3 10-21.4 14.6-14.6 38.1-14.5 52.8 0 6.3 6.3 9.5 13.7 9.9 23.1l.4 7.7-3.8.3c-4.3.3-5.1 2.1-3.9 8.4l.6 3.4 38.7-.2 38.7-.3.3-5.7.3-5.7-3.3-.3-3.3-.3v-7.6c.1-6.1.6-8.6 2.8-13.2 7.1-14.4 24.5-22.9 40.3-19.7 16.5 3.4 27.1 14.5 29.7 31.1 1.3 8.4.7 9.9-3.8 9.9H890v12l38.8-.2 38.7-.3.3-5.7.3-5.7-3.3-.3-3.3-.3.1-7c.1-21.1 21.1-37.7 42.5-33.7 17.8 3.3 29.9 16.7 30.3 33.4l.1 7.3-3.7.3-3.8.3V915l38.8-.2 38.7-.3.3-5.8.3-5.7h-3c-4 0-4.7-2.7-3.1-11.7 2.7-15.5 13.3-26.2 29.4-29.5 6.7-1.5 17.4 0 23.8 3.3 6.2 3.2 13.1 10.2 16.3 16.6 2.7 5.3 3 7 3.5 19.3l.5 13.5 31.2.3c29 .2 31.2.1 31.7-1.5.3-1 .4-6.3.3-11.8 0-6.9.4-11.7 1.6-15.5 4.6-14.8 19.2-25 35.9-25h6.8v-25.8l-3.1-.6c-1.7-.3-203.5-.6-448.3-.6-354.7 0-445.5.3-446.8 1.2zM331.9 942.7C321.1 966 309 992.8 309 993.3c0 .3 4.5 2 9.9 3.7 8 2.6 10 3.6 10.5 5.3.2 1.2 1.2 11 2.2 21.7.9 10.7 2.1 19.9 2.6 20.5.5.5 6.3 2.6 13.1 4.5l12.2 3.6 3.1 13.3c1.8 7.3 3.8 13.9 4.5 14.6.8.7 6.3 5.5 12.4 10.5 6 5.1 11.4 9.9 12.1 10.8.6 1 5.1 9.3 9.9 18.7 4.9 9.3 9.6 17.5 10.4 18.2.9.6 3.6 1.7 6.1 2.3 5.2 1.3 40.9 11.1 51.8 14.2l7.3 2.1 18 19.3 18 19.3 11.7 3.7c6.4 1.9 16.7 5.1 22.8 7 11 3.3 11.2 3.5 22.4 13l11.3 9.7-.6 10.8-.6 10.9 2.7 1.4c1.5.7 5.7 2.3 9.4 3.5 3.6 1.2 7.1 2.7 7.6 3.4.5.7 2.2 5.6 3.7 11l2.8 9.7h19.8c19.8 0 19.9 0 20.3-2.2.3-1.3.7-9.7.9-18.8.4-12.4 1-18.6 2.6-24.9 15.4-60.9 74.2-98.4 135.6-86.6 21.8 4.1 40.9 14.6 57.9 31.8 12.9 13.1 21.9 27.5 27.5 44.3l2.9 8.5 2.2-6.8c9.9-29.9 31.2-54.5 59.5-68.4 12.5-6.1 23.9-9.4 38.6-11 20.4-2.2 42.4 1.3 59.4 9.6 13.7 6.7 21.1 11.9 32.1 22.9 14.4 14.3 23.2 28.4 28.9 46 2.5 7.6 3.1 7.5 5.5-1.4 3.3-12.3 14.7-30.6 27-43.1 18.4-18.7 40.3-29.8 65.5-33.4 12.9-1.9 21.3-1.9 34.1 0 17.1 2.6 32.2 8.5 46.9 18.4l6 4.1.3-26.2c.1-14.3.1-26.2-.1-26.4-.2-.2-35.6-.4-78.8-.5-43.1 0-79.9-.3-81.7-.6l-3.2-.5.2-28.2.3-28.1 4-.5 4-.5.3-5.7.3-5.8h-3.1c-4 0-4.4-1.5-2.6-8.8 7.2-27.7 29.6-50.8 58.8-60.6 10.1-3.4 18.2-4.6 30.3-4.6 25.6 0 44.8 7.2 64.3 23.9l7.2 6.3v-13.7l-5.8-4.6c-11.8-9.5-26.7-16.8-41.4-20.5-9.9-2.4-30.6-2.9-41.5-1-26 4.5-49.1 18.1-65.7 38.8-7.8 9.7-17.4 28.3-20.5 39.9-2.3 8.8-4.3 23.1-3.3 24.1.4.4 2.3.8 4.2 1 3.5.3 3.5.4 3.8 5.5l.3 5.2-4.3.3-4.3.3-.3 5.7-.3 5.7 4.3.3 4.3.3.3 5.2.3 5.3h-25.2l.3-5.3.3-5.2 3.8-.3 3.7-.3V1078l-4-.6-4.1-.7.3-5.1.3-5.1 3.8-.3c4.4-.4 4.4-.4 2.2-13.7-3.7-22.9-14-43-30.5-59.6-20-20-43.2-30.4-70.8-31.6-18.1-.8-33.3 2-48.9 9.2-32.5 14.9-56 46.1-61.8 82-2.2 13.6-2.2 13.5 2.5 13.5h4.1l-.3 5.7-.3 5.8h-7l-.3 5.7-.3 5.8h8.1v11.1l-12.2-.3-12.3-.3-.3-2.9c-.2-1.5-.1-3.9.2-5.2.5-2 1.3-2.4 4.6-2.4h4v-5.5c0-3-.3-5.5-.7-5.6-7-.6-8.3-1.5-8.3-6.1s1-5.8 4.6-5.8c3.5 0 3.7-.3 3.5-5.5-.5-11.3-5.2-27.7-11.3-40-15.3-30.3-44.5-52.2-77.7-58-51.1-9-102.3 21.6-119.2 71.2-3.2 9.3-5.9 22.3-5.9 28.5 0 3.5.2 3.7 3.8 4l3.7.3.3 5.2c.3 5.5.1 5.7-4.4 5.4-3.1-.3-4.6 2.2-4.2 7.1.3 4.2.4 4.3 4.3 4.8l4 .5.3 5.2.3 5.3h-25.2l.3-5.3.3-5.2 4-.5c3.9-.5 4-.6 4.3-4.9.4-5.2-.6-6.5-5-6.5l-3.3-.1v-11l3.8-.3c3.6-.3 3.7-.4 3.7-4.1 0-6.1-2.8-19.5-6.1-28.9-11.8-33.7-40-59.6-75.7-69.4-11.1-3.1-39.2-3.1-50.2-.1-20.4 5.6-36.4 14.6-49.8 28-13.2 13.1-22.1 27.7-27.7 45.3-2.7 8.8-5.7 25.4-4.8 27.6.3.7 2.1 1.4 4.1 1.6l3.7.3.3 5.2.3 5.3h-3.3c-5.1 0-6 1.1-5.6 6.6l.3 4.9 4 .5 4 .5v10l-12.3.3-12.3.3.3-5.3.3-5.3 3.8-.3 3.7-.3v-10.8l-3.7-.3-3.8-.3v-11l3.7-.3c4.3-.4 4.3-.5 5.2-11.2 1.4-15 9.2-36.1 19-50.8 17.7-26.7 48.4-46.2 79.2-50.3 11.1-1.5 32.1-.6 42.4 1.7 32.2 7.3 60.5 29.8 75.9 60.1 2.3 4.6 5.2 11.2 6.4 14.9 1.3 3.6 2.6 6.6 3 6.7.4.1 1.9-3 3.2-6.8 9.8-28 31.8-52.7 59.2-66.4 6.7-3.3 14.2-6 24.3-8.7 8.3-2.3 39.3-2.6 48.5-.5 39.7 8.8 71.1 36.7 85 75.4l3.2 8.9 1.7-4.9c7.8-21.3 16-34.6 29.7-48 15.5-15.1 32.8-24.9 54.2-30.6 11-2.9 40-3.1 51.7-.4 35.7 8.4 65.4 33.5 80 67.5 2.1 4.8 4.1 10.2 4.5 11.9.3 1.8 1 3.3 1.4 3.3.5 0 1.8-3 3-6.8 11.8-36 43.1-64.8 81.9-75.4 10.6-2.9 40.8-3.2 52.2-.5 12.4 3 29.6 10.3 37.5 16.1 1.7 1.2 4.2 3 5.8 3.9l2.7 1.7v-43H335.9l-4 8.7zm103.9 33l.3 10.3H418v-9.8c0-5.4.3-10.2.7-10.6.4-.4 4.3-.5 8.8-.4l8 .3.3 10.2zm223.7-.2v10h-18l-.3-8.9c-.2-4.9 0-9.6.2-10.3.4-1.1 2.6-1.3 9.3-1.1l8.8.3v10zm223.3.2l.3 10.3H865v-9.8c0-5.4.3-10.2.7-10.6.4-.4 4.3-.5 8.8-.4l8 .3.3 10.2zm223.2-.2v10.6l-8.7-.3-8.8-.3-.3-8.9c-.2-4.9-.1-9.5.2-10.3.4-.9 2.9-1.3 9.1-1.3h8.5v10.5zm-551.6-2.4c19.3 2.5 38.2 12.4 52.7 27.5 10.8 11.4 21 30.4 22.1 41.4.3 3.4.2 3.5-3.5 3.8l-3.8.3.3 5.7.3 5.7 4 .3c2.2.2 4.3.8 4.6 1.3.8 1.4.4 54.2-.4 55.6-.6.9-22.4 1.1-83 .8-45.2-.1-86.6-.3-91.9-.4l-9.8-.1v-57h6.9c7.5 0 8.1-.5 8.1-6 0-5.3-.8-6-6.6-6-3.9 0-5.6-.4-6-1.5-.3-.8.4-4.7 1.6-8.7 10-33.1 39.5-58.1 74-62.8 13.7-1.8 15.5-1.8 30.4.1zm232.8 1.9c30.2 7.8 54.8 31.2 63.8 60.8 2.6 8.7 2.3 10.2-2.5 10.2H845v5.5c0 5.9.1 5.9 7 6.7l2.5.3.3 27.9c.2 20.7-.1 28.2-1 28.7-1.2.8-182.8 0-184-.7-1-.7-1-53.5 0-55.1.4-.6 2.5-1.3 4.7-1.5l4-.3v-11l-3.5-.5c-3.2-.5-3.5-.8-3.3-3.7.5-6.1 6.5-20.2 12.3-29.1 22-33.3 63-48.5 103.2-38.2zm210.3-2.5c30.6 4 55.7 20.7 69.9 46.7 4.2 7.5 8.6 19.9 8.6 24 0 2.5-.3 2.8-3.5 2.8h-3.6l.3 5.7.3 5.8 4.3.3 4.2.3v28.3c0 26.2-.1 28.4-1.7 28.8-1.5.4-180.2.3-182.5-.1-.5 0-.8-12.9-.8-28.6V1058h3.4c4.4 0 5.8-1.9 5.4-7.2-.3-3.9-.6-4.3-3.3-4.8-3.9-.7-4.3-3.2-1.5-11.7 7.6-23.7 25.1-43.1 48.5-53.9 11.3-5.2 19.2-7.1 39.2-9.3.7 0 6.4.6 12.8 1.4zm-620.7 23.2l.3 10.3H359v-9.8c0-5.4.3-10.2.7-10.6.4-.4 4.3-.5 8.8-.4l8 .3.3 10.2z"/><path d="M751.5 1153.6c-19.4 2.7-32.5 7.5-47.1 16.9-24.9 16.1-42.3 42.1-47.8 71.1-1.7 9.3-3.1 32.1-2.2 35.8.6 2.5.9 2.6 7.6 2.6h6.9l.3-5.2c.3-5.2.4-5.3 3.8-5.8 5.2-.9 6-1.7 6-6.4 0-5.1-1.3-6.6-5.8-6.6h-3.5l.6-6.8c3.8-40.8 35.6-75.6 75.7-82.8 46.4-8.3 89.8 18.9 104.4 65.5 1.5 4.7 3 12 3.3 16.2l.6 7.8-4.4.3-4.4.3-.3 5.3c-.3 5.6-.4 5.6 6 6.7 3.7.6 3.7.6 4 5.8l.3 5.2 7.4.3 7.4.3-.6-16.8c-.6-17.3-1.8-24.6-6-36.8-12.3-35.8-43.2-63.2-80.2-71.1-7.1-1.5-26.4-2.6-32-1.8zM969 1154.5c-29.2 4.7-56 22.1-72.3 46.7-13.6 20.6-18.7 38.3-18.7 65v13.8h6.9c7.6 0 8.1-.5 8.1-7.8 0-2.8.3-3.2 2.6-3.2 4.7 0 6.4-1.7 6.4-6.3 0-5.2-1.3-6.7-5.8-6.7h-3.4l.7-6.3c4.7-43.3 37-77.7 78.6-83.8 35-5.1 69.2 10.1 89.2 39.5 8.2 12.1 14.7 29.7 16.3 44.3l.6 6.2-4.3.3-4.4.3-.3 5.7c-.3 5.5-.2 5.8 2 5.8 5.5 0 6.8 1 6.8 5 0 6.6.4 7 8.2 7h7l-.5-17.8c-.4-13.1-1-19.8-2.5-25.7-10.3-40.4-42.1-71.7-82.2-81-9.6-2.2-28.8-2.7-39-1zM1195.3 1154c-23 3.2-42.7 12.8-59.7 29.1-23.9 22.8-35.3 51.2-34.4 85.4l.3 11 7.3.3 7.2.3v-10.9l4.5-.7 4.6-.6-.3-5.7-.3-5.7-4-.5-4-.5.3-5c.8-12.2 6.2-28.9 13.2-40.7 10.8-18.2 26.1-31 46.6-39.1 10.4-4.1 19.6-5.7 32.7-5.7 24.6 0 44.4 8.2 64.7 26.8l5.5 5.1.3-8c.3-9.3 1-8.4-12.6-17.6-10-6.7-23.4-12.6-34.6-15.3-9.3-2.3-28.2-3.3-37.3-2z"/></svg>